/* XPM */
static char *c770325e53fe4fd8d0a8e8e4da3767bdrRvy9vxSeVGa3XOH[] = {
/* columns rows colors chars-per-pixel */
"8 8 6 1 ",
"  c #336A8E",
". c #3977A0",
"X c #4692C4",
"o c #51A8E2",
"O c #DBC7C7",
"+ c #F2DCDC",
/* pixels */
"OO++++OO",
"O  ..  O",
"+ XXXX +",
"+.XooX.+",
"+.XooX.+",
"+ XXXX +",
"O  ..  O",
"OO++++OO"
};
