/* XPM */
static const char *basalt[] = {
/* columns rows colors chars-per-pixel */
"64 64 137 2 ",
"   c #0D0905",
".  c #120C06",
"X  c #120E0A",
"o  c #15110D",
"O  c #19130F",
"+  c #161410",
"@  c #1A1611",
"#  c #1D1A15",
"$  c #1F1D19",
"%  c #211B17",
"&  c #221E1A",
"*  c #25221D",
"=  c #28241F",
"-  c #272420",
";  c #2A2622",
":  c #2D2925",
">  c #2E2C28",
",  c #302C27",
"<  c #322E29",
"1  c #35322D",
"2  c #39342E",
"3  c #373430",
"4  c #3A3631",
"5  c #3D3A34",
"6  c #3F3C38",
"7  c #403C37",
"8  c #423E39",
"9  c #45413C",
"0  c #48443E",
"q  c #474441",
"w  c #4A4641",
"e  c #4D4945",
"r  c #4F4C48",
"t  c #504C47",
"y  c #524E49",
"u  c #55514D",
"i  c #58544F",
"p  c #575550",
"a  c #595652",
"s  c #5E5955",
"d  c #5D5955",
"f  c #5F5C57",
"g  c #5D5955",
"h  c #5F5D58",
"j  c #5F5C59",
"k  c #605C57",
"l  c #605C57",
"z  c #605C58",
"x  c #615D58",
"c  c #605D59",
"v  c #625D59",
"b  c #605E59",
"n  c #615E59",
"m  c #625E59",
"M  c #605E5B",
"N  c #635F5A",
"B  c #635F5B",
"V  c #645F5A",
"C  c #625F5C",
"Z  c #635F5C",
"A  c #625E5A",
"S  c #64605B",
"D  c #63625D",
"F  c #64615C",
"G  c #65615D",
"H  c #66615D",
"J  c #65615E",
"K  c #67635E",
"L  c #65615D",
"P  c #68635F",
"I  c #68645F",
"U  c #676461",
"Y  c #676461",
"T  c #686460",
"R  c #6B6661",
"E  c #696663",
"W  c #6A6662",
"Q  c #6B6764",
"!  c #6A6662",
"~  c #6A6866",
"^  c #6D6864",
"/  c #6E6A66",
"(  c #6D6965",
")  c #6E6B68",
"_  c #706C67",
"`  c #706C67",
"'  c #706C68",
"]  c #716C69",
"[  c #716D69",
"{  c #736E69",
"}  c #726E6A",
"|  c #74706B",
" . c #73716F",
".. c #74716E",
"X. c #75726F",
"o. c #76726E",
"O. c #75716D",
"+. c #767370",
"@. c #767471",
"#. c #7B7673",
"$. c #7A7672",
"%. c #7F7A77",
"&. c #7F7B77",
"*. c #7D7975",
"=. c #7E7B78",
"-. c #807C77",
";. c #817D78",
":. c #817D79",
">. c #837F7B",
",. c #817E7A",
"<. c #86827D",
"1. c #85837F",
"2. c #86827E",
"3. c #87837F",
"4. c #85827E",
"5. c #878481",
"6. c #898480",
"7. c #898582",
"8. c #8A8683",
"9. c #8A8783",
"0. c #898582",
"q. c #8D8986",
"w. c #8F8B88",
"e. c #938E8A",
"r. c #928E8B",
"t. c #95928E",
"y. c #979391",
"u. c #989591",
"i. c #999693",
"p. c #9B9795",
"a. c #999693",
"s. c #9C9A95",
"d. c #9D9A95",
"f. c #9D9B98",
"g. c #9E9C98",
"h. c #9E9C9A",
"j. c #A3A09E",
/* pixels */
"3 8 g 8.3...S 8 4 1 : 5 w r  .8.8.:.i r e y u q 5 4 4 9 8 9 7 e w w y y y w 9 2 $ $ * : 5 & & = 1 4 & > 7 N 8.N < ; * < 4 2 2 4 ",
"< 4 U g.:.Z i 8 3 1 < 4 w 8 9 D 3.e./ H } u.f.3.H N a 8 5 5 8 0 9 8 8 9 7 , * = & $ $ ; 4 1 1 8 8 5 * ; 2 9 y ; X $ , 3 9 8 q 9 ",
"w 1 , r f a 9 1 4 1 2 0 9 2 4 5 N T N T } u.s.3...%._ a 9 7 5 5 9 7 5 5 1 ; $ $ : 1 4 8 9 g ~ +.N 5 ; * : ; > 2 & : 3 4 w y E } ",
"a : X O * 2 4 , 5 4 8 9 5 2 4 ; ; * 8 y i T N N N P / H y r w 0 w 9 u N u 4 ; : 4 0 w 9 r i :.p.:.a 1 & @ @ @ < < 1 1 1 7 u $.%.",
"e 9 4 8 y N r 2 4 < 3 5 7 9 7 t e 1 y 5 < 7 : 1 5 r H g a h Z e 9 u k H V r 8 8 0 a s N ..Z N | } N r < $ = w T } g 5 : * 3 9 9 ",
"3 I h *.3.{ y 5 5 1 5 5 w w u _ #.^ u 9 1 < & ; < : 7 7 u y y 9 7 r t e y i a N s T ..$.5.T u N T _ N 5 ; 5 } q.8.} e 5 : : $ X ",
"i a : y ..H 5 < < 2 9 9 t i S u D / } } T N a u a 9 1 9 9 9 9 9 9 8 w w y u y u u g H H / N 0 w a / / g 9 0 Q #.:.} g w 5 , = % ",
"w 8 % 1 0 4 < , 4 a ~ g u V u = : a T / H ^ { } T / y 0 9 y y 9 w 5 6 8 9 5 4 4 1 5 9 0 y k r 8 u S y 5 g / ..*.e.3.4.N 9 < ; 1 ",
"* $ $ ; & : > ; > H 4.T T u 8 , 4 T N y y H N I H ..H } $.w.r.l 8 7 1 1 7 < 1 < < < 2 4 5 a g 8 9 9 * + 7 N / ..*.} N w 5 1 < ; ",
"& $ 4 7 > , < & + $ 1 1 a 1 & : 8 y e 6 < 4 t y N ` H / } %.>.N 1 < : 1 2 5 r y 6 5 1 : ; 5 g 4 4 1 , : 8 1 0 a u 2 > 4 3 ; * $ ",
"8 w Z h 9 5 1 ; $ O O ; < * ; 7 9 9 8 < : : < ; 2 0 e 0 u k N u 5 < , 4 9 y t y e 4 : < 4 8 r w r 0 8 4 2 : > 1 ; # @ : ; & ; 4 ",
"r g h y w 8 7 ; & ; < : < < 1 5 5 5 1 * * * & @ & r 5 : @ X & w w 9 4 1 8 w 8 0 7 8 9 g N Q T H %.T y 9 : , 5 8 4 = * 1 ; ; 4 r ",
"5 9 9 9 4 < : - > 9 y u r a p y w 8 4 < ; : : & : y r w < % 4 r e r f w 5 8 r r a } ..*...$.%. .} } H g : * 8 e 8 6 5 5 ; * ; 5 ",
": , : : * * * 1 4 r a N a N g a y 9 5 9 4 4 5 * @ 0 H a 1 9 r f r e r 9 7 5 y a T 3...H a T ..T H H g r < 1 0 u t t r w 5 8 5 1 ",
"q : ; : > < 6 u u g u t t i g a y 4 , 5 8 0 e 7 , 4 w 7 < 7 w g r e 9 5 8 8 y t / :.H 8 9 ....g u V l g 9 4 3 7 7 w t y Z =.} r ",
"8.} H 8 1 1 5 r y a g e w w u N k 8 < 1 9 u i a a u 9 5 5 4 4 8 9 w 9 5 8 8 8 ; 1 g y 2 5 ^ :.} e 9 u H g 0 1 , 4 y r u $.g.s.$.",
"/ %.q...N 5 : : : < > 1 2 5 w g i 1 : : * 7 a N q.t.8.T y 8 4 1 2 2 4 4 3 7 7 & @ $ = 5 9 _ ..V y 5 w g ~ k g i $.8.} u i g T H ",
"= } :.$.K t y 8 5 ; & < 4 < 5 y 8 < , 1 ; 5 5 8 { t.s.-.H w 1 4 8 w 9 4 < 2 5 < * * < q 0 9 e y 8 : 2 a l H $./ } ..:.Y 9 1 2 < ",
"  r / H 9 9 D ) } g 5 , & $ & ; * 1 9 0 : 1 * = r ^ H u a 9 1 9 e a Z 9 5 5 4 5 2 < 5 a w ; O * * & : 4 : 7 a N T N T T u 9 $   ",
"% 1 4 1 1 < e l H a w : & $ $ $ * 1 8 8 4 4 : = < 5 $ @ ; 1 4 0 e y g 8 6 7 7 w w 2 5 q r 7 & , : $ : : * & < 2 8 ; < / t.:.y $ ",
"9 0 1 : 1 > 5 e 5 4 4 : ; ; : * : 5 4 : , : < = * * O X & 2 9 e e w 7 1 1 7 9 H ~ r 5 5 w w < 1 4 : : < 1 : < * @ o X 2 9.j.=.r ",
"..8.} s r w r 8 * - 1 5 5 1 1 : < 5 5 ; : < : $ $ & & # : 9 w y a a 4 , 1 9 w y i 0 4 5 9 0 y 5 5 1 < 1 9 2 1 < = % O < N T } H ",
":.u.4...} g a t < > 8 w r 9 7 5 5 5 5 1 1 4 1 ; & ; ; ; 2 9 Z ) :.e.a 4 4 8 8 8 w 9 8 r Z u u w 1 4 w r 9 8 9 8 w y 8 w < y / N ",
"T T a T T y r 0 4 2 5 5 2 4 5 a H g 2 : 1 4 4 * - , ; , * 7 4 5 E %.g 4 4 4 1 8 8 7 w g } i e p 8 4 5 6 8 9 9 0 a H u 4 & * 9 0 ",
", 1 & 9 y r w u e 5 1 1 5 8 e N ....y 4 9 2 : * ; : ; ; - 1 9 < N _ y 8 4 < < 5 r w r U :.H 0 r g 9 9 1 , < 1 1 < < 4 < : < w 0 ",
"O X @ 4 : 8 9 a r 8 1 8 N N a H $...T $.e.*.4 : 1 1 ; ; - < 4 r N u w 9 1 1 0 @.q.:.a a / H r w i U ~ g 0 6 8 5 1 ; 1 7 e f E r ",
"y ; , = O : 9 u e 4 8 N ..T S H / _ Q $.q.8.r 1 1 : : : 3 5 : , 4 4 4 4 4 r ..u.y.-.g r s H a u g l  ...u 9 u r w 9 5 w a T q.8.",
"*.g r 2 ; 1 5 8 5 4 u l u w r i a a e u ^ _ t 1 1 : * < Z T 3 < : ; : < 5 u ..9...e y u y l ..:.-.N u N e 7 y q 8 9 5 9 y N -.e.",
"$.3.%.H r 5 5 8 8 w a g y < ; 9 w 4 $ : 9 a 0 4 6 1 $ O y / 8 4 > ; 1 8 < & t ..i % * 8 7 a $.8.3.T 9 w 8 8 q 4 7 1 - 4 9 a i T ",
"} a H g u 8 7 y N @.N 4 ; @ # 1 7 2 * & < 4 8 g %.a O   ; u 5 < 1 1 9 w , @ 9 Q Z < o . @ 5 4 8 S a < 3 5 r a 0 0 5 , : : < * y ",
"9 4 r g a 9 8 e 5 a i e 9 : : 7 9 8 4 1 1 4 N { %.N ; @ , 4 4 : 1 5 w e 0 , 4 i u = @ O = 1 * , e 9 4 1 4 0 r 8 0 8 7 1 1 < = & ",
", y h U H a a 4 X $ : 1 < * : 1 1 5 : : 4 w ,...T r : : 1 < < < 5 0 e u T N r 0 u : * , 7 5 8 N ` l 9 9 9 9 0 w 5 5 9 w 0 w 8 * ",
"w w y y y w 9 2 $ $ * : 5 & & = 1 4 & > 7 N 8.N < ; * < 4 2 2 4 3 8 g 8.3...S 8 4 1 : 5 w r  .8.8.:.i r e y u q 5 4 4 9 8 9 7 e ",
"9 8 8 9 7 , * = & $ $ ; 4 1 1 8 8 5 * ; 2 9 y ; X $ , 3 9 8 q 9 < 4 U g.:.Z i 8 3 1 < 4 w 8 9 D 3.e./ H } u.f.3.H N a 8 5 5 8 0 ",
"9 7 5 5 1 ; $ $ : 1 4 8 9 g ~ +.N 5 ; * : ; > 2 & : 3 4 w y E } w 1 , r f a 9 1 4 1 2 0 9 2 4 5 N T N T } u.s.3...%._ a 9 7 5 5 ",
"w 9 u N u 4 ; : 4 w w 9 r i :.p.:.a 1 & @ @ @ < < 1 1 1 7 u $.%.a : X O * 2 4 , 5 4 8 9 5 2 4 ; ; * 8 y i T N N N P / H y r w 0 ",
"9 u k H V r 8 8 0 a s N ..Z N | } N r < $ = w T } g 5 : * 3 9 9 e 9 4 8 y N r 2 4 < 3 5 7 9 7 t e 1 y 5 < 7 : 1 5 r H g a h Z e ",
"7 r t e y i a N s T ..$.5.T u N T _ N 5 ; 5 } q.8.} e 5 : : $ X 3 I h *.3.{ y 5 5 1 5 5 w w u _ #.^ u 9 1 < & ; < : 7 7 u y y 9 ",
"9 8 w w y u y u u g H H / N 0 w a / / g 9 0 Q #.:.} g w 5 , = % i a : y ..H 5 < < 2 9 9 t i S u D / } } T N a u a 9 1 9 9 9 9 9 ",
"w 5 6 8 9 5 4 4 1 5 9 0 y k r 8 u S y 5 g / ..*.e.3.4.N 9 < ; 1 w 8 % 1 0 4 < , 4 a ~ g u V u = : a T / H ^ { } T / y 0 9 y y 9 ",
"8 7 1 1 7 < 1 < < < 2 4 5 a g 8 9 9 * + 7 N / ..*.} N w 5 1 < ; * $ $ ; & : > ; > H 4.T T u 8 , 4 T N y y H N I H | H } $.w.r.l ",
"1 < : 1 2 5 r y 6 5 1 : ; 5 g 4 4 1 , : 8 1 0 a u 2 > 4 3 ; * $ & $ 4 7 > , < & + $ 1 1 a 1 & : 8 y e 6 < 4 t y N ` H / } %.>.N ",
"5 < , 4 9 y t y e 4 : < 4 8 r w r 0 8 4 2 : > 1 ; # @ : ; & ; 4 8 w Z h 9 5 1 ; $ O O ; < * ; 7 9 9 8 < : : < ; 2 0 e 0 u k N u ",
"w 9 4 1 8 w 8 0 7 8 9 g N Q T H %.T y 9 : , 5 8 4 = * 1 ; ; 4 r r g h y w 8 7 ; & ; < : < < 1 5 5 5 1 * * * & @ & r 5 : @ X & w ",
"e r f w 5 8 r r a } ..*...$.%. .} } H g : * 8 e 8 6 5 5 ; * ; 5 5 9 9 9 4 < : - > 9 y u r a p y w 8 4 < ; : : & : y r w < % 4 r ",
"r e r 9 7 5 y a T 3...H a T ..T H H g r < 1 0 u t t r w 5 8 5 1 : , : : * * * 1 4 r a N a N g a y 9 5 9 4 4 5 * @ 0 H a 1 9 r f ",
"r e 9 5 8 8 y t / :.H 8 9 ....g u V l g 9 4 3 7 7 w t y Z =.} r q : ; : > < 6 u u g u t t i g a y 4 , 5 8 0 e 7 , 4 w 7 < 7 w g ",
"9 w 9 5 8 8 8 ; 1 g y 2 5 ^ :.} e 9 u H g 0 1 , 4 y r u $.g.s.$.8.} H 8 1 1 5 r y a g e w w u N k 8 < 1 9 u i a a u 9 5 5 4 4 8 ",
"2 2 4 4 3 7 7 & @ $ = 5 9 _ ..V y 5 w g ~ k g i $.8.} u i g T H / %.q...N 5 : : : < > 1 2 5 w g i 1 : : * 7 a N q.t.5.T y 8 4 1 ",
"8 w 9 4 < 2 5 < * * < q 0 9 e y 8 : 2 a l H $./ } ..:.Y 9 1 2 < = } :.$.K t y 8 5 ; & < 4 < 5 y 8 < , 1 ; 5 5 8 } t.s.-.H w 1 4 ",
"e a Z 9 5 5 4 5 2 < 5 a w ; O * * & : 4 : 7 a N T N T T u 9 $     r / H 9 9 D ) } g 5 , & $ & ; * 1 9 0 : 1 * = r Q H u a 9 1 9 ",
"e y g 8 6 7 7 w w 2 5 q r 7 & , : $ : : * & < 2 8 ; < / t.:.y $ % 1 4 1 1 < e l H a w : & $ $ $ * 1 8 8 4 4 : = > 5 $ @ ; 1 4 0 ",
"e w 7 1 1 7 9 H ~ r 5 5 w w < 1 4 : : < 1 : < * @ o X 2 9.j.=.r 9 0 1 : 1 > 5 e 5 4 4 : ; ; : * : 5 4 : , : < = * * O X & 2 9 e ",
"a a 4 , 1 9 w y i 0 4 5 9 0 y 5 5 1 < 1 9 2 1 < = % O < N T } H ..8.} s r w r 8 * - 1 5 5 1 1 : < 5 5 ; : < : $ $ & & # : 9 w y ",
":.e.a 4 4 8 8 8 w 9 8 r Z u u w 1 4 w r 9 8 9 8 w y 8 w < y / N :.u.4...} g a t < > 8 w r 9 7 5 5 5 5 1 1 4 1 ; & ; ; ; 2 9 Z ) ",
"E %.g 4 4 4 1 8 8 7 w g } i e p 8 4 5 6 8 9 9 0 a H u 4 & * 9 0 T T a T T y r 0 4 2 5 5 2 4 5 a H g 2 : 1 4 4 * - , ; , * 7 4 5 ",
"N _ y 8 4 < < 5 r w r U :.H 0 r g 9 9 1 , < 1 1 < < 4 < : < w 0 , 1 & 9 y r w u e 5 1 1 5 8 e N ....y 5 9 2 : * ; : ; ; - 1 9 < ",
"N u w 9 1 1 0 @.q.:.a a / H r w i U ~ g 0 6 8 5 1 ; 1 7 e f E r O X @ 4 : 8 9 a r 8 1 8 N N a H $...T $.e.*.4 : 1 1 ; - - < 4 r ",
"4 4 4 4 4 r ..u.y.-.g r s H a u g l  ...u 9 u r w 9 5 w a T q.8.y ; , = O : 9 u e 4 8 N ..T S H / _ Q $.q.8.r 1 1 : : : 3 5 : , ",
": ; : < 5 u ..9...e y u y l ..:.-.N u N e 7 y q 8 9 5 9 y N -.e.*.g r 2 ; 1 5 8 5 4 u l u w r i a a e u ^ _ t 1 1 : * < Z T 3 < ",
"> ; 1 8 < & t ..i % * 8 7 a $.8.3.T 9 w 8 8 q 4 7 1 - 4 9 a i T $.3.%.H r 5 5 8 8 w a g y < ; 9 w 4 $ : 9 a 0 4 7 1 $ O y / 6 4 ",
"1 1 9 w , @ 9 Q Z < o . @ 5 4 8 S a < 3 5 r a 0 0 5 , : : < * y } a H g u 8 7 y N @.N 4 ; @ # 1 7 2 * & < 4 8 g %.a O   ; u 5 < ",
"1 5 w e 0 , 4 i u = @ O = 1 * , e 9 4 1 4 0 r 8 0 8 7 1 1 < = & 9 4 r g a 9 8 e 5 a i e 9 : : 7 9 8 4 1 2 4 N { %.N ; @ , 4 4 : ",
"5 0 e u T N r 0 u : * , 7 5 8 N ` l 9 9 9 9 0 w 5 5 9 w 0 w 8 * , y h U H a a 4 X $ : 1 < * : 1 1 5 : : 5 w ,...T r : : 1 < < < "
};
