/* XPM */
static const char *cave_gravel[] = {
/* columns rows colors chars-per-pixel */
"64 64 145 2 ",
"   c #272727",
".  c #262F21",
"X  c #2A2A2A",
"o  c #3D2526",
"O  c #3C2C2D",
"+  c #2B3224",
"@  c #2E342A",
"#  c #31372D",
"$  c #32382E",
"%  c #3E2F31",
"&  c #353B32",
"*  c #393F35",
"=  c #412525",
"-  c #462A22",
";  c #482D25",
":  c #432729",
">  c #442A2C",
",  c #492F2A",
"<  c #4A322D",
"1  c #452C31",
"2  c #482E32",
"3  c #4D3533",
"4  c #4F3936",
"5  c #4B3438",
"6  c #4D393A",
"7  c #503734",
"8  c #523B36",
"9  c #51373A",
"0  c #533D3A",
"q  c #583F3A",
"w  c #613632",
"e  c #663F37",
"r  c #743F32",
"t  c #3A4037",
"y  c #3E443A",
"u  c #40463C",
"i  c #42493E",
"p  c #55423B",
"a  c #5B423D",
"s  c #5C483F",
"d  c #61453E",
"f  c #6C453A",
"g  c #744235",
"h  c #794435",
"j  c #764739",
"k  c #744A3B",
"l  c #7C4D3C",
"z  c #454C41",
"x  c #484F44",
"c  c #544241",
"v  c #5C4442",
"b  c #5D4A43",
"n  c #57484A",
"m  c #5C4D48",
"M  c #4A5145",
"N  c #4E5449",
"B  c #5D5146",
"V  c #51574C",
"C  c #5F564C",
"Z  c #51584D",
"A  c #5F5052",
"S  c #614745",
"D  c #644C42",
"F  c #6C4E44",
"G  c #664E48",
"H  c #6A4E48",
"J  c #714D40",
"K  c #665146",
"L  c #6B5146",
"P  c #62554C",
"I  c #6C5449",
"U  c #625A4E",
"Y  c #6B5A4D",
"T  c #735244",
"R  c #7B5544",
"E  c #71564B",
"W  c #735C4D",
"Q  c #7A5C4D",
"!  c #615154",
"~  c #665D51",
"^  c #6A5F52",
"/  c #725E51",
"(  c #79604E",
")  c #676050",
"_  c #6C6254",
"`  c #716556",
"'  c #7C6554",
"]  c #736857",
"[  c #7B6956",
"{  c #776758",
"}  c #766A59",
"|  c #7A6D5A",
" . c #7F705C",
".. c #825643",
"X. c #8A5643",
"o. c #835945",
"O. c #825D49",
"+. c #8D5D48",
"@. c #87624E",
"#. c #89634F",
"$. c #856552",
"%. c #8D6752",
"&. c #836A55",
"*. c #8C6C56",
"=. c #886758",
"-. c #836D5A",
";. c #8C6E5C",
":. c #82735E",
">. c #8A725D",
",. c #857662",
"<. c #8A7663",
"1. c #877964",
"2. c #897A66",
"3. c #8F7668",
"4. c #8B7C6A",
"5. c #8C7F6D",
"6. c #917C6D",
"7. c #927E70",
"8. c #957F70",
"9. c #8C806F",
"0. c #8F8373",
"q. c #8F8475",
"w. c #918171",
"e. c #908273",
"r. c #928274",
"t. c #928678",
"y. c #958479",
"u. c #95877B",
"i. c #99847B",
"p. c #98857B",
"a. c #9A847D",
"s. c #92887A",
"d. c #92897C",
"f. c #95897E",
"g. c #978C7F",
"h. c #98897E",
"j. c #9B8680",
"k. c #978A81",
"l. c #978D81",
"z. c #988F82",
"x. c #9D8984",
"c. c #9D8B8D",
"v. c #8C9487",
"b. c #8D9588",
"n. c #949184",
/* pixels */
"~ | t.t.1._ :.:.9.q.4.| ` ,. .} :.} | | 4. .~ 5.2.U ` ` 9.9.4.0.:.U  .5.t.d.t.0.9.e.2.` _ P U | ~ ^ U 9.5.1.,.2.4.1.:.` N | 0.V ",
" .V | 4.4.} U P | _  ._ | 4.C ~ | P | ,.5.4.| ` _ 4.,.1.| 5.| 9.,.| } _ ] :.4.1.] 5.q.:.,.,.,.| :.| ] 0.4.:.4.,.0.q.` K >.9.q.| ",
"4.} U 1._ U U ` U 5.:.:.} N _ a 3 d :.0.| :.` 4. .:.~  .,.5. .| | 1.:.~ M + $ z 1.5.2.} :.} } :.| ,.:.| :.` 5.4.9.0.&.8 8 ' 9.2.",
"4.~ _ ~ V 1.| ` :.4.4.4.:._ | p , 3 K 4.,.` U ,.^ | | ,.,.| | | 5.| | ~ P N X * ,.4.~ _ 2.} } 4.5.4.4. .e.:.` ' ' &.' L 3 / :.9.",
"0.q.:.} | :.| ` ` ] ,.:.| ` ,.-.W &.[ | 4.:. . .^ :.0.0.1.4.| } :.| 4.^ ~ * + & ,.| :.5.5.| ` | 1.:.5.:.4._ Y p 8 D W a 3 p 4.t.",
"0.| ~ 1.0.~ N } _ P ~ | C | 0.| | ^ Y b p K K } ^ | } } | ` ~ @ N & e.` :.2._ _ ,.2.2.e.5.5.| | } U _ _ 4.| P a - < b ^ | 4.:.5.",
"9._ _ t.0.:.N W r j ,.4.4.4.4.} :.2.' < - 3 a ` 4.,.` ,._ ^ .   X N 0.4.| :.| | 4.l.n.e.,.:.,.1.5. .` 4.1. .[ D d F ' 4.:.| | } ",
"~ :.4.~ Z y b f g X.<.[ 4.2.:.9.9.5.| D 8 8 a } :.` | 2.| * X X + X ,.:._ 1.1.] :.f.u.0.5._ } 4.:.` ~ ] :.| Y [ ^ :.4.1.4.4.2. .",
"U ,.:.z # . * t -.j.x.7.,.4.4.s.0.:.~ } [ I L 4.:.:.:.4.,.2.$ u i N ` _ :._ z i U | Y P G / Y ~ ~ ` ~ | | ] _ _ U _ 4.4.] ^ _ | ",
"} 0.0.Z y $ & + P p.a.2. .5.9.0.0.5.:.} 2.5.4.5.1.4.9.2.:.:.N ` :.2.r.5.-.y . . M ,.Y 6 : 2 I ] &.:.^ C C ` | u.k.<. . .:.U Z ^ ",
"0.t.0.| | Z M i x -.<.[ 1.| 5.t.5.4.4.4.:.|  .9.| :.| | U ` _ ^ 2.l.g.u.>.n q d R O.L 0 1 > G / 9 S 0 m | | 9.z.n.f.>. .U U ` 4.",
"1.,. ._ | ` :.4.@.R P ^ } :.} 4.5.5.4.9.1.| } | | :.| | _ | | | u.g.e.u.5.$.j h h k / ` ^ P | | 9 9 > > _ V | 4.l.z.5. .| U ,.0.",
":.} ~ ` ~ 1.| ,.#.l T ` _ 4.,.4.:.:.}  . .} 4.| ,.:.| 1.,.`  .9.1.t.2.4.0.[ R l g l Y ~ U t z ` ,.v 5 9 5.^ ^ 2.f.x.2.| | | :.4.",
":. .} ~ ~ ,.:.} <.&.[ 1.4.q.q.4.,.,.:.B u i ' x ` _ :._ ] ^ 2.e.,.:.1.<.| <.P ' F O.B # X . . ^ :.,.| ` 4.k.z.| -.` P N ~ ` | | ",
"4.2.:.` | 5.,.| ` :.1.,.4.5.0.:. .:.! % o o & & V ~ ,.1.<.r.u.| 2.:.} z.u.r.` _ :.2.} # + X # N ` ] ` | u.x.b.| M t Z ] U ` | _ ",
"M _ ,.:.U ,.9.| 4.1.` ` :.`  .,.| _ y . o = O @ & U ~ 5.r.l.k.u.`  .4.$.*.6.` | ,.2.P t $ & _ | ,.,._ ^ ^ 4.5.} & . ` :._ :.] ~ ",
"` U ` ,.:.,.:.:.` } ` | 2.1.^ ] | V i * 1 > c & # x ~ | 6.l.z.z.z.4.E - < 2.4.:.:.5.t.z.u.4.| :.:.` u * x | ,._ * * |  .` | :.9.",
"5.9.&.p B ,.` ~ ]  .| } ,.1.:.U | :.:.|  .,.^ M N N | ,.-.-.6.>._ } p ; < D <.:.| 5. .5.t.5.4.:.^ V + + @ N ,.] ~ ` ,.:.N ` 4.1.",
"4.E 3 ; s ` 1.U U  . .| ,.| | ,.| ~ 4.| <.>.2.4.1.U _ _  ._ -.` ~ _ ` s E H <.0.4.` <.k.z.u.:.} ,.M $ * y M 5. .`  .5.,.C  . .1.",
"U 0 ; < b :.1.:.^ :.5.4.| | } ` 4.` [ ` ;.a.u.e.1.` Z N V ~ ` :.~ ~ N ` ,.:.4.5.4.Z ~ | _ ` } ^  .| } ` U ` :.:.:. .Z :.[ ~ _ :.",
"` [ p D ^ ] } | ] _ | 1.| :.:.W Q D W B -.3.u.5. .,._ U _ _ ` ~ y + X . Z :.` C U ` U N p p D b | :.:.| ^ _ :.} | [ [ <.2.` } 1.",
"| ` ] >.,.4.0.:.1.| _ _ | ,.5.a a q D Y _ ` 4.` 4.2.4.:.|  .`  .@     X z ,. ._ :.4. .` a - q W :.2.5.1.] | ,.,.4.,.e.k.k.} ,.5.",
"5.:.` ~ | u.j.3.:.0.5.4.` ` 5.' D q 8 K 4.,.] 1.1.~ :.' v a W K & +   + & ^ :.1.4.5.1.:.} 2.D v 4.0.1.| 9.2.| ` :.| 4.z.4.U 0.t.",
"5.e.:.:.>.6.u.p.<.5.4.:.} } 1.| [ L K ' 5.~ :. .` | -.a : w f k O./ Z  .4.5.| ~ ` 4.5.4.| ,.| ,.,.e.9.1.1.0.| 4._ ` 4.e.4._ 9.5.",
"9.:.| 2. .] [ :.4.5.| Y ! Z ` ^ ^ 1.4.1.| ~  .4.^ } <.G q e g g j R >.2.d.4.:.4.` | 4.4._ 1._ | ` ^ :.4.,.:.` ` _ _ ,.5.0.9.1.} ",
",.t.9.1. .] ` ` U ^ t $ # y ^ i & ` q.q.,.Y P &.^ 4.5.,.4.:.Q j X.@.3.u.4.5.9.l.4.:.2.` ] :._ 1.1._ ` 4.` ^ ~ :.` } } 4.|  .} :.",
"` ,.,.9.,.4.| y + # % o = . t . X y :.0.,.D 8 0 b 9.,.:.:.:.5.| e.u.g.v.` 5.n.b.5.,.:.| | ` ~ ,.} ` ,.:.[ W -.4.:. .5.,.,.4.~ ^ ",
"} 4.9.4.2.| 5._ * @ o o = = & $ # ^ _ | ^ p ; - < b | U P ` q.:.[ 5.l.6.:.5.>.t.0.9.4.1.,.| | ^ x N N U 4 , 8 | | | | 4.4.4.| | ",
"^ _ | :.1.,.:.C _ :.` z y :.N & $ M <.r.:.1.I 3 ; D Y :.,.q.t.:.` ` 4.| ,.q.q.| :.,.9.9.:.| & & . $ + + b < a Q :.:.| } 4.4.| _ ",
"e.4.} ` _ :.b b ] 4.9.0.0.5.4.,.:.4.l.z.4.4.2.<.[ | _ } ^ 4.| ] 4.` _ 4.9.9.| ^ ` ,.1.4.` [ * . # $ . * N ^ 2.4.1.:.} } ^ ~ :.0.",
"4.e.4.~ ,.K , - B | q.q.q.1.r.e.f.k.z.u.0.9.,.| ,.` 5.,.,.,.L K 4.` _ 0. .1.} } _ :.|  .P [ A N M z + i ~ ^  .,.| | [ ` ,.| :.4.",
"C | :._ 0.Q 3 0 ^ 4.U ~ 2.} u.u.g.n.u.{ :.} } ] V :.| _ _ 0.W 8 G 0.q.0.4.e.0.9.0.4.} | 0 v [ _ V N i y ] M ` 4.4.-.s b >.0.2._ ",
":.U  .5.t.s.Q &.4.e.2.` _ P | r.f.r.-.9.5.1.,.2.4.1.:.] N | 2.b P | t.t.1._ :.:.9.q.4.| Y | | } :.} | | 4. .~ 4.D < ; - 5.9.4.0.",
",.| } _ } ,.<.5.4.5.q.:.,.,.,.2.5.4.| 0.4.:.4.,.e.f.,.` q.d.q.|  .V | 4.4.} U P | _  ._ >.5.C ~ :.U | ,.5.4.| _ q - - ; ` 5.| 9.",
"| 1.:.^ U | } ` 1.5.1.} :.} } :.| ,.:.| :.` 5.4.e.z.f.4.| q.9.2.4.} U 1._ U U ` U 5.:.1.z.z._ _ ~ 4.4.0.| :.` 4.L ; - D &.5. .| ",
"5.| | ~ C ~ } | ' L b Y 2.} } 4.5.4.2.Z ,.U _ :.0.u.u.4.:.| :.9.4.~ _ ~ V 1.| ` :.4.4.t.t.u.| U `  .| 0.,.` U :.b D D -.,.| | | ",
":.:.4._ ` | ^ Y W 8 a >.5.| ` | ,. .4.& u t U N :.e.5.*.I E %.e.0.q.:.} | :.| ` ` } ,.:.| ` ,.,.,.0.,.:.4.:. . .^ k.x.0.1.4.| | ",
"| 9.t.` :.,.P P Y 8 8 &.5.5.| } ~ & y + M y Z ,.} Z _ T j l g >.0.| ~ ,.5.x z ^ _ P ~ } P } 0.| 5.6.4.2.^ ' [ } r.v.z.} | ` | 5.",
"V 1.q.4.[ W - 3 W I I W [ a W D :.# . # . N ] >.>.>.5.*.l g g g *.U ^ 0._ X + * ` } ,.o.>.4.4.} 4.k.k.f.>.|  .` 5.z.2.,.` | :.5.",
"U ` 5.:.Y D a p | 5.:.1.-.- 3 a :.` N ) [ v 1 2 1 5 4.1.U D E & * y _ ~ & X . y C :.` k l >.:.9.9.9.e.8.;.' 4.} :.,.:.2. . ._ 4.",
"~ U ` ~ :.,.9.:.{ | C _ | ' s - p _ 0 , q D 5 > : > 1 1.N @ # X   & . i Z * ~ i I +.*.:.&.2.4.s.0.:.~ ` [ >.4.4.:.:.:.4.,.4.] :.",
"| U _  .| ` | | :.:.~ ^ `  .1.D K >.` 0 0 c 5 5 =.h.e.<.| z # & @ & t x _ _ ` E j g o.:. .5.9.0.0.5.:.} 4.9.4.4.:.1.e.9.,.:.U | ",
"| ,.` _ | ~ _ 5.0.:.p 3 Y | 4.,.4.| K < < 6 @ . @ [ >.W B C _ 4.9.0.0.| | ` ^ R g j Q ` 2.| 5.t.5.4.4.4.:.| | ,.` :.4.u.>.` _ ~ ",
"0.:.` ~ z i N 5.4.b 3 ; Y ` ,.4.9.4.` _ ~ & + . z 6.p.T D U ,.0.1.,. .` | P 0 F ..T P _ } :.} 4.5.5.4.9.1.| Z z ^ ,.e.n.2.[ | | ",
":.9.| ` $ . * ` ~ [ Y / :.^ ~ :.,.4.5.e.2.x y @ . O 0 8 G | :.4.:.} ~ ` K v 5 2 H -._ } _ 4.:.-.[ :.}  . .] ` M ` ,.5.t.<.`  .9.",
",.:.1.~ u * u Y C :.,.1.} :.~ _ :.1.| <.u.e.0.>.| U U N ~ ` | | :. .} ~ ~ &.[ ` ,.:.4.f.5.2.>.>.:.,.:.` ~ 4.5.| _ Z ~ P N P ,.q.",
"2.:.} _ 1.` _ b S >.4._ ^ } _ V ` } ` e.v.l.l.0.:.~ ^ } * * ~ ^ 4.2.:.` | 5.,.| ` <.f.l.z.' a Y | | _ & & 4.:.] C # @ # + _ 0.` ",
"~  .4.~ ~ U ` Y v E ] ^ U ` | | 1.5.5.,.5.u.z.e.] ` ,.i + . * z M _ ,.:.U ,.9.} 4.2.>.>.2.` ' | ] U + + . | ~ U i # . . $ & | ` ",
"4.4.5.,.4.| 4.:.:.5.1.,.,.4.>.:.,.5.4.,.,.2.0.5.4.^ 1.` $ $ # & M U ` ,.:.,.:.:.` } } | 1.,.P b v 6 y ^ ~ ` | _ U ` P U U | ,.:.",
"~ } P ] 4.4.0.:.| 5.| | 0.n.g.:._  .5.1.:.4.,.| 1. .,.:.i V ` ` ,.0.5.~ ~ ,.` ~ Y &.u.} ,.,.Y 1 > > S ,.1.4._ ~ :.:.:.,._ ~ _ _ ",
"~ _ ` :.4.f.n.z.4.` ` 1.u.f.e.} 2._ ` _ ~ :.5. .`  .5.,.Z | | ,.4.4.:.| _ ` ,.B < 8 u.u.P & z c 3 3 I W :.r.<.f.1.U _ _  .^ U V ",
"_ _ ~ ,.2.9.b.z.e.Z ~ U M C ` _ :.| :.| ~ } :.:.:. .N } ` Y [ 2.` _ U  ._ :.1.a - < -._ t + # . 0 3 I ^ ~ n.l.f.4.| Z N V ~ ] :.",
"0.:.U Z ` ,.| ~ U ` N t @ u :._ D W ' | ^ _ :.} | | ^ P _ | u.l.2.,.` 2.` ` ` | p b [ :._ Z + + p - a V >.6.u.b.r.4._ U _ _ } q.",
"` :.:.1.4.5.:._ :.4.` y X N 4.Y q - 5.1.] | ,.e.t.r.r.} :.} 5.n.e.` { D < a '  .-.[ _ _ [ ,.4.[ &.<.2.>.h.g.r.6.u.0.4.,.| :.} 4.",
"1.| } :.:. .~ } 4.5.| x z ,.>.K - - >.| 9.2.| 2.n.u.,.5.` ^ f.c.f.:.` Y a D 9.| :.5.E q a I 4...h O.^ >.l.f.| 2.5.{ :.4.:.:.,.` ",
"9.:.| 1.^ + + + u U _ 5.| $.R T 3 >.5.1.1.0.| 4._ 2.0.4.,._ 9.5.5.q. .I 3 < D ,.:.4.>.a D ` @.j g O.,.1.t.[ :. .` | 5.2.` _ :.` ",
"` ] } } y . X .   # ` 4.` $.k T W ^ :.4.,.:.` ` _ ~ P C _  .,.} 9.:.| 2. ._ :.0.0.r.' 8 3 b } T J >.4.1. .~  .4.^ } ` ` ^ } ,.^ ",
":.U U ' Y i & # + & C ` ] &.k l &._ ` 4.` _ ~ :._ ~ t + & z _ :.,.t.9.1. .| e.l.n.z.b.u.Y Y :.] ` 0.q.q.,.^ ~ ,._ | z & 4.:.| | ",
"4.' s p D ` } 1.} | } | | W L O.( ` ,.:.:.,.4.4.:._ & + & t z ^ ` ,.,.9.,.5.6.u.l.n.z.u.] 1.:.| ~ ] :. ._ ~ V ~ _ } + X  .:.5.| ",
"` a - - D 5.U 1.9.9.e.4.0.| | :.| ^  .4._ 4. . .} ` i _ | 1.] ] ` 4.9.4.2.| 5.2.<.` | _ | :.5.4.:.,._ M # # & _ ~ Z # z Z ` q.:.",
"` b p a W 0.0.] :.,.v.x.k.4.] ,.~ :.:.4.~ y i ~ } :.| } 4.-.D b P _ | :.1.,.:.U } 4.5.5.5.0._ :.4.` ` ` y + + Z ` 1.~ :.:.q.t.:.",
"4.` ^ 2.5.5.| ^ ` ,.e.f.z.k.4.~  .:.| | & . # * ,.:.} } ^ v 7 - q.2.} ` _ ,._ _ | 4.9.0.0.5.9.e.0.:.:. .| M i ` | :._ } _ 4.| } ",
"4.` _ 0. .1.} } _ :.| ,.e.e.|  .|  .| U z * . y | |  .} >.K ; < ; q.4.~ 1.| ` U U | q.q.q.1.1.1.0.,.5. .5.4. .} ,.` 5.,.,.,.| | ",
"| q.q.0.4.e.0.9.0.4.} | | 4.,.` U } ^ M ` y i :.4.2.| ` 4.$.D Y C | :._ 0.0.4.:.} 4.U ~ 2.} _ :.` ` ~ U :.} } ] V :.| _ _ 0.4.| "
};
