/* XPM */
static const char *cave_gravel_5[] = {
/* columns rows colors chars-per-pixel */
"64 64 87 1 ",
"  c #010101",
". c #0C0100",
"X c #0E0708",
"o c #0C0C0C",
"O c #110402",
"+ c #130A06",
"@ c #140D0B",
"# c #17110F",
"$ c #19120F",
"% c #141413",
"& c #1B1614",
"* c #1D1917",
"= c #1C1B1B",
"- c #230D03",
"; c #27150E",
": c #321606",
"> c #321609",
", c #341A0C",
"< c #221A17",
"1 c #2C1A12",
"2 c #231E1B",
"3 c #331D13",
"4 c #391E11",
"5 c #26211D",
"6 c #2B221D",
"7 c #342016",
"8 c #3A2215",
"9 c #33251C",
"0 c #3C291D",
"q c #242424",
"w c #2C2521",
"e c #2C2926",
"r c #2C2C2C",
"t c #302721",
"y c #342B25",
"u c #3C2D23",
"i c #322E2A",
"p c #392F28",
"a c #3D3026",
"s c #31302F",
"d c #3B332C",
"f c #353432",
"g c #3A3732",
"h c #3C3A35",
"j c #432A1B",
"k c #412E21",
"l c #492F20",
"z c #443226",
"x c #42362B",
"c c #44392E",
"v c #4A3B2E",
"b c #433C35",
"n c #403D37",
"m c #443D34",
"M c #443D36",
"N c #4A3E33",
"B c #413D38",
"V c #433F39",
"C c #464035",
"Z c #4A4035",
"A c #434039",
"S c #44403A",
"D c #46433D",
"F c #47443D",
"G c #48423A",
"H c #49423C",
"J c #48443E",
"K c #4B453E",
"L c #4A4743",
"P c #4C4741",
"I c #4B4843",
"U c #4D4841",
"Y c #4B4844",
"T c #4D4B47",
"R c #4F4C47",
"E c #4F4B48",
"W c #4F4D4B",
"Q c gray31",
"! c #514B46",
"~ c #504E4C",
"^ c #51504E",
"/ c #525151",
"( c #535353",
") c #545251",
"_ c #555453",
"` c #565656",
"' c gray35",
/* pixels */
"rh//LrSSWQLnfDBgSghhYnrELqffWWL~SrBT/`/WW^LffqrnrrrWEJFLIJAfqnWq",
"BqhYLgrqhfnfhLqrhqhDTLhffTDJhThWFhgsfSLJfTQBFDDnShfWLAYDW~fqZR~h",
"IgrLrqrfrTSSgqs*+<C~hBfYBSrBDTnhhLSr=  =LELgAggAnFShSfTLWWn@@dWL",
"LrrrqLhfSYLLSsn=.+wUDfrDrhhDDhhhThhrqq oFLrfLggYEILn/Sfddgdw+iBW",
"W~BghShfffFShfDMiMgnISBnrSWWJLhgBnLrro  DhBTTnfnJBESYsr%@5i&+&T/",
"~hrJ~rqgsrrhqh~hnrr2&wwgrhgghfr q /fSLfrSPJQTEhhgrffLhq<..2rhTST",
"Wfs/WBqy:3DLLIYgBLdO.+*fLDfDfr   q~LhShnU`'^FBDLEBfTJng2<6dIShhg",
"rAYrq%=1,jGgYLSWWEg2@@&gSfnLno    DSfJJfS`/WTigLSfrfShrgiSYLLILn",
"qDS=  o%M_`EDLI/WBrggw6LBBSIDL %=qfsAf=%rnreqirrrfrhhfsfrsTLfrfh",
"g~~q% o q))UnEW~~EBgLTLTJYWLBBqfSJ~Tn%  =Dr@ .wfnniqqfh^`JBBArqr",
"~/~nhq===nHgLhT/TTLLAhBWhSnhrfrrJ``/S=&<0ze%. 2i@2%qhhW''`SnrqfY",
"LDnfhfBLzyqrgAgYEELWJhghnBhhrhhn/`~/Tx,,,8isrqng@@  sqhU`'TBhqD~",
"BgrfrJhDz89fsYDLASgBBgLhDShLDfnWJ/JUWg08,8erro=fS&+#TrrL``LhhhSL",
"AngrrDSgGcgJIQ~LDFSq%%d=ffBffiJ~DAJHnJrd6uq    rAFhfI``hnsqqrfhh",
"LLBfhTDhfBJDITWBnAq     qrDJH~/hLAg`/~fsALg    qfffh/`'n=oqfrfhf",
"=fDSrDWhYJffSfBDhr%      rrT~``^snLxvTfhDLq%  fhFDfrrYTgo fBsBfr",
"frfFADBBfgfhLJrfhq%o  %o =rhU`''`It.OPLBSE/'/ThABf%o=nDsoohBfhBW",
"EWx=qDfrfBngDJSrnBBhnHr=qqhDnn!Brg%..6HBhTnT/TLArq   qDfrfDSqfYJ",
"Tt+.=fJrrnnhDhhDhrLhHBJLJqsfnfMsrsf2t6H~LfS`'/SgD= o%=EBfnEFqnnJ",
"q%.O5BLBrSELhhgfLfhfM)~~JfqqqrfBrrqsDSLWLqrhsfgrBhgfrfSSSBqMhrsB",
"fg&6ifghffhJhSByp6yqMJ~TBDrqfrfr%   qSfqrfrq%&22hSBhrfAgnhgJPfgJ",
"nfgGDIWBLhffhFT&&&2rsfTfLLIShBfn    =DBfSTnf*.&iSLEJfnDDLFQ``gDE",
"TSfrh~`JS~EYffTd6&@qLDfLJrBg&&yq     rBJTEJBgL5*L~JhWLhfSnI'Ir~/",
"T^BBSP~^SEIBggLhgwwdTrSnfhM& -13aiqnIThrfTTThDhDD^WLJWnTrfT^LfWE",
"WShLnfhBLEhrqqfrrLYJhrnLrgH5%;>>,yCL`LALfhTLfJshfrBLDSfffrFTWWJg",
"D/WJnfffrro  %r=ofQ~DrqnrTTDIBy,jzJ/ITW'UBLffSsLJffYfrrBfggLnngS",
"fDFWDIh%      o  %S~D5%%=WDAABTh~/`'fT''TDBhhfrDgfDBginLSnEDDIrr",
"gLWLLhTso        rfnr=...2hqqf~BhT`TSEB/~WYLFhhr=qqr@.$nhhhLLTnh",
"rfnSJFBqfBs=%Bqo =H~SLe+.2rSD~/BffUhD~~hSDWWAhoo    2.&dSSngLThf",
"/LgfsS2=sIWWWELFBU`'TIJJgnsgrLhgIfrLWWhrfDLYfho    oqrLYJSggrrA~",
"L^LrFw..qh~~~J~Q``'/WWDhFfEFDDwwIffWBLggsAhBqgqq== %rrnFhhgfShBL",
"qhBr~a+%iLrrLg//`'/gSggfqShsrWy@5~QWY^WWWTgh%&gfqq%%f=fLLM22CWLs",
"SrBE//ucT^Lffqh~`~nWEJFLILSfqnU=qh//LrSSWQLhrgngSghhYnrI5...TWL~",
"FhgfgDJTITQBFDDJTUhWLAYD^`Sf~`~hBqhYLgrqhfnfSTqrSrhDTLhs&...sThW",
"hLSrrhgfLTJgAggAnFShSfTL^``Yh~WLIgrLrqrfrTSJ''ssrLL~hBfLw..5nTnh",
"Thhrqrghd6=rLggYTILqDrfS~//IShBWLrrrqLhfSYL///nrfBh~DfrSq22nDhhh",
"SBIrfhrri#*CTnfhFBL %oqqnQTvwyv~W~BghShffgFShfFDDWSSISBnr``WJLnh",
"hW/fSFeqi@@nTThgr % =%qDgqs934,N~hrFE==rsrrgqg~hTTPJrggg~''ghfhE",
"qLQLhy.+iwwid*y5S    qgSBSTv8>>>Mrr~f  ofgDjZLYgT```GgnfT'JDfhSE",
"qfTSr2&&hEAJM.+&Bfqrg* . .IJr2yoo%sr   %qSf78NSWWWW!NdLgSSBLnBfL",
"rrfrAFWSgnqrhd*.&s%.&qX   .Lq      =qor=wlvMMJI/WBrsgSYIBSSIDLfB",
"nrfBhfnhBSrrfnJ26Sf%%=..c`~Hh=    %=ssfy3>0AnEW~~EBgLWLYBJQRFSrh",
"hFfshrsT~S&+ehIDLnw..o   gSiqqfIW~Whhfr0,,ufLhT/TTLLAhhDfBU/Bfrr",
"WSfr==qTI2+.rfDLWYfsro  =U)92qD~LDnfnq%608qsgAgYEELWJhq=rSW'Jhhh",
"SWhf  ofrgriMrrBDYT^J=%   %#5hSLBgrfq*..6nigfYBMgAgBBff=fST/JfnW",
"DAJr%o%rqSDJgSrsSJhS/^WShqrqrfhhAngrrngfFBI`TPGSSDSfrLThfqrqqqD~",
"LAgsJff=2SLsrgsqfgfW'``WBrrgoorrLLBfhTDhfJ```d&ynhs oIBfq    s~f",
"rBLrrqfe&yfrrfnnJTTST/'^gfD=  o==fDSrDWhYLCCLssggr   hrr%     hf",
"YYEFLhIBSTLFDISADEYDFLWTTrJf    =rfFADBBfggnLFq2*%%rrfhrrfqqrhDS",
"rgqfTYWBhThhW'`AfBEJALDnJBFS%qffDWTrrDfrrn/gDDr.  2DJIrrASSDfrrf",
"rffBL`'`LffJ/`^gLsfrrAEBfnEFqhhDTIBhffFq.$~/q =&XXwiS~J`Jqsfnrrq",
"rrrDLW'`~qrr=qfsBhSnrgSSSBqgfrhJssqBfBJ*..Mfo   %@wrr'``ThqqqrfS",
"WSrqfDhrrfqo %Ss2idhrfAgnhrqfh)`PDfJfffh&2gBfq  =.&qSU/'~TrqfrgQ",
"fBSLLTBfSTf% qLe&.TJfnD~/~~gAgT'^fg2O&dnMgssgFTgMGLS``~W/WYDnBgL",
"LhgSSBrgLTh==DSq..ShWLhP'/SEfr`'`Sfr*6WnATt&&ePj,krS``hLTgATSSDf",
"WBhLr   %rsThx09+GELJWnTsUWLDsWETQBe+.2DSTM<2fz,,uDJ/gSnfhTLfrSf",
"ffgg%     fLsx38irBLDSfffrqqfBFgWShLnrSW~~d&O=g99NYJnrBLrgffrgDr",
"Sqrde=   oqfgc38cffYffrBfro  =fSD/WJnn~`'`'/rrBds~Q~DrrDsh= LShh",
"Tg=&5fgLghghhi6kdfDBSFLLSr  oo=rfDFWDTT~`''/fJShrfSnrrqrsg  BATn",
"f*..2ErJWW^IWhhShrBTfLBngf=rhJdgfLWLLhTLJfnshSTLSSf=  ofrq =qf~B",
"f=&*i~~fSD'``UgDrSSTr%=rgSngLM22qsnSJFBqgLTTEWfBYfff%  qfJrBS~/B",
"TfrLEThrfD^`'`UrnShho  oDSggr*@.~LgffDffhIWWWEW^WSSBh==fhBsgrLhg",
"YffWBLggsAhD~~hBhnhr=o %hhBgS6.O.QLrJhfrrh~~~JJJWDTnTYngFfEFDDnh",
"h~QWY^WWWTghhTSfrgr=f%%BLLhfIx5rqhBr~~TBgLrrLgsSffrrSggfqShsrWTh"
};
