/* XPM */
static const char *cave_gravel_4[] = {
/* columns rows colors chars-per-pixel */
"64 64 128 2 ",
"   c gray6",
".  c #121212",
"X  c #1C1511",
"o  c #131817",
"O  c #1D1B12",
"+  c #121C1A",
"@  c #211711",
"#  c #231C12",
"$  c #291E12",
"%  c #13201F",
"&  c #252212",
"*  c #2A2415",
"=  c #2C2917",
"-  c #2C2519",
";  c #2D2B1B",
":  c #302812",
">  c #302618",
",  c #322D1C",
"<  c #2E301E",
"1  c #363512",
"2  c #383611",
"3  c #3A3A12",
"4  c #34331E",
"5  c #3B3D1B",
"6  c #162321",
"7  c #192624",
"8  c #1B2826",
"9  c #1E2C2A",
"0  c #202E2C",
"q  c #322D21",
"w  c #2E3122",
"e  c #22312F",
"r  c #343524",
"t  c #393522",
"y  c #373A24",
"u  c #3B3C25",
"i  c #353429",
"p  c #353B2C",
"a  c #3B3D2B",
"s  c #253432",
"d  c #283735",
"f  c #293836",
"g  c #2E3C3A",
"h  c #373F35",
"j  c #3B3E33",
"k  c #303F3D",
"l  c #403F2A",
"z  c #413931",
"x  c #3F4217",
"c  c #3E421E",
"v  c #3D4126",
"b  c #3E422A",
"n  c #3B4235",
"m  c #3E4836",
"M  c #3C443A",
"N  c #3E493C",
"B  c #45491E",
"V  c #484A18",
"C  c #424623",
"Z  c #454B25",
"A  c #41442D",
"S  c #444A2D",
"D  c #484F2C",
"F  c #4B5023",
"G  c #4B522E",
"H  c #424632",
"J  c #434A34",
"K  c #494F35",
"L  c #404738",
"P  c #414D3D",
"I  c #475036",
"U  c #4A5335",
"Y  c #4F5A37",
"T  c #45513E",
"R  c #4A543C",
"E  c #4D593D",
"W  c #515437",
"Q  c #525C3C",
"!  c #424E40",
"~  c #455443",
"^  c #495642",
"/  c #4B5A46",
"(  c #4E5D49",
")  c #525D45",
"_  c #585E47",
"`  c #505F4C",
"'  c #4E604A",
"]  c #536146",
"[  c #52614D",
"{  c #5B634C",
"}  c #556551",
"|  c #596552",
" . c #586653",
".. c #5C6652",
"X. c #5A6755",
"o. c #5D6754",
"O. c #576855",
"+. c #5B6853",
"@. c #5A6857",
"#. c #5F6A57",
"$. c #5B6959",
"%. c #5F6959",
"&. c #5F6B5C",
"*. c #606650",
"=. c #616754",
"-. c #656A56",
";. c #626A5A",
":. c #636C5C",
">. c #636E5F",
",. c #666C5C",
"<. c #6A6D5C",
"1. c #6D6C5C",
"2. c #706E5E",
"3. c #646E61",
"4. c #696F61",
"5. c #706F60",
"6. c #667064",
"7. c #6A7366",
"8. c #6C7064",
"9. c #6C7265",
"0. c #6B7467",
"q. c #6B766A",
"w. c #6A776E",
"e. c #6A786E",
"r. c #727062",
"t. c #797066",
"y. c #667775",
"u. c #677876",
/* pixels */
"M ^ >.>.} N ( ( $.>.| / ~ [ / ~ ( ~ ^ ^ | / M @.} n ! ! $.$.| &.( n / @.3.6.3.%.$.>.} ~ N j n / M N M $.@.[ [ } | [ ( ~ g / %.g ",
"/ g ^ | | ^ n j ^ ! / P ^ | h M ^ j ^ ` @.| / P ! X.` [ ^ @.^ $.[ ^ ^ P ~ ( | [ ~ X.>./ [ ( ` / ( ^ ~ %.| ( | ` %.>.P p ) #.>.^ ",
"| ~ n } N n M ! n @.( ( ^ g P r & 4 / &./ / ! | / ( M / ` X./ ^ ^ } ( M d o % s } @.} ~ ( ~ ~ ( / [ ( ^ ( ~ X.| $.%.R * * K $.} ",
"| M N M g } ^ ! ( | | | ( N / w # & a | ` ! M ` N ^ ^ [ [ ^ / ^ @.^ ^ M j d . 7 [ | M P } ~ ~ | @.| | / >.( ~ I U R T u * J ( $.",
"%.>./ ~ ^ ( ^ T ! ~ [ ( / ~ [ / H E ^ / | ( / / N ( %.%.[ | / ~ / / | N M 7 + 6 [ / / @.X./ ~ / [ ( @.( | N n ; * y J , * ; X.>.",
"&.^ M [ &.M g ~ P n M ^ h ^ &./ / P n r ; a a ~ N / ~ ^ ^ ~ M + g 6 >.! ( } ! N [ { [ ;.@.@./ ^ ~ M ! ! | / j 4 O O r N ^ X.( X.",
"$.! N >.%.( f H 1 3 [ | | | | ^ ( } R & O & , P | [ P [ ! N o   . g &.| / ( ^ / | 0.w.>.[ ( ` } @./ ~ X.[ / T t 4 u U | ( ^ ^ ~ ",
"M ( | M g 9 i 1 2 V _ ~ | } ( $.$.@.^ t * * ; ~ ( ~ / } / 7 . . o . ` ( ! [ [ ~ ( 4.>.%.+.P ^ | ( ~ M ~ ( / m ~ P ( | } | | } / ",
"n [ ( s + o 7 8 / 2.r.=.[ | | 3.%.( M ~ R b u | ( ( ( | ` } % 0 e g P P ( ! s 0 n / n n u J n M M ~ M ^ ^ ~ P P n P X.| ~ N ! ^ ",
"^ &.&.k 9 % 6 + j <.1.| / @.$.&.&.@./ ~ | X.| @.[ | $.} / ( g ~ ( [ ;.#./ 9 o o d ` n - X $ l P R / J h h ! ^ >.8.[ / / ( n g N ",
"&.3.&./ ^ g d e d E _ R } / X.3.@.X.| | ( ^ / $.^ ( / ^ M ! N N [ 0.7.3.) i ; 4 C D a > # @ t H * t - i / / #.q.e.8.( / n n P | ",
"} [ / ! / ~ ( | G A j P ~ ( ~ | @.@.| $.[ / ~ / / / / ^ N ^ ^ / <.7.#.3...U 3 3 3 5 J P L j ^ R - - @ @ P g ^ | 7.q.o./ / n ` &.",
"/ ~ M ! M [ / [ G 3 v P P | ` | ( ( ~ / / ~ | ^ ` ( ^ } [ P / $.[ >.[ | %.~ C 3 2 x n M n 8 s ! ( , & - X.N N [ 4.r.{ ^ ^ ^ ( | ",
"( / ~ M M [ ( ~ ) R R [ | >.>.| ` [ ( p 0 0 K s ~ ! / P ~ P [ >.` ( [ [ / [ n R u S p + . o o N ( [ ^ ! | 8.8.^ / P j g M ~ / / ",
"| } ( ~ ^ @.[ ^ P / [ [ | X.%./ / ( z @ X X 6 6 g M [ [ [ ;.3.^ } ( ~ 8.<.;.T P ( } ^ + + . + g ~ ~ ~ ^ >.r.u./ d 8 g ~ n P ^ ! ",
"d P [ ( n [ $.^ | [ ! ~ ( ~ / ` ^ N 9 o X X O + 6 M M X.;.0.8.,.P / | U E ..! ^ [ } j 8 % 6 ! / [ [ P N N | @.~ 6 o ! ( N / ~ M ",
"! n P [ ( ` ( ( ~ ~ ~ / } [ N ~ ^ g 0 7 @ @ q 6 + s M ^ ..7.q.q.8.| b O $ { | / ( @.>.q.3.| / ( / ~ 0 7 d / [ P 7 7 / / ! / ( $.",
"@.#.R w p ` ~ M ~ / / ^ [ [ ( n / ( ( ^ / [ M d g g ^ [ / / *.) N ~ ; O & y [ / ^ @./ o.>.X.| ( N g + o + g [ ~ M ! [ ( g ~ | [ ",
"X.A & O r ! [ M n / / ^ [ ^ ^ [ ^ M | / [ ) [ | [ n P P / P Q K M P ~ r b u [ &.| ~ ) 8.q.<.( ~ [ d % 7 9 d @./ ~ / @.[ h / / [ ",
"n ; O & p ( } ( N ( @.| ^ ^ ~ ~ | ! ^ ! ) 1.-.#.[ P g g g M ~ ( M M g P [ ( | $.| g M ^ N P ^ N / ^ ~ ~ M ~ ( ( ( / g / ^ M P ( ",
"P T ; y P ~ ~ ^ ~ N ^ [ / ( ( S J y J j ) { -.../ ` N n ! N ~ M 9 o . o k ( ~ h M ! n g ; ; t t ^ ( ( ^ N P ( ^ / ^ ~ [ { ~ ~ [ ",
"/ ~ T ' ` | #.( } ^ ! ! ^ [ @.; , = 4 m P ! O.~ | } | ( ^ / ~ / +     . s [ / P ( X./ ~ , O ; n ( } @.[ ~ / [ [ | [ ;.8.8.~ [ @.",
"@.( ! M ^ -.5.[ ( &.@.| ~ ! #.I y ; * p | [ ~ } [ M ( R , , H p 6 o   + 6 N ( [ X.@.[ / ^ | y r | &.[ ^ $.} ^ ! ( / | q.| M &.3.",
"X.>./ ( ) { -.1.) @.| ( ~ ~ } ^ T a u I X.M ( / ! / / , X : 1 3 D P g / | X.^ M ! X.X.X./ [ / [ [ >.$.} [ %./ X.N ~ O.>.| P $.@.",
"$.( ^ } / P ^ ( | @.^ n z k ~ N N } | [ ^ M / | N ^ [ u ; 1 2 1 3 C / | 6.| ( | ~ ^ X.| ! [ P ^ ! N / | [ ( ~ ! ! N [ @.%.$.[ ~ ",
"[ >.$.[ / ~ ~ P n N 8 % + 9 N e 6 ! >.>.[ n n R M | @.[ | / J 3 V G { 3.| @.#.q.| / } ~ ~ ( P } [ P ~ | ~ P M / P ^ ~ | / / ^ ( ",
"! [ [ $.[ | ^ 9 + + O X X o 8 o . 9 ( &.[ y = = r $.` ( ( ( X.^ #.3.7.y.P ..w.u.+.( ( ^ / P M [ ^ ! ( / T J E | ( / @.` ` | M N ",
"~ | $.| } ^ X.P 7 + X X X X 6 % + N ! / N w O O # r / n j ~ >./ ^ @.7.o.( @.) 3.&.$.X.} [ ^ ^ N d g g n * # = / ^ / ^ | | X./ ^ ",
"N ! / ( [ [ ( h N ( P s 9 / g 6 % d [ ;.( } n & O 4 m ( ` >.>./ ~ P | ^ ( &.&.^ ( [ $.$.( ^ 6 6 o % + + r & , J ( ( / ~ | X./ P ",
">.| ~ P P ( t r P | $.%.%.@.| [ ( | 0.q.| | [ [ T / N ^ N | / T | ~ N | $.$.^ N ~ ( } | P ^ 7 o + % o 7 g L | | [ ( ^ ~ N M ( &.",
"| >.| M [ a O O p ^ >.>.>.[ ;.;.8.8.q.3.%.$.` ^ [ ~ @.[ ` [ a a | ~ ! %./ } ^ ^ P ( / / a R j g d s + 0 M N / [ ^ ^ ~ ~ [ / / | ",
"h ^ / N &.J & = P | n M } ^ <.4.7.w.3.T ( ~ ~ ~ g ( / N N %.S * u &.>.%.| >.%.$.%.X.^ ^ > , R ! g g 0 9 ~ d ~ | | / r r ) %.} N ",
"( n / @.3.3.S E | >.} ~ P j ^ ;.4.;./ $.@.[ [ } | } ( ~ g / | i n ^ >.>.} N ( ( $.>.| / m R / ~ ( ~ ^ ^ | / M | y & O O X.$.| &.",
"[ ^ ^ P ~ ` [ X.| X.>./ [ ` ` [ #.| ^ %.| ( | [ >.8.[ P >.6.>.^ / g ^ | | ^ n j ^ ! / P ( X.h M ( n ^ ` @.| / N ; O X O P @.^ $.",
"^ } ( N M / ~ ~ } X.[ ~ ( ~ ~ ( / [ ( ^ ( ~ @.| >.8.4.| / >.$.} | ~ n } N n M ! n @.( [ 8.0.P P M | | &./ / P | a O O y R X./ ^ ",
"@.^ ^ M h M ~ ^ J v r n } ~ ~ | @.| } k [ n P ( &.4.3.| ( ^ ( $.| M N M g } ^ ! ( | | 3.>.<./ n ~ / / &.` ! M ( p r t ^ [ ^ / ^ ",
"( ( | N ~ ^ N m H = 4 ) X./ ~ / [ / | 6 0 8 n g / ;.#.E b A U >.%.>./ ~ ^ ( ^ ~ ! ~ [ ( ^ T [ [ [ %.) ( | ( / / N 8.r.%.[ | / ^ ",
"/ $.>.! ( [ n j m * * R X.@./ ^ M 6 9 o d 9 g [ ^ k P u 3 3 3 Q &.^ M [ @.d s N N n M ^ j ^ &./ #.o.{ { M R ~ ^ ,.y.8.^ ^ ~ / @.",
"g } >.| ^ m O & J b b J I 4 H y ( + o + o g T ( ) ) X.Y x 2 2 1 E n N &.P . + 7 P ~ [ Z ) | | ^ | 8.8.8.) ^ / ! X.q.[ [ P ^ ( @.",
"n ! X.( m 4 , ; ^ @.( [ E O * , ( P g M ^ q # # # $ | [ M 4 b 6 7 8 N M 6 . o 9 h ( ! 5 x / ( $.$.$.;.=.Q J | ~ ( [ / } / / P | ",
"M n ! M ( [ $.( ~ / h N ^ K w O ; P ; # ; p $ @ X @ # } g + + .   6 o e g 7 M s b F Q / E | | 3.%.( M P T ( | | ( ( ( | [ | ~ ( ",
"/ n P / / ! / ^ ( ( M P P / [ r u ( ~ = ; q $ $ W 8.;.[ ^ s + 6 + 6 8 d N P ~ S 3 2 Z ( / @.$.&.&.@.( ^ | $.| | / [ ;.@.[ ( n ^ ",
"^ [ ~ N ^ M P @.&.( ; * n ^ | ` | / a & # * + o + R ) J p h ! | $.&.%./ ^ ~ L C 3 3 S ~ [ / X.3.@.X.| | ( ^ ^ [ P ( | >.) ~ N M ",
"%.( ~ M s e g X.| r & O m ~ [ | $.| ~ N M 6 + o s { <.C r n ` &.} [ / P / a > u B c j N ~ ( ~ | @.@.| $.[ / g s N ( ;.w.[ ^ ^ ^ ",
"( $./ ! % o 7 ~ M R m J / N M / [ | X.>.[ s 9 + o X - = u ^ ( | / ~ M ! p , $ # u ^ P ~ ! | ( / ^ ( ~ / / ~ ~ d ~ ( #.>.[ P / $.",
"` ( [ M 0 7 0 n j ( [ [ ^ ( M N ( [ / ) 4.>.%.( ^ n n g m P ^ / ( / ~ M M R R P [ ( | 4.X.{ ] ) ( [ ( P M | $.^ P g M j g j [ >.",
"} ( ~ N [ ~ P r t ) | P N ~ P g ~ ~ ~ #.y.7.0.%./ M N ~ 7 7 M N | } ( ~ ^ @.[ ^ P { 8.0.8.J , A / / N 6 7 | ( ~ h + + + + P &.! ",
"M / | M M n ! A , A ~ N n ! / / [ X.@.) ..3.q.>.T ! [ e o o 7 s d P [ ( n [ $.^ | | / / [ P K R ~ n o + o ^ M n 0 + o o % 6 ^ ~ ",
"| | @.[ | / | / ( @.} [ [ | ( ( ` @.| [ [ | %.#.O.N [ ! % % + 6 d n P [ ( ` ( ( ~ ~ ~ / } [ a t , - 9 N M ~ ^ N n ! j n M ^ ( ( ",
"M ^ j ~ X.| %./ ^ @./ ^ %.e.7.( P / @.[ ( | [ / [ / [ ( 0 g P ! [ %.@.M M ` ~ M m R <.~ [ [ H $ @ @ t ` [ | N M ( ( ( ` P M N P ",
"M ! ~ / | 4.w.8.| ~ ~ [ 3.8.>.~ } N P N M ( @./ ~ / @.[ k / / [ X.| ( ^ ! ! [ p # = -.>.j 6 s , $ & l H ( ;.[ 4.[ n P P / N n g ",
"N N M [ } #.u.8.;.g M M d h P N / / ( / M ~ ( ( ( / g ~ ~ n ^ [ P P n / P / [ 4 O & / P 8 + + o ; * b N M w.7.8.@.^ g g g M ~ ( ",
"%.( n g ~ ` ^ M M ! g 8 + 0 ( P r J K ^ N P ( ^ / ^ N j ! ^ 3.0.{ [ ~ [ ! ~ ~ ^ ; r T / ! g + + w O , g ) ..3.u.;.| N n ! N ~ >.",
"~ / ( } | @./ P ( X.~ 9 . g | n ; O X.[ ~ / [ #.3.;.;.^ ( ^ #.e.>.~ T y # , K / / ~ P P ~ [ X.T E [ | ) 8.7.>.#.3.%.| ` / ( ~ | ",
"} / ~ ( ( / M ~ | X./ d s [ ' a O O ' ^ $.} ^ { e.>.[ @.~ P 8.t.4.( P n 4 y $./ ( @.A ; , n { B 3 Z P ( 0.4.^ } @.T ( X.( ( ` ~ ",
"$.( ^ } N o o o 0 n P X.^ U C v & ] @.} [ %./ X.P | %.| [ N $.@.X.>./ b & # t [ ( O./ 4 t T G 3 3 Z [ [ >.~ ( / P ^ X.} ~ N ( ~ ",
"~ ~ ^ ^ 8 o . o   + ~ | P U 3 c J N ( | [ ( ~ ! P M j h P / [ ~ $.( ^ } / N ( %.&.>.I = & r ~ v 5 ) | [ / M / | N ~ ~ ~ N ~ [ N ",
"( n M R n e 6 + + 6 h P T R 5 x E N ~ | ~ P M / ! M 8 o 6 s ! ( [ >.$.[ / / #.0.w.8.u.3.m m ( T P %.>.>.[ N M ` N ^ s 6 | ( ^ ^ ",
"X.R r ; p ! ~ } ^ ^ ~ ^ / J u Z J ! ` / ( [ | | ( N 6 + 6 8 s N ! [ [ $.[ X.o.,.7.e.q.<.~ [ ( ^ M ~ ( / N M g M N ~ + . / ( @./ ",
"! < X O y @.n [ $.$.>.| %./ ^ ( ^ N / X.! | / / ^ P e N / [ T T T | $.| } ^ X.| [ ~ / P ^ ( @.| ( ` ! d + + 6 P M k + s g ~ >./ ",
"~ r ; ; J &.&.~ ( [ y.r.8.| ~ ` M ( ( X.M 9 e M ^ ( / ~ | / t r j P / ( [ [ ( n ~ | @.@.@.%.! / | P ! ~ 9 + + g ~ [ M ( ( >.>./ ",
"X.~ N | @.X.^ N ~ ` >.8.q.7.| M / ( / ^ 6 o + 7 [ ( ^ ~ M r * O >.| ~ P P ` ! P ^ | $.%.%.@.$.>.%.( ( / / d e ! ^ ( N ^ N | / ~ ",
"| ~ ! %./ } ^ ^ P ( / [ ;.;.^ / ^ / / n d 7 o 9 ^ ^ / ^ ( a O # O >.| M [ ^ ! n n ^ >.>.>.[ [ [ %.[ X./ @.| / ~ [ ~ @.[ ` [ / ^ ",
"^ &.>.%.| >.%.$.%.X.^ ^ ^ X.( ~ n ^ N d ~ 9 0 ( | } / P | U y m h ^ / N &.&.X./ ~ | n M } ^ P ( P ~ M n ( ~ ~ ~ g ( / N N %.X.^ "
};
