/* XPM */
static const char *cave_wall[] = {
/* columns rows colors chars-per-pixel */
"64 64 6 1 ",
"  c black",
". c #1B1B1B",
"X c #3F3F3F",
"o c #57342C",
"O c #503E2D",
"+ c #4F4E4C",
/* pixels */
"                                                                ",
"                                                                ",
"                                                                ",
"                                                                ",
"                                                                ",
"                                                                ",
"                                                                ",
"                                                                ",
"                                                                ",
"                                                                ",
"                                                                ",
"                                                                ",
"                                                                ",
"                                                                ",
"                                                                ",
"                                                                ",
"                                                                ",
"                                                                ",
"                                                                ",
"                                                                ",
"                                                                ",
"++++++++++++++++++++++++++++++++++++++++++++++++++++++++++++++++",
"+++XXXXX++++++++++++++++++++++++++++++++ooo++++++++++++++++OO+++",
"++XXXXXXX+++++++++++++++++++++++++++oooooooo++++++++++XXX+OOOOO+",
"+++XXXXXX++++++++++++++++++++++++ooooooooooo++++++++++XXOOOOOOO+",
"++++XXX+++++++++++++++++++++++ooooooooooooo+++++++++XXXXXOOOOOO+",
"+++++++++++OO++++++++++++++ooooooooooooooo+++++++++XXXXXXXX+OO++",
"++++++++OOOOOOO++++++++++++oooooOOOOOoo+++++++++++++XXXXXXX+++++",
"++++++OOOOOOOOOOO+++++++++oooOOOOOOOOO++++++++++++++++XXX+++++++",
"+++++OOOOOOOOOOO++++++++++ooooOOOOOOO++++++++++XXXX+++++++++++++",
"+++++OOOOOOO++++++++++++++++++OOOOO+++++++++++XXXXXXXX++++++++++",
"++++++++OO+++++++++ooo++++++++++OO++++++++++XXXXXXXXXX++++++++++",
"++++++++++++++++ooooooooooooooo+++++++++++++XXXXXXXXXX++++++++++",
"+++++++++++++++oooooooooooooooo+++++++++++++XXXXXXXXXX++++++++++",
"++++++++++++++oooooooooooooooooo++++++++++++XXXXXXXXXXOOO+++++++",
"++++++++++++++ooooooooXXXooooooo++++++++OOO++++++++++OOOOOO+++++",
"++++++++++++++oooooXXXXXXXXXoooo+++OOOOOOOOOO+++++++OOOOOOO+++++",
"++++++++++++++oooooXXXXXXXXXoooo++OOOOOOOOOOO++++++OOOOOOOO+++++",
"+++++++++++++++ooooXXXXXXXXX+++++OOOOOOOOOOOO+++++OOOOOOOO++++++",
"+++++++OOOOOO++++ooXXXXXXXXX++++++OOOOOOOOOOO++++++OOOOOOO++++++",
"++++++OOOOOOOOO+++++XXXXXX+++++++++OOOOOOOOO++++++++++++++++++++",
"+++++OOOOOOOOOO+++++XXXX+++++++++++++++OOOO+++++++++++++++++++++",
"++++OOOOOOOOOOO+++++++++++++++++++++++++++++++++++++++++++++++++",
"+++++OOOOOOOOOO++++++++++++++++++++oooooo+++++++++++++++++++++++",
"++++++++OOOO+++++++++++++++++++oooooooooooooooooo+++++++++++++++",
"+++++++++++++++.....++++++++++ooooooooooooooooooooo+++++++++++++",
"++++++++++++++........+++++++oooooooooooooooooooooo+++++++++++++",
"+++++++++++++.........+++++++oooooooooooooooooooooo+++++++++++++",
"++++++++++++...........+++++++oooooooooooooooooooo++++++++++++++",
"++++++++++++...........+++++++++++++ooooooooooo+++++++++++++++++",
"++++++..................++++++++++++++++++++++++++++++++++++++++",
"++++......................++++++OOO+++++++++++++++++++++++++++++",
"+++.......................+++++OOOOOO+++++++++++++++++++++++++++",
"++........................++++OOOOOOOOO+++++++++++++++++++++++++",
"+++.......................++++OOOOOOOOO+++++++oooo++++++++++++++",
"++..........XXXXXX......+++++OOOOOOOOOO++++++ooooooo+++ooo++++++",
"+++.......XXXXXXXXXX...+++++OOOOOOOOO+++++++oooooooooooooooo++++",
"++++++++++XXXXXXXXXXXX.++++OOOOOOOOOO++++++ooooooooooooooooo++++",
"+++++++XXXXXXXXXXXXXXX++++++OOOOOOOO+++++++ooooooooooooooooo++++",
"+++++++XXXXXXXXXXXXXXX++++++++++++++++++++++ooooooooooooo+++++++",
"+++++++XXXXXXXXXXXXX++++++++++++++++++++++++++++++++++++++++++++",
"++++++++XXXXXXXXXXXX++++++++++++++++++++++++++++++++++++++++++++",
"+++++++++++XXXXXXX++++++++++++++++++++++++++++++++++++++++++++++",
"++++++++++++++++++++++++++++++++++++++++++++++++++++++++++++++++"
};
