/* XPM */
static const char *caveCliff2[] = {
/* columns rows colors chars-per-pixel */
"64 64 5 1 ",
"  c #2D2D2D",
". c #505050",
"X c #61564B",
"o c #66524C",
"O c #918373",
/* pixels */
"OOOOOOOOOOOOOOOOOOOOOOOOOOOOOOOOOOOOOOOOOOOOOOOOOOOOOOOOOOOOOOOO",
"OOOOOOOOOOOOOOOOOOOOOOOOOOOOOOOOOOOOOOOOOOOOOOOOOOOOOOOOOOOOOOOO",
"OOOOOOOOOOOOOOOOOOOOOOOOOOOOOOOOOOOOOOOOOOOOOOOOOOOOOOOOOOOOOOOO",
"OOOOOO......OOOOOOOOOOOOOOOOOOOOOOOOOOOOOOOOOOOOOOOOOOOOOOOOOOOO",
"OOOO...........OOOOOOOOOOOOOOOOOOOOOOOOOOOOOOOOOXOOOOOOOOOOOOOOO",
"OOO............OOOOOOOOOOOOOOOOOOOOOOOOOOOOOOOOXXXXXXXXXOOOOOOOO",
"OOO............OOOOOOOOOOOOOOOOOOOOOOOOOOOOOOOXXXXXXXXXXXXOOOOOO",
"OOO...........OOOOOOOOOO   OOOOOOOOOOOOOOOOOOOXXXXXXXXXXXXOOOOOO",
"OOOO.......OOOOOOOOOOOO     OOOOOOOOOOOOOOOOOOOXXXXXXXXXXXOOOOOO",
"OOOOOOOOOOOOOOOOOOOOOO       OOOOOOOOOOOOOOooOOOXXXXOOOXXXOOOOOO",
"OOOOOOOOOOOOOOO              OOOOOOOOooooooooooOOOOOOOOOOOOOOOOO",
"OOOOOOOOOO                    OOOOoooooooooooooOOOOOOOOOOOOOOOOO",
"OOOOOOOOO                     OOOooooooooooooooOOOOOOOOOOOOOOOOO",
"OOOOOOOO                      OOoooooooooooooooOOOOOOOOOOOOOOOOO",
"OOOOOOOO                      OooooooooooooooOOOOOOOOOOOOOOOOOOO",
"OOOOOOOOO                OOOOOOooooooooooooooOOOOOOOOOOOOOOOOOOO",
"OOOOOOOOOOOOO      OOOOOOOOOOOOOoooooooooooooOOOOOOOOOOOOOOOOOOO",
"OOOOOOOOOOOOOOOOOOOOOOOOOOOOOOOOOooooooooOOOOOOOOOOOOOOOOOOOOOOO",
"OOOOOOOOOOOOOOOOOOOOOOOOOOOOOOOOOOoooooOOOOOOOOOOOOOOOOOOOOOOOOO",
"OOOOOOOOOOOOOOOXXOOOOOXXXOOOOOOOOOOOOOOOOOOXXXXXOOOXXOOOOOOOOOOO",
"OOOOOOOOOOOOOOXXXXXXXXXXXXXOOOOOOOOOOOOOOOXXXXXXXXXXXXXOOOOOOOOO",
"OOOOOOOOOOOOOXXXXXXXXXXXXXXOOOOOOOOOOOOOOXXXXXXXXXXXXXXOOOOOOOOO",
"OOOOOOOOOOOOXXXXXXXXXXXXXXXOOOOOOOOOOOOOOXXXXXXXXXXXXXXOOOOOOOOO",
"OOOOOOOOOOOOXXXXXXXXXXXXXXXOOOOOOOOOOOOOOOXXXXXXXXXXXXXOOOOOOOOO",
"OOOOOOOOOOOOOXXXXXXXXXXXOOOOOOOOOOOOOOOOOOOOXXXXOXXXXOOOOOOOOOOO",
"OOOOOOOOOOOOOOOOOOXXXXOOOOOOOOOOOOOOOOO  OOOOOOO    OOOOOOOOOOOO",
"OOOOOOOOOOOOOOOOOOOOOOOOOOOOOOOOOOOO                  OOOOOOOOOO",
"OOOOOOOOOOOOOOOOOOOOOOOOOOOOOOOOOO                     OOOOOOOOO",
"OOOOOOOOOOOOOOOOOOOOOOOOOOOOOOOOO                      OOOOOOOOO",
"OOOOOOOOOOOOOOOOOOOOOOOOOOOOOOOO               ....     OOOOOOOO",
"OOOOOOOOOOOOOOOOOOOOOOOOOOOOOOO               ........  OOOOOOOO",
"OOOOOOOOOOOOOOOOOOOoooOOOOOOOOOO            ..........  OOOOOOOO",
"OOOOOOOOOOOOOOOOoooooooooooooooOOOO         ..........  OOOOOOOO",
"OOOOOOOOOOOOOOOooooooooooooooooOOOO         ..........OOOOOOOOOO",
"OOOOOOOOOOOOOOooooooooooooooooooOOOO   OOOOO..........XXXOOOOOOO",
"OOOOOOOOOOOOOOoooooooo...oooooooOOOOOOOOXXXOOOOOOOOOOXXXXXXOOOOO",
"OOOOOOOOOOOOOOooooo.........ooooOOOXXXXXXXXXXOOOOOOOXXXXXXXOOOOO",
"OOOOOOOOOOOOOOooooo.........ooooOOXXXXXXXXXXXOOOOOOXXXXXXXXOOOOO",
"OOOOOOOOOOOOOOOoooo.........OOOOOXXXXXXXXXXXXOOOOOXXXXXXXXOOOOOO",
"OOOOOOOXXXXXXOOOOoo.........OOOOOOXXXXXXXXXXXOOOOOOXXXXXXXOOOOOO",
"OOOOOOXXXXXXXXXOOOOO......OOOOOOOOOXXXXXXXXXOOOOOOOOOOOOOOOOOOOO",
"OOOOOXXXXXXXXXXOOOOO....OOOOOOOOOOOOOOOXXXXOOOOOOOOOOOOOOOOOOOOO",
"OOOOXXXXXXXXXXXOOOOOOOOOOOOOOOOOOOOOOOOOOOOOOOOOOOOOOOOOOOOOOOOO",
"OOOOOXXXXXXXXXXOOOOOOOOOOOOOOOOOOOOooooooOOOOOOOOOOOOOOOOOOOOOOO",
"OOOOOOOOXXXXOOOOOOOOOOOOOOOOOOOooooooooooooooooooOOOOOOOOOOOOOOO",
"OOOOOOOOOOOOOOO     OOOOOOOOOOoooooooooooooooooooooOOOOOOOOOOOOO",
"OOOOOOOOOOOOOO        OOOOOOOooooooooooooooooooooooOOOOOOOOOOOOO",
"OOOOOOOOOOOOO         OOOOOOOooooooooooooooooooooooOOOOOOOOOOOOO",
"OOOOOOOOOOOO           OOOOOOOooooooooooooooooooooOOOOOOOOOOOOOO",
"OOOOOOOOOOOO           OOOOOOOOOOOOOoooooooooooOOOOOOOOOOOOOOOOO",
"OOOOOO                  OOOOOOOOOOOOOOOOOOOOOOOOOOOOOOOOOOOOOOOO",
"OOOO                      OOOOOOXXXOOOOOOOOOOOOOOOOOOOOOOOOOOOOO",
"OOO                       OOOOOXXXXXXOOOOOOOOOOOOOOOOOOOOOOOOOOO",
"OO                        OOOOXXXXXXXXXOOOOOOOOOOOOOOOOOOOOOOOOO",
"OOO                       OOOOXXXXXXXXXOOOOOOOooooOOOOOOOOOOOOOO",
"OO          ......      OOOOOXXXXXXXXXXOOOOOOoooooooOOOoooOOOOOO",
"OOO       ..........   OOOOOXXXXXXXXXOOOOOOOooooooooooooooooOOOO",
"OOOOOOOOOO............ OOOOXXXXXXXXXXOOOOOOoooooooooooooooooOOOO",
"OOOOOOO...............OOOOOOXXXXXXXXOOOOOOOoooooooooooooooooOOOO",
"OOOOOOO...............OOOOOOOOOOOOOOOOOOOOOOoooooooooooooOOOOOOO",
"OOOOOOO.............OOOOOOOOOOOOOOOOOOOOOOOOOOOOOOOOOOOOOOOOOOOO",
"OOOOOOOO............OOOOOOOOOOOOOOOOOOOOOOOOOOOOOOOOOOOOOOOOOOOO",
"OOOOOOOOOOO.......OOOOOOOOOOOOOOOOOOOOOOOOOOOOOOOOOOOOOOOOOOOOOO",
"OOOOOOOOOOOOOOOOOOOOOOOOOOOOOOOOOOOOOOOOOOOOOOOOOOOOOOOOOOOOOOOO"
};
