/* XPM */
static const char *cavewater[] = {
/* columns rows colors chars-per-pixel */
"64 64 73 1 ",
"  c #314E75",
". c #325076",
"X c #35557D",
"o c #38577D",
"O c #35587F",
"+ c #3A597F",
"@ c #365780",
"# c #375B83",
"$ c #3C5B84",
"% c #3F6086",
"& c #415E84",
"* c #426286",
"= c #486486",
"- c #446489",
"; c #49678B",
": c #47688D",
"> c #49698E",
", c #4A6C93",
"< c #4C6E98",
"1 c #506E93",
"2 c #4D7097",
"3 c #4E729B",
"4 c #517097",
"5 c #51749D",
"6 c #5277A1",
"7 c #5379A4",
"8 c #597DA7",
"9 c #567DA9",
"0 c #5B7FAA",
"q c #5980AB",
"w c #5C81AA",
"e c #5B82AD",
"r c #5C82AC",
"t c #5F84AD",
"y c #6083AE",
"u c #6185AD",
"i c #6385AE",
"p c #6285B0",
"a c #6587B1",
"s c #6789B3",
"d c #6989B1",
"f c #6B8BB3",
"g c #6B8DB3",
"h c #6B8DB4",
"j c #6B8CB5",
"k c #6F8EB5",
"l c #708EB4",
"z c #708FB6",
"x c #6F90B5",
"c c #7290B6",
"v c #7593B7",
"b c #7492B8",
"n c #7595B9",
"m c #7695B8",
"M c #7997B9",
"N c #7A98BA",
"B c #7D9ABB",
"V c #7A98BC",
"C c #7F9BBD",
"Z c #7F9CBD",
"A c #819DBF",
"S c #849EBE",
"D c #849FC0",
"F c #87A1C1",
"G c #8AA4C2",
"H c #8CA5C3",
"J c #8AA4C4",
"K c #8EA6C4",
"L c #92AAC6",
"P c #93AAC7",
"I c #97ACC7",
"U c #98AFC8",
"Y c #9EB2CA",
/* pixels */
"$$$$$$$$$$$$$$$$$$$$$$$$$$$$$$$$$$$$$$$$$$$$$$$$$$$$$$$$$$$$$$$$",
"$$$$$$$$$$$$$$$$$$$$$$$$$$$$$$$$$$$$$$$$$$$$$$$$$$$$$$$$$$$$$$$$",
"$$$$$$$$$$$$*--*%$$$$$$$$$$$$$$$$$$$$$$$$$$$$$$$$$$$$$$$$$$$$$$$",
"$$$$$$$$%%*-,<3,:**$$$$$$$$$$$$$$$$$$$$$$$$$$$$$$$$$$$$$$$$$$$$$",
"$$$$$%:,,3353333,,::-%$$$$$$$$%%*******%$$$$$$$$$$$$$%%***%$$$$$",
"$$$%*-,336653,,,::::--%$$$$$*-:,<<<,,>::*$$$$$$$$$$%*-****%$$$$$",
"$$$%**->>>>-&$&*$$$$$*$$$$*-><60erw09663,-%$$$$$$$$%**%$$$$$$$$$",
"$$$$$$$$$$@OO@$$$OO@#$$$$*-:>,570w0008973,:*%$$$$$$$$$$$$$$$$$$$",
"$$@OOO@@@@@@@@@@@@##$$$$$$$$$&==;;;>1132,:-*-*%$$$$$$$$$$$$$$$$$",
"$$#@@#$$$$$$$$$$$$$$$$$#@OOX...XXXXOo$$$$$$%**%$$$$$$$$$$$$$$$$$",
"$$$$$$$$$$$$$$$$$$$$$$$#@OOOOXOOOOOOOOOO#$$$$$$$$$$$$$$$$$$$$$$$",
"$$$$$$$$$$$$$$$$$$$$$$$$$###$$$#########$$$$$$$$$$$$$$$$$$$$$$$$",
"$$$$$$$$$$$$$$$$$$$$$$$$$$$$$$$$$$$$$$$$$$$$$%%**-*-**$$$$$$$$$$",
"$$$$$$$$$$$$$$$$$$$$$$$$$$$$$$$$$$$$$$$$$$$%*-:,,,33,,,-%$$$$$$$",
"$$$$$$$$$$$$$$$$$$$$$$$$$$$$$$$$$$$$$$$$$$$%-:>,,,332<<;*****$$$",
"$$$$$$$$$$$$$$$$$*--*$$$$$$$$$$$$$$$$$$$$$$$--*&**=*&**$$%****$$",
"$$$$$$$$$$$$%-:37taxga0e973,:-*$$$$$$$$$$$$$$$$OOXXXOOOOOO$$$$$$",
"$$$$$$$$$$-5easxnZFLULKGANnNbkp9,:-*%*%*$*%$$$#@OOXXOOOOOOOOO#$$",
"$$$$$$%*:39kbnnnnVDKIUILFADKLJFnssureeqe96,-$$$$$#@@@########$$$",
"$$$$$%:,39tdgy06360udlvcddlCSSABNCNVMnbvd9<-$##$$$$$$$$$$$$$$$$$",
"$$$$$$;,,2<,*$$OO$*-;>14456990rugkjkllcd7,&$OO#$$$$$$$$$$$$$$$$$",
"$$$$$$$$OOOOOOOX..XXO+$+&=;;;>>><,-:,35;oOOOO@#$$$$$$$$$$$$$$$$$",
"$$$$$#@OOOOOOOO..OXXXX...XOOOOOO$O@$$$&$OOOO@$$$$$$$$$$$$$$$$$$$",
"$$$$$$##@OOOOOOOOOOOXX.XOOOOXXOOOOOOOOO@@@###$$$$$$$$$$$$$$$$$$$",
"$$$$$$$$$$@O@@O@@###@OOO#$#OOOOOO@@#@@#$$$$$$$$$$$$$$$$$$$$$$$$$",
"$$$$$$$$$$###$$$$$$$$##$$$$###$$$$$$$$$$$$$$$$$$$$$$$$$$$$$$$$$$",
"$$$$$$$$$$$$$$$$$$$$$$$$$$$$$$$$$$$$%*************%%$$$$$$$$$$$$",
"$$$$$$$$$$$$$$$$$$$$$$$$$$$$$$$$$$%******&&*%****&&*&%$$$$$$$$$$",
"$$$$$$%%*$****%$$$$$$$$$$$$$$$##@$$$$$$$ooOo$ooo+$$$$$$$$$$$$$$$",
"$$$%*---->,,,,,,:-%$$$$$$$$###OOOO$$OOOOOXOOOOXXOOOOO@@#$$$$$$$$",
"$$-::---;,,,<<<,,,-$$$$##@@@@OOOOO@@###@OOOOOOOOOOOOOOO#$$$$$$$$",
"%*-:-*&&***&&*-**-*$#@@OOOOOOOOOO#$$$$$$$$$$$$$$$####@@#$$$$$$$$",
"-***$$$$OOOOO@$O@###OOOOO@@@#####$$$$$$$$$$$$$$$$$$$$$$$$$$$$$$$",
"*$$$@OOOOOOO@##@####@@@@######$$$**%$*--*$$$$$$$$$$$$$$$$$$$$$$$",
"$###@OOOO@#################$$%-::,37996733,,-%$$$$$$$$$$$$$$$$$$",
"#########################$$*-,379uknCndgcvnkse7633,:*****%$$$$$$",
"#######################$%,367rdllMABANnNFKLLKKAnbnce76333,%$$$$$",
"#########$$$$########$*:39pssnNNbxguuascMFHLUYLDFKFCnnbjse,$$$$$",
"########$$%$$###$$$%$*,,30uyradu73,::>,69rkVADBgbVVCCZAnnk9,:*$$",
"#####$$%----*%$$$$*-*%-:->;=**&$$$$###$-,277653,333eepssds933:$$",
"####$%::,<,,:-*$$$&&$$$$@OXX.XOOXOOOO@@$$$$oOOO@O@##$*-;,<:-,*$$",
"####$-:,,,,,:**$#$$$OOOOOOOOOOOOOOOXXXOOX. .......XOOOOOOOOO#$$$",
"####$***%*--%$$$########$#$########OX..XX....     ...OOOOOOO#$$$",
"####$$$###########$$%%%%*%****%%$$##OXXOOOOOX.....XOOOOOOOO@#$$$",
"##################%*-----*-:,,,,:$$#@OOOOOOOO@OO@@#$$$$$$$$$$$$$",
"##################%***%%%%*:::,3,-$##OOOOO@@##$$$$$$$$$$$$$$$$$$",
"##################$$$#@@##$$$$*-=$$#$#@@##$$$$$$$$$$$$$$$$$$$$$$",
"#####################@OOOOOO@O$+oOO#$$$$$$$$$*---****%$$$$$$$$$$",
"######################OO@@OOOOOOOO@#$$$$$$$*:,553,33,,:*$$$$$$$$",
"#########$$:,3,::::-*$#########@#$$$$$$$$$*:>,553<3663,,-*%%$$$$",
"#######$*<7ujlsree7633:-**%$$$$$$$$$$$$$$$$-&$&**&->,,,>:*--%$$$",
"#####$%,3rjcCANNNMxkkgsq63,%$$$$$$$$$$$$$#$$O...OO$$$$&&$$$$$$$$",
"#####-,390wrakcvNBnMBAAnjdt7633,,-%$$$$$$#@OOX..OOO@OOOOOOOOO#$$",
"#@@#@&;;;*+&>36680uujnVnkkjcnncgp93:,:*$$$##@OOOO##@OOOOOOO@@#$$",
"#OOOOO+o...XOOO++$*;<675570ulNNlds9333,$$$$$$$$$$$$@OOOOO@#$$$$$",
"#OOOO......XXOOX....OXoOo$&=,45414,,,<-$$$$$$$$$$$$@O@@#$$$$$$$$",
"###$$$oO$$OOOOOOXX...   ...XXoXXO+$$$$$$$$$$$$$$$$$###$$$$$$$$$$",
"#$$%->,,,,:-***$$X....   ....OX.Oo+#@#$$$$$$$$$$$$$$$$$$$$$$$$$$",
"#$%:,35669763,:-$OOOOOX..OOOO@@####$$$$$$%%%$$$$$$$$$$$$$$$$$$$$",
"#$*:,,224575<;=&$OO##@OOO#######$%-:>:>:::,:-*$$$$$$$$$$$$$$$$$$",
"#$$*-%$$&&**&$+OOO############$%*-,2<,,2<,,>--*%%$$$$$$$$$$$$$$$",
"#####@OOOOOOOOOOO#############%---;;==*;;;*&&=---%$$$$$$$$$$$$$$",
"######@@@OOO@#################$*%$$OO++$$$$OO$%%*$$$$$$$$$$$$$$$",
"###################################OOOOOOOO@#$$$$$$$$$$$$$$$$$$$"
};
