/* XPM */
static const char *cave_coral_black_weakened[] = {
/* columns rows colors chars-per-pixel */
"64 64 188 2 ",
"   c #020001",
".  c #0C0004",
"X  c #0A0608",
"o  c #070A0F",
"O  c #140005",
"+  c #1B0004",
"@  c #160008",
"#  c #1C000A",
"$  c #170909",
"%  c #1A0C0E",
"&  c #070A10",
"*  c #0D0B11",
"=  c #140710",
"-  c #1B0511",
";  c #160A14",
":  c #1A0915",
">  c #140E19",
",  c #1D0E1C",
"<  c #0F131C",
"1  c #240003",
"2  c #2D0004",
"3  c #24000D",
"4  c #29000F",
"5  c #310004",
"6  c #250211",
"7  c #2C0011",
"8  c #2D0719",
"9  c #240C1C",
"0  c #2C091D",
"q  c #340014",
"w  c #3A0016",
"e  c #35041A",
"r  c #3D0119",
"t  c #33091F",
"y  c #1D1827",
"u  c #151D2B",
"i  c #1C1829",
"p  c #1F1E30",
"a  c #260F21",
"s  c #2B0E22",
"d  c #340C23",
"f  c #3B0A23",
"g  c #3E052C",
"h  c #370E28",
"j  c #3E0B2B",
"k  c #251325",
"l  c #2C1227",
"z  c #2B142A",
"x  c #28192E",
"c  c #34132B",
"v  c #3B122D",
"b  c #3C0731",
"n  c #3C0A34",
"m  c #360B3E",
"M  c #3A0C3B",
"N  c #241E31",
"B  c #2D1C34",
"V  c #3A1531",
"C  c #361833",
"Z  c #3B1936",
"A  c #3D133C",
"S  c #361E3A",
"D  c #3E1C3D",
"F  c #1C2436",
"G  c #232135",
"H  c #2B2037",
"J  c #2C243D",
"K  c #34213C",
"L  c #3A203D",
"P  c #420017",
"I  c #43001A",
"U  c #4B001D",
"Y  c #50001F",
"T  c #420323",
"R  c #4B0321",
"E  c #430925",
"W  c #490927",
"Q  c #410529",
"!  c #420B2B",
"~  c #480B2A",
"^  c #530020",
"/  c #40102C",
"(  c #410E31",
")  c #411234",
"_  c #401937",
"`  c #41173A",
"'  c #401A3C",
"]  c #350D42",
"[  c #320F49",
"{  c #371346",
"}  c #3A1442",
"|  c #3C1A44",
" . c #34134B",
".. c #381748",
"X. c #371A4D",
"o. c #3A1E4B",
"O. c #2E1254",
"+. c #311551",
"@. c #331C56",
"#. c #311E59",
"$. c #2E2943",
"%. c #352542",
"&. c #3D2345",
"*. c #3C244E",
"=. c #302D49",
"-. c #3D2A4C",
";. c #33304E",
":. c #372253",
">. c #3A2653",
",. c #3C2B54",
"<. c #33225C",
"1. c #382759",
"2. c #362B5F",
"3. c #392B5B",
"4. c #2F3653",
"5. c #283C58",
"6. c #343554",
"7. c #3F3156",
"8. c #3C335C",
"9. c #333A5A",
"0. c #393C5F",
"q. c #312461",
"w. c #332C64",
"e. c #373264",
"r. c #3A3462",
"t. c #363F61",
"y. c #3D3B63",
"u. c #34356C",
"i. c #363B6E",
"p. c #3A3D6A",
"a. c #2F3C7B",
"s. c #303673",
"d. c #353D72",
"f. c #313E7A",
"g. c #401D41",
"h. c #402548",
"j. c #402749",
"k. c #403C62",
"l. c #344265",
"z. c #3B4065",
"x. c #3C436D",
"c. c #39476C",
"v. c #364B6F",
"b. c #364274",
"n. c #3A4471",
"m. c #394776",
"M. c #354B70",
"N. c #3C4A74",
"B. c #34447B",
"V. c #384778",
"C. c #364A7D",
"Z. c #374E7F",
"A. c #394D7A",
"S. c #394E7C",
"D. c #3B527A",
"F. c #3B527D",
"G. c #DA0B22",
"H. c #DC1226",
"J. c #DC1628",
"K. c #DC1A2A",
"L. c #DD222D",
"P. c #DD2630",
"I. c #DF2C33",
"U. c #DF3336",
"Y. c #E03B3A",
"T. c #E1423E",
"R. c #E24D43",
"E. c #E25246",
"W. c #E35A4A",
"Q. c #E4634E",
"!. c #E56C52",
"~. c #E57155",
"^. c #E77C5B",
"/. c #E8835F",
"(. c #E88A62",
"). c #EA9467",
"_. c #EB9E6C",
"`. c #ECAD73",
"'. c #EEBD7B",
"]. c #374E80",
"[. c #384F80",
"{. c #375081",
"}. c #385281",
"|. c #3B5682",
" X c #3B5983",
".X c #3C5A84",
"XX c #F1DC8B",
"oX c #F4F095",
/* pixels */
".X.X.X.X.X.X.X.X.X.X.X.X.X.X.X.X.X.X.X.X.X.X.X.X.X.X.X.X.X.X.X.X.X.X.X.X.X.X.X.X.X.X.X.X.X.X.X.X.X.X.X.X.X.X.X.X.X.X.X.X.X.X.X.X",
".X.X.X.X.X.X.X.X.X.X.X.X.X.X.X.X.X.X.X.X.X.X.X.X.Xx.-.F.}.l..X.X.X.X.X.X.X.X.X.X.X.X.X.X.X.X.X.X.X.X.X.X.X.X.XZ..X.X.X.X.X.X.X.X",
".X.XF.V Z .X.X X.X.X.X.X.X.X.X.XA.A J |. X.XF..X.Xm.*.g.y a w .Xr q T ! ' *..X.X.X.X}..X.X.XZ.3.8. X X.X.X.Xn.8..X.X.X.X.X.X.X.X",
".X.X X&.w v .XS.D. X X.X>..X.X.X@.O d z.D..X Xx.b.D..XB.; 4 I U r q J x.|.|..X.X|.n.:..X.X1.s A p..XN.|..X.Xh.>..Xd .X.Xb..X.X.X",
".X.X.X0.e I R ! D D.F..X( r..X.Xy.3 r Z F..X.Xx.c Z K .X@ q I I w S |..X.X,.| .X.XZ.,.n [ 7 q 7 .X.XA x..Xm.h.w.d 0 ;.p.S..X.X.X",
".X.X.X.XK I Y Y U / _ f q B F.|.}.v I D .X.X.Xb.r w e ] q w I w d e..X.X.Xf.! { .X.Xp...q w q a .X.X) m..X1.n e 7 7 z {..X.X.X.X",
".X.X.X.X.Xr U U U I I U I q B H 6.f I y..X.X.Xe.I I w w r I w 0 x.*.Z .X.XF.o.d..X.X.X*.w w t .X.Xu.z S..X#.q q 0 B m..X.X.X.X.X",
".X.X.X.X.Xn U U U I w r I w q q f r -. X X.Xy.n I I r r I r 3 } A.%.r d .Xy.k 6..X.X.Xb.d q 8 4.l.l z D.b.A q d t.F..X.Xx..X.X.X",
".X.X.X}.g r U U f o.{ 7 q w .Xr r j c.|..X.X.Xw w r r w q 3 n A ..r r q .X: 6 0 k .X.X.Xc q 7 d d 7 0 0.N.v q c .X.X.X|.1..X.X.X",
".X.X.X' q r r C l.|.p.8 q r .X.Xw v c.C.v q q 3 # 3 q 7 m O..X].m I w 7 3 6 7 8 .X.X.X.X.Xw r w q 0 c | v w q 7 X.A , x n .X.X.X",
".X.XF.c w q s v..X.X.X7 r I I w w r v t 3 # @ . . . @ @ . m .XX.m I r 7 3 7 3 +.B.F.b.{ 3 q w w .X.XF.i.f r w T g 3 4 7 7 .X.X.X",
".X.X.X}.q 9 .X.X.X.X.X7 I I I q r w 7 # O + 1 1 + 1 + . . . [ I U U q 7 7 3 g n o A { b # q w M .X.X.X.Xv I w 7 q e d h .X.X.X.X",
".X.X.XT +..X.X.X.X.X.X7 I U I q q 7 O O 2 1 2 2 2 5 2 + . . 3 I U U q [ # M T           O 3 q q q c c v U U I w e -.z..X.XB..X.X",
".X.X.XM .X.Xx.|.x.8..X.XI U I q 7 4 O + 2 2 2 2 2 2 2 1 O . 7 U U U q n T g T     oX!.P.. 3 q r I U I U U W _ V L |..X.XA.1..X.X",
".X.X.X.X.Xw E v | }..X.XI U U r q w 3 + 2 2 2 2 2 5 5 1 . . q U U U w q g m     Y.  K.(.oX7 r I U ^ U U W k.|..X.Xx.,.f.*.q..X.X",
".X.X.X.X.Xr U U K  X.XF q U U U I I r # + + 1 2 2 1 1 O . # w I U I w w q 3 . oXU.  H._.oXq q r U U U I :.F..X.Xb.8.n n n w..X.X",
".X.X.X.X.X.XU U d x..X& # w U U U U U r 3 . . O @ O $ . 3 I U I r w q w w q 3 '.G.  K.U.q q 7 3 7 w r I r o.:.v f d 7 # ) .X.X.X",
".X.XS.A..X.XU U r E *   . 3 r I U U I w 7 3 # # # @ O 4 U ^ ^ U q 3 3 q r I q 3 U.oX^.7 q 7 O O O @ q I r w w q q 3 @ * 5..X.X.X",
".X.X>.A..X.XI U U w 3 O . n 3 r I U I 4 # 3 7 7 7 7 q I U ^ ^ U I 7 # 7 r I I w q 4 4 7 3 . + 1 2 O # r U U I q 7 @ < F D.b..X.X",
".X.X| F..X.Xr U U I w q 3 [ 3 w I U r 3 ~.XXK.# 7 w I I I I U U U q 3 3 q r I I r q 7 3 . + 2 2 2 + @ r Y ^ U q ] .X|..Xb.q..X.X",
".X|.>.F..X.Xc I U I I I q 7 q I U I w Q.Y.  ~.XX# w I I q 7 r U U r M  .3 q I U I q 7 O + 2 2 2 2 + @ w ^ ^ U 3   .X.X.X} m .X.X",
".X|.*.p.M..X.X%.w j _ I r w I I I w q oXL.  U.oX# w I f x , 7 I U I b .X.X4 w I I r q O 1 2 2 2 + $ # I Y Y r @ .X.X3 7 g [ .X.X",
".X}...t =. X.X.X.XA. Xn.T r I I r q 3 oXT.  J.. 7 r r C {.x.B w I I w .X.X.X3 r U I q @ 2 2 2 1 . O 7 U U ~ K .X.X# 7 q 7 O..X.X",
".X|.*.r f v. X.X.X X.X.Xy.I U U w 7 # O W.oX  # q r r 9 x.|.Z.h I I I n .X.X# q U I 7 + 2 2 + . @ 3 w U ( B..X.X, 7 q h .X.X.X.X",
".X Xr.r r d J *..X.X.X.XF.~ U U I q 3 .       3 q w q = B..X.X.Xw I I b } V.9 w I r 3 + + @ O # 3 q r U ! .X.X.X6 q h B..X.X.X.X",
".X.XA.{ w q 7 7 c -.N.x.h.R U U U I q O     . 4 w q # o.|..XS.2.d r r q # > 3 w I q # # # # 0 e q q w I M .X.X.Xd q h .X.X.X.X.X",
".X.X.Xp.8 q w w r I T T I I U U U U I 4 @ O .Xq q 7 @ 1.|..X.XN.p.%.e q 3 # 7 r I q # # # 8 i..Xe w w q 4 a V.b.f w q s 6 .X.X.X",
".X.X.X X3.7 r I I I I U I r w w I I I q 7 3 .Xq q 4 O <.b..X.XC.y.N.h q q q q I I q 7 # O , {.8.d q q #   O s f I r 7 3 3 H  X.X",
".X.X.X.X.X}.q w w q w I r q 7 .Xw r I q 7 7 n q q 7 @ A F.N..X* ; A q w w r I U I r q 7 # # ) n w w 8 1.u . 4 r I w 7 3 3 @..X.X",
".X.X.X.XB.n 3 7 3 .X.X.Xq 7 7 .XI I r O.7 q w w q 4 3 6 k s 3 3 # 3 q q r U U U U U I w 7 3 7 w I I ,. X.X.X7 r I q 7 T ] .X.X.X",
".X.X.XB.Q Q # # O O..X.Xq 7 7 .XI I w M q w I I w 7 7 7 q q 7 7 7 q q w I U U Y U I I w q 4 4 w I ! A..X|.1.q I r 7 T U | .X.X.X",
".X.X.Xn >.p - @ . b .Xr q 7 .X.Xr r q 3 7 q r r q 7 6 7 q q 7 7 q q q r I U U U I r r q q 3 3 q q m *.d.>.n w w q # M } V..X.X.X",
".X.X.X' |..X- ; g M .Xr w q .X.Xw w s # 3 3 3 q q q 7 7 7 7 7 7 7 7 q w r I r r w q 7 6 3 . . # # 7 e r w q q 8 6 # T .X.X.X.X.X",
".X.X.X*..X.X( b.+.b w r I .X Xw w h l.G .X.X@ 3 7 7 3 .X.X3 3 4 7 7 7 q q q r r w 7 # O .       . # 3 q q q d $.k @   .X.X.X.X.X",
".X.X.X.X.Xm g. X:.M w P I .Xw w w t |..X.X.Xn # # # O .X.X+.# 7 7 7 3 3 l d r r q 3 .   U.!.oXoXT.. # 3 7 q C f.k # . ] .X.X.X.X",
".X.X.X.X.XM 3..X| n e I I P r r w b X.}..X.X.XA M # # O g O 7 w q 7 # J A.n.K e q 3 . `.I.R.  /.U.XX@ 3 7 8 3.8.0 3 @ M .X.X.X.X",
".X.X.X.X.X:.F. X*.u..Xe r I I w 7 m b ) n.F. X X} 3 4 3 # 3 q r q 3 G .XF.x.w.e 7 3   '.!.    Y._.oXoX# 7 7 +.8 7 3 ; f..X.X.X.X",
".X.X.X.X.X.X.X}.,.|..X.Xq I I r 4 O.T T & u i.d.M q w 7 7 q r r q : .X.X.Xh e q 7 # U.(.XX    /.W.^.~.6 q 7 7 7 7 # 8.|.V.i.F..X",
".X.X.X.X.X.X.X*.y..X.X.X.Xr I r 7 [ b   . O % ; 7 I I w q q I r q .X.X.Xq w q 7 3 # L.H.P.    ~.R.L.!.7 q 7 q q 7 .X|.C.o.,.S..X",
".X.X.X.X.X.X.X1.Z..X.X X X.Xr I q # I O 1 2 1 @ q I I q 7 7 q q q q 0 7 q q 7 7 # O oX~.K.    K.E.(.'.7 7 7 q w q .X.X.X] *.[..X",
".X.X.X.X.X.X.X.X.X.X.X.X.X.X.Xw q + + 2 2 2 2 @ q I q 3 # O @ 7 q w q w q q 4 # @ . oX_.!.    ~.W._.# 7 4 4 q r w .X.X.X.X*..X.X",
".X.X.X.X.X.X.X.X.X.X.X.X.X.Xq q 3 @ 1 2 2 2 1 O 7 q 3 . O + + + 3 q w r r w 7 # O     oX(.  ).!.^.. 3 7 3 # q I r 7 .X.X.X) B..X",
".X.X.X.X.X.X.Xm.A..X.X.X.X7 q q 3 + 2 2 2 2 @ % q q # + 2 2 2 1 @ g Q .XE r q 3 # # @ . _.'.'.'.. # q q 7 4 I I r q 7 3 # ` .X.X",
".X.X.X|.b..X.Xn.,.A M M q w w q # + 2 2 1 + O # q 7 + 2 2 2 2 2 1 . ) A..XZ q 7 3 7 3 @ .     O # 7 w w w r U U I w 7 7 3 : .X.X",
".X.X.XS.| .X.X.X.Xw.) T w I I .X.X. O + @ @ O 7 q 3 @ 2 2 2 2 2 + . O *.|..Xh q 3 3 # # # O O # 3 q w r q r U U I w q 7 # n .X.X",
".X.X.X|.D m .X.X.X.XA.D q I I q .X.X. . . O 3 q q 3 @ 2 2 2 2 2 O . . g *.<.! n T # @ @ # @ # 3 q r I r q q r r I q n g  ..X.X.X",
".X.X} .X,.n .X.X.X.X.XV.! w I q 4 # @ @ + + 3 7 q 7 # 1 2 2 2 1 O X ) n T n >.e.A g . . @ # 7 w I U U r 7 3 4 q w q 7 M .X.X.X.X",
".X.X) C.n.(  ..X.X.X.X.X3.M w w q 7 # + 1 2 + 3 q w 4 . O 1 + O X 7.].#.T M s..Xb.! T . # 7 w I U U U w 3 3 7 7 q q t d..X.X.X.X",
".X.X&.,.2.Q 7 X.B..X.X.XF.| n w r 4 @ 1 2 2 1 3 w r q #     . I &.|..Xw.n n | N.d.{ | ..3 w I U U U r 7 s s 8 7 3 3 t B..X.X.X.X",
".X.X|.g. .# 3 7 s .X.X.X.X.XA I O.# + 2 2 2 1 + q r r q 3 @ Q ! b. XA.#.7.b...} a..X.XC.h I U U I w 7 s c.}.2.] O # q w..X.X.X.X",
".X.X.XA Q . # 3 7 7 7 .X.X.X|.M 7 + 2 2 2 2 1 + q w r q 7 7 3 8 $.$.9 ] &.|.i.) T 1..X|.C I U U q 4 7 8 %..X.X.X# 3 q V }..X.X.X",
".X.X.XX.T T   @ 3 7 7 7 ..r.i.E q + 2 5 5 2 + @ 3 q w w q 4 3 7 8 7 7 7 8 J .Xf.{ ) C.9.t I U r 7 3 7 7 m .X.X.X7 3 q e e..X.X.X",
".X.X.X].n T U T . # 3 7 r E W U w + 1 2 2 + . @ # 4 7 7 7 # @ # # 3 3 7 q q f d 7 g , : 3 I U U q 4 3 3 b .Xq q 7 3 7 q 8 .X.X.X",
".X.X}.r.! T m +. .b @ 7 I U U I q + O O .   X . T # 3 3 # .   .X.X.X3 q r U U U r 7 3 O M w U Y I q 7 3 3 3 7 q 7 # # 3 3 3 .X.X",
".X.X1.*.B..X.X.X.Xb g q I I r w q 7 #   ] { u..X.X.X.Xg U T O.3 q w w w I U U U r q 7 M  .q U U U r w q 7 7 q 7 3 .X. @ # # @ .X",
".X.X.X.X.X.X.X.X.XA 7 r T -.u.} q w q .X.X.X.X.X.X.X.X.XM T q r I I I r q w v t 7 7 3 7 T w U U U I I q 7 q q 4 .X.X.X. @ # # .X",
".X.X.X.X.X.X.X.X}.c w r v N.N.g.q w w .X.X.X.XA.V..X.X.X}.I I I r w q 7 - N A.i.M 3 3 7 q r r r I U I q 7 7 3 # . .X.X.X.X@ .X.X",
".X.X.X.X.X.X.X.X) r q 7 T w.n..X0 w w w q ] ..r..X.X.X] n I r q 7 3 # X.u..X.Xx.n g b 7 q r q 3 0 v I r q q 3 # .X.X.X.X.X.X.X.X",
".X.X.XC.B.S Z I I w 6 :.g .X.X.X.X0 e w w f B.|..XC.m [ [ M 6 # T T #.}.|..X.X|  .g T q w w 7 y n.M.v I I r 7 .X.X.X.X.X.X.X.X.X",
".X.XX.} f w w w q # |.D.p..X.X.X.XC.%.e w g #.u.o.T T b n ..#.O.g M { p.A..X.X.Xf.n q r w q 9 S. X|.;.w r I w 7 .X.X.X.X.X.X.X.X",
".X.X].u.f f q 6 i .X.XF..X.X.X.X.X.XA.K ) ) m n g ! A |..X.Xu.) n ,.C..X.X.X|.2.A q r r d B .X.X.X.X.X.Xq w w q 7 .X.X.X.X.X.X.X",
".X.X.X.Xn.9.| d..X.X.X.X.X.X.X.X.X.X.X}.D.n.d.i.i.n.}..X.X.Xb.A..X.X.X.X.X.XX.Q b C.e &.V..X.X.X.X.X.X.X.X7 q q q 7 .X.X.X.X.X.X",
".X.X.X.X.X.X.X.X.X.X.X.X.X.X.X.X.X.X.X.X.X.X.X.X.X.X.X.X.X.X.X.X.X.X.X.X.X.X.X.X.X.X.X.X.X.X.X.X.X.X.X.X.X.X3 7 7 .X.X.X.X.X.X.X",
".X.X.X.X.X.X.X.X.X.X.X.X.X.X.X.X.X.X.X.X.X.X.X.X.X.X.X.X.X.X.X.X.X.X.X.X.X.X.X.X.X.X.X.X.X.X.X.X.X.X.X.X.X.X.X.X.X.X.X.X.X.X.X.X"
};
