/* XPM */
static const char *cave_coral_black[] = {
/* columns rows colors chars-per-pixel */
"64 64 180 2 ",
"   c #020001",
".  c #0C0004",
"X  c #0A0608",
"o  c #070A0F",
"O  c #130005",
"+  c #1B0004",
"@  c #160008",
"#  c #1C000A",
"$  c #180A0F",
"%  c #070A10",
"&  c #0D0B11",
"*  c #140710",
"=  c #1B0511",
"-  c #160A14",
";  c #1A0915",
":  c #140E19",
">  c #1D0E1C",
",  c #0F131C",
"<  c #230003",
"1  c #2D0003",
"2  c #24000D",
"3  c #29000F",
"4  c #300004",
"5  c #250211",
"6  c #2C0011",
"7  c #2D0719",
"8  c #240C1C",
"9  c #2C091D",
"0  c #340014",
"q  c #3A0016",
"w  c #35041A",
"e  c #3D0119",
"r  c #33091F",
"t  c #1D1727",
"y  c #1D1827",
"u  c #151D2B",
"i  c #1B1A2A",
"p  c #1F1E30",
"a  c #260F21",
"s  c #2B0E22",
"d  c #340C23",
"f  c #3B0A23",
"g  c #3E052C",
"h  c #370E28",
"j  c #3E0B2B",
"k  c #251325",
"l  c #2C1227",
"z  c #2B142A",
"x  c #27192D",
"c  c #29192E",
"v  c #34132B",
"b  c #3B122D",
"n  c #3C0731",
"m  c #3C0A34",
"M  c #360B3E",
"N  c #3A0C3B",
"B  c #241E31",
"V  c #2D1C34",
"C  c #3A1531",
"Z  c #361833",
"A  c #3B1936",
"S  c #3D133C",
"D  c #361E3A",
"F  c #3E1C3D",
"G  c #1D2133",
"H  c #1A2739",
"J  c #232135",
"K  c #2B2037",
"L  c #2C243D",
"P  c #34213C",
"I  c #3A203D",
"U  c #420017",
"Y  c #43001A",
"T  c #4B001D",
"R  c #50001F",
"E  c #420323",
"W  c #4B0321",
"Q  c #430925",
"!  c #490927",
"~  c #410529",
"^  c #420B2B",
"/  c #480B2A",
"(  c #530020",
")  c #40102C",
"_  c #410E31",
"`  c #411234",
"'  c #401937",
"]  c #41173A",
"[  c #401A3C",
"{  c #350D42",
"}  c #320F49",
"|  c #371346",
" . c #3A1442",
".. c #3C1A44",
"X. c #34134B",
"o. c #381748",
"O. c #371A4D",
"+. c #3A1E4B",
"@. c #2E1254",
"#. c #311551",
"$. c #331C56",
"%. c #311E59",
"&. c #2E2943",
"*. c #352542",
"=. c #3D2345",
"-. c #3C244E",
";. c #302D49",
":. c #3D2A4C",
">. c #33304E",
",. c #372253",
"<. c #3A2653",
"1. c #3C2B54",
"2. c #33225C",
"3. c #382759",
"4. c #362B5F",
"5. c #392B5B",
"6. c #2F3653",
"7. c #283C58",
"8. c #343554",
"9. c #3F3156",
"0. c #3C335C",
"q. c #333A5A",
"w. c #393C5F",
"e. c #312461",
"r. c #332C64",
"t. c #373264",
"y. c #3A3462",
"u. c #363F61",
"i. c #3D3B63",
"p. c #34356C",
"a. c #363B6E",
"s. c #3A3D6A",
"d. c #2F3C7B",
"f. c #303673",
"g. c #353D72",
"h. c #313E7A",
"j. c #401D41",
"k. c #402444",
"l. c #402548",
"z. c #402A4E",
"x. c #403C62",
"c. c #344265",
"v. c #3B4065",
"b. c #37466A",
"n. c #3C436D",
"m. c #364B6F",
"M. c #3B486E",
"N. c #364274",
"B. c #374577",
"V. c #3A4370",
"C. c #3B4571",
"Z. c #394777",
"A. c #354B70",
"S. c #3C4A73",
"D. c #3A4975",
"F. c #34447B",
"G. c #34467D",
"H. c #384778",
"J. c #364A7D",
"K. c #374D7F",
"L. c #3A4D79",
"P. c #394D7A",
"I. c #394E7C",
"U. c #3B5179",
"Y. c #3C517A",
"T. c #3B537F",
"R. c #3A557E",
"E. c #374E80",
"W. c #384F80",
"Q. c #375081",
"!. c #395381",
"~. c #3A5581",
"^. c #3C5781",
"/. c #3B5883",
"(. c #3C5982",
"). c #3C5A84",
"_. c #EBE48F",
"`. c #EFEA92",
"'. c #F2EE93",
"]. c #F4F095",
/* pixels */
").).).).).).).).).).).).).).).).).).).).).).).).).).).).).).).).).).).).).).).).).).).).).).).).).).).).).).).).).).).).).).).).",
").).).).).).).).).).).).).).).).).).).).).).).).).n.:.T.!.c.).).).).).).).).).).).).).).).).).).).).).).).).).K.).).).).).).).).",
").).T.C A ).)./.).).).).).).).).L.S L ~./.).T.).).Z.-.j.t a q ).e 0 E ^ [ -.).).).).!.).).).K.5.0././.).).).V.0.).).).).).).).).",
").)./.=.q b ).I.Y././.).<.).).).$.O d v.Y.)./.n.N.U.).G.- 3 Y T e 0 L n.~.~.).).~.V.,.).).3.s S s.).S.~.).).z.<.).d ).).B.).).).",
").).).w.w Y W ^ F U.R.)._ y.).).i.2 e A T.).).n.v A P ).@ 0 Y Y q D ~.).).1...).).K.1.m } 6 0 6 ).).S n.).Z.l.r.d 9 >.s.I.).).).",
").).).).P Y R R T ) ' f 0 V R.~.!.b Y F ).).).N.e q w { 0 q Y q d t.).).).h.^ | ).).s.o.0 q 0 a ).).` Z.).3.m w 6 6 z Q.).).).).",
").).).).).e T T T Y Y T Y 0 V K 8.f Y i.).).).t.Y Y q q e Y q 9 n.-.A ).).T.+.g.).).).-.q q r ).).p.z I.).%.0 0 9 V Z.).).).).).",
").).).).).m T T T Y q e Y q 0 0 f e :.(./.).i.m Y Y e e Y e 2  .L.*.e d ).i.k 8.).).).N.d 0 7 6.c.l z U.B.S 0 d u.T.).).n.).).).",
").).).!.g e T T f +.o.6 0 q ).e e j M.^.).).).q q e e q 0 2 m S o.e e 0 ).; 5 9 k ).).).v 0 6 d d 6 9 w.D.b 0 v ).).).~.3.).).).",
").).).[ 0 e e Z c.~.s.7 0 e ).).q b M.J.b 0 0 2 # 2 0 6 M @.).E.M Y q 6 2 5 6 7 ).).).).).q e q 0 9 v ..b q 0 6 O.S > c m ).).).",
").).T.v q 0 s m.).).).6 e Y Y q q e b r 2 # @ . . . @ @ . M ).O.M Y e 6 2 6 2 #.F.T.B.| 2 0 q q ).).T.a.f e q E g 2 3 6 6 ).).).",
").).).!.0 8 ).).).).).6 Y Y Y 0 e q 6 # O + ].].].].].. . . } Y T T 0 6 6 2 g m o S o.n # 0 q N ).).).).b Y q 6 0 w d h ).).).).",
").).).E #.).).).).).).6 Y T Y 0 0 6 O O ].].].1 1 ].].].. . 2 Y T T 0 } # N E           O 2 0 0 0 v v b T T Y q w :.v.).).G.).).",
").).).N ).).n.~.n.0.).).Y T Y 0 6 3 O ].].].].1 1 ].].].`.. 6 T T T 0 m E g E     ].].].. 2 0 e Y T Y T T ! ' C I ~.).).L.3.).).",
").).).).).q Q b ..!.).).Y T T e 0 q 2 ].].].].1 1 ].].].].. 0 T T T q 0 g M     ].  ].].].6 e Y T ( T T ! x.~.).).n.1.h.-.e.).).",
").).).).).e T T P /.).G 0 T T T Y Y e # ].].].1 1 ].].].. # q Y T Y q q 0 2 . ].].  ].].].0 0 e T T T Y ,.T.).).N.0.m m m r.).).",
").).).).).).T T d n.).% # q T T T T T e 2 . ].].].].].. 2 Y T Y e q 0 q q 0 2 ].].  ].].0 0 6 2 6 q e Y e +.,.b f d 6 # ` ).).).",
").).I.L.).).T T e Q &   . 2 e Y T T Y q 6 2 # # # @ @ 3 T ( ( T 0 2 2 0 e Y 0 2 ].].].6 0 6 O O O @ 0 Y e q q 0 0 2 @ & 7.).).).",
").).<.L.).).Y T T q 2 O . m 2 e Y T Y 3 # 2 6 6 6 6 0 Y T ( ( T Y 6 # 6 e Y Y q 0 3 3 6 2 . ].].].O # e T T Y 0 6 @ , H Y.N.).).",
").)...T.).).e T T Y q 0 2 } 2 q Y T e 2 ].].].# 6 q Y Y Y Y T T T 0 2 2 0 e Y Y e 0 6 2 . ].].1 ].].@ e R ( T 0 { ).~.).B.e.).).",
").~.<.T.).).v Y T Y Y Y 0 6 0 Y T Y q ].].  ].].# q Y Y 0 6 e T T e N X.2 0 Y T Y 0 6 O ].].].1 ].].@ q ( ( T 2   ).).). .M ).).",
").~.-.s.A.).).*.q j ' Y e q Y Y Y q 0 ].].  ].].# q Y f x > 6 Y T Y n ).).3 q Y Y e 0 O ].].].1 ].].# Y R R e @ ).).2 6 g } ).).",
").!.o.r ;./.).).).L./.V.E e Y Y e 0 2 ].].  ].. 6 e e Z Q.n.V q Y Y q ).).).2 e T Y 0 @ ].].].< ].O 6 T T / P ).).# 6 0 6 @.).).",
").~.-.e h m./.).)./.).).i.Y T T q 6 # O ].].  # 0 e e 8 n.~.K.h Y Y Y m ).).# 0 T Y 6 + 1 ].].'.@ 2 q T _ G.).).> 6 0 h ).).).).",
")./.y.e e d L -.).).).).T./ T T Y 0 2 .       2 0 q 0 * F.).).).q Y Y n  .H.8 q Y e 2 + + @ O # 2 0 e T ^ ).).).5 0 h G.).).).).",
").).L.o.q 0 6 6 v :.S.n.k.W T T T Y 0 O     . 3 q 0 # +.~.).I.4.d e e 0 # : 2 q Y 0 # # # # 9 w 0 0 q Y N ).).).d 0 h ).).).).).",
").).).s.7 0 q q e Y E E Y Y T T T T Y 3 @ O ).0 0 6 @ 3.~.).).S.s.*.w 0 2 # 6 e Y 0 # # # 7 a.).w q q 0 3 a H.N.h q 0 s 5 ).).).",
").).)./.5.6 e Y Y Y Y T Y e q q Y Y Y 0 6 2 ).0 0 3 O 2.N.).).J.i.D.h 0 0 0 0 Y Y 0 6 # O > Q.0.d 0 0 #   O s h Y e 6 2 2 K /.).",
").).).).).!.0 q q 0 q Y e 0 6 ).q e Y 0 6 6 m 0 0 6 @ S T.S.).& - S 0 q q e Y T Y e 0 6 # # ` m q q 7 3.u . 3 e Y q 6 2 2 $.).).",
").).).).F.m 2 6 2 ).).).0 6 6 ).Y Y e @.6 0 q q 0 3 2 5 k s 2 2 # 2 0 0 e T T T T T Y q 6 2 6 q Y Y 1./.).).6 e Y 0 6 E { ).).).",
").).).F.~ ~ # # O @.).).0 6 6 ).Y Y q N 0 q Y Y q 6 6 6 0 0 6 6 6 0 0 q Y T T R T Y Y q 0 3 3 q Y ^ L.).~.3.0 Y e 6 E T ..).).).",
").).).m <.p = @ . n ).e 0 6 ).).e e 0 2 6 0 e e 0 6 5 6 0 0 6 6 0 0 0 e Y T T T Y e e 0 0 2 2 0 0 M -.g.<.m q q 0 # N  .H.).).).",
").).).[ ~.).= - g N ).e q 0 ).).q q s # 2 2 2 0 0 0 6 6 6 6 6 6 6 6 0 q e Y e e q 0 6 5 2 . . # # 6 w w q 0 0 7 5 # E ).).).).).",
").).).-.).)._ N.#.n q e Y ).(.q q h c.J ).).@ 2 6 6 2 ).).2 2 3 6 6 6 0 0 0 e e q 6 # O .       . # 2 0 0 0 d &.k @   ).).).).).",
").).).).).M j./.,.N q U Y ).q q q r ~.).).).m # # # O ).).#.# 6 6 6 2 2 l d e e 0 2 .   ].].].].].. # 2 6 0 Z h.k # . { ).).).).",
").).).).).N 5.)...m w Y Y U e e q n O.!.).).).S N # # O g O 6 q 0 6 # L L.V.P w 0 2 . ].].].  ].].].@ 2 6 7 5.0.9 2 @ N ).).).).",
").).).).).,.T./.-.p.).w e Y Y q 6 M n ` Z.T.).). .2 3 2 # 2 0 e 0 2 J ).T.n.r.w 6 2   ].].    ].].].].# 6 6 #.7 6 2 - h.).).).).",
").).).).).).).!.1.~.).).0 Y Y e 3 @.E E % u a.g.N 0 q 6 6 0 e e 0 ; ).).).h w 0 6 # ].].].    ].].].].5 0 6 6 6 6 # 0.~.H.a.T.).",
").).).).).).).-.i.).).).).e Y e 6 } n   . O $ - 6 Y Y q 0 0 Y e 0 ).).).0 q 0 6 2 # ].].].    ].].].].6 0 6 0 0 6 ).~.J.+.1.I.).",
").).).).).).).3.K.).).(.(.).e Y 0 # Y O < 1 < @ 0 Y Y 0 6 6 0 0 0 0 9 6 0 0 6 6 # O ].].].    ].].].].6 6 6 0 q 0 ).).).{ -.W.).",
").).).).).).).).).).).).).).).q 0 + + 1 ].].].@ 0 Y 0 2 # O @ 6 0 q 0 q 0 0 3 # @ . ].].].    ].].].# 6 3 3 0 e q ).).).).-.).).",
").).).).).).).).).).).).).).0 0 5 @ < ].].1 ].].6 0 2 . O ].+ + 2 0 q e e q 6 # O     ].].  ].].].. 2 6 2 # 0 Y e 6 ).).).` G.).",
").).).).).).).Z.L.).).).).6 0 0 2 + 1 ].].1 ].].0 0 # + ].1 ].< @ g ~ ).Q e 0 2 # # @ . ].].].].. # 0 0 6 3 Y Y e 0 6 2 # ] ).).",
").).).~.B.).).C.1.S N N 0 q q 0 # + 1 ].].+ ].# 0 6 + ].].1 ].].< . ` L.).A 0 6 2 6 2 @ .     O # 6 q q q e T T Y q 6 6 2 ; ).).",
").).).I...).).).).r.` E q Y Y ).).. O + ].].O 6 0 2 @ ].].1 ].].+ . O -.~.).h 0 2 2 # # # O O # 2 0 q e 0 e T T Y q 0 6 # m ).).",
").).).~.F M ).).).).L.F 0 Y Y 0 ).).. . . O 2 0 0 2 @ ].].1 ].1 O . . g -.2.^ m E # @ @ # @ # 2 0 e Y e 0 0 e e Y 0 m g X.).).).",
").). .).1.m ).).).).).H.^ q Y 0 3 # @ @ + + 2 6 0 6 # < ].].1 < O X ` m E m <.t.S g . . @ # 6 q Y T T e 6 2 3 0 q 0 6 N ).).).).",
").).` J.V._ X.).).).).).5.N q q 0 6 # + < 1 + 2 0 q 3 . O < + O X 9.E.%.E N f.).N.^ E . # 6 q Y T T T q 2 2 6 6 0 0 r g.).).).).",
").).=.1.4.~ 6 O.F.).).).T...m q e 3 @ < ].].< 2 q e 0 #     . Y =.~.).r.m m ..D.g.o...o.2 q Y T T T e 6 s s 7 6 2 2 r F.).).).).",
").).~.j.X.# 2 6 s ).).).).).S Y @.# + ].1 ].].+ 0 e e 0 2 @ ~ ^ N./.L.%.9.N.o. .d.).).J.h Y T T Y q 6 s b.!.4.{ O # 0 r.).).).).",
").).).S ~ . # 2 6 6 6 ).).).~.N 6 + ].].1 ].].+ 0 q e 0 6 6 2 7 &.&.8 { =.~.a.` E 3.).~.Z Y T T 0 3 6 7 *.).).).# 2 0 C !.).).).",
").).).O.E E   @ 2 6 6 6 o.y.a.Q 0 + ].].4 ].].@ 2 0 q q 0 3 2 6 7 6 6 6 7 L ).h.| ` J.q.r Y T e 6 2 6 6 M ).).).6 2 0 w t.).).).",
").).).E.m E T E . # 2 6 e Q ! T q + < ].'._.. @ # 3 6 6 6 # @ # # 2 2 6 0 0 f d 6 g > ; 2 Y T T 0 3 2 2 n ).0 0 6 2 6 0 7 ).).).",
").).!.y.^ E M #.X.n @ 6 Y T T Y 0 + O O .   X . E # 2 2 # .   ).).).2 0 e T T T e 6 2 O N q T R Y 0 6 2 2 2 6 0 6 # # 2 2 2 ).).",
").).3.-.G.).).).).n g 0 Y Y e q 0 6 #   { | p.).).).).g T E @.2 0 q q q Y T T T e 0 6 N X.0 T T T e q 0 6 6 0 6 2 ).. @ # # @ ).",
").).).).).).).).).S 6 e E :.p. .0 q 0 ).).).).).).).).).N E 0 e Y Y Y e 0 q b r 6 6 2 6 E q T T T Y Y 0 6 0 0 3 ).).).. @ # # ).",
").).).).).).).).!.v q e b S.S.j.0 q q ).).).).L.H.).).).!.Y Y Y e q 0 6 = B L.a.N 2 2 6 0 e e e Y T Y 0 6 6 2 # . ).).).).@ ).).",
").).).).).).).).` e 0 6 E r.V.).9 q q q 0 { o.y.).).).{ m Y e 0 6 2 # O.p.).).n.m g n 6 0 e 0 2 9 b Y e 0 0 2 # ).).).).).).).).",
").).).J.F.D A Y Y q 5 ,.g ).).).).9 w q q f F.~.).J.M } } N 5 # E E %.!.~.).)...X.g E 0 q q 6 y V.A.b Y Y e 6 ).).).).).).).).).",
").).O. .f q q q 0 # ~.Y.s.).).).).J.*.w q g %.p.+.E E n m o.%.@.g N | s.L.).).).h.m 0 e q 0 8 I./.~.>.q e Y q 6 ).).).).).).).).",
").).E.p.f f 0 5 i ).).T.).).).).).).L.P ` ` M m g ^ S ~.).).p.` m 1.J.).).).~.4.S 0 e e d V ).).).).).).0 q q 0 6 ).).).).).).).",
").).).).V.q...g.).).).).).).).).).).).!.Y.C.g.a.a.V.!.).).).B.L.).).).).).).O.~ n J.w =.H.).).).).).).).).6 0 0 0 6 ).).).).).).",
").).).).).).).).).).).).).).).).).).).).).).).).).).).).).).).).).).).).).).).).).).).).).).).).).).).).).).2 6 6 ).).).).).).).",
").).).).).).).).).).).).).).).).).).).).).).).).).).).).).).).).).).).).).).).).).).).).).).).).).).).).).).).).).).).).).).).)."
};
