/* XPM */
static const char *clay[] = {
/* columns rows colors chars-per-pixel */
"64 64 14 1 ",
"  c #ABB1AF",
". c #ACB1B0",
"X c #AFB4B2",
"o c #B0B5B3",
"O c #B1B6B4",
"+ c #B2B8B6",
"@ c #B4B9B8",
"# c #B7BCBA",
"$ c #B8BDBB",
"% c #BBBFBE",
"& c #BCC0BF",
"* c #BFC3C2",
"= c #C0C4C3",
"- c #C2C5C4",
/* pixels */
"----------------------------------------------------------------",
"--------------------=-------------------------------------------",
"----------------------------------------------------------------",
"------=*=**-----------=----==-----------------=-----------------",
"----***&**&*-------==**=*&***=*****-=-==----*=-*----------------",
"---=&***&&**=----**%&***&%&&&&%%*%&*&********&-&&---------------",
"---=***&%%***---&***&*&&%&*%&%$%%%%&%&*&&&&****&*=--------------",
"----==****===---********&**&**%%%%%%&&%&&&***&%&*&--------------",
"----==-===------=-***********&**&&*%**&*********&&-------*------",
"--=***=--------****%***%&**%%$$%%&***=*==****&#%@#*=***%*@%=----",
"-******---=*%%%%$#%$@#$@@@@@O+$@@$%$*==-==*%%+X@#O@%#%$o%@@*----",
"-******=%&@@O+@+@O++oXoX..... +o+$$+@%@%*-@$%@+@@O@@@@$+++#$%=--",
"-==**%%%OO...o@+@@++X.... X+O...OOo Oo#@%*@$%#@@@+@@++@ooO++*=--",
"----*@#@..o.++@@@@@@@++@+Ooo+oo.X.XX.+++@*#%*%%%%%%%$@@++@$%*---",
"--*%&###OOX++@@@+#@@$@@#%##@+@+@@OXXO.o+@#$%%=******&*%%%%%%*---",
"&*&&%%%%#@@@@#%%%$%#$%%%%%%&%#@%%$@XO@+%%$%%%-------=*******=---",
"&**&%%%%%$#%#%&***&%%%&%%%%&*%&&%@$#+%%%&****-----------==------",
"==***%%%%%%%%%*******&*********%%%%%&&**--***=*=----------------",
"*=**=**%%%%%%%***-===***==-==***%$%%%%*-=**&****=*=-------------",
"--=*****&&%%%%**=--------------=**%&**--*&&&&%%****-------------",
"-------===**=****----------------=**=---=***&%%%***-------------",
"--------=%---=**=*----------------------==***&%****=------------",
"------&*******&***=-----**---------------=-==******=------------",
"------&&=&%%&*%%****--***&***=---------------==*=**--===*=------",
"------=-&&*%**%&&**&-==*&&***=------------===*=&**&**%&*&*------",
"------*=**********=*--**%%%**=-----------=*****%%&%&&%%&%*------",
"---------==****===-=--=*******-----------******&&&&&%%%%%&*-----",
"------------=--=-------====*==-----------=****&**&**%%%%%%*-----",
"-------------------------------------------=*****=*=**&****-----",
"-------=*-**---------------------------------=------=-====------",
"-----******&*-----------==-*==%-*%------------------------------",
"----=&***&&**=-------=**%%=%%%%%&%*-*--*-**=-==-----------------",
"----=***&%%***-----*%%+@%%%%%%$@$$%%$**%*%%%**%*-=*-==----------",
"-----==******==**%%X+@O+$@@@#@@+@@O@@@%+@#@@%%%%&*%&*%=%*-------",
"-----*=*=====*&%+OO.XO+O@++O+XO+OoOOOo$OX@O.+@$@%*%%%@%%@%------",
"-----=-&*-*=%##@oo+@+@@@@+O+OO+O.XX.++O@@+++++OO+#$@++++@%*-----",
"-----*-&&-%*#+@@OO@$$%%%%&$@@OOO++++$+@O+@+OOOoOOO@o.o.X+O@&----",
"----*=*&*&*&@@$$OOO+#%%&&%%@#+@+@@@$%%%@@@+O+Oo+++$#+@+++$%&----",
"----=****%%$@#@%@@@##%%%%%$%%%&$%%#%%%&%%@##@@$@#$$%$$%%%***----",
"----==*==**%%%%&*%%$@@#%%%%%&*=**=**=**&&&%*&%&%%%%%&&&***==----",
"---------===****=*%%#$#&%&%%*-=**-----******=***&******====&=---",
"-----------------*%%%%%&***=*****=--=*******=*&=%**&*****&**&=--",
"------------------=*****=****%**&&*-*&**%&*&*&&*%&*%&&&&*****=--",
"--------=*----------==-***%%*******-=***&&&&%%&%%%%%%%&%&&&**&=-",
"------=*=&&------------*&*&&&***===-===*******&%%%#%%%********--",
"-**-******==-----------=****&***==---=-=*=*=*****%%%&%%***====--",
"**&%***%&*&*-----------===****==--------------=*&%%%%*&*--------",
"***%&******=------------=-====-----------------=*****===--------",
"&**%*****=-----------------------------------==&*======---------",
"*****-==---------=*%=--*=**==--------------**&*&&=---=&*--------",
"-------------***%%%+$*%%*&%%%*&-----------*****&*=-*****--------",
"-----------**$#%$@#O@$X@@%$@@%%*----------***&&&*&=*&=*&%=------",
"-------*%%*##@@#@+@++@++O+@Oo+@%%%*%%-*=----******-==****=------",
"-----*&%%+##+@+++OO+++@++O+O..OO@%%%@@%**&*&*=*===-*=-*-=-------",
"----=%+%@O@@+@+@+@@@@@#+++++OXO+O@@@@@OOo.#%%*---------==-------",
"----$%#+@O+@O++@+@@@#%$#$@@@XXO+O+@@#@o...O@@%--------*---------",
"---*=%#%##+@++O+++++@###@#@OOoOO@+@%%@+++Xo+@%-----&*=&*--------",
"---=#%##@$%#@@%@%$@@##@#%%%@++@+@@#$%%$$@@@@#$=--*=*%*&*=-------",
"---*=%&%%%%%%&*%&%%%%%&%%&*%&%%%%%&&*%%%%%%%#%*-==*&*&***-------",
"----===-=*********&&****==---******==**&*%&%%*=--***&%***-------",
"-----------=***====*****---------------*=****---==****===-------",
"------------==----------------------------===------=-=----------",
"----------------------------------------------------------------",
"----------------------------------------------------------------"
};
