/* XPM */
static const char *cliff_ice[] = {
/* columns rows colors chars-per-pixel */
"64 64 147 2 ",
"   c #7CAECC",
".  c #77B1D2",
"X  c #7BB4D4",
"o  c #7BB7DA",
"O  c #7DBBDC",
"+  c #7DBFE1",
"@  c #7FC0DF",
"#  c #7DC3E3",
"$  c #7DC7E8",
"%  c #7FC9E9",
"&  c #8EB0CD",
"*  c #84B4D2",
"=  c #89B7D3",
"-  c #87B9D6",
";  c #8FBDD7",
":  c #84BCDA",
">  c #8BBEDA",
",  c #91B7D1",
"<  c #93BAD5",
"1  c #95BED9",
"2  c #99BED8",
"3  c #84C0DF",
"4  c #8CC2DE",
"5  c #94C3DD",
"6  c #9CC5DE",
"7  c #A1C3DB",
"8  c #A5C9DF",
"9  c #84C5E5",
"0  c #8BC6E3",
"q  c #81C8E7",
"w  c #8DCAE6",
"e  c #83C7E8",
"r  c #84CBEB",
"t  c #8BCDEB",
"y  c #92C6E2",
"u  c #93CAE5",
"i  c #9CCBE4",
"p  c #94CEEA",
"a  c #9CCEE8",
"s  c #84D0EF",
"d  c #8CD0ED",
"f  c #94D2ED",
"g  c #9DD2EC",
"h  c #85CFF0",
"j  c #84D1F1",
"k  c #8BD4F2",
"l  c #87D8F7",
"z  c #8ED9F7",
"x  c #87D9F8",
"c  c #8ADEFD",
"v  c #95D6F2",
"b  c #9BD6F1",
"n  c #95D9F5",
"m  c #9BDAF4",
"M  c #95DDF9",
"N  c #9CDEF9",
"B  c #A3CDE5",
"V  c #ABCCE2",
"C  c #A0CFE9",
"Z  c #B1CFE3",
"A  c #A7D0E5",
"S  c #ADD1E4",
"D  c #A3D4EB",
"F  c #ABD5EB",
"G  c #A5D8EF",
"H  c #ADD8EE",
"J  c #B2D3E6",
"K  c #BCD5E6",
"L  c #B2D5E9",
"P  c #BAD5E8",
"I  c #B3DAED",
"U  c #BCDBED",
"Y  c #A0D6F0",
"T  c #A8D7F0",
"R  c #A4DBF3",
"E  c #ABDCF3",
"W  c #A4DFF8",
"Q  c #AADFF8",
"!  c #B3DEF2",
"~  c #BBDFF1",
"^  c #9EE1FC",
"/  c #ACE0F6",
"(  c #A4E3FC",
")  c #ACE4FB",
"_  c #ADE8FF",
"`  c #B4E2F6",
"'  c #BCE2F4",
"]  c #B3E5FA",
"[  c #BBE6F9",
"{  c #B5E9FE",
"}  c #BCEAFD",
"|  c #C2DDEE",
" . c #CBDFED",
".. c #C2DFF0",
"X. c #C2E0EF",
"o. c #CAE1EE",
"O. c #C3E4F4",
"+. c #CBE5F4",
"@. c #C4E8F6",
"#. c #CCE9F6",
"$. c #C2E7F8",
"%. c #C9E7F8",
"&. c #C4EBFC",
"*. c #C6EBFC",
"=. c #C1EDFF",
"-. c #C3EEFF",
";. c #C5ECFC",
":. c #CBECFB",
">. c #CAEFFE",
",. c #CFEFFD",
"<. c #D2E6F3",
"1. c #D4EAF5",
"2. c #DBECF5",
"3. c #D4EEFA",
"4. c #D3EFFD",
"5. c #DAEFF9",
"6. c #CBF0FF",
"7. c #CFF0FE",
"8. c #C5FFFF",
"9. c #CBFFFF",
"0. c #D3F0FD",
"q. c #D3F2FF",
"w. c #D5F2FE",
"e. c #DBF3FD",
"r. c #DAF3FE",
"t. c #DCF4FF",
"y. c #D2FFFF",
"u. c #D6FFFF",
"i. c #DDFFFF",
"p. c #E2EEF5",
"a. c #E0EFF8",
"s. c #E6F0F6",
"d. c #E3F6FF",
"f. c #E4F5FD",
"g. c #E7F7FF",
"h. c #EAF6FC",
"j. c LightCyan",
"k. c #E5FFFF",
"l. c #EAF8FF",
"z. c #E9FFFF",
"x. c #EDFFFF",
"c. c #F0F7FB",
"v. c azure",
"b. c #F4FDFE",
"n. c #FCFEFF",
"m. c #FCFFFF",
"M. c white",
/* pixels */
"} { } } ) $.| K L D H Q W } 0.=.{ } 6.r.t.r.;.=.} _ ( ( M c c >._ , & , 5 i f N ,.w.] R E R b f f f n z ( &.w.d.d.l.d.=.( $.:.=.",
"( ( } ;.$.| P 8 6 i B R m } ,.} ( ( _ } 0.r.>.} 7.=.( ( M ^ ( } } g i V A I ` ) ;.,.] R E E R k n R / [ &.r.r.w.w.w.w._ ` %.%.] ",
"( ^ =.%.| V 5 1 > 5 C b m / =.} _ ( _ } } } { [ [ ! n n n m N _ { W D F R [ =.} ] } ] W R R R E [ =.;.w.0.,.>.[ } =.>.) Q O.' W ",
"] ( =.+.J 5 u.z.x.j.z.z.b m [ &.=._ } =.] ) ` ` F a w r j k N } { ( ` ` N ] [ ] ] { } [ ` ` { >.0.,.;.;.;.` m T $.$.} / m R R ) ",
"{ } 4.O.x.k.j.v.m.x.x.v.v.m.m.,.>.} { &.` E F B 5 4 O q t n / ;.=.] $.$.[ &.} ) } ,.w.w.7.=.} :.x.[ ] ] E E G H | ~ W m n b v ) ",
"( ;.r.m.m.m.m.m.m.m.m.m.m.b.h.,.,.{ ) ` H a 6 > - : O q d R ] 0.w.,.0.4.;.>.} _ } ,.0.0.7.=.[ b.x.j.j.v.b.m.m.m.H E R b f f k N ",
"^ =.w.b.m.m.m.m.m.m.m.m.h.h.t.;.=.] E D y 5 < * X o 3 p W } >.r.t.r.0.,.;.} } } } [ ] ) } $.c.m.m.m.m.m.m.m.b.m.m.m.g f y w t m ",
"( ;.,.t.d.b.c.c.d.e.3.0.r.f.) } &.[ T y y 1 ; - i.k.b.` } } =.0.r.,.} { { _ { } ] W m z N E h.h.h.b.m.c.f.5.#.h.m.m.g a a 9 d m ",
"( =.=.{ r.l.d.t.t.r.,.) N M ( } :.[ T p i 6 6 u.i.z.b.b.{ ) ^ ] ` ( M M ( ] } } ) W v j j k R %.+.1.#.$.[ ! ` :.d.f.D D C q f W ",
"_ { / ( ` &.4.r.,.} ] ] / W ( } :.$.E D A J k.k.z.v.z.z.b.M n b f r r j n E #.:.` R f k.i.t f H 1.s.e.3.E k n 3.,.&.T D p f R { ",
"{ ] Q R D ! +.1.3.:.[ ] ` [ [ z.x.b.b.x.x.v.b.m.m.m.x.x.m.d g g w w p f b j.x.v.z.z.b.k.k.x.l.H ~ %.#.3.3.%.:.;._ ( [ T z ^ } } ",
";.&.E D f a A H ~ O.b.b.z.k.k.k.x.m.b.x.b.m.m.m.m.m.m.c.h.h.i i 0 y i.k.x.z.x.b.v.z.k.j.x.c.h.I ! E ! %.5.5.f.r.} ] [ [ ] } >.} ",
"r.3.Q f 0 9 9 w f h.m.m.m.v.z.b.m.m.m.m.m.m.m.m.m.m.m.b.s.| 6 B 0 i.z.m.m.m.m.m.m.v.z.v.b.1.+.A F g R Q ' :.3.0.} ] =.=.>.,.w.w.",
"d.:.T w 0 4 : 9 5.5.b.m.m.m.m.m.m.m.m.m.b.m.c.h.c.m.m.p.+.L 5 i k.x.m.m.m.m.m.m.m.m.m.b.1.I F a B B g D I ' ] ) { } { } ,.r.r.d.",
"d.$.b p y 3 : @ I O.f.d.h.m.m.m.m.c.l.h.f.d.3.2.2.h.a.O.U U i f.m.m.m.m.b.v.m.m.m.m.c.1.I O : 5 B B C C F I E ) } ;.} } 0.r.r.d.",
"w.Q b p 0 O # + 0 I O.:.:.r.h.h.f.r.r.r.e.#.$.%.5.| U F A I ~ c.m.m.m.v.h.l.b.m.b.h.s.$.g O o > 6 8 B i i S ' #.&.$.,.r.r.w.w.t.",
">.` f w # O O @ y u f k n :.3.r.w.w.r.&.[ [ ] } #.1.<.%.` [ %.e.b.m.h.d.r.0.;.7.w.w.r.$.g O > < 2 6 i i C L ..#.%.$.:.r.d.w.0.6.",
",.! g w 0 3 O : 0 p t v m ` $.[ =.>.;.} [ 4.r.w.r.r.r.3.$.&.f.f.3.c.r.3.$.} =.;.7./ ' T w 4 5 1 1 B D F F I | O.' &.#.3.w.0.0.w.",
":.R f p y 3 3 3 0 t f b E [ $.} { } ;.} ;.7.4.w.w.0.>.;.:.r.d.3.` ` :.[ [ ] { ( _ ) [ ! f u i 6 V P U I ! ` E R E ` &.:.3.4.r.r.",
"$.R f w 0 3 3 0 w g E ' [ ] ] m.m.{ { ;.} { m.m.m.>.} ( ;.t.r.` E D R b v k j M ( ( [ v.k.k.k.j.U +.O.j.i.E R ! ' ` ' #.<.1.1.#.",
"| U D t t 9 9 p D I O.$.[ _ m.m.m.m.m.m.m.m.m.m.m.m.m.{ } ,.$.) b g g f t r h v W ( m.m.b.b.b.v.v.x.k.j.i.j.x.' ' ! ! O.I I U U ",
"Z P J I D Y g D ! [ [ [ { b.m.m.m.m.m.m.m.m.m.m.h.l.b.) ) ( ) ] R f d j % $ q t m m.m.b.m.m.m.m.m.b.x.b.b.b.b.! E E E I D p i V ",
"6 V K  . .+.#.O.[ ] ) ] r.d.m.m.m.m.m.m.m.m.m.m.d.d.d.( m n n ` ! v j r $ # $ r b l.l.l.h.m.m.m.m.m.m.m.m.h.d.R R T R F L S 8 5 ",
"1 6 L  .2.p.2.1.O.! W ^ 0.d.l.5.5.f.s.h.m.b.s.s.1.1.f./ R f f b R v k q $ # # t W ] h.l.h.h.l.d.e.r.r.r.r.3.r.g D g g g V Z 7 1 ",
"= 5 i U +.<.<.%.! E T / [ l.t.&.' %.1.2.s.1.O.#.' ' ' / T p w f f f f r $ # # r R { } ;.h.h.l.e.3.e.5.1.r.f p a a u a a i 5 - X ",
"* 5 F ! ` O.| I F H I ` ` } } ] / D O.! H T d ! ' ' ` R R f r p t d b f r % % y.j.) { ;.} m E ! h.h.e.0.9 0 6 y u a C i y 3 X X ",
"1 y G Q W E F A B F I ' ` ] ` ] ] E R g w r r E $.O.$.) W f p p t k ! ' k.u.9.y.j.k.x.x.k.i.j.k.j.u.8.8.y.z.5 0 w C C y y 4 > < ",
"4 w b b b D D a a A U ~ W R Y b R E [ ! g f k W ,.,.=.{ / m v b v m k.x.x.z.k.x.v.v.v.x.v.v.z.k.j.y.9.8.y.i.z.$ p D D C g a y 5 ",
"$ q d t w a a a A H O.O.m v f r t D ! ! T R n ) 7.,.} { ) ^ / / ^ k.v.b.b.b.m.m.m.m.m.m.m.m.m.m.m.x.k.j.i.z.m.t m / ! E R b t r ",
"% e 9 # 9 0 w w R ' #.$.W b t q 9 p G E Q ! ` =.7.>.=.;.=.} } _ m.m.m.m.m.v.b.m.m.m.m.m.m.m.m.m.m.m.m.m.m.m.m.m.=.&.$.[ ` R k j ",
"j 0 : o o : 9 r ( ;.:.` E b r 0 y u f b R ] &.w.r.w.r.d.r.,.>.h.0.r.f.h.h.h.b.m.m.m.m.b.c.b.m.m.m.m.m.m.m.m.m.h.7.>.>.,.;.] ( l ",
"k *     . : 0 z } 0.=.E E v f p u p f i.y.k.4.d.d.d.d.t.>.=.=.=.t.r.f.h.f.c.m.m.m.m.h.d.d.h.b.m.m.m.m.m.m.c.f.r.{ ) { ;.=.{ _ x ",
"_ , & , 5 i f N ,.w.] R E R b f m.m.x.i.i.z.b.m.b.m.m.b.i.z.v.;.} } } 7.>.h.s.s.f.5.#.:.:.f.b.b.h.v.b.b.c.h.r.r.} _ ( ( M c c >.",
"} g i V A I ` ) ;.,.] R E E R m.m.m.b.v.b.m.m.m.b.b.b.m.v.v.b.] ( ( } w.3.2.2.2.2.U P ' $.l.h.f.0.0.w.0.d.h.6.} 0.=.( ( M ^ ( } ",
"{ W D F R [ =.} ] } ] W R R h.b.b.b.b.m.m.b.v.m.m.m.m.m.m.m.m.m.( ^ =.%.2. .<.1 > 5 C b 3.c.d.r.6.6.7.7.r.l.j.k.z.! n n n n N _ ",
"{ ( ` ` N ] [ ] ] { } [ ` ` d.h.c.h.h.c.b.v.z.c.m.m.b.b.h.h.c.b.] ( =.+.J 5 - < j.u.t.D b m [ &.=._ } =.] z.k.z.m.m.b.r j k N } ",
"=.] $.$.[ &.} ) } ,.w.w.7.=.0.d.h.d.d.l.h.b.b.b.b.c.h.d.d.d.f.h.{ } 4.m.m.k.i.j.j.j.k.v.m.R [ ,.>.} { &.m.b.b.m.m.m.f.q t n / ;.",
"w.,.0.4.;.>.} _ } ,.0.0.7.=.4.:.3.#.r.r.h.c.c.c.h.h.h.d.r.5.3.d.( ;.m.m.c.k.k.x.b.m.m.m.m.` &.7.,.{ ) m.c.h.m.c.s.2.+.q d R ] 0.",
"t.r.0.,.;.} } } } [ ] ) } $.O.%.! ` O.#.2.f.s.s.5.1.' ! y w t m ^ b.l.d.d.h.m.m.m.b.m.m.d.[ [ ;.=.] m.b.s.2.s.o.J B 3 p W } >.r.",
"r.,.} { { _ { z.x.m.m.m.b.E ' ' H E ! ! O.1.1.3.%.O.E I a 9 f m ( ;.t.r.d.h.m.m.h.d.h.d.r.( ) } &.[ T h.+. .J V J P F ` } } =.0.",
"` ( M M ( ] m.b.m.m.m.m.c.h.c.! U U I f ' %.' ` $.$.D D C q f W ( =.=.7.r.d.h.l.d.r.w.;.N M ( } :.[ T p i 7 6 5 i I $.[ { ) ^ ] ",
"f r r j n b.b.m.c.b.m.b.h.c.c.H O.1.1.$.$./ ` [ ] E T D p f R { _ { / ( ` &.4.h.t.w.,.] / W ( } :.$.E D A J L I E ` / N N M n b ",
"w w p f &.&.d.h.s.s.r.1.5.h.h.H ~ %.#.3.3.%.:.;._ ( [ T z ^ } } { ] Q R D ! +.1.3.:.[ ] ` [ [ ] [ [ ! ! ! ' ' ` E R f d k t g g ",
"0 y a g R &.:.5.3.' I H O.2.1.I ! E ! %.5.5.f.r.} ] [ [ ] } >.} ;.&.E z.z.k.x.v.l.O.1.:./ [ [ ( ( ] ] ` E [ &.` v d r $ 0 y i i ",
"0 w D E W ( ] } O.I F A w 0 u A F g R Q ' :.,.7.} ] =.=.>.,.w.b.v.v.z.j.i.i.x.m.m.m.m.m.x.z.k.i.j.] / m m ` O.O.g w 9 3 4 > 6 B ",
"w g ' $.] ( ) ` ` H A a 0 9 0 d.k.x.z.j.! ' ] ) { } { } ,.r.m.m.m.b.z.x.x.b.m.m.m.m.m.m.b.v.v.z.x.m.h.m m E ' | H w y 5 4 > 5 i ",
"b $.:.=.) ^ ( { $.$.! g 0 O h.b.x.z.j.j.k.z./ ) } ;.} } 0.b.m.m.m.m.b.m.m.m.m.m.m.m.m.m.m.m.m.m.m.m.d.Q W b ! X.U A a a y i i w ",
"3.r.;.} ] _ ) } } ] ` D 9 m.m.m.m.z.k.x.z.z.' %.&.$.,.r.r.d.d.h.c.h.h.h.e.f.m.m.m.b.m.m.m.m.m.m.b.h.0.[ ' R E ' O.| U F A I ~ ` ",
"s.r.} ] ] { ) } ] ( / D h.c.m.m.m.x.z.b.m.b.m.#.%.$.:.5.d.w.d.d.r.#.e.1.I F I 1.s.h.h.r.0.d.c.h.d.t.;.&.[ [ ] } #.1.<.%.` [ %.r.",
"3.:.] ` ` ) ) { { / ' T %.<.s.b.m.b.x.b.m.m.m.O.' &.#.3.w.0.0.w.:.! g w D y y L +.3.:.` ] $.3.[ =.>.;.} [ 4.r.w.r.r.r.3.$.&.f.f.",
"` ` E R W R k.i.k.b.m.h.O.' 1.p.m.m.m.m.b.m.m.b.E ` &.:.3.4.r.r.:.R f p y 4 3 3 0 t f b E [ $.} { } ;.} =.0.,.0.w.0.>.;.:.r.d.3.",
"E D R b d.b.b.k.z.m.m.m.s.#.+.a.h.c.m.m.l.h.m.c.b.b.' #.<.1.1.#.z.i.i.w 0 3 3 0 w g E ' [ ] ] } =.{ { ;.} { ( { ;.>.} ( ;.t.r.` ",
"b g g f.3.f.m.m.m.m.m.m.m.c.f.h.h.h.h.b.l.d.m.c.c.c.! O.I I U x.x.x.z.x.z.9 9 p D I O.$.[ _ _ $.&.[ [ $.[ ^ ( } ;.0.>.{ } ,.$.) ",
"R f @.e.3.f.h.r.h.m.m.m.m.m.m.m.m.h.d.d.f.d.d.s.r.3.E I D p j.x.m.m.m.m.m.m.m.D ! [ [ [ { ] [ ' ' ' ' ` E ) _ ;.7.w.7.) ) ( ] [ ",
"! f j :.5.5.1.#.e.l.l.l.h.c.c.b.h.h.d.0.:.#.$.` ' O.R F L S k.z.m.m.m.m.m.m.m.O.[ ] ) ] { } v.v.z.x.H g g / [ %.1.3.=.( m n n ` ",
"R v / ` O.' I $.w.t.d.f.l.l.h.f.r.f.d.r.3.O.[ ' D g g g V c.v.b.m.b.s.c.m.m.m.1.O.! W ^ { m.m.b.k.j.k.z.D ! ! v.b.b.[ / R f f b ",
"f f f b f D D E $.w.t.d.f.d.h.f.f.c.b.h.h.r.5.a a y a C 2.1.p.m.m.<.+.a.h.<.<.%.! T R / m.m.m.m.x.z.z.x.v.b.b.m.m.m.m.h.T p w f ",
"t d b f r % % r N ) h.c.c.l.c.m.m.m.m.m.c.2.2.y u a C | O.F S p.s.o.O.1.s.O.| I F H I d.h.m.m.m.m.m.m.m.m.m.m.m.m.h.w.$.R f r p ",
"t k ! ' ! v s c.h.v.m.m.m.m.m.m.m.m.m.c.5.<.5 0 w C C y L C S p.2.+.O.3.W E F A V F I s.h.b.b.m.m.b.m.m.m.c.c.h.e.e.w.,.W f p p ",
"v m ! O.#.$./ c.l.l.b.m.m.m.m.m.m.m.b.1.U +.0 $ p D F C g a y 5 4 w b b b D D a a A U ~ 3.r.r.r.d.h.0.1.1.%.:.4.t.4.=.{ / m v b ",
"N m / ` :.#.:.h.h.c.v.c.b.m.m.b.h.f.d.#.a w q t m ` ! E R b t r $ q d t w a a a A H O.O.m v f r t D ! ! T R n ) 7.,.} { ) ^ / / ",
"( _ ] =.>.>.,.0.h.h.d.h.d.d.d.t.r.f.l.f.$.[ [ $.=.&.$.[ ` R k j % e 9 # 9 0 w w R ' #.$.W b t q 9 p G E Q ! ` =.7.>.=.;.=.} } _ ",
"_ } =.>.} { ;.:.3.1.O.r.r.d.t.0.w.f.e.w.w.w.7.7.7.>.>.,.;.] ( l j 0 : o o : 9 r ( ;.:.` E b r 0 y u f b R ] &.w.r.w.r.d.r.,.>.] ",
";.=.=.=.) ( ' +.%.' ` / ] >.7.} ;.w.e.t.4.;.} { { ) { ;.=.{ _ x k *     . : 0 z } 0.=.E E v f p u p f z M ] 4.d.d.d.d.t.>.=.=.=."
};
