/* XPM */
static const char *coralred[] = {
/* columns rows colors chars-per-pixel */
"64 64 191 2 ",
"   c #2D247F",
".  c #32247E",
"X  c #3B257C",
"o  c #4F2677",
"O  c #41257A",
"+  c #4C277C",
"@  c #532675",
"#  c #5B2773",
"$  c #5C2876",
"%  c #532779",
"&  c #53297D",
"*  c #5B2A7D",
"=  c #64276F",
"-  c #71286D",
";  c #632975",
":  c #6D2A76",
">  c #652A7A",
",  c #6C2C7C",
"<  c #762B72",
"1  c #7D2C73",
"2  c #742D7D",
"3  c #7C2F7A",
"4  c #7A317E",
"5  c #810338",
"6  c #B50450",
"7  c #8D2A65",
"8  c #872C6E",
"9  c #8B2C6E",
"0  c #942D6C",
"q  c #9D2E6D",
"w  c #822D74",
"e  c #8D2E75",
"r  c #832E7A",
"t  c #922E75",
"y  c #8E3077",
"u  c #84317F",
"i  c #8C317D",
"p  c #933076",
"a  c #9A3173",
"s  c #92327A",
"d  c #99337E",
"f  c #A12C65",
"g  c #A52F69",
"h  c #A0306F",
"j  c #A43275",
"k  c #A83374",
"l  c #A43378",
"z  c #1B2385",
"x  c #232486",
"c  c #2A2586",
"v  c #252389",
"b  c #2C2688",
"n  c #2D298C",
"m  c #332684",
"M  c #3B2783",
"N  c #3B2886",
"B  c #31278A",
"V  c #3C278F",
"C  c #35288A",
"Z  c #3C298B",
"A  c #3D2693",
"S  c #3D3092",
"D  c #4D2783",
"F  c #442984",
"G  c #4C2A85",
"H  c #4C278F",
"J  c #432B8C",
"K  c #4B2C8D",
"L  c #542B84",
"P  c #5B2B84",
"I  c #532D8D",
"U  c #5C2E8B",
"Y  c #50318D",
"T  c #5D318D",
"R  c #432794",
"E  c #432B92",
"W  c #4B2B92",
"Q  c #452698",
"!  c #4C279A",
"~  c #542E91",
"^  c #5A2E92",
"/  c #53299A",
"(  c #5B2C99",
")  c #433194",
"_  c #4C3194",
"`  c #4A3499",
"'  c #4F389B",
"]  c #543193",
"[  c #5C3091",
"{  c #5C3092",
"}  c #553599",
"|  c #58399C",
" . c #632D82",
".. c #612D85",
"X. c #632E84",
"o. c #6B2E82",
"O. c #6C2F87",
"+. c #622E8C",
"@. c #6A2B8E",
"#. c #722E81",
"$. c #742E82",
"%. c #7A2E83",
"&. c #722B8B",
"*. c #653187",
"=. c #64318C",
"-. c #6A308B",
";. c #6C318B",
":. c #6C328C",
">. c #733185",
",. c #7D3184",
"<. c #74338C",
"1. c #7C338C",
"2. c #642E96",
"3. c #6D2D93",
"4. c #632E99",
"5. c #692F9B",
"6. c #712B97",
"7. c #702F9F",
"8. c #623192",
"9. c #643293",
"0. c #6B3394",
"q. c #6C3394",
"w. c #6E3495",
"e. c #653895",
"r. c #6C3894",
"t. c #64379D",
"y. c #6C309C",
"u. c #673A9B",
"i. c #6C3A9B",
"p. c #723493",
"a. c #703495",
"s. c #753595",
"d. c #7A3490",
"f. c #7B3594",
"g. c #743995",
"h. c #793890",
"j. c #71349A",
"k. c #7D3699",
"l. c #77399D",
"z. c #79389A",
"x. c #6733A6",
"c. c #6C34A4",
"v. c #653CA3",
"b. c #6938A2",
"n. c #7C3CA3",
"m. c #7E3BA8",
"M. c #7444A6",
"N. c #7A43A3",
"B. c #7344A9",
"V. c #852D8F",
"C. c #962F8A",
"Z. c #833486",
"A. c #8C3282",
"S. c #8C3383",
"D. c #8D3385",
"F. c #84358B",
"G. c #8B358D",
"H. c #803889",
"J. c #8D398B",
"K. c #933483",
"L. c #9B3683",
"P. c #913886",
"I. c #98378D",
"U. c #9D3C89",
"Y. c #8C2F93",
"T. c #823592",
"R. c #893691",
"E. c #833993",
"W. c #8F3D94",
"Q. c #833899",
"!. c #853C9B",
"~. c #8A3D9A",
"^. c #953691",
"/. c #9A3792",
"(. c #9C3B93",
"). c #9C3B9B",
"_. c #A03581",
"`. c #A03982",
"'. c #A43B8A",
"]. c #AF3B88",
"[. c #8A37A4",
"{. c #813CA2",
"}. c #8E3DA3",
"|. c #8637AD",
" X c #82419E",
".X c #97439A",
"XX c #8745A7",
"oX c #8841A4",
"OX c #8941A9",
"+X c #884CAE",
"@X c #9A40AF",
/* pixels */
"z z z z z z z z z z z z x z z z z z z z z v z z z z z z z z z z z z z z z z z z z z z z z z z z z z z z z z z z z z z z z z z z ",
"z z z z z z z z z z z z c z z z z z z z x b z z z z z z z z z z z z z z z z z z z z z z z x z z z z z z z z z z z z z z z z z z ",
"z z z z v z z z z z z z v x C x c v z z x x c K c B z z z z z z z x x z z z v z z z z z z x z z z z z z z z z z z z z z z z z z ",
"z z z z v z x z z z z z c 6 Z v c Z z v v 6 6 X   x J z z z z z z x x x x z C z c z x z z x x . x x z z z z z z z z z z z z z z ",
"z z z z z v R b b z z v 6 6 6 6 v Z C J 6 6 6 6 x . m z z z z z z z v Z C v C c G b O z x x O . x c   z z z z z z z z z z z z z ",
"z z z z v Q v x B A b b z 6 6 6 6 [ U 6 6 6 d.F 6 6 x z z z x x b x Z 6 6 z b [ 6 6 6 G @ . O z z x . z z z z z z z z z z z z z ",
"z z z 6 v x v J C v v Z v w.b 6 6 6 G 6 6 6 6 6 6 6 6 c z x v v F v 6 6 6 B v 6 6 6 6 %.& @ O X z z z z z c z z z z z z z z z z ",
"z z 6 6 6 6 R 6 C v z J b [ Z Z 6 6 I N 3 6 6 6 6 6 L M M x x B 6 6 6 6 G I m 6 6 L G o.m L ; X . z z z z v z v z x z z z z z z ",
"z z z 6 6 6 6 6 6 W V b v 8.K 6 6 6 -.> ..6 6 $ 6 6 m Z L 6 6 6 6 6 6 6 :.P Z 6 6 w ;.o x m  .x   v z 6 6 z B J v b x z z z z z ",
"z z z v 6 6 6 6 8.Z b B K ^ Z 6 6 P G 6 6 6 6 > 6 6 P M 6 6 6 6 6 P Z J K ..6 6 6 q 1 7 O X x z z c 6 6 6 6 K z z z Z z z z z z ",
"z z B 6 6 6 6 J B B C v B C 6 6 6 K 6 6 6 6 6 6 6 6 ..+.6 6 I U J P N 6 6 6 6 6 6 6 6 6 > # z z z z 6 6 J C c x z z x z z z z z ",
"z z z z 6 6 6 6 E v c b I 6 6 6 6 C 6 6 6 6 6 6 6 6 A.O.6 6 6 R.A.j 6 6 6 6 6 6 6 6 6 6 0.L C z z z 6 6 x b f.v b z z z z z z z ",
"z z z x [ 6 6 6 6 ~ J 8.K 6 6 6 6 6 6 6 L # 6 6 6 6 e * L 6 6 , <.r 6 6 <.#.#.6 6 9 P o.L Z C B J 6 6 6 B J 9.v K v z z z z z z ",
"z z z z x z J B Z J K J K K 6 6 6 6 6 ,.< > e < 6 6 A...>.6 6 P P 6 6 6 o.p i 6 6 6 6 6 6 6 6 6 6 6 6 6 C b z z c v z z z z z z ",
"z z z z b x B v Z v b K C [ I ~ J 6 6 6  .D.0 p 6 6 6 6 6 6 6 : 6 6 5 6 F y w 1.Z.6 6 6 6 6 6 6 6 6 6 6 6 Z c b x z z z z z z z ",
"z z z z z z ~ B K v v q.[ ^ K ^ v 6 6 6 P p f - 9 6 6 6 6 6 D.6 6 5 5 5 5 5 * 6 6 6 6 6 6 6 I ~ [ K J 6 6 ^ B Z 6 6 v z z z z z ",
"z z z z z x K Z a.b C 8.v c b Q.v 6 6 * * ,.3 t 1 , > -.6 6 6 6 6 6 5 5 5 5 6 6 6 6 6 p.6 6 K w.K K b K J J c 6 6 6 6 b v z z z ",
"z z z z z z z v J I [ C Z x J K v 6 6 L ..T., k 6 6 , 6 6 5 5 6 6 6 6 6 , 6 6 6 ,.p i P 6 6 Z 0.J [ c B b x x x J 6 6 6 K B v z ",
"z z z z z z z z v [ J [ Z K Z B 6 6 6 Z L U =.1.6 6 6 6 6 5 5 5 2 w 6 6 6 6 6 5 5 5 5 5 6 6 J [ C 8.v K Z c Z x v 6 6 6 6 x b b ",
"z z z v z z x Z 6 J Z 0.C [ v z 6 6 6 Z 5 5 5 ..6 6 6 6 6 6 5 5 5 6 6 6 J.5 5 5 5 5 5 5 5 6 6 0.Z ^ c Z B v v v ~ 6 6 c x z x x ",
"z z z v z v z 6 6 6 B Z J 6 J v W 6 6 [ 5 5 5 5 6 6 6 I.D.6 6 5 6 6 6 6 5 5 5 5 P.d.d.5 5 6 6 6 z b b z z z z b K 6 6 6 x z z z ",
"z z z z B A v B 6 6 6 0.6 6 6 6 J 6 6 5.^ 0.5 5 5 6 d 1 e p 6 6 6 l p 6 5 5 6 6 6 6 *.=.~ J Z Z x z z z z x z z c I 6 6 6 b z z ",
"z z x z R v z z / 6 6 ^ / 6 6 6 6 6 6 B J 8.f.5 5 6 6 6 6 6 6 6 5 5 5 5 6 6 6 6 6 6 6 U K K G v v x z z z c z x ^ z x x K z z z ",
"z z b z b b Z J ~ 6 6 y.( 4.A 6 6 6 6 ^ 0.8.=.5 5 6 5 5 6 6 6 5 5 5 5 5 5 6 6 ;.~.6 6 <., U P N Z v x z z x Z C v B z z x z z z ",
"z z z z ! Z ~ J B 6 6 k.~ [.6 6 6 6 6 6 9.w.-.s.6 6 5 5 5 k 6 6 6 A.L.6 6 6 6 5 5 6 6 6 6 6 6 6 J b K J b c J C ^ v C z z z z z ",
"z z z v / B ( W [ 6 6 6 6 6 6 6 c.m.6 6 j.w.6 6 6 6 6 5 5 8 6 6 6 6 6 6 6 p 5 5 5 5 6 6 6 6 6 6 6 K J C v B K 6 6 x ~ z z z z z ",
"z z z x x 6 6 Z k.6 6 6 6 6 6 6 6 oX6 6 [ 6 5 5 6 6 6 5 5 5 D.6 6 6 6 6 ].U.A.6 5 5 5 s U ;.[ ~ I Z Z 6 B x Z 6 6 z z z z z z z ",
"z z z v 6 6 6 6 6 6 6 6 6 x.c.6 6 }.6 6 6 6 5 5 I 6 6 6 5 5 5 6 6 a 6 5 5 5 P.6 6 5 5 6 6 6 6 =.B I 6 6 6 6 6 6 6 z z z z z z z ",
"z z z z z J 6 6 6 6 6 6 w.v.6 6 6 n.6 6 6 6 5 5 6 6 6 6 r A.6 6 _.K.5 5 5 6 6 6 6 r.6 6 6 6 6 6 G 0.[ 6 6 6 6 6 C z z z z z z z ",
"z z z z z K K Z 0.Z [ B J } 6 6 {.|.6 6 6 6 5 5 6 6 6 6 6 #.6 6 6 F.5 5 g 6 6 6 6 6 .Xq.g.K ^ 0.J K J Z 6 6 ~ J Z v z z z z z z ",
"z z z z z z z J C x z z x J 6 6 6 j.^.6 6 6 5 5 5 L 6 6 6 6 6 6 6 5 5 5 6 6 6 6 6 6 6 *.g.Z Z J J [ J K 6 6 c B J Z x z z z z z ",
"z z z z z z z K K K C c C J i.} 9./.6 6 6 6 5 5 5 5 6 6 6 6 6 6 q 5 5 W.(.'.6 5 5 6 6 6 6 G G b z K ~ 6 6 6 B v x x z z z z z z ",
"z z z z z z z z J C c b J B Z q.}.6 6 6 6 1.6 6 6 ..6 6 <.f.6 6 6 5 5 5 5 ~.6 5 5 5 6 6 6 6 c . Z C x 6 6 6 J b z z z z z z z z ",
"z z z z z z v z Z x v v J C ) u.6 6 6 6 6 E.J.6 6 <.6 6 6 6 6 6 6 6 6 5 5 5 6 6 5 5 5 <.<.K c X G J Z 6 6 6 6 I Z v v z z z z z ",
"z z z z z z C z Z x v x 6 6 6 6 6 6 6 6 6 L.L.'.F.h.=.6 6 6 6 K (.K.A.6 5 6 6 6 Q. XU.H.>.L G F x z z z z z 6 Z x z b b z z z z ",
"z z z z z z c z 9.x 6 6 6 6 6 6 6 6 6 6 6 a K.R.u L F 1.0.6 6 K !.Z ~ f.'.T.6 6 6 !.E.8 =.T K P b v x z v 6 6 6 c z x x z z z z ",
"z z z z z z z B 0.6 6 6 6 ] ] [ B.n.6 6 6 6 D.L.6 6 G L U >.U F J v K C I 8.h 6 6 6 Z.4 P 6 6 6 z x Z z 6 6 6 C c z z z z z z z ",
"z z z z v z z [ b 6 6 [ J C C z.M.OX).@X6 6 6 `.6 6 6 M $ + b m G.b ~ 6 K L q  .4 J.!.u 6 6 6 6 6 x v b 6 6 J J m M O c c z z z ",
"z z z z x C v Z C 6 6 6 Z ~ ~ t.v.b.l.{.p Z.2 3 r 6 6 6 2 * M C F.B 6 6 6 x C L u.!.e.4 Y 6 6 x C n x v 6 6 J J M % x z x X z z ",
"z z z z z 6 6 6 6 6 6 6 6 9.9.W E ` _ XX3 3 2 < N + 6 6 6 X F Z 5 6 6 6 C v ~ J I u T T B 6 6 ) E n x Z 6 6 6 6 b M m z z x z z ",
"z z z x 6 6 6 6 6 6 6 6 6 6 Z b C x.E m. .4 +.& U 9 M 6 6 6 6 5 5 5 6 6 Z v Z v m , F X Z 6 6 6 C C ) K 6 6 6 6 6 6 6 x z z z z ",
"z z z b x v C B 6 6 w.Z 6 6 [ Z b E v b x x   = G 6 6 6 6 6 6 6 5 5 5 6 6 6 6 6 b B v n ` 6 6 6 B Z ] 6 6 6 Z 6 6 6 6 6 z z z z ",
"z z z z z K b v 6 6 8.K 6 6 K C v v z z z z M @ 6 6 6 6 6 6 6 6 6 6 6 6 6 6 6 c b W K _ 6 6 6 6 6 6 6 6 6 0.+.Z b . z x z z z z ",
"z z z z x K Z Z 6 6 9.K 6 6 6 C z z z z z z C B 6 6 > > > 6 6 L * J L 6 6 6 C n | 9.i.} 6 6 6 6 6 6 6 6 6 i s.0.~ C x z z z z z ",
"z z z z z z x x 6 6 0.B 6 6 6 6 z z z z z z v z 6 6 P U t 6 6 , P s.^ ^ 6 6 6 6 J Z ' 6 6 6 6 6 6 6 g.6 6 6 d., J J J x z z z z ",
"z z z z z z z 6 6 6 Z [ v v z z z z z z z z x B 6 6 @.%.f 6 6 6 &.<.P s.~ 6 6 6 6 6 6 6 6 6 M.e.1.q.=.2 6 6 6 6 6 Z Z v v z z z ",
"z z z z z c x C v x b [ v C z z z z z z z z v K Z D G $.6 6 6 6 D.T.L I ^ k.K 6 6 6 6 6 M.u.N.e.h.r.<.$.2 6 6 6 6 6 B x c b z z ",
"z z z z z v z B b c z z z z z z z z z z z c v Z v L @.6 6 6 6 6 6 G.P 6 6 6 5 6 6 6 6 6 B.M.+Xi.=.T F...,.f.s.+.P Z z z x b z z ",
"z z z z z z z I B C v x z z z z z z z z z v b C J 6 6 6 6 6 6 6 6 6 6 6 6 5 5 5 5 5 6 6 6 6 6 6 6 6 6 * & G m Z v C x z z z z z ",
"z z z z z z z Z b C Z C B v x z z v z z z z J ^ 6 6 6 6 6 6 6 6 6 6 6 6 k.[ 5 5 5 5 5 6 6 6 6 6 6 6 6 6 ;   . x B I x b z z z z ",
"z z z z z z z v b Z C z v b b z z c z z z z Z ^ 6 6 6 d.+.6 6 Y.6 6 3.2.q.8.~ J J 5 5 B b _ 6 6 6 6 6 J ..c   x v J c b z z z z ",
"z z z z z z z v B C Z b C C Z c v b v J v Z b ~ 6 6 6 C.&.6 6 6 6 6 6 6 6 N G K ~ J C v z z n 6 6 6 6 6 v I v z v Z C v c z z z ",
"z z z z z z z z B ( ( V W ( J c 6 6 ~ v x Z J 6 6 6 6.V.3.1.6 6 6 6 6 6 6 6 F L J b v z z v z W ' C 6 6 z b v x C C z z b b z z ",
"z z z z z z x v B ( W Z 6 ( ^ 4.6 6 6 6 6 6 6 6 ~ ^ I I J 6 6 6 2 U G $.6 6 z . x z z z z v z n S 8.Z c z z c v x b x z z z z z ",
"z z z z z z x B b B v 6 6 6 7.4.W 6 6 6 6 6 6 6 2.U / H / 6 6 D & X m * m m z z z z z z z z v J Z !.K I v z z z Z J x x z z z z ",
"z z z z z z z z Z ( C ( 6 6 6 4.^ 6 6 6 5.W ( 4.( W @.P H 6 6 6 6 z x = . . x 6 6 6 6 z x z K v x C I C c z z z Z J C J x v z z ",
"z z z z z z z z B / A W R 6 6 9.6 6 6 ~ 0.j.6 6 6 ^ L X c 6 6 6 6 6 O X x   z 6 6 6 6 6 Z x z x x v J C v c z z z z J C x v B z ",
"z z z z z z z z z z z E E 6 6 6 6 6 6 6 6 6 6 6 6 6 Z B z x v @ 6 6 x z z z z z z 6 6 6 x v ^ B b C C z z b b z v z Z x z z C z ",
"z z z z z z z z z z x R ( 4.6 6 6 6 6 6 6 6 6 8.6 6 6 v z z z X x   z z z z z z 6 6 6 6 v J 0.J I Z v x z z z z c z Z x x z z z ",
"z z z z z z z z z z b v B q.B 6 6 6 6 6 6 6 q.v Z K 0.B b z z z z z z z z z z 6 6 6 6 6 x C z z x K Z x x z z z z z [ x C z z z ",
"z z z z z z z z z z z z K Z 6 6 6 ^ ~ 6 6 6 6 b v x c x z z z z z z z z z z z 6 6 z 6 6 6 C x z z Z Z b v z z z z z J z B z z z ",
"z z z z z z z z z z z x K 6 6 6 Z 9.B 6 6 6 s.B C z z z z z z z z z z z z z z z z z 6 6 6 6 x b z z z z z z z z z z z z z z z z ",
"z z z z z z z z z z z z z z z B Z ~.B 6 6 C f.c K z z z z z z z z z z z z z z z z z z z v Z x v z z z z z z z z z z z z z z z z ",
"z z z z z z z z z z z z z z z z x ^ x Z z z z z z z z z z z z z z z z z z z z z z z z z z z z z z z z z z z z z z z z z z z z z "
};
