/* XPM */
static const char *coral_orange[] = {
/* columns rows colors chars-per-pixel */
"64 64 246 2 ",
"   c #583208",
".  c #6E3D0C",
"X  c #793E03",
"o  c #553439",
"O  c #6C3B26",
"+  c #683C3C",
"@  c #733E35",
"#  c #7C4501",
"$  c #7E4118",
"%  c #7C4329",
"&  c #6E413F",
"*  c #7B4437",
"=  c #73413D",
"-  c #1F1C59",
";  c #312757",
":  c #131965",
">  c #141B6C",
",  c #191C69",
"<  c #161D74",
"1  c #191E73",
"2  c #171F7A",
"3  c #181F7B",
"4  c #211F60",
"5  c #1B2179",
"6  c #19217D",
"7  c #2B2566",
"8  c #2C266C",
"9  c #362A67",
"0  c #3C2D64",
"q  c #342C6D",
"w  c #3C2E6C",
"e  c #3E336D",
"r  c #242475",
"t  c #292777",
"y  c #2E2973",
"u  c #23257B",
"i  c #2B2A7B",
"p  c #332B73",
"a  c #3A2E72",
"s  c #312C78",
"d  c #2E317F",
"f  c #393276",
"g  c #4D344A",
"h  c #583549",
"j  c #432E5C",
"k  c #49335A",
"l  c #4C345C",
"z  c #553855",
"x  c #5C3A55",
"c  c #53365B",
"v  c #553B5F",
"b  c #5B3A5A",
"n  c #663C47",
"m  c #633C53",
"M  c #693F53",
"N  c #633E58",
"B  c #412F62",
"V  c #453265",
"C  c #4B3463",
"Z  c #4B3765",
"A  c #433169",
"S  c #4C396C",
"D  c #543B66",
"F  c #423673",
"G  c #483B75",
"H  c #513F72",
"J  c #5A445E",
"K  c #6C444A",
"L  c #774745",
"P  c #72444C",
"I  c #7A464A",
"U  c #7A524B",
"Y  c #6C4254",
"T  c #6A455C",
"R  c #764B57",
"E  c #775255",
"W  c #59436C",
"Q  c #514378",
"!  c #674A64",
"~  c #775F75",
"^  c #8D4B00",
"/  c #894807",
"(  c #964A01",
")  c #975505",
"_  c #914E15",
"`  c #994C18",
"'  c #A34E06",
"]  c #A45302",
"[  c #AC5302",
"{  c #A25B00",
"}  c #A85608",
"|  c #B35A02",
" . c #BB5B02",
".. c #B45708",
"X. c #BB5A0B",
"o. c #A14F1A",
"O. c #A3521C",
"+. c #AB5418",
"@. c #BB5C14",
"#. c #B65A19",
"$. c #9F6219",
"%. c #A66201",
"&. c #AC6500",
"*. c #B36301",
"=. c #BA6602",
"-. c #B76E0E",
";. c #864728",
":. c #974D27",
">. c #995427",
",. c #9C522C",
"<. c #8C4B33",
"1. c #844938",
"2. c #8B4C3C",
"3. c #934E36",
"4. c #865639",
"5. c #965337",
"6. c #9B5235",
"7. c #A45323",
"8. c #A3542B",
"9. c #AB5828",
"0. c #B35B25",
"q. c #B75E29",
"w. c #A25532",
"e. c #A55B39",
"r. c #B05F34",
"t. c #996435",
"y. c #B86723",
"u. c #BB7523",
"i. c #AE6A32",
"p. c #B86737",
"a. c #C35D04",
"s. c #CA5E03",
"d. c #C35D0B",
"f. c #C95E08",
"g. c #C25E16",
"h. c #C56301",
"j. c #CD6302",
"k. c #C76B07",
"l. c #CD6A02",
"z. c #C4630D",
"x. c #CB630B",
"c. c #D36402",
"v. c #DB6601",
"b. c #D46901",
"n. c #DB6A03",
"m. c #D3660C",
"M. c #D6680A",
"N. c #DD6A0C",
"B. c #C57605",
"V. c #CC7700",
"C. c #D87605",
"Z. c #C56512",
"A. c #CC6315",
"S. c #C5611A",
"D. c #CA641A",
"F. c #D36612",
"G. c #D56A15",
"H. c #DB6C13",
"J. c #D36C1A",
"K. c #D96F1B",
"L. c #CA781A",
"P. c #DB7418",
"I. c #DD721D",
"U. c #E46B03",
"Y. c #EB6E02",
"T. c #E36D0A",
"R. c #E86F08",
"E. c #ED7103",
"W. c #E77804",
"Q. c #E6720C",
"!. c #EB730B",
"~. c #F07101",
"^. c #F07606",
"/. c #E06F12",
"(. c #E47413",
"). c #EB7613",
"_. c #ED7915",
"`. c #E3751B",
"'. c #E67A1D",
"]. c #EC7C1C",
"[. c #F17A13",
"{. c #F17F1C",
"}. c #CA6A25",
"|. c #CD742B",
" X c #D9772A",
".X c #E47A22",
"XX c #E47C26",
"oX c #834B45",
"OX c #8A5548",
"+X c #945646",
"@X c #865556",
"#X c #A56349",
"$X c #895F65",
"%X c #CF830D",
"&X c #DC8200",
"*X c #D9840A",
"=X c #D58516",
"-X c #E48403",
";X c #E58807",
":X c #EC8B02",
">X c #EC8D09",
",X c #F08C02",
"<X c #F0920A",
"1X c #E88916",
"2X c #F08314",
"3X c #F2801C",
"4X c #EC9519",
"5X c #F09713",
"6X c #F19C1D",
"7X c #D38C2C",
"8X c #ED8123",
"9X c #EE862B",
"0X c #F18323",
"qX c #F0872D",
"wX c #EC9C26",
"eX c #F29F24",
"rX c #EB8732",
"tX c #EFA02C",
"yX c #F2A127",
"uX c #F2A22C",
"iX c #EEA336",
"pX c #F2A739",
"aX c #F1AD48",
"sX c #F4BA62",
"dX c #1B2384",
"fX c #1D2887",
"gX c #212682",
"hX c #222985",
"jX c #2C2E83",
"kX c #252C8A",
"lX c #282F8B",
"zX c #2D3486",
"xX c #2B328C",
"cX c #343787",
"vX c #333A8D",
"bX c #2F3690",
"nX c #343C92",
"mX c #383F93",
"MX c #3C4289",
"NX c #3C4295",
"BX c #3F4698",
"VX c #484483",
"CX c #454A97",
"ZX c #454C9B",
"AX c #545192",
"SX c #5056A1",
/* pixels */
"dXdXdXdXdXdXdXdXdXdXdXdXdXdXdXdXdXdXdXdXdXdXdXdXdXdXdXdXdXdXdXdXdXdXdXdXdXdXdXdXdXdXdXdXdXdXdXdXdXdXdXdXdXdXdXdXdXdXdXdXdXdXdXdX",
"dXdXdXdXdXdXdXdXdXdXdXdXdXdXdXdXdXdXdXdXdXdXdXdXdXdXdXdXdXdXdXdXdXdXdXdXdXdXdXdXdXdXdXdXdXdXdXdXdXdXhXnXbXnXhXdXdXdXdXdXdXdXdXdX",
"dXdXdXdXdXdXdXdXdXdXdXdXdXdXdXhXhXdXxXxXnXhXdXdXdXdXdXdXdXdXdXdXdXdXdXdXdXdXdXdXdXdXdXdXdXdXdXnXCXZXNXnXnXnXmXhXdXdXdXdXdXdXdXdX",
"dXdXdXdXdXnXnXdXkXdXdXdXdXdXdXhXxXxXkX3 2 zX6 dXdXdXdXdXdXdXdXlXhXhXkXxXkXdXxXkXhXhXnXdXdXdXnXnXxXkXnXnXfX6 zXfXdXdXdXdXdXdXdXdX",
"dXdXdXdXdXdXlXZXZXdXdXdXdXdX6 6 6 6 < 2 < 3 6 dXdXdXdXdXdXdXcXQ bXkXkXxXnXxXkXhXkXxXhXdXdXdXnX6 < 5 < 6 < < 2 dXdXdXdXdXdXdXdXdX",
"dXdXdXdXdXdXdXdXdXdXdXfXkXdX6 2 < 2 < < dXdXkXxXdXdXdXdXdXu R }.S 6 dX2 dXfXdXdXdXnXfXdXdX6 dX6 < 2 2 < 6 2 dXdXdXkXhXlXxXkXhXdX",
"dXdXdXdXdXdXdXdXdXdXu dXdXdXdX6 6 dX6 dXdXfXBXNXdXfXdXdXdXa q.(.c 2 6 5 6 6 dXdXdXdXdXdXdXdX6 6 dXdXdXdXdXdXdXdXkXxXhXkXxXlXnXnX",
"dXdXdXdXdXdXdXdXdXp 6.I u dXdXdXdXdXdXdXdXNXZXxXhXkXxXSXBXjXe.].R dXdXdXdXdXdXdXdXdXxXxXdXdXdXdXdXdXdXdXdXdXdXdXkX6 dXdX3 3 zXdX",
"dXdXdXdXdXdXdXdXw }.{.{.I 6 dXdXu dXgXN $X~ xXdXlXCX! f gXVX+X`.r.p dXdXdXu w u dXfXdXdXdXdXdXdXdXdXdXdXdXdXdXdX5 2 3 5 5 6 6 dX",
"dXdXdXdXdXdXdXw D.{.3X!.9.p dXi M 2.#XE.E.T.Z dXdXb R.9.8 q 9.}.|.w dX6 C 5.S.m u dXdXdXdXdXdXdXdXdXdXfXdXkXdXfXdX2 6 dXdXdXdXdX",
"dXdXdXdXdXdXu 2.Q.].3XJ.9.q dXe F.E.qX0X[.H.W zXxXv XXS.0 C G.XXF.A 6 x H.).J.C dXdXdXdXdXdXfXfXkXdXfXkXhXmXfXlXkXfXdXdXdXdXdXdX",
"dXdXdXdXdXdXt 8.m.XX.XD.F.K u 6 @Xj.E.9X8X'.b 5 zXF p.H.M I ].].F.V w S.].].2.6 dXdXdXdXdXdXdXdXdXfXxXxXkXzXV S u 6 dXdXdXdXdXdX",
"dXdXdXdXdXdXu + s.v.].^.Y.#.w dXhXY O.M.0XXXb 6 xXjX@X.X9.0._._.<.u y ;.J.K.k 6 3 p V p dXdXdXdXdXu w fXdXC H.G.l 6 dX6 dXdXdXdX",
"dXdXdXdXdXdXdXr + [ c.]._.M.C dXdXxXVX;.Y.E.0.p dXu @X_.5.8.D.m.C dX8 :.].O.4 < 8 8.}.r.p dXdXdXu M }.T gXoX].'.2.u dXdXdXdXdXdX",
"dXdXdXdXdXdXdX2 1 O  .c._.].4.dXdXfXfXn j.Y.D.F f f w.].p.G.F.:.8 < 7 :.(.a.j 2 k m.`.I.c dX2 < r L '..XY H.{.(.w.p dXdXdXdXdXdX",
"dXdXxXdXdX3 6 dX2 h [ [ U.Q.M.= 0 r 5 + F._.1XL.u.Q ! H.~.Y.c.` 9 2 9 >.(.c.m 8 :.N.p.M 1 < < 6 u 3.0X`.6.!.{.r.p gXw u dXdXdXdX",
"dXdXdX2 < < 2 6 2 5 n ..j.b.Y.U.z.<.l 7.(.2X6XuX5Xt.cXA.~.Y.X.h u dXj d.U.f.j 8 :.`.e.8 < 5 6 dXy g.{.Q.d.).(.N gXQ D.Y u dXdXdX",
"dXdXdX3 < < > < 1 B c Z.b.n.Y.~.Y.Q.G.J._._.>XtXaX1X@XN.Y.n.n u dXdXh c.U.j.B 0 @.K.z 5 6 dXu dXC m.8XN.o.Y.d.S CX@X_.#Xi dXdXdX",
"dXdXdXdX2 > > < z F.N.E.Q.)..X).Y.!.^.].rX}.>XpXsX5Xu.Y.Y. .X.A dXdXh v.v.<.r ;.Q.J.l kXhXZ Y zXw @.Y.Y.c.U.X.n D e._.D.e dXdXdX",
"dXdXdXdX3 > > 8 9.).[.0X{._.].(.s.U.Y.Y.'.=.V.4XpX<XC.U.c...M dXkXdXn v.v.h n c.).#.e zXR F.A.H s % j.F.Y.j.g.F.G. X_.2.u dXdXdX",
"dXdXdXdXdX2 6 p 6.D.T.E.R.z.k.h.| |  .j.n. .*.&X:X:Xh.n.7.0 6 dXdXfXW W.E.,.A.Y.(.R fXD T.R.oXkXdXj +.U.v.X.n.R.0X`.e.p dXdXdXdX",
"dXdXdXnXxXfXxXdXp w C K D Z L >.@.x.O.% |  .( ^ &X-X} 7.@.w dXdXdXdXU :X,XW.Y.Y.Z.k B 3.E.S.q dXq _ U.U.v...f.f.N.oXcXhXfXkXdXdX",
"dXdXdXnXnXdXfXkXdXdXdXdXdXdXu u w c p r 1. . .( { b.$ :.M.x dXu dXu OXwXyX,X^.Y...1.m.R.T.m 6 0 % x.x.j.v.#.oXN.9.f kXhXfXxXdXdX",
"dXdXdXhXfXdXdXdXdXdXdXdXdXdXdXs a i dXdX6 n z.x. .] O O.s.oXU OXt e =X6XeX<XW.n.j.N.R.E.M.0 9 ' c.x.Y 2.N.! 6 A p dXdXdXfXxXkXkX",
"dXdXdXdXdXdXdXdXdXdXdXdX6 S U 0.#.3.c x z * +.f.c.] ( c.c.;XtXwXU 6 J L.-XC.=.l.s.R.N.5.Z u _ j.v.= 6 u V dXdXdXdXdXdXdXdXfXkXkX",
"dXdXdXdXdXdXdXdXdXdXdXdXw |.].]._.].`.(.n.n.n.C.P.n.^ [ j.5XuXpX=Xe 6 L l.) ) C.R.y.;XZ w 7.c.c.+.y dXdXdXdXdXdXdXdXdXdXdXdXdXdX",
"dXdXdXdXdXdXdXdXdXdXdXdXu I J.r.I.].[.!.R.n.C.>X4XW.j.]  .1XiXpX>Xv 6 n [ { h.E.J.=X<X4.#.n.].#.B j 9 6 dXdXdXdXdXdXdXfXhXfXdXdX",
"dXdXdXdXdXdXdXdXdXdXdXdXdXu A t V 9.n.x.1.K ,.<XyXiX=X{ ( C.<X6X*Xk g +. .n.-X<XuXiXyX7XA.[.].g.,.f.' g 6 dXdXdXdXdXdXfXkXxXfXdX",
"dXdXdXdXdXdXdXdXdXdXdXfXdXdXdXu x p l S fXp u.5XaXwX%X[ X *.:X:X-.+ ..s.h.x.C.pXpXeX,X*XU  X].U.c.m.Q.X.n j 6 6 dXdXdXdXdXkXfXdX",
"dXdXdXdXdXdXdXdXdXdXdXu w l Z 2.n.8.m V 6 v B.:XuXuX&X| /   *.l.` } a.c.b.1.L ;X-X-X-.4.w.].v.c.[ x.]._.c. .h > dXdXdXdXdXdXdXdX",
"dXdXdXdXdXhXdXdXdX6 V <.@.M.|.|..X'.N.x.3.>.B.$.5X5X-Xb. .( # . O. .v.Y.U.* + } ) ) ) j.N.R.#.% g % X._.].).m.0 dXdXdXdXdXdXdXdX",
"dXdXdXdXdXhXdXdXdX0 g.v.f.j...= 2.p.].0XE.n.=./ &.C.-X:XC.h.| ] [ ..n.v...[ ] ( / ] h.U.N.1.8 > > 7 o a.E._.@XmXmXfXfXlXlXlXkXdX",
"dXdXdX6 3 zX2 9 g o _ ` O O h - , j 0.N.(.!.n.[ ) # ) =.{ b.h.c.a.j.d.+.+ } c.h. .j.T.].H.p.5.c 1 < 4 ;.d.(.R gXxXhXkXnXbXlXkXdX",
"dXdXdX5 5 dXV A.'.K.P.(.F.M.7.; : ; 2.9.n.b.W.W.W.{ ) . # [ c.b.a.;...n 7.z.@.U.Y.D.e. X XqX{.`.W vX6 y w v i dXdXdXdXfXfXdXdXdX",
"dXdXdXdXdXu M F.H.Q.)._.).U.A.1.<.A.n.j.h.h.;X:X5XL.| { [ ] b.n.;.9 j K Y.Y.S.E.H.@XVXD OX(.{.|.VXnXdXfXhXnXdXnXkXlXhXkXdXdXdXdX",
"dXdXdXdXdXdXu l 3.+.:.:.j.M.].].U.b.| } K C i.<XyX5X=X=.h.b.h. .x.>.+ $ [ M.N.E.]..X+Xx M P OXe.a dXdXfXlXnXdXxXnXxXhXlXfXfXdXdX",
"dXdXdXxXZXZXxXNXVXQ VXN J.].Q.j.| ;.3.e mX~ 6X6X6XtX6X,XV.W.n.b.c.k.B.*.] ^ |  .U.!.{.8X].}.q.0.2.C fXdXdXdXdXhXhXfXfXfXlXfXdXdX",
"dXdXdXxXNXSXNXBXmXCXR XX].n.) % V t SXxXNX! ;Xu.P.:X:X:X:XC.h.=.{ =.B.V.B.%.) *.` ;.T.T.!._.].8X].I.F dXdXdXdXdXdXdXdXdXdXdXdXdX",
"dXdXdX6 lXzX6 6 D #X.XR.h.| n hXxXfX6 kXgXt K L 0.-.B.V.V.{ ^ %.&.&.V.-X;X4X4X:XH.8.L x P I R OXR S vXNXNXNXxXnXdX6 2 6 6 6 dXdX",
"dXdX2 5 6 2 6 A I.R.x.' * c u fXNXcX< 6 r * M.Y.j.[ ) O # X ] &X*.. &.-X5XiXaX>Xy.A.w.P Y I 8.N.@XCXzXNXNXvXxXnX6 dX6 6 2 2 dXdX",
"dXdX6 dXdXdXdXdXZ N 0 w dXdXdXdXdXdX6 6 l N.~.Y.Y.a.| |  .j.U.W.c./ ^ &X:X>XiXeXW.T.@.R.R.T.E.(.I C 1 6 6 2 6 NXdXdXdX6 6 2 2 dX",
"dXdXdXdXdXdXdXdXdXdXdXdXdXdXdXdXdXdXdXdXgXv I P oXL z.v.c.c.U.U.j.( { :X,XC.-X>X,X~.E.Q.!.3X3X[.T.N.j < < 6 6 dXdXdXdX6 6 6 dXdX",
"dXdXdXdXdXdXdXdXdXdXdXhXxXxXnXxXnXxXkXxXdXf V n :.+.x.z.j.h.Y.n.c.;.%.B.>XW.l.:XE.M.F.r.+XT.D.D.0.A.B 6 6 dXdXdXdXdXdXdX6 dXdXdX",
"dXdXdXdXdXu a e a p a H H w i cXd i F v L ;.} | X.@.| %.V.l.Y.c.+.z ) &X<X>XE.a.` <.P F u C D I.[.F.0 dXdXdXfXhXkXkXdXdXdXdXdXdX",
"dXdXdXdXt 3.S.D.S.+.@.d.X.O.* ;.% & ` [ ) } h.n.U.[ # =.&X*.n.s.<.4.$.*X6X5XR.j.X.@ c 6 dXdXH  X[.R.n A vXnXBXBXxXbXxXfXdXdXdXdX",
"dXdXdX6 T ].].].].].].Q.U.n.n.j.| }  .c.n.n.Y.U.] # -.:X-X^  ...w y L %XiX|.T.R.A.f.d.2.u dXC `.0XE.6.N.W CXmXkXdXnXnXhXdXdXdXdX",
"dXdXdXdXs 9.Z.Z.z.@.0.9.X.@..X'.(. X).)._.R.,.;   =XwX<X&X^ j.a.* r u t.pX|.E.E.E.Y.v.c.<.r u q.0X[.H.Y.n zXu 2 6 2 CXdXdXdXdXdX",
"dXdXdXdXdXy V 0 Z V f s k O.#.F.)..XH.(.(.0.q o B.6X5X;X) ) k.a.j.= 5 J iX4XQ.U.M.F.T.'.P.O.x I _.8X{.~.6.5 6 6 dX6 dX6 dXdXdXdX",
"dXdXdXdXfXxXmXNXZXZXZXzXw 5..X].R.<.a.M.O.@ g =XpXpX>X_ / =.l.c.c.:., 7 i.i.* A.M.E.E.T.[.].]. Xq.H.3X0X_.OXp dXdXdXdXdXdXdXdXdX",
"dXdXdXdXfXxXnXCXd S c 2.}.]..Xe.b F #.G.X.k a 7X7XE K o  .b.Y.Y.v.Y.+ : ; ; r M 0.[._.0.3.K.].`.m Y N.Q._.[.p.q dXdXdXdXdXdXdXdX",
"dXdXdX5 2 < 2 2 0 A. XXX`.+Xx u u = _.3Xd.F dXe e t *  .k.N.E.R.S.Y.O.7 < 6 fXt 0.[.`.oXcXS oXb 5 5 V x ,.N.S.A dXdXfXkXfXhXhXdX",
"dXdXdXdX6 < < 6 b R.G.5.b u dXu = N.3X!.5.CXdXdXdXz ] z.I.!.~.N.0.#.M.V dXdXkXfX2._.0XR.6.x y 6 dXdXdXdXr C V dXdXdXxXnXkXxXkXhX",
"dXdXdXdXdXdXdXdXp 8.b u dXdXzX! (. XQ.D.a xXkXdXf +.c.8XE.T.Y.c.Y.Y.OXkXdXxXnXC N.T. XrX[.R.5.M C D p hXkXfXkXfXhXxXhXkXhXgXfXgX",
"dXdXdXdXdXdXdXdX6 y 6 dXdXdX6 l I.,.M p dXdXfXdXl d.].[.).9.d.:.N.e.AXBXkXdXdXr 2.G.H.].[.0X.X_.`./.9.D G kXkXxXlXkXhX6 5 6 dXdX",
"dXdXdXdXdXdXdXdXhXdXdXdXdXdXdX6 l y 6 dXdXdX6 D y.].].{.K.k C t Z i nXdXdXdX2 6 r m A.XX0X0X]._.[..X|.|.e.f dXkXgX5 2 2 6 dXdXdX",
"dXdXfXlXkXdXdXfXhX6 fXgX< 2 2 2 2 < < < < < ; X.].qX8XN.K u dXfXfXhXhXfXlXdX6 dX6 6 V oXT.R.+XR.~.E.!.`.#Xs dXdXdX6 dXdXdXdXdXdX",
"dXfXxXxXxXhXdXdX6 2 < < < > : : : : : > < > x 8X0X_.T.9.F kXkXhXhXxXxXlXxXxXdXdXdXdXdXp 0.A.C C 6.F.N.F.I u dXdXdXdXdXdXdXdXdXdX",
"dXfXkXhXhXfX6 6 6 dX6 6 3 < < > : > zXxXfX5 t OX}.E.T.c dXfXdXfXhXhXkXlXdXxXdXdXdXdXdXdXp A 6 dX6 A C S t dXdXdXdXdXdXfXdXdXdXdX",
"dXdXdX6 6 5 2 5 6 3 6 dXdX6 kXkX6 vXCXNXZXZXdXu a M C 6 dX6 6 6 fXkXlXdXfXdXdXdXdXdXdXdXdXdXdXdXdXdXdXdXdXdXdXdXdXdXdXdXdXdXdXdX",
"dXdXdXdXdX6 6 dXdXdXdXdXdXdXxXmXNXCXzXlXnXvXSXxXxXdXxXlXdXdXdXfXgXkXvXkXxXdXdXdXdXdXdXdXdXdXdXdX6 2 2 6 6 dXdXdXdXdXfXxXdXfXkXhX",
"dXdXdXdXdXfXkXbXhXhXhXhXdXdXdXlXcX2 2 2 2 < MXvXNXfXxXlXdXdXdXfXfXfXkXkXkXdXdXdXdXdXfXfX3 < < > : : > < < 2 3 2 2 2 dXxXnXmXnXhX",
"dXdXdXdXfXxXbXbXxXlXxXxXdXdXdXdXdX6 6 < < < < 5 nXfXdXdXdXdXdXdXdXdXdXdXdXdXdXdXdX6 2 < < < < > : : < < 3 dXdX6 6 dXdXdXfXfXdXdX",
"dXdXdXdXfXkXxXdXhXhXhXhXdXdXdXdXdXdXdXdXdXdX6 dXdXdXdXdXdXdXdXdXdXdXdXdXdXdXdXdXdXdXdX3 6 dXdX< < < 5 dXdXdXdXdXdXdXdXdXdXdXdXdX",
"dXdXdXdXdXdXdXdXdXdXdXdXdXdXdXdXdXdXdXdXdXdXdXdXdXdXdXdXdXdXdXdXdXdXdXdXdXdXdXdXdXdXdXdXdXdXdXdXdXdXdXdXdXdXdXdXdXdXdXdXdXdXdXdX"
};
