/* XPM */
static const char *darkCaveGravel[] = {
/* columns rows colors chars-per-pixel */
"64 64 72 1 ",
"  c #1E1E1E",
". c #2C231F",
"X c #242424",
"o c #2D2524",
"O c #2F2827",
"+ c #2C2728",
"@ c #2C2C2C",
"# c #322E2D",
"$ c #3F2F2C",
"% c #34302F",
"& c #343333",
"* c #393635",
"= c #3C3837",
"- c #3C3B3B",
"; c #4E352F",
": c #50352F",
"> c #443531",
", c #4C3631",
"< c #4D3A34",
"1 c #433D3B",
"2 c #4A3F3B",
"3 c #513730",
"4 c #533C35",
"5 c #45413F",
"6 c #4A423E",
"7 c #53443D",
"8 c #5A463D",
"9 c #60443B",
"0 c #614A3F",
"q c #444444",
"w c #4A4543",
"e c #4C4846",
"r c #4B4B4B",
"t c #524640",
"y c #524945",
"u c #5C4B44",
"i c #514E4C",
"p c #5A4F49",
"a c #53504E",
"s c #5B534D",
"d c #5D534C",
"f c #5B544F",
"g c #535150",
"h c #545250",
"j c #565451",
"k c #595753",
"l c #5C5651",
"z c #5B5853",
"x c #5C5853",
"c c #5D5954",
"v c #5F5B56",
"b c #5E5B57",
"n c #62544C",
"m c #625953",
"M c #615A57",
"N c #615C56",
"B c #615D59",
"V c #635D59",
"C c #625F5B",
"Z c #625F5D",
"A c #64605A",
"S c #63605D",
"D c #65615C",
"F c #636160",
"G c #646261",
"H c #656463",
"J c #656565",
"K c #686664",
"L c #686868",
"P c gray42",
"I c #6C6C6C",
"U c gray44",
/* pixels */
"qjLLBeccGJZkickacajjSkeFBqrrGGZJcqkFLLLHGJBirqqkeeqGFBBBZBci-kHq",
"kqjSBhqqjrkrjZqesqjcFBjrrDcBjFjGBjhracZBaSJzBcckcjaHZcScHJr5mGJj",
"ZaqBeqqrqFcch-r-#=xJjzrSkcekcSkhjBce-X@-BFBacggckBcjciSZGJs##pGB",
"ZeeqqBhrcSZBcrk-O#5DcrqcehjccjjjFjheq-X@BZqrBaaSFZZkJciipsa6#rxG",
"HJzahcjiraBcjicledakZckkecHHBBkgzkZee@X@ckzFSkikBxFcSrq&%1e*#&DL",
"JheBJq5arqehqhJkkeq=&55hejghhieX-@JrcBreMBBJFFkjaqrrBkq=oO=ejDcS",
"GrrLHx-e;4cZZZShxBs#o#*rZcrcreX X-JBkchkDIIJBxcBFkiDBka111pZcjha",
"ecSeq&-,,9MaSBcGGFf1%#*acikBk@XXXXccrBBacLKHDehZcieackqaecSBZZBk",
"qcc-@X@&lLIGcZZLHxeas66ZxxcZcB@&&-rrcr-&qkqq-eqeqiqjjirrqrDBaerj",
"hJJq&@@XqLLAkFGJJFzgBDBFBSGBzx-icBJGl&XX-cq&oOwisleqqrjJLBkkcqqe",
"JLJkjq---fMaBkSLFDZBcjkGjckhqreeBIILc-&=7uq&++1e#-&-jjGIILxkqqrS",
"BckrkixZutqeacaSFFBGBkgkkzjjehhkLIHLDd3334rreqka&&++rqjDIIGkkqcJ",
"zgqreBkcu46rrScBccakkaBhccjBcrkGBJBDHa74,4eeq&-rc*#&DeeBLLBjjjcZ",
"ckaeeccgMsaBZJJZcBc-&&i-irzraeBJccBNkBqp2u-@XXXecBjrZLIjkrqqeijj",
"ZBxijFcjrzBcZSHzkcq@XX@@qecBBJLjBcgILJrrcBh@XX@-iaihLLUk-&qaqrjr",
"-rccqcGhSBricikcje&XXoXX@qqGJILJrkBpnDrjcBq&@@rkBcreeSDa@Xrxrzae",
"rqrBccxxigikBBeajq&@X+&@@-qjDIIIIZ6o#BZzcFLILDjczi&@-kcr@@kkrjcG",
"FGs--cieakkhcBcqkxzjkNe---jckkDxeg&o#1NzjFkGLSZce-XX@-caqrcc-iSB",
"Dw#o-rBqqkkjcjjcjqZjNxBBBqrrkrfrqri=w1NJZicLILcgc-@@&-FkikFBqkkB",
"q&o#-xBxecFBjjaiZrhrlLKHBrq--eixee-rccBGZqehrrhekhaiqiccckqxhqrx",
"ra*1raajarjBkccyy1yqlBKDkceqreie&XXXqciqqrq-&&1-jccjerchkhaBBigB",
"kiaMcZGxBjrrhBF**&1errDiBBZcjkikX  X-ckrcDki=o*ecBFBakccBBJILgcF",
"FcrejHLBcJFSirGp1*%qZcaBBqca*=y-@X X@exBDFBzhB1-BJBjGBjrckDIBqJL",
"SJzxcBKKcFZxggBaa65pSeckrjl*o$,<urqkZSjerDSDjcjccJGBBHkDeiDJZrGF",
"GchBkihxZFjqqqreeBSBjekZehM1&>,,,7xBLZcZijDZrBrhrezSccirreBFHGBa",
"cLGBkairqe&@@&e&@rJJcqqseSFcZzy,8uBLZFGIAzBiacrBBriSieezrhaZkkhc",
"rcBGcZj&X@XXoX&XX&cJc1&&-GcccxSsHLIIrDIUDcxjkrechrczayfZckFccZee",
"aZGZBjSr@XXXoo@@@erke-ooO-kqqiJzhDIGcGxLJGSBBjje---q#O&kjkhBZDkh",
"erkcBBxqrxr-&z-@@-MJcBq#o1eccJLzirShcJJjccGGzj@@X@XX-O*ycckaZDkr",
"JZgrrc=-iZGHHFZBxAIISZBBakrheBjaZieZGGjeicBSrh@X@@X@-eBSBchgeqcJ",
"ZJZeB1Oo-jJJJBJJLIILHGchBiFBccq5BirHkBhhrckkqa5---X&eekBjjaiMkzZ",
"qjzeJy#&rZqeBhLLIILacaaa-ckreHy&1JJHSJHGHDhj&*arq-&&a-iZBl==xHBr",
"cqkFLLydDJBirqkJLJkGFBBBZBca-kA-qjLLBeccGJZkeakacajjSkeB1OooDGZJ",
"BjhracNDZSJzBccBGDjHZcScJLMiJLJjkqjSBhqqjrkrcDqecqjcFBjr&o.oiFjG",
"jBceqkaiBSBacggckBcjciFZJILSkJGBZaqBeqqrqFcBIIrreBZJjzrZ5oo1sSkh",
"Fjheqeaji6-qBaaSFZBqcqrcJLLBcjxGZeeqqBhrcSZLLLkqikkJcrqc11=fcjjj",
"czZeijeqe&=xSkikBkZ@&&q-lJDn6wnJHJzahcjiraBcjiBccJccZckkeLLJBZkh",
"jGLrcBqqe&%sSFjhq@&X-&qchqr6443mJheBF--erqehqhJkDGBBeaahJIIhjikF",
"qBJBheo#e66ep=e1c@X@X-acxcDn4;;;nqeJrXX@rgc8mZShDILLmfkrDIBcrjcF",
"qrSce1**hFcBfo#*xr-eh-+O+OZBq1w@@&re@XX&qcr<4ncGGGHKnpBgcczBkkrZ",
"qqrecBGcakqeji-o*r&O&1@+o++B-X@X @X&q@e-w0nlfBZLHxeracSZxccZcBax",
"kqrkkrkjxceerkN16ci&&-OOdLHNj-@@@@&-rriy<:8ckFGJJFxhZGZSzBJGBcqj",
"hBirjqrFJc*#ehZcZk5@O@@XXaxe-qrSGJHjjie73,yiBkSLFDZBcjhcrxDKxiee",
"Hciq---SZ=#oeicZGSirq@XX-DL7=qcJBckrkq&287qracaSFFBGBkq-ecHIBhhj",
"cGjr@X@ieaerxeezcSSJB-&@XX&&1hcZzgqrq-O+1kearSxfacakkai-icDJBrkG",
"ccBe&@&qqccBhcercBjcLJHcjqq-qrjjckaeesaiBxBLDBMccccreZFhrqeq-qcJ",
"BcgrBir-=cZregr-iaiGIIIHzeea@@eeZBxijFcjrBLIIp*ekkr@@Zxaq@X@XrJr",
"ekZeeqre*waeqrkkBSFcDLIJarc-XX@--rccqcGhSBxxBrisaqXXXheq&@XX@@ji",
"SSFcZjZzcFBBcZcccFScBBHDDeBr@@@@-qrBccxxigakBBq=*&&eeijeqrqqqjcc",
"ehqaDSHzjFkjHIIcrkFBcZckBkBc&qrrcHFeqcieesLgcceO++=cBZeeccccrqer",
"erizZLIIZiiBLLJgBrreecFkikFBqjjcDZxjrrBqO&JLq@-&@@wecJNLBqrrkeq-",
"eeqcBGUIJqeq-qrrzkckegccck-aiqhBrrqkrzB=o#fr&X@X&#qeeIILDkq--eac",
"Hcqqicjqqr-&X&cr1yijerchkjeqrkLIBciBriih*=axrqXX-o*-cDLUJDeqrraJ",
"izcBBFzrcDi&X-Be*oSBakcHLJJhchGIJia1#*pkfarraBDafMBcLIJGLHSckxaZ",
"BjacckqgBSk--ccqoocjGBjBIKMFieLILcrq-1GkcDw**qB83uexILjBDacDccci",
"GxjBeXXX&qrSjd77#MFBBHkDrAHBcrGFSJkw#O=ccDl==iu338cBLackrjFBieci",
"iahh&XXX @iZru<7eezZccirreqqrkBaGchBkecHJJp&#-g62mSBkekZearieace",
"cqqse&@@X@qiad<4driSirezrq&X@-rccLGBkkHIIIULeexiiHJJceeceh-@Bchh",
"Da=*-raBhhajje6uyrczcBBZce@X@&-ercBGcDGJIUILaBcjeackeqqergXXkcFk",
"r=oo1FqBGGJZHjjcjekDrBkkhr&ekNiaiZGZBjDBNikrjcFZccr-@@@req@=qiJz",
"i-*=yJJaccILLDaceccDq&-ehckaBl1-qrkcBBxqgZFFFHrzSrri&XXqiBqxcJLz",
"DieBFFjeicJLIIDekcjj@X@@cchge-#oJBgrrcrrjZGHHFGJHcckk--rhxrheZka",
"SirHkBhhrckcHHszjkjq-@X&jjzhc1o#oJZeBjrqqjJJJBBBHcSkFSkgBrFBcckj",
"hJJHSJHGHDhjjDcaqhe-i&&xZBjrZs1eqjzeJJDzaZqeBhrcrieqcaaa-cjerHDj"
};
