/* XPM */
static const char *dustgrass[] = {
/* columns rows colors chars-per-pixel */
"64 64 50 1 ",
"  c #95940F",
". c #99960B",
"X c #99960C",
"o c #8F8F1B",
"O c #8C8D1F",
"+ c #908F17",
"@ c #908F18",
"# c #949312",
"$ c #949412",
"% c #939215",
"& c #949315",
"* c #949414",
"= c #929018",
"- c #B7BE1F",
"; c #BABF1F",
": c #898A22",
"> c #8A8C21",
", c #AFBC26",
"< c #AEBB2A",
"1 c #AFBC29",
"2 c #ABBB2C",
"3 c #B3BC23",
"4 c #B7BE22",
"5 c #B1BD26",
"6 c #B5BE24",
"7 c #B8BF21",
"8 c #B1BD28",
"9 c #BFC317",
"0 c #BBC11B",
"q c #BFC319",
"w c #BBC11D",
"e c #BDC21D",
"r c #BBC121",
"t c #BCC121",
"y c #C4C70F",
"u c #C7C80B",
"i c #C7C90E",
"p c #CACB09",
"a c #CBCC08",
"s c #C8C90C",
"d c #C3C512",
"f c #C4C711",
"g c #C1C317",
"h c #C3C515",
"j c #C4C714",
"k c #C5C810",
"l c #C4C811",
"z c #C7C910",
"x c #C1C319",
"c c #C1C418",
/* pixels */
"px64hkkkhr6eppqhffkkspp2epjr7fkxhfhhfipppipxeky;4q9hdqqq7eheqspp",
"he44qpsxwweqiifexfxfiph2ppkq;qhr7xhhispppphigq9q4eqhd;46-e7;xppi",
"qh;ghikew4ehspixexxkksxwikfhdhq567xhiikikeehq<2<<450qehxfe565fdg",
"hhwhhfhqw6wxhqeewehjkhfwqihifhfe67ghhkhhqhiiid;64hw65;pphew81454",
"qphfipikhwedkippixhsipkehkfikhihw7whhfdhhfiuih9q4684;qpxqipd769f",
"7ikqipkhfxx6esppiookpp6kiihipkik6<5;eqhxhdfifqgfw1<quhehippkh4;x",
"whq;hihhfihqhpps%OO$pshihhiikkdihheqhqqeqg9hhgqe464epd;6epiidqhe",
"eq44ghiiihghkisihxhkiheicejihhkkspi4wfxqqhqgde444;9hiqge4iffiq44",
"7;46hgihhhg9gdhqqckfddqhdhhfhfikskhqoeqhhhh99eqq;;hkq4gqweehug56",
"44O59gkfdiydhdgeehhhhfhhkikfqgccjhk%@ohhqqh;;q;;wehiq;4-qhiipx87",
"8:>Owqhipiiidhqeqhhjfkhiihfhgwhksshqhhhhhhw45w44;wq%%%O<eheh45<7",
"75wh9qefkiffdhxqhihfshhiihcxhhekppfhhffhfqw44q;9qh%@o% qehppu;6e",
"xqghq;fufqhdddhhhgehpdhfkhctqkshsppggkhqx44eqg4qfiihqdppfehiiwqq",
"hiifqhgfhqq77hhhhqxhihhkdh7rxjpphiihhsice5ehif4edkdhehppihehhwfh",
"qiihhhqhh9h7qhww644e4wqw;q;eeqipixfhhffq7wwhph4qewqhhfiidhq474hh",
"hspppfh9qhhqehkhee777wehfgqhcxkppihqghheedxehhhkhhhhqhfkdih44hfg",
"skghhhhgwqhqhikjhkqeew6whehisispkkihqxhehiiqwqedfiiihhqqhhe7774h",
"i4isphqqwweqki$ pscfhe58ewipppsikkfhghhh%iihee7huikkqhe7egqeq44k",
"sppapskx74qhf*$XXkhfice484hsppppihgqhhi&@=fkhqqiiidq77xqe47qdihe",
"efpapihqeqhhhhipphhhhhfie5wqiaaspskeqhiigxfffhhhhheeqhipkqehippf",
"kxkpphwehfihhhiiihhhqqipd;44qsakpphw4qfpffidhfhfe56whipppixehpup",
"pkgife4effhhqgfiskhhgfppd7hqwckhise66;hpppififhd;58;qkpppfhhhipp",
"ppdew77qfjhx;hhhfdqehipseg9gq7exchw7xwefpisiihgw66ewwfppkfffhqhp",
"pfhewqqhkhxgqqqqqqxkpppheqwgkh7rheeekffiuhhiih477eqqehihhiippxqu",
"feeqqhqhifehheeweqhipapk$ hhhkht667diippihhkfg47eqqhhehxchihiihh",
"4qhfhqqgkkhhq466;qdkppi X.%xihqq74ehfqphkhdhcqqhhqqfiihfkkipppie",
"7ghfhqehqg9g;5,34;qhffkkppgqhfe488687w4hkhsq4hdigeqksihhfkikppie",
"cqqwefhqfhgq;4-4qhqkfxhisfhqhqhqehfqwipkehiihffifwekihhhhhfhffqc",
"kqw4qfihhiyq;;qhhdqfhhff;ihqhkkihkkhe4ikqhxqqekpkfiii$$&qwech7hk",
"iq;hdkppdgdhqgdhikqdhehegf44qcehjixqqhee7qe7dppkiipp  $&=7ec6wfs",
"pqdffsppdgqhfqqhiiqwhheehqqghhhippqwehq7;715qpikhqippspkxew46eip",
"qhkipii.sheeihcqhdqwq47w4;q7hfkspsfqeweqfh5wqq6hkhfppppf2her7xki",
"hfhhf$X. ipxeky;4q9hdqqq7eheqspppx64hkkkhr6eppqhffkkspp2epjr7fkx",
"7xhh$   pphigq9q4eqhd;46;e7;xppihe44qpsxwweqiifexfxfiph2ppkq;qhr",
"67xhiikikeehq<2<<450qehxfe565fdgqh;ghikew4ehspixexxkksxwikfhdhq5",
"67ghhkhhqhiiid;64hw65;pphew81454h%Ohhfhqw6wxhqeewehjkhfweihkfhfe",
"w7whhfdhhfiuih9q4584;qpxqipd759fq %fipikhwedkippixhsipkehkfikhih",
"6<5;eqhxhdfifqgfw1<quhehippkh4;x7ikqipkhfxx6esppiqqkpp6kiihipkik",
"hheqhqqqqg9hhgqe464epd;6epiidqhewhq;hihhfihqhppsheekpshihhiikkdi",
"spi4wfxqqhqgde444;9hiqge4iffiq44eq44ghiiihghkisihxhkiheicejihhkk",
"skhqqeqhhhh99eqq;;hkq4gqweehug567;46hgihhhg9gdhqqckfddqhdhhfcfik",
"jhkhxqhhqqh;;q;;wehiq;4-qhiipx8744459gkfdiydhdgeehhhhfhhkikfqgcc",
"kshqhhhhhhw45w44;wqdhhe<eheh45<78867wqhipiiidhqeqhhjfkhiihfhxwhk",
"ppfhhffhfqw44q;9qhhgqhiqwhppu;6e75wh9qefkiffdhxqhihfshhiihcxhhek",
"spsxgkhqx44eqg4qfiihqdppdwhiiwqqxqghq;fufqhdddhhhgehpdhfkhceqksh",
"hiihhsice5ehif4edkdhehppiheh%Ofhhiifqhgfhqq77hhhhqxhihhkdh7rxjpp",
"ixfhhffq7wwhph4qewqhhfiifhqOOO%hqiihhhqhh9h7qhww644e4wqw;q;eeqip",
"pihqghheedxehhhkhghhqhfkfih44hfghspppfh9qhhqehkhee777wehfgqhcxkp",
"kkihqxhehiiqwqed#$ ihhqqhhe7774hskghhhhgwqhqhikjhkqeew6whehisisp",
"kkfhghhhdiihee7% $$$qhe7egqeq44ki4isphqqwweqkiippscfhe58ewipppsi",
"ihgqhhifxhfkhqqiiidq77xqe47qdihesppapskx74qhfksppkhfice484hspppp",
"pskeqhiigxfffhhhhheeqhipkqehippfefpapihqeqhhhhipphhhhhfie5wqiaas",
"pphw4qfpffidhfhfe56whipppixehpupkxkpphwehfihhhiiih=%oqipd;44qsak",
"ise66;hpppififhd;58;qkpppfhhhipppkgife4effhhqgfis$%%@#ppd7hqwckh",
"chw7xwefpisiihgw66ewwfppkdffhqhpppdew77qfjhx;hhhfdqehipseg9gq7ex",
"heeekffiuhhiih477eqqehihhiippxqupfhewqqhkhxgqqqqqqxkpppheqwgkh7r",
"667diippihhkfg47eqqhhehxchihiihhfeeqqhqhifehheeweqhipapkiihhhkht",
"74e%fqphkhdhcqqhhqqfiihfkkipppie4qhfhqqgkk%hq466;qdkppipppdxihqq",
"88>:Ow4hkhsq4hdigeqksihhfkikppie7ghfhqehq@o+;5,34;qhffkkppgqhfe4",
"ehfqwipkehiihffifwekihchhhfhffqccqqwefhqfhgq;4-4qhqkfxhisfhqhqhq",
"hkkhe4ikqhxqqekpkfiiiikjqwech7hkkqw4qfihhiyq;;qhhdqfhhff;ihqhkki",
"jigqqhee7qe7dppkiippppifh7ec6wfsiq;hdkppdgdhqgdhikqdhehegf44qceh",
"ppqwehq7;715qpikhqippspkxew46eippqdffsppdgqhfqqhiiqwhheehqqghhhi",
"psfqeweqfh5wqq6hkhfppppf2her7xkiqhkipiipsheeihcqhdqwq47w4;q7hfks"
};
