/* XPM */
static const char *farmland[] = {
/* columns rows colors chars-per-pixel */
"64 64 2 1 ",
"  c #76571F",
". c #8D7323",
/* pixels */
"................................................................",
"................................................................",
".......    .....................................................",
"....        ....................................................",
"...         ....................................................",
"................................................................",
"...............................................    .............",
"............                .................         ..........",
".......                        .............           .........",
"...                             ...............   ..............",
"..             ........         ................................",
"..       ...................    ................................",
"..    ..........................................................",
"................................................................",
"................................................................",
"................................................................",
"................................................................",
"................................................................",
"..................................................      ........",
"..............................                            ......",
".........................                                      .",
".......................                                         ",
".......................         .......................         ",
".......................     ................................    ",
"..........    ..................................................",
".........      .................................................",
"................................................................",
"................................................................",
"................................................................",
"................................................................",
"................................................................",
"..............                            ......................",
".......                                      ...................",
"....                                         ...................",
"....             .......................     ...................",
"....      ......................................................",
"................................................................",
"...................................................   ..........",
"..................................................     .........",
"................................     .............    ..........",
".......................                 ........................",
"................                            ....................",
"...........                                 ....................",
".......                  .............      ....................",
".......            .............................................",
".......       ..................................................",
".......   ......................................................",
"................................................................",
"................................................................",
"................................................................",
"................................................................",
"................................................................",
"............................                          ..........",
"...... .................                                 .......",
"....     .............                                         .",
"...       ..........          ..................               .",
".....      ........        ........................            .",
"...................      .......................................",
"...................    .........................................",
"................................................................",
"................................................................",
"................................................................",
"................................................................",
"................................................................"
};
