/* XPM */
static const char *granite_tile[] = {
/* columns rows colors chars-per-pixel */
"64 64 38 1 ",
"  c gray28",
". c gray29",
"X c gray30",
"o c #535353",
"O c #555555",
"+ c #5B5B5B",
"@ c #5F5F5F",
"# c gray38",
"$ c #656565",
"% c gray42",
"& c #6D6D6D",
"* c #717171",
"= c #777777",
"- c #797979",
"; c #7C7C7C",
": c gray51",
"> c #868686",
", c #8B8B8B",
"< c gray55",
"1 c #909090",
"2 c #959595",
"3 c #989898",
"4 c gray61",
"5 c #A2A2A2",
"6 c #A4A4A4",
"7 c gray66",
"8 c #AEAEAE",
"9 c gray69",
"0 c gray71",
"q c #B9B9B9",
"w c gray",
"e c #C0C0C0",
"r c #C6C6C6",
"t c #CACACA",
"y c #CECECE",
"u c #D0D0D0",
"i c gray84",
"p c #D8D8D8",
/* pixels */
"eeeeeeeeeeeeeeeeeeeeeeeeeeeeeeeeeeeeeeeeeeeeeeeeeeeeeeeeeeeeeeee",
"eeeeeeeeeeeeeeeeeeeeeeeeeeeeeeeeeeeeeeeeeeeeeeeeeeeeeeeeeeeeeeee",
"ee2222,:1222222222222222222222eeee22222222>&1,<222222222245222ee",
"ee222>#o:222222222222222222222eeee22222222$-=%;1222222346e5472ee",
"ee22,$O%<222222222222222222222eeee2222222+,;*:,12222226e0wri82ee",
"ee21-O@=<22221,,:=22222222<-12eeee1<22222>1*:<<222222388900i62ee",
"ee221-+=122>&:#%@#<2222222*O:2eeee<>122222211<<222222886w3rw52ee",
"ee222-X;222%#*=#@*,222222:@@*1eeee1<122222222222222222254t7442ee",
"ee22>%#,22*-**-#;;<222222$&&$1eeee<122222222222222222222253722ee",
"ee2<&><222*1>1-->:222222425--1eeee112222222222>&<-:22222222322ee",
"ee2<&<222221,221<<22228y9yw<22eeee22221:=:@-@&%+ %-12222222222ee",
"ee22<222222222222226r0w0ew8422eeee22:O+$##*%&OOO$=,12222222222ee",
"ee22222222222222248qqy0ew65322eeee22=+O$o$Oo&. O#,<2222<-:2222ee",
"ee2222222222222226tyu0wew6622<eeee2& &$&&=$*o&%%*><2222:%-1222ee",
"ee22222222222222698wqw6ee43221eeee2=%*&;-#<#;&%<<22222:=:,1222ee",
"ee2222222>&<-:>&3;w#;7q94422<2eeee1,<<,1<<<>1:,,,22222::<<2222ee",
"ee22222,%+#@#++#o &%1>q8q352>2eeee21;1222222222222222221<<2222ee",
"ee22222;@&o +.X .+o<,14ww9t<:2eeee2222222222222222222222222222ee",
"ee2222-*&&oO.XX #&=-;39qiw6<,2eeee2222223522222222222222222222ee",
"ee2222157-y*O.OOO+#<29iet85311eeee2222220u586222235222221>;222ee",
"ee22224q0q2-&@OO#%,,2qy9807322eeee272225ryqw832220u3222<$..<22ee",
"ee222397t73>$++=@<<2t533ww6222eeee27422t90q643226e05222-oX&-22ee",
"ee222383537;-;3540>22379854222eeee23422w6q744222tqw422:+.;;<22ee",
"ee2222234,**<8rqur6wu228453222eeee242221<4>;3229iwq422:;:**222ee",
"ee2222222*$;2eetweuuw622243222eeee23222:#&%&>>4tte032221<<1222ee",
"ee222222--,=#2366upq6422222222eeee2222<**%$o##yre8632222222222ee",
"ee222222-,-&:O$:61q79222,&=::1eeee2:>1&oXO+Oo167q5422222222222ee",
"ee2222222<oOo#;:==543222-$@$=2eeee2:$=OOO @o:,>>44322222222222ee",
"ee2222221>;#@->=:<2222211,;&,2eeee211,*&%$%;;=><12222222222222ee",
"ee2222222111111121222222221212eeee2122211111111112222222222222ee",
"eeeeeeeeeeeeeeeeeeeeeeeeeeeeeeeeeeeeeeeeeeeeeeeeeeeeeeeeeeeeeeee",
"eeeeeeeeeeeeeeeeeeeeeeeeeeeeeeeeeeeeeeeeeeeeeeeeeeeeeeeeeeeeeeee",
"eeeeeeeeeeeeeeeeeeeeeeeeeeeeeeeeeeeeeeeeeeeeeeeeeeeeeeeeeeeeeeee",
"eeeeeeeeeeeeeeeeeeeeeeeeeeeeeeeeeeeeeeeeeeeeeeeeeeeeeeeeeeeeeeee",
"eeeeeeeeeeeeeeeeeeeeeeeeeeeeeeeeeeeeeeeeeeeeeeeeeeeeeeeeeeeeeeee",
"ee2222232222222222222222222225eeee222<2222222222222222<1222222ee",
"ee2598rw922222,=:-=:=;-:122222eeee1:=:*<2222222222222*>:*,<122ee",
"ee384rere42222;*$=-*;%#-*-;=22eeee2&>&$>1222222222222*1>1:;222ee",
"ee24eeyr54222-%++<=:*@@+#O+&12eeee2<*%,,1222222<><-;%O1,222222ee",
"ee2258y972222<=&-$X&+Oo #@&>12eeee1:-<>12222222*o;$@o>>2222222ee",
"ee22895452222*** @##.+Xo.$<>22eeee2221,:$@&-O2>&-&*X=>12222222ee",
"ee2234542222221+o#*O- =#;=,,22eeee22504%+$Oo#@O*==#:>;22222222ee",
"ee222233222222X1;:+=,1@*,12222eeee229w42%*XOO$#$*1:>:22-X>2222ee",
"ee2222222222222<,95qqr61;22222eeee288690&oX +O$>,121,>:o=:1222ee",
"ee22222222222248ww0qe633222222eeee285q74;@..@#::122<%#o&:<2222ee",
"ee2222222222226q24<@6&=1222222eeee22404,*oO@&>,,121;*#=,-<2222ee",
"ee22222222222693*<-<O$<<222222eeee224533;*4-><<222,$1:<:122222ee",
"ee,,,<22222227631#,@$>>2222222eeee25tt42:7e012222222<>21502222ee",
"ee#$@%;@=@>2245106+O<,,2222222eeee4titq289ti52222222226ree4222ee",
"ee=&++$%@$+;5t2w9:>,;,22222222eeee5e34649wr772222222220rtu5222ee",
"ee*$%OO.X@o*18iy6>2>2222222222eeee3<#,223u67322222222w0ur07222ee",
"ee=oO OO++-3rwqq461,22<*#22222eeee1&@*1-:2482222222225qu0t0222ee",
"ee;$OOo;#-;9u843542222<%=;2222eeee1*#$-%-122222222222w769tp422ee",
"ee*O*>:;;105447322222% $&o*#22eeee1=%=*:,12222221:*>253rue6622ee",
"ee<>>;,229p48422222& O@$@*@=,2eeee2>:-:<<222222>+O+X*<4tp75222ee",
"ee2112222tu9e022222+.@:+$.@&<2eeee211,1<<222222=#%#$#>ye958222ee",
"ee222222iw00854222X=::*-$#%-<2eeee222222:@>222*&=+&*>407932222ee",
"ee222222t5e9332222,<*,1+=*<,22eeee222222*:126921>>&->564522222ee",
"ee22222253735422222212221;,,22eeee22222$<0ewq0422221,124322222ee",
"ee2222222232222222222222222222eeee222222739w844222222222222222ee",
"ee2222222222222222222222222222eeee222226w969352222222222222222ee",
"ee2222222222222222222222222222eeee2222222475342222222222222222ee",
"eeeeeeeeeeeeeeeeeeeeeeeeeeeeeeeeeeeeeeeeeeeeeeeeeeeeeeeeeeeeeeee",
"eeeeeeeeeeeeeeeeeeeeeeeeeeeeeeeeeeeeeeeeeeeeeeeeeeeeeeeeeeeeeeee"
};
