/* XPM */
static const char *granite_floor[] = {
/* columns rows colors chars-per-pixel */
"64 64 149 2 ",
"   c #444444",
".  c gray27",
"X  c #464646",
"o  c gray28",
"O  c #484848",
"+  c #494949",
"@  c gray29",
"#  c #4B4B4B",
"$  c #4C4C4C",
"%  c gray30",
"&  c #4E4E4E",
"*  c gray31",
"=  c #505050",
"-  c #515151",
";  c gray32",
":  c #535353",
">  c gray33",
",  c #555555",
"<  c #565656",
"1  c gray34",
"2  c #585858",
"3  c gray35",
"4  c #5A5A5A",
"5  c #5B5B5B",
"6  c gray36",
"7  c #5D5D5D",
"8  c gray37",
"9  c #5F5F5F",
"0  c #606060",
"q  c gray38",
"w  c #626262",
"e  c gray39",
"r  c #646464",
"t  c #656565",
"y  c gray40",
"u  c #676767",
"i  c #686868",
"p  c DimGray",
"a  c #6A6A6A",
"s  c gray42",
"d  c #6C6C6C",
"f  c #6D6D6D",
"g  c gray43",
"h  c #6F6F6F",
"j  c gray44",
"k  c #717171",
"l  c #727272",
"z  c gray45",
"x  c #747474",
"c  c gray46",
"v  c #767676",
"b  c #777777",
"n  c gray47",
"m  c #797979",
"M  c gray48",
"N  c #7B7B7B",
"B  c #7C7C7C",
"V  c gray49",
"C  c #7E7E7E",
"Z  c gray50",
"A  c #808080",
"S  c #818181",
"D  c gray51",
"F  c #838383",
"G  c #848484",
"H  c gray52",
"J  c #868686",
"K  c gray53",
"L  c #888888",
"P  c #898989",
"I  c gray54",
"U  c #8B8B8B",
"Y  c gray55",
"T  c #8D8D8D",
"R  c #8E8E8E",
"E  c gray56",
"W  c #909090",
"Q  c gray57",
"!  c #929292",
"~  c #939393",
"^  c gray58",
"/  c #959595",
"(  c gray59",
")  c #979797",
"_  c #989898",
"`  c gray60",
"'  c #9A9A9A",
"]  c #9B9B9B",
"[  c gray61",
"{  c #9D9D9D",
"}  c gray62",
"|  c #9F9F9F",
" . c #A0A0A0",
".. c gray63",
"X. c #A2A2A2",
"o. c gray64",
"O. c #A4A4A4",
"+. c #A5A5A5",
"@. c gray65",
"#. c #A7A7A7",
"$. c gray66",
"%. c #A9A9A9",
"&. c #AAAAAA",
"*. c gray67",
"=. c #ACACAC",
"-. c gray68",
";. c #AEAEAE",
":. c #AFAFAF",
">. c gray69",
",. c #B1B1B1",
"<. c #B2B2B2",
"1. c gray70",
"2. c #B4B4B4",
"3. c gray71",
"4. c #B6B6B6",
"5. c #B7B7B7",
"6. c gray72",
"7. c #B9B9B9",
"8. c gray73",
"9. c #BBBBBB",
"0. c #BCBCBC",
"q. c gray74",
"w. c gray",
"e. c gray75",
"r. c #C0C0C0",
"t. c #C1C1C1",
"y. c gray76",
"u. c #C3C3C3",
"i. c gray77",
"p. c #C5C5C5",
"a. c #C6C6C6",
"s. c gray78",
"d. c #C8C8C8",
"f. c gray79",
"g. c #CACACA",
"h. c #CBCBCB",
"j. c gray80",
"k. c #CDCDCD",
"l. c #CECECE",
"z. c #D0D0D0",
"x. c gray82",
"c. c #D2D2D2",
"v. c LightGray",
"b. c gray83",
"n. c #D5D5D5",
"m. c gray84",
"M. c #D8D8D8",
"N. c #DADADA",
"B. c gray86",
/* pixels */
"/ / / / / / / / / / / / / / / / / / / / / / / / / / / / / / / / / / / / / / / / / / / / / / / / / / / / / / / / / / [ X./ / / / ",
"/ / / / / / / / / / / / / / / / / / / / / / / / / / / / / / / / / / / / / / / / / / / / / / / / / / / / / / / / / _ 7.u._ / / / ",
"/ / / / / / / / / / / / / / / / / / / / / / / / / / / / / / / / / / / / / / / / / / N > Y N S / / / / / / / / / / $.>.X.7.M./ / ",
"/ / / / / / / / / / / / / / / / / / / / / / / / / / / / / / / / / / / / / / / / / / y N c p N ! / / / / / / _ [ O.u.O.[ g.7.O./ ",
"/ / / / / / / / / / / / / / / / / / / / / / / / / / / / / / / / / / / / / / / / / 3 L V k S L ! / / / / / / O.u.3.w.a.m.7.7.[ / ",
"/ / / / / / / / / / / / / ! L L S c / / / / / / / / Y N S H f Y N c k Y / / / / / H ! k S Y Y / / / / / / _ ;.;.>.3.3.m.;.>.[ / ",
"/ / / / / / / / / / / H f S q p 6 q Y / / / / / / / k > k ; * 3 @ 3 y H ! / / / / / / ! ! Y Y / / / / / / ;.;.O.w._ a.w.O.X./ / ",
"/ / / / / / / / / / / p q k c q 6 k L / / / / / / S 6 6 6 > > * ; 6 V L ! / / / / / / / / / / / / / / / / / / X.[ g.$.[ [ [ / / ",
"/ / / / / / / / / / k N k k N q V V Y / / / / / / y f f ; p * q y N S ! / / / / / / / / / / / / / / / / / / / / / X._ $./ / / / ",
"/ / / / / / / / / / k ! H ! N N H S / / / / / / [ / X.N f V p c k H L ! / / / / / / / / / / H f Y N S / / / / / / / / _ / / / / ",
"/ / / / / / / / / / / ! L / / ! Y Y / / / / ;.l.>.l.w.Y / ! H ! Y Y / / / / ! S c S 6 N 6 f p 3 o p N ! / / / / / / / / / / / / ",
"/ / / / / / / / / / / / / / / / / / / O.a.3.w.3.u.w.;.[ / / L p c / / / S > 3 y q q k p f > > > y c L ! / / / / / / / / / / / / ",
"/ / / / / / / / / / / / / / / / / [ ;.7.7.l.3.u.w.O.X._ / / V k S c > / c 3 > y ; y > ; f @ o > q L Y / / / / Y N S / / / / / / ",
"/ / / / / / / / / / / / / / / / / O.g.l.z.3.w.u.w.O.O./ / N k Y Y y N 3 o f y f f c y k ; f p p k H Y / / / / S p N ! / / / / / ",
"/ / / / / / / / / / / / / / / / O.>.;.w.7.w.O.u.u.[ _ / / Y Y H 3 L Y y p k f V N q Y q V f p Y Y / / / / / S c S L ! / / / / / ",
"/ / / / / / / / / H f Y N S H f _ V w.q V $.7.>.[ [ / / Y N V V p ! > H Y Y L ! Y Y Y H ! S L L L / / / / / S S Y Y / / / / / / ",
"/ / / / / / / L p 3 q 6 q 3 3 q ; o f p ! H 7.;.7._ X./ S p k p f Y ! ! V ! / / / / / / / / / / / / / / / / / ! Y Y / / / / / / ",
"/ / / / / / / V 6 f ; o 3 @ * o @ 3 ; Y L ! [ w.w.>.g.Y c V f N Y Y / / / / / / / / / / / / / / / / / / / / / / / / / / / / / / ",
"/ / / / / / N k f f ; > @ * * o q f c N V _ >.7.m.w.O.Y S H k Y H / / / / / / / _ X./ / / / / / / / / / / / / / / / / / / / / / ",
"/ / / / / / ! X.$.N l.k > @ > > > 3 q Y / >.m.u.g.;.X._ ! Y Y ! L / / / / / / / 3.z.X.;.O./ / / / _ X./ / / / / ! H V / / / / / ",
"/ / / / / / [ 7.3.7./ N f 6 > > q p L L / 7.l.>.;.3.$._ / / / _ [ [ O.>./ / / X.a.l.7.w.;._ / / / 3.z._ / / / Y y @ @ Y / / / / ",
"/ / / / / _ >.$.g.$._ H y 3 3 c 6 Y Y / g.X._ _ w.w.O./ / / / O.u.7.7.3.[ / / g.>.3.7.O.[ _ / / O.u.3.X./ / / N ; * f N / / / / ",
"/ / / / / _ ;._ X._ $.V N V _ X.[ 3.H / / _ $.>.;.X.[ / / / _ ;.>.7.;.[ [ / / w.O.7.$.[ [ / / / g.7.w.[ / / S 3 @ V V Y / / / / ",
"/ / / / / / / _ [ L k k Y ;.a.7.z.a.O.w.z./ / ;.[ X._ / / / ;.;.[ >._ X./ / / ! Y [ H V _ / / >.m.w.7.[ / / S V S k k / / / / / ",
"/ / / / / / / / / k y V / u.u.g.w.u.z.z.w.O./ / / [ _ / / / / / X.[ _ [ / / / S q f p f H H [ g.g.u.3._ / / / ! Y Y ! / / / / / ",
"/ / / / / / / / N N L c q / _ O.O.z.M.7.O.[ / / / / / / / / / / / / / / / / Y k k p y ; q q l.a.u.;.O._ / / / / / / / / / / / / ",
"/ / / / / / / / N L N f S > y S O.! 7.$.>./ / / L f c S c o / H f L p k H ! f ; * > 3 > ; ! O.$.7.X.[ / / / / / / / / / / / / / ",
"/ / / / / / / / / Y ; > ; q V S c c O.X.[ / / / k 6 6 y > k y ; 6 q > p > k > > > o 6 ; S L H H [ [ _ / / / / / / / / / / / / / ",
"/ / / / / / / / ! V k ; ; k S f V Y _ _ / / / N f f f o 6 6 * * 6 @ 3 p V q > 3 > 3 6 N c p S Y ! / / / / / / / / / / / / / / / ",
"/ / / / / / / / L y f f H N S k Y H / / / / / N V f f y > * @ * ; p 3 c f f L q q N S L k f f 6 k ! / / / / / / / / / / / / / / ",
"/ / / / / / / / / / f S H Y / / ! L / / / / / / ! N f 3 ; ; q 6 3 L V Y S Y V f Y S Y / S y q k H Y / / / / / / / / / / / / / / ",
"/ / / / / / / / / / / ! L / / / / / / / / / / / / Y f ; o > H S w.X./ $.;.;.w.>.! L / S c f k L Y / / / / / / / / / / / / / / / ",
"/ / / / / / / / / / / / / / / / / / / / / / / / / S > ; c N / Y k [ w.7.w.7.3.O.[ / / S S Y L H L / / / / / / / / / / / / / / / ",
"/ / / / / / / / / / / / / / / / / / / / / / / / S c @ H N ! g.! L ! V $.7.7.X._ _ / / / ! Y Y / / / / / / / / / L k Y / / / / / ",
"/ / / / / / / / / / / / / / / / / / / / / / / / S S Y H N O.S Y ;.V k / X.O.X.[ / / / / / / / / / / / / / / H f f > ; ! / / / / ",
"/ / / X.w.>.X.3.[ / / / / / / / / H f Y N V L Y / ! Y Y X.w./ _ c f p ! c o _ _ / / / / / / / / / / / / / / p 3 f q V H / / / / ",
"/ / / $.3.3.z.g.w./ / / / / L p c p y N p f q k ! / / / / / [ O.c y ; ; q N y Y / / / / / / / / / / / / / k N p > H Y ! / / / / ",
"/ / ;.>.[ a.u.a.u.[ / / / / V k y c N k V p q N k N V f / / / / k k q @ H f y H ! / / / / / / / / / / / / k ! H ! S V / / / / / ",
"/ / _ [ u.u.l.a.X.[ / / / N p 3 3 Y c S k 6 6 3 q > 3 y Y / / / p 3 S Y k p L L ! / / / / / / Y H Y N V p > ! L / / / / / / / / ",
"/ / / / X.;.l.>.$./ / / / Y c f N y * f 3 > ; o q 6 f H L / / / / ! V V N Y H ! / / / / / / / k ; V y 6 ; H H / / / / / / / / / ",
"/ / / / ;.>.X.[ X./ / / / k k k o 6 q q @ 3 * ; @ y Y H / / / / / / / / / ! L S y 6 f N > / H f N f k * c H ! / / / / / / / / / ",
"/ / / / _ [ X.[ / / / / / / ! 3 ; q k > N o c q V c L L / / / / / / / / X.3.[ p 3 y > ; q 6 > k c c q S H V / / / / / / / / / / ",
"/ / / / / / _ _ / / / / / / * ! V S 3 c Y ! 6 k L ! / / / / / / / / / / >.w.[ / p k * > > y q y k ! S H S / / N * H / / / / / / ",
"/ / / / / / / / / / / / / / / Y L >.X.7.7.a.O.! V / / / / / / / / / / ;.;.O.>.3.f ; * o 3 > y H L ! / ! L H S ; c S ! / / / / / ",
"/ / / / / / / / / / / / / / [ ;.w.w.3.7.u.O._ _ / / / / / / / / / / / ;.X.7.$.[ V 6 @ @ 6 q S S ! / / Y p q ; f S Y / / / / / / ",
"/ / / / / / / / / / / / / / O.7.! [ Y 6 O.f c ! / / / / / / / / / / / / [ 3.[ L k ; > 6 f H L L ! / ! V k q c L N Y / / / / / / ",
"/ / / / / / / / / / / / / O.>._ k Y N Y > y Y Y / / / / / / / / / / / / [ X._ _ V k [ N H Y Y / / / L y ! S Y S ! / / / / / / / ",
"/ ! L L L Y / / / / / / / $.O._ ! q L 6 y H H / / / / / / / / / / / / O.g.g.[ / S $.u.3.! / / / / / / / Y H / ! X.3./ / / / / / ",
"/ S q y 6 p V 6 c 6 H / / [ X.! 3.O.3 > Y L L / / / / / / / / / / O.u.m.m.g.7./ ;.>.g.m.X./ / / / / / / / / O.a.u.u.[ / / / / / ",
"Y N c f 3 3 y p 6 y 3 V X.g./ w.>.S H L V L / / / / / / / / / / / 7.m.g._ [ O.[ >.w.a.$.$./ / / / / / / / / 3.a.g.z.X./ / / / / ",
"N c k y p > > @ * 6 ; k ! ;.m.l.O.H / H / / / / / / / / / / / / 3.g.l.Y q L / / _ z.O.$._ / / / / / / / / w.3.z.u.3.$./ / / / / ",
"/ ! c ; > o > > 3 3 N _ a.w.7.7.[ O.! L / / Y k q / / / / / / / 3.$.N 3 6 k ! N S / [ ;./ / / / / / / / / X.7.z.3.g.3./ / / / / ",
"/ / V y > > ; V q N V >.z.;.[ _ X.[ / / / / Y p c V / / / / / / / S > q q y N p N ! / / / / / / / / / / / w.$.O.>.g.M.[ / / / / ",
"/ N k > k H S V V ! 3.X.[ [ $._ / / / / / p o y f ; k q / / / / S c y p p c k S L ! / / / / / / ! S k H / X._ a.z.u.O.O./ / / / ",
"/ Y Y H H V L / / >.M.[ ;.[ / / / / / f o > 6 y 6 k 6 c L / / / S S H k S N S Y Y / / / / / / H 3 > 3 * k Y [ g.M.$.X./ / / / / ",
"/ / / ! ! / / / / g.z.>.u.3./ / / / / 3 @ 6 S 3 y @ 6 f Y / / / / ! Y Y ! L ! Y Y / / / / / / c q p q y q H l.u.>.X.;./ / / / / ",
"/ / / / / / / / m.w.3.3.;.X.[ / / / * c S S k N y q p N Y / / / / / / / / / / / S 6 H / / / k f c 3 f k H [ 3.$.>._ / / / / / / ",
"/ / / / / / / / g.X.u.>._ _ / / / / L Y k L ! 3 c k Y L / / / / / / / / / / / / k S ! / O.>./ ! H H f N H X.O.[ X./ / / / / / / ",
"/ / / / / / / / X._ $._ X.[ / / / / / / ! / / / ! V L L / / / / / / / / / / / y Y 3.u.w.7.3.[ / / / / ! L ! / [ _ / / / / / / / ",
"/ / / / / / / / / / _ / / / / / / / / / / / / / / / / / / / / / / / / / / / / / $._ >.w.;.[ [ / / / / / / / / / / / / / / / / / ",
"/ / / / / / / / / / / / / / / / / / / / / / / / / / / / / / / / / / / / / / / O.w.>.O.>._ X./ / / / / / / / / / / / / / / / / / ",
"/ / / / / / / / / / / / / / / / / / / / / / / / / / / / / / / / / / / / / / / / / [ $.X._ [ / / / / / / / / / / / / / / / / / / ",
"/ / / / / / / / / / / / / / / / / / / / / / / / / / / / / / / / / / / / / / / / / / / / / / / / / / / / / / / / / / / / / / / / ",
"/ / / / / / / / / / / / / / / / / / / / / / / / / / / / / / / / / / / / / / / / / / / / / / / / / / / / / / / / / / / / / / / / "
};
