/* XPM */
static const char *granite_cliff[] = {
/* columns rows colors chars-per-pixel */
"64 64 142 2 ",
"   c #030303",
".  c #080707",
"X  c #0C0C0C",
"o  c #110F0E",
"O  c #141414",
"+  c #191514",
"@  c #1C1817",
"#  c #1C1B1B",
"$  c #231E1D",
"%  c #26201E",
"&  c #28211F",
"*  c #242323",
"=  c #2A2524",
"-  c #2D2827",
";  c #2C2B2B",
":  c #312724",
">  c #322926",
",  c #322C2B",
"<  c #392E2B",
"1  c #3B312E",
"2  c #343434",
"3  c #3C3533",
"4  c #3C3C3C",
"5  c #433632",
"6  c #433934",
"7  c #4A3A36",
"8  c #433C3B",
"9  c #4A3D3A",
"0  c #4D413D",
"q  c #52413D",
"w  c #434343",
"e  c #4C4543",
"r  c #4F4846",
"t  c #4D4C4C",
"y  c #534441",
"u  c #5A4741",
"i  c #534845",
"p  c #5B4B45",
"a  c #544E4C",
"s  c #5C4D4A",
"d  c #55504F",
"f  c #5C524F",
"g  c #545454",
"h  c #5B5655",
"j  c #5D5853",
"k  c #5B5B5B",
"l  c #614B46",
"z  c #624E49",
"x  c #64534E",
"c  c #6B544E",
"v  c #65594F",
"b  c #615752",
"n  c #6F5650",
"m  c #635854",
"M  c #6B5D51",
"N  c #665E5A",
"B  c #725954",
"V  c #6E6155",
"C  c #706357",
"Z  c #73655A",
"A  c #76695D",
"S  c #646464",
"D  c #6B6562",
"F  c #6D6967",
"G  c #6C6C6C",
"H  c #776B61",
"J  c #7A6D63",
"K  c #766E68",
"L  c #7D7066",
"P  c #76716D",
"I  c #7E7369",
"U  c #747474",
"Y  c #7B7B7B",
"T  c #82766C",
"R  c #84786F",
"E  c #907B68",
"W  c #867B72",
"Q  c #897E75",
"!  c #847E7A",
"~  c #8B8077",
"^  c #8D837A",
"/  c #8F857B",
"(  c #91867E",
")  c #92887F",
"_  c #818181",
"`  c #848484",
"'  c #868686",
"]  c #898989",
"[  c #8C8C8C",
"{  c #938980",
"}  c #958B83",
"|  c #998F87",
" . c #9C938B",
".. c #909090",
"X. c #979797",
"o. c #9E9894",
"O. c #989898",
"+. c gray60",
"@. c #9D9D9D",
"#. c #9F9F9F",
"$. c #A0978F",
"%. c #A19790",
"&. c #A29991",
"*. c #A39A93",
"=. c #A79F98",
"-. c #ABA39C",
";. c gray64",
":. c #A5A5A5",
">. c #AEA7A0",
",. c #A9A9A9",
"<. c #AEAEAE",
"1. c #B2ABA5",
"2. c #B5AEA9",
"3. c #B8B1AB",
"4. c gray69",
"5. c #B1B1B1",
"6. c #B4B4B4",
"7. c #B7B7B7",
"8. c #BDB7B1",
"9. c #BFB9B4",
"0. c gray72",
"q. c #B9B9B9",
"w. c #C1BBB6",
"e. c #C4BEBA",
"r. c #C6C2BD",
"t. c #C9C3BF",
"y. c gray77",
"u. c #CBC6C2",
"i. c #CDC9C6",
"p. c #CBCBCB",
"a. c #D1CDC9",
"s. c #D5D1CD",
"d. c #D5D4D3",
"f. c #DBD7D4",
"g. c #DEDCDB",
"h. c #E1DFDC",
"j. c #E3E1DE",
"k. c #E5E4E4",
"l. c #E9E7E6",
"z. c #EDECEB",
"x. c #F2F2F2",
"c. c #FDFDFD",
/* pixels */
"q.q.q.q.q.q.q.q.q.q.q.q.q.q.q.q.q.q.q.q.q.q.q.q.q.q.q.q.q.q.q.q.q.q.q.q.q.q.q.q.q.q.q.q.q.q.q.q.q.q.q.q.q.q.q.q.q.q.q.q.q.q.q.q.",
"q.q.q.q.q.q.q.q.q.q.q.q.q.q.q.q.q.q.q.q.q.q.q.q.q.q.q.q.q.q.q.q.q.q.q.q.q.<...,.q.q.q.q.q.q.q.q.q.q.q.q.q.q.q.q.q.q.q.q.q.q.q.q.",
"q.q.q.q.q.q.q.q.q.q.q.q.q.q.q.q.q.q.q.q.q.7.:.<.7.q.q.q.q.q.q.q.q.q.q.7.q.q.:.+.7.q.q.7.,.,.7.q.q.q.q.q.q.q.q.q.q.q.q.q.q.q.q.q.",
"q.q.q.q.q.q.4 w w * - 4 q.q.q.q.q.q.q.q.q.7.;.;.5.q.q.q.q.q.q.q.q.q.q.5.7.#.q.' 5.<.q.7.:.#.<.q.q.q.q.q.q.q.q.q.q.q.q.q.q.q.q.q.",
"q.q.q.q.2 2 * 4 # X 2 t h k k q.q.q.q.7.7.<.<.X.<.7.q.q.q.q.q.q.q.....X.X.,.q.q.:.5.7.5.<.;.;.7.^ q.q.q.q.q.q.q.q.q.q.q.q.q.q.q.",
"q.q.q.w 4 2 w ; # # 2 t k k g q.q.,.:.;.:.:.7.:.,.5.7.q.q.q.5.+.<.q.' #.5.+.q.Y U _ :.:.<.,.:.&.&.( { I Z Z M M q.q.q.q.q.q.q.q.",
"q.q.q.h 2 4 4 . # 4 w g k k w #.,.:...+.;.;.7.:.X.;.7.q.5.:.<...#.,.7.[ q.' ' <.+._ X.X.<.:.Z { ~ / Q Z R | A M M M q.q.q.q.q.q.",
"q.q.q.k h h 2 # 4 2 h k k t 7.#.#.<.;.+.<.X.#.#.w * # 5.,.#.[ 5.] 7.#...5...5.#...+.[ ;.+.#.| J L Z Z c / R H p H Q q.q.q.q.q.q.",
"q.q.q.q.k 2 2 h g t h q.5.7.:.:...:.,.X.<.X.#.w # ; 2 4 [ ..] <.:.,.5.q.+.] <.5.Y #.[ ;.X.:.:.Z L C M / J M v 1 ~ / q.q.q.q.q.q.",
"q.q.q.q.q.q.q.q.q.q.#.+.+.#.:.7.,.,.,.:.:.X.2 ; ; * X 2 w :.] ,.] ] ] ] ] q._ +.:.U U n n 5.#.:.5 5 v A 7.7.q.-.I Z q.q.q.q.q.q.",
"q.q.q.q.q.q.q.q.q.q.5...+.,.;.# 2 ; # ; # ; * # * * 2 2 w 5.U U X.[ ' <.;.f f c f n n n n n n #.+.:.7.q.7.7.q.q.q.q.q.q.q.q.q.q.",
"q.q.q.q.q.q.q.q.:.5.O O . 4 O 2 2 # 4 # ; * * 2 # 2 4 w w w Y X.] +.x f y = 1 f f c n n n n n #...;.5.5.5.7.q.q.q.q.q.q.q.q.q.q.",
"q.q.q.q.q.q.q.q.5.* # ; * O # 4 ; 2 4 ; # X ; 2 # * ; 2 w w _ ,.:.f x f 6 < 2 % 1 d c x c c f ;.+.<.7.5.5.7.q.q.q.q.q.q.q.q.q.q.",
"q.q.q.q.q.q.q.7.w 2 2 4 ; * 2 4 w w 4 * * 2 2 ; * 2 * . 4 w :.U f x c 3 , i 2 , 4 3 1 f x f f ;.#.7.7.q.q.q.q.q.q.q.q.q.q.q.q.q.",
"q.q.q.q.q.q.q.<.w w w * * 4 *   2 * * . * 4 ; * 4 2 # 4 2 w ;.8 # 9 3 3 8 @ & , 2 $ + q 3 <.<.:.:.5.7.q.q.q.q.q.q.q.q.q.q.q.q.q.",
"q.q.q.q.q.;.:.;.+.w w 4 4 2 O 2 # # * ; 2 2 4 4 2 U [ Y #.' X.- q 1 * 3 , $ > # # # # , = ;.<.5.5.7.7.q.q.q.q.q.q.q.q.q.q.q.q.q.",
"q.q.q.q.q.;.] ..+.[ +.[ ' . w * ; * * ] #.] [ ....[ #.+.#.;.U ;.6 < 0 = o < 5 3 + , , - 0 #.q.q.q.7.q.q.5.X.:.7.q.q.q.q.q.q.q.q.",
"q.q.q.#.+.X.' ' <.[ ..X.+.[ X.+._ ] U :.#.[ +.' X.:.] U U ] U ;.[ 7 i # u l + , # #.,.+.+.X.5.q.q.7.7.q.q.,.#.5.q.q.q.q.q.q.q.q.",
"q.q.q.:.X.[ +._ ,.Y U ' ..+.Y Y ..G ..X...U U _ ' ' X._ G ] [ ;..._ - > z z z +.7.#.#.<.[ X.5.7.5.7.5.7.;.5.[ ,.5.7.q.q.q.q.q.q.",
"q.<.<.5.;.#.+.[ Y Y <.[ U ..k M M ] ;.] Y ] i.w.&.U [ X.U [ X.U X.5.;...[ [ 5.;.7.q.X.1.I &.W I ....X.M M X.:.:.5.q.q.q.q.q.q.q.",
"q.7.<.5.,.+.[ [ _ X.[ [ U U  .8.=.A W M Q h.i.W { V M ..Y ....+.#...#.X.X.,.7.,.#.q.2./ / ^ Q Z V M M V A J | ' [ 5.q.q.q.q.q.q.",
"q.q.7.7.5.;.Y ' ] X.U U _ ^ -.1.( 2.k.>.d.t.=. .Z M M ] X...U _ +.] X.:.+.:.:.7.] $.T  .L V V A J R R R  .Q Q ,.;.,.,.5.5.7.q.q.",
"q.q.q.q.:.' G _ _ _ U S R -.-.L / 3.( g.r.%.i.3.( 2.M Y U Y ' Y ' X.] U U [ +.7.+.~ C H A / L M I  . .Q ~ Q Z [ ,.:.5.q.q.q.q.q.",
"q.q.7.,...#.;...[ ] ] U C } R R f.R t.T W 2.-.R 9.w.J U ' ;.:.#.X...Y ' ;.,.#.;.:.<.V A J ^ T L ^ ^ } T Z V A U [ #.5.7.q.5.7.q.",
"q.q.q.5.:.,.X.] ] U ] Y ] M M C V A &.J 2.&.A 1.,.,.X.,.+.#.#.+.] ] ....+.,.,.,.5.5.q.q.T H Z R E A H V J U .._ ] ' #.5.5.7.q.q.",
"q.5.....X.+.,.+.X.] #.' U Y X.:.Y +.M V Z V ....+.,.#.#.X.,.#.+.;.X.] +.#.+.:.4 w q.7.7.q.q.q.,.4 2 * w _ ;.+...] [ ,.5.,.5.q.q.",
"q.q.<.] ;.:.+.+.U U ' [ U #.] :.+.Y [ _ _ +.X.,.;.;.<...] #.] U ] #.#...# 2 2 w w 4 ; 2 ; X ; # * # # 4 w w [ G G U <.7.q.5.7.q.",
";.7.<.<.X.,.' ' :.#._ +...5.[ ] 5.U X.U X.:.:.5.7.+.<.X.#.:.] ..<.<.  4 4 4 4 ; O * # O O X O ; # ; 4 4 w w 2 ;.Y U ..,.7.5.q.q.",
"7.,.7.#.X.<.#.5.X...X.:.;.,.q.U <.[ ;.+.<.:.,.;.5.;.5.] ..;.<.<.:.O ; ; 4 2 O O . . O . # # * 4 * 4 2 w w w * [ _ ] ' ,.,.<.q.q.",
"7.5.q.q.5.+.X.5.,.[ <.:.,.X.7._ 5.] <.5.7.,.7.X.,.7.5.#.#.X.:.5.. X 4 2 O O O # X   X X . ; 4 7.+.k k w w * ; 4 G ;...<.7.q.5.q.",
"q.q.5.[ ] X.<.] ;.,.] ..5.[ 5.<.<.#.7.<.q.5.7.;.<.5.5.:.<.[ ,.w O o . * # k U 4 U * * O 2 ; ] :.#.d.,.U ,.k w 2 _ U G ] ,.7.7.q.",
"q.<.X...7.<.7.5.:.,.X.+.5.X.:.<.<.7.7.r 5 8 q.X...+.#.:.7.5.,.5.# X O # w ;.X._ +.k O 2 k X.:.,.f.:...:._ G w 2 ' Y ] ;.:.;.<.7.",
"q.q.7.<.5.#.5.<.[ <...5.q.<.5.5.c $ w < = 1 = $ 3 + 9 < 5 c c X.5.7.5.t ] G X.[ k e 4 4 k G Y g.p.,.l.:.G G w w #._ X.,.,.,.7.q.",
"q.q.q.q.q.5.X.q.7.<.[ 7.5.5.5.c : f 8 1 8 3 , p > 9 7 6 x c f :.,.:.<.t ] g +.k S t w w k U q.U ' 7.y.#.5.k :.[ :.' #.+.,.<.q.q.",
"q.q.q.7.:.5.X.<.7.<.7.5.<.5.n c f s , 8 4 $ s % y z 1 c c s a f :.5.5.#.w t k q.y.q.q.q.k k U G y.U U 7.q.G M -.9.[ ;.....;.7.q.",
"q.q.q.q.q.7.:.q.q.q.q.q.q.q.n n x c x a r ! f.q.h 0 s p 8 f f f ;.5.7.:.+.5.q.q.R 8.=.#.#.5.q.q.q.q.7.:...J $. .^ -. .;.X.:.5.5.",
"q.q.q.q.q.q.7.5.q.q.q.q.q.q.n n n c d U ,.:.p.y.U k S U b f c f [ :.:.I 3.r.w. .-.>.( J M ,.q.q.q.q.q.7.) } &.L 3.e.| ;.+.5.q.7.",
"q.q.q.q.q.7.<.q.q.q.q.q.q.q.B n n n m y.z.p.d.5.<.q.X.d.J c c c Y .. .f.k.j.( -.>.J A W 8.#.5.7.q.q.q.L Q A A V $.9.-.#.#.7.7.q.",
"q.q.q.q.q.q.q.q.q.q.q.q.q.q.q.n n n n p.y.p.q.<.q.#.<._ 7.X.:.U ] d.l.z. .&.J  .L / -.1.>.<.<.7.q.q.A / J | Q ~ &.~ 5.<.5.5.5.q.",
"q.q.q.q.q.q.q.M A -.f.9.u.q.q.q.q.n i.] 7.<.[ p.U q.Y G +.,.<.' [ ,.f.&.} ^ V ~ -. .s.r.R U U #.q.q.q.M R ^ H ( / L 7.7.q.7.q.q.",
"q.q.q.q.q.q.Q a.8.3.r.-./ R M q.q.q.q.q.X.G U ' G Y ;.[ +.,.,.[ ' #.X.( ^ %.g.-.i.2.| ! ;.5.+.+.,.5.7.7.q.q.q.7.5.7.q.q.q.q.q.q.",
"q.q.q.q.q.M | 2.i.^ 2.J Q M M q.q.q.q.q.G k k k ;.5.;.' +.,.7.<.#.+...5.7.[ :.>. .D K #.#.......:.7.<...,.q.q.5.5.q.q.q.q.q.q.q.",
"q.q.q.q.M -.-.Z Q J ~ C R M M q.q.q.:.5.5.;.+.<.X.#.#.#...:.;.X.] ] ;.X.#.;.....X._ U _ ;.+.#.;.#.7.q.;.X.7.q.7.7.q.q.q.q.q.q.q.",
"q.q.q.q.q.M C W R V Z M M M M q.q.7.+.X.,.:.' :.X.#.X._ ' ' [ ] :.#.X.f h N D 2 4 U U [ _ +.' S U #.+.q.' 5.<.q.q.q.q.q.q.q.q.q.",
"q.q.q.q.q.q.q.q.M M M M q.q.q.7.7.7.5.X.;.;.[ X.X.<.+.U ' X.#.f f d f a y ; 4 = 3 % 6 7 q c p d d ' X.:.5.;.7.q.q.q.q.q.q.q.q.q.",
"q.q.q.q.q.q.q.q.q.q.q.q.q.7.5.; ; 2 2 * +.X...U [ ..X._ _ ' a x t q > , 1 # - 4 O y u 5 s z f d d x c q.' ' ..q.q.q.q.q.q.q.q.q.",
"q.q.q.q.q.q.q.q.q.q.q.q.q.,.* X # 4 w ; * ; ..' ;.[ ] Y S c x f i < + + , 2 6 y 8 s 7 t 0 e r 2 9 1 = ' q.7.;.<.,.7.5.q.q.q.q.q.",
"q.q.q.q.q.q.q.q.q.q.q.7.7.w ; * ; 2 # O * 4 ] U U [ [ [ U c f s < $ , - 9 y i r i x 3 1 3 . , * 2 7 c 5.#.#.7.;.q.q.q.q.q.q.q.q.",
"q.q.q.q.q.q.q.q.q.q.q.<.w * * w 4 w ; * * 2 w U U ] _ U 4 k c x 3 - 8 8 a 0 8 e = - - , = ; - 8 . s _ 5.<.Y 5.;.q.7.q.5.q.q.q.q.",
"q.q.q.q.q.q.q.q.q.q.q.q.w w 4 ; ; O . ; 4 w w Y G U S U k ] k G G U U Y d - o 9 > 5 u O 8 4 8 U U U 5.' #.5.' [ <.q.7.q.q.q.q.q.",
"q.q.q.q.q.q.# ; 4 2 w w 2 * 2 # * O O # 2 w w w h G G _ U U Y U U U U ] U S U ] G U G U [ .._ G X...<.5.;.5.X.#.5.5.,.5.q.q.q.q.",
"q.q.q.q.w ; # X # . ; 2 * # * * O * * O * 4 2 w w w S ..G ' g h b v f k U U U U U G S _ ..U _ U #.X.,.5.' q.] <.q.q.q.q.q.q.q.q.",
"q.q.q.w ; * # # O # # # ; * * 4 * ; # O O .   4 w w h Y S k G Z C V R V F U _ U ' G G U U Y [ ] #.<.' 5.5.q.' q.5.q.q.q.q.q.q.q.",
"q.q.w w ; . O . O O ; $ 4 2 w 4 4 ; O O X . * ; w w G #._ U R } W R d.o.r.#.j G Y U _ ' ] +.Y ] ] ,.] :.7.<.7.5.<.q.q.q.q.q.q.q.",
"q.q.q.; * * O . * * 2 4 w 2 w w w ; # .   4 2 4 w w +.U U ' R T L Q  .d.l.P D Y +.] ' .._ :.f d f d #.7.7.7.q.q.q.q.q.q.q.q.q.q.",
"q.q.2 O # 2 O # 2 4 4 4 f.k.5.,.:.S 2 2 2 ; * w ..S U U +.~ R V }  . .=.^ ~ b [ X._ U ..] f d a f d f a 7.q.q.# 3 $ q.q.q.q.q.q.",
"q.q.q.2 ; O 2 4 4 4 x.l.#.;.U [ G U U k 4 w w [ [ G X.;.M V A ) { ^  .H W +.' X.' X.] #.x x t > O 3 X 4 - ; - , - < , 2 q.q.q.q.",
"q.q.q.q.q.q.q.q.q.q.7.X.5.y.U ;._ U ,.k k k w 5.7.....M C T / &. .Z v K ^ 5...:.#.,.X.x c d x - e % 2 * 2 # 3 - $ 5 * 5 q.q.q.q.",
"q.q.q.q.q.q.q...q.p.g.c.7.q...7...7.5.G k k 7.q.<.7.] <.J |  .Q L I A d 7.,.<.5.<.7.<.x x u > x + 8 4 $ 3 , , = @ * l i q.q.q.q.",
"q.q.q.q.q.q.q.,.,.:.d.y.<.[ :.Y <.X.G G k k q.q.<.5._ 5...:.7.,.5.5.#.5.q.7.7.q.q.<.,.#.x x t i * X - * , $ # , 2 q.q.q.q.q.q.q.",
"q.q.q.q.q.q.q.' ..x.G 5.S +._ G <.S U k q.q.q.q.q.7.<.5.;.q.q.q.q.q.7.5.7.q.q.q.q.7.5.,.,.7.7.7.q.7.q.q.q.q.q.q.q.q.q.q.q.q.q.q.",
"q.q.q.q.q.q.q.q.G G U +.k U k G S k U k q.q.q.q.q.7.5.5.q.<.q.q.q.7.5.7.q.q.q.q.q.q.q.7.5.7.q.q.q.q.q.q.q.q.q.q.q.q.q.q.q.q.q.q.",
"q.q.q.q.q.q.q.q.q.q.q.k k k k k k k q.q.q.q.q.q.q.q.5.7.<.q.q.q.q.q.q.q.q.q.q.q.q.q.q.5.5.q.q.q.q.q.q.q.q.q.q.q.q.q.q.q.q.q.q.q.",
"q.q.q.q.q.q.q.q.q.q.q.q.q.q.q.q.q.q.q.q.q.q.q.q.q.q.q.q.q.q.q.q.q.q.q.q.q.q.q.q.q.q.q.7.7.q.q.q.q.q.q.q.q.q.q.q.q.q.q.q.q.q.q.q."
};
