/* XPM */
static const char *grass_cold[] = {
/* columns rows colors chars-per-pixel */
"64 64 34 1 ",
"  c #AFBF56",
". c #A7B95B",
"X c #A5B85D",
"o c #AABB59",
"O c #ABBD59",
"+ c #ADBF59",
"@ c #AEC058",
"# c #B7C753",
"$ c #B0C057",
"% c #B2C257",
"& c #B7C755",
"* c #B4C456",
"= c #B4C457",
"- c #BAC753",
"; c #BAC754",
": c #BBC953",
"> c #BFCB52",
", c #BFCC52",
"< c #B8C854",
"1 c #BBC954",
"2 c #BCCA55",
"3 c #BFCC54",
"4 c #B1C158",
"5 c #B4C458",
"6 c #C2CE53",
"7 c #C5CF52",
"8 c #C0CC54",
"9 c #C3D052",
"0 c #C7D252",
"q c #C8D352",
"w c #CAD551",
"e c #CCD651",
"r c #CED851",
"t c #D0DA51",
/* pixels */
"r24%30008&+&ew260900wrrX;w6&500266860qrreww2100&%1126;;1&&6&1wee",
"6&4%1ew2&&&&ww6&2629we3.ww01&13552360weerw80212&%&&>6&%+%&%&2ww0",
"1,&26w01&%&>ww02&2200w2&q006661+4%260w0q0;&21.X.o%+&1&226&+ +762",
"2,&86062&+&2611&&169066&1060066&44236063160q06% %,&+O&ww>&&Oo%+%",
"2w690w003&&600ee023www01606q06q6&%&2666660qwq2-:%++4&;e210w6%+:6",
"%0010e06622+&wer0110wr@0qq6qw0004o+&&132,6006226&oo;06&80er06%&2",
"&,1&2q666q613wew6&&0ew6063wq006w631122;1121>6>1&%4%&e6&4&eq06;,1",
"&2%%260qq>220ww02260q2;q2;9q2300wr0%&9211,1>6&4% &:,0&>&4q0601%4",
"%&%+,206>,>2262112006613663039wqw0211&136>>12&1;&%>01%>2&&&2w2++",
"4%%O22066006862&;2666622000912289303212211>%&1&&&&>01&%%1600e2O%",
"+O+%&16qwqw066;&1266002q06062&3qww6122666,&4+&%4%&16,,&o&>&24+o%",
"4+&2:1&0000663222060w36wq62263&0re62,60601&%%1&:16>21,01&6www&@&",
"21281%9q61666666>2&6w660063&10w8wre220612%%&12%160q>16ww6&6q0&11",
"6qq61826,21%%,362;26w28062%&29ee6qw26w02&+&200%&6062&8www6&,6&63",
"1qq3,61>>:3&13&&+44&4&1&&1&1&2qrw2636001&&&6w,%1&&1626wq661%%46,",
"2wwww0321,6&&30311%%&&&26216220req61286&&6213,20686612900w6%4202",
"w0232662&1222006601;&&4&2&6wwwwrw0w6222&6wq1&;;60qqw6,21>3&4&%%6",
"04qwe811&&1100wwww266&+O&&0errww0092226,60q61&%6ww00;>&&&21&1440",
"wrrtrw02%%1360wrr030q214O%2wrrrew62126062260812q0062%%2114&2606&",
"&0rtrq31&12,36wee6666360&+&1qtterw011,wq2200663666&&120w01&2qwr9",
"020re6&&390,86w0023311qw6&%%1wrqer,&410e00066689&O4&30rew02&3ewr",
"r02q0&%&666,1200w06320we6%22&208qw& 4&6wwww60036&+O&10ere06320wr",
"rw6&&%%10662&2,666116qew12221&1226&&2&&0eww0q62&++&&&6we0690616r",
"w62;&113062222111120eee6&1&206&&81&;0600w860q3%%%&11&6q66qwww21w",
"01&1131206&22&&&&1>0rte0qw32606544%6q0ww026002%%&112316226060q36",
"41,0611200,>1%++&160rwqwrr62q6214%&662w6086,21132;19wq6900wwrwq&",
"426662;2&2:>&Oo+%&13900qee2189&4O++O%&%602w1426q2&10wq630000ww01",
"211&10210>>#%%% 12100260w6216261&661&qw0&3q0600q6&&0q63336630012",
"01&%160,,001&%;,6616,666&q6&200w3002&%w012211;0w000qqw061&;22&3q",
"w1&660ww,>6811660016,;6&>0%4;2160q2112&&%1;%6we0w0wewwq92%&24&6w",
"e1600www621,0122q01&>3&&6112666qww1&&21%&%oO1w00,10eeww02&&%+&qe",
"2600ewwrw611q321662&1%&&%&15300wrw61&&&203+&1146029reer0X81&%20w",
"66860qrreww2100&%1226&;1&&6&1weer24%30008&+&ew260900wrrX;w6&5002",
"523,0weerw80212&%&&>,&%+%&%&2ww06&4%1ew2&&&&qq6&2629we3.ww01&135",
"4%260w0q0;&21.X.o%+&1&226&+ +7621,&26w01&%&>ww02&2200w2&q006661+",
"44236063160qq6% %,&+O&ww>&&Oo%+%2,&86062&+&2611&&169066&1060066&",
"&%&2666660qwq2-:%++4&;e210w6%+:62w690w003&&600ee023www01606q06q6",
"4o+&&132,6006226&oo;06&80er06%&2%0010e06622+&wer0110wr@0qq6qw000",
"631122;1111>6>1&%4%&e6&4&eq06;,1&,1&2q666q613wew6&&0ew6063wq006w",
"wr0%&9211,1>6&4% &:,0&>&4q0601%4&2%%260qq>220ww02260q2;q2;9q2300",
"w0211&136>>11&1;&%>01%:1&&&2w2++%&%+,206>,>2262112006613663039wq",
"9303212211>%&1&&&&>01&%%1600e2O%4%%O22066006862&;266662200091228",
"ww6122666,&4+&%4&&16,,&o&>&24+o%+O+%&16qwqw066;&1266002q06062&3q",
"re62,60601&%%1&:16,21>01&6www&@&4+&2:1&0000663222060w36wq62263&0",
"wre220,12%%&12%&60q>16ww6&6q0&1121281%9q61666666>2&6w660063&10w8",
"6qw26w02&+&200%&6062&8www6&,6&636qq61826,21%%,362;26w28062%&29ee",
"w2636001&&&6w6%1&&1626wq661%%46,1qq3,61>>:3&13&&+44&4&1&&1&1&2qr",
"eq61286&&6213,20686612900w6%42022wwww0321,6&&30311%%&&&26216220r",
"w0w6222&6wq1&;;60qqw6,21>3&4&%%6w0232662&1222006601;&&4&2&6wwwwr",
"0092226,60q61&%6ww00;>&&&21&144004qwe811&&1100wwww266&+O&&0errww",
"w62226062260812q0062%%2114&2606&wrrtrw02%%1360wrr030q214O%2wrrre",
"rw011,wq2200663666&&120w01&2qwr9&0rtrq31&12,36wee6666360&+&1qtte",
"er,&410e00066689&O4&30rew02&3ewr020re6&&390,86w0023311qw6&%%1wrq",
"0w& 4&6wwww60036&+O&10ere06320wrr02q0&%&666,1200w06320we6%22&208",
"26&&2&&0eww0q62&+4&&&6we0690616rrw6&&%%10662&2,666116qew12221&12",
"81&;0600w860q3%%%&12&6q66qwww21ww62;&113062222111120eee6&1&206&&",
"@@%6q0ww026002%%&112316226060q3601&1131206&22&&&&1>0rte0qw326065",
"4%&662w6086,21132;19wq6900wwrwq&41,0611200,>1%++&160rwqwrr62q621",
"O++O%&%602w1426q2&10wq630000ww01426662;2&2:>&Oo+%&13900qee2139&4",
"&661&qw0&3q0690q6&&0q63336630012211&10210>>#%%% 12100260w6216261",
"3002&%w012211;0e000qqw061&;22&3q01&%160,6001&%;,66166666&q6&200w",
"0q2112&&%1;%6we0w0wewwq92%&24&6ww1&660ww6>68116600166;6&>0%4;216",
"ww1&&21%&%oO1w00,10eeww02&&%+&qee1600www621,0112q01&>3&&6112666q",
"rw61&&&203+&1146029reer0X81&%20w2600ewwrw611q321662&1%&&%&15300w"
};
