/* XPM */
static const char *grass[] = {
/* columns rows colors chars-per-pixel */
"64 64 36 1 ",
"  c #ADDF1F",
". c #AFE11F",
"X c #B1E21E",
"o c #97CD2F",
"O c #99CF2F",
"+ c #9DD22C",
"@ c #8FC637",
"# c #8DC53A",
"$ c #90C736",
"% c #95CB33",
"& c #94C934",
"* c #94CB34",
"= c #95CB34",
"- c #94CA35",
"; c #98CD31",
": c #98CE30",
"> c #90C738",
", c #9AD030",
"< c #A2D727",
"1 c #A4D727",
"2 c #A7DA23",
"3 c #A3D827",
"4 c #A7DA25",
"5 c #AADB22",
"6 c #ABDE22",
"7 c #ADDF21",
"8 c #A8DB24",
"9 c #A9DC24",
"0 c #A0D32B",
"q c #A3D728",
"w c #A1D52A",
"e c #A4D728",
"r c #A0D42C",
"t c #A5D828",
"y c #AEE020",
"u c #B0E220",
/* pixels */
"X+*;w988w;*;.7+w44487XX#+7t;;48+e4w<46XX.6 ++92;*++w4O++;+4;+7y.",
"t+*%+.7+;;O+774++4+47Xw#7y4+;+w;;ww<67..X7w5w++O*O+w<;%*;+;;+y.6",
"+<;w469+;;+w7y6+;++84yr;684444+**;ww67968+;w+###@%*O++w+4+$*>44w",
"wwOwe4w+;*;+w++,;+w4944;+646444,*;+w494w+46764;*%w;*@;77w+O@@**;",
"+ 146y69w;O396..6+w7779+w846846w;;;we44t44666w++%*>*;+.0+2.4;*+4",
";58+5.8t4w0*O7.X6++8yX*866467964*@*;O+w+w4864+w4O@@+64+w6.X81*;+",
";<+;w6we463+w7.74;+4y7w6ww769446tw++w++++++w<++O%*%O.4;*+.65<+<+",
";+%;w4566www4676w+w86w+6w+46ww997X6%;4+++w+w4O***;+w2+wO*6446+%*",
";;%*<w61<w++w4w++w9444+w41w4w479y9w++++wwww+++++;;w8+%++;O+w w$*",
"*%%@++444621w4+++wtt44ww8694++wwtw4ww+ww++w;;+;;O+w6+;*%+366.+@;",
">@*;;+w6.6664w+++w4448w66144+;w97y4+wwwtww;**;;*;;+4<wO@OwOw*$#;",
";$;w++O495444ww+w5447ww76ww+ww;8XX4ww48t8+;%%+;++<<w+w6+O<. 6;*;",
"w++w+;474+<444ewww;t74w49ew;+97w7Xyww8w+w;;O+w*+466w+4  4O<65O++",
"w664+w+4<++;;ww4++ww6ww84w;;+4yyw67w<76w+*;w64*+444w+e777e;ww;4w",
"+76w<<+w<+w;+w;;***,*;+;;+;+++6X7w4w184+;;;47<*++;+ww46644+%;*<w",
"w777 4w++w<+;w8w++;;;;+w4w+4wr4Xy6w+ww<++4++www44w4w+w4846w;*w4w",
"79wwweew;+w+w68449+++;*;w+e7777u997e++w+466+;++48666ew++ww+;;;%w",
"6*67Xw++;;++867yy7w4w+*@OO6.XX77884wwwww466t+;;<6688+w+;+w+++**8",
"7XXXX79w;;+w487XX9w46w+*@;w7XXXy7w++w464+w44w++6564+;;+++*;+46e,",
",4XXX6w+;+www16y.wtw1w45+$;+6XXyXy8++w76+0884ew4w<+++w678++w67X4",
"9+8X.1;+w46ww4666www++6 4;%;+yX9yX<;*+4.886444w4;@*;w6X.y6+Ow.7X",
"X8w64+;+444w++4679www4y.4;w+;w8w67;**;<77y7468w4;$@;+9XX.4tww57X",
"X 4O;;;+84ww;ww444++46.7+w+w+;+rrt;;+;+4.77661w;**;;;4yX8444w+tX",
".4w+;++w81+w+++++++8yXXt++;+8w;;e+;+44467w<56w;;;O++;e6446777++6",
"4++++w+w64+ww++;O+w5XXy967ww48w;**;466..6w148+%;+++ww+w+w46456wt",
"*+w44++w88w<+%**;+48u.67XX4+6w++*;;14+748w4<w++ww++466t4896.Xy6,",
";w44<++w+w++o@@$%o+w4489XXw+w4+*@>*@*;;t8w7+*w46+;+9764w4968776+",
"w++;+4w+8ww+;%%*+w+84+w674w+4+<++44+;6y8+w75w4464;O46wwwww4w84+w",
"8+O%+45w<62+;;+we4+4we44;6w+w996w88w;%78+ww+++9.84667794+;+rw;w9",
"6+;1497.<w4w+01<64+3w+e+w4;*+w+t46w++wO;;++;4yy875 yyy64w;,w*;47",
".+4447774w+w4++w65+Oww+O4+++eww6y.+;+w+;;;@@+754w+6.X7y9++;;*+6.",
"+e96y67X73++6ww+41+O+%;;%;+;w497X74++;,+4w*;++*44w4XuuX4#w+;;r47",
"e4w<46XX.6 ++92;*++w4O++;+4;+7y.X+*;w988w;*;.7+w44487XX#+74;;48+",
";ww<67..X7w5w++O%O+w<;%*;+;;wy.6t+*%+.7+;;O+774++4+47Xw#7y8+;+w;",
"*;ww67968+;w+###@%*O++w+4+$**84w+<;w469+;;+w7y6+;++84yr;684444+*",
"*;+w494w+46764;**w;*@;77w+O@@%*;wwOwe4w+;*;+w++,;+w4944;+9t9444,",
";;;we44t44666w++%*>*;+.0+2.4;*+4+ 146y69w;O396..6+w7779+w846846w",
"*@*;O+w+w4864+w4O@@+64+w6.X41*;+;58+5.8t4w0*O7.X6++8yX*866467964",
"tw++w++++++w<++O%*%O.4;*+.65<+<+;<+;w6we463+w7.74;+4y7w6ww769447",
"7X6%;4+++w+w4O***;+w2+wO*6446+%*;+%;w4566www4676w+w86w+6w+46ww99",
"y9w++++w<<w+++++;;w8+%++;O+w w$*;;%*<w61<w++w4w++w9444+w41w4w479",
"tw4ww+ww++w;;+;;O+w6+;*%+366.+@;*%%@++444621w4+++wtt44ww8694++ww",
"7y4+wwwtww;%*O;*;;+4<wO@OwOw*$#;>@*;;+w6.6664w+++w4448w66144+;w9",
"XX4ww48t8+;%%+;++<<w+w6+O<. 6;*;;$;w++O495444ww+w5447ww76ww+ww;8",
"7Xyww8w+w;;;+w*+466w+4  4O<65O++w++w+;274+<444ewww;t74w49ew;+97w",
"w67w<66w+*;w64*+444w+e777e;ww;4ww664+w+4<++;;ww4w+ww6ww84w;;+4yy",
"7w4w<44+;;;47<*++;+ww46644+%;*<w+76w<<+ww+w;+w;;***,*;+;;+;+++6X",
"y6w+ww1++4++www44w4w+w4846w;*w4ww777 4w++w<+;w8w++;;;;+w4w+4wr4X",
"997e++w+466+;++48666ew++ww+;;;%w79wwweew;+w+w68449+++;*;w+e7777u",
"884wwwww466t+;;<6688+w+;+w+++**46*67Xw++;;++867yy7w4w+*@OO6.XX77",
"7w++w464+w44w++6564+;;+++*;+46e,7XXXX79w;;+w487XX9w46w+*@;w7XXXy",
"Xy8++w76+0884ew4w<+++w678++w67X4,4XXX6w+;+www16y.wtw1w45+$;+6XXy",
"yX<;*+4.886444w4;@*;w6X.y6+Ow.7X9+8X.1;+w46ww4666www++6 4;%;+yX9",
"67;**;<77y7468w4;$@;+9XX.4tww57XX8w64+;+444w++4679www4y.4;w+;w8w",
"rt;;+;+4.77661w;**;;;4yX8444w+tXX 4O;;;+84ww;ww444++46.7+w+w+;+r",
"e+;+44467w<56w;;;O++;e6446777++6.4w+;++w81+w+++++++8yXXt++;+8w;;",
"**;466..6w148+%;+++ww+w+w46456wt4++++w+w64+ww++;O+w5XXy967ww48w;",
"*;;14+748w4<w++ww++466t4896.Xy6,*+w44++w88ww+%**;+48u.67XX4+6w++",
"@>*@;;;t8w7+*w46+;+9764w4968776+;w44<++w+w++o@@$%o+w4489XXw+w4+*",
"+44+;6y8+w75w4464;O46wwwww4w84+ww++;+4w+8ww+;%%*+w+84+w674w+4+<+",
"w88w;%78+ww+++9.84667794+;+ww;w98+O%+45w<62+;;+we4+4we44;6w+w996",
"46w++wO;;++;4yy875 yyy64w;+w*;476+;1497.<w4w+01<64+3w+e+w4;*+w+t",
"y.+;+w+;;;@@+724w+6.X7y9++;;*,6y.+4447774w+w4++w65+Oww+O4+++eww6",
"X74++;,+4w*;++*44w4XuuX4#w+;*r87+e96y67X73++6ww+41+O+%;;%;+;w497"
};
