/* XPM */
static const char *highland[] = {
/* columns rows colors chars-per-pixel */
"64 64 93 2 ",
"   c #656565",
".  c #6D6D6D",
"X  c #747474",
"o  c #7C7C7C",
"O  c #9D6D52",
"+  c #A16E52",
"@  c #A57155",
"#  c #AB7455",
"$  c #A37459",
"%  c #AC7659",
"&  c #AE795C",
"*  c #B27656",
"=  c #B97A57",
"-  c #B17758",
";  c #B47B5B",
":  c #BA7D5B",
">  c #B37D61",
",  c #BA7F61",
"<  c #779436",
"1  c #7D9B36",
"2  c #7C9E3E",
"3  c #799B45",
"4  c #819F35",
"5  c #84A336",
"6  c #89A633",
"7  c #8CAC37",
"8  c #84A439",
"9  c #87A93E",
"0  c #8BAC3B",
"q  c #8FB13D",
"w  c #95B336",
"e  c #93B43C",
"r  c #98B638",
"t  c #97B83D",
"y  c #9ABC3D",
"u  c #9FC03E",
"i  c #A2C43D",
"p  c #A6C93E",
"a  c #AACC3E",
"s  c #AFD23F",
"d  c #BB805F",
"f  c #83A744",
"g  c #86A941",
"h  c #8AAD42",
"j  c #8DB143",
"k  c #8DB34A",
"l  c #92B543",
"z  c #96BB45",
"x  c #99BD43",
"c  c #91B74A",
"v  c #95BD4D",
"b  c #98BE4A",
"n  c #8FB852",
"m  c #92BA50",
"M  c #B68163",
"N  c #BC8364",
"B  c #BD8768",
"V  c #BE8A6D",
"C  c #BF8E73",
"Z  c #C19176",
"A  c #C2957D",
"S  c #9EC244",
"D  c #97C04D",
"F  c #9CC34A",
"G  c #A1C644",
"H  c #A5CB46",
"J  c #A9CE45",
"K  c #A9CE46",
"L  c #ACCF44",
"P  c #A1C749",
"I  c #A3CA48",
"U  c #A5CA48",
"Y  c #A7CD48",
"T  c #ADD243",
"R  c #AFD443",
"E  c #ABD044",
"W  c #ABD045",
"Q  c #ADD244",
"!  c #AFD444",
"~  c #B0D342",
"^  c #B3D643",
"/  c #B4D743",
"(  c #B0D344",
")  c #B0D444",
"_  c #B3D842",
"`  c #B4D842",
"'  c #B4D843",
"]  c #818181",
"[  c gray52",
"{  c #888888",
"}  c #8B8B8B",
"|  c #8D8D8D",
" . c gray57",
/* pixels */
"` I D D H Q Q Q H F v F _ ^ I H W W W Q ^ ` ` n P ^ K F F W Q I K K H H W Q ` ` ^ R ^ I I Q W F D I I H K F P I F P K F I ^ ^ ^ ",
"K F D F I ^ ^ I F F F F ^ ^ K P I K I W ) / H m ^ ^ Q I F I H F F H V B T ~ ^ _ ` ^ H T H I I F F F G H H F F v F P F F H ^ ^ T ",
"I H F H K ! Q P F D P H ^ ^ Q I F I I Q W ^ U F T Q W K K K P v v N B B N ; H T Q P F H P m m m v F v F I P H I K F v v v L K H ",
"H H F H K W H I F v F I K I I F F P H W Q K K F I Q K Q W K K F = : M > @ O e S G K T ( R K F v b H F v v F ^ ^ H P F v v F v D ",
"I ^ K W T ^ Q Q H F F H Q Q ^ ^ T I H ^ ^ ^ Q P H Q K Q Q K Q H l @ @ O O @ 7 y H W T R R H G I F v v D F G ^ H I W ^ K F v I K ",
"F Q Q P T ^ Q K K U H v F ^ ^ ` T I I Q ^ ` D Q T Q K Q ^ Q Q W c f 2 < < 1 7 z I K Q Q K I H K F v m I T K F H T ^ ` Q K D F I ",
"F H I F H Q H K K Q H I H ^ ^ ^ K F P W ^ ^ H Q H H ) Q Q W K ) H S l 0 0 e z S I I I H H I P F F D F F ^ K F D P ^ ! Q H I H P ",
"F I F D H K Q Q Q H H H W R ^ Q H I H Q Q H P Q H P W Q H H Q Q ) ^ K b b K I I P H I H K F D F v F I H W G H F D Q W K T I F D ",
"D F F v H H Q K H H I I H K H I P U Q W K K I H K K H W H W ) Q ) Q H I P P I H H H H I I P P P F F H Q P { { [ F F P H ^ H v v ",
"D F F v I I W C K T W H H K I  . .H H K K K H H Q Q Q W I I U Y W H W H H I H H I I H F F I F F F F H K { { [ ] [ [ T T ^ I v D ",
"v v v D V C Z Z V : K K S x { |  .| [ H K Q H Q Q K W K I F H Q ) ) K I H H H K H H F D v F F D F F S ] [ o X X N N F H D v m F ",
"F v z B V B V V N % u u y o ] ] [ ] X S T H H ^ Q H U I H H F Q ` / K H H K Q K Q I F F F I F I I H S e X . X - d N N : R F D F ",
"I x : : > ; ; : # # t S y e X . X X X y L K H W Q K Y F I Q ) H ) ` ^ H H Q H I H D F F I H D P K T K x 0 6 = * - : ; # K F I I ",
"H p y + O O O + + 8 l z l x q 7 8 5 0 x W H H Q K H F F I W ^ ^ H Q ^ H H ^ Q H F v F H Q W D F K W H G z x r @ @ + O + I F K H ",
"P L i e e 7 8 7 7 q S F S I z l h j z F D F I F F I F P P I Q ` ) H K H K Q W I F F F K ^ H D I F F I H I K H y 7 5 8 h b D H H ",
"H ^ T K a G x x x G H P F H W I P P D D F F P H K H I K U U W ` ^ Q H I H H K P P K I P H H H W K H K H I H K K G i y b b H W H ",
"^ Q H H H H H I F I H I H Q Q K K Q I P F F b F H F K ) ^ ) ^ ` ! Q ^ K I I H P K ! Q I F I P K Q Q T R K H I I I H F F F D D H ",
"Q F Q ^ ^ I I V B F F I Q Q ) ^ ^ ^ H K H P v v F F Q ^ ` ` ^ ) Q Q W H H H H H K Q T K P F F H R ! Q Q I H F F F H P F I D D Q ",
"^ ` ` ^ a i N V B N : G K Q ) ` ` Q H W Q U P D v F H ^ ` ` ` ^ ) H I I H K T K I H K W H P I T Q Q K I F F I I P D F I K T K P ",
"F W ^ a i = : N > : @ S H K ! ^ ^ H K H K H K T F v F I Q ` ` ) ` ) Q P I H ^ ! I H Q Q K K H K H H P P I H Q ^ Q I F H Q ^ ` W ",
"Q I K a y 5 + @ ; @ + t G K ! Q Q H H H I I Q ^ K F D D I ) ` Q ^ ` H F D I Q ` Q Q T K K K H W F v D F H Q ` ^ ^ Q I F H ^ ^ ` ",
"` Q H K y 9 2 5 7 7 e x S I W Q ^ Q H H H W ^ ^ K F H I F U Q H Q ^ F v b F H ) ^ ^ ) K Q Q H K F v v F I Q / ` ^ W K H H Q ^ ` ",
"` ^ K F x l j e y S S G F H H K K K I I K Q ^ ^ P H I H I F I U U K F F I F P Q ^ ^ ) Q Q K H F v b F F F K ^ / Q K W W H I K ` ",
"^ K H P F S S G K H I I I I I I P P I Q ^ / / K P I F I Q H F F K P F P W K W ! ^ H H Q Q H F F F F I I F K Q K K Q ^ ^ ^ I I R ",
"W P P I I H P H Q K P H H F F F F I H Q ` ` ^ Q Q ^ H H K Q H F D D F K Q Q ^ ^ T H K W Q I F F F I I H H P H I H K Q K Q Q H K ",
"D I H W K P I H Q Q H H I F v v F I K Q ` ^ Q ^ ` ` K I Q H I I D F F K H G | | [ H H H H I I H H I P W R Q K W Q Q ! ^ ` ^ Q P ",
"F H K K H I P H P H I I F v v v F F I H W W Q Q / ^ H I H W P D m v v c l [ | | { ] o z b H K Q I F I Q ^ Q K H W Q Q Q ^ ^ T P ",
"U I I F P W H I Q H H S F b F b I H P Q W I H Q ^ K H I K I H I F K K x X o [ o X . X w S K W Q K F F W Q H H H H H K H Q W I U ",
"Q P F F I K T H H T W I F F P H K K I K H K K K F T H P H Q Q R H Q K S h X X .     . 9 z F Q ^ Q W Q Q ( ) Q K I F P H H F H Q ",
"! P F K K Q ^ ^ H H K H I H K H Q W I H H P K P H W F D I H P K W Q H S x e 9 9 g l 0 j G ^ ^ Q ^ Q ^ ^ ^ ^ Q W H F P H D F K ^ ",
"^ I K W W ^ ^ ^ K H P H W P I H T T P F H H P F K I I I H H H K | ^ S F S S x b z b k c P ^ Q W H I T ^ / ^ ^ Q I P F D v P Q ^ ",
"I K Q Q ^ ! ) ` ^ H P P Q H H I K K I F P F F F F F I F S u t | | { o x F F F I Q H v F I P D K W H W ` / / ` W m H I F D U Q ^ ",
"K K H H W Q ` ` ^ R ^ I I Q W F D I I H K F P I F P H x l r ] { { o X h S W Q Q H F v F _ ^ I H W W W Q ^ ` ` n P ^ K F F W Q I ",
"F H H H T ^ ^ _ ` ^ H T H I I F F F G H H F F v F P F b z t 6 o X X X g z ~ ^ I F F F F ^ ^ K P I K I W ) / H m ^ ^ Q I F I H F ",
"D F H H Q ) Q Q Q P F H P m m m v F v F I P H I K F v b k y w 4 1 7 9 e G T Q P F D P H ^ ^ Q I F I I Q W ^ U F T Q W K K K P v ",
"D F I H K Q K H I K T ( R K F v b H F v v F ^ ^ H P F v v b c j x G x G H W H I F v F I H I I F F P H W Q K K F I Q K Q W K K F ",
"F F F H K K K K K W T R R H G I F v v D F G ^ H I W ^ K F v I K I ^ K W T ^ Q Q H F F H Q Q ^ ^ T I H ^ ^ ^ Q P H Q K Q Q K Q H ",
"D m v F F I H I H K Q Q K I H K F v m I T K F H T ^ ` Q K D F I F Q Q P T ^ Q K K U H v F ^ ^ ` T I I Q ^ ` D Q T Q K Q ^ Q Q W ",
"K H P I H I I P I I I H H I P F F D F F ^ K F D P ^ ! Q H I H P F H I F H Q H K K Q H I H ^ ^ ^ K F P W ^ ^ H Q H H ) Q Q W K ) ",
") ` Q F F W I I P H I H K F D F v F I H W G H F D Q W K T I F D F U F D H K Q Q Q H H H W R ^ Q H I H Q Q H P Q H P W Q H H Q Q ",
") Q H I P P I H H H H G | P S P F F H Q P F I I F F P H ^ H v b D F F v H H Q K H H I I H K H I P U Q W K K I H K K H W H W ) Q ",
"W H W H H I H H I G S | | { ] F F F H Q I F b F I H T T ^ I v F D F F v I I W K K T W K H K I F P H K K K K H H Q Q Q W I I U Y ",
") ) K I H H H K H S ] [ [ ] X l F F I K H H F m F H F H D v m F v v v D F I H Q ^ T R T K H P P P H K K W Q H Q Q K W K I F H Q ",
"` / K H H K Q K K S j X X . X l S H H H I H T I F H ^ ^ R F D F F v F H I P F W Q Q W K K H H I H Q K W ^ H H ^ Q H U I H H F Q ",
") ` ^ H H Q H I H F c j q 7 f l H T T H P K ^ ^ K F H Q Q F I I H P I H I F W ~ K I H K K K K H A A F H T K H W Q K Y F I Q ) H ",
"H Q ^ H H | { ] F v F G K G c F K W K H P K ^ ^ ^ K F H H F K H H R T K P H I K H I P F F H I N Z A C , H G H Q K H F F I W ^ ^ ",
") H K S { { [ [ F N F H T H v I F F I H H K R Q K K I F D D H H P ~ T H H H I H H I H F P G = : B V & @ h z G F F I F P P I Q ` ",
"^ T S o o X X N B N N - S H H W K H K H I H W Q W R H D D H W H H ^ ^ ^ ^ W H I I H H P F S i # % & @ # g c F H K H I K U U W ` ",
"! K i 7 o X ; N B B > # j S F K Q Q T R K H I I H H P F F D D H ^ Q H H H K K H F I H I H K G y e r 0 0 l b v F H F K ) ^ ) ^ ` ",
"Q Q H e 5 * % : M & O @ j x F H R ! Q Q I H F F F H P F I D D Q Q D Q ^ | { I G F F P I Q T K L a K S G I F v v F F Q ^ ` ` ^ ) ",
") H I x e e # % % @ # 7 x S I T Q Q K I F F I I P D F I K T K P ^ ^ s { | [ ] o b F I H K Q ! ` ^ W H W Q U P D v F H ^ ` ` ` ^ ",
"` ) Q P G S u 7 0 0 e t G K H K H H P P I H Q ^ Q I F H Q ^ ` W F G ] ] ] o X X z S I H H K ! ^ ^ H K H K H K T F v F I Q ` ` ) ",
"^ ` H F D I K a H H i H H K H W F v D F H Q ` ^ ^ Q I F H ^ ^ ` W S u X o X . X y H Q H H K ! Q Q H H H I I Q ^ K F D D I ) ` Q ",
"Q ^ F v b F H ^ ^ ^ T K Q Q H K F v v F I Q / ` ^ W K H H | ^ ^ ` K x y y j g j S H K H I I W Q ^ Q H H H W ^ ^ K F H I F U Q H ",
"U K F F I F F W ^ ^ ) Q Q K H F v b F F F K ^ / Q K W H [ { { [ ~ ^ H x z z z S K K H H F H H K K K I I K Q ^ ^ P H I H I F I U ",
"K P F P W K W Q ^ H H Q Q H F F F F I I F K Q K K Q T o ] [ ] X p H H P F P I H Q K I H I I I | { P I K ^ / / K P I F I Q H F F ",
"D D F K Q Q ^ ^ T H K W Q I F F F I I H H P H I H K H e o X X X y S F I I H P H Q K P H H F  .| { { { i T ` ^ Q Q ^ H H K Q H F ",
"D F F K W I ^ K Q H K H H I I H H I P W ^ Q K W Q Q T p r w w h j S H W K P I H Q Q H H G { | ] [ [ o t p T Q ^ ` ` K I Q H I I ",
"m v v v D F D K Q H ^ I D H K Q I F I Q ^ Q K H W Q Q K i p H x b H K K H I P H P H I I z k X X X X X e y H Q Q / ^ H I H W P D ",
"F K K I F Q ^ Q F H ~ Q H W W Q K F F W Q H H H V V N N K K I U U I I F P W H I Q H H S b l j g e e l y G S H Q ^ K H I K I H I ",
"H Q Q H F F ^ Q I H H I I P Q ^ Q W Q Q ( Q K B V B N N N M I Q Q P F F I K T H H T W I F b S S x G S G H K K K F T H P H Q Q R ",
"W Q H P I H F F F I P F K ^ ^ Q ^ Q ^ ^ ^ T = : N : : & $ $ G T ! P F K K Q ^ ^ H H K H I I H H K K I H H P K P H W F D I H P K ",
"^ ^ P F P H I F F F v v P ^ Q W H I T ^ / K i # * # @ @ + @ G ^ ^ I K W W ^ ^ ^ K H P H W P I H T T P F H H P F K I I I K H H Q ",
"` ^ K I P F F I W H v F I P D K W H W ` / ^ a e 3 e l j j x H T I K Q Q ^ ! ) ` ^ H P P Q H H I K K I F P F F F F F I F H W Q ^ "
};
