/* XPM */
static const char *highland_snowy[] = {
/* columns rows colors chars-per-pixel */
"64 64 124 2 ",
"   c #656565",
".  c #6D6D6D",
"X  c #747474",
"o  c #7B7B7B",
"O  c #9D6D52",
"+  c #A16E52",
"@  c #A57154",
"#  c #AB7455",
"$  c #A4775E",
"%  c #AB7659",
"&  c #AE795A",
"*  c #B37756",
"=  c #B37B5C",
"-  c #B97C5B",
";  c #AC7B61",
":  c #B37D60",
">  c #8E9559",
",  c #959C5A",
"<  c #9CA35D",
"1  c #A0A458",
"2  c #A4AA5E",
"3  c #969F62",
"4  c #939C69",
"5  c #B78265",
"6  c #BB8061",
"7  c #B6856D",
"8  c #BE876B",
"9  c #BF896E",
"0  c #A88372",
"q  c #B08775",
"w  c #BB8C75",
"e  c #B08C7A",
"r  c #9FA762",
"t  c #9FA86E",
"y  c #A4AC63",
"u  c #A8AF64",
"i  c #A4AC69",
"p  c #ADB365",
"a  c #A7B16E",
"s  c #ACB36B",
"d  c #B2B764",
"f  c #B3B966",
"g  c #B9BE66",
"h  c #B1B76B",
"j  c #B5BC6C",
"k  c #B9BF6B",
"l  c #ACB572",
"z  c #AFB873",
"x  c #AEBA7B",
"c  c #B4BD73",
"v  c #B3BE7A",
"b  c #C18E75",
"n  c #C2937C",
"m  c #BDC167",
"M  c #BCC36D",
"N  c #B7C175",
"B  c #BDC576",
"V  c #BFC876",
"C  c #B6C179",
"Z  c #BBC478",
"A  c #BFC878",
"S  c #C1C66B",
"D  c #C4CA6E",
"F  c #CACF6F",
"G  c #C0C771",
"H  c #C4CC76",
"J  c #C8CF75",
"K  c #C2C978",
"L  c #C8CF78",
"P  c #CCD275",
"I  c #D1D675",
"U  c #D4D975",
"Y  c #D0D57B",
"T  c #828282",
"R  c #8B8B8B",
"E  c #959595",
"W  c #9B9B9B",
"Q  c #B99687",
"!  c #BE9989",
"~  c #A2A2A2",
"^  c gray66",
"/  c #ACACAC",
"(  c #B1B1B1",
")  c #B4B4B4",
"_  c #B9B9B9",
"`  c #BCBCBC",
"'  c #C59681",
"]  c #C59883",
"[  c #C29A88",
"{  c #C79C88",
"}  c #C79E89",
"|  c #C49C8A",
" . c #C89F8C",
".. c #C29F90",
"X. c #C9A18D",
"o. c #C7A291",
"O. c #CAA593",
"+. c #CAA694",
"@. c #CCA796",
"#. c #CEAA9B",
"$. c #CDAB9D",
"%. c #CCAEA2",
"&. c #D0AFA0",
"*. c #CFB0A0",
"=. c #D1B1A3",
"-. c #D1B3A6",
";. c #D3B5A8",
":. c #D4B5A8",
">. c #D7BDB1",
",. c #D6BDB4",
"<. c #D9BFB4",
"1. c #C8CE80",
"2. c #CBD287",
"3. c #CAD089",
"4. c #D8DD96",
"5. c #DAC2B7",
"6. c #DAC2B8",
"7. c #DCC5BC",
"8. c #C0C0C0",
"9. c #C5C5C5",
"0. c #C8C8C8",
"q. c #CACACA",
"w. c #D3D3D3",
"e. c gray84",
/* pixels */
"U H C C H P P P H B C B U I H H P P P P I U U x V I P B Z P P H H P H H P P U U U P I H K P P Z C H H H P V H H Z V H B H I U I ",
"J V C C H I I H Z B V V P P P V H P H P P U H x I I P H Z H H Z Z H =.&.P P I U U I H P H H H V C V V H H Z C C N V C Z H I I P ",
"H H Z H H P P H B C V H I I P H B H H P P I H B P P P J P H H v C :.>.6. .[ G P P V B H H x x x v C v V H V H H P V v C v P P H ",
"H H V H H P H H B C B H H H K B B H H P P P P V H P P P P P P V - $.w : q 0 p M V J P P P H N C C H B C v Z I I H V V v v C v C ",
"H I J P P I P P H B V H P P U U P H H I P I P H H P P P P H P H c @ @ O O @ u j H P P P P H H V C C v C Z H U H H P I P C C H P ",
"C P P H P U P H P H H C V I U U P H H P I U C P P P P P I P P P z t 3 > > , y j G J P P P H H P V v v H P H V H P I U P H C Z H ",
"B H H V H P H H P P H H H I U I J B V P I I H P H H P P P P H P J M s s y s j V H H H H H H H V C C C V I J Z C V U P P H H H H ",
"B H C C H J P P P H H H P P I P H H H P P H V P H V P P H H P P I I J v c H H H H H H H H V C C C Z H H P V H V C P P P P H C C ",
"C Z C C H H P H H H H H H H H H H H P P J P H H J H H P H P P P I P H H H V H H H H H H H V V H Z N H P V / e.( A V V H P H v C ",
"C C C v H H P X.J P P H H J H ) 8.3.2.L P P H H P P P P H H H H P H P H H H H H H H H N Z H Z Z V V H J 9.e.0.W ^ ^ P P U H v Z ",
"v v v C n O.+.*.;.-.P J M M ` e.( _ _ 1.J P H P P J P P H B H P I I P H H H H H H H B C v V C C Z Z B W ( R o X ,.:.B H C v x Z ",
"C v c } 5.:.X.} #...M M j E ( T T T E M P H H P P H H H H H B P U U P H H P P P P H B C C H Z H H H B s o . X ,.7.] @.n P Z C B ",
"H c - o.: = = = # # f M j p o . X X X j P H H P P H H B H P I H I U I H H P H H H C C B H H C H P P P k y 2 n %.7 = = ; J V H H ",
"H D k + O O O + + r s c z j p u < < u k P H H P P H Z B H P U U H P P H H I P H V v B H P P C V J P H B c k j @ @ + O + G B P H ",
"H J M s p u r y y p M N V H c s a a c Z C B H V Z H Z H V K P U P H P H H P P H Z B B J I H C H V V H H H H D j u < r i v C H H ",
"H I P J D M k k c V H V B H P H V A C C Z V V H P H H J H H P U U P H H H H H V V J H H H H H P H H J H H H P J M m j v C H P H ",
"I P H H H H H H B H H H H P P P H P H V V B C Z H V H P I P I U P P P H H H H V P P P H B H V J P P P P H H H H H H Z C Z C C H ",
"P C P I I H H n +.C V H P P P I I I H P H V v v V V P U U U I P P P P H H H H H P P P H H B C H P P P P H H V Z V H H V H C C P ",
"I U U I D M $.7.:.$.} G J P I U U P H P P H H C v C H I U U U U P H H K H P P P H H P P H H H P P P P H C C H H A C Z H P P H B ",
"B P I F m 9 X.} : n ; M H H P U U H H H H H P P V v B H P U U U U I P H H H P P H H P P P J H P H H V V H H P I P H V H P I U P ",
"P H P F g < + @ = @ + f G J P P P H H H H H P I J Z C C H I U P U U H B C H P U P P P J H P H P B v C B H P U I I P H V H U P U ",
"U P H J k y 3 < y u p k V H P P I P H H H P I U J Z H H B H P H P I B C C Z H I I I P P P P H J Z v v V H P U U I P H H H P I U ",
"U I H V C l a s k M M B N H H J P P H K J P U I H H H H H Z K H H H B Z H B V P I P I P P H H Z C C B B B P I U P P P P H H H U ",
"I P H V Z V V V J H H H H H H H H V H P U U U H V H B H P H Z B H A B V P P P P P H H P P H C C C V H H B H P P P P P I I H H P ",
"P H V H H H H H P P V H H V V B V H H P U U U P P P H H H P H B C C Z J P P I I P H H P P H C Z V H H H H H H H H P P H P P H J ",
"C H H P H H H H P P H H H C C v Z H J P U I P I U U P H P H H H Z C B H H V _ 0.^ H G H H H H H H H H P P P H P P P P I U I P B ",
"C H J P H H V H V H H H Z v v v C Z H H P P P P U U H H H P V C v v v z l _ w.e.` _ W k c H J P H B H P I P H H P P P P I I P H ",
"H H H B H P H H P H H V N C N c H H H P P H H P I P H H J H H H V J H k ~ ) E o T R T d M P P P P Z V P P H H H H H P H P P H H ",
"P H V C H P P H H P P H Z N H H H P H P H H P P Z P H V H P P P H P P B i X X .   . . y j V P U P P P P P P P P H B V H H Z H P ",
"P H Z H J P I I H H J H H H H H P P H H H V H V H P C C H H H H P P H V k s y y i s y a M P I P P P I I I I P P H Z V H C B P I ",
"U H P P P I I I J H H H P H H H P P H V H H V V J H H H H H H J _ 4.V N N B N c c c l z V I P P H H P U U I U P H V B C v V P U ",
"H H P P U P P U I H H A P H H H H H H V H C Z B C Z H C B M j ` w.0./ c N B B H P H v B H V C H P H P U U U U P x H K Z Z H P P ",
"H P H H P P U U U P I H K P P Z C H H H P V H H Z V H c h d ~ 8.W E E i M P P P H B C B U I H H P P P P I U U x V I P B Z P P H ",
"Z H H H P I U U U I H P H H H V C V V H H Z C C N V C c j f 1 o X X o i j I I H Z B V V P P P V H P H P P U H x I I P H Z H H Z ",
"C Z H H P P P P P V B H H x x x v C v V H V H H P V v v z m d < , u y h B P P H B C V H I I P H B H H P P I H Z P P P J P H H v ",
"C C H H H P J H H J P P P H N C C H B C v Z I I H V V v x v z l k B c G H P H H B C B H H H K B B H H P P P P Z H P P P P P P B ",
"B C B H H P P H H P P P P H H V C C v C Z H U H H P I P C C H P H I H P P I P P H B V H P P U U P H H I P I P H H P P P P H P H ",
"C v v Z V H H H H J P P P H H P V v v H P H V H P I U P H C Z H C P P V P U P H P H H C V I U U P H H P I U C P P P P P I P P P ",
"H H H H H H H V H H H H H H H V C C C V I J Z C V U P P H H H H B H H Z H P H H P P H H H I U I J B V P I I H P H H P P P P J P ",
"I U P C B P H H H H H H H V C C C Z H H P V H V C P P P P H C C B H C C H H P P P H H H P P I P H H H P P H V P H V P P H H P P ",
"I P H H H V H H H H H V E B V V Z N H P H C H H B V V H P H v C C Z C C H H P H H H H H H H H H H H P P J P H H J H H P H P P P ",
"P H P H H H H H H V B ) 0._ R N Z V H P H Z C N H H P P U H v Z C C C v H H P P J P P H H P H V B H H J P P H H P P P P H H H H ",
"I I P H H H H H H B T ~ ^ ) o l N B H H H H V v V H V H C v x Z v v C C B H H P I P P P J H H V H H H P P P H P P J P P H B H P ",
"U U P H H P P P P B a o X . X f B H H H H H P H V H I I P Z C B C v B H H H V P P P P P J H H H H P H P I H H P P H H H H H B P ",
"I U I H H P H H H C z a s y r h H P P H H J I I P V H P P V H H H H H H H Z P P P H H J H J H H X.' Z H P P H P P H H B H P I H ",
"H P P H H ) _ W V v N B J M z Z J P H H V H I I I H B H H B P H H P P P H H H P H H V C C H H ;.;.O.X.b D G H P P H Z B H P U U ",
"P H H B ~ 9.) R Z n N G P H C H V B H H H P P P P P H C C C H H H P P H H H H H H H H Z V B ' #.w n ! Q i c V V Z H Z H V K P U ",
"U P M o E o X X.<.7.6 * B H H P H H J H H H P P P P H C C H P H H I I I I P H H H H H K Z B M # % & @ # i h Z H P H H J H H P U ",
"P P M y o X w -.=.b w } a B V J P P P P H H H H H H V C Z C C H I P H H H H H H B H H H H J G j p f u i s c v Z H V H P I P I U ",
"P P G p < * 7 = 5 ; O @ s c C H P P P P H H V Z V H H V H C C P P C P P ( ( H H Z B H H P P J P D J B G G V v v V V P U U U I I ",
"P H H B s p # % % @ # 2 k V H P P P P H C C H H A C Z H P P H B I I Y / 9.( / ~ c C H H P P P U U P H P P H H C v C H I U U U U ",
"U I P H V B m p u p p f G H H P H H V V H H P I P H V H P I U P V G E ^ T o E T c V H H H H P U U H H H H H P P V v B H P U U U ",
"U U H B C H J D G G M G H P H P B v C B H P U I I P H V H U P U P B m o o X . X j G P H H J P P P H H H H H P I J Z C C H I U P ",
"P I B C C Z H I I I P J P P H J Z v v Z H P U U I P H H H W I U U J k m j s i s M G H H H H P P I P H H H P I U J Z H H B H P H ",
"H H B Z H B V P I P I P P H H Z C C B B B P I U P P P G / _ ^ ( P I G B c c c B J J H H Z H H J P P H K P P U I H H H H H Z K H ",
"H A B V P P P P P H H P P H C C C V H H B H P P P P P R W R R ^ S G H V Z H H H P H H H H H K ( ~ V H J I U U H V H B H P H Z B ",
"C C Z J P P I I P H H P P H C Z V H H H H H H H H P J p o X X X j c V H H H H H P P V H H V / 0./ ~ W M P U U P P P H H H P H B ",
"Z C B H P H I H P H J H H H H H H H H P P P H P P P P D d p p i a B H P H H H H P P H H V E / T R W E f D P P I U U P H P H H H ",
"v v C v C B C H P H I H C H J P H B H P I P H H P P P J S S G c c H J P H H V H V H H H c l o X o X X p j G P P U U H H H P V C ",
"V J P H B P I P V H P P H P P P P Z V P P H H H #.<.#.$.J H H H H H H B H P H H P H H V c z a i s f s j M V H P I P H H J H H H ",
"H P P H B C P P H H H H H V P U P P P P P P J :.$.} X.=.;.o.H P P H V C H P P H H P P H N c B M k M B G H H P P Z P H V H P P P ",
"P P H H H H V B C H V Z P I I P P P I I I P n &.8 - - & e $ G P P H Z H J P I I H H J H H H H H J P H H H V H V H P C C H H H H ",
"I I V B V H H C Z C v v H I P P H H P U U P m # * # @ @ + @ D I I H P P P I I I J H H H P H H H P P H V H H V V J H H H H H H P ",
"U I P H V B B H P H v B H V C H P H P U U I J f 4 p s a a k J P H H P P U P P U I H H A P H H H P H H V H C Z B C Z H Z H P P I "
};
