/* XPM */
static const char *highland_arid[] = {
/* columns rows colors chars-per-pixel */
"64 64 4 1 ",
"  c gray50",
". c #9F9F9F",
"X c #C7B9A2",
"o c #DDD3A5",
/* pixels */
"oooooooooooooooooooooooooooooooooooooooooooooooooooooooooooooooo",
"ooooooooooooooooooooo.ooooooooooooXXoooooooooooooooooooooooooooo",
"oooooooooooooooooooooooooo.ooooooXXXXXooo.oooooooooooooooooooooo",
"ooooooooooooooooooooooooooooooooXXXXXXooooooo.oooooooooooooooooo",
"oooooooooooooooooooooo.ooooooooooXXXXXooooooooooooooo.oooooooooo",
"ooooooooooooooooooo.oooooooooooooooooooooooo.ooooooooooooooooooo",
"oooooooooooooooooooooooooooooooooooooooooooooooooooooooooooooooo",
"oooooooooooooooooooooooooooooooooooooooooooooooo.ooooooooooooooo",
"ooooooooooooooooooooooooooooooooooooooooooooooooooooo   oooooooo",
"oooooooXooooooo  ooooooooooooooooooooooooooooooooooo      oooooo",
"ooooXXXXXXoooo     oooooooooooooooooooooooooooooooo     XXoooooo",
"oooXXXXXXXooo      ooooooooooooooooooooooooooooooooo   XXXXXoooo",
"ooXXXXXXXXoooo     oooooooooooooooooooooooooooooooooooXXXXXXoooo",
"oooXXXXXXooooooooooooooooooooooooooooooooooooooooooooooXXXXXoooo",
"oooooooooooooooooooooooooooooooooooooooooooooooooooooooooooooooo",
"oooooooooooooooooooooooooooooooooooooooooooooooooooooooooooooooo",
"ooooooooooooooooooooooooooooooooooooo.oooooooooooooooooooooooooo",
"oooooooXXooooooooooooooooooooooooooooooooooooooooooooooooooooooo",
"ooooooXXXXXooooooooooooooooooooooooooooooooooooooooooooooooooooo",
"oooooXXXXXXoooooooooooooooooooo.oooooooooooooooooooooooooooooooo",
"ooooooXXXXXoooooooooooooooooo.oooooooooooooooooooooooooooooooooo",
"oooooooooooooooooooooooooooooooooooooooooooooooooooooooooooooooo",
"ooooooooooooooooooooooooooooooo.o.ooooooooooooooooooooo.oooooooo",
"oooooooooooooooooo.ooooooooooooooooooooooooooooooooooooooooooooo",
"oooooooooooooooooooooooooooooooooooooooooooooooooooooooooooooooo",
"oooooooooooo.ooooooooooooooooooooooooo   oooooooooooooooooo.oooo",
"oooooo.oooooooooooooooooooooooooooooo      oooooooooo.oooooooooo",
"oooooooooooooooooooooooooooooooooooo       ooooooooooooooooooooo",
"ooooooooooooooooooooooooooooooooooooo      ooooooooooooooooooooo",
"ooooooo.oooooooooooooooooooooooooooooooooooooooooooooo.ooooooooo",
"oooooooooooooooooooooooooooooooo ooooooooooooooooooooooooooooooo",
"ooooo.ooooooooooooooooooooooooo    ooooooooooooooooooooooooooooo",
"oooooooooooooooooooooooooooooo     ooooooooooooooooooooooooooooo",
"ooooooo.ooooooooooooooooooooooo    ooooooooooooooooooooooooooooo",
"oooooooooooooooooooooooooooooooooooooooooooooooooooooooooooooooo",
"ooooooooooooooooooooooooo.oooooooooooooooooooooooooooooooooooooo",
"oooooooooooooooooooooooooooooooooooooooooooooooooooooooooooooooo",
"ooooooooooooooooooooooooooooooooooooooooooooooo.oooooooooooooooo",
"ooooooooooooooooo.oooooooooooooooooooooooooooooooooooooooooooooo",
"oooooooooooooooooooooooooooooooooooooooooooooooooooooooooooooooo",
"oooooooooooo ooooooooooooooooooooooooooooooooooooooooooooooooooo",
"ooooooooooo    ooooooooooooooooooooooooooooooooooooooooooooooooo",
"oooooooooo     oooooooooooooooooooooooooooooooooooooooooooo.oooo",
"ooooooooooo    ooooooooooooooooooooooooo.ooooooooooooooooooooooo",
"ooooooooooooooooooooooooooooooooooooooooooooooooXXoooooooooooooo",
"ooooo   oooooooooooooooooooooooooooooooooooooooXXXXXoooooooooooo",
"oooo    oXooooooooooooooooooooooooooooooooooooXXXXXXoooooooooooo",
"ooo    XXXXXoooooooooooooooo.ooooooooooooooooooXXXXXoooooooooooo",
"oooo  XXXXXXooooooooooo.oooooooooooooooooooooooooooooooooooooooo",
"oooooXXXXXXXoooooooooooooooooooooooo  oooooooooooooooooooooooooo",
"ooooooXXXXXooooooooooo.oooooooooooo     oooooooooooooooooooooooo",
"oooooooooooooooooooooooooooooooooo      oooooooooooooooooooooooo",
"oooooooooooooooooooooooooo.oooooooo     oooooooooooooooooooooooo",
"oooooooooooooooooooooo.oooooo oooooooooooooooooooooooooo.ooooooo",
"oooooooooooooooooooooooooooo    oooooooooooooooooooooooooooooooo",
"ooooooooooooooooooooooooooo     ooooooooooooooo  ooooooooooooooo",
"oooo.oooo.oooooooooooooooooo    oooooooooooooo     oo.oooooooooo",
"ooooooooooooooooooooooooooooooooooooooooooooo      ooooo.ooooooo",
"oooooooooooooooooooooooooooooooooooooooooooooo     ooooooooooo.o",
"ooooooooooooooooooooooooXXXXoooooooooooooooooooooooooooooooooooo",
"oooooooooooooooooooooooXXXXXXXooooooooooooo.oooooooooooooooooooo",
"oooooooooo.oooooooooooXXXXXXXXooooooooooooooooooooooooooooo.oooo",
"oooooooooooooooooooooooXXXXXXXoooooooooooooooooooooooooooooooooo",
"oooooooooooooooooooooooooooooooooooooooooooooooooooooooooooooooo"
};
