/* XPM */
static const char *lilypad[] = {
/* columns rows colors chars-per-pixel */
"64 64 194 2 ",
"   c #1D4E13",
".  c #194D1A",
"X  c #1F5315",
"o  c #1D541B",
"O  c #1F581D",
"+  c #215615",
"@  c #225816",
"#  c #205719",
"$  c #245A1A",
"%  c #295D1E",
"&  c #174E23",
"*  c #194D21",
"=  c #1C5523",
"-  c #1E5B24",
";  c #1C532A",
":  c #1D5D2B",
">  c #165633",
",  c #195C34",
"<  c #175D3B",
"1  c #185F3A",
"2  c #225E24",
"3  c #2B5F21",
"4  c #215F29",
"5  c #1F602D",
"6  c #1D6234",
"7  c #1C653C",
"8  c #2D6123",
"9  c #22602B",
"0  c #2E6329",
"q  c #326427",
"w  c #34662A",
"e  c #37692D",
"r  c #38682D",
"t  c #286633",
"y  c #22673C",
"u  c #145E45",
"i  c #176346",
"p  c #196442",
"a  c #1C6842",
"s  c #16644A",
"d  c #1A664C",
"f  c #1A6A4C",
"g  c #0F615D",
"h  c #146653",
"j  c #156A55",
"k  c #1A6E52",
"l  c #146C5C",
"z  c #1F7157",
"x  c #16705C",
"c  c #206740",
"v  c #226A42",
"b  c #216D4F",
"n  c #216F53",
"m  c #227155",
"M  c #126C64",
"N  c #116F6F",
"B  c #157263",
"V  c #1E7665",
"C  c #14766C",
"Z  c #1D766C",
"A  c #1C796E",
"S  c #0E7275",
"D  c #0E757B",
"F  c #137674",
"G  c #107778",
"H  c #117B7B",
"J  c #1C7D79",
"K  c #2E7E6B",
"L  c #307F6C",
"P  c #26837E",
"I  c #0E7783",
"U  c #0E7C86",
"Y  c #0E7F8A",
"T  c #147F83",
"R  c #197F80",
"E  c #107D8D",
"W  c #0A7D95",
"Q  c #1B8285",
"!  c #0C8193",
"~  c #0B849B",
"^  c #0F899D",
"/  c #138593",
"(  c #188698",
")  c #10889D",
"_  c #1B899C",
"`  c #2C8885",
"'  c #0A87A3",
"]  c #0A89A4",
"[  c #0788AE",
"{  c #098AAB",
"}  c #1087A0",
"|  c #1E8BA6",
" . c #1B8DA9",
".. c #1591AD",
"X. c #068CB5",
"o. c #098DB2",
"O. c #058DBA",
"+. c #0B90B2",
"@. c #0691BD",
"#. c #0A91BA",
"$. c #1592B2",
"%. c #1C96B6",
"&. c #1493BB",
"*. c #1B97BD",
"=. c #2292A9",
"-. c #2498BB",
";. c #048FC4",
":. c #0089CF",
">. c #0593C3",
",. c #0F95C0",
"<. c #0394CB",
"1. c #0499CE",
"2. c #0D99CD",
"3. c #1698C4",
"4. c #1C9BC5",
"5. c #149ACC",
"6. c #1A9FCF",
"7. c #008DD3",
"8. c #0092D5",
"9. c #0399D4",
"0. c #0B9AD2",
"q. c #0095DB",
"w. c #0896D9",
"e. c #019ADD",
"r. c #0B9BDD",
"t. c #139DD2",
"y. c #139DDD",
"u. c #249CC3",
"i. c #219FCD",
"p. c #0CA1DE",
"a. c #16A1DC",
"s. c #1BA3DD",
"d. c #1FA8DF",
"f. c #32A5CB",
"g. c #23A3DC",
"h. c #2DA5DD",
"j. c #2FAEDF",
"k. c #31A6DD",
"l. c #019DE2",
"z. c #0A9FE2",
"x. c #01A1E6",
"c. c #0CA2E4",
"v. c #00A2E8",
"b. c #0CA6E8",
"n. c #13A4E4",
"m. c #1CA5E3",
"M. c #16A8E7",
"N. c #1CA9E6",
"B. c #11A7E9",
"V. c #1AA7E8",
"C. c #14A9E9",
"Z. c #1CABE9",
"A. c #23A6E3",
"S. c #29A7E0",
"D. c #24AAE5",
"F. c #2CACE6",
"G. c #23ADE9",
"H. c #2BAFE9",
"J. c #31AEE5",
"K. c #3BADE2",
"L. c #2CB1EA",
"P. c #2DB1EA",
"I. c #35B1E7",
"U. c #31B2EA",
"Y. c #34B3EA",
"T. c #37B4EA",
"R. c #39B5EB",
"E. c #3BB5EB",
"W. c #3DB7EB",
"Q. c #3EB8EC",
"!. c #43B3E5",
"~. c #4BB4E5",
"^. c #43B6E9",
"/. c #43B9EC",
"(. c #4BBBEC",
"). c #50BAE7",
"_. c #54BDEC",
"`. c #5BBDE9",
"'. c #60BCE7",
"]. c #64BFE9",
"[. c #55C0EF",
"{. c #5CC1ED",
"}. c #5FC3F0",
"|. c #63C5EF",
" X c #6BC6EE",
".X c #79CAEF",
"XX c #74CBF1",
"oX c #7BCDF1",
"OX c #7CD0F0",
"+X c #81CEF1",
"@X c #83D1F2",
"#X c #8CD3F2",
"$X c #92D5F2",
"%X c #9BD9F3",
/* pixels */
"v.v.v.v.v.v.v.v.v.v.v.v.v.v.v.v.v.v.v.v.v.v.v.v.v.v.v.v.v.v.v.v.v.v.v.v.v.v.v.v.v.v.v.v.v.v.v.v.v.v.v.v.v.v.v.v.v.v.v.v.v.v.v.v.",
"v.v.v.v.v.v.v.v.v.v.v.v.v.v.v.v.v.v.v.v.v.v.v.v.v.v.v.v.v.v.v.v.v.v.v.v.v.v.v.v.v.v.v.v.v.v.v.v.v.v.v.v.v.v.v.v.v.v.v.v.v.v.v.v.",
"v.v.v.v.v.v.v.v.v.v.v.v.B.Z.Z.B.b.v.v.v.v.v.v.v.v.v.v.v.v.v.v.v.v.v.v.v.v.v.v.v.v.v.v.v.v.v.v.v.v.v.v.v.v.v.v.v.v.v.v.v.v.v.v.v.",
"v.v.v.v.v.v.v.b.b.b.B.Z.L.U.T.L.Z.B.b.b.v.v.v.v.v.v.v.v.v.v.v.v.v.v.v.v.v.v.v.v.v.v.v.v.v.v.v.v.v.v.v.v.v.v.v.v.v.v.v.v.v.v.v.v.",
"v.v.v.v.b.b.Z.H.L.U.T.Q.W.R.W.T.L.G.G.Z.C.b.b.v.v.v.v.v.v.v.b.b.B.B.B.B.B.B.B.b.b.v.v.v.v.v.v.v.v.v.v.v.b.b.b.B.B.B.b.v.v.v.v.v.",
"v.v.v.b.B.Z.L.R.R.^./.W.U.G.G.G.G.Z.G.Z.Z.C.b.v.v.v.v.v.b.C.G.L.U.U.U.H.G.G.Z.Z.b.v.v.v.v.v.v.v.v.v.v.b.B.C.B.B.B.B.b.v.v.v.v.v.",
"v.v.v.b.B.M.N.D.D.F.D.N.n.c.n.M.c.z.c.c.b.B.b.v.v.b.B.Z.G.U./._.{.{.{._._.(./.W.H.Z.b.v.v.v.v.v.v.v.v.b.B.B.b.b.b.b.v.v.v.v.v.v.",
"v.v.x.x.l.l.z.z.z.l.l.l.l.l.l.l.l.l.l.l.x.v.v.v.v.B.C.Z.D.J.^.).`.'.`.`.`._._.(.W.L.Z.B.b.b.v.v.v.v.v.v.v.v.v.v.v.v.v.v.v.v.v.v.",
"v.v.l.l.l.l.l.l.l.l.l.l.l.l.l.l.l.l.l.x.x.v.v.x.x.c.c.r.y.y.g.g.h.k.h.h.K.K.R.T.H.G.Z.C.C.B.b.v.v.v.v.v.v.v.v.v.v.v.v.v.v.v.v.v.",
"v.v.l.l.l.l.x.v.v.v.v.v.v.v.v.v.v.v.v.v.v.v.v.x.l.e.q.q.8.8.q.q.q.q.q.q.w.r.z.x.x.v.b.b.b.B.b.v.v.v.v.v.v.v.v.v.v.v.v.v.v.v.v.v.",
"v.v.v.v.v.v.v.v.v.v.v.v.v.v.v.v.v.v.v.v.v.v.v.x.l.l.e.q.<.;.q.<.9.e.l.l.l.l.l.l.x.v.v.v.v.v.v.v.v.v.v.v.v.v.v.v.v.v.v.v.v.v.v.v.",
"v.v.v.v.v.v.v.v.v.v.v.v.v.v.v.v.v.v.v.v.v.v.v.x.x.l.9.~ : 7 9.v 6 H 9.l.l.l.l.x.x.v.v.v.v.v.v.v.v.v.v.v.v.v.v.v.v.v.v.v.v.v.v.v.",
"v.v.v.v.v.v.v.v.v.v.v.v.v.v.v.v.v.v.v.v.v.v.v.v.x.@.7 $ 8 9 ^ q $ $ H l.v.v.v.v.v.v.v.v.v.b.b.B.B.C.B.C.B.B.b.v.v.v.v.v.v.v.v.v.",
"v.v.v.v.v.v.v.v.v.v.v.v.v.v.v.v.v.v.v.v.v.v.v.v.v.9.7 @ 3 @ + $ @ O , 9.v.v.v.v.v.v.v.b.B.Z.Z.L.L.L.U.U.L.L.H.Z.b.b.b.v.v.v.v.v.",
"v.v.v.v.v.v.v.v.v.v.v.v.v.v.v.v.v.v.v.v.v.v.v.v.v.e.G p X X X + O h U l.v.v.v.v.v.v.v.b.Z.Z.G.L.L.L.R.T.U.U.U.D.M.B.B.B.B.b.v.v.",
"v.v.v.v.v.v.v.v.v.v.v.v.v.v.v.v.v.v.v.v.v.v.v.v.v.v.e.e.X.' M B 1.e.l.v.v.v.v.v.v.v.v.b.M.M.M.n.n.n.m.m.n.m.m.n.c.B.B.B.M.B.c.v.",
"v.v.v.v.v.v.v.v.v.v.v.v.v.v.v.v.v.b.M.N.n.a.t.2.,.2.0.0.e.l.#.#.v.v.v.v.v.v.v.v.v.v.v.v.b.c.l.l.e.q.q.q.e.q.e.e.l.l.l.z.c.c.x.v.",
"v.v.v.v.v.v.v.v.v.v.b.B.B.C.B.b.b.B.M.N.m.6.J $ $ 3 2 : k $.5._ b.b.v.v.v.r.0.0.0.r.p.v.x.x.l.l.l.e.q.q.e.e.l.l.l.l.l.l.l.l.x.v.",
"v.v.v.v.v.v.b.b.C.C.Z.Z.Z.G.Z.Z.n.Q J s.m.V.N.@ 8 w 8 @ $ 2 V Q  .Z.V.a.*.v 9 2 2 y n 6.v.v.v.v.v.x.l.l.l.l.l.l.l.l.l.x.x.x.v.v.",
"v.v.v.v.v.b.Z.Z.G.H.G.H.L.H.H.N.5.9 @ @ @ 4.m.%.% q w 8 q $ @ 4 u.G.a.7 $ 8 w w w $ + : 9.l.x.v.v.v.v.v.v.v.v.v.v.v.v.v.v.v.v.v.",
"v.v.v.v.v.b.Z.Z.Z.D.D.m.n.c.l.X.7 $ $ 3 $ @ a v @ $ $ % w % @ $ =.Z.n.A @ 3 8 3 $ + X O [ e.x.v.v.v.v.v.v.v.v.v.v.v.v.v.v.v.v.v.",
"v.v.v.v.v.x.c.p.<.] ] { >.q.q.<.M $ $ q 8 $ @ @ @ @ @ @ $ @ + o &.b.2.- - + + : O = D ;.e.l.x.v.v.v.v.v.v.v.v.v.v.v.v.v.v.v.v.v.",
"v.v.v.v.v.x.<.F 9 2 0 3 8 U 8.8.O.- # $ + + + + + + + + + + O I e.>.C ' 9.@.#.<.<.9.q.9.9.9.e.e.x.v.v.v.v.v.v.v.v.v.v.v.v.v.v.v.",
"v.v.v.v.v.9.: 3 8 w 0 w q 4 O.<.<.~ i X + X X X X X + X X , I q.l.p 9.l.l.l.l.l.l.9.>.7 p 6 f f C { 9.x.v.v.v.v.v.v.v.v.v.v.v.v.",
"v.v.v.v.v.9.- $ $ $ # $ $ $ U ~ ~ ~ ! U ~ s : p , , = u D e.l.l.! ! l.l.l.9.@.l.x.x.l.6 @ @ % % $ @ $ 6 B x.v.v.v.v.v.v.v.v.v.v.",
"v.v.v.v.v.v.1.l o X o o x <.v.v.v.v.v.v.9.9.<.9.9.e.H s ~ x.x.H v.v.v.e.k : $ @ / x.x./ @ $ w w w 3 $ @ $ x <.v.v.v.v.v.v.v.v.v.",
"v.v.v.v.v.v.v.e.<.>.<.>.e.v.v.v.v.v.x.>.f a 7 6 x 9.v.~ H v.C { v.x.9.7 @ $ % @ @ 2 $.$.@ @ $ % w e w $ @ $ f e.v.v.v.v.v.v.v.v.",
"v.v.v.v.v.v.v.v.v.v.v.v.v.v.v.v.v.x.X.- $ @ @ X + 7 <.~ T ] 1.9.9./ 7 $ $ w w 3 @ @ @ R Q @ @ $ w w e 8 $ @ : j x.v.v.v.v.v.v.v.",
"v.v.v.v.v.b.b.b.b.b.B.B.B.b.b.b.v.v.9.7 O + + + X - ! ~ { >.@.B B F - $ $ e e w $ @ @ @ $ $ @ @ $ % 3 8 $ @ - : 9.v.v.v.v.v.v.v.",
"v.v.b.b.B.C.C.Z.N.G.H.H.L.L.L.G.Z.C.b.1.h O = h O.9.x.x.C Y 9.<.e.9.7 + @ $ $ $ @ @ @ @ @ @ @ @ @ @ @ $ @ + O D l.v.v.v.v.v.v.v.",
"v.v.C.G.Z.N.N.N.D.F.F.F.J.U.U.L.G.G.C.x.>.[ o.@.9.<.<.' B ~ q.q.q.e.<.i X + @ @ @ @ @ @ @ @ @ @ @ @ @ @ + o X.e.v.v.v.v.v.v.v.v.",
"b.b.Z.G.N.M.n.n.n.n.n.n.n.m.m.s.a.*.) l = o $ $ - $ $ - 7 ' { e.l.l.x.o.< o X + + + + @ + + + + + + + + = X.l.x.v.x.x.x.v.v.v.v.",
"C.B.B.b.c.c.z.l.l.l.l.l.l.l.>.D i X + + + @ @ $ $ $ @ @ @ @ $ ] 9.x.v.x.9.S *     X X + X     X O < G F ] O.@.1.+.^ ) o.e.v.v.v.",
"B.b.v.v.l.l.l.l.l.l.l.e.9.{ o o + + $ % % @ % q 8 8 $ @ % $ @ @ $ H x.v.v.E 0.&.E M h > s M W X.9.e.l.9.X.H $ 8 8 q q 2 C l.v.v.",
"v.v.v.v.l.l.l.l.l.l.l.[ : X o + $ 8 q w q $ % q 8 8 $ $ q 8 $ @ $ 5 0.B.M.*.( a.y.2.0.5.0.e.x.v.x.x.v.x.{ O # $ $ % % @ 7 9.v.v.",
"v.v.v.v.x.l.l.l.x.v.9.i X X + 3 % 8 % $ $ @ @ $ $ $ @ $ 8 q $ @ @ + &.B.Z.s.A c v t y m b %.M.Z.Z.Z.C.b.l.F X X + + @ f o.x.v.v.",
"v.v.v.v.v.v.v.v.v.v.9., X + % r 3 $ @ @ @ + + + @ @ @ @ $ 8 % @ @ X  .N.d.n + @ 8 w $ @ @ z d.Z.G.U.U.G.G.A.4._ Z Z } e.x.v.v.v.",
"v.v.v.v.v.v.v.v.v.v.e.s   + 3 w $ @ @ @ + + X X @ @ $ % % % % @ + X | D.i.o + + $ $ @ + # *.Z.Z.G.T.R.T.T.T.U.F.F.D.M.v.v.v.v.v.",
"v.v.v.v.v.v.v.v.v.v.b.o.  + $ 8 $ @ + + + X ( f + $ 8 w q $ @ @ + ; t.C.M.3.d # $ + $ n -.G.D.Z.G.H.U.R.U.U.T.T.T.T.G.Z.B.b.v.v.",
"v.v.v.v.v.v.b.b.C.Z.Z.a.:   X @ @ @ +     d a._ + $ 8 q % @ @ X   N e.l.l.x.e.3.i.u.f.j.G.Z.Z.B.B.M.Z.L.L.L.W.Q.^.(.U.Z.G.C.v.v.",
"v.v.v.v.v.b.Z.Z.L.L.L.L.4.* o X X +     = >.l.>.X + @ $ + X X   M 9.l.q.e.l.l.z.z.r.y.e.e.l.l.l.l.l.l.x.x.c.n.Z.G.H.N.C.Z.B.v.v.",
"v.v.v.v.b.C.Z.G.H.L.L.L.Z.t.&.* & o X   M e.l.e.,   + +   . g W q.l.l.q.q.q.q.q.q.8.7.7.8.8.8.8.8.8.q.q.q.e.l.l.e.e.e.l.l.v.v.v.",
"v.v.v.v.b.b.B.B.b.B.C.C.b.v.v.9.9.[ S s 9.l.l.l.o.1 i S X.<.X.O.x.x.l.l.q.8.8.q.q.8.7.7.7.7.:.:.7.7.7.8.8.q.q.q.q.q.e.l.l.v.v.v.",
"v.v.v.v.v.v.v.v.v.v.v.v.v.v.v.v.v.x.x.x.c.c.b.b.c.p.n.B.B.B.R ..c.l.e.x.l.q.q.q.e.e.q.q.q.8.8.8.8.8.q.q.q.e.l.l.l.l.l.l.x.v.v.v.",
"v.v.v.v.v.v.v.v.v.v.v.v.v.v.v.v.v.v.b.B.C.C.C.C.C.C.N.d.g.P ` L K V C >.l.l.l.l.l.l.l.l.l.l.l.l.l.l.x.x.x.x.x.x.x.x.v.v.v.v.v.v.",
"v.v.v.v.v.v.v.v.v.v.v.v.v.v.v.v.v.v.b.B.B.b.b.b.b.p...m t 8 w w 3 @ + $ >.l.l.l.l.l.l.l.l.x.x.v.v.v.v.v.v.v.v.v.v.v.v.v.v.v.v.v.",
"v.v.v.v.v.v.v.v.v.v.v.v.v.v.v.v.v.v.v.b.v.l.l.l.9.j 2 2 w 8 $ $ 2 2 - - ~ l.l.l.l.x.x.v.v.v.v.v.v.v.v.v.v.v.v.v.v.v.v.v.v.v.v.v.",
"v.v.v.v.v.v.v.v.v.v.v.v.v.v.v.v.v.v.v.v.x.l.l.l.9.h # $ 8 $ @ @ B ~ >.9.x.x.v.v.v.v.v.v.b.b.Z.Z.C.B.B.B.b.b.b.v.v.v.v.v.v.v.v.v.",
"v.v.v.v.v.v.v.v.v.v.v.v.v.v.v.v.v.v.v.v.x.l.l.l.l.<.s X @ + + + + 6 l ] x.x.x.v.v.v.b.B.Z.L.Q.W.T.L.U.U.L.G.Z.C.b.v.v.v.v.v.v.v.",
"v.v.v.v.v.v.v.v.v.v.b.Z.L.U.G.G.Z.Z.Z.Z.B.b.x.x.x.x.9.S 1 o X X O , : >.l.x.v.v.v.v.b.Z.G.H.^.^.R.L.R././.T.L.G.Z.b.b.b.b.v.v.v.",
"v.v.v.v.v.v.v.b.B.U./.|.XXoX X{.{.[.(./.Q.Y.G.Z.b.b.b.x.9.<.>.>.9.>.l.v.v.v.v.v.v.x.c.M.B.r.s.m.n.n.m.D.H.L.G.G.Z.C.C.C.b.v.v.v.",
"v.v.v.v.v.b.b.L.Q.}.XX+X$X%X#X#X$X#XOXoXoXXX X_./.R.H.b.v.v.v.v.v.x.v.v.v.v.v.v.v.x.l.l.e.q.7.q.q.e.l.z.c.c.B.B.c.c.c.c.c.x.v.v.",
"v.v.v.v.v.C.G.R._.`.{.{. XoX@X+X$X$X#X#X$X%X%X#XXXXX|.(./.Q.R.H.G.C.b.v.v.v.v.v.v.x.l.l.e.q.8.8.q.l.l.l.l.e.l.e.e.l.l.l.l.x.v.v.",
"x.l.l.l.l.n.D.A.S.g.y.n.D.Y./.(._.'.]. X.X#X#X@XoXoXXXoX@X#X@XXX|._.W.Z.G.Z.B.v.v.x.x.x.l.l.l.e.l.l.l.l.l.e.e.e.e.l.l.l.l.x.v.v.",
"l.l.l.l.e.q.r.w.8.7.8.q.q.l.e.r.r.y.s.A.J.(._.^.^.(._. X+X#X#XoXXX X(.T.R.R.G.v.v.v.v.v.v.v.v.v.v.v.v.l.l.l.l.l.l.l.x.x.v.v.v.v.",
"l.l.l.l.l.q.8.8.8.8.8.q.q.q.q.q.8.8.8.q.q.q.w.e.e.z.a.g.J.!.~.K.K.!.J.F.F.H.Z.v.v.v.v.v.v.v.v.v.v.v.v.l.l.l.l.l.x.x.v.v.v.v.v.v.",
"x.x.l.x.c.z.e.e.l.l.l.l.e.e.e.q.q.8.7.7.7.7.:.7.7.8.7.7.8.q.q.8.q.r.r.l.l.l.x.v.v.v.v.v.v.v.v.v.v.v.v.x.l.x.v.v.v.v.v.v.v.v.v.v.",
"v.v.v.b.Z.G.G.G.G.L.G.Z.B.B.b.b.l.q.7.7.8.7.:.:.:.7.7.7.q.q.q.q.q.e.l.l.l.l.x.v.v.v.v.v.v.v.v.v.v.v.v.v.v.v.v.v.v.v.v.v.v.v.v.v.",
"v.v.b.Z.L.R.Q./.(.(.(./.U.L.G.N.n.l.q.q.l.q.q.8.8.q.q.e.l.l.l.l.l.x.x.v.b.b.b.b.b.b.b.b.b.v.v.v.v.v.v.v.v.v.v.v.v.v.v.v.v.v.v.v.",
"v.v.B.Z.G.H.U.I.^.^.(.^.I.F.m.y.r.l.l.l.x.l.l.l.l.x.v.v.v.v.v.v.v.b.Z.Z.G.G.G.G.Z.Z.G.G.Z.B.b.v.v.v.v.v.v.v.v.v.v.v.v.v.v.v.v.v.",
"v.v.b.B.C.c.z.y.y.y.s.s.n.r.r.e.q.l.x.x.v.v.v.v.v.v.v.v.v.v.b.b.B.Z.H.U.U.H.F.U.J.H.F.D.N.Z.B.b.b.b.v.v.v.v.v.v.v.v.v.v.v.v.v.v.",
"v.v.v.v.v.l.l.e.q.q.q.q.e.l.l.l.l.x.v.v.v.v.v.v.v.v.v.v.v.v.b.C.C.C.D.A.A.m.m.A.S.A.m.y.n.N.C.C.C.b.v.v.v.v.v.v.v.v.v.v.v.v.v.v.",
"v.v.v.v.v.x.l.l.l.l.l.l.l.l.x.x.v.v.v.v.v.v.v.v.v.v.v.v.v.v.b.B.b.b.l.e.e.r.r.r.y.y.r.e.l.c.b.b.b.b.v.v.v.v.v.v.v.v.v.v.v.v.v.v.",
"v.v.v.v.v.v.v.v.v.v.v.v.v.v.v.v.v.v.v.v.v.v.v.v.v.v.v.v.v.v.v.v.v.v.l.l.l.l.l.l.l.l.l.l.l.x.v.v.v.v.v.v.v.v.v.v.v.v.v.v.v.v.v.v."
};
