/* XPM */
static const char *map_tile_mountain[] = {
/* columns rows colors chars-per-pixel */
"64 64 138 2 ",
"   c #16120F",
".  c #191511",
"X  c #1E1915",
"o  c #211B16",
"O  c #241E19",
"+  c #27201B",
"@  c #2B241D",
"#  c #2D2721",
"$  c #2F2923",
"%  c #342B24",
"&  c #392F27",
"*  c #352E28",
"=  c #3A3027",
"-  c #35312E",
";  c #3C322A",
":  c #3E3730",
">  c #3D3833",
",  c #41362C",
"<  c #44392E",
"1  c #453A31",
"2  c #4A3E32",
"3  c #453E38",
"4  c #483F38",
"5  c #4E4135",
"6  c #4D433A",
"7  c #514236",
"8  c #54463A",
"9  c #57483B",
"0  c #5A4B3D",
"q  c #4A4541",
"w  c #4F4943",
"e  c #544A42",
"r  c #5E4F40",
"t  c #524D48",
"y  c #584F48",
"u  c #5E5146",
"i  c #5C534B",
"p  c #5C5650",
"a  c #655445",
"s  c #695747",
"d  c #63564A",
"f  c #685748",
"g  c #67584B",
"h  c #6C5A4A",
"j  c #715E4D",
"k  c #655B53",
"l  c #6B5D51",
"z  c #645E59",
"x  c #73604F",
"c  c #6E6054",
"v  c #66615C",
"b  c #6D645C",
"n  c #746251",
"m  c #796552",
"M  c #7D6955",
"N  c #72655A",
"B  c #76695D",
"V  c #7A6A5D",
"C  c #686461",
"Z  c #6F6963",
"A  c #716C60",
"S  c #7B6E63",
"D  c #756F69",
"F  c #7E7165",
"G  c #77736E",
"H  c #7B726A",
"J  c #7B7773",
"K  c #7F7974",
"L  c #816E5C",
"P  c #827264",
"I  c #887667",
"U  c #83766A",
"Y  c #85796D",
"T  c #8B7B6D",
"R  c #837B74",
"E  c #8A7E73",
"W  c #8D8176",
"Q  c #87817A",
"!  c #8E857D",
"~  c #92867B",
"^  c #998B7E",
"/  c #8E8781",
"(  c #8C8884",
")  c #8E8B88",
"_  c #918880",
"`  c #948B83",
"'  c #908B87",
"]  c #998D82",
"[  c #998D83",
"{  c #918C88",
"}  c #948E89",
"|  c #978F89",
" . c #988F88",
".. c #9D9084",
"X. c #95918D",
"o. c #99928B",
"O. c #9D938A",
"+. c #99928C",
"@. c #9B9691",
"#. c #9C9895",
"$. c #A19387",
"%. c #A2968C",
"&. c #A2978E",
"*. c #A69A8E",
"=. c #A09790",
"-. c #A49B92",
";. c #A29C97",
":. c #A49D97",
">. c #A89F96",
",. c #A19D9B",
"<. c #A6A09B",
"1. c #A6A19D",
"2. c #ABA29B",
"3. c #ACA39B",
"4. c #AFA69E",
"5. c #B3A89E",
"6. c #A7A5A2",
"7. c #AAA4A0",
"8. c #AFA9A3",
"9. c #AFAAA6",
"0. c #B3AAA3",
"q. c #B5ACA3",
"w. c #B0AAA4",
"e. c #B8AEA4",
"r. c #B3AEA9",
"t. c #B7AFA9",
"y. c #BBB0A7",
"u. c #B6B0AB",
"i. c #B8B3AE",
"p. c #BDB5AF",
"a. c #BFBAB7",
"s. c #BEBBB9",
"d. c #C4BDB7",
"f. c #C6C1BC",
"g. c #C9C4BF",
"h. c #CCC6C1",
"j. c #D4D0CD",
"k. c #DBD7D3",
/* pixels */
"A A A A A A A A A A A A A A A A A A A A A A A A A A A A A A A A A A A A A A A A A A A A A A A A A A A A A A A A A A A A A A A A ",
"A A A A A A A A A A A A A A A A A A A A A A A A A A A A A A A A A A A A A A A A A A A A A A A A A A A A A A A A A A A A A A A A ",
"A A a a a a a r a a a a a a a a a a a a a a a a a a a a a a A A A A a a a a a a a a a 0 a a a a a a a a a a a a a s s a a a A A ",
"A A a a a a 9 7 r a a a a a a a a a a a a a a a a a a a a a A A A A a 9 9 a a a a a 9 r 0 9 5 Q _ a a a a a a s h n s s h a A A ",
"A A a a a H Q r a a a a a a 2 0 r a a a a a a a a a a a a a A A A A < 2 2 a a a a 8 a r 0 a k s.<.a a a a a h n j n h 0 s a A A ",
"A A a a u ( 6.3 a a a a a r O = % 5 a a a a a a a i 2 r a a A A A A @ 8 = a a a a a a 0 r 0 / a.;.l a a a s j h j r ; , ; a A A ",
"A A a a b K 7.: 9 a a a 8 < @ 2 & % r a a a a 9 z ,.' 8 a a A A A A & a , 1 r a r 2 a a a 1 _ >.E i r a a h h s x 2 = h < 9 A A ",
"A A a r b d R u 2 9 a 7 % # 0 9 5 % & 1 r a r 1 ;.8.C 9 0 a A A A A 8 a r + % r = w 0 a 9 1 V F c 1 , 9 a a a s f 9 7 s 2 2 A A ",
"A A a < r 9 d a 7 , 0 1 < 0 0 9 5 5 r < @ , & 3 4.=.D 2 9 a A A A A a a a a < @ R :.e a , 7 a a a a 9 2 9 a 9 9 a 2 2 h 9 , A A ",
"A A r & 8 a a a r , 2 a a a 0 5 y ; a r 1 < 1 Y &.V H 2 0 a A A A A a a a a 9 1 W H % a 2 r a 0 a 0 r 9 9 a i 6 a o 9 a a r A A ",
"A A r 2 0 a a a a 9 ; r a a a , R G 9 a 9 % 0 L V P N : 9 a A A A A a a a r , 0 N g @ 5 9 0 9 8 2 0 0 a a u ) D a a a a a a A A ",
"A A a a a a a a a a 2 7 9 a r & 4.i.% h 9 & n x n n n = 2 9 A A A A 9 a r % ; 9 9 9 2 ; 2 7 7 7 9 0 a a a y { R 9 a a a a a A A ",
"A A a a a a 9 6 6 a a 9 9 a 7 y d.t.3 h % 0 x n n h s 9 7 @ A A A A , r 0   8 9 7 9 7 < & = 5 7 9 a a a r y ~ H & 0 a a a a A A ",
"A A a a a a 1 8.w.9 a a a a , N p.q.! 6 M j n n n h s a 7 ; A A A A 2 ; & 8 9 0 0 0 9 0 2 1 2 ; 0 a a a 1 e F c @ = a a a a A A ",
"A A a a a 9 y p.+.; a a a r & N ] ..W % h n h n n s a r , 9 A A A A a 9 @ + 2 r 0 9 a 9 r 2 < X 0 a a r @ 0 a 0 2 & 9 r , 9 A A ",
"A A a a a 2 b 4.S * 0 a 0 2 ; a n S I & 2 h x r 2 0 a 7 ; a A A A A a a a 8 & = 8 a a a a r ; t A a a 7 % r a r r ; 9 1 ; 8 A A ",
"A A a a r @ l N 0 & 9 9 9 % , 9 7 6 g < @ a a & & < s = 8 a A A A A a a r a a 7 , a a a a r O 3.| % a , , a a a a a r % o.6 A A ",
"A A a a 7 @ a r 8 0 7 2 1 % 2 5 7 9 7 r O 9 % 6 3.k a < r a A A A A a a a 9 9 r 2 a a a a 0 # >.~ ; 9 r r a a a a a 7 v j.6 A A ",
"A A a a , 7 0 0 0 0 7 8 % , 7 5 9 0 r r , 2 u 5.y.O.8 8 a a A A A A a a a > 8 a a s a a a 1 0 W V d , 2 a a a a a a 5 <.k.6 A A ",
"A A a r & r a s h 0 m 0 % ; 8 8 7 8 9 a 9 7 T p.e.3.c 2 a a A A A A a a 5 J R 9 j m s h a + g h a a a 7 9 a a a a a e u.h.y A A ",
"A A a 7 , a a j j j a r X 1 7 7 9 0 a 0 @ s *.*.&.&.R < r a A A A A a s i <.| 1 n m j j 9 @ a a a j m 9 = , r a 9 2 3 &.>.r A A ",
"A A a = 9 a h h n s a a 9 9 8 0 8 a a 2 ; U E h P P Y 6 2 r A A A A a a 1 <.=.N 0 j j s @ 2 a a s x j 2 a 2 , 5 7 , 1 S N r A A ",
"A A a < a a h a s 9 ; r 0 r a s s j 7 < B U n j h s n 7 . & A A A A a 7 y :.~ B e j h f s a a a n j 9 O , a 7 1 5 , , a a a A A ",
"A A a a a a a a 0 1 + 9 a h n j m n < g I a a j f s 9 & @ 7 A A A A a ; N ~ a B k g a r a a a h M j = < % a a r r , , a a a A A ",
"A A a a a a a r @ 2 , ; a x n n j a 5 j j s a a a s , & 7 & A A A A 9 ; N N a a e ; 2 0 a a a n n h + a + r a a a 1 2 a a a A A ",
"A A a a a a r ; o 0 a = , a a s h 0 a j s f a a a r + r r % A A A A 2 2 a a a 0 0 ; ; 7 9 9 m n x 9 # a 1 % a a a , 7 a a a A A ",
"A A a a a r & & 0 a 0 8 < ; 9 a s ; a h h a a a a 1 + r r 1 A A A A @ 7 a a 0 7 7 < & 2 5 a s h j 2 2 a r + r a a & 0 a a a A A ",
"A A a a 9 & ; r a a 7 7 2 @ @ r 0 0 s s a a a a r % 1 9 0 r A A A A @ r 9 0 7 7 8 5 = @ 0 a a a f , 8 a a 2 7 9 a % r a a a A A ",
"A A a 9 % % 9 a a a r 9 9 r & , 7 a a a a a a a a # r 0 a a A A A A 9 a a a 0 0 0 9 8 + 8 0 a a a @ 9 a a a 9 9 0 . < a a a A A ",
"A A a 9 9 a a a a a a a a a 9 < & 9 a a a a a a a < a a a a A A A A a a a a a a a a a 2 r a a a a 0 a a a a a a a a a a a a A A ",
"A A A A A A A A A A A A A A A A A A A A A A A A A A A A A A A A A A A A A A A A A A A A A A A A A A A A A A A A A A A A A A A A ",
"A A A A A A A A A A A A A A A A A A A A A A A A A A A A A A A A A A A A A A A A A A A A A A A A A A A A A A A A A A A A A A A A ",
"A A A A A A A A A A A A A A A A A A A A A A A A A A A A A A A A A A A A A A A A A A A A A A A A A A A A A A A A A A A A A A A A ",
"A A A A A A A A A A A A A A A A A A A A A A A A A A A A A A A A A A A A A A A A A A A A A A A A A A A A A A A A A A A A A A A A ",
"A A A A A A A A A A A A A A A A A A A A A A A A A A A A A A A A A A A A A A A A A A A A A A A A A A A A A A A A A A A A A A A A ",
"A A a a a a a a a a a 2 r a a a a a a a a a a a a a a a a s A A A A a a 2 e y a a 2 r e u a a a a a a a r y a a a a a a a a A A ",
"A A a s h h n j h a 9 O & a a 0 r r 0 r 0 r 0 r a a 9 9 a a A A A A a 0 % H c a r @ A H 1 a a a a a a r 3 - a a 0 a a a a a A A ",
"A A a h s n x n n f ; D 1 a r 0 9 0 ; 5 r 9 9 r 9 2 ; # a a A A A A a ; z 7.D 6 7 ; Y P # a a a a a 9 i 1.q r a a r r a r % A A ",
"A A a a x n m n s 0 i h.i 5 9 9 5 % $ 5 0 9 9 5 o : k # a a A A A A r % O.<.` i , , N h % r a a a a 1 @.u.G 5 a a a a a 1 D A A ",
"A A a a s h m h a $  .f._ 1 5 9 , 6 Z 5 8 7 2 O : R O.1 9 a A A A A 1 * E E U 2 < 0 a a 2 r a 0 7 1 u ,.! _ 1 a a a a 9 e 7.A A ",
"A A a a s = s f 9 % O.O.` 5 , 6 v t.9.= 5 5 % % N l Y 0 2 9 A A A A @ 0 a l a 0 + % 8 r < 2 8 0 5 = Y ! l S 2 2 a a a 2 H u.A A ",
"A A a r % + 0 0 8 B W S ] c 9 t G f.<.1 5 @ % 9 r 0 l a 2 2 A A A A % r s j s 9 1 O @ < ; % = 0 & 7 S S a r r ; 9 a r , o.0.A A ",
"A A a 1 e E d 2 d F E F P a 5 b =.f._ 6 2 a 5 0 a a a a 9 , A A A A 9 a j n s a 0 0 7 : D i ; 5 O a r a a a a & o , 7 < 4.0.A A ",
"A A r @ k O.A 2 h h a h h a 1 S -.0.O.E % m h a r a a a a 2 A A A A a j j h j j 0 7 = H | / , 0 9 a a a a a r 7 0 0 @ u &.E A A ",
"A A 7 ; N U d = a a a a a 9 , ~ ] ^ ~ ] % h f a 9 < 5 a a a A A A A a j h x j s r 1 = R ! ~ 1 2 a a a a 0 7 % @ r 1 % h Y h A A ",
"A A , 7 c a a , % a a a a 2 F $.P Y Y U 8 2 0 9 8 b e a a a A A A A a a a 2 2 a 0 = 1 c c N r 1 9 a a r 9 @ D e 0 X r a a a A A ",
"A A + r a a a r O % < a r 1 P j l U g N 6 % a 1 b ] e 9 a a A A A A a a = @ a a 5 , 0 g g a a 7 @ a a 9 1 3 V u = 9 a a a a A A ",
"A A O a a a a a a a a a , 8 h s a d a 9 9 & 1 y R W d 2 9 a A A A A a 5 s 1 8 a @ 0 n j a a a r @ = a 9 1 F U g = 5 r a a a A A ",
"A A 9 9 9 9 r 9 0 9 a r O s s a r 9 5 7 a 1 @ d S V h 2 2 a A A A A 0 2 x 9 7 a a j m M s a a a 2 t e % d V V m a ; , a a a A A ",
"A A 0 0 9 8 9 0 9 9 9 , @ n a 7 ; O ; a r 1 % c a a a 7 @ r A A A A ; a a 0 < a j n m h h a a a 6 #.z ; h h j n m a 0 a a a A A ",
"A A 0 9 9 7 8 = % & 7 9 r a < H &.e & 2 a 2 2 a a a a r X ; A A A A ; a 9 a , 7 f m h h a a a a e g.K u a n j M m j s a a a A A ",
"A A 0 5 8 5 < p X.r 0 a n 0 i ~ E 0 ; = a = = 0 9 a a a @ A A A A A , 0 9 0 2 , r a s h a a a r b g.| 6 h h x M j a 0 r a a A A ",
"A A r 9 7 2 O D 7.0 r h j % y E h f 2 & 9 a a 9 0 r a 9 8 O.A A A A r 0 9 9 5 ; 5 a a a a a a 7 D u.] 8 r n h h s R v 5 a a A A ",
"A A 0 7 0 < i 2.i.6 j s 2 2 n h a a a 9 9 9 5 9 0 7 0 & H :.A A A A a 0 9 0 0 < 1 a a a a a a = N E H u , s a n h r.1.u a a A A ",
"A A a a 0 ; R -.:.e s a & a a a a a a 0 5 7 9 9 8 0 1 1 W ~ A A A A a a a 9 2 b w a a a a a r o r l N r % r s n D t.-.i a a A A ",
"A A a a 1 d E ` ] N & h X j a a a a a 8 5 8 r 8 9 5 & 9 Y V A A A A a a a 4 D H % r a a a a 7 + 9 a r 9 ; < n l Z >.E i 9 a A A ",
"A A a 9 6 B E U T n @ s h s a a a a 7 5 7 r 0 0 9 2 + 0 l a A A A A a a 9 k =.~ 1 , a a a a & 2 0 8 0 0 0 & 5 e S ~ h 8 2 a A A ",
"A A r * A P a a n s 8 & a a a a a a 8 % @ 8 a 9 5 @ = a a a A A A A a r , r E a 2 < 9 a s 0 @ a a a 0 0 a s ; 1 n c a 9 , r A A ",
"A A 8 ; h a a a s a a @ 0 f a a a r , 9 5 @ a a , % a a a a A A A A a , 2 a N 9 a 0 2 j j 7 % a a a a a a a X 8 a a a a 2 7 A A ",
"A A % a a a a a a a a 9 2 9 a a a , 2 a r @ 9 a 2 r a a a a A A A A 9 @ a a a a h a < a h 0 0 a a a a a a r . , a a a a a 9 A A ",
"A A a a a a a a a a a a 9 2 9 a a @ a a a 9 2 = a a a a a a A A A A , @ a a a s j h 0 0 a s a a a a a a a 7 , a a a a a a a A A ",
"A A a a a a a a a a a a a 9 9 a 0 @ a a a a 9 @ 0 r a a a a A A A A r r a a a a a f h s a f a a a a a a a 9 9 a a a a a a a A A ",
"A A A A A A A A A A A A A A A A A A A A A A A A A A A A A A A A A A A A A A A A A A A A A A A A A A A A A A A A A A A A A A A A ",
"A A A A A A A A A A A A A A A A A A A A A A A A A A A A A A A A A A A A A A A A A A A A A A A A A A A A A A A A A A A A A A A A "
};
