/* XPM */
static const char *map_tile_sand[] = {
/* columns rows colors chars-per-pixel */
"64 64 98 2 ",
"   c #716C60",
".  c #86844E",
"X  c #8D8A4C",
"o  c #918E4F",
"O  c #888650",
"+  c #8C8A52",
"@  c #908E54",
"#  c #949255",
"$  c #9A9756",
"%  c #9B9956",
"&  c #959358",
"*  c #989658",
"=  c #9D9B5A",
"-  c #A19E5D",
";  c #A4A15D",
":  c #A9A65E",
">  c #ABA85E",
",  c #A6A362",
"<  c #A9A666",
"1  c #ADAA63",
"2  c #A9A769",
"3  c #ADAB6F",
"4  c #B1AE65",
"5  c #B1AE6C",
"6  c #B5B266",
"7  c #B5B26C",
"8  c #BAB66A",
"9  c #BEBB6D",
"0  c #AAA772",
"q  c #AEAC71",
"w  c #ACA878",
"e  c #B1AE74",
"r  c #B4B274",
"t  c #B9B676",
"y  c #BBB976",
"u  c #B4B27B",
"i  c #B9B67B",
"p  c #BDBB79",
"a  c #C1BD6E",
"s  c #C2BF73",
"d  c #C1BF7C",
"f  c #C6C16F",
"g  c #C4C174",
"h  c #C8C570",
"j  c #C4C27E",
"k  c #C9C77D",
"l  c #B7B581",
"z  c #B8B682",
"x  c #BBB985",
"c  c #BDBB8A",
"v  c #BDBC8B",
"b  c #BEBC8E",
"n  c #C1BF83",
"m  c #C1BF85",
"M  c #C0BE8A",
"N  c #C1BF8C",
"B  c #C0BF92",
"V  c #C2C080",
"C  c #C4C180",
"Z  c #C7C580",
"A  c #C3C087",
"S  c #C5C285",
"D  c #C7C487",
"F  c #C8C580",
"G  c #C9C781",
"H  c #CAC785",
"J  c #C8C686",
"K  c #CDC983",
"L  c #CCCA84",
"P  c #CFCD85",
"I  c #C3C189",
"U  c #C4C28B",
"Y  c #C6C48E",
"T  c #C9C68C",
"R  c #CAC78C",
"E  c #CAC88C",
"W  c #CBC98F",
"Q  c #D0CD85",
"!  c #C2C092",
"~  c #C4C290",
"^  c #C6C491",
"/  c #C2C094",
"(  c #C9C793",
")  c #C9C794",
"_  c #CCCA92",
"`  c #CFCD92",
"'  c #CAC895",
"]  c #CCCA95",
"[  c #CECC95",
"{  c #C4C298",
"}  c #C5C399",
"|  c #CECC99",
" . c #D0CF92",
".. c #D1CF9A",
"X. c #D4D29B",
"o. c #D3D1A1",
"O. c #D8D6A5",
"+. c #DFDEAD",
/* pixels */
"                                                                                                                                ",
"                                                                                                                                ",
"    3 3 3 3 2 , 3 3 3 3 3 3 3 3 3 3 3 3 3 3 3 3 3 3 3 3 3 3         3 3 3 3 3 3 3 3 < = 3 < 2 3 3 3 3 3 3 3 3 3 3 e u 3 3 3     ",
"    3 3 3 < $ + , 3 3 q r t p t p p 3 3 3 3 3 3 3 3 3 3 3 3         3 3 3 3 3 3 3 3 $ , ; = , 3 3 3 3 3 3 3 q e u b u r u 3     ",
"    3 3 2 $ + = 3 3 r F j d j p j j 3 3 3 3 3 3 3 3 3 3 3 3         3 3 3 3 3 3 3 # 2 , - < 2 3 3 q q 3 3 3 u b x c b } l 3     ",
"    3 3 , # * ; 3 3 r d t r 7 5 3 1 3 3 3 3 3 3 3 3 2 , 3 3         3 2 3 3 3 3 3 < 3 - , 2 3 p Z j F j e e l u z z x } u 3     ",
"    3 3 3 , # ; 3 3 3 2 = < $ = # * 2 e p p F j d j 7 4 g d         2 < 3 3 3 3 e r r 5 3 2 3 y p y j P F u u r c q N v r 3     ",
"    3 3 3 , o , 3 3 3 = * - ; $ # - < r j Z Q p p y , 1 8 p         3 2 e d F F j j j j t 3 3 q q 3 e p y 3 3 e e b l r q 3     ",
"    3 3 < = * 2 3 3 - , - - , $ , , 3 q r r p e e = - ; = e         3 3 r j j p t y t j P j 3 3 3 3 3 3 3 3 3 3 3 e e u 3 3     ",
"    3 2 = < 2 3 3 3 - 3 < 3 , , < < 3 3 3 3 3 3 q q u ; ; 3         3 3 q r e 3 3 3 3 r j p < = 2 , , 3 3 3 3 3 3 3 3 q 3 3     ",
"    3 2 = 2 3 3 3 3 3 3 < 3 3 3 2 3 r e e 3 u ! z / c 2 3 3         3 3 3 3 3 , ; , * , * = = # X = , 3 3 3 3 3 3 3 3 3 3 3     ",
"    3 3 2 3 3 3 3 3 3 3 3 3 r p F K j D ' x v x b c u e 3 3         3 3 , @ * $ $ $ - = = # # # $ ; 2 3 3 3 3 3 3 3 3 3 3 3     ",
"    3 3 3 3 3 3 3 3 3 3 3 3 r d j V A ~ N / x b b u e q 3 3         3 3 ; # # $ + $ # + = O X + = 3 3 3 3 3 3 2 , , 3 3 3 3     ",
"    3 3 q t j j d j p 3 3 3 e r r u B / / x v b c u u 3 3 2         3 = X = $ = = ; $ - + : 6 9 9 p j j y q 3 , = , 3 3 3 3     ",
"    3 3 e p j d p d j 3 3 3 3 3 u z z v c v u b v u q 3 3 3         3 ; = - = , , * 2 * < 6 8 p y t y j d e < ; < 2 3 3 3 3     ",
"    3 3 3 r r e q 3 , 2 , , < = e , c $ < u c z r e 3 3 3 3         3 2 3 2 2 3 2 2 2 < 3 5 7 2 2 3 3 e r q < , 2 2 3 3 3 3     ",
"    3 3 3 3 3 < = # $ * $ * # % # + 1 1 p t ] ` [ x u 3 < 3         3 3 , 3 3 3 3 3 3 3 3 3 3 3 3 3 3 3 3 3 3 3 2 3 r q 3 3     ",
"    3 3 3 3 3 , # = + . # O o O + $ ; p j C J ( ^ M B 2 , 3         3 3 3 3 3 3 3 3 3 3 3 3 3 3 3 3 3 3 3 r d p F j j d j t     ",
"    3 3 3 3 ; - = = o # O o o O % - 1 3 5 i M c } c u 2 2 3         3 3 3 3 3 3 q r 3 3 3 3 3 3 3 3 3 q r p Q j p t y y j j     ",
"    3 3 3 3 3 e u , N - # O # # @ # * 3 q z } b B z u q 3 3         3 3 3 3 3 3 z B e u u 3 3 3 3 q r e p p d r 3 < , q r r     ",
"    3 3 q y C _ R U 3 , = * # + * = 2 2 q c / z z x u q 3 3         3 i p 3 3 e c b M R m y p r 3 z B q r e 3 2 $ O O 3 3 3     ",
"    3 r F J  .S ) p q < $ * # ; # 2 3 q N u e r c c u 3 3 3         3 i J K F ..` E _ R S d j t u c z r 3 3 3 , + o = , 3 3     ",
"    3 r j p m r u q u , , , q e e l , q t p E ` R V V r r 3         3 e y d p Y V I x i i r r e b x x e 3 3 < # O , , 3 3 3     ",
"    3 q r q 3 q e < - - 3 u v x B c u x | p d E n d V d F d         3 q 3 3 3 3 2 e < , q 3 3 u / x z e 3 3 < , , - - 3 3 3     ",
"    3 3 3 3 3 3 3 - $ , 3 c c b x c B B v u e e e r r r p p         3 q 3 3 3 < $ = = = < < q b b c z q 3 3 3 3 2 2 3 3 3 3     ",
"    3 3 3 3 3 3 ; , 7 6 1 d r u u B / x u e 3 3 3 3 3 3 3 q         3 3 3 3 2 - - = $ o $ $ b N _ A S C d d 3 3 3 3 3 q r r     ",
"    3 3 3 3 3 3 ; t a 8 s , = < u 3 z u u 3 3 3 < = ; , , 3         3 , < 3 = + o + # + + 3 u S X.J d d p p 3 3 3 e p p j t     ",
"    3 3 3 3 3 3 3 e - $ $ = , , ; ; r e q 3 3 3 , $ * $ ; 3         3 , $ ; + # # X # + , 2 2 y J i r e q q 3 3 3 r j j F e     ",
"    3 3 3 3 3 3 3 < , $ * , < ; < 2 3 3 3 3 3 3 3 2 , = < 3         3 3 3 2 - = = $ = , , ; 1 3 e 3 3 3 3 3 3 3 3 q r r r 3     ",
"    3 3 3 3 3 3 3 3 3 3 3 3 3 3 3 3 3 3 3 3 3 3 3 3 3 3 3 3         3 3 3 3 3 2 2 2 3 3 3 3 3 3 3 3 3 3 3 3 3 3 3 3 3 3 3 3     ",
"                                                                                                                                ",
"                                                                                                                                ",
"                                                                                                                                ",
"                                                                                                                                ",
"                                                                                                                                ",
"    3 3 3 3 3 q 3 3 3 3 3 3 3 3 3 3 3 3 3 3 3 3 3 3 3 3 3 e         3 3 3 3 3 3 3 3 3 3 3 3 3 3 3 3 3 3 3 3 3 3 3 3 3 3 3 3     ",
"    3 e u u c x l 3 3 3 3 3 < ; , , ; , ; , ; 3 y y p r 3 3         3 < ; , - 2 e r r r r 3 3 3 3 3 3 3 3 - < < - 2 3 3 3 3     ",
"    q u e c v ' ' S d j p t , ; = , , ; , 1 6 g 8 8 y 4 3 3         3 = < - 1 s Z j j F F K j 3 3 3 3 3 3 - 3 < 3 , , 3 3 3     ",
"    q p X.X.X...J n p d d h h 6 # 3 , < ; - 1 : ; = = ; 3 3         3 3 - = y p p t y p y d p 3 < 2 , , = # 3 < 3 3 3 3 3 3     ",
"    e p J R ' v x e q e r y s f ; % o = # @ @ . $ * = < 3 3         3 , ; 2 3 e 3 3 3 3 3 3 3 - + , $ * + < < 3 3 r p p y q     ",
"    q r x l e e r 3 3 3 3 - ; 4 X * $ $ O # o + O $ 2 < 3 3         3 3 3 3 < < % * = , # 3 < = , = - o ; < e d j F j j d e     ",
"    3 q q e e e 3 3 3 3 3 3 3 # + * ; # ; O , * , ; < < 3 3         3 3 e z e = # $ # o $ * # - ; ; * , < , q t y p r r r q     ",
"    3 q 3 3 q q 3 3 3 3 e r # 3 , < * , 3 q * - 2 3 3 3 3 3         3 3 z c e q - - o @ + $ * $ - 3 , < < 3 3 , o < 3 3 3 3     ",
"    3 3 3 3 3 3 3 q p L Z j j j 3 z u c c N u 3 , 3 3 3 3 3         3 z z u z x - @ o X # # $ < 2 3 3 3 2 < , o ; < 3 3 3 3     ",
"    3 3 3 3 3 3 3 r F j p t p _ X.c x x b u e q 3 3 3 3 3 3         3 z u c l e , # O O * = 3 5 r 3 3 2 = $ o = , 3 3 3 3 3     ",
"    3 3 3 3 3 3 3 e y e 3 q u N p r 3 * u - ; 3 3 3 3 3 3 3         3 3 e x e 2 - $ > > 7 g p j k F 2 , - $ ; 2 , 3 3 3 3 3     ",
"    r r p p d F F F p 3 3 u z e ; 3 , 3 # $ 2 2 r Z j j F j         3 3 q e q q , , J 9 t y t y p d k $ 3 , 2 , 2 3 3 3 3 3     ",
"    j j k d p p p p p j 3 u u e q * < * $ < < 3 r j p y p y         3 e b b e 3 < u ~ v e q 3 3 3 e p 3 2 < 3 3 u x 3 3 3 3     ",
"    : , , : < $ ; * 7 P 3 u r 3 z u * @ 2 2 2 3 3 e e 3 3 3         e b / b z q l z B } u 3 3 3 3 3 3 3 3 3 u N b b e 3 3 3     ",
"    ; = * # $ = * $ $ 7 e b 3 x l , < < , < 3 3 3 3 3 3 3 3         e c q e u e z c B u u 3 3 3 3 3 r t t p Y b B / e 3 3 3     ",
"    - $ = + # O + # + - 3 u / b u < 3 < 3 3 3 3 3 3 3 3 3 3         q 2 $ 2 3 q e ! u u q 3 3 3 3 e d j p [ X.+.| Y u 3 3 3     ",
"    ; + # X # @ # # ; q c c z z e u 3 2 3 3 3 - * 3 3 3 3 3         3 = * - 3 ; , q e u 3 3 3 3 3 q r t r i Y O._ | x 3 3 3     ",
"    , $ + + + , $ , , u B u q q e e 3 3 3 3 2 = ; , 3 3 3 3         q 1 1 , 7 4 5 5 q 3 3 3 3 3 3 3 3 3 3 c u u x ~ } q 3 3     ",
"    - @ - < < , < d R y r i i r r y p d 3 = O $ = o - * 3 3         q 7 8 8 8 g d d j t 3 3 3 3 3 , - < 3 e q c ! c u u 3 3     ",
"    2 < < , 2 3 q m o.V E L j j Z j p 4 X @ * $ # - * ; 2 3         3 3 5 1 3 r r t p r 3 3 3 < * # # o - 2 e b / u r 3 3 3     ",
"    3 3 3 3 3 3 3 b ~ v ^ U t t p t r & O # , # $ O # = 2 3         3 3 3 2 3 2 2 3 q q 3 3 3 ; $ = * $ $ < b c u e u 3 3 3     ",
"    3 3 3 3 3 3 / x l z u e q 3 3 3 o ; < , - , $ $ = ; 2 3         3 3 3 3 3 3 , * < 3 3 3 - = ; # = - < e z u u q 3 3 3 3     ",
"    3 3 3 3 3 3 b e c l q q 3 3 3 3 2 2 - 2 3 * ; - 2 2 3 3         3 3 3 3 3 3 - < 3 r n U y t 8 7 4 7 7 u u e e 3 3 3 3 3     ",
"    3 3 3 q t d S C u q e e 3 3 q r 3 e r p p p y 7 t 5 3 3         t p t t 3 $ 2 z c I _ ` C d j p j j p e 3 q q 3 3 3 3 3     ",
"    3 3 3 e p d p y q 3 3 3 3 r d P j Z d j j j j d j t 3 3         p j p d 3 3 u q l x x i i r r r r r r q 3 3 e d F j F j     ",
"    3 3 3 3 r r q 3 3 3 3 3 3 r j j y p r r r r r r r e 3 3         r r r r 3 u x l u u q e 3 q 3 q 3 3 3 3 3 3 r j p y p y     ",
"    0 q 3 3 3 3 3 3 3 3 3 3 3 e r e q q 3 3 3 3 3 3 3 3 3 3         3 3 3 3 3 3 3 e w e q e 3 3 3 3 3 3 3 3 3 3 q r 3 3 3 3     ",
"                                                                                                                                ",
"                                                                                                                                "
};
