/* XPM */
static const char *map_tile_forest[] = {
/* columns rows colors chars-per-pixel */
"64 64 57 1 ",
"  c #040D04",
". c #041304",
"X c #061A06",
"o c #091309",
"O c #0B1B0B",
"+ c #0C230C",
"@ c #0E2A0E",
"# c #102610",
"$ c #122C12",
"% c #143414",
"& c #163A16",
"* c #183618",
"= c #1A3C1A",
"- c #1C441C",
"; c #1E4A1E",
": c #214C21",
"> c #224E22",
", c #215021",
"< c #235123",
"1 c #235423",
"2 c #245224",
"3 c #255525",
"4 c #275927",
"5 c #275C27",
"6 c #285A28",
"7 c #295D29",
"8 c #295F29",
"9 c #2B632B",
"0 c #2B672B",
"q c #2C642C",
"w c #2E6A2E",
"e c #2F6D2F",
"r c #306E30",
"t c #386F34",
"y c #317131",
"u c #337533",
"i c #347634",
"p c #337833",
"a c #347834",
"s c #357B35",
"d c #367D36",
"f c #716C60",
"g c #388038",
"h c #398139",
"j c #388538",
"k c #3B893B",
"l c #3C883C",
"z c #3F8F3F",
"x c #3F913F",
"c c #409240",
"v c #429642",
"b c #419841",
"n c #459F45",
"m c #47A147",
"M c #48A448",
"N c #48A548",
"B c #4BA94B",
/* pixels */
"ffffffffffffffffffffffffffffffffffffffffffffffffffffffffffffffff",
"ffffffffffffffffffffffffffffffffffffffffffffffffffffffffffffffff",
"ff88883:8888888888888888888888ffff88888888<*4<48888888888we888ff",
"ff888<$O:884;&=:88888888888888ffff3*@@<888$;=*;488884:-:8cyeu8ff",
"ff882$O*4884&$$@.8888888888888ffff<@%-488#3;=:;*@-48<@%;;zvBd8ff",
"ff86-O$-4885<;-%.*888888-X@=48ffff3;48888<4=:-X%%*384-*&&1lBi8ff",
"ff884;#=488:*:$$O$38888-X+@.*8ffff3<84;-<8848-X:3<488y4<0@-xe8ff",
"ff888-O;888*$==$#=<8885-+-++%8ffff434-@$+-8884;88888888w94+eq8ff",
"ff88<*$388=;==-$;;488884<$**$8ffff468<-;&$88888884-$-884;=@y88ff",
"ff83*:34%.O+:6--<:888888q9y-=8ffff6688884:8888:*2%+*:883*$=988ff",
"ff83*384*+%OX888:&*%-8anhmz388ffff88886;*-@-#**+ $@<8884-%3:*%ff",
"ff883885133-%884=+=-&@xlvzaw88ffff88:O++ ..@*OOO$=:48854-&3%+&ff",
"ff88888888888886<;ud09lvcuw988ffff88=+O..+.O*o.O$<38884=O$4;-4ff",
"ff8884;&*88888889anmMlxvzuy884ffff8*.*$@*=$=O***=:<--48=@&4888ff",
"ff881%@@+-888888up1wuxaj;&<888ffff8=%=*;-$3$;**444*.*1:=:34888ff",
"ff88<$%;&@*3-::*3+=OXazd;&%X:8ffff834328333:6:2<<4&+<4::338888ff",
"ff884:<<%O$$$+O$. $$*3zdk81@:8ffff86;48888888888851<<348348888ff",
"ff88888;#*O +oO..OO649wzzjb<:8ffff88888888885345<-%O@%-8884<88ff",
"ff8888-=**o+ooO.$*;;:wjzBzu328ffff8884;-;e883&*:;%@&-;<88<@+48ff",
"ff88;X@;q-v=Oo++O+$89hBvnhy986ffff8884=%++waw-++4<4888886;@@$8ff",
"ff83%+*;Xu8-*#OO$%33qzvyhla988ffff8y85<3&.jja4&+;hb98883$..=@8ff",
"ff84;:y8-w9:$XO%O369d@@&zzr888ffff3-@-8ve-hrw94=-zhe888;OO*=:8ff",
"ff888qa9w9y-@.$%.w:<@+-4-;q3<4ffff;+=-$jrhe-@884ajjq<;:+o;;488ff",
"ff888889w<=%$=e5%hru;*4a<34*@-ffff<*41*63q:@.&4amjh5*%:;:==888ff",
"ff8888888=#%;jzxdznvu0888w8;-<ffff88884:$*%$@@;vvzh3%;88336888ff",
"ff83=;88-*O+O-9rrbMjrw-.<88888ffff84;;3==*$o@X<zzar8<43*$884;:ff",
"ff8<+X:8=&X$*o$:r6jua3&@:*=::8ffff;$+**OoO+OO;4yj9;488<@*83&%;ff",
"ff83*@;88;.OO$;:==eqq1*3;$#$=8ffff=%+*OO+.O.++*<9;%3884;483*&3ff",
"ff884<388:;$$;:=:48884<363;*<8ffff1<62=*%$O$$@-32=&48888883=-8ff",
"ff8888888484866686888888888888ffff88888663:3366641388888885138ff",
"ffffffffffffffffffffffffffffffffffffffffffffffffffffffffffffffff",
"ffffffffffffffffffffffffffffffffffffffffffffffffffffffffffffffff",
"ffffffffffffffffffffffffffffffffffffffffffffffffffffffffffffffff",
"ffffffffffffffffffffffffffffffffffffffffffffffffffffffffffffffff",
"ffffffffffffffffffffffffffffffffffffffffffffffffffffffffffffffff",
"ff88888984;=:888888888883&%%-wffff8884888888888888888848888888ff",
"ff8waazj<.$%;8<=:;=:=;-:<@&-:8ffff8:=:=388884-@&;<888=::=34888ff",
"ff9aqzll4X;;*=$$*;:=:%$;**-=88ffff8*:*$:8-.88:$X@%888=6<4=X&88ff",
"ff8qzzbz8:;O@@@+#8-:=##+$++*88ffff84=%<33*+885;@*--;*O6<8;+@88ff",
"ff88wavdu83&;;=%=$o*+OO $#*<68ffff4:-3<6<$484&OO.;$$O:<831;;88ff",
"ff&@@y0we8888=== #$$o+OOo$3:88ffff8884<:$+*;O-+$@.=O-:;OO-8888ff",
"ff&&*@%q;-;:886+O$=O-o-$;=<<88ffff88whq*#$+O$@O==@$::--+%-@<88ff",
"ff384&-2@@%X88O8:<#-69#=231<<8ffff88u;%@@=OOO$$$=4:<:8<*O;-488ff",
"ff84:;:4-;;*88884hyzlvu8-&%@O$ffff8ha44<OOO.#O$:38862<:o=:<*-8ff",
"ff3%.&;8888888qdzzllvawq4;;-&-ffff8duzd0=#oo#$::6883%$O*;44;:8ff",
"ff1$@:3884-X.8az9e8$u==:--8888ffff8890:&@OO#*:;$+.=;=$-2;48888ff",
"ff4<48884-+@Oudw=8-6+$@+%$8888ffff83*%&%+Xr-:;+%&$-$4:4:488888ff",
"ff232388:+-43aiw9$<#$-+=::8888ffff8qe03:=;ch8<%<88883:84yj883-ff",
"ff$$#*;#=O:3;:e8hr+O4:-883&%@;ffffqvmvj9dhnBr6483&-<48ubvvq81@ff",
"ff=*+#$%#$+$&<8jd::<;<8884-=*&ffffwl9ww45;eay888<@%$O=dvbMw84;ff",
"ff=$*O+oo#O%;0mvr<8<8888884<-;ffff94$2<$&;%;98884;:;%-pMvhy888ff",
"ff=O+.OO++-9zljhwr62884=$3%O%&ffff8*#=3%=<:9884;=%$845jMhd1-88ff",
"ff;$OOO:$;;abaq9w938883*-=@&;@ffff8=$$;%-<;;884=&&*88zyuay;+$8ff",
"ff=O=:::;6deqwy94;@X@* $*o$$4:ffff6=*==:3<*O885<:-*:8w9znh4:-8ff",
"ff3<:;288aMqaw888<-O O$$#=$=28ffff8::-:335:@.&*&++#O=3qvMue888ff",
"ff863<=-8d5%5d88888O.#:+$o#*48ffff886283488;X@%$O@$$$:vlawu888ff",
"ff88:&%$bw-=*wq4;=.$::=-$$*-38ffff83&$$1:#<4;;%%%O*=<qh0;;4888ff",
"ff85;%;;x9ye<93%@*@;=36+-=3388ffff8<@*%%$:68ra4;%%*-<q:@$*3888ff",
"ff884<88w9y9ww4;-<<848886;<288ffff84;3<@;hzjjh8&+.8624<-:<4888ff",
"ff83=*@%;8984;=:88884;&=;4<<<4ffff888418yqdjaw0<-@84;%&:8884%.ff",
"ff8<%&*&;88=.$%%.883&$$@O&@%@%ffff84&X$9jdraqw88884;%%%;88:@@Xff",
"ff86:333488;X;;;@883-=;;*%=;--ffff3&@X;48wtw9w88884==<<188:+-:ff",
"ffffffffffffffffffffffffffffffffffffffffffffffffffffffffffffffff",
"ffffffffffffffffffffffffffffffffffffffffffffffffffffffffffffffff"
};
