/* XPM */
static const char *map_tile_ocean[] = {
/* columns rows colors chars-per-pixel */
"64 64 173 2 ",
"   c #04090B",
".  c #070D11",
"X  c #0A1116",
"o  c #0A141A",
"O  c #0D181F",
"+  c #10181E",
"@  c #0D1A22",
"#  c #0E1E28",
"$  c #101D25",
"%  c #0F202B",
"&  c #11222E",
"*  c #1A262D",
"=  c #132531",
"-  c #152A36",
";  c #1B2A35",
":  c #172D3C",
">  c #1A2E3A",
",  c #1C313E",
"<  c #24333C",
"1  c #293339",
"2  c #2F393F",
"3  c #173141",
"4  c #193344",
"5  c #1B3749",
"6  c #1C394C",
"7  c #1D3E52",
"8  c #203542",
"9  c #223846",
"0  c #283A46",
"q  c #223C4C",
"w  c #2B3D49",
"e  c #223F52",
"r  c #1F4055",
"t  c #2B404D",
"y  c #35444D",
"u  c #38464E",
"i  c #3F494F",
"p  c #234255",
"a  c #2C4251",
"s  c #22455B",
"d  c #29475B",
"f  c #24485F",
"g  c #2E495A",
"h  c #304654",
"j  c #334855",
"k  c #334C5C",
"l  c #394E5B",
"z  c #234A63",
"x  c #2A4E64",
"c  c #264E68",
"v  c #284F68",
"b  c #324F62",
"n  c #2C5066",
"m  c #27516B",
"M  c #2A536D",
"N  c #325164",
"B  c #3A5464",
"V  c #31556C",
"C  c #3C5768",
"Z  c #35596F",
"A  c #3A596C",
"S  c #2A5672",
"D  c #2B5976",
"F  c #2D5E7C",
"G  c #305770",
"H  c #345B73",
"J  c #3A5D73",
"K  c #335F7A",
"L  c #385F78",
"P  c #2F607F",
"I  c #3F6075",
"U  c #33617D",
"Y  c #3C637C",
"T  c #42474A",
"R  c #465056",
"E  c #43545F",
"W  c #455763",
"Q  c #445864",
"!  c #455D6C",
"~  c #535D63",
"^  c #4E606C",
"/  c #476375",
"(  c #496475",
")  c #42667C",
"_  c #44687E",
"`  c #4B687B",
"'  c #536571",
"]  c #546C7B",
"[  c #5A6E7A",
"{  c #5B717F",
"}  c #716C60",
"|  c #2F6181",
" . c #316485",
".. c #396683",
"X. c #3F6983",
"o. c #326788",
"O. c #33698C",
"+. c #3A6C8C",
"@. c #356E92",
"#. c #3A6F90",
"$. c #377195",
"%. c #3B7294",
"&. c #377399",
"*. c #39759C",
"=. c #3D799E",
"-. c #3B7BA4",
";. c #3E7FA8",
":. c #406780",
">. c #446B84",
",. c #4B6D83",
"<. c #416D88",
"1. c #486F88",
"2. c #526F82",
"3. c #4E7086",
"4. c #4C738C",
"5. c #557386",
"6. c #5A7484",
"7. c #52758B",
"8. c #5B7789",
"9. c #56798E",
"0. c #437594",
"q. c #4E7690",
"w. c #4D7995",
"e. c #427B9D",
"r. c #4E7D9B",
"t. c #507790",
"y. c #547B94",
"u. c #597D93",
"i. c #547F99",
"p. c #587F98",
"a. c #437FA3",
"s. c #3F81AC",
"d. c #4F809F",
"f. c #5D8197",
"g. c #55809B",
"h. c #5C839C",
"j. c #608196",
"k. c #62859B",
"l. c #67899F",
"z. c #4781A3",
"x. c #4985A8",
"c. c #4E89AA",
"v. c #5486A4",
"b. c #5B86A1",
"n. c #5688A7",
"m. c #5C89A5",
"M. c #558CAC",
"N. c #5D8CAA",
"B. c #4185B0",
"V. c #4D8EB2",
"C. c #5992B1",
"Z. c #5F99B7",
"A. c #5093BA",
"S. c #5F9DBB",
"D. c #6087A0",
"F. c #6289A2",
"G. c #648BA4",
"H. c #668DA6",
"J. c #698CA2",
"K. c #658EA9",
"L. c #688FA8",
"P. c #6090AE",
"I. c #6C92AB",
"U. c #6C93AC",
"Y. c #6494B3",
"T. c #659EBB",
"R. c #6D9DBC",
"E. c #5FA0BF",
"W. c #6DA7C2",
"Q. c #73ADC7",
"!. c #78ABCA",
"~. c #78B9D0",
"^. c #87C8DA",
/* pixels */
"} } } } } } } } } } } } } } } } } } } } } } } } } } } } } } } } } } } } } } } } } } } } } } } } } } } } } } } } } } } } } } } } ",
"} } } } } } } } } } } } } } } } } } } } } } } } } } } } } } } } } } } } } } } } } } } } } } } } } } } } } } } } } } } } } } } } ",
"} } z z z z p 6 z z z z z z z z z z z z z z z z z z z z z z } } } } z z z z z z z z 7 - s 7 s z z z z z c M z z z M S z z z } } ",
"} } z z z 7 % o e M z z z z z z z z z z z z z z z z z z z z } } } } c 4.U.H v z z z = 5 3 - 5 s z z z H 4.4.c M D &.D S F z } } ",
"} } z z r & o t J.I.h.z z z z z z z z z z z z z z z z z z z } } } } H y.F.H.h.v z @ p 5 : 7 p s z M >.h.4.>.P.a.O.$.*.B. .z } } ",
"} } z s 4 O < ! u.h.>.z z s r p 5 3 z z H h.M z z z p 5 s z } } } } H 3.H y.L.y.z 7 s : 6 p p z c Y y.>.V D Y.!. .o.O.B.F z } } ",
"} } z z s 5 ; B f c z 7 - 7 % = @ & s 1.I.y.U.:.z z : @ 7 z } } } } f x z M 1.4.z z z s z p s z z M L z z F +.m.@.c *.$.S z } } ",
"} } z z z 4 o q z z z - & : 3 % $ h 7.h.h.G h.t.z 7 @ # : z } } } } s p z z z M z Y F.F.4.H z z z z z z z z z M M *. .S c z } } ",
"} } z z 7 - & p z z : 5 : : 4 % 5 p ) Y M z c H z & - - = z } } } } s s z z z c Y y.h.t.t.h.M z z z z z z z z z z M m D z z } } ",
"} } z p - 7 p z z z : s 7 s 4 4 7 7 z z z z z z c c D 5 3 z } } } } s s z z z z H 1.H v H 1.p - p 4 6 Y h.h.h.1.:.v z c z z } } ",
"} } z p - p z z z z z s 7 z z z p s z z z z F ;.o.;.$.p z z } } } } z z z z s 5 4 q # 4 # - - @   = q ,.y.4.F.p.G.M z z z z } } ",
"} } z z p z z Y I.1.z z z z z z z z z D *.@.$.@.*.$.F M z z } } } } z z 6 O @ = % % : = - O O O & : s V G v Y Y t.c z z z z } } ",
"} } z z z z M t.F.h.y.M z z z z z M  .$.@.s.@.*.=.r.b.>.z z } } } } z z 3 @ @ = o & O o - . . o & 7 p z z z z s 5 6 z z z z } } ",
"} } z z c :.h.:.L 1.L.H.4.Y z z c F ;.s.s.O.$.=.c.N.r.1.I.n } } } } z - . - & - - : & : o - - - : 7 s z z z z 5 = 4 s z z z } } ",
"} } z z v >.4.M z M 1.t.>.L z z D o.o.$.@.$.F *.z.w.v G y.v } } } } z : = : - 5 4 & p & 5 - - s s z z z z z 7 3 7 p s z z z } } ",
"} } z z z M M z z 7 - p 5 7 7 - m 6 $.= d F @.o.S D z z s z } } } } z p s p r z p p p 7 s 6 p A k.L.v z z z 7 6 p p c M z z } } ",
"} } z z z z z 7 = @ % # % @ @ & O . a ] h.J $. .@.M D z 7 z } } } } z z b ,.Y z z z z z c :.H.F.F.H.D.v z z z z p z 1.F.t.z } } ",
"} } z z z z z 5 @ - o   @ . o . + y i u.7.U.M $.$.O.-.s 6 z } } } } M 4.y.4.4.I.4.v z z M y.p.t.L t.U.h.1.z z z c Y y.t.h.M } } ",
"} } z z z z 4 : - - o @ . o o . > ! C q d i.o.@.B.$.F p r z } } } } c Y Y M H y.y.K z z c Y M c z H t.1.>.z z z M >.>.M Y M } } ",
"} } z L h.y.s M D 4 *.: @ . @ @ O * & f c o.B.*.;.o.D c z s } } } } z z z z z c %.;.M F S z z z z c S z v z z z f d e z z z } } ",
"} } 4.y.h.F.c o.o.O.z 5 - # O o # = p p c @.;.o.o.O.F z z z } } } } z D z z z M $.*.o.O.F c z z z o.-.c z z z p = . . s z z } } ",
"} } 4.>.L q.R.D *.D c 7 & @ @ 3 @ p s z *.D M S $.$.S z z z } } } } z D c z z *.| o.o.S M c z z S @.o.S z z z 5 o o - 4 z z } } ",
"} } M c z M d.c M c D 5 4 5 c M M  .6 z z c F o.P U X.z z z } } } } z M Y H z O.S o.D M m z z z *.O.O.m z z 7 @ . 5 5 s z z } } ",
"} } z z z z z c M 7 a { f.F $.O.;.$.S O.-.z z +.i.K.h.:.z z } } } } L L.h.p.H.s p m 7 5 c z z | ;.O.o.m z z 7 5 6 : : z z z } } ",
"} } z z z z z z z a ' 6.D.T.$.*.O.$.;.-.O.D G 4.h.w.>.Y t.z } } } } L H.4.:.y.A % - = - 7 7 c *.*.$.o.M >.F.t.z p p s z z z } } ",
"} } z z z z z M C ` k.a w h.h.K S -.s.O.S D 1.4.>.c z M t.y.} } } } c L c z x ! : - = o % % *.$.@.F K 4.y.h.H.1.z z z z z z } } ",
"} } z z z z z M ( _ B - 6 1 ^ p S s o.F | c H H p - : 6 d Y } } } } z 6 7 z > * o o < R 2 z S D o.M M Y Y L h.h.z z z M Y z } } ",
"} } z z z z z c H f o O o = k 6 3 3 S m c z z z 5 & # = : z } } } } z 5 & 3 o O @ X u ~ 2.J p 7 M m c z z c L Y z H h.H.y.t.} } ",
"} } z z z z z z z 7 5 % # 5 7 3 7 s z z z z z s s p 5 - 7 z } } } } z s s r : - - 0 Q / C ! ,.J s z z z z z z z z H h.y.Y Y } } ",
"} } z z z z z z z s z s z s s s z s z z z z z z z z z z z z } } } } z z z z z f f M J z x J _ H z z z z z z z z z c L v z z } } ",
"} } } } } } } } } } } } } } } } } } } } } } } } } } } } } } } } } } } } } } } } } } } } } } } } } } } } } } } } } } } } } } } } ",
"} } } } } } } } } } } } } } } } } } } } } } } } } } } } } } } } } } } } } } } } } } } } } } } } } } } } } } } } } } } } } } } } ",
"} } } } } } } } } } } } } } } } } } } } } } } } } } } } } } } } } } } } } } } } } } } } } } } } } } } } } } } } } } } } } } } } ",
"} } } } } } } } } } } } } } } } } } } } } } } } } } } } } } } } } } } } } } } } } } } } } } } } } } } } } } } } } } } } } } } } ",
"} } } } } } } } } } } } } } } } } } } } } } } } } } } } } } } } } } } } } } } } } } } } } } } } } } } } } } } } } } } } } } } } ",
"} } z z z c M c z z z z z z z z z z z z z z z L F.4.z z z M } } } } z z z s z z z z z z M t.G.Y z z z z z z s z z z z z z z } } ",
"} } c <.n.n.Q.v.| z z z z z 7 : 6 5 : 6 3 p ! 2.F.h.M z z z } } } } z 7 : 6 : p z z z M p.U.h.L.h.z z z z : 7 7 : p v 1.Y z } } ",
"} } M r.w.M.C.z.$.M z z z z 5 : - 5 5 : 5 8 E B k ] C 4 z z } } } } z - 7 , w p z z z M 4.h.H t.4.z z z z : s 7 s d 2.h.y.v } } ",
"} } z H e.%.*.$.M M M :.z 3 - @ @ z 5 7 3 & > @ = < ; - z z } } } } z s h [ j.k.z z z z M M z s 7 p 4 5 - O s 7 G p.4.>.t.M } } ",
"} } z z M F *.| F c 1.U.y.s : - 3 & o - @ O o   % # - 7 s z } } } } f b ! 7.,.k.:.z z z z z z : o 5 = # o 7 r >.L.y.M v 4.G.} } ",
"} } z z F | M M S H h.h.h.! : :   # % % . @ o o . = p 7 z z } } } } z H >.s p N < # - 5 O z 7 - 4 - : o 4 7 z Y h.L z z L y.} } ",
"} } z z c M M M z M Y c 1.G.s @ o & : O q . 4 # 5 3 7 7 z z } } } } z z D o.m - @ & @ o % # O : 3 4 & 6 7 5 z M G z z z z v } } ",
"} } H p.4.z c c z z z z M >.o z 5 d y 6.u.z # : p z z z z z } } } } z z o.$.M z : : o O o & & & 9 9.5.7 7 z z 5 o 7 z z z z } } ",
"} } D.h.4.h.z z z z z z z z z f s #.v.Z.M.S.w.z 5 z z z z z } } } } z o. .F o.O.: O o . @ @ & A l.k.h.) r 7 5 o 3 7 s z z z } } ",
"} } t.Y M >.z z z z z z z z m  .$.%.e.@.*.0.Y c z z Y I.y.M } } } } z  .D *.n.m.d @ . . # % d ,.J.>.4.J.w % o - 5 s z z z z } } ",
"} } v z z z z z z z z c H H F @.c S z # F : 3 f G p.h.h.Y M } } } } z z S M.b.9.6.O O @ - 7 I j.) z V ] ] % 4 r g k.1.z z z } } ",
"} } z z z z z z z z H h.h.n. .M 3 z 5 s @ = p p M 4.>.M z z } } } } z z M <._ Y ` : S 5 7 p M >.z z r ; _ 6 s N u.y.y.:.z z } } ",
"} } r p r p z z z L H.h.t.R.w.M c & 7 # & 7 7 z z v z z z z } } } } z M *.*.M z 7 F &.o.z z z z z z z z p 7 M 7.r.%.Y t.:.z } } ",
"} } % = # - 5 # 3 = _ Y M i.K.M o.S @ O s r r z z z z z z z } } } } m *.;.*.o.c  .o.;.A.m.>.>.z z z z z z z U V.=.*.M L H z } } ",
"} } 3 - @ @ = = # = @ 5 M =.Y %.| 6 7 7 5 7 z z z z c L H z } } } } M @.c M S M o.$.-.0.R.y.F._ z z z z z z O.*.-.s.M z z z } } ",
"} } : = - o @ . X @ o : s F ;.*.S 7 z 7 z z z z z H p.y.4.Y } } } } c s % r z c M V.Y.v.>.L 1.Y :.z z z z $.O.s.*.o.D z z z } } ",
"} } : o @ . O O @ @ 4 c $.@.o.o.M D Z N Y 4.s : & G y.1.4.h.} } } } z - @ : s 4 6 V g.0.z z z M t.z z z z ..T.V.O.*.o.z z z } } ",
"} } 5 & o o o 5 % 5 5 | -.F c c ..b.t.Y 1.D.9., 4 5 H c M >.} } } } z : ; = 5 = 4 s v z z z z c H z z z M C.N.N.+.*.s.c z z } } ",
"} } : O : p d 5 5 s  .S c M D c Y y.Y M G l T ; - o : & z z } } } } z B ] ! 0 7 p s z z z z z z s 5 : 7 Y b._ W.^.T...S z z } } ",
"} } s N ,.8.3.z z | s.c F M z z M G z - . $ < = @ : # 3 r z } } } } L ,.5.] / p p z c L :.z z 7 @ @ @ o 0 ) M c.~.n.<.z z z } } ",
"} } 4.U.u.y.h.H v *.-.| $. .z z z z z @ . @ 6 @ = . @ - s z } } } } L 4.V J Y p s z H h.t.z z 4 % - & = & p *.@.| K  .z z z } } ",
"} } 4.F.Y M 1.F.E.@. .o.F M c z z z o 3 7 5 : 4 = % - 4 p z } } } } M G z z z z 5 # d :.H z : - 3 @ - : 7 m o.D | c z z z z } } ",
"} } M M z z M 4.x.M @.0.L.G.H z z z r p : p s @ 4 : p p z z } } } } z z z z z H ! 7 s z S | z s p N j a 7 M S M M z M t.4.z } } ",
"} } z z z z z z M M r.I.K.K.h.M z z z H 7.Y L v s 5 7 r z z } } } } z z z z M W J.!.$.O.o.o.c L y.y.y.h.x s z c c M 1.p.1.z } } ",
"} } z z z z z z z v 4.h.L L 1.M z z M 4.G.4.F.t.z z z z z z } } } } z z z c >.H.N.L.| O.F M M Y y.Y Y y.y.z z z M 4.t.1.h.h.} } ",
"} } z z z z z z z z M H z z z z z z M 4.1.L 4.1.t.z z z z z } } } } z z z M t.m.@.%.S | c M z M G z z M Y z z z c L L M >.4.} } ",
"} } f f z z z z z z z z z z z z z z z V v z z M 4.z z z z z } } } } z z z c L H z M H M c M z z z z z z z z z z z z z z z z } } ",
"} } } } } } } } } } } } } } } } } } } } } } } } } } } } } } } } } } } } } } } } } } } } } } } } } } } } } } } } } } } } } } } } ",
"} } } } } } } } } } } } } } } } } } } } } } } } } } } } } } } } } } } } } } } } } } } } } } } } } } } } } } } } } } } } } } } } "
};
