/* XPM */
static const char *map_tile_city[] = {
/* columns rows colors chars-per-pixel */
"64 64 161 2 ",
"   c #3D2726",
".  c #372E2E",
"X  c #3E2A2A",
"o  c #3C3326",
"O  c #3D352A",
"+  c #3E382F",
"@  c #353534",
"#  c #3B3632",
"$  c #3C3933",
"%  c #3C3C3C",
"&  c #452C2B",
"*  c #4B2D2D",
"=  c #502D2D",
"-  c #413726",
";  c #443927",
":  c #413728",
">  c #4D302F",
",  c #443A2C",
"<  c #493E2C",
"1  c #443333",
"2  c #4C3333",
"3  c #433D33",
"4  c #493E31",
"5  c #443B3B",
"6  c #4C3C3B",
"7  c #543434",
"8  c #5B3635",
"9  c #573837",
"0  c #593837",
"q  c #543B3B",
"w  c #5C3A3A",
"e  c #603736",
"r  c #633B3B",
"t  c #6B3F3E",
"y  c #4D412D",
"u  c #474035",
"i  c #4C4233",
"p  c #42403D",
"a  c #4B453C",
"s  c #4F493F",
"d  c #524633",
"f  c #554934",
"g  c #5A4C35",
"h  c #59403F",
"j  c #534A3B",
"k  c #5A4E3A",
"l  c #5D513D",
"z  c #67403F",
"x  c #6D403F",
"c  c #605037",
"v  c #62543C",
"b  c #68563A",
"n  c #6B593D",
"m  c #434343",
"M  c #4C4643",
"N  c #4A4946",
"B  c #4C4C4C",
"V  c #554444",
"C  c #5A4242",
"Z  c #544D43",
"A  c #554C4B",
"S  c #5B4C4B",
"D  c #575146",
"F  c #5B5244",
"G  c #54514D",
"H  c #5B544D",
"J  c #545453",
"K  c #5D5554",
"L  c #5D5A55",
"P  c #5C5C5C",
"I  c #644343",
"U  c #6C4342",
"Y  c #614847",
"T  c #644B4B",
"R  c #6A4B4B",
"E  c #724444",
"W  c #744D4C",
"Q  c #625642",
"!  c #665945",
"~  c #6B5B43",
"^  c #6B504F",
"/  c #655B4B",
"(  c #695D4B",
")  c #715E40",
"_  c #625554",
"`  c #6B5352",
"'  c #635D52",
"]  c #645D59",
"[  c #6C5C5B",
"{  c #715454",
"}  c #7C5555",
"|  c #725C5B",
" . c #6E614B",
".. c #726145",
"X. c #786547",
"o. c #756549",
"O. c #7D6A4B",
"+. c #6E6455",
"@. c #63615D",
"#. c #6B655B",
"$. c #736754",
"%. c #7A6C54",
"&. c #73605F",
"*. c #736A5C",
"=. c #646463",
"-. c #6C6463",
";. c #6A6967",
":. c #6C6C6B",
">. c #746564",
",. c #7B6665",
"<. c #716C60",
"1. c #736E6C",
"2. c #7F6C6B",
"3. c #7B7264",
"4. c #72716E",
"5. c #7C756C",
"6. c #747473",
"7. c #787876",
"8. c #7C7C7B",
"9. c #7F7F7E",
"0. c #854E4E",
"q. c #836E4E",
"w. c #816261",
"e. c #846D6D",
"r. c #897C65",
"t. c #867C6D",
"y. c #897E6C",
"u. c #817472",
"i. c #8C7574",
"p. c #837E74",
"a. c #857F75",
"s. c #897E7C",
"d. c #878074",
"f. c #8D8576",
"g. c #848078",
"h. c #80807F",
"j. c #89857D",
"k. c #8F887D",
"l. c #908778",
"z. c #828280",
"x. c #838382",
"c. c #848483",
"v. c #878786",
"b. c #8F8B82",
"n. c #888887",
"m. c #898987",
"M. c #8A8A89",
"N. c #8C8C8B",
"B. c #8E8E8C",
"V. c #958E82",
"C. c #968D8C",
"Z. c #90908F",
"A. c #9A948A",
"S. c #919190",
"D. c #949493",
"F. c #959593",
"G. c #969695",
"H. c #989897",
"J. c #9A9A99",
"K. c #9B9B9A",
"L. c #A0A09F",
/* pixels */
"<.<.<.<.<.<.<.<.<.<.<.<.<.<.<.<.<.<.<.<.<.<.<.<.<.<.<.<.<.<.<.<.<.<.<.<.<.<.<.<.<.<.<.<.<.<.<.<.<.<.<.<.<.<.<.<.<.<.<.<.<.<.<.<.",
"<.<.<.<.<.<.<.<.<.<.<.<.<.<.<.<.<.<.<.<.<.<.<.<.<.<.<.<.<.<.<.<.<.<.<.<.<.<.<.<.<.<.<.<.<.<.<.<.<.<.<.<.<.<.<.<.<.<.<.<.<.<.<.<.",
"<.<.N.N.N.N.M.v.N.N.N.N.N.N.N.N.N.N.N.N.N.N.N.N.N.N.N.N.N.N.<.<.<.<.N.N.z.J % N.N.N.m.z.M.m.M.N.N.N.N.N.z.;.N.N.N.Z.Z.N.N.N.<.<.",
"<.<.N.N.N.m.9.8.v.M.c.v.N.N.N.N.N.N.N.N.N.N.N.N.N.N.N.N.N.N.<.<.<.<.N.N.;.@ m J N.N.h.v.c.z.v.M.N.N.N.;.@ B J Z.S.J.S.Z.S.N.<.<.",
"<.<.N.N.M.h.8.z.M.8.G :.N.N.N.N.N.N.N.N.N.N.N.N.N.N.N.N.N.N.<.<.<.<.N.;.@ B B @ 6.9.M.v.c.m.M.M.N.v.P @ @ m @ 6.G.J.J.J.F.N.<.<.",
"<.<.N.N.v.8.9.c.v.=., ] N.N.M.M.v.c.N.N.N.N.N.N.N.h.N $ M.N.<.<.<.<.z.B @ J m @ $ m.M.6.=.:.M.N.N.z.B @ B L m @.F.G.G.L.S.N.<.<.",
"<.<.N.N.M.v.9.c.9.G d @.z.m.9.z.9.9.M.N.N.N.N.N.c.#.d o <.N.<.<.<.<.8.G m =.$ @ m N.8.B B J 8.N.N.9.J N B J B P H.B.J.J.Z.N.<.<.",
"<.<.N.N.N.v.8.z.;.4 ; j g.c.c.9.9.c.m.v.h.N.N.N.6.i < , 3 b.<.<.<.<.9.P P B B % ;.m.;.m J B m N.N.m.6.6.6.:.:.8.Z.J.F.Z.B.N.<.<.",
"<.<.N.N.m.z.9.c.=.g g , j.c.v.9.v.v.v.@.4 a.N.M.:.y d f i g.<.<.<.<.z.;.;.P m m 9.z.J % B B B N.N.N.N.N.N.N.N.N.N.Z.B.S.N.N.<.<.",
"<.<.N.M.z.m.M.m.1.n O.k m.N.v.v.m.m.h.F y @.N.M.:.f Q k y 8.<.<.<.<.M.9.z.v.;.;.m.9.J B J L P z.M.v.v.N.N.B.N.N.N.B.N.B.N.N.<.<.",
"<.<.N.8.Z #.N.v.*.f y F m.N.N.N.M.m.4.d < i A.J.z./ 4./ ~ c.<.<.<.<.N.N.N.z.;.v.c.9.L L N m B 8.6.z.v.v.:.B :.N.N.N.N.N.N.N.<.<.",
"<.<.N.1.< ( N.m.1.Q  .5.N.N.N.N.N.v.#.d y < H.H.G.v.M.z.f.N.<.<.<.<.N.N.6.m $ @ 6.9.7.6.;.L =.8.h.c.M.z.L % @ N.N.N.N.N.N.N.<.<.",
"<.<.9.j ; Z N.M.c.t.N.N.N.N.N.N.B.M.6.v v i G.J.J.S.Z.B.N.N.<.<.<.<.N.N.=.@ J m m z.8.8.z.7.7.8.9.m.M.:.% m @ 8.v.v.N.N.N.N.<.<.",
"<.<.:.+ y 4 V.N.N.N.N.N.N.N.N.N.B.S.h.d c d b.J.J.S.S.N.N.M.<.<.<.<.M.;.% % =.L B 9.h.z.8.z.z.z.z.m.9.J m B $ =.z.v.M.N.N.N.<.<.",
"<.<.6.u X.j N.N.N.N.m.5.-.h.M.N.S.G.7.4 k k a.J.J.S.B.N.N.N.<.<.<.<.v.P % J J m @ p M.9.v.z.z.M.M.N.6.m J J $ @ m.M.M.N.N.N.<.<.",
"<.<.7.Z q.f N.N.N.m.6.6 6 B 8.z.B.v.8.$ d k :.G.Z.Z.N.N.M.N.<.<.<.<.M.;.B J m % m B M.m.N.v.h.z.M.N.8.B m % % % M.M.N.N.N.N.<.<.",
"<.<.4.3 ; i N.m.z.6.H 8 0 6 _ h.8.7.8.L ' ' h.F.G.v.M.N.m.N.<.<.<.<.v.;.m @ @ B B =.N.N.M.6.J P 8.N.9.J B J B ;.M.M.N.N.N.N.<.<.",
"<.<.7.m l Z N.v.9.6.h e 7 0 T 7.8.9.8.M.9.z.Z.J.m.A M M.v.N.<.<.<.<.v.;.B B m J @ 6.N.N.c.=.B J % N.m.7.6.h.8.v.N.N.N.N.N.N.<.<.",
"<.<.v.7.k.7.c.c.z.6.I 8   0 Y 7.h.z.v.v.v.Z.G.S.K   V -.M.N.<.<.<.<.M.9.6.M.9.6.L N.N.v.=.$ B ;.B m N.N.N.N.N.v.] O 3 5.N.N.<.<.",
"<.<.N.N.N.N.N.Z.S.8.R & X 2 =.8.8.4.;.N.B.G.L.N.Y & q C ;.N.<.<.<.<.N.N.N.N.N.N.G.J.B.m.L m B P B % Z.N.N.N.N.9.v y y  .N.N.<.<.",
"<.<.N.N.N.N.B.G.G.N.] V ` S 7.;.m 7 I e.B.H.G.-.2 w 7 0 q N.<.<.<.<.N.S.N.N.N.Z.J.J.G.M.J % m J % B J.B.N.N.M.:.y d < : y.N.<.<.",
"<.<.N.N.N.B.F.S.J.B.z.9.9.6.6.H 2 r 2 K J.S.z.T w T w r 2 h.<.<.<.<.N.S.B.N.v.8.6.G.G.B.6.J B J J 6.G.Z.N.N.v.] d  .~ y r.N.<.<.",
"<.<.N.N.N.N.8.J :.B.S.v.v.v.h.T 0 & 2 1 B.B.c.R U C w I 7 ;.<.<.<.<.N.B.B.m.| 7 5 2.S.Z.B.v.8.6.B.G.G.M.L @ h.L v u v d t.N.<.<.",
"<.<.N.N.N.:.5 7 2 A s.c.M.S.M.T r * 7 w J.N.z.| ` C I 0 2 6.<.<.<.<.N.B.N.5.7 t I { m.v.B.N.N.S.J.G.G.c.J $ ;.8.6.L ' $.j.N.<.<.",
"<.<.N.N.c.A X 7 q 0 ] v.N.H.M.[ E 7 7 E G.S.M.h.9.u.u.&.[ m.<.<.<.<.N.B.z.Y & E W R 9.z.m.m.B.J.J.J.S.:.p m % M.M.m.c.M.N.N.<.<.",
"<.<.N.N.8.q 0 * I > 6.c.9.N.h.T U 7 & U C.Z.N.N.N.B.N.N.N.N.<.<.<.<.N.N.z.I 7 w U q 6.8.9.9.J.J.H.B.:.m @ B m ;.N.N.N.N.N.N.<.<.",
"<.<.N.N.8.C x & w 7 c.z.v.8.6.V W w & U C.N.N.N.m.z.c.v.v.N.<.<.<.<.N.v.8.z 7 I t 1 :.8.8.N.S.S.G.M.P $ $ p m J N.N.N.N.N.N.<.<.",
"<.<.N.N.8.h r X X 7 8.8.8.9.8.J ,.[ 2 I B.N.N.N.v.h.9.h.c.N.<.<.<.<.N.v.6.V 5 C 0 5 6.8.v.M.m.m.Z.M.P @ @ m B =.N.N.N.N.N.N.<.<.",
"<.<.N.N.v.,.w.A S T v.9.9.v.c.6.c.z.-.1.N.N.N.N.N.M.v.z.m.N.<.<.<.<.N.N.m.6.;.;.{ =.z.v.v.c.m.M.N.M.6.J B B J 7.N.N.N.N.N.N.<.<.",
"<.<.N.N.N.N.N.N.M.z.N.M.N.N.N.N.N.N.N.N.N.N.N.N.N.N.N.N.N.N.<.<.<.<.N.N.N.N.N.N.N.N.N.N.N.N.N.N.N.N.M.v.v.6.8.m.N.N.N.N.N.N.<.<.",
"<.<.<.<.<.<.<.<.<.<.<.<.<.<.<.<.<.<.<.<.<.<.<.<.<.<.<.<.<.<.<.<.<.<.<.<.<.<.<.<.<.<.<.<.<.<.<.<.<.<.<.<.<.<.<.<.<.<.<.<.<.<.<.<.",
"<.<.<.<.<.<.<.<.<.<.<.<.<.<.<.<.<.<.<.<.<.<.<.<.<.<.<.<.<.<.<.<.<.<.<.<.<.<.<.<.<.<.<.<.<.<.<.<.<.<.<.<.<.<.<.<.<.<.<.<.<.<.<.<.",
"<.<.<.<.<.<.<.<.<.<.<.<.<.<.<.<.<.<.<.<.<.<.<.<.<.<.<.<.<.<.<.<.<.<.<.<.<.<.<.<.<.<.<.<.<.<.<.<.<.<.<.<.<.<.<.<.<.<.<.<.<.<.<.<.",
"<.<.<.<.<.<.<.<.<.<.<.<.<.<.<.<.<.<.<.<.<.<.<.<.<.<.<.<.<.<.<.<.<.<.<.<.<.<.<.<.<.<.<.<.<.<.<.<.<.<.<.<.<.<.<.<.<.<.<.<.<.<.<.<.",
"<.<.<.<.<.<.<.<.<.<.<.<.<.<.<.<.<.<.<.<.<.<.<.<.<.<.<.<.<.<.<.<.<.<.<.<.<.<.<.<.<.<.<.<.<.<.<.<.<.<.<.<.<.<.<.<.<.<.<.<.<.<.<.<.",
"<.<.N.N.N.N.N.B.N.N.N.N.N.N.N.N.6.m 8.N.N.N.N.N.N.N.N.N.N.Z.<.<.<.<.N.N.N.M.N.N.N.N.N.N.N.N.N.N.N.N.N.N.N.N.M.N.N.N.N.N.N.N.<.<.",
"<.<.N.Z.S.S.J.G.F.N.N.N.N.N.v.P . 6 [ v.c.v.c.v.N.:.1 4.N.N.<.<.<.<.N.m.c.v.z.M.N.N.N.N.N.N.N.N.N.N.N.N.N.c.m.m.c.M.M.N.N.N.<.<.",
"<.<.B.S.B.J.H.J.J.Z.N.N.N.v.;.V * I @.z.v.z.9.v.8.A & K N.N.<.<.<.<.N.z.m.z.h.m.N.N.N.N.N.N.N.N.N.N.N.N.N.c.N.z.| h [ N.N.N.<.<.",
"<.<.N.B.H.J.J.J.Z.Z.N.N.N.:.1 * * 7 q 5 z.9.9.;.5 & 8 -.M.N.<.<.<.<.N.M.c.z.m.M.N.N.N.N.N.N.N.M.m.M.v.v.z.8.M.-.* 2 q -.N.N.<.<.",
"<.<.N.N.Z.S.H.e.K N.N.N.N.8.q 8 U E 0 M 8.8.8.=.& & 8 6 $ N.<.<.<.<.M.v.c.M.m.N.N.N.N.N.N.N.N.c.8.v.h.9.8.m.h.^ 7 U w q v.N.<.<.",
"<.<.N.N.F.F.B.} & # N.N.B.8.T 8 w U 0 K 8.8.8.;.& e 0.w 6 N.<.<.<.<.N.N.B.M.m.m.h.9.z.v.8.N.m.z.v.z.c.8.c.m.9.I 8 z 7 9 z.N.<.<.",
"<.<.N.N.B.v.[ w r 1 8.N.N.c.[ U U U e ;.c.7.v.:.6 2 0 w -.N.<.<.<.<.N.N.v.:.B.z.9.h.8.8.9.9.8.c.c.c.9.v.m.v.z.] U >.T I m.N.<.<.",
"<.<.N.N.v.[ 2 = w 7 5 N.N.M.1.i.z.8.>.h.N.B.9.8.P J 2 1 8.N.<.<.<.<.N.N.v.L Z.B.z.c.8.8.8.8.=.% J 8.v.m.m.N.M.8.,.v.z.u.N.N.<.<.",
"<.<.N.N.h.I 0 r R r 2 i.N.N.N.N.M.G.S.H.H.J.S.M.9.z.[ =.m.N.<.<.<.<.9.J m P m v.z.8.8.7.9.P @ J B =.M.N.M.m.v.8.c.m.N.N.N.N.<.<.",
"<.<.N.N.8.r U I 2 q & c.N.N.B.F.J.H.H.H.J.p.s N.N.N.N.N.N.N.<.<.<.<.6.m m L $ % v.9.8.:.B m m P J B ;.M.z.9.8.8.;.M.N.N.N.N.<.<.",
"<.<.N.N.z.W [ 1._ _ ` M.N.B.S.H.B.Z.N.9.7.4 v F 9.N.N.N.N.N.<.<.<.<.:.% J =.J % 6.9.9.;.p % P J J m % 6.z.9.8.L % M.N.N.N.N.<.<.",
"<.<.N.N.M.h.z.N.M.v.N.N.N.S.F.Z.c.N.1.3 y k l f 5 p.N.N.N.N.<.<.<.<.6.m J J m B 6.c.v.B $ m L P 4.=.B ;.M.v.6.m p 8.N.N.N.N.<.<.",
"<.<.M.M.M.M.N.N.N.N.N.N.N.S.S.Z.B.6.j , i f , i i #.N.N.N.N.<.<.<.<.v.6.h.9.=.6.z.S.F.;.% L G J B @.B 6.M.z.:.B J =.N.N.N.N.<.<.",
"<.<.9.h.9.z.v.9.c.9.m.N.N.Z.Z.N.G.9.g f $. . ...v +.N.N.N.N.<.<.<.<.B.J.J.J.G.B.F.G.J.S.P z.6.6.=.=.P v.N.h.P ;.:.B B.B.B.B.<.<.",
"<.<.c.z.9.9.h.z.9.h.9.v.Z.J.N.G.F.9.Q , : o d < y  .N.N.N.N.<.<.<.<.Z.H.B.Z.Z.Z.G.J.J.S.M.N.N.N.M.h.z.N.N.:.% m J m 8.N.N.B.<.<.",
"<.<.c.h.z.8.8.7.8.9.8.c.M.S.J.J.Z.v.5.G Z $ s i , 3.N.N.N.N.<.<.<.<.B.M.9.M.N.m.z.J.S.S.B.N.N.N.N.N.N.N.m.:.$ m m $ L N.N.B.<.<.",
"<.<.c.8.8.7.8.8.8.8.c.B.J.H.G.G.Z.Z.N.M.M.9.6.1./ b.N.N.N.N.<.<.<.<.N.z.9.9.;.a j s 3.S.N.N.N.N.N.N.N.N.c.P % P J p B N.N.N.<.<.",
"<.<.v.h.8.8.8.v.9.v.v.S.J.S.B.B.Z.Z.N.N.N.N.M.z.c.v.N.N.N.N.<.<.<.<.N.c.7.K i l k k  .V.N.N.N.N.8.H N.N.v.P $ B @ J ;.B.N.N.<.<.",
"<.<.c.8.c.m.m.v.v.N.F.Z.B.Z.S.B.N.N.N.N.N.z.6.6.;.8.z.9.N.N.<.<.<.<.N.c.6.j , ..~ ) l c.N.N.N.N.3., $ 8.m.:.B =.$ J v.S.N.N.<.<.",
"<.<.M.m.m.v.M.N.c.H O M Z.Z.N.N.N.N.N.z.7.6.D u Z 5.9.c.M.N.<.<.<.<.N.m.4.4 a o.~ v , z.N.N.m.] , k 4 5.z.z.9.B.4.6.Z.N.N.N.<.<.",
"<.<.N.N.N.N.N.N.5.i f < *.F.N.N.N.N.N.8.:.F v v F 3 9.z.M.N.<.<.<.<.N.N.6.i ( o.! l / m.N.N.=.O y F d 3 +.v.J.H.S.Z.S.N.N.N.<.<.",
"<.<.N.N.N.N.N.p.v ....o # Z.B.N.N.N.6.:.! y b  .( j @.c.M.N.<.<.<.<.N.N.c.;.d.t.6.1.b.N.N.c.D - a i , , i t.G.S.S.B.N.N.N.N.<.<.",
"<.<.N.N.N.M.-., k ~ k , O B.N.N.N.N.6.M j , k 3 , v g f.N.N.<.<.<.<.N.N.N.N.N.N.c.m.N.N.S.c.l y Q O.v ) l 9.S.Z.Z.N.N.N.N.N.<.<.",
"<.<.N.N.N.c.j o F ~ b ~ k Z.N.N.N.N.:., g , %.! ~ g ; 9.N.N.<.<.<.<.N.N.N.N.N.h.M.G.J.G.G.m.~ i g , k ..O v.N.B.B.N.N.N.N.N.<.<.",
"<.<.N.N.N.l.v o Q n y ~ *.N.N.N.N.N.6.u F u k O o.f l m.N.N.<.<.<.<.N.N.N.N.N.N.S.B.F.G.S.z./ H %.N a d Z N.N.N.N.N.N.N.N.N.<.<.",
"<.<.N.N.N.M.r.P 5.6.' ! 7.N.N.N.N.N.c.*.7.:.#.p G i j.N.N.N.<.<.<.<.N.N.N.N.N.Z.G.F.Z.S.B.v.#.;.M.c.4.+.N.N.N.N.N.N.N.N.N.N.<.<.",
"<.<.N.N.N.N.N.N.N.N.m.8.m.N.N.N.N.N.N.N.N.N.M.9.6.;.N.N.N.N.<.<.<.<.N.N.N.N.N.N.N.Z.m.Z.B.N.h.z.N.N.N.N.N.N.N.N.N.N.N.N.N.N.<.<.",
"<.<.<.<.<.<.<.<.<.<.<.<.<.<.<.<.<.<.<.<.<.<.<.<.<.<.<.<.<.<.<.<.<.<.<.<.<.<.<.<.<.<.<.<.<.<.<.<.<.<.<.<.<.<.<.<.<.<.<.<.<.<.<.<.",
"<.<.<.<.<.<.<.<.<.<.<.<.<.<.<.<.<.<.<.<.<.<.<.<.<.<.<.<.<.<.<.<.<.<.<.<.<.<.<.<.<.<.<.<.<.<.<.<.<.<.<.<.<.<.<.<.<.<.<.<.<.<.<.<."
};
