/* XPM */
static const char *path2_snowy[] = {
/* columns rows colors chars-per-pixel */
"64 64 50 1 ",
"  c #D7D7BF",
". c #D7D7C0",
"X c #D8D8C2",
"o c #DADAC4",
"O c #DCDCC7",
"+ c #DFDECA",
"@ c #DFDFCC",
"# c #E0DFCD",
"$ c #E1E0CE",
"% c #E3E3D2",
"& c #E4E3D3",
"* c #E3E3D4",
"= c #E4E3D4",
"- c #E6E5D6",
"; c #E7E6D8",
": c #E7E7DB",
"> c #E8E7DA",
", c #E9E8DB",
"< c #E8E8DC",
"1 c #E9E9DC",
"2 c #E2E2E2",
"3 c #E7E7E7",
"4 c #EBEBE0",
"5 c #ECEBE0",
"6 c #EEEDE3",
"7 c #EFEFE5",
"8 c gray92",
"9 c #EFEFEF",
"0 c #F0EFE7",
"q c #F0F0E7",
"w c #F3F2EB",
"e c #F3F3EC",
"r c #F4F3ED",
"t c #F5F5EF",
"y c gray94",
"u c #F3F3F3",
"i c #F7F7F2",
"p c #F7F7F3",
"a c #F4F4F4",
"s c gray96",
"d c gray97",
"f c #F8F7F3",
"g c #F8F8F3",
"h c #F9F9F6",
"j c #FAFAF8",
"k c #FBFBFB",
"l c #FCFBFA",
"z c #FCFCFA",
"x c #FCFCFB",
"c c gray99",
/* pixels */
"yyyysyss8yy88939989ysyssyjsssys8yy8888889y9yjsssjjjsyyyy8999y99y",
"99yyyssyyy98y8388ysjjssssjsyy99y3989y89yyyssjsssjjjjsyy88933333y",
"99899yy999y9y89yssjjjjjjjsy9y99338y9y9yyyssssy8ysjjsjjy989838898",
"y89yys6%71wws9ssjjsjjjjsysyyy9y989ys99ht55-wts9yssjcjjssy99883ys",
"y9yyywt16-11%-00ww,6t71tiih,w99y3yyssw61$$-w$r-;t7etwt;yy98y28y9",
"8y991www1-qw11#-16---71;wji1t#%yyyyy%7hw1wi1%q6-ii1057tftyyy8yy9",
"9syy7jljq1$$;1%6>tihwt677ii6i$$9s9yywhiw6hz66776ww0>e-6ziys9y9y9",
"yysj6wjzr1%75$1h6e7ih7,7hjiet&7y9syywqtiq67it%hcji6-%7twesy9yy9y",
"ssjj;%>7>&$75$1iwtttjw7-jhjhq%iy988yi6wttq7hiwhii,1q,+#%yyy9yy9s",
"sysj%6tt6;$,61wq-1ihtij1whtz0&s99ysss,w6iiiwwhh701w6167jjyjssssj",
"jjcjjwt7616ifw6ei7ih66g1ejcj%68yjsysjsw1hihcht0q%$%,t6yyyyjjscjs",
"jjsjj%---tt6660jf7i11qiihccj1syssysjjjjjssjssssssjsjyjs9syyjjjjs",
"jjsjjs-->&+$6rgcfijt6izctchesyyssysjsjjjjjsssjjsjjsssyy99yjjjsjj",
"ssjjssjssssssjsjjjyyssjssssssysyssjo+711,6-t411;%$ .-sy9yjsjjjsj",
"jjjsjssjjsssyyssysssjssssjsysssyss1;-;%-e%%h7w$1%X%wit;9y9ssjysj",
"sjjsjsjjyyyysyyyyssjssjjjsyyysyss+6XX+6-1;ei1,-;*+;wtw-ysys9ysjj",
"jsjjjjjjsy99yihiwhitwehjjhsys9sjj11 X16+%;wzcz7,6i6$i4wys9ys9jss",
"jssjjjsssy9;7tijwheeijjhc77w88yy-6X+%i4;7thciiw-ww%;1jhyss9ysjsj",
"yjsjsjssy9e6tzw6wz7iwjjwet7,7888q1-i7711wiccwt6whii1izhssyyys9ss",
"jssyys9y9ihi4ziw7ithh7w41hw6w3999-%wt;17jh6-iie-Xih761-syysjssjs",
"js9yy99yy7ejehjthhwzzi6;7hjjw99999we%14ihhhht7711hzj7o%sssssyssy",
"sssysyyyyytjee77h777we1;q7we7yyyysy89yyyyjsjssss9yysyssjjssssssj",
"jjjssssssyyz76hej7147iw711148yy99y9yyys9sjsy9ssssssssssjsjjjjjjj",
"jjjjysssyy9yyy98yyysyyyy989ysysy99ysssssjsy7h>#%11whi>1sjjsjjjjc",
"jjsst%ooo-16jhj6yyyyyyssy99ys%%$6w6sjsjsj5iwt10rjhwci6=7wjjsjjsj",
"jsswe-%%;X@eiiizew99999s>7w-1+-;w7ew6jjst657h;ijcz;-w-,6#ysjjjjj",
"js-4t67hw%$qwiwe6w999990=w-76+@6ttww=jj$it7,$&ij76-+r67wissjjjjj",
"y7jw;6,761tjthz;7799y9wt&hq6$&+qjhjw-jj$1tthh7hz6$#>w6,-tysyssss",
"y1t771o$ejccjizthey99yh%%hh0+;#5iww$%,jy$-7i77>&71+5,,>--yyysyyy",
"9@q7ih1$icjthtiti4yy991-f1w1+;7hi1,#&-js>i5w01-,hhq66661iyyysy99",
"94i664$-itjeiztie%syyt>1j0-t$ezf66-$>%9yshi6ff;+ww9889898ysysyy8",
"y6e1--$w7,h66iwzzcjss-1ii%w1izqq6-1g&-sssyyy9yy38989y99999sssssy",
"yyww-%7zhwi41sssjjjsyywjw-teqw;ethci%yss8yy88939989ysyssyjsssys8",
"3989y89yyyssjsssjjjjsyyw1w;$6hhtii1iyssyyy9t1hii4;sjjssssjsyy99y",
"38y9y9yyhh6zjhtw-wtsjjy98983889899899yy999ew1eee47iwtew14,7hy993",
"89ysythjwi1wfzje;6w6ijssy99893ysy89yysyssj7ihzii7t66wew141;767y9",
"3yys1wwhw7,1ee,q7w5wfssyzi7h7ihcctyyy9ysi7ijhwte716zt7711wzh4;9y",
"yyywwhthwwrjjtww7t67wjy6jchjtw7zh6wzsyjjiehhwwi7ht7jj7e4ezw161yy",
"s9%-eihiewhjfji166w51ss,hth7;1w6i74ejscjjzccjtiitwwe41;icw,;;;y9",
"9s%6qwjjjwijie7-wih-ijs1wji74h1,wq6iwcjjjccjhhjzie761111w1w671sy",
"988;1ilcchhhh7=;hzl>isyhjh7eic61ew7zjs9yyhiijiithhw1tw1;ijw1;;9y",
"9ysssi6tzw77it10hhi&ss9wshhhii6eehtw7jyssyjjs7w7w71;;1h71;;qw;s9",
"jsysjsjssssssssyssssysyhiiiii7eh7hhj6jjssjysssssssssw667i;;wqs8y",
"sysjjjjjssjssssssjsjyjsj6twhihi77itj7jjjjsssssysjssyysssssssssys",
"sysjstetzhi71zhwjjsssyy9shiziih6wwi4;sjjs6wqjsjssjsssssyysjjsyys",
"ssjs1i-1t7w$,fjhj6jsysy9yjihhjiwiii7ssjs,qiirtrth&5ii$5%5i1isysy",
"ssj%6wq1t-;7q6whhq>wyy99y9ssjysjjjjsjssiw11w7eihj16wz-7+$ci,-+sy",
"sjj>6-76t-7hjw>r0;-7y99ysys9ysjjsjjsjsjwj7-11wjjtijhcw6+1j5-++ys",
"jjj;e->;,%tw71%-0+,e1,yys9ys9qj07$jjjjjizt11thjfhw7wwww$--#++,sj",
"sss$w7,6;%ht%#&-q%>6twyyssrt,,er5$ihjjsjh76-1fwqhhw;,$&$w-6++iyy",
"9y9@>;-w;$77;+#1,$#$57ssswt%#,tcj-7wsjst1>>;icjfhtt1,$w1%%%+wz88",
"9y9y%,$1#+$,6-&%#$+-6yssi;twhhzi0wwijs9y&7r6tizh7hiw&$-6,&+,1399",
"99yyys9ssjjjjjsyyssssss67-,5-ij1ihjcc99yy99999yyyssjsjssh%r79999",
"ysy89yyyyjsjssss9yysyss;;$1i-60;;ihzhyyyyyyys9999y9sysysyyyyyyyy",
"9y9yyys44hthi7616sssss+-;$;;+,t6$iifessssy-16i7j%-w;X,ww;99y8yy9",
"99yssse11t6iw7w447wyjs%@+-7--1;@%w1w1ssso@76wiww,6te%167t++ysysy",
"ssssjw4;1w1w;6e;;6wyss11,7e6,7;-%i76syy+ ;71t6ww4746t61-1o@Xwyys",
"jsjj7e441t441w7;1w7ysyy06w1>$---;ssyys+;%;%O1hjq6-X161wOi+%wwOjj",
"jcjj16611i71176w176syyyyyssjjjjjjsssyy+iq-,%4jzew,;o%;w$w Xi+.jj",
"cjjjj17;1we6717h747yy8y9sysyssssyyyyyy@61o17hi;4e$o o6e*-  7%-jc",
"cjjjjjjy76e7714w7s9999s8yyyysyyyyyy99ys+ o;6hi@;6$%17it%.+-+6ijj",
"jjjsjjjsss9yy3398y9998889yyysyy99yyyyy9sy66-7tw;tq;@$-1$w-X o@ss",
"ssjjjj9ysyyy3383929889898ysysyy99ssssssssssj9yjsjjsyy%j-$7  osss",
"yysssjsssyyy9yy38989y99999ssssssyss98yy9yyssssjsjcjsssy89s98889y"
};
