/* XPM */
static const char *pebbles_cave[] = {
/* columns rows colors chars-per-pixel */
"64 64 76 1 ",
"  c #312720",
". c #362C23",
"X c #3A2F25",
"o c #3C3127",
"O c #3E3228",
"+ c #3D3D3D",
"@ c #452D23",
"# c #482F25",
"$ c #4C3127",
"% c #41352A",
"& c #4E3329",
"* c #45382C",
"= c #483A2F",
"- c #52352A",
"; c #56392E",
": c #453A32",
"> c #4A3D33",
", c #533C32",
"< c #5A3D33",
"1 c #4D4136",
"2 c #4E4239",
"3 c #5C4136",
"4 c #51453B",
"5 c #5E443A",
"6 c #53483E",
"7 c #60473D",
"8 c #61483E",
"9 c #444444",
"0 c #4B4B4B",
"q c #564B41",
"w c #594E45",
"e c #5B5047",
"r c #5D524A",
"t c #535353",
"y c #5C5C5C",
"u c #644B42",
"i c #665046",
"p c #62554D",
"a c #6A544C",
"s c #695B4C",
"d c #6B5C4D",
"f c #6E5E4E",
"g c #6C5750",
"h c #635951",
"j c #665C54",
"k c #6E5C51",
"l c #6E5E50",
"z c #685E57",
"x c #715D55",
"c c #725E58",
"v c #6F6050",
"b c #6C645E",
"n c #716150",
"m c #746353",
"M c #746453",
"N c #766554",
"B c #796756",
"V c #7A6957",
"C c #75635C",
"Z c #7B6A58",
"A c #7C6A58",
"S c #7D6B59",
"D c #7E6C5B",
"F c #7F6E5B",
"G c #606060",
"H c gray40",
"J c #6F6861",
"K c DimGray",
"L c #6C6C6C",
"P c gray43",
"I c gray44",
"U c #747474",
"Y c #806E5B",
"T c #816F5C",
"R c #81705D",
"E c #84715E",
/* pixels */
"EEEEEEEETREEEEEEEEEEEEEEEEEEEEEEEEEEEEEEEEEEEEEEEEEEEEEEEEEEEEEE",
"RREEEEEERRTRREEEEE7uuu73<EEEEEEEEEEEEEEEEEEEEEEEEEEEEEEEEEEEEEEE",
"RRRRRREEEYSYYTEEE<38uu8553EEERREEEEEEEEEERTEEEEEEEEEEEEEEEEEEEEE",
"ETDDTTRRRSTEEDREE38uuu5<;-REERREEEEEEEttt0TEEEEEEEEEEEEEEEEEEEEE",
"RDDEEYYYRTRREREET55<--$##$NTEERDDYTE0tttt00YSTYE4EEEEEEEEEEEEEEE",
"TRTRRRREEZTTREEEY3,&#####$nDERDDEEDDtyGytttZEERqprw6164rEEEEEEEE",
"EDDRREEEKHGHHGyyKVVS,##@SDZTTTERRERRtttt099RRR*1644>*11w6qEEEEEE",
"RDDYYHHHKHGHPKKGyGDSSZBRDTYREEDDRREE000t099SRR%>6666>%%644EEEEEE",
"EEEEEKPPPPyGKHHHGGGRDTDERRRRERSSDYEE9999999VTDVOO%%*O%O%**EEEEEE",
"EEEEDyGHHGyGKKKyytySRRREEEEEEEEEEEEERDDSZDSEEEDV.XX%snm.XOEEEEEE",
"EEEEVGHKHHytt0090ttSEEEEEEyHPIKKHyGERDYRDYDRREYDDZDBZVSSSEEEEEEE",
"ERREDNffyyttt0090fVSEEEEEEGKIUUKGyHEEERERDSYYTTDTYYTDTTRTEEEEEEE",
"ERREYSZZNfnMSMnNNlmVDEEEGGGKKKPPKGHHHGERRSTEEDRRRRRRYRDTTREEEEEE",
"ERRYDDDDDBVRSDDSVVVTEEEEyyyHHHKPIHGyttEYRTRREREEEEEERDDTTY8a733E",
"EEYDYTYYRRTERYDDDDEEEEEEytttttyyyGG00tEEEZu7333EEEETRDTREiuluu3E",
"RRYYREHGytytERSDRTYEEEETt0tt00000t0090VE33u83<<-EEETRDTREuu873-E",
"RRTYRyKGGyytTRDRERYEEEETSBMttt0tt000NNMD<<<<;-$$EEEERVYYR3<<<;-V",
"ERSSTyPHHyy0TRDRREREEEETSNNBnlNmvdlZSDSV-#$--$#-EEEERDTYD-$$$-NZ",
"ERYDD0000099EYVRYEEEEEERTDDDSVVZBNBYDTYDV$#---SEEEEEEEEEY&@@#$fY",
"EEEED999999NETDepEEEEE6ewRRRYDYYDDDRRRRYDSVrrrr6EEE41EEERDSNVBMT",
"EEEETNMflsNNDE1pjrbJjeqwqq6EERRRRRREEEETDT4rrre62>1q666ERSDTSTDR",
"EEEEYTSZSVZSD614q4err66211>RTEEEEtt0tyytR6qhpzzpq61****EERRRTYTE",
"EEEEERRTYTYT*q11>6164441*%ORTEEtGGyttyytt1*111>1*******YEEEEEEEE",
"EEEEEEEEEEElOOXOoO%oOO%%OOoERYS0ttttytyyyv*************SEEEEEEEE",
"EEEEEEEEEEEnN%...X..XX%*SNTETSR0ttttttyttDnn****n===*ZZSEEEEEEEE",
"EEE3uu3EEEEDEZVNnnX .XYZVVVDRTR0000000yttZZnNMNSVSnnfnNVDREEEEEE",
"EEi5573MEEEETRDSDDVSSDRTDDTRTSRREEE000000YYSSSDTTRSVVnNVDDYREEEE",
"E3iu333-SEREEEEETSSDYRRERREEYVTDEEEERRDYTRRRRRRRuu8SDSSSSZDDYEEE",
"E5533$$-nnTREEERDDEEDDEEEEEERTRREEEERDDTTYREEEuuu33TRDDSZSDSDEEE",
"E;-$&@#$VnRRDTDYERRERREEHHHGKHKHKHGyRDTREYRuuaixlx83;VDBVSDDTEEE",
"E--$$@#SRSRDDTTYSDRRKIPKGKKKPPPHKHGGRDTREREuuuugau53-DDNVZSSTEEE",
"EVBNVMDYTSRDTREDZSDYKIIPHPPPIPIPPGHyRVYYREE555<u8558-RRDSZSVDEEE",
"ETRDVVZTRTRDTYRREEEEKGGGyyGKHHGt0000RDTYREE&$$$$-----TTSDZVDDEEE",
"EERRYYREEERVYDYEEEEET0tttyyyyyyt00mVEEEEEEEDmfd@#$-<VTRDTYSRREEE",
"EEEytttyyyRDTYYDDTTEVmV990t0tSVDSDSDEEEEEEEYNnmnsnnVND1q4EEEEEEE",
"EEtyttyKGyyEERDDRRYYSNNVVNnnmnvTYYTTEEEE164TDVSSVYZVVwqq4rpEEEEE",
"EEtyytyytt0ETTRTRERRRTDVNBZVSSDRRRRqq11>>>:>*RTRYYYYwqq61qwEEEEE",
"ET+999tttt9ERRDDRREEERRYDTYTYRREER4wrw461%OOODEEEEE*1>>>2q6ZEEEE",
"ET99990000EEERSSYYEEEEEETDDTTREEE11111***%OOOnREEE%%OOXO%%NSTEEE",
"ETSN99+***%*2ERRRREEEERRDDEEYYEEER%OO.OO%XXOOSZEEEE%OOXOO%MnZEEE",
"ERTDDD6qwq4=422EEEEEEETTRTRRRREETVVO%XO%OX%%NMnEEEETSBnnvmZVDEEE",
"EERRR%12661:222EEEEEEEEEDDRREEEEDnNVDdn.O.OBDDDEEEETSNNNMVTTREEE",
"EEEE*O22qqq6:%%EEEHKKKGHHGIYEEEEYNSVVnMSVNnDTRREEEETDSDDDYRREEEE",
"EERRMOOOXXOOXOOEEyHPIUPPKKUIPPPGGGyDZBZSSDZTEKHHKHKKSZDYRREEEEEE",
"EERRZSVVOX%OSEDEEyyGGGGyyyKHHHHyyyyDTDDRDTYRyKHHPKIIIVZYEEEEEEEE",
"EERRDDDZSDYETTYEVt0yGGGGyttttyy000tnEiai8<--yHGGGytttBVDEEEEEEEE",
"EEEYDYTDDREEEEEEZttyyttt09900tt000SVEiai8<--yGyyyyt0tNZDEEEEEEEE",
"ERRYYRETDREEEEEETVB009099+99nnsnVDRY5CCxliu-yyttttt0tSDREEEEEEEE",
"ERRTYRRRTREEEEEEDVSDBNvnmnmDVSVDYTTT3u553<--EEEtttttDYREEEEEEEEE",
"EERSSTTEERDDYT38u53u3SZSDDDRTYYRREEE35333<--REEEEEEEEtttttEEEEEE",
"EERYDTTERDDEEDlxcauau33RRRRREEEEEEEE;------RREEEEEEEtttttttREEEE",
"EEEEEEETTERRERuuu3;33<<EEERREEEE6qqEEE----ERRYYRREEttttytt0EEEEE",
"EEPKIIPPHHTRREuu5q,#$$-EEERRYYRweq4rqEEEEEEEYDYRYTEttttt009TEEEE",
"EyHGPPPPPHKHGy-&$$#$$$-EEEEYDY6114=q241EEERRYYEETTE99990009VEEEE",
"DyGyHPIPPPGGGGEERE#@$&EEERRYYRrq6prpq64EEERRTYRERRD999+999+VEEEE",
"V000ttyyyGGyyyRREEEEEytt00RTD21>*6164>=EEHGyKGGKKGYnN9+++++VTEEE",
"DVt0t00tttyt00RREEEEyGytt00Z6412*641>VTEKPKKGyyKHGGDDnnfnnmVSEEE",
"YDD9909999009MERDDYyGHGyy00***%OOo%XONDEyGGGGy00900RRDSVNZVTEEEE",
"TDTDZNnNfmSMEDRDDEtytyyt0000**%OO.X.NVZDtytyyt00990ERRYRYTEEEEEE",
"ERRRYDSDDZTDTDTERRttttt090990SNlfnNDDYRRnt000999BNSEEEEEEEEEEEEE",
"EEEEEERTRRRREEEDDRtttt0999++9TDSSDRREEETDZNMnNSDDDTEEEEEEEEEEEEE",
"EEEEEEEEEEEEEERSSD+99999+99+9EEEEEEEEEEERTYDDYRRRRREEEEEEEEEEEEE",
"EEEEEEEEEEEEEEEEEEE9999EZVVVEEEEEEEEEEEEEEEEEEEEEEEEEEEEEEEEEEEE",
"EEEEEEEEEEEEEEEEEEEEEEETRDYEEEEEEEEEEEEEEEEEEEEEEEEEEEEEEEEEEEEE"
};
