/* XPM */
static const char *pebbles_snow[] = {
/* columns rows colors chars-per-pixel */
"64 64 137 2 ",
"   c #574331",
".  c #5D4734",
"X  c #5F4936",
"o  c #604A37",
"O  c #624D3A",
"+  c #774633",
"@  c #784734",
"#  c #7C4C3B",
"$  c #65503E",
"%  c #7F513E",
"&  c #665240",
"*  c #6A5544",
"=  c #6C5846",
"-  c #6E5A49",
";  c #7F5240",
":  c #725F4E",
">  c #735F50",
",  c #73604F",
"<  c #756252",
"1  c #786656",
"2  c #786558",
"3  c #7C6B5B",
"4  c #666666",
"5  c #6B6B6B",
"6  c #737373",
"7  c #7E7E7E",
"8  c #815442",
"9  c #845847",
"0  c #865B4A",
"q  c #895E4E",
"w  c #8A604F",
"e  c #8C6454",
"r  c #8F6758",
"t  c #806E5F",
"y  c #8F6858",
"u  c #936D5E",
"i  c #806E60",
"p  c #956F60",
"a  c #837364",
"s  c #867668",
"d  c #887769",
"f  c #877869",
"g  c #8A7B6D",
"h  c #967163",
"j  c #997367",
"k  c #9A7669",
"l  c #9D7A6D",
"z  c #8D7E71",
"x  c #9E7C70",
"c  c #A17F72",
"v  c #8F8173",
"b  c #918175",
"n  c #94867A",
"m  c #96887B",
"M  c #98897D",
"N  c #A38276",
"B  c #A58579",
"V  c #A8897E",
"C  c #838383",
"Z  c #8B8B8B",
"A  c #9B8E82",
"S  c #9E9185",
"D  c #9F9288",
"F  c #939393",
"G  c #9B9B9B",
"H  c #AB8D81",
"J  c #A19489",
"K  c #AF9388",
"L  c #A5998E",
"P  c #B2968C",
"I  c #B3988E",
"U  c #A79C92",
"Y  c #A99D93",
"T  c #B69D93",
"R  c #B99F96",
"E  c #ABA096",
"W  c #AEA399",
"Q  c #B9A197",
"!  c #B1A69D",
"~  c #B2A89F",
"^  c #BFA89F",
"/  c #A3A3A3",
"(  c #ACACAC",
")  c #B5ACA3",
"_  c #BBACA4",
"`  c #BAAFA9",
"'  c #BBB2AA",
"]  c #B3B3B3",
"[  c #BEB6B0",
"{  c #BCBCBC",
"}  c #C3ADA5",
"|  c #C6B3AB",
" . c #C9B5AE",
".. c #C3BCB5",
"X. c #CCBBB3",
"o. c #C6BFB8",
"O. c #CFBEB8",
"+. c #C7C1B9",
"@. c #CAC2BC",
"#. c #D1C2BC",
"$. c #C4C4C4",
"%. c #CEC7C2",
"&. c #CFC9C4",
"*. c #CCCCCC",
"=. c #D5C6C1",
"-. c #D2CAC5",
";. c #D9CBC6",
":. c #D4CEC9",
">. c #DBCFC9",
",. c #D6D0CC",
"<. c #DCD3CE",
"1. c #D4D4D4",
"2. c #DDD6D1",
"3. c #DDD9D5",
"4. c #D9D9D9",
"5. c #DDDDDD",
"6. c #E1D6D2",
"7. c #E5DBD7",
"8. c #E3DDDA",
"9. c #E5E1DE",
"0. c #E9E1DF",
"q. c #E1E1E1",
"w. c #E7E7E7",
"e. c #EAE2E0",
"r. c #E9E5E2",
"t. c #EBE8E6",
"y. c #EDE8E5",
"u. c #EAEAEA",
"i. c gray92",
"p. c #ECECEC",
"a. c #EFEFEF",
"s. c #F2F0EE",
"d. c gray94",
"f. c gray95",
"g. c gray97",
"h. c #F9F9F9",
"j. c #FDFDFD",
/* pixels */
"d.d.d.d.g.d.g.g.i.d.d.i.i.a.w.a.a.i.a.d.g.d.g.g.d.h.g.g.g.d.g.i.d.d.i.i.i.i.i.i.a.d.a.d.h.g.g.g.h.h.h.g.d.d.d.d.i.a.a.a.d.a.a.d.",
"a.a.d.d.d.g.j.d.i.h.a.i.d.i.w.i.i.d.X.X.X.X.O.=.X.h.g.d.d.a.a.d.w.a.i.a.d.i.a.d.d.d.g.g.h.g.g.g.h.h.h.h.g.d.d.i.i.a.w.w.w.w.w.d.",
"a.a.i.h.d.h.a.a.d.j.d.a.d.i.a.d.g.B V P Q | } ^ P B d.a.d.a.a.w.w.i.d.a.d.a.d.d.d.g.g.g.g.d.i.d.g.h.h.g.h.h.d.a.i.a.i.w.i.i.a.i.",
"d.i.g.a.a.g.h.h.h.g.g.i.g.a.g.g.h.r r u j c V N k r d.d.d.a.d.a.i.a.d.g.a.a.q.1.$.] d.d.g.g.a.d.g.g.h.j.h.h.g.g.d.a.a.i.i.w.d.g.",
"d.a.d.d.h.h.h.h.j.h.g.g.g.g.g.h.h.e e u p u u e 0 q d.d.d.a.a.d.w.d.d.g.( ] *.1.*.$.( d.a.d.d.g.t.d.g.g.g.g.g.d.d.a.i.d.q.i.d.a.",
"i.d.a.g.h.h.g.h.g.h.h.a.g.d.d.h.j.+ + + + + + + + + a.a.a.a.d.d.d.d.d.d.C F / ( ( ( F d.a.g.g.E %.<.8.3.:.@.....g.d.d.d.i.d.d.a.",
"a.g.d.d.h.h.j.j.i.i.i.q.4.5.1.$./ g.a.4.+ + + + { a.d.d.a.a.d.a.g.a.d.d.7 Z G / G Z 7 d.d.h.- 3 A E ) ..' W Y L S g g.a.d.a.d.a.",
"d.d.g.h.h.] $.4.q.q.5.4.*.*.{ ( ( G g.w.1.$.] { 5.g.d.g.a.d.g.d.a.g.d.d.5 6 6 6 6 5 4 d.h.q.& : a m J S A z g a i 1 d.a.d.d.a.d.",
"g.g.h.h.h.F / ] $.$.*.*.$.$.{ ( / F C g.d.a.a.g.g.g.g.d.d.d.a.d.a.i.i.d.4 4 4 4 4 4 4 d.j./ G O $ * < , < : , : - - d.a.d.d.a.g.",
"g.d.g.h.h.Z G G / ( ( / / G G G F Z C h.d.d.h.g.g.g.d.a.d.g.g.a.a.d.g.g.g.d.d.g.g.h.g.g.h.g.q.{ X X X X / ( 1.X X X h.g.g.g.g.h.",
"h.h.j.h.d.C C Z Z F G G G F Z Z C C 7 g.d.d.d.g.g.h.*.*.1.q.q.4.{ ] { g.h.g.h.g.g.g.g.g.g.h.a.i.1.*.{ $.$.{ 1.a.g.g.h.h.g.j.h.g.",
"h.h.g.h.d.] *.1.7 7 7 7 7 7 7 7 7 *.d.d.d.g.g.g.g.g.*.*.$.*.*.$.4.1.] h.h.h.h.h.g.g.h.g.j.h.g.w.4.4.5.1.1.5.q.i.g.h.d.h.h.h.h.g.",
"h.h.g.h.h.g.i.a.$.*.i.i.i.5.5.5.w.a.g.g.g.g.g.d.( $.$.{ ] ] ] ] { ] G G F C h.h.h.h.g.g.g.h.h.j.h.g.a.a.a.d.h.g.a.d.h.h.h.g.h.h.",
"g.g.h.h.h.h.d.a.w.q.d.i.i.q.5.5.w.d.g.d.g.g.j.g.Z F G / ( ( ( ( ( / Z C C C h.h.h.h.g.g.h.h.g.h.h.g.h.g.d.g.d.a.d.h.y.e.>.#. .h.",
"h.h.h.g.h.h.h.d.g.g.j.j.h.h.h.g.d.g.g.g.h.g.d.$.C Z F F F F F F Z Z C C C C h.h.h.h.^ } X.} l h.h.h.g.g.d.d.a.a.d.6.6.>.O.| Q h.",
"g.h.h.g.h.g.] ] { { ] ( g.d.d.d.d.g.g.h.g.g.w./ C C Z Z Z C C C 7 7 7 7 7 7 h.h.% u N B P I N k g.g.g.g.d.a.a.d.h.T R  .=.| K h.",
"h.g.h.h.h.C Z F / / G F d.d.d.a.d.g.g.g.g.h.d.*.4.5.$.7 7 7 7 7 7 7 7 7 4.a.g.j.% 0 u c c l y q g.g.g.g.g.d.d.d.h.y l K Q V r g.",
"h.g.g.h.h.5 6 C Z Z C 7 d.a.a.a.g.d.g.g.g.h.h.g.a.a.4.5.d.a.w.5.5.5.5.w.d.g.j.i.@ # ; 0 e e q 0 d.d.g.d.g.g.d.d.g.8 r p u q g.h.",
"d.h.g.h.w.4 6 7 C C 7 7 a.d.a.a.g.d.g.g.g.h.j.h.g.a.a.a.a.w.5.5.4.q.i.a.h.j.j.$.*.+ @ @ # % h.d.g.d.g.d.g.g.g.g.g.@ # ; # % h.g.",
"h.g.g.h.q.4 4 4 4 4 4 5.a.a.d.d.s.g.g.h.h.h.@...@.g.h.j.i.w.a.a.a.d.a.d.d.d.j.h.d.g.1.X X 1 A E g.d.d.J v d.g.g.g.g.g.w.i.d.h.g.",
"h.g.a.d.j.g.a.5.1.*.1.i.a.a.a.s.d.i.9.3.,.%.-.,.-.' U a.a.a.a.a.a.a.d.d.d.g.a.j.g.g.X X o * a z z M A b g a z g.g.g.g.g.g.g.g.d.",
"g.g.g.d.h.g.d.w.5.5.w.g.g.' &.2.8.9.<.:.-...) E Y J L d.d.d.d.d.d.q.1.$.$.] / Z j.O X X X o $ = : 3 s 3 2 < : h.h.g.g.g.g.g.g.h.",
"h.h.h.g.g.h.g.g.g.g.h.j.< f D ' ..o.' ! ! U A b z a 3 d.i.d.d.G / ] $.*.*.] G G F a & X o O O * : 1 2 1 < < - h.g.h.h.h.h.h.h.h.",
"h.h.h.h.d.g.g.g.d.d.j.i.= 3 b L Y Y J A b a 2 : < 3 3 d.g.d.g.7 F G / / / G C C 7 *.O X X X X O O & $ O O O O g.h.h.g.h.h.h.h.j.",
"h.h.g.g.g.d.d.d.d.d.h.$.*.$ * - : = & & O O X X q.*.q.d.g.d.h.7 C Z F G F Z C C 7 a.*.4.X X X X 1.X X o X q.i.h.h.g.h.g.h.h.g.h.",
"h.g.g.O.O._ h d.a.i.d.h.a.i.$.$.] / X X X X $.*.q.a.a.d.a.h.1.5 5 5 4 4 4 4 4 4 4 h.d.i.i.1.1.w.1.1.i.h.g.g.d.d.g.d.g.h.h.h.h.h.",
"h.g.P P H T ^ d.d.d.d.a.d.d.i.1.q.5.4.i.a.w.q.i.a.g.g.d.g.h.*.( G G $.4 4 4 4 4 4 h.d.a.q.9.q.a.d.a.h.h.g.g.g.d.d.g.g.h.h.h.h.h.",
"d.l l V K B l u d.d.d.d.a.a.a.w.q.5.i.a.a.i.a.a.d.d.d.g.d.h.d.$.1.*.] ] $.a.j.j.j.h.h.h.g.h.h.h.<.<.;.d.d.i.d.a.g.d.g.d.g.g.g.g.",
"g.9 r u N B h q d.g.d.d.d.g.d.a.a.a.d.a.a.d.d.d.d.g.g.h.g.h.h.d.w.q.1.5.a.g.h.g.h.h.j.j.j.j.;.>.;.;. .a.a.a.g.i.d.d.a.d.g.d.d.d.",
"g.8 0 e w 0 # @ d.d.h.h.j.g.d.a.d.g.d.d.a.a.g.d.g.g.d.a.i.a.w.1.$.( G Z d.h.h.d.g.j.j.k B H T _ ^ ^ } R I i.i.i.i.d.g.d.g.d.a.a.",
"g.@ @ # # @ + h.g.h.a.w.i.g.h.g.h.h.g.d.$.1.i.a.d.a.w.q.5.1.1.*.1.1.] F j.g.a.a.g.h.j.8 e l H K K V H B h a.i.a.i.d.g.d.g.g.d.i.",
"g.h.a.i.4.*.q.g.d.a.w.q.q.w.g.g.h.j.h.j.F G $.1.5.5.5.1.*.$.$.{ ( ( G C h.h.g.h.h.g.h.# 8 0 r u h h u u 0 a.a.a.a.d.g.g.h.g.g.d.",
"d.g.d.i.q.q.a.g.a.h.w.q.w.w.d.j.h.h.j.q.Z G / ] ] { $.$.{ ( ( ] ( G Z C h.g.h.g.g.g.h.@ # # 8 % # # # @ + d.g.g.d.h.g.g.h.d.g.i.",
"w.d.h.g.d.g.d.d.d.j.h.g.d.i.i.d.j.h.h.1.( Z F G / ( / / G F Z C C C 1.a.j.j.j.d.d.g.g.i.d.i.w.+ + + + + h.g.g.g.g.h.g.d.d.a.a.d.",
"w.i.d.i.i.a.w.5.{ / j.h.g.g.g.g.h.h.h.q.$.$.] C C C Z C C *.*.{ *.4.$.5.j.j.h.g.g.a.d.a.d.i.a.d.g.g.h.h.h.h.3.8.:.g.d.a.d.a.a.w.",
"i.a.*.4.5.5.4.{ $.( F g.g.g.d.g.g.g.h.h.d.i.5.$.$.1.*.$.1.4.5.i.i.d.i.i.j.j.j.j.a.3._ i.g.a.g.g.h.h.g.h.h.3.3.:...! S d.d.a.d.a.",
"w.j.F / ] $.1.*.] ( Z d.a.d.d.g.g.d.h.h.h.a.w.q.q.w.i.w.d.g.h.g.g.a.g.%.3.r.a.a.r.<.' L A g.g.h.h.h.h.h.) ' ! E ' ' U d.d.a.a.d.",
"d.h.6 Z G / / / F C 6 d.a.g.g.g.h.d.h.h.h.h.d.d.d.d.g.g.d.d.d.a.i.h.S Y _ ..&.,.:.:...L g d.d.h.g.h.h.: a J W E E L z a.a.a.d.d.",
"g.h.6 7 C Z F F ] { a.d.d.g.g.g.a.a.g.g.g.g.g.g.d.d.g.a.d.a.d.a.a.> a a n A J E ' ` E n 1 g.g.h.h.j.O * - 1 s z v s 4.d.a.a.d.a.",
"a.h.*.5.4 4 C _ -.3.r...b d.g.g.g.h.h.h.j.h.g.a.g.g.d.a.d.d.a.d.d.h.1 < 2 t g n A m f < $ d.g.d.h.j.1.* < 2 2 < - $ w.g.a.d.g.d.",
"a.h.h.d.d.4.a ' +.+.+.E S J 3 d.j.j.h.g.j.g.d.g.d.d.d.a.d.d.a.g.g.q.] O O $ & * - = $ O h.g.d.g.g.j.j.g.a.1.1.5.1.5.d.g.d.d.a.d.",
"a.d.h.g.5.O & < m A ~ ' L g < g.d.j.j.j.j.g.a.h.h.d.h.g.g.g.g.h.j.q.{ *.4.1.w.X X X X i.j.h.g.g.h.h.j.g.a.w.1.4.w.d.g.a.d.g.g.a.",
"h.g.h.q.X X O * 1 a f A m 1 * d.g.g.1.q.i.a.a.d.d.a.i.h.g.j.h.g.h.h.g.a.i.1.4.g.d.w.a.d.h.g.g.g.g.g.g.j.g.h.h.g.g.g.g.g.g.g.i.d.",
"g.d.h.w.*.X O $ = 3 a i 1 $ O g.g.F ] $.1.4.w.i.i.q.5.4.*.{ ] ( ( ( ( d.a.a.d.h.h.h.h.h.j.*.4.i.a.i.1.*.a.g.g.g.g.h.g.d.h.g.d.g.",
"g.d.g.j.g.a.4.*.X o O O *.*.i.g.j.Z F G ( { $.*.*.1.*.$.{ ( / ( ( ( / h.g.g.h.j.j.j.j.j.F { 5.a.i.q.*.] G g.g.h.d.w.q.w.g.d.d.g.",
"g.g.h.j.h.d.i.5.5.4.q.q.i.a.g.h.h.C F G / ( ( ] ( ( ( / G F Z F F F F j.h.7.d.s.7.H 8 @ C F ] *.1.1.1.{ / g.h.d.i.w.a.d.g.g.h.d.",
"g.g.h.h.j.g.d.i.w.q.q.w.i.g.h.h.h.C C C C C Z Z Z F F F F F F F F F d.j.j.6.e.7.2.>. .h C C G / ( ( { ( Z g.g.j.h.g.d.i.i.d.h.d.",
"g.h.h.g.h.h.h.h.h.h.g.d.d.g.g.g.g.j.a.Z C C 7 7 7 7 7 7 4.d.d.i.i.a.g.j.j ^ O.X.#.#.T e C C Z F / / / G Z g.h.g.j.h.h.g.g.g.h.g.",
"h.h.h.d.a.h.g.d.a.g.a.d.a.d.d.g.j.h.h.i.1.5.q.5.4.q.w.w.i.d.w.q.i.d.h.h.H ^ } T | } B 8 d.d.d.C C Z C C g.h.h.h.j.h.g.g.h.j.g.h.",
"g.g.d.d.g.h.g.g.d.d.d.a.a.a.Q } <.0.0.7.O.d.i.w.i.a.a.d.h.h.g.h.h.g.g.1.I H N B c h 0 @ d.a.a.a.g.d.g.g.g.1.i.g.a.1.a.d.i.i.d.d.",
"a.g.g.g.h.g.h.g.d.d.d.a.i.a.l  .6.2.<.;. .V p h.j.d.d.d.g.a.g.g.d.h.j.a.T H u N u # @ g.a.d.a.a.g.d.g.g.1.i.a.a.q.1.1.d.i.i.i.i.",
"a.d.a.h.j.h.h.g.d.d.d.d.d.d.0 u x K Q X.X.^ N g.d.d.g.h.g.g.h.g...:.-.j.d.w.r 0 8 + 5.d.a.a.d.d.g.g.g.C / { 1.5.q.4.*.a.i.w.a.a.",
"a.a.i.w.w.d.g.h.g.g.h.h.h.h.0 r u l B V V l r g.g.g.g.g.d.g.g.:.9.t.&.) L i.1.$.$.1.a.g.a.a.d.d.d.h.1.4 6 Z G ] $.$.$.a.a.a.a.a.",
"d.*.*.4.q.i.g.g.g.d.w.$.F C @ # 8 w h l k r 9 h.h.g.g.g.g.g.2.9.8.,.[ ~ ! L i a.a.g.g.d.g.a.a.a.a.*.( 4 6 7 F / ( / F d.d.d.d.d.",
"a./ { $.1.1.q.w.w.w.w.1./ Z g.*.1.*.+ + # u g.h.g.h.h.h.h.h.@.&.+.` ..) m a , g.g.d.d.a.d.d.a.a.d.g.a.4 4 5 6 7 7 7 7 d.i.d.d.a.",
"a.G G ( ] ] { *.1.1.1.{ / F h.g.i.i.1.1.i.1.1.*./ C g.h.h.g A E ) ) ) Y a : a g.d.4.d.a.i.q.4.1.*.( h.a.q.4 4 4 4 4 4 d.g.d.g.d.",
"g.q.Z F F F / ( ] ] ] / F C h.g.a.w.q.q.w.a.i.q.*.$.G g.- < d b z b g 3 & d.d.d.G $.*.1.1.q.4.1.$.( F a.5.*.$.{ ] *.q.d.g.d.d.g.",
"j.q.$.C C C Z Z Z F Z Z C 5.d.g.h.g.h.1.q.q.q.4.1.{ F * & = < 3 2 1 - O X g.d.d.Z F G ( { $.{ ] ( G F h.g.g.w.q.5.i.g.d.a.g.h.h.",
"h.h.g.i.5.*.*.$.*.4.*.*.1.4.a.g.g.g.G ( { *.*.1.1.{ / Z = O O O X X .   a.d.d.j.Z F / / ] ( ( G F Z C a.g.i.w.a.d.d.d.d.g.h.h.h.",
"j.j.h.d.i.q.5.q.q.w.q.q.w.d.g.g.g.h.7 C G ( ] ] ( F C 7 6 g.g.h.d.g.i.d.g.d.d.d.h.C C C C C C C *.5.d.a.i.a.g.g.a.d.d.g.d.h.h.j.",
"j.j.j.g.d.a.i.d.d.d.a.a.d.h.j.d.d.h.6 C F G G G Z C 7 6 4 d.d.d.d.h.g.h.h.g.h.g.h.h.d.5.w.4.4.q.w.a.g.a.a.g.g.d.g.g.g.h.g.h.h.h.",
"h.h.h.g.h.h.h.g.g.g.a.d.d.w.w.a.i.h.4 4 5 5 5 5 5 5 4 4 4 d.a.a.a.d.d.h.h.g.h.g.d.h.h.d.i.a.d.d.g.h.h.d.a.d.g.g.g.g.h.g.g.g.g.g.",
"g.g.h.h.h.h.a.d.g.d.d.d.w.w.i.w.a.q.h.4 4 4 4 *.1.q.q.i.d.d.d.i.a.g.g.h.g.j.j.g.g.g.g.h.a.d.h.g.h.h.g.d.d.d.g.d.g.g.g.d.g.g.g.g.",
"d.d.g.g.g.h.g.g.g.d.d.d.a.d.d.w.i.a.a.h.d.i.w.w.i.d.g.g.h.g.g.d.d.g.g.a.i.d.d.a.d.d.g.g.g.g.h.g.h.j.h.g.g.g.d.i.a.g.a.i.i.i.a.d."
};
