/* XPM */
static const char *pebbles[] = {
/* columns rows colors chars-per-pixel */
"64 64 113 2 ",
"   c #3D2E22",
".  c #443526",
"X  c #473628",
"o  c #483729",
"O  c #4D3B2B",
"+  c #563224",
"@  c #5B3526",
"#  c #5E3728",
"$  c #513E2E",
"%  c #5F3828",
"&  c #643B2A",
"*  c #6A3E2D",
"=  c #54402F",
"-  c #564130",
";  c #5A4533",
":  c #5F4936",
">  c #5E4B3B",
",  c #6E402F",
"<  c #6C4333",
"1  c #604A37",
"2  c #624D3B",
"3  c #754532",
"4  c #754837",
"5  c #764B3B",
"6  c #7B4D3B",
"7  c #66513F",
"8  c #7F513F",
"9  c #4E4E4E",
"0  c #555555",
"q  c #5C5C5C",
"w  c #714F41",
"e  c #665343",
"r  c #6A5644",
"t  c #6C5847",
"y  c #685749",
"u  c #6D5A4A",
"i  c #765142",
"p  c #7C5140",
"a  c #715E4D",
"s  c #7F5A4C",
"d  c #715F51",
"f  c #74614F",
"g  c #756252",
"h  c #796656",
"j  c #7A6857",
"k  c #7A6758",
"l  c #7C6A5B",
"z  c #646464",
"x  c #6C6C6C",
"c  c #737373",
"v  c #7B7B7B",
"b  c #815443",
"n  c #845847",
"m  c #865B4A",
"M  c #895E4E",
"N  c #8A604F",
"B  c #856052",
"V  c #8C6454",
"C  c #806E5F",
"Z  c #8F6858",
"A  c #926B5B",
"S  c #806E60",
"D  c #956F60",
"F  c #847365",
"G  c #867568",
"H  c #887769",
"J  c #8A7A6C",
"K  c #967162",
"L  c #997466",
"P  c #9B7669",
"I  c #9D7A6D",
"U  c #8E7F72",
"Y  c #A07E71",
"T  c #978068",
"R  c #9D846C",
"E  c #938477",
"W  c #97887C",
"Q  c #A0876D",
"!  c #A1886F",
"~  c #A38275",
"^  c #A58C72",
"/  c #A98F74",
"(  c #A5857A",
")  c #A8887D",
"_  c #AC9176",
"`  c #AF9478",
"'  c #B1967A",
"]  c #B5997D",
"[  c #B99C7F",
"{  c #BA9D7F",
"}  c #838383",
"|  c #868686",
" . c gray54",
".. c #8D8D8D",
"X. c #9E9186",
"o. c #939393",
"O. c #959595",
"+. c #989898",
"@. c #9F9F9F",
"#. c #AC8E83",
"$. c #A3978C",
"%. c #BB9E81",
"&. c #BC9F81",
"*. c #BDA082",
"=. c #A1A1A1",
"-. c gray64",
";. c #A4A4A4",
":. c gray67",
">. c #AEAEAE",
",. c #C0A283",
"<. c #C0A384",
"1. c #C1A485",
"2. c #C4A687",
/* pixels */
"2.2.2.2.2.2.2.2.<.1.2.2.2.2.2.2.2.2.2.2.2.2.2.2.2.2.2.2.2.2.2.2.2.2.2.2.2.2.2.2.2.2.2.2.2.2.2.2.2.2.2.2.2.2.2.2.2.2.2.2.2.2.2.2.",
"1.1.2.2.2.2.2.2.1.1.<.1.1.2.2.2.2.2.V A A A V m b 2.2.2.2.2.2.2.2.2.2.2.2.2.2.2.2.2.2.2.2.2.2.2.2.2.2.2.2.2.2.2.2.2.2.2.2.2.2.2.",
"1.1.1.1.1.1.2.2.2.*.%.*.*.<.2.2.2.b m V A A Z V M m 2.2.2.1.1.2.2.2.2.2.2.2.2.2.2.1.<.2.2.2.2.2.2.2.2.2.2.2.2.2.2.2.2.2.2.2.2.2.",
"2.<.%.*.<.<.1.1.1.{ <.2.2.&.1.2.2.b Z Z A A N p 5 3 1.2.2.1.1.2.2.2.2.2.2.2.v c c x <.2.2.2.2.2.2.2.2.2.2.2.2.2.2.2.2.2.2.2.2.2.",
"1.*.*.2.2.*.*.*.1.<.1.1.2.1.2.2.<.m m 6 3 , * & & & ' <.2.2.1.%.%.*.<.2.x c v c c x z *.] *.*.2.a 2.2.2.2.2.2.2.2.2.2.2.2.2.2.2.",
"<.1.<.1.1.1.1.2.2.] <.<.1.2.2.2.*.b 5 < % & & # # & ^ *.2.1.%.%.2.2.*.*.v }  .v v v c ] 1.1.1.k J F l g r g a H 2.2.2.2.2.2.2.2.",
"2.%.%.1.1.2.2.2.+.O...o.o...| | +.' ] ] w & & @ { *.] <.<.<.2.1.1.2.1.1.c x c c z q q 1.1.1.: t g a u e 1 r r C g j 2.2.2.2.2.2.",
"1.%.%.*.*.O.O.o.O.O...O.=.@.O... ...*.{ { ] ' 1.*.<.*.1.2.2.&.&.1.1.2.2.x x x c x q q ] 1.1.; e d a a g 2 ; ; g a a 2.2.2.2.2.2.",
"2.2.2.2.2.+.=.=.@.@. ...+.O.O.o...o...1.*.<.*.2.1.1.1.1.2.1.{ { *.*.2.2.q q q q q 0 0 ' <.%.] = $ - ; : O - = - ; ; 2.2.2.2.2.2.",
"2.2.2.2.&. .o.O.o...|  .+.+.+.v  .c } { 1.1.1.2.2.2.2.2.2.2.2.2.2.2.2.2.1.%.*.{ ] %.] 2.2.2.%.' X O O - T / _ X O $ 2.2.2.2.2.2.",
"2.2.2.2.]  .O.+.O.O.| v c x x z x c c %.2.2.2.2.2.2.| O.=.;.@.+.o.|  .2.1.*.*.1.%.*.&.1.1.2.*.&.%.{ %.' ] ] %.{ %.2.2.2.2.2.2.2.",
"2.1.1.2.%.` R Q | | v c c x x q z R ' { 2.2.2.2.2.2. .+.;.>.:.@...| o.2.2.2.1.2.1.%.] *.*.<.<.*.<.*.*.<.{ <.<.1.<.2.2.2.2.2.2.2.",
"2.1.1.2.*.{ ] ] ` R ^ _ { ` ^ ` ` ! _ ' %.2.2.2.......+.+.@.=.@.+...o.o.o.o.2.1.1.{ <.2.2.&.1.1.1.1.1.1.,.1.*.<.<.1.2.2.2.2.2.2.",
"2.1.1.*.%.%.*.*.%.' ] 1.%.{ %.{ ] ' ] <.2.2.2.2.| } | O.o.O.@.@.=.O. .v c v 2.*.1.<.1.1.2.1.2.2.2.2.2.2.1.%.&.<.<.*.V P V n b 2.",
"2.2.*.%.*.<.*.*.1.1.,.2.1.*.&.&.*.*.2.2.2.2.2.2.v c v v c c v } | ....x x c 2.2.2.] A V m n b 2.2.2.2.<.1.*.<.1.2.P A Y D Z n 2.",
"1.1.*.*.1.2.O. .} x v c 2.1.%.*.1.<.*.2.2.2.2.<.c x c c x z z x x c x z z x ] 2.s m Z V m 8 b 3 2.2.2.<.1.*.<.1.2.A Z Z V m 3 2.",
"1.1.<.*.1.| +.....v } c <.1.&.1.2.1.*.2.2.2.2.<.{ ' ` c c x x c c x z x ' ` ` &.p 6 8 b 6 3 * * 2.2.2.2.1.] *.*.1.b b b b 6 3 ] ",
"2.1.%.%.<.} =.O.O.| } x <.1.*.1.1.2.1.2.2.2.2.<.{ ' ' ' ^ ! ` _ ^ R ! ] { &.] ] , & * 3 , * & 3 2.2.2.2.1.%.<.*.%.3 * * , 3 ` ] ",
"2.1.*.*.*.z x x x z z q 2.*.] 1.*.2.2.2.2.2.2.1.<.*.%.*.{ ' ] ] ' ' ' *.*.<.*.%.' * & 3 4 3 { 2.2.2.2.2.2.2.2.2.*., + @ # * ! *.",
"2.2.2.2.&.z q q q q z ` 2.<.%.F J 2.2.2.2.2.g F l 1.1.1.*.&.*.*.&.*.%.1.1.1.1.*.&.] ] G G G G g 2.2.2.a t 2.2.2.1.%.{ ` ] ' ` <.",
"2.2.2.2.<.' _ R ! T ' ' %.2.y J E H X.$.E F l l j j g 2.2.1.1.1.1.1.1.2.2.2.2.<.*.<.a G F G F g u 2 u h g g g 2.1.{ *.<.%.<.*.1.",
"2.2.2.2.*.<.{ ] { ' ] { %.g t u h u F H F h f u r r r 1.<.2.2.2.2.c c x c | v v 1.g h U J W W J l g t : : : : 2.2.1.1.1.<.*.<.2.",
"2.2.2.2.2.1.1.<.,.<.*.<.: l e y e g r g a u a r : - $ 1.<.2.2.v  . .} c c | v v c r : u r r r t : : : : : : : *.2.2.2.2.2.2.2.2.",
"2.2.2.2.2.2.2.2.2.2.2.! $ $ O $ O $ - O $ = ; ; O $ O 2.1.*.%.z v v c c v v } v v ^ : : : : : : : : : : : : : %.2.2.2.2.2.2.2.2.",
"2.2.2.2.2.2.2.2.2.2.2./ ` - X X X O X . O O - ; ] ' <.2.<.{ 1.z c c c x v c } v v &.^ ^ : : : : ^ 2 2 2 1 ] ] { 2.2.2.2.2.2.2.2.",
"2.2.2.m Z Z m 2.2.2.2.*.2.] ' ` / / O   X O *.] ] ' ] %.1.<.1.z z z z z z z } v v ] ] ^ ` ` ` %.] { / / Q / ` ' &.1.2.2.2.2.2.2.",
"2.2.K M M V b ` 2.2.2.2.<.1.%.{ %.*.] %.{ %.1.<.%.%.<.1.<.%.1.1.2.2.2.z z z x x x *.*.{ { { &.<.<.1.{ ] ' / ` ] %.*.*.1.2.2.2.2.",
"2.m K Z m m m 3 { 2.1.2.2.2.2.2.<.{ { %.*.1.1.2.1.1.2.2.*.] <.&.2.2.2.2.1.1.*.<.<.1.1.1.1.1.1.1.Z A V { &.{ { { { ] &.&.*.2.2.2.",
"2.M m b m * , , / ^ <.1.2.2.2.1.%.%.1.1.*.*.2.2.2.2.2.2.1.<.1.1.2.2.2.2.1.%.&.<.<.*.1.2.2.2.A A A m b <.1.*.*.{ ] { &.%.%.2.2.2.",
"2.5 4 & < @ & * ] / 1.1.*.<.&.*.1.1.1.1.1.1.2.2.o.o.o...@.O.@.O.@.o...| 1.*.<.1.2.*.1.A A I D ( ~ ~ Z n 4 ] %.' ] ] &.*.<.2.2.2.",
"2.3 3 & * @ & ] 1.%.1.%.&.<.<.*.{ &.1.1.+.;.@.+.o.+.+.@.=.@.=.O.@.O... .1.*.<.1.2.1.2.A A A A I I Z M b 4 %.%.` ' ] %.{ <.2.2.2.",
"2.' ' ` ' ` *.*.<.%.1.*.<.1.2.&.] { *.*.@.;.;.@.O.@.=.=.;.@.;.=.=.o.o.| 1.] *.*.1.2.2.B s m i V V M M V 4 1.1.%.%.] { ] %.2.2.2.",
"2.<.1.%.] ] ] *.1.*.1.*.<.,.1.1.2.2.2.2.+....... . .o.O.O.o...v x z z x 1.%.<.*.1.2.2., * * , * 3 , 3 3 3 <.<.] %.] ] %.&.2.2.2.",
"2.2.1.1.*.*.1.2.2.2.1.] *.&.,.2.2.2.2.2.<.x c c v | | | | | } c x z _ ] 2.2.2.2.2.2.2.&._ Q R + & * 4 b ' <.1.%.<.*.{ 1.1.2.2.2.",
"2.2.2.| c c v |  .} 1.%.<.*.,.*.*.<.<.2.] _ ' q q x c x c ] ] %.{ %.{ &.2.2.2.2.2.2.2.*.` ^ / ^ T ^ / ] ' *.t j a 2.2.2.2.2.2.2.",
"2.2.c  .v c | O...| v 2.2.1.&.%.1.1.*.*.{ ' ' ' ' ` ^ / _ ^ ^ <.*.*.<.<.2.2.2.2.t g a <.*.] { { ' *.] ] ] l j k u G J 2.2.2.2.2.",
"2.2.c } } c } | v v z 2.<.<.1.<.1.2.1.1.1.<.*.] ` ' ] ] %.{ %.1.1.1.1.j j u t 2 7 e 2 2 > 1.<.1.*.*.,.*.S h j f u h S 2.2.2.2.2.",
"2.<.0 q q z c c c x z 2.1.1.*.*.1.1.2.2.2.1.1.*.&.*.*.<.*.1.1.2.2.2.a l G l a a r - $ - O *.2.2.2.2.2.1 r e e r u j g ] 2.2.2.2.",
"2.<.0 q q q z z z z 2.2.2.1.{ { *.*.2.2.2.2.2.2.<.%.*.<.<.1.2.2.2.u r t u y 1 1 > - $ = $ ^ 1.2.2.2.; - $ $ O $ - ; ` %.<.2.2.2.",
"2.<.{ ' q q 0 : : : ; ; u 2.1.1.1.1.2.2.2.2.1.1.*.*.2.2.*.*.2.2.2.1.; O = X O = - O O O - { ] 2.2.2.2.- = $ O $ - ; _ / ] 2.2.2.",
"2.1.<.*.%.*.g h l h u 2 a u u 2.2.2.2.2.2.2.<.<.1.<.1.1.1.1.2.2.<.' ' $ - O O - $ O - - ` _ / 2.2.2.2.<.{ ' / ^ ^ / ] ] *.2.2.2.",
"2.2.1.1.1.- r u g g u 2 y u u 2.2.2.2.2.2.2.2.2.%.%.1.1.2.2.2.2.*.^ ' ] %.R / o $ . O ' %.%.%.2.2.2.2.<.{ ' ` ` ` ] <.<.1.2.2.2.",
"2.2.2.2.: O y u g j j d > ; ; 2.2.2.O.+.+.+...o.o...;.*.2.2.2.2.*.` ] ' ] ^ ` ] ' ' ^ %.<.1.1.2.2.2.2.<.*.{ %.*.*.*.1.1.2.2.2.2.",
"2.2.1.1._ O = = O O = $ O = - 2.2. .o.=.;.:.=.@.@.+.>.;.=.@.@.......| %.] ' ] { { *.] <.2.O.o.o.+.o.@.+.{ ] %.,.1.1.2.2.2.2.2.2.",
"2.2.1.1.] ] ' ] $ O - - ] 2.*.2.2.v v ....o. .} } } +.o.o.o.O.} } } } %.<.%.*.1.*.<.*.1. .+.o.O.=.+.;.;.;.' ] *.2.2.2.2.2.2.2.2.",
"2.2.1.1.*.*.%.] { %.*.2.<.<.*.2.] x x | ...... .} c x c c v v x z x c / 2.K P K Z 8 3 3 v O..... . .v c c ' ] &.2.2.2.2.2.2.2.2.",
"2.2.2.*.%.*.<.%.*.1.2.2.2.2.2.2.] c c v | c x x x q z z x v c z z x { ] 2.L P D Z b 3 3 v  . .| |  .c x c ' ] *.2.2.2.2.2.2.2.2.",
"2.1.1.*.*.1.2.<.*.1.2.2.2.2.2.2.<.] ' x x q z 0 q 0 q z ^ / T / ] %.1.*.B #.#.( Y L Z 3 v v c c c c c x c ] *.1.2.2.2.2.2.2.2.2.",
"2.1.1.<.*.1.1.1.<.1.2.2.2.2.2.2.*.' { &.' ` ^ / _ ^ _ *.] { ] %.*.<.<.<.b Z V M n 6 3 3 2.2.2.c c c c c *.*.1.2.2.2.2.2.2.2.2.2.",
"2.2.1.%.%.<.<.2.2.1.%.%.*.<.m V A m b A n { ] %.%.&.&.1.<.*.*.1.1.2.2.2.b M m m m b 3 3 1.2.2.2.2.2.2.2.2.c c v c c 2.2.2.2.2.2.",
"2.2.1.*.*.<.<.2.1.%.%.2.2.*.~ ( ) P Z P Z m n 1.1.1.1.1.2.2.2.2.2.2.2.2.5 3 3 3 3 3 3 1.1.2.2.2.2.2.2.2.c c v v c c c 2.2.2.2.2.",
"2.2.2.2.2.2.2.<.<.2.1.1.2.1.A Z Z n 6 m b b 8 2.2.2.1.1.2.2.2.2.g j h 2.2.2.3 3 3 3 2.1.1.,.,.1.1.2.2.v v c v v c c c 2.2.2.2.2.",
"2.2.=.+.:.;.=.=.O.o.&.1.1.2.A V B V i & * * 3 2.2.2.1.1.*.*.1.l F j a G h 2.2.2.2.2.2.2.*.%.*.1.*.<.2.c c c x c x z z <.2.2.2.2.",
"2.} o...@.=.=.@.@.o.O.O...} 3 , & * & & * , 3 2.2.2.2.*.%.*.g t u u 2 j u u r 2.2.2.1.1.*.*.1.2.<.<.2.q q q q z z z q ' 2.2.2.2.",
"&.}  . .o.=.:.@.@.=.o..... .2.2.2.2.& @ & , 2.2.2.1.1.*.*.1.G g g J H J l g a 2.2.2.1.1.<.*.1.1.1.1.*.q q q 0 0 0 q 0 ' 2.2.2.2.",
"] x x x c c } | | ..o. .|  .1.1.2.2.2.2.2.v v c z z 1.<.*.u t 7 : g u g u e 2 2.2.o.o. .O.o...@.+. .*./ ` q 9 0 0 9 9 ' <.2.2.2.",
"%.' x z c x z c c v | c z x 1.1.2.2.2.2.|  .} v c z z ] a a r y : a u r e ' <.2.@.@.+.+.o.} } +.O.o...%.*.^ / R / ^ _ ] %.2.2.2.",
"*.&.%.q q z q 0 q q x z z ` 2.1.%.%.*.}  .O.o. .} x z : : : - $ - O - O $ ' *.2. .o..... .| x x z z x 1.1.%.{ ] ' ] ] <.2.2.2.2.",
"<.*.<.%.] ' / ` R / { _ 2.*.1.%.%.2.v } v } } c x x z z : : - $ = X O X ' ] ] %.v v v v } v x x z q z 2.1.1.,.1.*.<.2.2.2.2.2.2.",
"2.1.1.1.*.%.] %.*.] <.%.<.%.<.2.1.1.c c c v c z z z q q z { ' ^ R ^ ` %.&.*.1.1./ c z z x q q q ' ' { 2.2.2.2.2.2.2.2.2.2.2.2.2.",
"2.2.2.2.2.2.1.<.1.1.1.1.2.2.2.&.&.1.c c x c z q q q 0 9 0 <.*.{ { *.1.1.2.2.2.<.%.] ' ` / ` ] &.*.*.<.2.2.2.2.2.2.2.2.2.2.2.2.2.",
"2.2.2.2.2.2.2.2.2.2.2.2.2.2.1.{ { *.0 q q z 0 0 0 q 0 0 q 2.2.2.2.2.2.2.2.2.2.2.1.<.*.&.%.*.1.1.1.1.1.2.2.2.2.2.2.2.2.2.2.2.2.2.",
"2.2.2.2.2.2.2.2.2.2.2.2.2.2.2.2.2.2.2.q q q 0 2.] ' ' ] 2.2.2.2.2.2.2.2.2.2.2.2.2.2.2.2.2.2.2.2.2.2.2.2.2.2.2.2.2.2.2.2.2.2.2.2.",
"2.2.2.2.2.2.2.2.2.2.2.2.2.2.2.2.2.2.2.2.2.2.2.<.1.%.*.2.2.2.2.2.2.2.2.2.2.2.2.2.2.2.2.2.2.2.2.2.2.2.2.2.2.2.2.2.2.2.2.2.2.2.2.2."
};
