/* XPM */
static const char *permasnow[] = {
/* columns rows colors chars-per-pixel */
"64 64 26 1 ",
"  c #C7E7FF",
". c #CBE6FF",
"X c #CDEBFF",
"o c #D0E7FF",
"O c #D4ECFF",
"+ c #D4EDFF",
"@ c #D8EAFF",
"# c #D9ECFF",
"$ c #DDEEFF",
"% c #D4F0FF",
"& c #DBF0FF",
"* c #DAF3FF",
"= c #DCF0FF",
"- c #DFF3FF",
"; c #E1EFFF",
": c #E2F1FE",
"> c #E6F1FF",
", c #E1F5FF",
"< c #E4F4FF",
"1 c #E9F3FF",
"2 c #E8F4FF",
"3 c #ECF7FF",
"4 c #EBF8FF",
"5 c #EEF8FF",
"6 c #F1F7FF",
"7 c #F1F8FF",
/* pixels */
"$=$=#;11#=#@+$=$@@:132:=#&&&%XX=+#@@+++X++ +:=%+%&%%+:>3<42$+$::",
"++$:;2>$###++#=@o+#:<1:&&&+++++#+@@$$##+##++=:#+%==,>11>:>:oo$=#",
"++#;>:#+++#++@$$#+&===&&&#+XX+X+++####;$#=##&#++:<<222>$@$=+o##X",
"+X$>:#+=##=@%+=:=%==&&&%#++XXX+$@+$=+####$:===#:2<<22,+=;$$@+.+%",
"++:>$++&:===+%=<:==,=&&&&+XXXX+:+#::=$=&=>2>:$=2>:======>$++ .++",
".=:$#X%=::++&#=<>==,=&#+++XXX+$>>>>>$:=&$:>:$==::=&&&=$#:$++.+XX",
"X:>#+X&:=#++&==<>,&&&&&+XXX++$:>32>>:$===##+$::$++%&&&++#$#++XX+",
"+:>,&&::=+&+++&=<:=&&==%&:::$;:><>$$=##==&+X+#::=++%&%%X#:++#XX+",
"+:<&,>$:#&#&++#>22:#::===>1:##+=@+.X&====#+XX+@:;::+++X+#$+##X+#",
"&==%=<>2<#&&#&&<22:,$><>>>:++%+++X+X+#>2==%++X+=>22:&+X==#=&%+&,",
"=,,&&<332<$#&==#::::$>>::=+++++#%%++&&21:&+++&+=:2211>>>#+<=+&,:",
"<<=&&=,,<>2>&=#+&==##>2:+++X++#&++&&&=<<=+%++==::=:<2332:$::,,2=",
"33=&&+%&%=>2<:=+%==+%:1>++%%&+#=%+&:#&=<,&&++&&=:&&&::>:##<<2<32",
"3>=&++%%X%=>22:===#+%=22:++#&+=#++>>:&&=,,=&%%+=,==#==#@$:=:2333",
"3<&+&+%%%&==:>>>#&#==+=>:==#&&=+&<2,=%&,<<:#+%%=::===$++$$=:2137",
"2:&+%+%%++++&$>>==:<:==>21>==::=232:===,:::#XX+%:::=##$:>:<<1235",
"2:&%%%++&+XX+$1>>::<:<::233>=$>375<:,==$@#@+XX+==:=#=$>>>;>323<<",
"2:&%%+++%+X++:<>>>:::2333322$$332<====&&##$@+++##==$:>>::>:>12<2",
">&+&&%+++X+++;>:=:<::2222>::$<2,$$++@++++#:$X+#$:>>:::===#;>2>23",
"2&+X++X+X@#$$#$::=:<,=%=::#+$,>@+#@++XX+++::+##:>2::##&=:$:21222",
"<<+X+XX+#$:;$+#:::<<:%+::>$@#:$@++++XXX++&,<,==$:>=#++:>>=:>:::$",
":<::##+#$:=$=#$;$>$:#&#>>>>+++#$#+X  XXX+&&:<:=:$#+++=,,:==:=+&:",
"=<23321>:##+#$$#@$#++#$:>>$++++$#+XXXXXX+&#=:>::&&++=:===,=:<<<=",
"=:<23633>#++#:$@+#++#$$>>;$#&+++++XXXXXX&==>>>:=++##==+&==&=<2<,",
"&==:221>;#@@$$$#++++++&>:$$#=++%+++X%X%+&=$;==&====&&++==&====%%",
"&=:=:>>;$#$$#$$@#@+XXXX:$$$+++%%%+&&%+%X&&#;=+#:::&+++#++#==&%%%",
"=&==#=$$$$;:###@#@++XXX#;>:#&%%&%%,<,&%%+&@:=$>2:%XX+#+++#=&&&&=",
"+++++#####>:@+++@@##+XX.:>;=#%&=&&,23<=&::::>2>:&+X++@+X++=#&&&&",
"XXXXX+#&#=>>+++XX+$$##++:2==&%==&&=:222>232>>2:$++++++X @$=$&+XX",
"XXXXX+++#:2>#%X ++##@$=:>>>>:::&&=,>2<2>36<21,::#>>:$###$;::=+X ",
"X++X+++X%>>:@+++&&&++=:>11321><=&:><::$>31:>=,:#$=1:::=:::>:>=+ ",
"X&+X ++X$>:==+%+&=&++=><232<$#$$::,:&&:2>$##@>>+$:><>$##@@#::=&X",
"+#@@++++:>@+:=%+%&%++:>3<42$+$::$=$=#;11#=#@+$=$@@:132::==&&+XX$",
"+@@$$##+;>=&=:#+%==,>11::>:o@:=#++$:;2>$###++#=@o+&:22<:2<+++++#",
"++####;$#:=#&#++,<<222>$@$=+@=$+++#;>:#+++#++@$$#&=::<:<<:+X++X+",
"@+$=+####$:$==#:1<<22,&=;$$@+o#=#+$>:#+=##=@%+=:<=:<,=,::#+XXX+$",
"+#:>:>:&:>21:;=2>:======>$++ .+@#$>>$++&:===++:22<,<::>:=+XXXX+:",
":>>>:>:&:>1>:::::=&&&=$#:$++.+X+.:<:=X%=::#+==:2<,=<:=$#++XXX+#$",
">>>>:$$$=$##$>>$++%&&&++#$#++XX+X:>:&+&:$#++=::<<,&&==&%XXX++++#",
"::$$=##==#+X+#::=+++&%+X#:++#XX++:><=,<<=+=&&+#$<:=&&==%++##+++$",
"@+.X&====#+XX+@::::+++X+#$+##XX#%:<,<>:>$,$&+++:><=+====##=+XXX#",
"+X+X%#>2==%++X+=>22:=+X==#=&%+&,&===<<>22:,,=&&:<<==#:<=&&+XXX++",
"%%++&&22:&+++&+=:2232>>:#+<=+=,:=,,&=<5322::=::$::::$==&%%XXX++#",
"++&&&=<<=+%++==::=:23332:$::,<2=<<=&&=,,<>32=::=&==##=:=%++X++#&",
"++&:#&=<:&&%+&&=:&&=<>>:##<<2>3233=&&%+%+=>32:=&%==+%=>=++%%&+#=",
"++>>,&&=,,=&%%%=,==#:>$@$,=,23333>,&++%+X+=<22:===#++&<<$++#&+=#",
"&>2:=%&:<<:&+%%=::==$;$#$$=:21373<&+&++%+&===>2>#&#==+=>:==#&&=+",
"232:===,:::#XX+%:::=##:>>:<<12352:&+%+%++#++%#:>>::<:==>21>==::=",
"75<:,==$@#@+XX+==:=#=$>>>;>323>>2:&%%%++&+XX++#;>1>>:<::233>=$>3",
"2<====&&##$@+++##==$:>>::>:>12>22:&%%%++%+X++@##=::::2332322$$33",
"$$##@++++#:$X+#$:>>:::===#:12>23>&%&&%+++X+++#@@##::<2222>::$<2,",
"+#@++XX+++::+##:>1::###=:=:223322&%+++X+X@#$$++$:==<<:%=::#+$,>@",
"++++XXX+%&,<:==$:<=#++:><=:>::<>2<+X+XX+#$:;$+#:::::=%+::>$@#:$@",
"#+X  XXX+&&,>:=:$#+++=,::==:=+=<<2>:#+++$:=$=#$;$>$=+&#>>>>+++#$",
"#+XXXXXX%&#=;>,:&&++=:===,=:<<<==233321>:##+#$$#@$#++#$:>>$++++$",
"++XXXXX+&==>>>:=++##==%&==&=<2<,=:237633>#++#:$@+#++#$$>>;$#&+++",
"+++X+X++&==:==&====&&++==&====%%&==>111>;#@@$$$#++++++&>:$$#=++%",
"%+&&%++X&&&==+#:::&+++#++#==&%%%&=:=:>>:$#$$#$$@#@+XXXX:$$$+++%%",
"%%,<:&%%+&#:=$>2:%XX+#+++&=&&&&==&==#=$$$$;$@####@++XXX#;>:#&%%&",
"&&,23<=&:,::>2>:&+X++@+X++=#&&&&+++++#####:$X+++@@$#+XX.:>;=#%&=",
"&&=:222>232>>2:$++++++X +==$&++XXXXXX+#&#=:$X++XX+$$##++:2==&%==",
"&=,>2<2>36<11,::#>>:$###$:::=+X XXXXX+++#:>=+&+ ++##@#=:>>>>:::&",
"&::<:=$>31:>=,:#$=1:::=:::>:>=+ X++X+++X+==&@+++&&&++=:>11321><=",
"::::&&:2>$##@>>+$:><>$##@@#::==XX&+X ++X+#+%=+%+&=&++=><232<$#$$"
};
