/* XPM */
static const char *quartzite_floor[] = {
/* columns rows colors chars-per-pixel */
"64 64 109 2 ",
"   c #4C3029",
".  c #4D312A",
"X  c #4F322C",
"o  c #51332C",
"O  c #52342D",
"+  c #53352E",
"@  c #56362F",
"#  c #573730",
"$  c #583831",
"%  c #5B3A32",
"&  c #5C3B33",
"*  c #5F3C34",
"=  c #603D35",
"-  c #613E36",
";  c #633F36",
":  c #644037",
">  c #674138",
",  c #684239",
"<  c #69433A",
"1  c #6A443B",
"2  c #6C443B",
"3  c #6E463D",
"4  c #70473D",
"5  c #71483E",
"6  c #72493F",
"7  c #734940",
"8  c #764B41",
"9  c #774C42",
"0  c #794D42",
"q  c #7A4D43",
"w  c #7B4E44",
"e  c #7C4F45",
"r  c #7F5146",
"t  c #805247",
"y  c #825247",
"u  c #835348",
"i  c #845449",
"p  c #87564A",
"a  c #88574B",
"s  c #89574C",
"d  c #8B584C",
"f  c #8C594D",
"g  c #8F5B4F",
"h  c #905B4F",
"j  c #915C50",
"k  c #925D51",
"l  c #945E51",
"z  c #955F52",
"x  c #986053",
"c  c #996154",
"v  c #9A6255",
"b  c #9B6356",
"n  c #9D6456",
"m  c #9F6558",
"M  c #A16658",
"N  c #A3685A",
"B  c #A4695B",
"V  c #A66B5D",
"C  c #A66C5F",
"Z  c #A76D60",
"A  c #A86F61",
"S  c #A87063",
"D  c #A97164",
"F  c #AA7265",
"G  c #AB7366",
"H  c #AC7669",
"J  c #AD776A",
"K  c #AD786C",
"L  c #AF7A6E",
"P  c #B07C70",
"I  c #B07D71",
"U  c #B27F73",
"Y  c #B38276",
"T  c #B48377",
"R  c #B5857A",
"E  c #B6867B",
"W  c #B7877C",
"Q  c #B88A7F",
"!  c #B98B80",
"~  c #B98C82",
"^  c #BB8E84",
"/  c #BC9187",
"(  c #BD9288",
")  c #BE9389",
"_  c #BE948B",
"`  c #BF968C",
"'  c #C0978D",
"]  c #C19990",
"[  c #C29A91",
"{  c #C39B92",
"}  c #C39D94",
"|  c #C49E95",
" . c #C59F96",
".. c #C6A097",
"X. c #C7A39A",
"o. c #C8A49B",
"O. c #C8A59D",
"+. c #C9A69E",
"@. c #CAA79F",
"#. c #CBA8A0",
"$. c #CBAAA2",
"%. c #CDADA6",
"&. c #CEAEA7",
"*. c #CFAFA8",
"=. c #D0B2AB",
"-. c #D1B3AC",
";. c #D2B4AD",
":. c #D3B7B0",
">. c #D4B8B1",
/* pixels */
"Z Z Z Z Z Z Z Z Z Z Z Z Z Z Z Z Z Z Z Z Z Z Z Z Z Z Z Z Z Z Z Z Z Z Z Z Z Z Z Z Z Z Z Z Z Z Z Z Z Z Z Z Z Z Z Z Z A H P Z Z Z Z ",
"Z Z Z Z Z Z Z Z Z Z Z Z Z Z Z Z Z Z Z Z Z Z Z Z Z Z Z Z Z Z Z Z Z Z Z Z Z Z Z Z Z Z Z Z Z Z Z Z Z Z Z Z Z Z Z Z Z D `  .D Z Z Z ",
"Z Z Z Z Z Z Z Z Z Z Z Z Z Z Z Z Z Z Z Z Z Z Z Z Z Z Z Z Z Z Z Z Z Z Z Z Z Z Z Z Z Z d ; M s l Z Z Z Z Z Z Z Z Z S T ^ P ( :.Z Z ",
"Z Z Z Z Z Z Z Z Z Z Z Z Z Z Z Z Z Z Z Z Z Z Z Z Z Z Z Z Z Z Z Z Z Z Z Z Z Z Z Z Z Z 7 d i 8 s N Z Z Z Z Z Z D K P ] P K +.( P Z ",
"Z Z Z Z Z Z Z Z Z Z Z Z Z Z Z Z Z Z Z Z Z Z Z Z Z Z Z Z Z Z Z Z Z Z Z Z Z Z Z Z Z , m f u l m N Z Z Z Z Z Z P  .( ' X.-.` ` K Z ",
"Z Z Z Z Z Z Z Z Z Z Z Z Z V n m k i Z Z Z Z Z Z Z Z M s l x w M s a t M Z Z Z Z Z x N t l M M C Z Z Z Z Z D W W ! ( ( =.W ~ H Z ",
"Z Z Z Z Z Z Z Z Z Z Z x w l 3 9 , 5 M Z Z Z Z Z Z Z u ; t & $ : O , 7 x C Z Z Z Z Z C N C M N Z Z Z Z Z Z Q Q P ] D ..] P P A Z ",
"Z Z Z Z Z Z Z Z Z Z Z 0 5 u i 2 , t v Z Z Z Z Z Z l , 1 , * * $ & , k m C Z Z Z Z Z Z Z Z Z Z Z Z Z Z Z Z Z S K K +.R H K K Z Z ",
"Z Z Z Z Z Z Z Z Z Z t f t t s 3 h k N Z Z Z Z Z Z 7 e 0 $ 9 # 5 7 d l B Z Z Z Z Z Z Z Z Z Z Z Z Z Z Z Z Z Z Z Z Z P D T Z Z Z Z ",
"Z Z Z Z Z Z Z Z Z Z t V x V s s v l C Z Z Z Z Z H A P s w f 9 i u x v V Z Z Z Z Z Z Z Z Z Z x w M s l Z Z Z Z Z Z Z A D Z Z Z Z ",
"Z Z Z Z Z Z Z Z Z Z Z V v Z Z C M N Z Z Z Z W $.Q $.] M C N v B M N Z Z Z Z V k i k , s , w 0 : . 8 s N Z Z Z Z Z Z Z Z Z Z Z Z ",
"Z Z Z Z Z Z Z Z Z Z Z Z Z Z Z Z Z Z Z P X.( ] (  .] W K Z Z v 8 i Z Z Z l ; > 7 2 3 t 9 0 ; ; ; 7 u m N Z Z Z Z Z Z Z Z Z Z Z Z ",
"Z Z Z Z Z Z Z Z Z Z Z Z Z Z Z Z Z H W ` _ $.(  .] P P D Z Z f t k i ; Z i : ; 7 & 5 ; & w O o * 5 v M C Z Z Z M s l Z Z Z Z Z Z ",
"Z Z Z Z Z Z Z Z Z Z Z Z Z Z Z Z Z Y +.$.%./ ]  .] Y P Z Z a u M N 5 d > o w 7 w r u 7 t $ w 9 9 t x N Z Z Z Z k 8 s N Z Z Z Z Z ",
"Z Z Z Z Z Z Z Z Z Z Z Z Z Z Z Z P Q W ] _ ] P ] ] K D Z Z N M v ; m M 7 8 u e f s 5 M 4 f w 9 N N C Z Z Z Z l i l m N Z Z Z Z Z ",
"Z Z Z Z Z Z Z Z Z x w M s l x w D f ] 3 k T _ ! K K Z Z M s h h 0 N * x N M n C M M M x V l n v n Z Z Z Z Z l l M M C Z Z Z Z Z ",
"Z Z Z Z Z Z Z v 8 , 2 1 3 > : 2 & o e 9 C x ` W ` D P S k 8 u 8 w M N B k N Z Z Z Z Z Z Z Z Z Z Z Z Z Z Z Z Z C M N Z Z Z Z Z Z ",
"Z Z Z Z Z Z Z f , w & . : O # o O : $ M n V H ' ] ^ +.N i h w d m M Z Z Z Z Z Z Z Z Z Z Z Z Z Z Z Z Z Z Z Z Z Z Z Z Z Z Z Z Z Z ",
"Z Z Z Z Z Z a u 0 0 $ ; O # # o 2 0 a d f D ^ _ =.] P M l x t N v C Z Z Z Z Z Z D P Z Z Z Z Z Z Z Z Z Z Z Z Z Z Z Z Z Z Z Z Z Z ",
"Z Z Z Z Z Z V K T s $.u ; O ; ; ; > 2 M C ! -. .+.Q K D C M N N n Z Z Z Z Z Z Z ( %.P W P Z Z Z Z D P Z Z Z Z Z V x k Z Z Z Z Z ",
"Z Z Z Z Z Z H ` ( ` A d w , ; * 2 9 v v Z _ $.! W ( R D Z Z Z D K K Y ! Z Z Z P X.+.` ' W D Z Z Z / %.D Z Z Z M 7 O O N Z Z Z Z ",
"Z Z Z Z Z D ^ T +.T D x 7 > ; i , M M C +.P D D ] ] P S Z Z Z P  .( ` ( H Z Z +.^ ( ( Y K D Z Z P  .( P Z Z Z f & # 0 s Z Z Z Z ",
"Z Z Z Z Z D Q D P D T h s h D K K ^ x Z Z D T ! W P K S Z Z D W ! ` W K H Z Z ] P ( T K H A Z Z +.` ' H Z Z l : O f f N Z Z Z Z ",
"Z Z Z Z Z Z A D K v t u N W o.` *...P ] %.Z Z Q K P D Z Z Z Q Q K ~ D P A Z Z V M H v k D Z Z ! =.] _ H Z Z l f l u t Z Z Z Z Z ",
"Z Z Z Z Z Z Z Z Z u 7 k Z }  .+.'  .*.%.] P Z Z S K D Z Z Z Z S K K D K Z Z Z l 3 w 9 w x v H +.+. ./ D Z Z Z C M M V Z Z Z Z Z ",
"Z Z Z Z Z Z Z Z a s v u 4 C D P Y %.;.` P K Z Z Z Z Z Z Z Z Z Z Z Z Z Z Z Z M t t 0 7 $ 2 2 +.X. .W P D Z Z Z Z Z Z Z Z Z Z Z Z ",
"Z Z Z Z Z Z Z Z a m a 0 k * 7 l P B ` R Q A Z Z v w u l u X Z x w v 8 t x C 0 & $ * : * $ C P T ` P H A Z Z Z Z Z Z Z Z Z Z Z Z ",
"Z Z Z Z Z Z Z Z Z M & ; & 4 f l i i P P K Z Z Z u , , 7 ; t 7 $ 1 3 * 9 ; u * ; ; o , & l v x v K H D Z Z Z Z Z Z Z Z Z Z Z Z Z ",
"Z Z Z Z Z Z Z Z C k t & $ u k w h M D D Z Z Z a w e w o , , # @ , O : 9 k 2 * , ; : , a i 0 l m N Z Z Z Z Z Z Z Z Z Z Z Z Z Z Z ",
"Z Z Z Z Z Z Z Z v 7 r w x s l u N v C Z Z Z Z a f 0 e 5 ; $ O # $ 8 > u 0 r v 2 4 a l v t 0 w , t C Z Z Z Z Z Z Z Z Z Z Z Z Z Z ",
"Z Z Z Z Z Z Z Z Z C w l x N C C N n Z Z Z Z Z Z V s w , $ $ 3 , > v h N l N k e N k M Z k 7 5 u v M Z Z Z Z Z Z Z Z Z Z Z Z Z Z ",
"Z Z Z Z Z Z Z Z Z Z Z V v Z Z Z Z Z Z Z Z Z Z Z Z M w $ . * x l ] P S R W Q ] ! N n Z l i w t m N C Z Z Z Z Z Z Z Z Z Z Z Z Z Z ",
"Z Z Z Z Z Z Z Z Z Z Z Z Z Z Z Z Z Z Z Z Z Z Z Z Z k * & a s A N t K ] _ ] ` ( Y H Z Z l l M n v n Z Z Z Z Z Z Z Z Z Z Z Z Z Z Z ",
"Z Z Z Z Z Z Z Z Z Z Z Z Z Z Z Z Z Z Z Z Z Z Z Z l i O x s C +.V m V k R ` ( P D D Z Z Z C M N Z Z Z Z Z Z Z Z Z v t M Z Z Z Z Z ",
"Z Z Z Z Z Z Z Z Z Z Z Z Z Z Z Z Z Z Z Z Z Z Z Z l l M x a Y l N Q k t S P P P K Z Z Z Z Z Z Z Z Z Z Z Z Z Z x w r ; & C Z Z Z Z ",
"Z Z Z P ] ! P ^ H Z Z Z Z Z Z Z Z x w M s k n M Z C M N K ] Z D i w 9 B a X D D Z Z Z Z Z Z Z Z Z Z Z Z Z Z 0 > w 5 f x Z Z Z Z ",
"Z Z Z R ( / %.+.] S Z Z Z Z v 8 i 0 7 s 8 w 2 t C Z Z Z Z A H P a 5 & & 4 f 7 M Z Z Z Z Z Z Z Z Z Z Z Z Z t f 9 ; x M V Z Z Z Z ",
"Z Z Q ^ H X.} .. .K Z Z Z Z f t 7 i f t h 0 2 d t s k w Z Z Z Z t u 2 O x r 7 x C Z Z Z Z Z Z Z Z Z Z Z Z t V x N l h Z Z Z Z Z ",
"Z Z D K  . .$...P K Z Z Z a 9 > : N i k t 1 , > 2 ; : 7 M Z Z Z 9 > l N u 8 v m C Z Z Z Z Z Z N x M s f 0 ; V v Z Z Z Z Z Z Z Z ",
"Z Z Z A P Q +.^ R A Z Z Z N i 0 a 7 $ w > ; $ . 3 , r x m Z Z Z Z B k k a M v B Z Z Z Z Z Z Z t & f 7 1 $ x x Z Z Z Z Z Z Z Z Z ",
"Z Z Z Z Q ^ P K P Z Z Z Z t t t . 1 4 3 O : $ & O 7 M x C Z Z Z Z Z Z Z Z V n l 7 , w d ; Z x 0 s w t # a x C Z Z Z Z Z Z Z Z Z ",
"Z Z Z Z D K P K Z Z Z Z Z Z V : & 5 u ; a o i 2 f i v v Z Z Z Z Z Z Z Z P ^ H 0 , 7 ; $ 2 , ; t i a 4 l x f Z Z Z Z Z Z Z Z Z Z ",
"Z Z Z Z Z A D D Z Z Z Z Z Z # C f l > u m B , t m C Z Z Z Z Z Z Z Z Z Z ~ ] H C 0 u # ; * 7 4 7 u N k x l Z Z d $ x Z Z Z Z Z Z ",
"Z Z Z Z Z Z Z Z Z Z Z Z Z Z Z N m ~ P ` _ o.P B k Z Z Z Z Z Z Z Z Z Z Q W Y Q ( 0 & $ o , ; 7 x m C Z V v v k $ i l V Z Z Z Z Z ",
"Z Z Z Z Z Z Z Z Z Z Z Z Z Z H W ] ] ( `  .Y D D Z Z Z Z Z Z Z Z Z Z Z Q P ` R H k , O O , 3 l l B Z Z N 9 2 $ 0 k N Z Z Z Z Z Z ",
"Z Z Z Z Z Z Z Z Z Z Z Z Z Z Y ` C H N , P w i C Z Z Z Z Z Z Z Z Z Z Z Z H ( H v u & * , 0 x n v V Z C k t 3 a v d N Z Z Z Z Z Z ",
"Z Z Z Z Z Z Z Z Z Z Z Z Z P Q D t N a M ; 7 M M Z Z Z Z Z Z Z Z Z Z Z A H P D D f t K f x M N Z Z Z v 7 V l N l N Z Z Z Z Z Z Z ",
"Z V n m n M Z Z Z Z Z Z Z T P D C 4 n 1 7 x v C Z Z Z Z Z Z Z Z Z Z Z P +.+.K Z l T  .( C Z Z Z Z Z Z C M x C N P ( Z Z Z Z Z Z ",
"Z l 3 7 , 9 k , i , v Z Z K P B ( Y > ; N v v Z Z Z Z Z Z Z Z Z Z P  .=.=.+.` S Q ! +.-.K Z Z Z Z Z Z Z Z Z Y X. . .H Z Z Z Z Z ",
"N s i w > , 7 9 1 7 > k P +.S ] ~ l x v h v Z Z Z Z Z Z Z Z Z Z Z _ =.+.D K P H ~ ] o.R T Z Z Z Z Z Z Z Z Z ( ..o.%.P Z Z Z Z Z ",
"a a u 7 9 * ; O @ , & u N W =.+.P x S v C Z Z Z Z Z Z Z Z Z Z Z / +.$.N 3 v Z A D %.P R D Z Z Z Z Z Z Z Z ] / *. .^ T Z Z Z Z Z ",
"Z V u $ ; o ; ; : : a D ..] ` ( K P B n Z Z N u 5 Z Z Z Z Z Z Z / T f , , t B s l A H Q Z Z Z Z Z Z Z Z Z K ( *./ +./ S Z Z Z Z ",
"Z Z f 7 * * $ k 2 d f ! %.W H D P K Z Z Z Z M 0 a f Z Z Z Z Z Z Z l ; 2 3 7 d 8 s N Z Z Z Z Z Z Z Z Z Z Z ] T P ^ +.>.H Z Z Z Z ",
"Z a u ; t x l k f B ^ P H K T D Z Z Z Z Z 0 X 7 w $ t 5 Z Z Z Z l i 5 0 0 i t l m N Z Z Z Z Z Z V k t x Z K D ..*. .P P Z Z Z Z ",
"Z N M v x f n Z Z ! >.H W K Z Z Z Z Z w o ; 1 7 , u 1 i v Z Z Z l l x t l s k M M C Z Z Z Z Z x > ; , $ t M H +.;.R P S Z Z Z Z ",
"Z Z C V V Z Z Z Z +.%.~  .^ S Z Z Z Z : O , l ; 7 o , w N Z Z Z Z C M N N n C M N Z Z Z Z Z Z a 2 9 5 7 2 x $.] ! P W Z Z Z Z Z ",
"Z Z Z Z Z Z Z Z =.] ^ ( W P H Z Z Z # i l k u s 7 2 0 a M Z Z Z Z Z Z Z Z Z Z Z k , v Z Z Z t w i : e t x H ( T Q D Z Z Z Z Z Z ",
"Z Z Z Z Z Z Z Z +.P ] ~ D D A Z Z Z v M t m V > a t M m C Z Z Z Z Z Z Z Z Z Z Z u l V C Y ! Z V x x e s v P P K P A Z Z Z Z Z Z ",
"Z Z Z Z Z Z Z Z P D T D K K Z Z Z Z Z C N C Z Z B h v n Z Z Z Z Z Z Z Z Z Z Z 7 M (  .' ` ( H Z Z Z Z V n V S H D Z Z Z Z Z Z Z ",
"Z Z Z Z Z Z Z Z Z A D Z Z Z Z Z Z Z Z Z Z Z Z Z Z Z Z Z Z Z Z Z Z Z Z Z Z Z Z A T D ~ ] Q K H Z Z Z Z Z Z Z Z Z Z Z Z Z Z Z Z Z ",
"Z Z Z Z Z Z Z Z Z Z Z Z Z Z Z Z Z Z Z Z Z Z Z Z Z Z Z Z Z Z Z Z Z Z Z Z Z Z Z P ] ~ P ! D P A Z Z Z Z Z Z Z Z Z Z Z Z Z Z Z Z Z ",
"Z Z Z Z Z Z Z Z Z Z Z Z Z Z Z Z Z Z Z Z Z Z Z Z Z Z Z Z Z Z Z Z Z Z Z Z Z Z Z Z S K T P D K Z Z Z Z Z Z Z Z Z Z Z Z Z Z Z Z Z Z ",
"Z Z Z Z Z Z Z Z Z Z Z Z Z Z Z Z Z Z Z Z Z Z Z Z Z Z Z Z Z Z Z Z Z Z Z Z Z Z Z Z Z Z Z Z Z Z Z Z Z Z Z Z Z Z Z Z Z Z Z Z Z Z Z Z ",
"Z Z Z Z Z Z Z Z Z Z Z Z Z Z Z Z Z Z Z Z Z Z Z Z Z Z Z Z Z Z Z Z Z Z Z Z Z Z Z Z Z Z Z Z Z Z Z Z Z Z Z Z Z Z Z Z Z Z Z Z Z Z Z Z "
};
