/* XPM */
static const char *quartzite_cliff[] = {
/* columns rows colors chars-per-pixel */
"64 64 125 2 ",
"   c black",
".  c #060303",
"X  c #080403",
"o  c #0A0505",
"O  c #0C0605",
"+  c #0F0806",
"@  c #100807",
"#  c #130A08",
"$  c #150B0A",
"%  c #170C0A",
"&  c #180D0B",
"*  c #1B0E0C",
"=  c #1C0F0D",
"-  c #1E100D",
";  c #22120F",
":  c #231210",
">  c #241311",
",  c #261411",
"<  c #291512",
"1  c #2B1714",
"2  c #2D1814",
"3  c #321B17",
"4  c #341B17",
"5  c #351C18",
"6  c #3A1F1B",
"7  c #3C201B",
"8  c #3E211D",
"9  c #40221D",
"0  c #44241F",
"q  c #472520",
"w  c #492722",
"e  c #4B2822",
"r  c #4C2823",
"t  c #4F2A24",
"y  c #502B25",
"u  c #532C26",
"i  c #542D27",
"p  c #572E28",
"a  c #592F28",
"s  c #5A3029",
"d  c #5E322B",
"f  c #5F332C",
"g  c #61332C",
"h  c #63352E",
"j  c #65362E",
"k  c #68372F",
"l  c #693830",
"z  c #6C3931",
"x  c #703B33",
"c  c #713C34",
"v  c #753E36",
"b  c #784037",
"n  c #7B4138",
"m  c #7D433A",
"M  c #80443B",
"N  c #83463C",
"B  c #84463D",
"V  c #87483E",
"C  c #8A493F",
"Z  c #8B4A40",
"A  c #8E4B41",
"S  c #8F4C42",
"D  c #914D42",
"F  c #934E44",
"G  c #954F44",
"H  c #965045",
"J  c #995146",
"K  c #9C5347",
"L  c #9D5448",
"P  c #A2564B",
"I  c #A4574B",
"U  c #A5584C",
"Y  c #A8594D",
"T  c #AC5C4F",
"R  c #AD5C50",
"E  c #B06053",
"W  c #B16256",
"Q  c #B26457",
"!  c #B3665A",
"~  c #B3675C",
"^  c #B56A5E",
"/  c #B56B60",
"(  c #B66D61",
")  c #B76F64",
"_  c #B87065",
"`  c #B97368",
"'  c #BA7469",
"]  c #BB776C",
"[  c #BC796F",
"{  c #BD7A70",
"}  c #BE7D73",
"|  c #BF7E74",
" . c #BF8076",
".. c #C08177",
"X. c #C1837A",
"o. c #C3877E",
"O. c #C4887F",
"+. c #C58B82",
"@. c #C68C83",
"#. c #C68E85",
"$. c #C89087",
"%. c #C89189",
"&. c #CA948B",
"*. c #CB968E",
"=. c #CD9A92",
"-. c #CD9B94",
";. c #CE9D95",
":. c #CF9F98",
">. c #D0A199",
",. c #D2A69F",
"<. c #D3A7A0",
"1. c #D4A9A3",
"2. c #D5ABA4",
"3. c #D6ACA5",
"4. c #D7AFA8",
"5. c #D9B2AC",
"6. c #DAB5AF",
"7. c #DBB6B0",
"8. c #DDBBB6",
"9. c #DEBCB7",
"0. c #DEBEB9",
"q. c #E1C3BE",
"w. c #E1C4C0",
"e. c #E4C9C5",
"r. c #EAD6D3",
/* pixels */
"+.+.+.+.+.+.+.+.+.+.+.+.+.+.+.+.+.+.+.+.+.+.+.+.+.+.+.+.+.+.+.+.+.+.+.+.+.+.+.+.+.+.+.+.+.+.+.+.+.+.+.+.+.+.+.+.+.+.+.+.+.+.+.+.",
"+.+.+.+.+.+.+.+.+.+.+.+.+.+.+.+.+.+.+.+.+.+.+.+.+.+.+.+.+.+.+.+.+.+.+.+.+.} T [ +.+.+.+.+.+.+.+.+.+.+.+.+.+.+.+.+.+.+.+.+.+.+.+.",
"+.+.+.+.+.+.+.+.+.+.+.+.+.+.+.+.+.+.+.+.+.X.] } o.+.+.+.+.+.+.+.+.+.+.o.+.+.] ~ o.+.+.o.{ { o.+.+.+.+.+.+.+.+.+.+.+.+.+.+.+.+.+.",
"+.+.+.+.+.+.0 t i , 2 0 +.+.+.+.+.+.+.+.+.X.( ) X.+.+.+.+.+.+.+.+.+.+...o.^ +.P X.} +.o.] ( } +.+.+.+.+.+.+.+.+.+.+.+.+.+.+.+.+.",
"+.+.+.+.8 8 2 0 = O 9 s j z l +.+.+.+.X.o.} } W } X.+.+.+.+.+.+.+.R R W W { +.+.' ..o...} ( _ o.L +.+.+.+.+.+.+.+.+.+.+.+.+.+.+.",
"+.+.+.r e 6 y 3 * * 8 s l z g +.+.] ' _ ' _ X._ [ ..o.+.+.+. .Q } +.P ( ..~ +.J A K ' ' } { ' ! ~ I U A n n x x +.+.+.+.+.+.+.+.",
"+.+.+.j 8 e w . ; 0 y f z k r / ] ' R Q ) _ X._ W ) X.+...] } R ( { o.T +.P P } Q L E W } ' n U L P J n D Y m x x x +.+.+.+.+.+.",
"+.+.+.k j k 8 : q 9 j l z s o.( ( } ) !  .W ^ ( r , ; ..] ^ Y  .P X.( T ..R ..^ T Q T _ Q ( R B C n n l P D M f M J +.+.+.+.+.+.",
"+.+.+.+.z 6 6 j g s k +.X.o.' ] T ' ] W } W ^ r ; 5 6 q Y R P } _ ] X.+.~ P } ..J ^ Y ) W ' ' n C n c P V c z 9 K P +.+.+.+.+.+.",
"+.+.+.+.+.+.+.+.+.+.( ! ~ ^ ' o.] ] ] ' ' W 6 3 3 2 O 6 r ] U ] I U I Y Y +.J ! ] V D z z  .( _ 9 9 z m o.o.+._ A n +.+.+.+.+.+.",
"+.+.+.+.+.+.+.+.+.+...R ! ] ) = 6 5 ; 5 ; 2 2 ; < < 6 8 e  .S A E T P } _ g j l j z z z z z z ^ ~ ' o.+.o.o.+.+.+.+.+.+.+.+.+.+.",
"+.+.+.+.+.+.+.+.] X.& % o q # 8 8 - 0 = 2 2 2 6 * 6 q e r r H W U ~ j h u < 8 h h l z z z z z ( R _ X.X.X.o.+.+.+.+.+.+.+.+.+.+.",
"+.+.+.+.+.+.+.+.X., ; 2 2 & ; e 5 8 q 2 - O 5 6 = 2 5 6 r r K { ] h j h 9 6 6 > 7 g l j k l h ) ~ } o.X.X.o.+.+.+.+.+.+.+.+.+.+.",
"+.+.+.+.+.+.+.o.r 8 6 0 3 < 6 q r r q 2 , 6 8 3 , 6 , o e r ' Z h j l 8 5 a 7 3 9 8 7 h j h g ( ( X.o.+.+.+.+.+.+.+.+.+.+.+.+.+.",
"+.+.+.+.+.+.+.} r r r 2 < q <   9 < 2 o < 0 2 2 q 6 : 9 8 r ) w = e 9 9 w * , 5 6 : & y 8 } } ] ] ..X.+.+.+.+.+.+.+.+.+.+.+.+.+.",
"+.+.+.+.+._ _ ) ~ r r q q 9 % 8 ; = , 3 6 6 q q 9 S Y J ( P W 3 t 7 , 9 5 , 3 = * * ; 5 < _  .X.X.X.o.+.+.+.+.+.+.+.+.+.+.+.+.+.",
"+.+.+.+.+.( P T Q Y ~ T P . e 2 3 < < I ( I Y T T Y ^ Q ( ) A ) 0 6 r 1 @ 6 9 9 & 6 5 3 t ( +.+.+.o.+.+. .W ' o.+.+.+.+.+.+.+.+.",
"+.+.+.^ ! E P P } Y E E ! T W ! K U C ' ( Y ~ L E ' U D S U Z ) Y w p ; a s & 4 - ( { ! ~ W X.+.+.o.o.+.+.{ / ..+.+.+.+.+.+.+.+.",
"+.+.+.' W Y ! K ] J D P R ~ F J R N R W T S D L P L W K m U Y _ R J 2 3 g h f ~ o.( ( } Y W ..o. .o...o.) X.T { ..o.+.+.+.+.+.+.",
"+.} } X.) ( ~ Y J J } Y S R x x x P ) U J Y :.#.! D Y E S Y W D W  .) T Y T X.( X.+.E [ A ~ J A R T W x x W ' ] ..+.+.+.+.+.+.+.",
"+.o. ...{ ~ Y Y J W Y Y C C W O.( M H x J 6.;.H U v x T F R E ~ ( T / W W { X.] ( +...P P L J n b x x b M B R P T ..+.+.+.+.+.+.",
"+.+.X.X.X.) J P I E D S K L _ [ P  .8.' 1.*.( W n x x P W R C K ~ Y W ' ~ ' ] o.Y ! A R C v v m B D D S R J J { _ ] { X.X.o.+.+.",
"+.+.+.+.' P M J L J D n D _ ' C P X.P 5.*.! ;.X.P } x J D J P J L W I S D Y ~ o.Q K b M m P C x A W W J K J n Y { _ X.+.+.+.+.+.",
"+.+.o.] T ~ ) R Y U I V n Y D D 3.D *.A H  .' D +.@.V D L ( ' ^ W E F P ) ] ( ( '  .v m V L A C L L Y A n v m V Y ( X.o.+.X.o.+.",
"+.+.+..._ ] W Y U C I H I x c b b M ^ B  .! m } ] [ W ] Q ^ / ~ P I R E ~ ] { [ X.X.+.+.D B n D H m M v B C E J P P ( ....o.+.+.",
"+...R E E ! { ! W P / P Z H W ' H ~ x v n v T E ! ] ( ( W { ^ ! ) W Y Q / ! _ w r +.o.o.+.+.+.] q 8 , r L ) ! R I Y { X.{ ..+.+.",
"+.+.} Y ) ' ! ~ C D P Y S ^ I ' ~ F Y J J ~ W ] ( ( } E U / Y Z I / ^ E : 8 9 r r q 3 6 3 o 5 * < : ; q r r Y N m S } o.+.X.o.+.",
") o.} } W { L P ' / K ! T ..Y U ..D E S W ' _ ..o.~ } W ( _ U E } }   q q 0 q 5 # < * % $ + $ 3 ; 2 0 0 r r 8 ) J A R ] X...+.+.",
"o.{ X.( W } /  .W T W ' _ ] +.C } Y ( ~ } ' ] ) X._ X.Y R _  .} ' % 5 3 9 6 $ % X o $ . * * : 9 , e 8 r r r : Y L I L [ ]  .+.+.",
"o...+.+.X.! W X.] Y } _ ] E o.K ..P } ..o.{ o.W { X...( ( W ]  .  + q 6 $ # # = O   + + . 3 q o.~ z z r r < 5 0 M ) E } X.+.X.+.",
"+.+...Y Y E } P ( ] P R  .Y  .} } ( o. .+. .o.( } ...._ } Y [ e $ #   < * x Z q D < : $ 8 3 U ' / ,.[ D [ z e 8 J D N U ] o.o.+.",
"+.} E T o.} o.X.' { W ~ X.W _ } } o.o.p 9 w +.W E ~ ^ ' o. .{ ..- @ % ; i ) W L ~ k % 8 z W ' [ 2.' R ' K M e 9 P F U ( _ ) } o.",
"+.+.o. .X.( X.} T  .R ..+.} ..X.k : r 6 2 7 < ; 7 & w 5 8 l k W ..o.X.s U N E T z i 0 e z m J 4.-.] 0.' N B r r ( J W [ ] ] o.+.",
"+.+.+.+.+. .E +.o.} T o...X.X.l 2 h 0 7 w 9 4 s 2 r w q j k h _ { ] } s P f ~ z v s r r z C +.C P o.=.( ..z ' Y _ L / ~ { } +.+.",
"+.+.+.X.' ..W } o. .o... .X.z l h f 3 w 0 , g , i h 6 k k f d h ' ....^ t s z @.*.@.+.+.z z Z m =.A D o.+.m x ) +.Y ) R R ) X.+.",
"+.+.+.+.+.X.' +.+.+.+.+.+.+.z z j l j d i H 2.+.j t f s w g h g ) ..o.' ~  .+.+.D O.( ( / ..+.+.+.+.o.' E V ! W L _ W ( W ' X...",
"+.+.+.+.+.+.o. .+.+.+.+.+.+.z z z l g D ] ' >.=.V k v Z k h k h Y ] _ Z ..*.#.W _ ] P B x ] +.+.+.+.+.o.U Y ! C X.$.Y ) ~ ..+.o.",
"+.+.+.+.+.X. .+.+.+.+.+.+.+.x z z z z *.w.:.,.X.} $.E <.M l l l J R R 3.8.7.P _ ] V M G O.^ ..X.+.+.+.C J m m v ! @.' ( ( X.o.+.",
"+.+.+.+.+.+.+.+.+.+.+.+.+.+.+.z z z z -.$.>.@.} +.( } J o.E ' Z P 1.0.q.W ! V W C P ` [ ]  .} o.+.+.m P B R J L ^ L X.}  ...X.+.",
"+.+.+.+.+.+.+.x m _ 3.+.=.+.+.+.+.z ;.Y X.} Y ;.C #.F M ~ ]  .P T ] 3.~ Y L v K ' Q ,.*.D C S ( +.+.+.x D L M P P C o.o.+.o.+.+.",
"+.+.+.+.+.+.J >.o.X.*.` P S x +.+.+.+.+.W N S P m J ) Y ~ ] ] Y P ( W I L ! 5.) ;...Y J (  .Q ~ [  .X.o.+.+.+.o...X.+.+.+.+.+.+.",
"+.+.+.+.+.x R } ;.L | B J c x +.+.+.+.+.B z x x _  ._ P Q [ X.} ^ ! E ..X.Y ' ' W n B ( ^ E R T ' X.} T [ +.+.X.X.+.+.+.+.+.+.+.",
"+.+.+.+.x ' ' n J V L b D x x +.+.+.]  ...) !  .W ^ ( ^ R ' ) E U P _ W ( ) E R W L A L ) ! ( ) ( o.+._ W o.+.o.o.+.+.+.+.+.+.+.",
"+.+.+.+.+.x b J D v n x x x x +.+.X.W W ] ' P ] W ^ E J P P Y I _ ^ W h k x n 8 q C D Y K ! P b C ( ~ +.P X. .+.+.+.+.+.+.+.+.+.",
"+.+.+.+.+.+.+.+.x x x x +.+.+.o.o.o. .W _ _ Y W W } ~ V P W ( g j f h d i 5 q < 9 , 0 q t j s f g P W ' .._ X.+.+.+.+.+.+.+.+.+.",
"+.+.+.+.+.+.+.+.+.+.+.+.+.o...4 4 9 9 , ~ W T D T T W L J P d j s y 2 3 6 - 2 q $ i a 9 h h h g g j l +.P P R +.+.+.+.+.+.+.+.+.",
"+.+.+.+.+.+.+.+.+.+.+.+.+.] , o : w r 5 < 5 E P ) Y I H n l j h a 6 % % 5 8 9 i q d w s r t i 8 r 7 1 P +.o.) } [ o.X.+.+.+.+.+.",
"+.+.+.+.+.+.+.+.+.+.+.o.o.r 5 2 4 6 : # 2 e P Z S Y Y Y C k j d 6 > 6 2 r u s i s j 9 6 9 o 6 < 8 q j X.( ( o.( +.+.+.+.+.+.+.+.",
"+.+.+.+.+.+.+.+.+.+.+.} r < < e e r 5 , 2 6 r C C P K D e k k h 8 2 r r d t r y 1 3 2 3 < 4 2 w . d K X.} J X.( +.o.+...+.+.+.+.",
"+.+.+.+.+.+.+.+.+.+.+.+.r r q 5 5 % X 4 q e r F N D v V z I k M M S A J g 3 + r 3 9 a $ q 9 q V C C ..L ( ..P Y } +.o.+.+.+.+.+.",
"+.+.+.+.+.+.; 2 q 8 r r 8 , 6 * , % # : 8 r r r k m m J S S H A V S A I V b S U m D M D T T J B W T } ..) ..W ^ X.X.] X.+.+.+.+.",
"+.+.+.+.r 5 = + - X 2 6 : = 2 < # : 2 & < q 8 r r r v E m L g j l l j z S D C C Z M v L T S L S ( E [ ..L +.U } +.+.+.+.+.+.+.+.",
"+.+.+.r 2 : ; = # ; * * 3 < < q 2 4 ; # #     e r r k H n l M n b b D c m C J D L m M D D J Y P ( } P ..X.+.P +...+.+.+.+.+.+.+.",
"+.+.r r 5 . % o $ & 5 : q 8 e 9 0 2 & % @ . < 2 r r m ( J S D Y G D 1.! &./ k N H V J P U ! J P U ] I ' o.} o.X.} +.+.+.+.+.+.+.",
"+.+.+.2 , , % o < : 9 q e 9 r r r 5 ; o   9 8 e r r ~ C C P D A C J W 1.0.V n H ~ P P R L ' h g h f ^ X.o.o.+.+.+.+.+.+.+.+.+.+.",
"+.+.6 $ - 6 % : 6 0 q q 2.7...{ _ n 6 9 6 3 : r R n D C ~ K D b Y R R ( L J l T W J C T P h f d h f j d o.+.+.* 8 : +.+.+.+.+.+.",
"+.+.+.8 5 % 6 q 9 q e.9./ ) D Y m C V z q r r Y Y m W ) x v M U U L Q M F ~ L W P W U ( j j a 2 # 9 o 9 1 2 2 5 3 6 4 8 +.+.+.+.",
"+.+.+.+.+.+.+.+.+.+.o.W  .*.D ) L D [ z z z r  .o.R E x n A P ^ W n z N P X.T ' / { E j k g j 1 y > 8 < 8 ; 9 2 - 8 , 9 +.+.+.+.",
"+.+.+.+.+.+.+.R #.;.7.r.o.+.R X.R X.X.M z z X.+.} o.I } V Y R J C C m g o.{  .X. .X.} j j p 2 h & e q > 8 3 5 < = > s p +.+.+.+.",
"+.+.+.+.+.+.+.[ ] ' <.%.} T ' J  .W N B z z +.+.} X.K  .R _ o.[  ...( X.+.o.o.+.+.} [ ( j j s a 2 @ 3 : 5 ; * 5 8 +.+.+.+.+.+.+.",
"+.+.+.+.+.+.+.P R e.B X.n Q L N } v D z +.+.+.+.+.o.} X._ +.+.+.+.+.o...o.+.+.+.+.o. .[ { o.o.o.+.o.+.+.+.+.+.+.+.+.+.+.+.+.+.+.",
"+.+.+.+.+.+.+.+.m m C ! x Z z m n x Z z +.+.+.+.+.o.X...+.} +.+.+.o...o.+.+.+.+.+.+.+.o...X.+.+.+.+.+.+.+.+.+.+.+.+.+.+.+.+.+.+.",
"+.+.+.+.+.+.+.+.+.+.+.z z z z z z z +.+.+.+.+.+.+.+.X.o.} +.+.+.+.+.+.+.+.+.+.+.+.+.+.X.X.+.+.+.+.+.+.+.+.+.+.+.+.+.+.+.+.+.+.+.",
"+.+.+.+.+.+.+.+.+.+.+.+.+.+.+.+.+.+.+.+.+.+.+.+.+.+.+.+.+.+.+.+.+.+.+.+.+.+.+.+.+.+.+.o.o.+.+.+.+.+.+.+.+.+.+.+.+.+.+.+.+.+.+.+."
};
