/* XPM */
static const char *sand_white[] = {
/* columns rows colors chars-per-pixel */
"64 64 20 1 ",
"  c #CDC4AF",
". c #CEC6B0",
"X c #CFC7B4",
"o c #CFC8B5",
"O c #D0C8B5",
"+ c #D3CCB7",
"@ c #D3CCB9",
"# c #D4CDBA",
"$ c #D5CEBC",
"% c #D8CFBE",
"& c #D7D0BF",
"* c #D8D1BE",
"= c #D8D3C1",
"- c #D8D4C2",
"; c #DAD7C6",
": c #DBD8C6",
"> c #DCD8C7",
", c #DBD8C8",
"< c #DDD8C8",
"1 c #DFDBCC",
/* pixels */
"1111111111111111111111111111111111111111111111111111111111111111",
"1111111111111111111111111111111111111111111111111111111111111111",
"111111111<<11111111111111111111111111111111111111111111111111111",
"111111<<<<><111111111<<1<<<<<11111111111111111111111111111111111",
"111<<<<;><;<<11111<<<<:<::<>:<<><><<<<<<111<<<1:1111111111111111",
"111<;:<:;::<<1111:<;;>::;;;;:;;;>;;>;<>><>:<:;<;;111111111111111",
"111<><<;;;::<111;<>::<;:;;:;:;*=;--;;;::;:;:::::<<11111111111111",
"111<<<<<<:<<<111:::>:>::;::;>:--;;--;:;;;::::;;;:;11111111111111",
"111<<<<<<<<<<111<1<>:><<><>>>;:>;;:;>>;:::::><:>;;11111<1<111111",
"11<<<:<<<<1111<<<::;>><;;<:;;==;;;::<<<<<><>>;*-&&><<<<;<$;<1111",
"1<:<<<<111<<;-;==*==$*=$$&$$@#=$$=-*:<<<<<>;;#O$*O$=*==O-$$:<111",
"1<::<<><;;$$@#$#$@##OOOOXX.oo.#O#==#$=$-<1$*;$#$$O$$$$*###**;<11",
"1<<<:-;=@@..oO$#$$##oXooX O#@oo.OOO.@O*$=<$*;*$$$#$$##$OO@##:<11",
"1<<<:$*$o.Oo##$$$$&&$#@$#@OO#OOXO.OOX###$:*-:;-==;;==$###$*;<<11",
"1<<;;***@@O##$$$#*&$=$$*=*&$#$#$$@OO@XO#$**;=<><<><>;:;=-=;-:<11",
";:;;;;;-&$$$$&---=-&===-;=;;-&$;;=$o@$#;=*;;-111111<<<<>>:<<<111",
";:<;;---==&=&=;:,>;;;;;;;;;;:;;;-$=%#;;;;:<<<11111111<<<<<<<<111",
"<<:>:;;-=-;;;;>:<<>::;:::><<<>>--;;-;;,<<<<>><<<1111111111111111",
"<<<<<>:;-;;-;;<><<<<<<<<<<<<<<<:;===-;<1<<>;:<:><<<1111111111111",
"<<<<<<>:;;;;;;:><<<<<<<<111111<<,:;;:<<1<;;::;;:<><1111111111111",
"11111<<<<<<<<<><<<11111111111111<<<<<<<1<>>:;-=;><<1111111111111",
"111111<<<;<<<<><<<1111111111111111111111<<<<<;;::><<111111111111",
"111111:::>>>:<;><:<111<<<<11111111111111<<<<<<<<<<<<111111111111",
"111111;;<;;;;:;;:::<11<<<:>>><11111111111<<<<<<><<>11<<<<<111111",
"111111<<;::;::;;::::1<<<:::<><111111111111<<<:<::<;>:;;:;<111111",
"111111<<<:<::::<:<<<1<<:;;;:><11111111111<><<:>;;;;::;;;;:111111",
"1111111<<<<><<<<<<<<1<<<:>::><<1111111111<:>>::;;:;:-;;;;;<11111",
"111111111<<<<<<<<1<<1<<<<<<<<<11111111111<<<>:;::;<<;;;;;;>11111",
"111111111111111111111111<<<<<111111111111<<<<<<<<<<<>:;:::<11111",
"1111111<<<<<111111111111111111111111111111<<<<<<<<<<<<>><<<11111",
"1111<<<<:<<;<1111111111<<<<><<;<<;1111111111111111111<<<<<<11111",
"1111<;:<:;;:<<1111111<<>;-<;;;--;;:1<1<<<<><<<<11111111111111111",
"1111<><<;;;::<1111<<-=#$==-==;=$===;=:>-:;=;<:;<<<:<<<1111111111",
"1111<<<<<>:<<<<<<-;o#$@#=$$&&$$#$$@$$$-#$*$&=-=;;<-;:;<;<1111111",
"1111<<<<<<<<<<;;#@@.O@#@$#@@#o@#@O@@@O=@O$Oo#$=$=:==;$=;$;111111",
"11111<<:<<<<=**$OO#$@$$$$#@@@@#@XooX##@$$@####@@#*=$####$;>11111",
"1111<:<;;<;>*#$#O@$==-;;;;=$$@@@@###=#$@#$#@@@O@@@$OoO.O#+$:1111",
"1111<<>;<;::#&**@@@#&;;;;=;&*#$#$&$=-=-$$$#@#@O@@#**#$###*=;1111",
"1111<::::;;*$*$=$$$*%=;;;;===;;=-=*;;;;=-&**$$*$&===**=;=:><1111",
"1111<<<<<:>;;;;::;==$$*;;;=;;><<><<><<<:::;:;;;;-;;;:;;>>><<1111",
"11111<<<<<<<<<<<<:=;***:;;;;:<<>>11<1<<>:<<><:><;<<:<<><<<<;<111",
"1111111111<<<<<11>;;;;;;::<<:::><<11<<<::<>:<:;<;:>;<>:<<;<:;<11",
"11111111111111111<<<:::><<<::;:<;;>1<;>:;::;:::>;;:;::;;::>:<<<1",
"111111<<<:11111111<<<<<<><:;><:><><1<><:;:;;;;;;;;=;;-;;;;;::;<1",
"111111<:<;;111111111111<;>:;;::<<<<1<<<<<>::::;;-;*-;;:>:::><<<1",
"<<<1><::::<<11111111111<><::::><<<<1<<1<<<<<<<<::;=;;;;:<<<<<<<1",
"<<:-:<<;;:;:11111111111<<<<<<<<<11111<<<<<<<<<<<;;;;;>;><<<<1<11",
"<:>;;:>:><<<11111111111<<<<<<<<111111111111111<<<::>><<<11111111",
";::;><>>><<<111111111111<<<<<<1111111111111<<<<;<<<<<<<<11111111",
"<<<<<<<<<1111111<<>;<11><:><<1111111111111<<<;:;;<<<<<;<11111111",
"<<<<<11111111<<>;-;#*>;;>;=;;<:11111111111<::>::<<<:::><<1111111",
"111111111<<<:=*;=$&O$=o$&==$$--<1111111111<::;:::;<:;<:;;<111111",
"111111<<;=<&&$$*$@$#@$@@@@$@O#$=;;:;;<:<11<<<:::<<1<<><<:<111111",
"11111:;--#&&@$##@@@@##$@@@@@Xo@@$---$$=::;>;><<<<<<<<<<<<<111111",
"1111<=#=$@$$#$#$#$$$&$&####@@oO#@$$$$$@OOo*-;<1<1111<<<<<<111111",
"111<*;*#$@#$@#@$#$$$&==&=$$$oo@@@#$$&$OX..@&$;111111<<<111111111",
"111:<;*-%%#$@@@#@@##$&&&$&$@@O@@$#$=-$###oO#$=111<<;><;<11111111",
"111<*=**$==&$&=&==$$&&&&===$##$#$$*=====$$$$&=<11:<:;<;><1111111",
"111<<;;;;-;-;;<;;;--;;;;;;:;;-==;;;;:;;;--==&;>1<<<::;:>>1111111",
"1111<<<<<<>::>><>:;;><><<<<1<<,,<<<<<<,::;;;;:<1<:::;;>:>1111111",
"111111111<<<><<<<<<<<<<<<1111111111111<<<<<<><11<<<<<><<<1111111",
"1111111111<<<<11<<<<1111111111111111111<<<<<<1111<<<<<<<<1111111",
"1111111111111111111111111111111111111111111111111111111111111111",
"1111111111111111111111111111111111111111111111111111111111111111"
};
