/* XPM */
static const char *sand_orange[] = {
/* columns rows colors chars-per-pixel */
"64 64 59 1 ",
"  c #EFB269",
". c #EFB76F",
"X c #F0B36A",
"o c #F0B36C",
"O c #F0B76C",
"+ c #F2B86C",
"@ c #EFB571",
"# c #EFB973",
"$ c #EFBC73",
"% c #EEB974",
"& c #EEBC74",
"* c #EFBE79",
"= c #EEBF7C",
"- c #F1B671",
"; c #F0B972",
": c #F1BC71",
"> c #F2BB74",
", c #F1BC77",
"< c #F2BD78",
"1 c #F1BF7D",
"2 c #EFC179",
"3 c #EFC37D",
"4 c #EFC67F",
"5 c #F3C077",
"6 c #F2C17A",
"7 c #F4C27A",
"8 c #F1C17D",
"9 c #F4C37C",
"0 c #F1C57F",
"q c #EFC583",
"w c #EFC883",
"e c #EFC885",
"r c #EFCA89",
"t c #F1C381",
"y c #F2C782",
"u c #F4C480",
"i c #F0C786",
"p c #F4C786",
"a c #F1C983",
"s c #F4C882",
"d c #F1CA87",
"f c #F4C986",
"g c #F3CC87",
"h c #F3C789",
"j c #F3CB8B",
"k c #F4CA88",
"l c #F3CD8B",
"z c #F5CC8B",
"x c #F3CB8D",
"c c #F3CE8F",
"v c #F4CC8C",
"b c #F3D18F",
"n c #F5D08F",
"m c #F3CF91",
"M c #F4CF90",
"N c #F3D293",
"B c #F5D391",
"V c #F5D493",
"C c #F6D594",
/* pixels */
"CCCCCCCCCCCCCCCCCCCCCCCCCCCCCCCCCCCCCCCCCCCCCCCCCCCCCCCCCCCCCCCC",
"CCCCCCCCCCCCCCCCCCCCCCCCCCCCCCCCCCCCCCCCCCCCCCCCCCCCCCCCCCCCCCCC",
"CCCCCCCCCVVCCCCCCCCCCCCCCCCCCCCCCCCCCCCCCCCCCCCCCCCCCCCCCCCCCCCC",
"CCCCCCBnBnMVCCCCCCCCCVBCVVVBBCCCCCCCCCCCCCCCCCCCCCCCCCCCCCCCCCCC",
"CCCVnnnvnnvnVCCCCCVBBnvBvvnnvBnnBMBVBVBBCCCVnBCvCCCCCCCCCCCCCCCC",
"CCCBvvnvvzvnBCCCCvnlznvvvjvvzvzjMkvnvnnMnMvnvvVvvCCCCCCCCCCCCCCC",
"CCCBMnnvkkvvnCCCznMvznvzlvvjzksdzjfvkvvzvzzvvnnznBCCCCCCCCCCCCCC",
"CCCVBBnnnvBBBCCCvvvnnnvvvvvvMvjdlkfjzzzzzzvvnzlvvvCCCCCCCCCCCCCC",
"CCCVBBVBBBVVVCCCBCnMvMnnnnBBMvvMvcvjMMvvvvvvMnvMzvCCCCCVCnCCCCCC",
"CCBnncBVVVCCCCVBMcccMMBlcBclcidllccvnBnBBnnBMcydyyMBnBBzB8kBCCCC",
"CnvnnnnCCCNBcjcdiydityi88y08,6i8tiduvBBVBBBjz6;1y>tpudi;p89vVCCC",
"CnvvnnBBkv81,69<8,,<;-;;;;O;;X<;,ii69d9fnC9sz8,98>988ts56<yszBCC",
"CBBnvfkd>>oO;;1<01<6;-;-; :6,#-+>>;X,;ytdn8sku9t86986,t;:,,6vBCC",
"CVVVc1y8;O>$<688t8yy86*88*,,<;;;;o;;-6661vyjvjpdpjkdit7668ucBVCC",
"CVnzcyyy>,;<88188yytit8yiyy8881005;;,O;69yuldBMBBMBMccjdddjjvVCC",
"vvvzljzdy8888ydddidyidddldjxdy0lci8:>t6jiujkfCCCCCCVBBBMMvBnBCCC",
"vvnzjpgjiiydydcNNMckljxjjjjcbjccdtit8jhlvvnnnCCCCCCCCVVVBBVVVCCC",
"BBvnvlljdgjlkjMvBnMvvvvvvnnnBBBddljdxcNBVVBMMBnBCCCCCCCCCCCCCCCC",
"nBBnBMvjkkjdzznnBVBBBnnnBBVBNBBvcdddjlBCBnMvvnvMBnBCCCCCCCCCCCCC",
"VVVBBBBcccjzjzvMBVVVVVVVCCCCCCVBNbjvvnVCnvvzzzlvnnnCCCCCCCCCCCCC",
"CCCCCVVBBBnnBnnnnVCCCCCCCCCCCCCCVNBBNVVCBnMvvfdjMnnCCCCCCCCCCCCC",
"CCCCCCVVNjVVVNMBNnCCCCCCCCCCCCCCCCCCCCCCBBnnnckvvnnBCCCCCCCCCCCC",
"CCCCCCzvvMMMvnvBnvBCCCVVnnCCCCCCCCCCCCCCVBVBBBBBnnnBCCCCCCCCCCCC",
"CCCCCCvvBzkkzvzzvvvMCCnnnzMnMBCCCCCCCCCCCVVVVNNMNBMCCBBBnBCCCCCC",
"CCCCCCBVvzvkvvvvzvvzCBBnzzvnnBCCCCCCCCCCCCBBBvBzvnvMnzcvvnCCCCCC",
"CCCCCCnBnvnvvvnnvnBnCVnvzkkvMBCCCCCCCCCCCVMnnvnlzvkzzjzvlvCCCCCC",
"CCCCCCCVVBBMnnnVBBVBCVBnvMvvMnVCCCCCCCCCCnvMnvvzvzzzjzzkkvBCCCCC",
"CCCCCCCCCVVVBVVVVVVVCVVBBBBnBVCCCCCCCCCCCBnnMvvvvvnnljjkzlBCCCCC",
"CCCCCCCCCCCCCCCCCCCCCCCCVVVVVCCCCCCCCCCCCVVBnnnnnBnBMvccvcnCCCCC",
"CCCCCCCBnVnnCCCCCCCCCCCCCCCCCCCCCCCCCCCCCCVVVBVVVVVVNVBBBBVCCCCC",
"CCCCVnnnvnnvnCCCCCCCCCCVBBVMBBlVnjCCCCCCCCCCCCCCCCCCCVVVVVVCCCCC",
"CCCCBvvnvvvvnBCCCCCCCBnMcjBllcjlcccCnCVnVBMBVBBCCCCCCCCCCCCCCCCC",
"CCCCBMnnvkzvvnCCCCVBdd<yrdjrdlitiidjicMdvkdlnvjBVBvVBBCCCCCCCCCC",
"CCCCVBBnnMvnnBBBBdr%60,6i80yyt868t*88tj<8y1addilcndvvlBjnCCCCCCC",
"CCCCVBBBBBBBBBvz8*,.;*8201**<:*<*,>>*-i,;1>;<1i0ividl8ijtlCCCCCC",
"CCCCCBVzBVBNduut;;<8*880t8****<>#;:-<<*81286<<>,8yi166,<tkMCCCCC",
"CCCCVvVvvVknu597>*8iidjjxci84&***836i81*<18,,,;,,,0;;;O-,,tzCCCC",
"CCCCnBnvnvvz7yss,,><yljccdlay88<0ytiddd8t83,<,;**6uy,t55,sdvCCCC",
"CCCCBvvvvlku9u8dt88ytdljcliddccijdylcjcddyyy80u0yiiduudzdvMnCCCC",
"CCCCBBnBBvMzkkkzvjdi80yjlldkvBNBMBnMBnnzzzzvczckfkkjzccBMBBBCCCC",
"CCCCCVVVVNBBnnnnBvikuuyzjcvcvVNMMCCVCVBMvBBBVcBBcBBvBBBBBNNcBCCC",
"CCCCCCCCCCVVVVVCCMllzllcccBBnnnMnBCCBnnvvnMvBnvVkvMvnnvnnvnvvBCC",
"CCCCCCCCCCCCCCCCCVNBvccnBBBcckvnvzMCnvMvzzvvvzzMjzvzzzzvvvMvnBVC",
"CCCCCCVVBvCCCCCCCCVVBBVBMnzvMnvMnnnCBnnvvzvvkkvzjjdjkpzkvvvvvvBC",
"CCCCCCVvBvvCCCCCCCCCCCCnvMzzzvvnBBBCBBBnnnvvvvvljlyfzlvMvnvMnnVC",
"VnnCnnnnvvBBCCCCCCCCCCCBnnvvzvMnBBVCVBVBnBnBnnBvvzdlczkvnnBBBBVC",
"nnzfvnnkvvvvCCCCCCCCCCCBBBnnnnBBCCCCCVVVVVVVVVNBclzzzMcMVVVVCVCC",
"nvMlcvMvMnnBCCCCCCCCCCCVBVBBBBVCCCCCCCCCCCCCCCVBnvvMMBBBCCCCCCCC",
"vvvzMnMMMBVVCCCCCCCCCCCCVVVVVVCCCCCCCCCCCCCVVBBcBBBBBBBVCCCCCCCC",
"nnnnBVBBVCCCCCCCVNMkBCCMBvMBBCCCCCCCCCCCCCVnnvvvvVVVVNcBCCCCCCCC",
"VVVVVCCCCCCCCnnnldj6uMkjMcdjknzCCCCCCCCCCCnvvnvznVVvvvnnVCCCCCCC",
"CCCCCCCCCVVnviyziyy>8i;8ydit8fpnCCCCCCCCCCnvvvzznvBvvBvvzBCCCCCC",
"CCCCCCVBjdnyyt8yt*11*8****t*,<8dkzcljVvBCCVVnvvvMnVBBMnnvBCCCCCC",
"CCCCCvcdd8yy*t<<**>*<883*>2>@#,,8jdd0tdvbvncMBnBBBVnBVnVBVCCCCCC",
"CCCCBd<i8*0q88883y84yty383<*>:><,tty0y,>;-ydlnCVCVCCVVVBBVCCCCCC",
"CCCVuly68*8023=8<tqqyddyi4y8&&,2*88ty1;O+O*ytzCCCCCCVVnCCCCCCCCC",
"CCCvBlydtt38***1**81tyyyqyt*,,**88tdj88<1;:6ydCCCVVvnBvnCCCCCCCC",
"CCCBudyytidy8ydwdiqyyayydrd8680888yidddit18tyiBCCvBvznvMBCCCCCCC",
"CCCnBjcccrljccncxjjjlcclcxcccjddjcccbcjljjddelMCBBnzvvvMnCCCCCCC",
"CCCCBBBVBnMccMMnMvcvMBBBBBVCVNNNBBBBNBmbNcccjcBCVvvvvlMvnCCCCCCC",
"CCCCCCCCCVVBnnnBBBBBBBBBVCCCCCCCCCCCCCVnBBBBMVCCBBnnnnBBBCCCCCCC",
"CCCCCCCCCCVVBBCVVVVVCCCCCCCCCCCCCCCCCCCVVVBBBCCCCVVBVBVVVCCCCCCC",
"CCCCCCCCCCCCCCCCCCCCCCCCCCCCCCCCCCCCCCCCCCVVCCCCCCCCCCCCCCCCCCCC",
"CCCCCCCCCCCCCCCCCCCCCCCCCCCCCCCCCCCCCCCCCCVVCCCCCCCCCCCCCCCCCCCC"
};
