/* XPM */
static const char *savannah[] = {
/* columns rows colors chars-per-pixel */
"64 64 3 1 ",
"  c #B97A57",
". c #BEB83A",
"X c #FFF200",
/* pixels */
"................................................................",
"................................................................",
"................................................................",
"................................................................",
"................................................................",
"................................................................",
"................................................................",
"................................................................",
"................................................................",
"................................... ............................",
"...............XX.................    .............XX...........",
"............XXXXXXX..............     ............XXXXX.........",
"...........XXXXXXXX...............    ...........XXXXXX.........",
"..........XXXXXXXXX...............................XXXXX.........",
"...........XXXXXX...............................................",
"................................................................",
"................................................................",
"................................................................",
"................................................................",
"................................................................",
"................................................................",
"................................................................",
"................................................................",
"................................................................",
"................................................................",
"................................................................",
"................................................................",
"................................................................",
"...........................X....................................",
"..........................XXXX..................................",
".........................XXXXX..................................",
"..........................XXXX..................................",
"..........  ....................................................",
".........     ..................................................",
"........      ..................................................",
".......       ..................................................",
"........    ....................................................",
"................................................................",
"................................................................",
"................................................................",
"................................................................",
".......................................XXXX.....................",
"......................................XXXXXXX...................",
".....................................XXXXXXXX...................",
"......................................XXXXXXX...................",
"................................................................",
"................................................................",
"................................................................",
"............................................  ..................",
"...........................................     ................",
"..........................................      ................",
"........X..................................     ................",
".......XXXX.....................................................",
"......XXXXX.....................................................",
".......XXXX.....................................................",
"...............................  ...............................",
"..............................    ..............................",
"..............................    ..............................",
"...............................  ...............................",
"................................................................",
"................................................................",
"................................................................",
"................................................................",
"................................................................"
};
