/* XPM */
static const char *shallowwater[] = {
/* columns rows colors chars-per-pixel */
"64 64 82 1 ",
"  c #7DBBD7",
". c #7EBCD8",
"X c #80BFD9",
"o c #85C3DC",
"O c #8AC5DE",
"+ c #8AC8DF",
"@ c #91C6DD",
"# c #94C9DF",
"$ c #8DCCE2",
"% c #93CDE2",
"& c #9BCEE2",
"* c #83D9EC",
"= c #8DD9EB",
"- c #93D2E6",
"; c #9CD2E5",
": c #97D7E9",
"> c #9AD7E9",
", c #94D9EA",
"< c #99D9EA",
"1 c #A1CFE3",
"2 c #A3D3E5",
"3 c #AAD5E6",
"4 c #A7D8E7",
"5 c #AED8E7",
"6 c #A4D7E8",
"7 c #ADD7E8",
"8 c #A3DCEC",
"9 c #AADEEC",
"0 c #B0D5E7",
"q c #B1D9E5",
"w c #B3DCEA",
"e c #BBDEEB",
"r c #B8DFEC",
"t c #BBDFEC",
"y c #A2E0EF",
"u c #ACE0ED",
"i c #ADE0ED",
"p c #B1E1EE",
"a c #B6E3EF",
"s c #B7E3EF",
"d c #B8E1ED",
"f c #BDE1ED",
"g c #B9E4EF",
"h c #BBE4EF",
"j c #A5E1F0",
"k c #A8E1F0",
"l c #B8E3F0",
"z c #BAE4F0",
"x c #BDE5F1",
"c c #C2DEEA",
"v c #C0DFEC",
"b c #C1E2EE",
"n c #C0E3EF",
"m c #CBE5EF",
"M c #C2E6F1",
"N c #CBE7F0",
"B c #C3E8F2",
"V c #C6E8F2",
"C c #CBEAF3",
"Z c #CDEBF3",
"A c #CEECF3",
"S c #CCEAF4",
"D c #CFECF4",
"F c #D0E5F0",
"G c #D3EBF0",
"H c #D1ECF4",
"J c #D3EDF4",
"K c #D3EEF5",
"L c #D5EEF5",
"P c #D6EEF4",
"I c #D7EFF5",
"U c #D9EEF5",
"Y c #D7F0F6",
"T c #DAF0F6",
"R c #DCF2F6",
"E c #E1F2F7",
"W c #E2F3F7",
"Q c #E3F3F8",
"! c #E4F4F8",
"~ c #E9F5F9",
"^ c #EBF6F9",
"/ c #EFF8FA",
/* pixels */
"<<<<<<<<<<<<<<<<<<<<<<<<<<<<<<<<<<<<<<<<<<<<<<<<<<<<<<<<<<<<<<<<",
"<<<<<<<<<<<<<<<<<<<<<<<<<<<<<<<<<<<<<<<<<<<<<<<<<<<<<<<<<<<<<<<<",
"<<<<<<<<<<<<<<<<<<<<<<<<<<<<<<<<<<<<<<<<<<<<<<<<<<<<<<<<<<<<<<<<",
"<<<<<<<<<<<<<<<<,,,,,,,,,,,,,,,,<<<<<<<<<<<<<<<<<<<<<<<<<<8<<<<<",
"<<<<<<<<<<<<<<<,================<<<<<<<<<<<<<<<<<<<88p99899988<<",
"<<<<<<<<<<<<<<<<================<<<<<<<<<<<<<<<<<<889988899988<<",
"<<<<<<<<<<<<<<<<,,,<,<,<,,,<,<,,<<<<<<<<<<<<<<<<<<<<<<,,,<<<<<<<",
"<<<<<<<<<<<998papaapixV89<<<<<<<<<<<<<<<<<<<<<9<<8<<<<=====,<<<<",
"<<<<<<<9aVPHSH!PPPPAHQ!CBxgzp88889pxi89agaVaVCVipza989,,,==,<<<<",
"<<<<88aCHPGPPE~EPRTHPRTZCRPPClxVAHPDBVHYPDPZGNfvffw446--:<,<<<<<",
"<<<<84wrrqqdarrwwbf5w949CTYCdwbURUHfw50w522232&1&;;%-%$$-<<<<<<<",
"<<<<>-%%%&&;-%$$$-%%%%%;5w5;&%4ww42&o..ooooo+ooo+------%-<<<<<<<",
"<<<<::-$$$$%--$$$++o++ooo++ooo+$+ooooooo$$+$$$-%-::::::::<<<<<<<",
"<<<<<<<:--:::::-$$$$$$oooo++$$$$$$$$$$--::<<<<<<<<<<<<<<<<<<<<<<",
"<<<<<<<<<<<<<<<<:---::-$$$-::::::::<<<<<<<<<<<<<<<<<<<<<<<<<<<<<",
"<<<<<<<<<<<<<<<<<<<<<<<<:<<<<<<<<<<<<<<<<<<<<<<<<<<<<<<<<<<<<<<<",
"<<<<<<<<<<<<<<<<<<<<<<<<<<<<<<<<<<<<<<<<89888888888<<<<<<<<<<<<<",
"<<<<<<<<<<<<<<<<<<<<<<<<<<<<<<<<<<<<<88889ipiiigapp988<<<<<<<<<<",
"<<<<<<<<<<<<<<<<<<<<<<<<<<<<<<<<<<<<<<8<8<898899i9i99i8888<<<<<<",
"<<<<<<<<<<<<<<<<<<<<<<<<<<<<<<<<<,,=======,<<<<<<<<<888888<<<<<<",
"<<<<<8<8899998<<<<<<<<<<<<<<<<<,<==****====<<<<<<,,,=,<<<<<<<<<<",
"<<<<iiiiizgzp988<<<<<<<<<<<<<,====****=====,<,========,<<<<<<<<<",
"<<89i9988988<<<8<<<,,<<<<<<<<=========,<<,============,<<<<<<<<<",
"<<88<<<,,====**=======<<<<<<<===,,,<<<<<<<,=====,,<<<<<<<<<<<<<<",
"<<<<<,====********====<<<<<<<<<<<<<<<<<<<<,=,,<<<<<<<<<<<<<<<<<<",
"<<<<<<====********=,,<<<<<<<<<<<<<<<<<<<<<<<<<<<<<<<<<<<<<<<<<<<",
"<<<<<<,<,<==,,,<,<<<<<<<<<<<<<<<<<<<<<<<<<<<<<<<<<<<<<<<<<<<<<<<",
"<<<<<<<<<<<<<<<<<<<<<<<<<<<<<8<888<<<<<<<<<<<<<<<<<<<<<<<<<<<<<<",
"<<<<<<<<<<<<<<<<<<<<<<<<pCxi9i9pxx8<8az88<<<<<<<<<<<<<8<<<<<<<<<",
"<<<<<<<<<<<<<<<<<<<<<pzCPTTHMZP!QCVHRRUHVz9889i8p99paz9<<<<<<<<<",
"<<<<<<<<<<<<<<<<<<<9CHPEEERHP~~!TVZUREQRHZHPR!QRTHPRCMi9i98<<<<<",
"<<<<<<<<<<<89zp989gCGmZPGGMrbcw54&wrfZZCCHGHGFmmewerwwwdMBai<<<<",
"<<<<<<889i9ixMzaw444224222&@@OXoo+%@%&&;;;&OXO+++++%;2;6649p<<<<",
"<<<<88ippw94444;;++$$+++ooX..XXoooXooooooo   Xo+oo+$$$$$$-<8<<<<",
"<<<889pw542;%%%$$$$$+$$$$ooo+$%o$$$+$$$$$$+o+$------::::--:<<<<<",
"<<<<<882;%-------:::<--:::--::<<--:::<<:<<<<<<<<<<<<<<<<<<<<<<<<",
"<<<<<<<<--:::<<<<<<<<<<<<<<<<<<<<<<<<<<<<<<<<<<<<<<<<<<<<<<<<<<<",
"<<<<<<<<<<<<<<<<<<<8<8<<8<8<<<<<<<<<<<<<<<<<<<<<<<<<<<<<<<<<<<<<",
"<<<<<<<<<<<<<<8<99998998999888<<<<<<<<<<<<<<<<<<<<<<<<<<<<<<<<<<",
"<<<<<<<<<<<88899aapp9i89898888<<<<<<<<<<<<<<<<<<<<<<<<<<<<<<<<<<",
"<<<<<<<<<<<<<<<88888<<=,=,,<,<<<<<<<<<<<<<<<<<<<<<<<<<<<<<<<<<<<",
"<<<<<<<<<<<<<,========****====<<<<<<<<<<<<<888848888<<<<<<<<<<<<",
"<<<<<<<<<<<<<<========****====<<<<<<<<8889ii9ipaii9i9p9888<<<<<<",
"<<<<<<<<<<<<<<,<,<,<,<,,==,<,<<<<<<<<<999998889988889999i99<<<<<",
"<<<<<<<<<<<<<<<<<<<<<<<<<<<<<<<<<<<<<<88<<,,===,<<,,,,<<888<<<<<",
"<<<<<<<<<<<8899999999888<<<<<<<<<<<<<<<<<=======,<,=====,<<<<<<<",
"<<<<<<<89iadaaadgppaaai9i98<<<<<<<<<<<<<<,,=====,<,=====,<<<<<<<",
"<<<<<<<pMHPUPHPRURPUHPHHPdp999i99999888<<<<<<<<<<<<<,,,,<<<<<<<<",
"<<<<<9MTTUZNZU~/~!!!EEE!!!RTVZVVMgggapi988888898<<8<<<<<<<<<<<<<",
"<<<<8AETb5&;wPERNHRUPZPR~~~~RRPRPPPDHZHAMVaaMxxzpp9<<<<<<<<<<<<<",
"<889PTZ4&#@#2wq2;wBBCffbmURRRHHPHZPREE!TZBzgff44498<<<<<<<<<<<<<",
"<i9gCd;+@OooO+oo++-47&&&2wVVbw5752dCNbw542422;$$-:<<<<<<<<<<<<<<",
"<8<>-$$$+oooo+ooXo+oooooo%42&@+@&%;2;+o+%-%-%$$$-:<<<<<<<<<<<<<<",
"<<<:-----:-$%$$ooo$+$oooo$$oooooo$$$$$+$-%---::::<<888ipp9p999<<",
"<<<<<::<<<<<:<<:$%-----$$%--$$$$--::::::<<<<<<<<<<99ppazzzapp9<<",
"<<<<<<<<<<<<<<<<<<<<<<<::::<<<<<<<<<<<<<<<<<<<<<<<988888998999<<",
"<<<<<<<<<<<<<<<<<<<<<<<<<<<<<<<<<<<<<<<<<<<<<<<<<<<<<<<<<<<888<<",
"<<<<<<<<<<888888<<<<<<<<<<<<<<<<<<<<<<<<<<<<<<<<<<<<<<<<<<<<<<<<",
"<<<<<<<<88888898i8<<<<<<<<<<<<<<<<<<<<<88iw98888<<8<<<<<<<<<<<<<",
"<<,<kj<<<8<<<<<8iai8888888<<<<<<<<888ipzdzx988i8888<<<<<<<<<<<<<",
"<<<<y<<<<<<<,,<<<99888888<<<<<<<<<9iippp88<,<<<<<<<<<<<<<<<<<<<<",
"<<<<<,<<<,,,,=,=,<<<<<<<<<<<<<<<<<888<<<<========<<<<<<<<<<<<<<<",
"<<<<<<<<<<<<<<<,<<<<<<<<<<<<<<<<<<<<<<<<<,=,,,,,<<<<<<<<<<<<<<<<",
"<<<<<<<<<<<<<<<<<<<<<<<<<<<<<<<<<<<<<<<<<<<<<<<<<<<<<<<<<<<<<<<<"
};
