/* XPM */
static const char *swamp_grass_mar[] = {
/* columns rows colors chars-per-pixel */
"64 64 204 2 ",
"   c #3D752E",
".  c #3E7731",
"X  c #3D7833",
"o  c #40762F",
"O  c #42792F",
"+  c #487B2F",
"@  c #457731",
"#  c #457B32",
"$  c #4B7D32",
"%  c #467F38",
"&  c #527D33",
"*  c #597E34",
"=  c #517E38",
"-  c #5A7E38",
";  c #617735",
":  c #6E7737",
">  c #627E35",
",  c #6A7D36",
"<  c #617738",
"1  c #657E3A",
"2  c #6B7E38",
"3  c #707D36",
"4  c #777B39",
"5  c #7A7F39",
"6  c #847E3C",
"7  c #8A7E3C",
"8  c #4D8235",
"9  c #46823A",
"0  c #4D853A",
"q  c #4F8A3D",
"w  c #538434",
"e  c #5B8335",
"r  c #568937",
"t  c #5C8A35",
"y  c #52853A",
"u  c #5C853A",
"i  c #548A3B",
"p  c #5C8B3B",
"a  c #5E913C",
"s  c #628435",
"d  c #6B8335",
"f  c #648B35",
"g  c #6C8B35",
"h  c #64843B",
"j  c #6D843B",
"k  c #638C3C",
"l  c #6B8C3A",
"z  c #738536",
"x  c #748C36",
"c  c #7B8C36",
"v  c #72853A",
"b  c #7D843B",
"n  c #748D3B",
"m  c #7C8C3B",
"M  c #649036",
"N  c #6A9236",
"B  c #64933D",
"V  c #6C933B",
"C  c #64983D",
"Z  c #6B993C",
"A  c #739336",
"S  c #7C9436",
"D  c #7A9C36",
"F  c #74933B",
"G  c #7C943C",
"H  c #759A3C",
"J  c #7B9B3C",
"K  c #76A13E",
"L  c #7CA23D",
"P  c #548440",
"I  c #5B8442",
"U  c #548D41",
"Y  c #5C8B43",
"T  c #548B49",
"R  c #549042",
"E  c #5C9243",
"W  c #559249",
"Q  c #59904D",
"!  c #5D994A",
"~  c #5F9B52",
"^  c #658643",
"/  c #6A8642",
"(  c #638D43",
")  c #6C8C43",
"_  c #668748",
"`  c #6C8D4A",
"'  c #768040",
"]  c #7D8642",
"[  c #738D43",
"{  c #7B8D43",
"}  c #758C49",
"|  c #7E8F4B",
" . c #649444",
".. c #6B9343",
"X. c #649A44",
"o. c #6C9B44",
"O. c #64934B",
"+. c #6C944B",
"@. c #659B4B",
"#. c #6B9B4B",
"$. c #739443",
"%. c #7B9443",
"&. c #749B44",
"*. c #7B9C44",
"=. c #74944B",
"-. c #7C934B",
";. c #749B4B",
":. c #7B9C4A",
">. c #6C9353",
",. c #659C51",
"<. c #6A9A52",
"1. c #659B59",
"2. c #6C9C5B",
"3. c #739451",
"4. c #7A9550",
"5. c #739D52",
"6. c #7C9B50",
"7. c #759C5A",
"8. c #6EA144",
"9. c #64A04E",
"0. c #6CA34C",
"q. c #74A345",
"w. c #7BA344",
"e. c #76AB46",
"r. c #7CA945",
"t. c #74A44B",
"y. c #7BA44B",
"u. c #75AA4D",
"i. c #7AAB4B",
"p. c #65A253",
"a. c #6CA355",
"s. c #6DA956",
"d. c #6BA45C",
"f. c #73A352",
"g. c #7BA550",
"h. c #73AA53",
"j. c #7AAB51",
"k. c #72A25C",
"l. c #72AC58",
"z. c #74B058",
"x. c #66A261",
"c. c #6AA360",
"v. c #838E37",
"b. c #83853B",
"n. c #8C843C",
"m. c #838C3B",
"M. c #8B8C3A",
"N. c #908C3A",
"B. c #849437",
"V. c #8A9637",
"C. c #849B37",
"Z. c #8B9D37",
"A. c #84943B",
"S. c #8C933B",
"D. c #849B3B",
"F. c #8B9B3B",
"G. c #90913A",
"H. c #919539",
"J. c #919B39",
"K. c #84A035",
"L. c #87A03A",
"P. c #80A33F",
"I. c #84A23C",
"U. c #84A03F",
"Y. c #88A038",
"T. c #8FA23B",
"R. c #89A03F",
"E. c #8DA13E",
"W. c #88A43C",
"Q. c #89A93F",
"!. c #92A23A",
"~. c #94A039",
"^. c #91A93D",
"/. c #838742",
"(. c #838F40",
"). c #838845",
"_. c #888A40",
"`. c #898C40",
"'. c #898C41",
"]. c #848C48",
"[. c #839343",
"{. c #829740",
"}. c #869244",
"|. c #889340",
" X c #879940",
".X c #839F40",
"XX c #879E41",
"oX c #839B44",
"OX c #8C9941",
"+X c #889B44",
"@X c #839349",
"#X c #819D49",
"$X c #839D4A",
"%X c #819F4C",
"&X c #83A343",
"*X c #86A141",
"=X c #89A342",
"-X c #88A545",
";X c #84A945",
":X c #8BAB42",
">X c #85A349",
",X c #82A449",
"<X c #82AA4A",
"1X c #81B14D",
/* pixels */
"$XF.v.B.J.F.S.S.Z.S.V.C.B.J.~.J.N.M.F.J N S Y.F.m.(.%.%.j 2 d 4 8 *.;.k.d.x.1.Y j c n.n.b.M.M.B.&.<.;.*.A.A S x d M.M.z g l *.6.",
"+XJ.V.v.G.H.G.V.C.F.S F H F.T.S.M.S.A.D.C.S.J.F.S.V.m d h { m b -  .<.1.d.c.2.=.{ m j z v.S.S.S.*.#.f.*. XJ F A V.H.G.v.B.m =X>X",
"}.V.x x V.J.C.C.Z.F.D.W.P.*.{.D. XG A.S.S.J.J.C.g s s d n $.F z 1 +.O.Y +.5.;...H G m b.v.x c v.$.&.f.g.J H V F S.H.M.n.n.M.E.-X",
"].b e G G S D A.S.J.D.*X:...%.N .XXXF.F.D.S.B.g e d n F %.F l j h ..( ( $.$.V F F D V.S.F.A.A.b ) &.5.;.&.H V D.S.S.n.n.M.M.OX%X",
").5 s %.D D A.`.M.Z.D.R.-.%.%.&.V W.L.G J J G F n n %.%.H F n s e ....) F F l F H U.D.F.E.*X*.{ $.r.f.#.Z Z V E.M.V.M.n.`.}.$X7.",
"|.6 b.G D L.{.}.S.D.D.oX$XXX:.w.V H D N f H J n f ..$.G G G n s f k ....F n [ F *.&X&X*X&Xw.t.<.5.u.h.0.Z w t Y.F.M.M.S.-.y.<Xg.",
"`.b.M.S.L.D.A.}.A.F H $X,Xi.i.Z 8 t V V F D.D.%.$.+.[ G A.H l A F F $.$.{ [ [ %.*.&X&X&Xw.i.i.d.a.p.a.@.X.Z   G J.F.S.!.,X#.i.6.",
"v.V.H.M.Y.Z.A.n %.e f w.w.8.e.i % $ f t J *.oX-.+.=.j A.G l F g j F $.{ m ) ( $.*..XoXH w.i.0.d.0.0.0.0.0.q.w N F.F.S.-X<Xt.h.| ",
"c V.B.S.Z.G.m F H t p w.r.8.i.t.@.% w k &X*.$...Y ) v v F G F f e ) *.$.l N V k ) F n G V o.t.u.q.q.q.s.! C   w D.B.A.,X<X<Xg.%.",
"c d V.V.B.v.c %.$. .w.t.q.q.l.i.0.0 8 .X$.$...( ( u > v {. Xm.c l u p Z H J S F l h k n F ;.r.w.w.w.q.t.i.8.# 8 &XS.}.y.;X;Xr.H ",
"b.c x b.z x S D.*.;.w.o.i.u.h.X.i y p *.*.*.&.( u u j n {.*.[.%.&.&.Z B B &.G H F k l l l V H w.L P.&Xr.8.@.i Z w.$XoX,X<Xr.q.) ",
"n.n.b.b.x g x A *X-.&Xw.i.i.t.C y i &.&.&.y. .p ..;.*.D..Xw.*.q.u.f.q.E k k j G &.$.F n x F H D H D D.w.i 9 8 B B t.r.r.q.r.f.) ",
"n.N.n.b.z S G n F { {.w.i.i.y.q.8 # k $...+.B ..;.,X=X.Xy.<X<Xh.u.q.0. .&.%.j k / [ *.m F G D.*.L U.Y.&X5.%   B  .f.y.&X&Xw. .%.",
"S.H.b.c v.S J H %.$.%.:.i.u.t.Z a p p [ k ..&.&.$.$.D.*.#.C X.z.e.e.u.;.*.m.b [ / ) H A.B.A.A.%.*.P.R.&X*.e   r  .r.w.&X-XoX*.R.",
"S.M.x V.F.S N Z w.*.&Xy.h. .k $ 8 r F F l V ....;.$.f ..t.8 X.@.u.i.y.=.].b._.| $...%.D.C.{.[.%.$.J U.D.J l   8 V ;XL &X&X$XP.U.",
"m c B.S.F.J J w.t.*.w.q.t.;.V # $ V k l %.&.$.$.+.;.t y # # q U E l.y.%.)./.{ =.=.&.J D.D.%.%.G { G H A F f w p V w.&.&.o.;.X.H ",
"d d d z n %.J &X*.J H X.o.*.F f H F p u {.oX*.;.+.o.# 0 % @.0.p.! @...@X`.}.=.5.y.:.D.A.v.) k j j G F.F.C.+ o $ $ *.*.&.X.,.f.J ",
"j m b.b.] F F F A.G H &.&.F l N F A s s M.XXw.t.#.y #.i % # % 9 9 O.:.|.S.].6.t.:.;.D.A.n ..{ m m n B.V.D.N   w H G D.J X.,.k.&.",
"(.A.A.M._.A.B.b.b m J H ..M Z H A x d d b {.w.w.X.0 # % U ;. .q U q ` { |.@X3...;.*.F H *.*.{ @XD.{.A.A.Z.g s x A.C.D.L t.#. .&.",
"S.C.D.S.M.A.b.M.b F H V k o.i.;XG d > v b.%.;.w.t.s.! X . w p 8.0.p.` ) k [ -.=.&.V H &X&X-.-.@XoXoXS.F.x & # * j n g L t.#.B N ",
"z c G b b b.b.S n &.D f V q.u.i.*.l h G m.[...&.u.s.q X # 8 a <Xj.d.4.{ } $.$.[ { A.D.=X-X,X$X|.%.|.F.F.B.g o e g g F &.@.#.;.n ",
"m S n b.b b.A.D B B V F H r.i.r.*...F D.A.A.*.w.j.E 0 0 0  .H &.&X&X@XS.[.$.G j b.b.A.D.&X&XE.F.%.|.V.v.V.S # s z v.H &.~ O.4.(.",
"b M.c A.*.$.k N B a k l H r.y.*.&.o.w.W.D.F V ..#.@.E i B V l F D.J.S.V.S H A.b.M.b.F.G F G J A F G S.b.d s & * * k B  .,.O.-./.",
": n.v.%.=.&.B p p E  .l ..y.#.(  . .$.G F F *.;.#.O.X. .k g D C.C.S.H.D.*.D.D.F.F.F.E.{.S x g A G A.v.m c # e & u  .X.t.t.$.(.b.",
"< b.A.$.+.#.X.C a  ...%.$...Y Y &.k B f f j F .. .B B l g g C.K.B.M.H.F.*.w.&Xw J N J ` H A.m C.F.D.S n F n t $ F H V F H n b.6 ",
"' %.$X;.#.#.0.@. .k [ %.( Y  .&.w.L V F g x g k p p M k d f A f j V.G.=X&.&.L w q.w o.8 $.h e B.v.A.D.*.J V u m.A.G F H l s v b ",
"{ -.4.;.$.#.a.p o.$.[ ) p  ...w.&XL N l f g g s h p B *.H f t e h z b.D.V &.K $ Y #  .$ k & u B.M.A.m.[.w.V # 1 j B.S %.{ j j v ",
"/ =.%.} u O.E y &.*.G H V p k l H Z N f f f S > , { -.-.y.L &.` I 1 B.D.D L &Xw.&.#.+.*.$.F %.A.S.S.V.A.*.V # u @Xm.A.[.} u j j ",
"_ ` k h @ #.Y y B H f S G J n s f f l g C.C.V., ; b.{ -.w.L ;.Y O.# l k t J ;X:Xy.;.V H *.%.R.S.F.J.V.B.m.{.$.Y ( %.*.-.) h / ^ ",
">.O.( P . Y # E L w l A.%.n v 2 h V F g S Z.G.b.: 6 b.{.U.*.;.#  .# %.# k &X,X:X&XH J H V F.!.J.F.F.F.F.B.{.*.O.O.=.=.$./ / ` +.",
"d.E  .Y I 9 0 +.k $ V.S.@X{ b b [ +.$.j n J.M.M.6 7 M.m G w.t.# t u = = / -X,X^.^.D.F F l F.R.!.J.L.D.Y.F.D.V  .3.3.=.} } -.-.4.",
"p. .&.>.Q T Y k $ * * b.).].n.v.=.<.=.%.}.S.c d 3 v.d d G w.y.5.*.[ v c A.=X=X!.!.Z.S S g J.J.J.G.V.Y.L.J N A %.=.3.` | %.@X-.=.",
"6.*.6.k.d.x.1.Y j & , n.b.M.M.B.&.<.;.*.A.A S x d M.M.z g l *.6.$XF.v.B.J.F.S.S.Z.S.V.C.B.J.~.J.N.M.F.J N S Y.F.m.(.%.%.j 2 d 4 ",
"-  .<.1.d.c.2.=.{ m j z v.S.S.S.*.#.f.*. XJ F A V.H.G.v.B.m *X>X+XJ.V.v.G.H.G.V.C.F.S F H F.T.S.M.S.A.D.C.S.J.F.S.V.m d h { m b ",
"1 +.O.Y +.5.;...H G m b.v.x c v.$.&.f.g.J H V F S.H.M.n.n.M.E.-X}.V.x x V.J.C.C.Z.F.D.W.P.*.{.D. XG A.S.S.J.J.C.g s s d n $.F z ",
"h ..( ( $.$.V F F D V.S.F.A.A.b ) &.5.;.&.H V D.S.S.n.n.M.M.OX%X].b e G G S D A.S.J.D.*X:...%.N .XXXF.F.D.S.B.g e d n F %.F l j ",
"e ....) F F l F H U.D.F.E.*X*.{ $.y.f.#.Z Z V E.M.M.n.n.`.}.$X7.).5 s %.D D D.`.M.Z.D.R.-.%.[.&.V W.L.G J J G F n n %.%.F F n s ",
"f k ....F n [ F *.&X&X*X&Xw.t.<.5.u.h.0.C w w Y.F.M.M.S.-.y.<Xg.|.6 b.G D L.{.}.S.D.D.oX$XXX:.w.V H D N f H J n f ..$.G %.G n s ",
"F F $.$.{ [ [ %.*.&X&X&Xw.i.i.d.a.p.a.@.X.r # G J.F.S.E.r.@.i.6.`.b.M.S.L.D.A.}.A.F H $X,Xi.i.;XX.p V V F D.D.%.$.+.[ G A.H l A ",
"j F $.{ m ) ( $.*..XoXH w.i.0.d.0.0.0.R q a w N $ F.S.-X<Xt.h.| v.V.H.M.Z.Z.A.n %.e f w.w.8.q.i C B *XD.J *.oX-.+.=.j A.G l F g ",
"e ) *.$.l N V k ) F n G V o.t.u.q.q.q.s.E a 9 # k B.A.,X<X<Xj.%.c V.B.S.Z.S.m F H t p w.r.8.u.% 0 i =XXX&X*.$...Y ) v v F G F f ",
"l u p Z H J G F l h k n F ;.r.w.w.w.q.t.i.r   i &XS.}.y.;X;Xr.H c d V.V.B.v.c %.$. .w.t.q.q.l.i.0 q &X.X$.$...( ( u > v {. Xm.c ",
"&.&.Z B B &.G G F k l n l V H w.L P.P.q.X.0 X Z r.oXoX,X<Xr.q.) b.c x b.z x S D.*.;.w.o.i.u.j.i.o.X.y k *.*.&.( u u j n {.*.[.%.",
"u.f.q.E k k j G &.$.F n x F H D H D D.V 9 0 8 # 8 t.r.r.q.r.f.) n.n.b.b.x g x A *X-.&Xw.i.i.i.a 8 # 8 F &.t. .p ..;.*.D..Xw.*.q.",
"u.q.0. .&.%.j k / [ *.m F G D.*.L L.Y.&XY p % i  .f.y.&X&Xw. .%.n.N.n.b.z S G n F { {.w.i.i.y.8 O i w.$...+.B ..;.,X=X.Xy.<X<Xh.",
"e.e.u.;.*.m.b [ / ) H A.G A.A.%.*.P.R.&X*.$   &. .r.w.&X-XoX*.F.S.H.b.c v.S J H %.$.%.:.i.u.t.# a o.%.[ k ..&.&.$.$.D.*.#.i.1Xz.",
"u.i.y.;.].b._.| $...%.D.C.{.[.%.$.J U.D.J t # $ t ;XL &X&X$XP.U.S.M.x V.F.S N Z w.*.&Xy.h.5.k w M Z F F l V ....;.$.f ..t.q.0.@.",
"E s.y.%.)./.{ =.=.&.J D.D.%.%.G { G H F F N # 8 B w.&.&.o.;.X.H m c v.S.F.J J w.t.*.w.q.t.:.k w N r u k %.*.$.$.+.;.&. .B i q U ",
"! @...@X`.}.=.5.y.:.D.A.v.) k j j G F.g e t # N V *.*.&.X.,.f.J d d d z n %.J &X*.J H X.o.*.F f H t # u {.oX*.;.+.o.X. .o.@.0.p.",
"p.h.:.|.S.].6.t.:.;.D.A.n ..{ { m F B.m $ O t g H G D.J X.,.k.&.j m v.b.] n n n A.G H &.&.F l N F A s s M.XXw.t.#.o.#.E  .o. .! ",
"E E ` { |.@X3...;.*.F H *.*.{ [.D.{.A.A.Z.e o s G C.D.L t.#. .&.(.D.A.M._.A.B.b.b m J H ..M Z H A x d d b {.w.w.o.q.s.U E ;.#.U ",
"0.p.` ) k [ -.=.&.V H &X&X-.-.@XoXoXS.S g g @ * n n g L t.#.B N S.C.D.S.M.A.b.M.b F H V B o.i.;XG d > v b.%.;.w.t.l.s.W U &.q.8.",
"j.d.4.{ } $.$.[ { A.D.=X-X,X$X|.%.}.F.S x g s F c g F &.@.#.;.n z c G b b b.b.G n &.D f V q.u.i.*.l h G m.[...&.u.s.s.9.R Z r.<X",
"r.&X@XS.(.$.G j b.b.A.D.&X&XE.D.%.|.x d $ s $ * s m.H &.~ O.4.(.m S n b.b b.A.D B B V F H r.i.,X*...F D.A.A.*.w.j.h.l.t.a  .H &.",
"D.J.S.V.G G A.b.M.b.F.S F G J A F G v.> & $ $ $ v [ B  .,.( -./.b M.c A.*.$.k N B a k l H r.y.*.&.o.w.R.D.F V ..#.@.h.8.B V l F ",
"C.S.H.D.G D.D.D.V.F.E.{.F x g A G A.v.z $ & n n )  .X.t.t.$.(.b.: n.v.%.=.&.B p p E  .k ..y.#.(  . .$.G F F *.;.#.O.X. .k g D C.",
"B.M.H.F.*.w.&Xr t U.H :..Xj B.C.F.D.S n l $ h n F H V F H n b.6 < b.A.$.+.#.X.C a  ...%.$...Y Y &.k B f f j F .. .B B l g g C.K.",
"j V.G.=X&.&.L M B Q.p ;.u = m.B.v.A.D.*.J V u m.A.G H H l s v b ' %.$X=.#.#.0.@. .k [ %.( Y  .&.w.L V F g x g k p p M k d f A f ",
"h z b.D.V &.K V  .V # +.$ t %.B.M.A.m.[.w.V u ] M.B.S %.{ j j v { -.6.;.$.#.a.t.o.$.[ ) p  ...w.&XL N l f g g s h p B *.H f t e ",
"I 2 B.D.D L ;Xw.&.#.+.*.= l %.A.S.S.V.A.*.V u u @XA.A.[.} u j j ` =.%.} ` O.a.j.t.*.G G N p k l H Z N f f f S > , { -.-.y.L &.` ",
"O.u F J F J ;X:Xy.;.V H *.%.R.S.J.J.V.B.m.oX=.Y ( %.*.-.) h / ^ _ ` k h / #.a.h.r.H H S G J n s f f l g C.C.V., ; b.{ -.w.L ;.f.",
";.=.%.$.k &X,X:X&XH J H V F.!.J.J.F.F.F.A.{.*.O.O.=.=.$./ / ` +.>.O.( P I  .<.t.L J D.A.%.n v 2 h V F g S Z.G.b.: 6 b.{.U.*.;.y.",
"t u h h / -X,X^.^.D.F F l Z.Y.!.J.L.D.Y.F.D.V ..3.3.=.} } -.-.4.d.E  .Y I U Y +.*.D.V.S.@X{ b b [ +.$.j n J.M.M.6 7 M.m G w.t.o.",
"*.[ v c A.=X=X!.!.Z.S S g J.J.J.G.V.Y.L.J N A %.=.3.` -.%.@X-.=.p. .&.>.Q T Y k n S.S.n.).].n.v.=.<.=.%.}.S.c d 3 v.d d G w.y.5."
};
