/* XPM */
static const char *swamp_grass_snowy[] = {
/* columns rows colors chars-per-pixel */
"64 64 121 2 ",
"   c #6F6C56",
".  c #726E57",
"X  c #736F59",
"o  c #76715C",
"O  c #7A745E",
"+  c #7C7662",
"@  c #7E7963",
"#  c #77736D",
"$  c #7D766B",
"%  c #7F796D",
"&  c #7A7570",
"*  c #7F7970",
"=  c #80795F",
"-  c #837C64",
";  c #8A7F67",
":  c #847C6B",
">  c #897E6C",
",  c #847D71",
"<  c #897E72",
"1  c #837E7A",
"2  c #897F79",
"3  c #878066",
"4  c #8B8166",
"5  c #86816B",
"6  c #8C836C",
"7  c #8F886F",
"8  c #92856C",
"9  c #958A6E",
"0  c #9B8C6E",
"q  c #9D916E",
"w  c #868173",
"e  c #8C8373",
"r  c #8D8875",
"t  c #868178",
"y  c #8C837A",
"u  c #8F897C",
"i  c #938673",
"p  c #988773",
"a  c #958A73",
"s  c #9B8C74",
"d  c #93867A",
"f  c #99877A",
"g  c #948A7B",
"h  c #9B8C7B",
"j  c #969073",
"k  c #9D9174",
"l  c #96917A",
"z  c #9C927B",
"x  c #9F987B",
"c  c #A08F6F",
"v  c #A1926F",
"b  c #A28E75",
"n  c #A28E7A",
"m  c #A88F7B",
"M  c #A49275",
"N  c #AB9575",
"B  c #A59976",
"V  c #AC9A76",
"C  c #A3937B",
"Z  c #A99179",
"A  c #A8927B",
"S  c #A89479",
"D  c #AA977A",
"F  c #AE947A",
"G  c #AF957B",
"H  c #A8937D",
"J  c #AA977D",
"K  c #AF967C",
"L  c #A59A7C",
"P  c #AB987A",
"I  c #AE9B78",
"U  c #A99B7E",
"Y  c #AD987C",
"T  c #AE9A7C",
"R  c #B19777",
"E  c #B19B76",
"W  c #B09678",
"Q  c #B1997B",
"!  c #B3997A",
"~  c #B49B7B",
"^  c #B29C7A",
"/  c #B09A7E",
"(  c #B4997D",
")  c #B29C7C",
"_  c #B99D7C",
"`  c #ADA07E",
"'  c #B0A177",
"]  c #B2A27D",
"[  c #BAA17D",
"{  c #8B8681",
"}  c #8E8881",
"|  c #8F8A82",
" . c #938A81",
".. c #938D82",
"X. c #998E81",
"o. c #9D8F81",
"O. c #969181",
"+. c #969183",
"@. c #979480",
"#. c #979487",
"$. c #9C9180",
"%. c #9B9482",
"&. c #9E9482",
"*. c #9A9585",
"=. c #9E9584",
"-. c #9E9983",
";. c #9D9A87",
":. c #99958B",
">. c #9D9A88",
",. c #9E9A8C",
"<. c #A19680",
"1. c #A59781",
"2. c #A29684",
"3. c #A29A82",
"4. c #A49883",
"5. c #A49B82",
"6. c #A19A85",
"7. c #AA9D81",
"8. c #A7A082",
"9. c #ACA282",
"0. c #B2A281",
/* pixels */
"1.A s b G H H n W A A N b K ( G f f A N 9 b R A f h h g < , : , @ S %.,.-.-.+.e e i d d f f f n C +.&.L h 0 b 0 > f f e 8 7 S =.",
"1.G A s n m n n N A b 0 M G ! H h n b A M A G G A n d 6 : d f y $ a l @.;.>.#...g g , 6 s n n C S z 3.C L M 0 0 n n n s b i K 7.",
"o.n 8 i n G N M G A N ^ T C C A L C b A n G A M 8 : : > i a s e % g r e g %.z g s M a d s 8 p h h z 3.6.N k p p n A f f d h / ) ",
" .i - s M b N n n G N P <.g h 9 S J A A A H b 8 - > a a z p 8 e : a e e g g a p s B n n G n h y e L *.&.B M p A n n f d n n 1.5.",
"} < ; C M N C f h N N T &.z $.M s ! N b C C s p e i h z s s p ; - p a a s a i p M T S G ! T z u g U 6.k v 0 0 ~ h h g d g o.2.:.",
"n t d M N N C h h N N C 5.U L I p s N 0 4 M M i 6 a h h C M p ; 4 8 p p a a g a C ! T T ) I L l z L 5.B v - 4 ! A f h H +.5.0.7.",
"h f f n N N C X.h p M 1.7.9.` s @ 4 0 0 s N S z g g a h C s 8 9 p a h h g y g h C U T U I ] ` -.-.-.3.k k s . M W A n ~ T z ] 2.",
"h n n h R W M d h ; 8 T P B I 4 O O 4 ; S S L +.g g e f s i s 8 6 s s g g r r s C S L M P I B 3.L L B z S B - 0 A A H ) 0.U 7...",
"i n b n W n s s M ; 4 T I M ` S k O - 6 U C h a w r e e a b s 4 - a B s 8 9 s 8 i f a M s k L I I I V L a 9 . - H n h 7.0.0.7.h ",
"i > A M b s i h h r S L P B 9.` L - + L s s a e e : $ < h C g i 8 : 8 0 M M b p 7 4 6 p a z P I I I U U ] M O - U n h 5.] ] T M ",
"f i i d < i b A S z P k T U ` k 4 ; 4 L L L z r : : e a C C g h L z k 9 0 M C M s 8 8 i 8 a M V V E ^ I B k 3 0 I L L T 7.' U a ",
"d f d d i 8 0 c T z U P ` ` U 9 - 4 L M z L a 5 a z C A S L L B U 5.B 8 8 6 e s z a a p 0 s M N M M N P 4 @ + 8 8 L T ) P I 3.r ",
"d n d d e b s p a g C P ] ] U V - o 7 h s a a a C 7.T L L 0.] U ` U L a z h < e e g C f s n S S V E E T &.+ X s a 3.7.) T S a h ",
"n A f i s b b M z g z C ` U C k 8 4 6 g 7 g L z h s S S z 9 s 9.' I U z C f y y t y C C s h C h S T ! U C ; . 4 a T P ) ) L S T ",
"n h 8 M G b 0 c S L T U 5.r 6 O = 4 a s i p a h +.g 4 s S - j k T ] 5.z ..y d ..g a z A M z z h g N N S C i X O s ) V ^ T L T V ",
"d p s A K M N V L S S B L z 9 o O 0 7 a h z s h g C 4 ; O o 5 4 a 5.3.g { d g ..z z B N M h h f d M v c s 4 - 6 s S M M k z a M ",
"6 ; > e r h N U L M k k k M s 8 M 0 6 : C C L z g k O - O j x z j l a .. .h +.6.6.&.S M s a e e e M A A M o X O O L z k s z 3.N ",
"< s s y y a 9 s z b M M L s 9 9 b p : : h J L S z - z 4 O o + @ @ a L z A g +.L <.&.A b i p g g s s s A A 0 . - M M S B s z >.z ",
"g M b g g h s f y a M M s 9 k N 0 8 : : d C S P s - O + 5 C a : 4 : r g C X...g z C p s L z g h A C h b N 8 : i b M N V S z p k ",
"H N M n f h f f r p M 9 7 B I ^ M ; : < d X.z I L 8.a o o ; 6 M L z u e e a ....z p s P T $.X.X.<.<.H A i + o - 6 8 8 V S z p 9 ",
"6 p s d t d f s a M M 8 s V ` T S 6 : s h h a B U 5.- o O - 8 ] 9.>.+. .u g a y g C S T ) U L z z z H A b 8 X - 6 4 s z l z z a ",
"d s e y y d n M 9 9 s s M I U T L p a A n C S P 9.7 - - - 0 k M U 7.#.n h h f , y f b A T U T S h C n s n s o : < s M L l u +.g ",
"< f i f C s 8 0 9 8 7 8 M P U L z k S ! S p a p z l 7 6 9 0 8 s A K n A s M h d f f G b p s M 0 a b h d ; ; + + + e 9 p z r ..y ",
"& d s h z k 9 6 4 7 a e a L z 7 a a s M s s C +.z g a p 6 8 M N N A G N C N S K H S / C s p 8 p s b h d p o - + : a k L L h f y ",
"# g C h g z s 9 8 a g g g a e 6 z 8 8 8 4 8 s a a 8 8 e 6 8 N N b f m S S P ^ - B 9 B r s C s N A M b p p i : + s s 9 s s i d 1 ",
"1 h <.z z z L k a 7 g g r e a z T N 0 s 8 0 8 6 6 4 8 7 ; 4 0 4 , n n T z L V - S - k @ a : : b n M A C B 0 : h n M s M i : < t ",
"y ..#.+.z l 3.6 z g g r 6 a a S ^ V 0 i 8 8 4 : , 6 8 C s 6 4 - , e f M p B N O 7 o a + e + : n h b f $.S 0 o % : n s h g w , e ",
"t ..g u : g e - L M M s 0 6 6 8 M 0 9 4 8 4 s : : g ..+.7.V k u , , h N M V ) P M z a z g a C n n A n h C 9 o : h f C z g : e < ",
"t y e w o z e ; 9 M 8 b M M a : 4 8 8 8 M N b : # y g ..T T &.e g o 8 8 4 B ) ] 7.z p M C z T n A H n n f C h w r h C <.r : t w ",
"} g e : X e O 6 V - 8 b f a e * : a s 4 b N n y & 2 f h G S z O a o z o 7 P T [ ) M N M 9 K ( ! K K A S h C C g u z z g t w y u ",
"-.r a w , @ @ g 4 o n h ..g y e g s h 6 i H h f 2 t f s s P L o 4 : + + r T 7.[ _ N s s 8 / ! _ W N S T G B 0 a ......y { ....+.",
"-.a z ..r w 5 w + + + y }  .d s h +.+.h h A s 6 , f : > s P P &.z g y d C ) ) ( ~ N b b 8 G ! ! n n R N M 0 0 h ....g  .h X.....",
"*.S &.,.;.-.+.e e + : d f f f n C +.&.S n 0 b 0 > f f e 8 7 S =.1.A s b G H H n W A A N b K ( G f f A N 9 b N A f h h g < , : , ",
"$ a l @.;.>.#...g g , 6 s n n n S z 3.C L M 0 0 n n n s b i T 7.1.G A h n m n n N A b 0 M G ! H h C b A M A G G A n d 6 : d f y ",
"% g r e g %.z g s M s d s 8 p h h k 3.6.N k p p n A f f d h / ) o.n 8 i n G N M A A N ^ T C C A L C b A n G A M 8 : : > i s s e ",
": a e e g g a p s N n n G n h y e L *.&.B M p C n n f d h h 1.5. .i - s M b N n n G N P <.g h 9 P U A A A H b 8 - > a a z p 8 e ",
"- p a a s a i p M T S G ! T C g g U 6.k v 0 0 ~ h h f f g o.2.:.} < ; C M N C f h N N T &.h $.M s ! N b C C s p e i h z s s p ; ",
"4 7 p p s a g a C ^ T U ) I S l &.U 5.B 0 - - ! A f h H +.5.0.7.n t d M N N C h h N N <.1.J C T p s N 0 4 M M i 6 a h h C M p ; ",
"p a h g g y g h C U T U U ] ` -.-.-.3.k q 4 o M W A n ~ T z ] 2.h f f n N N C X.h p M 1.7.9.` ' s 6 0 0 s N S z g g a h C s 8 9 ",
"6 a s g g r r s L S L M S I B 3.L S B 6 ; 8 - 0 o A H ) 0.U 7...h n n h R W M d h ; 8 T P B B 4 9 9 P S S S L +.g g e f s i s 8 ",
"- a B s 8 9 s 8 i f a M s k L I I I V L a 8 O o 6 n h 7.0.0.7.h i n b n W n s s M 4 4 T I M ` O - 3 T T U C h a w r e e a b s 4 ",
"8 : 8 0 M M b p 7 4 6 p a z P I I I U U ] 4   4 U n h 5.] ] T M i > A M b p i h h r S L P B 9.` - - L L s s p e e : $ < h C g i ",
"L z s 8 0 M C M s 7 8 i 8 a M V V E ^ V 0 - X 0 I L L 7.7.' U a f i i d < i b A S C P k ` U 0.] k a - 8 L L z r : : e a C C g h ",
"U 5.M 7 8 6 e s z a a p 0 s M N M M N 0 @ @ + O + L T ) P I 3.r d f i d i 8 0 c T z U P ` ` ` 8 - O - s z L a 5 a z C A S L L B ",
"` U L a z h < e e g C f s n S S N E E T e 5 + 4 p 3.7.) ) S a h d n d d e b s p a g C P ] ] U - o 4 L h a a a a C 7.T L L 9.] U ",
"' ` U z C f y y t y C C s h C h S T ! U C + . B a T P ) ) L S G n A f i s b M k z g z C ` U L o 8 M z g 7 g L z h s S S z ] 0.9.",
"T ] 5.z ..y d ..g a z A M z z h g N N S C : o O 4 ) V ^ T L T V n h 8 M G b 0 v S L T U 5.&.7 - 8 0 a s i p a s +.h 4 s S B B k ",
"a 5.3.g { d g ..z z B N M h h f d M M b s 9 o - 8 S M M k z a M d p s A K M N V L S S B L C 7 = 0 4 : a h z s h g C k p 9 4 5 4 ",
"j l a ..g h +.6.3.z S M s a e e e M A 8 - 4 o 9 p C C k s z 3.B 6 ; > e y h N U C M k k k C p 8 M 4 o ; C C L z l k s a k j x x ",
"z 7.L z A g +.L <.&.A b i p g g s s s p O o ; 8 M M S B s z >.z < s p y y a 8 s C b M M L s 8 9 c 0 : : h J L S z z z 7 a j a a ",
"a e r g n X...g z C p s L z g h A C h b N - X ; s M N V S z p k g M b g g h s f y g M M s 9 k N 0 8 : : d C S P k S U 5 7 C z 5 ",
"L z u e e g ....z p s P T $.X.X.<.<.H s 4 4 X + i 8 8 V S z 9 9 n N M n f h f f r a M 9 7 M I ^ M ; : < d X.z I U 9.5.r 4 B S M ",
"9.>.+. .} g a y g C S T ) U L z z z H s 8 8 4 s p 4 s z l z z a 6 p s d t d f s a M M 8 s V ` T S 6 : s h h a B ` 5.5.z 6 q ^ ] ",
"U 7.#.n h h f , y f b A T U T S h C 8 > o 4 + - : s M L l u +.g d s e y y d n M 9 9 s s M I U T L p a A n C S P 9.5.9.U 8 0 M B ",
"A K n A h M h d f f G b p s M 0 a b h : + + + o e g 9 a z r ..y < f i f C s 8 0 9 8 7 8 M P I S z k S ! S p a p z l L M 9 0 8 s ",
"N A G N C N S S A A / C s p 8 p s b h e o + i i r a k L 5.h f y & d s h z k 9 6 4 7 a e a L z 7 a a s M s s C +.z g a p 7 8 M N ",
"b f m S S P ^ 4 4 T M &.S 8 n M A M b p 8 O 6 i s s 9 s s i d 1 # g C h g z a 9 8 a g g g a e 6 z 8 8 8 4 8 s a a 8 8 e 6 8 N N ",
", n n T z L V 9 8 _ 4 z : + f b h b A C B 0 : h n M s M i : < t 1 h <.z l z L k a 7 g g r e a z T N 0 s 8 p 8 6 6 4 8 7 ; 4 0 4 ",
", e f M p B N 0 a p o g + : g n h b f $.S 0 : y g n s h g w , e y ..#.+.z l 3.S z g g r 6 a a S ^ V 0 i 8 8 4 : , 6 8 C s 6 4 - ",
", , h N M V ) P M z a z + i C C n A n h C 9 : : h f C z u : e < t ..g u y g 3.U L M M s p 6 6 8 M 0 9 4 8 4 s : : g ..+.5.V k u ",
"g : p B s B ) ] 7.z p M C z T n G H n n f C h w r h C <.r : t w t y e w y z L ` P B M b M M a : 4 8 8 8 M N b : # y g ..T T &.;.",
"L h z s i U T [ ) M N M 9 K ( ! K K A S h C C g u z z g t w y u } g e : : r z S V N A b f a e * : a s 4 b N n y & 2 f h G S z U ",
"4 : , 6 r T 7.[ _ N s s 8 ! ! _ W N S T G B 0 a ......y { ....+.;.a a w : 5 e g B A n h ..g y e g s h 6 i H h f 2 t f s s P L k ",
"z g y d C ) ) ( ~ N b b 8 G ! W n n R N M 0 0 h ....g  .h X.....-.a z ..r w w e a n n d }  .d s h +.+.h h A s 6 , s : > b P U &."
};
