/* XPM */
static const char *swamp_grass_oct[] = {
/* columns rows colors chars-per-pixel */
"64 64 173 2 ",
"   c #666C26",
".  c #686E27",
"X  c #676F29",
"o  c #6B6E29",
"O  c #6B7027",
"+  c #67702A",
"@  c #6D722A",
"#  c #73732D",
"$  c #79762D",
"%  c #77782E",
"&  c #7B7A2E",
"*  c #7D6E3C",
"=  c #757531",
"-  c #7D7533",
";  c #757932",
":  c #7B7C32",
">  c #7C7538",
",  c #7D7C3C",
"<  c #827637",
"1  c #837B34",
"2  c #8B7E35",
"3  c #84753C",
"4  c #8A763D",
"5  c #847C3B",
"6  c #8C7C3B",
"7  c #907F37",
"8  c #927D3C",
"9  c #9B7F3F",
"0  c #866E40",
"q  c #8D7543",
"w  c #847C42",
"e  c #8C7C42",
"r  c #8F7749",
"t  c #847E48",
"y  c #8B7F48",
"u  c #947744",
"i  c #987746",
"p  c #947C42",
"a  c #9B7C45",
"s  c #95744C",
"d  c #9C754C",
"f  c #977B4A",
"g  c #9C7B4A",
"h  c #9B7F51",
"j  c #A17D47",
"k  c #A37C4B",
"l  c #A97E4A",
"z  c #7D8035",
"x  c #7E813A",
"c  c #7C8341",
"v  c #848134",
"b  c #8B8336",
"n  c #8F8836",
"m  c #83833C",
"M  c #8B833B",
"N  c #86893D",
"B  c #8D8A3C",
"V  c #928436",
"C  c #968B36",
"Z  c #9A8B37",
"A  c #93843B",
"S  c #9B843D",
"D  c #948A3B",
"F  c #9C8B3C",
"G  c #94913E",
"H  c #9D923D",
"J  c #A2863F",
"K  c #A38C3D",
"L  c #AA8D3E",
"P  c #A4923D",
"I  c #AB933E",
"U  c #AB9A3E",
"Y  c #B2923F",
"T  c #848342",
"R  c #8D8443",
"E  c #828A44",
"W  c #8D8B43",
"Q  c #8C844A",
"!  c #8D8A4A",
"~  c #958443",
"^  c #9B8443",
"/  c #938B44",
"(  c #9C8B44",
")  c #94844B",
"_  c #9B854B",
"`  c #938B4C",
"'  c #9C8C4A",
"]  c #8D9043",
"[  c #8D9249",
"{  c #959244",
"}  c #9C9344",
"|  c #9D9A45",
" . c #94944A",
".. c #9B934C",
"X. c #95994E",
"o. c #9D9B4C",
"O. c #8D8B51",
"+. c #9C8451",
"@. c #958A51",
"#. c #9B8C51",
"$. c #8C9352",
"%. c #8F9A57",
"&. c #939355",
"*. c #9D9351",
"=. c #949A54",
"-. c #9B9854",
";. c #979359",
":. c #96995A",
">. c #A38444",
",. c #AA8645",
"<. c #A38C43",
"1. c #AB8B44",
"2. c #A4844A",
"3. c #AC8449",
"4. c #A38C4A",
"5. c #AB8A49",
"6. c #B48B46",
"7. c #B18C44",
"8. c #B28C45",
"9. c #B38D47",
"0. c #B68F47",
"q. c #B38749",
"w. c #B08A49",
"e. c #B08C4A",
"r. c #A29242",
"t. c #A79240",
"y. c #A49344",
"u. c #A49345",
"i. c #A89140",
"p. c #A89341",
"a. c #AE9040",
"s. c #AC9741",
"d. c #AB9345",
"f. c #AD9445",
"g. c #AF9447",
"h. c #A49A44",
"j. c #AB9B44",
"k. c #A19248",
"l. c #A3934A",
"z. c #A0934D",
"x. c #A7924D",
"c. c #A6944F",
"v. c #AD9248",
"b. c #AB944A",
"n. c #AB904C",
"m. c #AC974D",
"M. c #A69849",
"N. c #A49C4B",
"B. c #AB9B49",
"V. c #B19241",
"C. c #B49042",
"Z. c #B39643",
"A. c #B19045",
"S. c #B79445",
"D. c #B99346",
"F. c #BA9247",
"G. c #B19843",
"H. c #B19A45",
"J. c #BB9B46",
"K. c #B19448",
"L. c #B49448",
"P. c #B19949",
"I. c #B19C49",
"U. c #A28750",
"Y. c #A18951",
"T. c #A59150",
"R. c #A09650",
"E. c #9EA050",
"W. c #ACA046",
"Q. c #A4A14D",
"!. c #A9A249",
"~. c #B0A54A",
"^. c #A2A450",
/* pixels */
"x.1.>.,.9.e.5.3.C.9.9.L <.0.F.6.l l ,.t.A K V.,.>.2.' _ e 4 4 q = r...:.=.%.$.5 e p k k 2.2.k ,.} ` ..y.<.Z K S 6 >.>.p A M y.*.",
"n.0.1.>.3.q.q.,.L 1.K F K f.S.w.3.,.1.1.<.,.6.9.9.,.^ 6 4 ^ ^ i > B ! $.=.=.&.` _ _ q 8 >.5.3.5.r.{ o.l.5.K F S ,.q.3.>.,.^ f.m.",
"4.,.A S ,.0.L L 9.9.a.G.s.<.<.1.5.<.1.,.3.6.9.L 7 1 1 6 ~ ~ ^ 8 3 ` E T !  .` / F L ^ a >.8 S >.' } ..R.i.F A S 3.9.l k k 3.L.P.",
"+.a 1 >.L K L ,.3.0.1.f.z.~ 4.A d.v.1.,.1.5.>.A 1 6 ^ ^ <.F V 6 4 R T R ) ' A S F I ,.3.9.,.>.i e } &...r.F A <.3.3.k k 3.3.5.x.",
"h u 1 <.P i.<.2.3.Y a.f.4.( 4.} F Z.V.<.<.<.>.S p ~ ( 4.( F A 5 - A W R ^ ~ A F ( f.1.A.S.f.4.) / M.-.} H Z C S.3.3.k k 2.4.T.;.",
"5.d g <.P a.4.2.2.I a.4.n.v.z.j.D F P C b P L S M B ' 4.<.<.S 1 1 M D A ^ ^ ) ^ y.s.f.b.H.j.} ` ..| o.| H : v V.9.2.3.w.#.M.~.N.",
"2.j l ,.I 1.<.U.4.F K n.m.N.N.D ; 1 C C F i.d.' / ` ~ 4.<.( A A A ~ ' ' _ ~ ~ ( l.d.j.b.j.W.N.=.X.X.o.W G D . L 0.9.3.F.M. .W.R.",
">.,.q.3.Y C.<.~ 4.1 b s.i.H h.v # # b 1 t.y.n.#.! ) 6 >.^ A F V 7 ^ ( ^ ^ R R / y.d.l.<.y.h.} =.| | | { | } : C 1.1.5.P.B.o.N.+.",
"a ,.,.,.0.3.^ ^ F 1 v j.j.H !.| { # & M b.y.' / T R 8 p ^ <.F 2 - ~ r.( A A D M R ^ ^ <.F D | h.i.i.h.o.W B   : 1.,.2.m.I.I.N.4.",
"^ 6 ,.1.1.>.^ ^ ' R y...h.} Q.!.{ : % y.( ( / M T < < e 4.4.^ ^ M 1 b C P K <.A M 5 6 S ~ ( M.s.U j.M.o.!.H # % b.5.4.z.I.I.N.<.",
"j 9 S a 8 S <.<.y...y.{ h.h.N.D v : v } l.y.( R , 1 e ^ 4.l._ ( y.} D B D ( 4.<.F M M S V A H P P U s.s.| G : D j.l.b.M.B.j.h.~ ",
"k k a g 9 A S F f.' d.y.N.!.h.B : v } ( } z.W 5 R ' 4.<.d.y.l.r.N.o.} M M M 6 ( ( / ~ S S F K P P P I s.v ; % b b z.M.j.i.s...R ",
"k 3.k g p J >.S ~ _ 4.M.W.W.N.i.& @ M ' / / B R z.M.K.d.M.B.B.o.h.h. .B ' ^ 6 6 e ~ <.^ ^ <.i.y.P Y V.d...=   D M ..N.j.s.y./ ^ ",
"3.9.j 9 >.J K ( ( _ <.l.!.N...Z b v 5 ) M / } } / ( d.y. .B D ^.W.j.h...4.2.i ) y R <.,.<.>.5.' y.s.Z.b.l.: . 1 D M.i.j.P.M.r.A.",
"3.3.8 1.9.K C Z y.l.d.M.o.R M # $ 1 ~ ^ A A ~ / ' ' b / } & D { h.!.N.' _ g k +.) / ( 1.1.4.4.( ) t.I d.<.A . % D H.P s.m.M.s.s.",
"^ J >.9.9.<.P i.} y.y.H | ' A # # C M B ( ( / / ` z.1 : # @ z m N o.z._ h g _ ` ' } t.1.1.4.' ^ ~ <.F F F 2 & b D r.} } { ../ <.",
"6 6 6 8 p ( t.b.y.P F G } y.F b F F 5 1 4.l.y.../ / @ : # G  . .] ] / _ 2.2.` *.z...i.1.>.~ M e 6 <.1.1.K # o # # y.} ( D [ ..t.",
"e >.>.g f ^ A ^ <.<.F } } F V V F S 1 6 ,.n.M.y./ : { z # @ # ; ; W M.4.,._ @.......<.1.S / ^ _ ^ ^ >.,.1.V   & K <.i.t.D [ -.( ",
"2.1.,.k 2.2.>.a p ^ K <./ n Z P Z A 4 4 i 4.y.d./ : @ = x ..W : x : Q _ 5.4.@./ ..l.A F y.' _ 4.1.4.>.,.9.7 1 S <.L I U h. .D ( ",
"w.1.1.,.2.>.2.k p ~ K A M H N.G.L 2 < e g ' ( j.h.o.W + + : v } | X.Q e e ) @.` ' A ( d.b.' ' Y.4.4.5.9.S $ o - 6 S V y.| { D A ",
"8 S >.i f g 2.<.~ ( P b D h.N.N.y.6 5 ^ >.2./ P N.o.; X @ & b W.Q.:.@._ ) ) ) y _ <.1.Z.m.b.n.4.4.4.e.9.K A o - 7 2 F ( ]  ./ ^ ",
"a J 8 g f g <.P B D F F H M.h.M.y./ ~ 1.,.<.y.y.N.N ; : ; D H } M.b.Y.5._ ' ^ q g j 1.1.b.b.A.1.4.5.,.>.,.K @ 5 8 >.( } [ ! #.2.",
"u 2.a >.<.( M C B M M V H M.M.y.( { y.Z.a.F A D / W N v D C A F 1.0.3.1.<.<.2.g k j 9.<.S >.K F ^ <.,.j 2 1 $ - = e B N [ R #.g ",
"0 k >.' ' } n b v M R M / M./ M W B ( L F / <... .! B D M V K L 1.9.6.1.<.i.d.K.e.9.S.4.F A V S <.<.>.a S @ < = - R / h.| ' 2.g ",
"* ^ <.' ` { D B b B ~ _ / W N m } M M b 2 V ^ / B n M R 7 7 L I >.l q.1.y.y.s.& t.A t.Q ( <.^ 1.1.1.<.S S A 1 $ F F D ( ( ~ j s ",
"r ' x.' / { { { B M ) _ R m W } j.P C F V S 7 M m v n M 6 2 Z 2 e ,.q.K.' } U & y.& F ; ~ 1 < >.>.1.1.<.t.C 5 2.,.L F <.A 5 8 g ",
") @.#.' ' / o.m } ' ) R m M / y.s.U A A b V 2 1 w m B y.( b 2 1 w 8 j 1.D P P % N @ B = M = < ,.>.1.2.4.y.C @ 3 4 >.<.( ) e e u ",
"y ` _ ) , W N : } r.<.( D v M V P Z A 2 b 2 S 3 4 ) @.#.M.y.( Q , 4 >.i.P U H.s.} / / ( ' ^ <.<.3.5.,.2.<.A @ , _ _ <.4.) 5 e e ",
"t Q R 5 o ` m : D F b <.L K ~ 3 b b V V L L ,.4 * g _ ' d.s...m W @ M M v P B.H.M.} A K <.4.Z.5.9.w.,.,.>.4./ m R ' 4.4.R < y w ",
"O.! T , o m @ m s.& V <.^ ~ p 3 5 A ^ 6 K V.3.d 0 d j 4.f.y. .# B O ' @ M d.M.J.s.F t.F A K.F.F.e.A.,.9.>.4.l.! R ' ' ) y y Q Q ",
"=.N W T , ; ; / b # ,.2.+._ i i ) / ' 6 ^ w.3.k d d l ^ ( d.} @ v < = = R m.m.J.J.i.F F V C.Z.F.C.a.1.V.f.i.C W ` @.@.) ) ) @.@.",
"X./ / O.E c , 5 = - - i +.+.k >.' ` ' ' 2.9.>.6 4 >.4 6 <.y.M...<.) p ^ 5.K.L.F.F.9.K K 7 0.F.F.3.,.V.a.L V Z ( ` @.Q _ _ 2._ @.",
"*.r...:.=.%.$.5 e = 3 k j 2.k ,.} ` ..y.<.Z K S 6 >.>.p A M y.*.x.1.>.,.9.e.5.3.C.9.9.L <.0.F.6.l l ,.t.C K V.,.>.2.' _ e 4 4 q ",
"> B ! $.=.=.&.` _ _ 4 8 >.3.3.5.r.{ o.l.5.K F S ,.w.3.>.,.^ f.m.n.0.1.>.3.q.q.,.L 1.K F K f.S.w.3.,.1.d.<.,.6.9.9.,.^ 6 4 ^ ^ i ",
"3 ` E T !  .` / F <.^ a >.8 S >.' } ..R.i.F A S 3.9.l k k 3.L.P.4.,.A S ,.0.L L 9.9.a.G.s.<.<.1.5.<.1.,.3.6.9.L 7 1 1 6 ~ ~ ^ 8 ",
"4 R T R ) ' A S F i.,.3.9.,.>.i e } &...r.F A <.3.3.k k 3.3.5.c.+.a 1 >.L K L ,.3.0.1.f.z.~ 4.A d.v.1.,.1.5.>.A 1 6 ^ ^ <.F V 6 ",
"- A W R ^ ~ A F ( f.1.A.S.Z.4.) / M.-.} H Z C S.3.3.k k k 2.T.;.h u 1 4.P i.<.2.3.Y a.A.4.( 4.} F V.V.<.<.<.>.S p ~ ( 4.( F A 5 ",
"1 M D A ^ ^ ) ^ y.s.s.b.H.j.} ` ..| o.| D : & V.9.2.3.w.#.M.I.N.,.d g <.P a.4.2.2.I a.4.n.v.z.j.D F P A b P L S M B ' 4.<.<.S 1 ",
"A ~ ' ' _ ~ ~ ( l.d.j.M.j.W.N.=.X.X.X.W G v @ L 0.9.,.F.M. .N.R.2.j l ,.I 1.<.U.4.F K n.m.N.N.j.D v C C F I d.' / ` ~ 4.<.( A A ",
"7 ^ ( ^ ^ R R / y.d.l.<.y.h.} =.| | | m : b : C # 1.5.P.B.o.N.+.>.,.q.3.Y C.<.~ 4.1 b s.y.H H z B B f.d.t.y.l.#.! ) 6 >.^ A F V ",
"- ~ r.( A A D M ~ ^ ^ <.F D | h.i.i.h.o.N b # O M ,.2.m.I.I.N.4.9 ,.,.,.0.3.^ ^ F 1 v j.N.H N.@ ; : K.v.b.y.' / T R 8 p ^ <.F 2 ",
"M 1 b C P K <.A M 5 6 S ~ ( M.s.U j.M.o.!.v   v b.5.4.z.I.I.N.<.a 6 ,.1.1.>.^ ^ ' R y...h.} Q.N.; : b.y.( ( / M T < < e 4.4.^ ^ ",
"y.( D B D ( 4.<.F M M S V A H y.P U s.y.D : X C j.M.n.M.B.j.h.~ j 9 S a 8 S <.<.y...y.{ h.h.!.W.{ B : M l.y.( R , 1 e ^ l.l._ ( ",
"N.o.} M M M e ( ( / ~ S S F F P P P I Z ; ; # @ % h.M.j.i.s...R k k a g 9 A S F f.' d.y.N.!.N.b ; @ : F } z.W 5 R ..4.<.d.y.l.r.",
"!.h.{ B ' ^ 6 6 e ~ <.^ ^ <.i.y.P Y V.d.m , # v B ..N.s.s.y./ ^ k 3.k g p K >.S ~ _ 4.y.W.W.N.& O v y.' / / B R z.M.K.d.M.B.B.o.",
"W.j.h...4.2.i ) y R <.,.<.<.5.' y.s.Z.b.l.%   r.D M.i.s.P.M.r.f.3.9.j 9 >.K K ( ( _ <.l.!.N...@ b } ' ) M / } } / ( 1.y.{ W.!.Q.",
"h.!.N.' _ g k +.) / ( 1.1.4.4.( ) t.I d.<.1 @ # v H.P s.m.M.s.s.3.3.8 1.9.K C Z t.M.d.M.o...M & b Z ~ ^ A A ~ / ' ' b / } P | { ",
"N o.z._ h g _ ` ' } t.1.1.4.' ^ ~ <.F F F A @ : B y.} } { ../ <.^ S >.9.A.<.P i.} y.y.H | l.M & C 2 1 B ( ( / / ` z.( B D v z m ",
"] ] / _ 2.2.` *.z...i.1.>.~ M e 6 <.1.A 1 2 @ A A y.} ( D [ ..t.6 6 6 8 p ( t.b.y.P F G } y.F b F 2 @ 5 4.l.y.../ / D B G G  . .",
" .N.M.4.,._ @.......<.1.S / ^ _ ^ ^ >.S $ @ 2 A K <.i.t.D [ -.( e >.>.d f ^ A ^ <.<.F } } F A V F S 1 6 ,.n.M.y.{ / { m B D W E ",
"N N Q _ 5.4.@./ ..l.A F y.' _ 4.1.4.>.,.9.1 . 1 >.L I U h. .D ( 2.1.,.k 2.2.>.a p ^ K K / n Z P Z A 4 4 i 4.y.d.{ h.o.x m ..{ x ",
"| X.Q R e ) @.` ' A ( d.b.' ' Y.4.4.5.S 2 6 o - ~ S V y.| { D A w.1.1.,.2.>.2.k p ~ K A M H N.G.L 6 < e g ' ( j.h.E.o.E m } h.} ",
"Q.:.@._ ) ) ) y _ <.1.Z.m.b.n.4.4.4.w.J A A 1 S S 2 F ( W  .( ^ 8 S >.i f g 2.<.~ ( P b C i.N.N.y.6 5 ^ >.2./ P N.o.o. .m D U W.",
"M.b.Y.5._ ' ^ q g j 1.1.b.b.A.1.4.5.8 6 # 2 $ - < >.( } [ ! @.2.a J 8 g f g <.P B B F F F j.h.M.y./ ~ 1.,.<.y.y.N.o.^.o.B D H } ",
"1.0.3.1.<.<.2.g k j 9.<.S >.K F ^ <.>.< = $ # # 8 ~ B N [ R #.g u 2.a >.<.( M C B M M A H j.M.y.( { y.V.a.F A D / W o.} D C V F ",
"1.9.6.1.<.i.d.1.,.9.S.4.F A V S <.<.>.8 @ % 8 ~ R R / h.| ' 2.g 0 k >.' ' } n b v M R B / M./ M W B ( L F / <... .! B D M V K L ",
">.l q.1.y.y.s.2 2 f.<.z.y.V >.1.1.1.<.S V $ 6 ~ F F D ( ( ~ j s * ^ <.' ` { D B M W / ) / W N m } M M b 2 V ^ / B n M R 7 V L I ",
"e ,.q.K.' } U V M H.v ' 1 = 2.>.>.1.1.<.t.C 5 2.,.L F <.A 5 8 g r ' x.' / { { { N M ) _ R m W } j.P C F V S 7 M 5 v n M 6 2 F 2 ",
"w 8 j 1.D P P D W D @ / = 1 ^ ,.>.1.2.4.y.C 5 f 2.>.<.( ) e e u ) @.#...' / o.h.} ' ) R m M / y.s.U C A b V 2 1 w m B y.( b 2 1 ",
", 4 >.i.P U H.s.} / / ( = ~ <.<.3.,.,.2.<.A : 5 _ _ <.4.) 5 e e y ` _ ) R W o.N...r.<.( D v M V P Z A 2 b 2 S 3 4 ) @.#.M.y.( Q ",
"! < A t.F P B.H.M.} A K <.4.Z.5.9.w.,.,.>.4./ m R ' <.4.R < y w t Q e 5 R ` X.N.i.P K <.L K ~ 3 b b V V L L ,.4 * g _ ' d.s...-.",
"} ' 4./ B d.M.J.s.F t.F A K.F.F.e.A.,.9.>.4.l.! R ' ' ) y y Q ! O.! m , , R X.| s.t.1.<.^ ~ e 3 5 A ^ 6 K V.3.g 0 d j 4.f.y. .h.",
"v < 5 5 R m.m.J.J.i.F F V C.Z.F.C.a.1.V.f.i.C W ` @.@.) ) ) @.@.=.N W w , x T / t.1.,.2.+._ i i ) / ' 6 ^ w.3.k d d l ^ ( d...{ ",
"( ) p ^ 5.K.L.F.F.9.K K 7 0.F.F.3.,.V.a.L V Z ( ` @.Q _ _ 2._ @.X./ / O.E c , 5 ~ 3.3.k +.+.k >.' ` ' ' 2.9.>.6 4 >.4 6 <.y.M..."
};
