/* XPM */
static const char *taidra[] = {
/* columns rows colors chars-per-pixel */
"64 64 201 2 ",
"   c #4F591B",
".  c #525D19",
"X  c #566217",
"o  c #5D681F",
"O  c #555F2C",
"+  c #5D6426",
"@  c #5F6823",
"#  c #576028",
"$  c #5C652C",
"%  c #596431",
"&  c #5A7635",
"*  c #606723",
"=  c #616828",
"-  c #636C2A",
";  c #667227",
":  c #6A742C",
">  c #74782B",
",  c #707D2C",
"<  c #686E33",
"1  c #676F38",
"2  c #667230",
"3  c #6B7136",
"4  c #6F7937",
"5  c #657B3A",
"6  c #727232",
"7  c #737C32",
"8  c #7A7C31",
"9  c #747E3A",
"0  c #64694D",
"q  c #747A43",
"w  c #787F47",
"e  c #696E53",
"r  c #6E7256",
"t  c #717753",
"y  c #767B57",
"u  c #787E57",
"i  c #7A7F6F",
"p  c #748029",
"a  c #69823C",
"s  c #678E3D",
"d  c #6B8C3D",
"f  c #778037",
"g  c #7A8335",
"h  c #76833C",
"j  c #7B843D",
"k  c #758C3F",
"l  c #7D8A38",
"z  c #6E903E",
"x  c #70903F",
"c  c #709D3F",
"v  c #6F8141",
"b  c #6B8F44",
"n  c #67884D",
"m  c #748242",
"M  c #7B8245",
"N  c #748A41",
"B  c #7B8B44",
"V  c #7C864A",
"C  c #6F9142",
"Z  c #759343",
"A  c #7B9545",
"S  c #7E9846",
"D  c #7D9448",
"F  c #7E9849",
"G  c #778855",
"H  c #7D835C",
"J  c #7E9855",
"K  c #7D9A5B",
"L  c #7DA154",
"P  c #7E8961",
"I  c #80823E",
"U  c #838642",
"Y  c #828B45",
"T  c #838C4C",
"R  c #8B8F48",
"E  c #948E48",
"W  c #839346",
"Q  c #899245",
"!  c #839B46",
"~  c #8A9A47",
"^  c #85924A",
"/  c #8B944B",
"(  c #849B4A",
")  c #8B9C4C",
"_  c #999445",
"`  c #92974B",
"'  c #939C4E",
"]  c #9C9C4D",
"[  c #838A57",
"{  c #8A8E53",
"}  c #849654",
"|  c #8A9254",
" . c #8B9E51",
".. c #89915A",
"X. c #909155",
"o. c #929C52",
"O. c #999E50",
"+. c #939E5A",
"@. c #A09B49",
"#. c #8CA14C",
"$. c #85AD49",
"%. c #92A24D",
"&. c #9EA14F",
"*. c #8EA151",
"=. c #83A959",
"-. c #94A353",
";. c #9CA552",
":. c #95A953",
">. c #9DAB54",
",. c #96A25A",
"<. c #9AA559",
"1. c #9EAC59",
"2. c #9EB156",
"3. c #93B05D",
"4. c #9CB25A",
"5. c #A1A24E",
"6. c #A0A652",
"7. c #A1AC54",
"8. c #A3AE5A",
"9. c #A1B055",
"0. c #A2B057",
"q. c #A3B257",
"w. c #A3B359",
"e. c #A4B359",
"r. c #A3B559",
"t. c #A4B55B",
"y. c #A4B35C",
"u. c #A5B95D",
"i. c #838964",
"p. c #868B6C",
"a. c #879163",
"s. c #8B9463",
"d. c #8B926B",
"f. c #879B68",
"g. c #949A65",
"h. c #919B6F",
"j. c #989C6A",
"k. c #8D9571",
"l. c #8E9D72",
"z. c #8E927E",
"x. c #939A74",
"c. c #8FA664",
"v. c #86A865",
"b. c #85A369",
"n. c #8AA56F",
"m. c #8CAB69",
"M. c #9AA661",
"N. c #94AB62",
"B. c #94A16C",
"V. c #9AA568",
"C. c #9BAB6B",
"Z. c #9CBF60",
"A. c #94B269",
"S. c #86A372",
"D. c #9CA872",
"F. c #9AA27C",
"G. c #99B074",
"H. c #A2AF62",
"J. c #A6B562",
"K. c #A7B562",
"L. c #A8B665",
"P. c #A6BA61",
"I. c #A9BC64",
"U. c #A6B36A",
"Y. c #A9B66A",
"T. c #AAB96A",
"R. c #A2AC76",
"E. c #A5B577",
"W. c #AAB676",
"Q. c #ACBA73",
"!. c #A2B77A",
"~. c #ACBA7C",
"^. c #B0BB74",
"/. c #9FC060",
"(. c #A3C361",
"). c #ABC067",
"_. c #ADC26B",
"`. c #8D8E87",
"'. c #999C86",
"]. c #93938B",
"[. c #979994",
"{. c #9D9D9A",
"}. c #9DA481",
"|. c #9DA18A",
" X c #A2A48E",
".X c #AEBA86",
"XX c #ADB38B",
"oX c #AFBA8A",
"OX c #A2A592",
"+X c #A1A29E",
"@X c #AAAC9E",
"#X c #ACB29A",
"$X c #B1B492",
"%X c #AAABA4",
"&X c #ADAEAB",
"*X c #AFB1AF",
"=X c #B1B3A9",
"-X c #B7B7B6",
";X c #BCBCBC",
":X c #B5C086",
">X c #C5C5C5",
/* pixels */
"e.q.q.q.q.q.q.q.q.q.o.o.T o.o.7.q.7.6.7.7.6.7.7.q.q.q.q.q.q.q.q.q.q.q.q.q.q.q.q.7.w.t.L.6.6.7.7.7.7.w.T.q.q.K.L.y.8.1.q.7.6.&.q.",
"r.q.q.q.7.q.q.q.q.q.q.q.q.q.q.q.q.q.q.7.7.6.7.I.q.q.q.q.q.q.1.:.q.q.q.q.q.7.7.7.7.7.q.q.6.6.6.6.6.6.7.q.q.K.8.w.8.8.>.q.7.6.7.q.",
"r.r.w.q.6.6.7.7.7.7.q.t.q.r.u.q.q.t.t.K.q.q.q._.q.q.q.q.7.q.-.#.q.q.>.q.t.q.6.6.7.q.e.6.6.7.6.6.6.6.7.q.;.;.<.q.q.<.<.;.7.q.q.q.",
"q.q.7.q.7.6.6.6.;.6.6.7.7.7.q.q.q.q.q.K.L.q.q.q.2.q.q.q.7.q.) Z q.q.-.:.e.e.7.t.q.7.t.;.6.7.6.6.6.6.>.7.6.;.1.7.<.<.q.7.o.#.S q.",
"t.q.7.q.q.q.7.7.6.&.;.6.6.u.I.q.K.q.q.q.1.:.q.q.;.1.q.7.7.q.( Z q.q.~ q.6.6.8.I.t.7.t.6.6.6.6.7.7.7.;.6.7.7.7.;.;.>.1.7.q.q.>.q.",
"r.r.t.q.L.e.q.q.;.q.q.q.6.P.t.q.q.7.7.;.>.q.q.q.%.6.q.;.q.q.:.Z *.:.) q.>.6.y.w.7.;.q.r.>.6.6.y.8.8.7.;.;.6.7.7.7.6.q.q.q.q.q.t.",
"q.t.t.q.T.e.q.q.q.w.y.q.q._.q.7.7.7.6.O.:.7.7.;.' 6.7.;.q.q.q.S >.q.7.q.q.6.7.;.] ;.7.6.] ;.7.6.8.-.<.j 8.;.7.6.6.7.w.t.q.q.q.r.",
"q.q.t.L.T.q.q.q.q.K.L.q.1.2.q.q.w.7.7.>.:.;.;.-.) 7.7.6.q.q.q.q.q.q.7.7.t.8.q.7._ ;.) @.&.7.;.` ' ;.O.R 1.o.;.7.6.I.).q.7.7.>.1.",
"q.q.q.K.w.1.,.<.q.L.q.I.t.1.q.q.w.q.7.q.q.6.6.-.) q.6.7.q.w.w.L.t.7.7.6.;.6.7.;.] o.;.q.6.;.>.~ / ;.;.` ^ ;.;.7.w.).6.7.7.7.<.<.",
"q.q.q.Y.q.1.+.+.7.q.q.t.1.t.e.q.q.q.7.7.q.q.6.' ) q.q.q.w.w.L.K.q.;.;.1.%.7.t.6.;.) 7.t.8 ' ;.B B o.' ^ a o.;.:.6.7.7.7.q.q.7.7.",
"q.>.<.q.q.7.<.,.7.q.q.q.w.}.#XOX) q.q.6.7.7.7.q.e.7.q.q.y.K.K.q.q.7.] >.' 6.O.q.:.~ ;.7.' o.k / d ' ) a -.;.~ ;.;.7.y.7.q.q.q.q.",
"q.<.+.q.q.7.7.w.L.t.w.q.}.=X&XOX|.k.^ +.7.q.e.q.q.q.q.q.y.w.q.q.q.q.;.] ' 6.6.>.] %.O.&.6.7.N W A ) ~ d >.' ;.6.7.7.L.q.q.7.>.1.",
"q.1.>.q.*.-.7.q.t.t.w.u t p.z.p.'.p.V M.,.-.L.t.t.q.>.>.q.>.q.q.q.q.7.;.;.q.q.6.E ] ] ] <.K.>.W 9 A x k ) ' >.6.7.7.K.q.7.7.<.<.",
"q.q.q.q.#.#.6.7.q.q.,.o.e e 0 r e t T o.` ,.L.t.e.q.#.*.r.( -.q.q.q.7.7.;.q.q.;.] ;.` ] ;.7.;./ B & a 5 B ;.7.7.6.7.7.K.7.q.7.7.",
"t.t.q.q.>.( ;.;.7.q.q.w.<.o.| { Y h Y o.` ' 7.7.q.q.q.A q.A A q.q.7.7.7.6.>.>.;._ ;.) ;.&.7.;.` / % 5 m ` ;.>.>.6.7.q.7.7.q.q.q.",
"t.K.q.q.>.( >.7.w.r.q.t.t.e.y.e.e.K.w.>.;.>.>.1.t.r.q.)  .>.s q.q.7.7.7.7.>.:.6.] ] ) ;.;.>.>.O./ / ` -.;.;.7.6.7.7.q.q.q.q.q.T.",
"t.K.q.q.q.q.q.q.t.q.w.K.t.K.y.w.q.q.6.7.8.q.q.q.u.q.q.1.Z *.z q.V j h ..f , B 1.>.' ' >.&.;.;.6.6.>.7.7.6.7.q.7.7.6.6.q.>.>.>.T.",
"t.L.q.q.q.q.7.7.t.q.q.q.u.q.8.7.7.6.;.7.t.L.e.q.t.q.q.1.Z #.7.; [ : M | l p V 7 j O.' &.8.6.7.6.6.q.7.>.r.I.Q.U.>.6.;.>.:.q.:.q.",
"q.q.q.7.q.t.6.7.t.q.q.q.P.q.7.7.7.6.;.7.q.T.^.K.q.q.u.q.*.s $ * . @ 1 9 :.9 4 : w ;.6.7.7.8.7.7.6.w.2.>.u.~.E.C.:.1.%.%.:.#.#.q.",
"q.q.q.7.q.7.7.q.q.q.t.*.:.q.7.q.7.7.7.q.q.w.t.q.q.q.I.t.I.A / X   # . $ h 2 o * + o.-.6.7.e.e.e.7.2.:.:.n.G.A.=.J <.%.#.:.#.2.r.",
"q.q.q.7.7.e.q.w.>.q.t.q.t.t.q.q.t.u.>.q.t.t.q.q.6.e.t.w.u.t.q.<.,.o.o.,.,.q.o.:.>.7.-.7.7.q.w.t.q.2.:.! D f.!.L n S.Z S 2.Z N.1.",
"q.w.K.7.7.t.q.q.).q.q.q..XQ.W.K.:.>.:.w.7.7.q.q.>.t.t.q.q.P.r.q.,.<.<.q.r.7.7.K.U...B.1.7.7.7.;.:.u.u.) Z 3.P.( z b.C Z (.! N.K.",
"e.w.K.q.q.r.q.q.P.I.w.oX_.I.Y.l.( ) :.q.7.-.q.6.;.7.q.q.q.r.r.t.q.q.7.7.7.7.K.K.U.G g.V.q.7.7.;.F q.(.F ( N.4. .z v.F A Z.K c.I.",
"u.q.q.q.q.q.>.u.P.t.}.h.+.K.R.s. .q.-.q.q.>.q.;.;.;.>.6.q.q.q.K.Y.~.Q.7.w.K.K.1.H.M.,.;.1.7.7.7. .-.u.*.:.N.:.) s #.S A /.} b.q.",
"I.w.t.7.6.7.) q.4.P.,.P s.c.C...o.>.:.q.w.-.6.>.;.7.;.] 7.r.q.w.q.T.Q.q.u.r.1.1.<.<.;.;.:.7.6.6.r.*.P.*.( N.4.) s ~ ( Z #.B 1.P.",
"t.q.e.q.7.6.' 1.4.>.*.:.1.u.t.;.;.r.>.>.w.:.6.1.2.;.q.;.6.q.q.q.q.q.q.q.u.t.7.>.>.1.1.q.7.7.7.;.>. .2.*.) N.2.( z Z -.:.D v t.I.",
").e.K.7.6.7.:.>.-.,.-.2.t.e.;.:.1.7.>.7.:.:.>.1.q.;.q.q.q.q.q.q.q.t.q.w.t.q.q.7.7.7.1.-.q.7.7.7.7.:.:. . .N.:.*.A ) ) %.-.,.r.P.",
"u.q.q.7.7.6.:.-.;.>.-.q.r.6.;.>.>.) Z Z A Z 7.7.7.q.q.-.-.*.r.q.q.L.q.e.w.q.q.q.) >.1.A :.:.7.:.-.>.:. .7.w.4.-.-.) ~ ' 1.7.q.r.",
"q.q.q.t.w.q.q.>.7.7.:.>.7.-.-.( ) A Z A q.! S q.q.7.7.1.1.( *.q.u.u.q.q.q.q.q.q.#.#.q.>.( ( q.( -.;.1.:.-.>.w.1.' ) -.8.K.-.w.q.",
"t.t.q.q.1.>.>.q.q.q.q.t.7.>.>.( *.#.A A q.q.>.q.q.q.q.q.r.q.q.q.u.q.q.q.q.>.*.*.-.Z >.>.c $.-.*.7.7.7.1.;.>.r.7.;.o.-.y.K.-.1.q.",
"q.q.q.>.#.( ( q.q.q.q.q.7.7.7.q.q.q.q.K.w.q.q.q.-Xw.q.q.r.7.8.7.t.q.q.q.1.#.*.*.1.A ( >.d ) N W q.q.q.7.;.q.P.q.q.( >.t.q.7.q.q.",
"q.q.q.q.q.q.q.q.7.t.r.7.7.7.7.q.q.q.Q.:XT.q.q.;X>X;X&Xq.q.7.8.7.u.q.q.q.q.q.q.q.q.*.W W 5 m m Q q.7.6.q.q.t.u.r.q.q.q.q.q.q.q.q.",
"q.q.q.q.q.q.q.q.7.w.t.L.6.6.7.7.7.7.w.T.q.7.-X;X*X{.z.K.q.6.&.q.e.q.q.q.q.q.q.q.q.q.o.o.T o.o.7.q.7.6.7.7.&.6.7.q.q.q.q.q.q.q.q.",
"q.q.q.q.q.7.7.7.7.7.q.q.6.6.6.6.6.7.7.q.q.%X{.+X+X+Xp.q.7.7.7.q.r.q.q.q.7.q.q.q.q.q.q.q.q.q.q.q.q.q.q.7.7.6.6.I.q.q.q.q.q.q.1.:.",
"q.7.>.q.t.q.6.6.7.q.e.6.6.7.6.6.6.6.7.q.7.[ ].[.`.i [ >.7.q.q.q.r.r.w.q.6.6.7.7.7.7.q.t.q.r.u.q.q.t.t.K.q.q.q._.q.q.q.q.7.q.:.:.",
"q.q.-.:.e.t.7.t.q.7.t.;.6.7.6.6.6.6.6.7.7.<.o...M ,.q.q.Z Z S q.q.q.7.q.7.6.6.6.;.6.6.7.7.7.q.q.q.q.q.K.L.q.q.q.2.q.q.q.7.q.%.>.",
"q.7.~ q.6.6.8.I.t.7.t.6.6.6.6.7.7.7.6.6.7.q.7.;.;.>.1.7.q.q.>.q.t.q.7.q.q.q.7.7.6.&.;.6.6.u.I.q.K.q.q.q.1.:.q.q.;.1.q.7.7.q.:.>.",
"*.;.) q.>.6.y.w.7.;.q.r.>.6.6.y.8.8.7.;.;.6.7.7.7.6.q.q.q.q.q.t.r.r.t.q.L.e.q.q.;.q.q.q.6.P.t.q.q.7.7.;.>.q.q.q.%.6.q.;.q.q.7.>.",
">.q.7.q.q.6.7.;.] 6.7.6.] ;.7.>.8.X.g.j 8.;.7.6.6.7.w.t.q.q.q.r.q.t.t.q.T.e.q.q.q.w.y.q.q._.q.7.7.7.6.O.:.7.7.;.' 6.7.;.q.q.q.:.",
"q.q.7.7.t.8.q.7._ ;.) @.&.7.l 8 U { U j j.{ ;.7.6.I.).q.7.7.>.1.q.q.t.L.T.q.q.q.q.K.L.q.1.2.q.q.w.7.7.>.:.;.;.-.) 7.7.6.q.q.q.q.",
"t.7.7.6.;.6.7.;.] o.;.q.;.U { M M I 7 > q q ;.7.w.).6.7.7.7.<.<.q.q.q.K.w.1.,.<.q.L.q.I.t.1.q.q.w.q.7.q.q.6.6.-.) q.6.7.q.w.w.L.",
"q.;.;.1.%.7.e.6.;.) 7.t.8 6 8 3 3 3 - + O % O.;.6.7.7.7.q.q.7.7.q.q.q.Y.q.1.+.+.7.q.q.t.1.t.e.q.q.q.7.7.q.q.6.' ) q.q.q.w.w.L.K.",
"q.7.] >.' 6.O.q.:.~ ;.7.` 6 = < $ : = q o.;.;.;.;.7.y.7.q.q.q.q.q.>.<.q.q.7.<.,.7.q.q.q.w.}.}.x./ q.q.6.7.7.7.q.e.7.q.q.y.K.K.q.",
"q.q.;.] ' 6.6.>.] %.O.] 6.5.Y Q Q &.%.) >.%.;.6.7.7.L.q.q.7.>.>.q.<.+.q.q.7.7.w.L.t.w.q.F.}.a.a.x.d.^ +.7.q.e.q.q.q.q.q.y.w.q.q.",
"q.q.7.>.;.q.q.6.E ] ] ] <.y.' Q T ~ ) ) ' ' >.6.7.7.K.q.7.7.<.<.q.>.>.q.*.-.7.q.t.t.w.u t y H H i.i.V M.,.-.L.t.t.q.>.>.q.>.q.q.",
"q.q.7.7.;.q.q.;.] ;.` ] ;.7.%.Q / B ^ / ^ ;.7.7.6.7.7.K.7.q.7.7.q.q.q.q.#.#.6.7.q.q.,.o.e e 0 r e t T o.` ,.L.t.e.q.%.*.r.( -.q.",
"q.7.7.7.6.>.>.;._ ;.) ;.5.7.;.' ' M T ^ ` ;.>.>.6.7.q.7.7.q.q.q.t.t.q.q.>.( ;.;.7.q.q.w.<.o.| { Y h Y o.` ' 1.7.q.q.q.A q.A A q.",
"7.7.7.7.7.>.:.6.] ] ) ;.;.>.>.O.` ` ' ;.;.;.7.6.7.7.q.q.q.q.q.T.t.L.q.q.>.( >.7.w.r.q.t.t.e.y.e.e.K.w.>.;.>.>.7.t.r.q.)  .>.s q.",
"-.` h ..f , B 1.>.' ' >.&.;.;.6.6.>.7.7.7.7.q.7.7.6.7.q.>.>.>.L.t.K.q.q.q.q.q.q.t.q.w.K.t.K.y.q.q.q.6.7.8.q.q.q.u.q.q.1.Z *.x q.",
",.g M | l p V 7 j O.' &.8.6.7.6.6.q.q.>.r.I.Q.U.>.7.;.>.:.q.:.q.t.L.q.q.q.q.7.7.t.q.q.q.u.q.8.7.7.6.;.7.t.L.e.q.t.q.q.1.Z #.2.-.",
". @ 1 9 :.9 4 : w ;.6.7.7.8.7.7.6.w.2.>.u.~.E.C.:.1.%.%.:.#.#.q.q.q.q.7.q.t.6.7.t.q.q.q.P.q.7.7.7.6.;.7.q.T.^.K.q.q.u.q.*.s Q ;.",
"j # . $ h 2 o * + o.-.6.7.e.e.e.7.2.:.:.n.G.A.=.J M.%.#.:.#.2.r.q.q.q.7.q.7.7.q.q.q.t.*.:.q.7.q.7.7.7.q.q.w.t.q.q.q.I.t.I.A o.;.",
"<.o.o.,.,.q.o.:.>.7.-.7.q.q.w.t.q.2.:.! D f.!.L n S.Z S 2.Z N.1.q.q.q.7.7.e.q.w.>.q.t.q.t.t.q.q.t.u.>.q.t.t.q.q.6.e.t.w.u.t.q.>.",
",.<.<.q.r.7.7.U.$X'.B.>.q.q.q.;.:.t.u.( Z 3.P.( z b.b Z (.! N.K.q.w.K.7.7.t.q.q.).q.q.q..XQ.W.K.:.>.%.2.7.7.q.q.>.t.t.q.q.P.r.q.",
"q.q.q.7.7.7.XX=X%X@X XD.q.7.7.;.F 7.(.Z ( N.4. .z v.F A Z.K c.I.e.w.K.q.q.r.q.q.P.I.w.oX_.I.Y.l.( ) ~ q.7.o.q.6.;.7.q.q.q.r.r.t.",
"Y.~.Q.7.q.y.R.OX@XOX].-.1.7.7.7. .( u.( :.m.*.( s #.! A /.} b.q.u.q.q.q.q.q.>.u.I.t.}.h.+.K.R.d. .q.( 7.t.*.q.;.;.;.>.6.q.q.q.K.",
"q.T.Q.q.u.r.B.D.g.d.T ;.:.7.6.6.r.Z (.( ( m.4.( s ~ ( Z #.B 1.P.I.w.t.7.6.7.) q.P.I.,.P a.G.F.H o.;.( e.y.W 6.>.;.7.;.] 7.r.q.w.",
"q.q.q.q.u.t.>.;.<.1.1.7.7.7.7.;.>.C -.D ( m.4.( z Z -.:.D v t.I.t.q.e.q.7.6.' 1.P.2.*.:.1.).P.-.:.K.' ' K.W 6.1.2.;.q.;.6.q.q.q.",
"q.t.q.q.t.q.q.7.7.7.1.-.q.7.7.7.7.( A C  .m.:.( A ) ) %.-.,.r.P.).e.K.7.6.7.:.>.o.+.-.2.I.I.o.-.1.7.&.>.^ D >.1.q.;.q.q.q.q.q.q.",
"q.L.q.q.w.q.q.q.) :.1.A :.:.7.:.-.<.( s 7.q.1.*.-.) ~ ' 1.7.q.r.u.q.q.7.7.6.:.-.;.>.-.q.r.7.<.>.>.) k A W B 7.7.7.q.q.-.-.*.r.q.",
"u.u.q.q.q.q.7.q.#.#.q.>.( ( q.( -.;.1.:.;.>.w.>.' ) -.8.K.,.w.q.q.q.q.t.w.q.q.>.7.;.:.>.7.:.-.( ) A Z A q.! S q.q.7.7.1.1.( *.q.",
"u.q.q.q.q.>.*.*.-.Z >.>.c $.-.*.7.7.7.1.;.>.r.7.;.o.-.y.K.,.1.q.t.t.q.q.1.>.>.q.q.q.q.t.7.>.>.( *.#.A A q.q.>.q.q.q.q.q.r.q.q.q.",
"t.q.q.q.1.#.*.*.1.A ( >.d ) N W q.q.q.7.;.q.P.q.q.( >.t.w.7.q.q.q.q.q.>.#.( ( q.q.q.q.q.7.7.7.q.q.q.q.e.q.q.q.q.Y.q.q.q.r.7.8.7.",
"u.q.q.q.q.q.q.q.q.#.W W 5 m m Q q.7.6.q.q.t.u.r.q.q.q.q.q.q.q.q.q.q.q.q.q.q.q.q.7.t.t.7.7.7.7.q.q.q.Y.L.t.q.q.K.w.q.K.7.q.7.8.7."
};
