/* XPM */
static const char *taiga[] = {
/* columns rows colors chars-per-pixel */
"64 64 191 2 ",
"   c #35531E",
".  c #36591D",
"X  c #3D5E24",
"o  c #3E572C",
"O  c #3E5832",
"+  c #3E6838",
"@  c #425C2C",
"#  c #445C32",
"$  c #43602A",
"%  c #48662E",
"&  c #45682C",
"*  c #4D6D2F",
"=  c #4E752F",
"-  c #4A6734",
";  c #496931",
":  c #4E663A",
">  c #476A3C",
",  c #566F36",
"<  c #516D39",
"1  c #4C7131",
"2  c #49733E",
"3  c #477D3F",
"4  c #4D793F",
"5  c #537335",
"6  c #597635",
"7  c #5B7937",
"8  c #54753C",
"9  c #577939",
"0  c #5B7C3E",
"q  c #586F45",
"w  c #54614B",
"e  c #58654F",
"r  c #5C6D4F",
"t  c #4F7741",
"y  c #457C40",
"u  c #4C7D42",
"i  c #4E794D",
"p  c #537343",
"a  c #5A7643",
"s  c #547B43",
"d  c #5C7B43",
"f  c #5C7448",
"g  c #5E7B49",
"h  c #596651",
"j  c #5D6B53",
"k  c #5D7A54",
"l  c #617D45",
"z  c #617E4C",
"x  c #627255",
"c  c #687E55",
"v  c #677B5B",
"b  c #6A7A5E",
"n  c #6C7569",
"m  c #727F69",
"M  c #4F8145",
"N  c #498943",
"B  c #548246",
"V  c #5A8447",
"C  c #538349",
"Z  c #5B854A",
"A  c #5E894B",
"S  c #5A994B",
"D  c #5E8755",
"F  c #5B9054",
"G  c #5F9957",
"H  c #648446",
"J  c #63844B",
"K  c #6A854D",
"L  c #638C4D",
"P  c #6A8D4E",
"I  c #758D4B",
"U  c #6C944E",
"Y  c #789147",
"T  c #74944E",
"R  c #72994F",
"E  c #7C9D4E",
"W  c #628251",
"Q  c #6A8552",
"!  c #648C52",
"~  c #6C8D52",
"^  c #67855B",
"/  c #6C8459",
"(  c #608A5A",
")  c #6D885A",
"_  c #718755",
"`  c #728D56",
"'  c #679151",
"]  c #6C9352",
"[  c #6E9B52",
"{  c #6F9D5E",
"}  c #729553",
"|  c #749C53",
" . c #799D51",
".. c #73945A",
"X. c #729D5D",
"o. c #799D5B",
"O. c #7EA04E",
"+. c #6DA15A",
"@. c #75A252",
"#. c #7BA452",
"$. c #75AA55",
"%. c #7BAA53",
"&. c #71A15B",
"*. c #7CA459",
"=. c #76AF5D",
"-. c #7DAD5A",
";. c #7EB056",
":. c #74B25B",
">. c #7DB058",
",. c #7EB059",
"<. c #6E8461",
"1. c #6C8D63",
"2. c #738465",
"3. c #758D61",
"4. c #738169",
"5. c #798C6A",
"6. c #639660",
"7. c #699563",
"8. c #6B9B62",
"9. c #6C976B",
"0. c #6E9868",
"q. c #749662",
"w. c #7C9462",
"e. c #7E9F61",
"r. c #75916B",
"t. c #7B916B",
"y. c #7B9868",
"u. c #7C8775",
"i. c #7F8A76",
"p. c #71A565",
"a. c #79A064",
"s. c #7BA26C",
"d. c #80A753",
"f. c #81A953",
"g. c #81AA54",
"h. c #84AA59",
"j. c #81AD5A",
"k. c #82AD5B",
"l. c #82AE5A",
"z. c #83AE5D",
"x. c #85AF5F",
"c. c #81B25D",
"v. c #83B55F",
"b. c #809A66",
"n. c #839D6A",
"m. c #81847E",
"M. c #858E7C",
"N. c #819672",
"B. c #849975",
"V. c #879A79",
"C. c #889A7A",
"Z. c #81A167",
"A. c #84AD62",
"S. c #85A569",
"D. c #85A96F",
"F. c #8AAD6B",
"G. c #86B061",
"H. c #85B362",
"J. c #89B165",
"K. c #86B964",
"L. c #87BA66",
"P. c #8BB26B",
"I. c #90B46C",
"U. c #87A371",
"Y. c #89A272",
"T. c #82AA72",
"R. c #89AD75",
"E. c #90B272",
"W. c #92B07C",
"Q. c #98B87C",
"!. c #868882",
"~. c #8B8E8A",
"^. c #8C9782",
"/. c #909B86",
"(. c #91948E",
"). c #939B8A",
"_. c #939492",
"`. c #959894",
"'. c #999E94",
"]. c #9A9C98",
"[. c #96AB81",
"{. c #99A78F",
"}. c #9CAC88",
"|. c #94B080",
" X c #9BA492",
".X c #9FA39B",
"XX c #A1A69E",
"oX c #A3A89C",
"OX c #A2A3A2",
"+X c #ACACAC",
"@X c #B3B3B3",
/* pixels */
"%.%.%.%.%.%.%.%.%.%.] ] z ..] %.%.%.#.%.%.#.#.#.%.%.%.%.%.%.%.%.%.%.%.%.%.%.%.%.#.%.;.c.#.#.#.%.#.#.%.G.%.%.x.x.%.%.#.%.%.#.E %.",
"%.%.%.%.#.%.%.%.%.%.%.%.%.%.%.%.%.%.%.%.%.#.#.c.%.%.%.%.%.%.@.| %.%.%.%.%.%.#.#.#.#.%.%.#.#.#.#.#.#.#.%.%.z.#.%.#.%.#.%.#.#.#.%.",
"%.%.%.%.#.#.%.%.#.%.%.-.%.%.>.%.%.%.%.x.%.%.%.L.%.%.%.%.%.%.] L %.%.@.#.%.%.#.#.#.%.%.#.#.#.#.#.#.#.#.%.E  . .%.%. .| #.#.%.%.%.",
"%.%.#.%.%.#.#.#.#.#.#.%.#.%.%.%.%.%.%.l.x.%.%.%.%.%.%.%.%.%.L B %.%.] } %.%.#.%.%.%.%.#.#.#.#.#.#.#.#.#.#.#.#.#.|  .%.#.] L Z %.",
"%.%.#.%.%.%.#.#.#.E #.#.#.>.v.%.l.%.%.%.@.| %.%.| #.%.%.%.%.A B %.%.A %.#.#.f.G.%.#.%.#.#.#.#.#.#.#.#.#.#.%.%. .| #.#.%.%.%.@.%.",
"%.%.%.%.x.%.%.%.#.%.%.%.#.-.-.%.%.%.%. .@.%.%.%.U #.%.#.%.%. .M '  .L %.#.#.%.%.#. .%.%.#.#.#.l.g.h.d.#.#.#.#.#.#.#.%.%.%.%.%.%.",
"%.%.%.%.J.%.%.%.%.%.%.%.%.L.%.%.%.%.#.| [ #.%.| } #.#.#.%.%.%.Z @.%.%.%.%.#.f. .E  .%.#.E #.#.#.%. .o.0 h.E #.#.#.#.%.%.%.%.%.%.",
"%.%.%.A.G.%.%.%.%.x.G.%.@.@.%.%.%.%.%.@.| E #.] P #.%.#.%.%.%.%.%.%.%.%.l.%.%.%.Y | P E E %.| P }  .} K *...#.#.#.v.L.%.%.#.@.@.",
"%.%.%.l.%.@.| | %.G.%.c.%.@.%.%.%.%.%.%.%.#.#.] L %.#.#.%.%.%.G.%.#.#.#.| #.%. .E ] | %.#.| @.L ~  .| P J |  .#.%.L.#.%.%.#.| | ",
"%.%.%.G.%.#.....#.%.%.%.@.l.%.%.%.%.%.#.%.%.#.U L %.%.%.%.%.x.l.%.#.#.#.] #.%.#. .L %.%.7 } | s d } U J 2 ]  .| #.%.#.%.%.%.#.#.",
"%.@.@.%.%.%. ...#.%.%.%.%.V.{./.~ %.%.#.#.%.%.%.%.%.%.%.%.l.x.%.%.#.E #.U #. .%.| L  .#.T } s L 4 } K 2 ] #.L #.#.#.%.%.%.%.%.%.",
"%.| ..%.%.#.%.%.c.l.%.%.C.XX.X).^.5.J ..%.%.%.%.%.%.%.%.%.%.%.%.%.%.E E U #.#.#.} U } E #.#.s Z B L L t  .U  .#.#.%.x.%.%.%.@.@.",
"%.@.@.%.' ] #.%.%.l.%.x j m i.4.M.2.g o.} } x.l.%.%.@.| %. .%.%.%.%.%.#. .%.%.#.I E T T *.l.#.J 8 V u t P ] #.#.#.#.x.%.%.#.| | ",
"%.%.%.%.' ' #.%.%.%...~ e h w j h r W ..U | A.l.%.%.] ' %.A ] %.%.%.%.#. .%.%.#.T  .P T  .#.| K s + 2 > g  .%.%.#.%.#.l.#.%.#.#.",
"%.%.%.%.@.A #.#.%.%.%.%.| ..Q Q l a H ~ ~ ] %.#.%.%.%.Z %.B B %.%.%.#.%.#.#.@.#.T E P  .E #. .T K O > p ~ | #.#.#.%.%.#.%.%.%.%.",
"%.x.%.%.@.A #.%.%.%.%.l.l.%.-.%.%.l.%. . . .#.%.%.%.%.L ! @.3 %.%.%.#.%.#.#. .#.E E L  . .#.#.} K K P |  .| %.#.#.#.%.%.%.%.%.J.",
"l.l.%.%.%.%.%.%.%.%.%.l.l.x.l.%.%.%.#.%.%.%.%.%.>.%.%.#.M ' u %.g a 8 ) 8 1 g #.#.T P  .E #.#.#.#.#.%.%.#.#.%.%.#.#.#.%.@.@.@.G.",
"%.x.%.%.%.%.%.%.%.%.%.%.>.%.g.%.%.#.E #.l.x.%.%.%.%.%.#.B L #.& / * a ) 0 = g 5 0 } T E g.#.%.#.#.%.%.@.%.v.P.A.@.#. .@.| %.[ %.",
"%.%.%.#.%.%.#.%.%.%.%.%.>.%.#.%.#.#.E #.%.G.I.l.%.%.c.%.' 3 @ $   $ : 8 } 8 < ; f  .#.#.#.%.%.#.#.%.@.@.>.R.D.a.[ @.U ' [ L A %.",
"%.%.%.#.%.#.#.#.#.%.l.] [ %.%.%.%.#.%.%.%.%.%.%.%.%.c.%.v.B ~ .   o   @ a - X $ @ } ] #.#.%.%.%.#.@.| [ 0.s.p.G D o.U L [ L @.%.",
"%.%.%.%.%.%.%.#.| %.l.%.l.l.%.%.%.>.@.%.%.%.%.%.#.%.%.%.>.%.%.| | ] ~ | | %.} } #.%.] %.#.%.%.l.%.$.[ A Z 1.T.F i 9.C V $.B X.#.",
"%.%.l.%.%.%.%.%.G.%.%.%.W.P.F.-.] @.[ %.%.%.%.%.#.%.-.%.%.>.%.%.| | | %.%.%.%.z.A.^ q.#.#.#.%.| | -.$.L B +.:.A u 7.u B :.Z X.-.",
"%.%.l.%.%.%.%.%.>.v.%.|.L.c.F.r.A L ] %.#.| %.#.#.#.%.%.%.%.%.%.%.%.%.#.%.%.z.A.z.k ..e.%.%.#.| Z %.>.Z A &.$.! u 6.Z Z :.( 8.v.",
">.%.%.%.%.%.@.>.>.-.V.t...-.S.3.~ %.] %.%.| %.|  .#.#.#.%.%.%.l.G.E.P.%.%.l.z.*.z.*.o. .#.%.#.%.! [ -.! [ { [ ! 3 ' V B :.W 7.%.",
"c.%.l.%.#.#.L %.%.-...v ) q.Z.) ..#.| %.%.| #.@.#.#. .E #.%.%.%.%.J.P.%.%.%.@.*.o.o.| |  .%.#.#.%.! >.] A X.$.! 3 A A u L s #.>.",
"%.%.%.%.#.#.P #.$.@.] | #.-.%.| | %.@.@.%.| #.@.%.#.%.#.#.%.%.%.%.%.%.%.>.%.#.#.@.#.#.#.%.%.%.#.@.! $.' L 8.@.J u B [ | Z p %.c.",
"G.%.x.%.#.#.| | | } ] #.-.%. .| @.%.#.#. . .#.#.%. .%.%.%.%.%.%.%.%.%.%.%.%.%.%.%.%.@.] %.%.%.#.#.[ [ ! ] { [ ] Z L ! U | ..%.>.",
">.%.%.%.#.#.| ]  .#.] %.%.#.#.@.#.L B B B B #.%.%.%.%.] ] ' %.%.%.c.%.%.%.%.%.%.L @.@.Z |  .%.| ] #.| ! #.%.$.] | L L ] @.#.%.%.",
"%.%.%.l.%.%.%.#.%.#.| #.%.] ] A L B s Z %.Z Z %.%.%.%.@.#.A ' %.>.>.%.%.%.%.%.%.L ' %.@.A A %.A ] #.@.|  .@.%.@.] L } %.x.| %.%.",
"l.%.%.%.@.@.@.%.%.%.%.%.%.@.@.Z ] L B B %.%.@.%.%.%.%.%.%.%.%.%.>.%.%.%.%.@.' ' ] B @.@.N S ] ' #.#.#.#. .#.%.#. .] ] *.x...#.%.",
"%.%.%.@.' A A %.%.%.%.%.#.#.%.%.%.%.%.l.%.%.%.%.+X%.%.%.%.%.f.%.%.%.%.%.@.L ' ] #.Z A @.t L t V %.%.%.%. .%.>.%.%.A  .%.%.%.%.%.",
"%.%.%.%.%.%.%.%.%.%.%.%.#.#.%.%.%.%.P.Q.P.%.%.@X@X+XOX#.%.#.g.%.%.%.%.%.%.%.%.%.%.' Z Z > a p J %.%.#.%.%.%.-.%.%.%.%.%.%.%.%.%.",
"%.%.%.%.%.%.%.%.#.%.;.c.#.#.#.%.#.#.%.G.%.%.+X+XOX_.u.l.%.#.E %.%.%.%.%.%.%.%.%.%.%.] ] z ..] %.%.%.#.%.%.E #.#.%.%.%.%.%.%.%.%.",
"%.%.%.%.%.%.#.#.#.#.%.%.#.#.#.#.#.#.#.%.%.].(.`.`._.2.%.%.#.#.%.%.%.%.%.#.%.%.%.%.%.%.%.%.%.%.%.%.%.%.%.%.#.#.v.%.%.%.%.%.%.@.@.",
"%.%.@.#.%.%.#.#.#.%.%.#.#.#.#.#.#.#.#.%.#.c !.~.m.n c @.%.%.%.%.%.%.%.%.#.#.%.%.#.%.%.-.%.%.>.%.%.%.%.x.%.%.%.L.%.%.%.%.%.%.| @.",
"%.%.] } %.%.#.%.%.%.%.#.#.#.#.#.#.#.#.#.#. .~ ) a ..%.%.B B Z %.%.%.#.%.%.#.#.#.#.#.#.%.#.%.%.%.%.%.%.l.x.%.%.%.%.%.%.%.%.%.[ @.",
"%.%.A %.#.#.f.G.%.#.%.#.#.#.#.#.#.#.#.#.#.%.%.| | #.#.%.%.%.@.%.%.%.#.%.%.%.#.#.#.E #.#.#.;.v.%.l.%.%.%.@.| %.%.| #.%.%.%.%.] @.",
"'  .L %.#.#.%.%.#. .%.%.#.#.#.l.l.h.d.#.#.#.#.#.#.#.%.%.%.%.%.%.%.%.%.%.c.%.%.%.#.%.%.%.#.-.-.%.%.%.%. .@.%.%.%.U #.%.#.%.%.#.@.",
"@.%.%.%.%.#.f. .E  .%.#.E  .#.#.g.` w.0 h.E #.#.#.#.%.%.%.%.%.%.%.%.%.%.J.%.%.%.%.%.%.%.%.L.%.%.%.%.#.| [ #.%.| } #.#.#.%.%.%. .",
"%.%.%.%.l.%.%.%.Y | P E E #.0 6 l Q J d w._ #.#.#.v.L.%.%.#.@.@.%.%.;.A.G.%.%.%.%.x.G.%.@.@.%.%.%.%.%.@.| E #.] P #.%.#.%.%.%.%.",
"%.#.%.#.| #.%. .E ] | %.#.H K l l l 5 * q a  .#.%.L.#.%.%.#.| | %.%.%.l.%.@.| | %.G.%.c.%.@.%.%.%.%.%.%.%.#.#.] L %.#.#.%.%.%.G.",
"%.#.#.#.] #.%.#. .L %.%.6 , 6 : < < % @ o # |  .#.%.#.%.%.%.#.#.%.%.%.G.%.#.....#.%.%.%.@.l.%.%.%.%.%.#.%.%.#.U L %.%.%.%.%.x.l.",
"%.#.E #.U  . .%.| L  .#.T , $ - @ * $ a `  .| #.#.#.%.%.%.%.%.%.%.@. .%.%.%. ...#.%.%.%.%.V.V.5.L %.%.#.#.%.%.%.%.%.%.%.%.l.x.%.",
"%.%.E E U #.#.#.} R } E #.O.H J K | } P #.}  .#.#.%.x.%.%.%.@.@.%.| ..%.%.#.%.%.c.l.%.%.N.V.<.<.t.2.J ..%.%.%.%.%.%.%.%.%.%.%.%.",
"%.%.%.#. .%.%.#.I E T T *.l.R H J L L ~ ] ] #.#.#.#.x.%.%.#.| | %.@.@.%.' ] #.%.%.l.%.x j x b v <.b g o...} x.l.%.%.@.| %. .%.%.",
"%.%.%.#. .%.%.#.T  .P T  .#.U H K d J L J  .%.%.#.%.#.l.#.%.#.#.%.%.%.%.' ' #.%.%.%...~ e h w j h r W ] P | A.l.%.%.] ' %.A ] %.",
"%.%.%.%.#.#.@.#.T E P  .E #. .T ] d J H ~ | #.#.#.%.%.#.%.%.%.%.%.%.%.%.@.A #.#.%.%.%.%.| ..Q Q l a H ~ ~ ] %.#.%.%.%.Z %.B B %.",
"#.#.%.%.#.#. .#.E E L  . .#.@.} P P }  . .| %.#.#.#.%.%.%.%.%.G.%.x.%.%.@.A #.%.%.%.%.l.l.%.-.%.%.l.%. . . .#.%.%.%.%.L ! @.3 %.",
"} } 8 ) 8 1 g #.#.T P  .E #.#.#.#.#.%.%.#.#.%.%.#.#.#.%.@.@.@.G.l.l.%.%.%.%.%.%.%.%.%.l.l.x.l.%.%.%.#.%.%.%.%.%.>.%.%.#.M ' u %.",
"..9 a ) 0 = g 5 0 } T E g.#.%.#.#.%.%.@.%.v.P.A.@.#. .@.| %.[ %.%.x.%.%.%.%.%.%.%.%.%.%.>.%.g.%.%.#.E #.l.x.%.%.%.%.%.#.B L %.} ",
"  $ : 8 } 8 < ; f  .#.#.#.%.%.#.#.%.@.@.>.R.D.a.[ @.U U [ L A %.%.%.%.#.%.%.#.%.%.%.%.%.>.%.#.%.#.#.E #.%.G.I.l.%.%.>.%.' 3 J  .",
"0 o   @ a - X $ @ } ] #.#.%.%.%.#.#.| [ 0.s.p.G D o.U L [ L @.%.%.%.%.#.%.#.#.#.#.%.l.] [ %.%.%.%.#.%.%.%.%.%.%.%.%.c.%.v.B } | ",
"| ] ~ | | %.} } #.%.] %.%.%.%.l.%.$.[ A Z 1.T.F i 9.C V $.B X.#.%.%.%.%.%.%.%.#.| %.l.%.l.l.%.%.%.>.@.%.%.%.%.%.#.%.%.%.>.%.%.#.",
"| | | %.%.%.%.A.}.^.y.#.%.%.%.| | -.=.A B +.=.A u 7.u B :.Z X.-.%.%.l.%.%.%.%.%.G.%.%.%.W.P.F.-.] @.] @.%.%.%.%.#.%.-.%.%.>.%.%.",
"%.%.%.%.%.%.[.oX.X'./.n.%.%.#.| Z %.:.B A +.@.! u 6.Z Z :.( 8.v.%.%.c.%.%.%.%.%.>.v.%.|.L.c.F.r.A ! L %.%.] %.#.#.#.%.%.%.%.%.%.",
"G.E.P.%.%.l.Y./. X).M.} #.%.#.%.! A :.A [ 8.' L 3 ' V B :.W 7.%.>.%.%.%.%.%.@.>.c.-.V.t...-.U.2.~ %.L %.%.! %.|  .#.#.#.%.%.%.l.",
"%.J.P.%.%.%.b.n.w.5.K |  .#.#.#.%.B :.A Z 8.$.A 3 A A u L s #.>.c.%.l.%.#.#.L %.-.G...v <.s.B.v .. .J %.%.Z #.@.#.#. .E #.%.%.%.",
"%.%.%.%.>.%.@. .| #.#.%.%.%.%.#.@.u ] B Z 8.+.A u B [ | Z p %.c.%.%.%.%.#.#.P #.-.$.] | *.G.>.} | -.U U -.Z #.@.%.#.%.#.#.%.%.%.",
"%.%.%.%.%.%.%.%.%.%.@.] %.%.%.#.#.A Z M ~ 8.[ ! Z L ! U | ..%.>.G.%.x.%.#.#.| | } ..] #.c.c.] ] #.%.R #.J Z #.#.%. .%.%.%.%.%.%.",
"%.c.%.%.%.%.%.%.L @.@.Z  . .%.| ] | Z y #.%.@.] | L L ] @.#.%.%.>.%.%.%.#.#.| ] | #.] %.%.#.| | #.L s B Z s #.%.#.%.%.] ] ' %.%.",
">.>.%.%.%.%.%.%.L ' %.@.A A %.A ] | @.|  .#.%.@.] L } %.x.| %.%.%.%.%.l.%.%.%.#.%.#.| #.%.[ ] A L B s Z %.Z B %.%.#.%.@.#.A ' %.",
">.%.%.%.%.@.' ' ] B @.@.N S ] ' #.#.#.#. .#.%.#. .] ] *.x...#.%.l.%.%.%.@.@.@.%.%.%.%.%.%.@.@.Z ] L B B %.%.@.%.%.%.%.%.%.%.%.%.",
"%.%.%.%.@.L ' ] #.Z A @.t L t V %.%.%.%. .%.>.%.%.A  .%.%.%.%.%.%.%.%.@.' A A %.%.%.%.%.#.#.%.%.%.%.%.%.%.%.%.%.A.%.%.%.%.%.f.%.",
"%.%.%.%.%.%.%.%.%.' Z Z > a p J %.%.#.%.%.%.>.%.%.%.%.%.%.%.%.%.%.%.%.%.%.%.%.%.%.%.%.%.#.#.%.%.%.%.J.x.l.%.%.x.%.%.z.#.%.#.g.%."
};
