/* XPM */
static const char *thornfloor_dry[] = {
/* columns rows colors chars-per-pixel */
"64 64 198 2 ",
"   c #7FA834",
".  c #878335",
"X  c #879736",
"o  c #8B9A37",
"O  c #8E943F",
"+  c #8C9E3C",
"@  c #91953A",
"#  c #99963F",
"$  c #9C9B3E",
"%  c #8CA537",
"&  c #85AA36",
"*  c #8BAC36",
"=  c #8DA43A",
"-  c #8FAD3A",
";  c #93AC36",
":  c #96A33C",
">  c #9DA43D",
",  c #95AD3D",
"<  c #9BAD3C",
"1  c #94B13D",
"2  c #9CB13C",
"3  c #A4AC37",
"4  c #A3A73D",
"5  c #ACA73B",
"6  c #A3AD3D",
"7  c #AAAD3E",
"8  c #B4AE3F",
"9  c #A3B33D",
"0  c #ABB63D",
"q  c #AFB83D",
"w  c #B3B53D",
"e  c #BBB33C",
"r  c #B4BA3D",
"t  c #BDBD3D",
"y  c #C2BF3E",
"u  c #CCBE3D",
"i  c #C6C13E",
"p  c #CDC33E",
"a  c #D2C63E",
"s  c #D6C83F",
"d  c #D8C83E",
"f  c #878642",
"g  c #888340",
"h  c #908D4F",
"j  c #8D934B",
"k  c #979541",
"l  c #9B9742",
"z  c #949B44",
"x  c #999D46",
"c  c #979E48",
"v  c #999D48",
"b  c #928A54",
"n  c #92845B",
"m  c #9A8C5D",
"M  c #959254",
"N  c #9E9754",
"B  c #969957",
"V  c #9D9D52",
"C  c #9D945B",
"Z  c #9E995A",
"A  c #A39E41",
"S  c #A29E4F",
"D  c #A39E55",
"F  c #A99E56",
"G  c #A1945B",
"H  c #A49A59",
"J  c #A99A59",
"K  c #8FA843",
"L  c #96A442",
"P  c #9EA444",
"I  c #95AD42",
"U  c #9BAE43",
"Y  c #9AA64B",
"T  c #9EAD49",
"R  c #96B041",
"E  c #9DB242",
"W  c #9FB149",
"Q  c #A3A443",
"!  c #A9A544",
"~  c #A3AD43",
"^  c #ABAD43",
"/  c #A4AD4C",
"(  c #ABAE4D",
")  c #B2AC41",
"_  c #B3AE4C",
"`  c #B8AD4D",
"'  c #A4B343",
"]  c #ABB444",
"[  c #A7B847",
"{  c #ACB845",
"}  c #A5B24A",
"|  c #ACB34C",
" . c #ADB94A",
".. c #B2B545",
"X. c #BAB545",
"o. c #B4BA44",
"O. c #BBBC45",
"+. c #B3B44C",
"@. c #BBB54C",
"#. c #B4BB4C",
"$. c #BBBC4B",
"%. c #A4A354",
"&. c #AAA356",
"*. c #A3AE50",
"=. c #ACAD52",
"-. c #A1A15E",
";. c #ABA359",
":. c #A8AF5B",
">. c #B0A555",
",. c #B2AE51",
"<. c #A6B251",
"1. c #ACB451",
"2. c #AEB852",
"3. c #ABB15C",
"4. c #B3B451",
"5. c #BBB451",
"6. c #B3BB50",
"7. c #BBBB51",
"8. c #B8B85F",
"9. c #968560",
"0. c #988563",
"q. c #9D8F67",
"w. c #9D896C",
"e. c #9D9061",
"r. c #A28E6C",
"t. c #A19664",
"y. c #A4946D",
"u. c #A28C70",
"i. c #A59172",
"p. c #AA9576",
"a. c #AA9972",
"s. c #AE9A7A",
"d. c #B19C7D",
"f. c #ABAE65",
"g. c #ADAD68",
"h. c #B0AD6B",
"j. c #B4B364",
"k. c #BBB56C",
"l. c #BFBA6A",
"z. c #B6AD70",
"x. c #B4A17E",
"c. c #BFB17E",
"v. c #BFBB7E",
"b. c #C1B647",
"n. c #C3BD45",
"m. c #C6BE44",
"M. c #C9BE46",
"N. c #C0B74D",
"B. c #C2BC4B",
"V. c #C9BD49",
"C. c #C4B664",
"Z. c #C2BB73",
"A. c #C9B97F",
"S. c #BFC047",
"D. c #B7C04E",
"F. c #BDC14A",
"G. c #BCC14B",
"H. c #B9C150",
"J. c #C2C247",
"K. c #C4C145",
"L. c #CCC343",
"P. c #CEC242",
"I. c #CBC044",
"U. c #CEC245",
"Y. c #CEC847",
"T. c #C1C249",
"R. c #C3C24B",
"E. c #C7C348",
"W. c #CAC44A",
"Q. c #D3C540",
"!. c #D6C841",
"~. c #CBC379",
"^. c #B59F80",
"/. c #B6A281",
"(. c #B9A484",
"). c #BEAC87",
"_. c #BFA98A",
"`. c #C1AD87",
"'. c #C2AD8C",
"]. c #C2B283",
"[. c #C6B38D",
"{. c #C8B98B",
"}. c #C5AF90",
"|. c #C7B192",
" X c #CAB494",
".X c #CDBA94",
"XX c #CFB899",
"oX c #D2BF97",
"OX c #D2BC9B",
"+X c #CDC382",
"@X c #D4C88F",
"#X c #D7C798",
"$X c #D5C19D",
"%X c #D7C0A1",
"&X c #DAC4A3",
"*X c #DFC9A8",
"=X c #E1CCA5",
"-X c #E6CFAC",
/* pixels */
"H.H.#.D.R.L.U.U.M.n.b.X.X.@.@.] 7.E +.+.@.+., U U / / / +.@.' U L.!.L.O.o.o.] o.J.W.W.F.#.$.E.W.' #.#.#.#.R * & E D.H.#.#.[ E H.",
"H.H.$.D.o.U.Q.w b.b.X.6 @.@.$.] E | +.+.+.+.+.~ } } | ..@.n.o.o.Q.y K.q q 2 ] O.O.J.2 F.#.F.E.R.F.$.#.[ #.#. .& [ H.H.#.' H. .H.",
"#.#.#.$.o.U.U.9 X.X., ' $.$.#.+.| +.+.| +.+.+.| | ] ..O.m.I.I.I.s Q.y i r O.O.O.F.S.' o.$.$.R.R.$.#. .R [ |  .#.7.#.H.H.H.H.#.1 ",
"1 #.#.F.E.9 o.< < * ' E #.[ } | 1.+.+.U +.+.+.......o.m.I.I.i Q.d s a I.t O.n.O.o.O.2 o.o.O.O.O.#.[ | , | | | +.6.R [ H.D.D.#.#.",
"{ #.#.$.E.W.o.< * ; '  .{ E - | | +.@., @...] +.] ' q m.I.y t s d a p I.r o.O.w ] o.9 o.o.] ..O...| | | | <.<.1.| | R #.#.#.#. .",
" .#.#.F.E.W.E.$.F.$.#.#.#.] ' +.+.@.| ] @...' +.] ' ] O.n.w I.s d a i I.t 0 0 O.o.o.o.o.] E ] $.E } | | | <.=./ } | #.#.#.#.#.1 ",
"#.#.$.F.E.E.E.R.$.$.$.$.O.@.' ..@.@.+.' @.o.O.o.] ] ..] 0 w y Q.d s p p t q o.w 0 q q ] E ] +.+.~ | | | | | [.h.| +.#.#.' R 1 #.",
"#.#.$.#.$.R.R.$.$.$.@.@.[ ] B.&.,.@.U +.B.@.H D ] ' ' 9 9 * 0 s d i i a p n.O.o.9 2 ' ~ ~ ~ ] +.^ ~ ]. Xc.|.XX(.~ | ..#.' { #.#.",
"#.[ $.[ ] V.V.] +.@.N.' ~ ' ..D F %.+.>.,.m 9.D | | ^ < < 2 t s s 0 r a i y n.O.o.2 ^ / / +.+.k.{.OX).'.}.p.u.n : ] #.#.#.#.o.#.",
"#.] @.] ] N.N.~ ] N.@.@.' E U , I D @.&.G C 9.C ( m S ..n.t r p s r t a 0 n.O.o.....| ~ +.+.+.k.XX_.y.C N C S : ~ ..#.o.o. . .R ",
", +.+.@.N.N.@.@...>.N.@.+...| | +.%.C G H ,.| V C m ^ 9 n.I.0 2 9 2 t r r I.O.o.o.o...] ] @.@.^ A $ # ;.z.OX].+.#.o.#.#.' E E } ",
",.=.,.@.N.N.] ..N.>.N.@._ D | W } | +.] ] +.| | ~ ....< w I.Q.0 9 ; t 0 K.K.O.o.O...$.$.] @.B.B...^ | c.%XOX_._...#.o.$.#.o.$.| ",
"+.=.=.&.@.N.+.' ..@.@.@.,.H +.E } +.@.' ' ..] +.@.] ] O.o.r I.a 9 * 9 9 o.J.o.[ o.' [ o.O.V.V.E...' ..N t.b y.t./ ..] #.$.$.@.@.",
"5.,.4.&.4.5.7.| | $.4.H 5.5.5.] ..N.$...] ] ..$.$.$...$.b...I.m.e ; < 0 o.O.O.o.O.O.O.O.B.V.W.V.$.E +.( v x L / / +.] ~ @.@.@.@.",
"5.4.+.5./ H 4.| =.H 4.=.| 4.+.@.V.V.$.+.@...+.o.[ ' ..o.O.n.m.b.8 8 7 ..o.F.R.O.o.O.R.B.o.V.V.O.O.' o...U | ! ~ ~ _ +.U +.@.+.5.",
",.( T 5.U / 4.E W | %.| | | +.J V.V.B.@.@.] ....] ' $.O.O.n.b.9 ....#. .#.$.F.F.o.$.O.O.n.o.O.] ..] $.[ E ..] U _ _ ( ( +.@.| ,.",
"/ T T +.R +.4.1.1.U D / } +.+.+.B.O.O.O.$.] { O.O.O.O.O.B.B.O.E | +.| | #.$.o.o.o.S.{ o.M.M.O...o.' ] U ] ] } ] +._ ( ( ( ( U ( ",
"I U | +.+.| } / =.T ( T | 4.+.o.N.O.B.$.#.$.' O.o.0 O.O.m.m.O.U | | | | ' ] { [ o.O.] o.L.M.V.b.] < - < E E ' | | | ( ( ( ( U ( ",
"| +.+.| | <.| Y ( } T / } } | | @.o.$.$.#.$.$.$.O.o.O.n.I.n.O.] | | } | } [ o.2 ] O.o.o.W.n.n.V.) % o = ~ ] | | +.4.| / ( ( I / ",
"| +.+.1.1.| #.#.' } W T } R | | $...$...#.+.+.[ o.o.O.i p I.n.O...| } | ..5.j.2 o.n.o.] b.O.O.W.X.4 > ! ^ ] ] +.+.4.+.} ( ( | | ",
"| } | <.1. .$.$.$.#.1.1.} ' #.7.#.[ $.| j.| } I | ..o.t i a n.O...| | ..$.].&X&XA.M.V.O.m.o.o.W.V.B.....@.$.O.$.+.+.} } | +.+.| ",
"1.} I <.1.#.#.$.D.$.#. .E ' $.7.| | #..X$X[.f.I } | 9 0 i Q.I.O.| T | Z.OX}. Xd.a.n.V.W.O.o.] O.V.....+.@.$.B.$. .#.E $.| ..+.+.",
"1.1.<.<.1.+.#.$.#.F.D.#.E #.R.$.$.' {..X_./.).*.*.} ..B.L.U.L.o.| I I j.XXe.9.k 5 9 9 o.o.] ' ..] ] ] $.$.$.R.$.{ o.o.$.' [ +.| ",
"4.1.<.| E [ | #.#.R.F.$.' O.E.R.$.o.=.9.q.a.-.g.g./ T +.@.E.E.O.#.} W | ! A Q : 9 o.R.o.9 2 9 V.V.B.@.$.$.$.o.o.o.o.R.n.O.] $.+.",
"7.4.1.W } 7.#.$.R.F.F.F.{ F.E.R.$.#...Q P = 3.$XOX.XT | +.$.$.$.$.#.6.#.o.R...' { B.B.V.] ] W.W.R.B.$.o.$.[ [ J.K.K.O.K.O.o.O.$.",
"7.6.#.#.#.#.$.$.R.R.F.#.#.R.W.W.F.o.+.| | I {.OX|./.K / | | | 6.6.6.#.#.F.' ' $.B.@.@.N.B.W.W.W.R.F.[ ' #.#.' O.B.B.n.O.E.E.R.R.",
"F.$.#.#.$.$.$.F.R.F.] ' #.R.W.Y.R.o.#.#.#.#./ C y.h Y <.} U I 2.6.6.#.#.F.{ R $.$.$.+.+.$.B.W.W.E.] E 2 +.+.' $.@.] @.o.O.O.O.R.",
"E.O.#.] O.O.{ O.o.F.O.' ' F.E.L.J.F.#.#.$.$.#./ / / <.<.W I 1.1.6.#.#.D.F.' $.;.5.+.| | } $.R.] O.[ ] &.~ ..] @.] ] @.+.$.O.[ R.",
"2 J.o.] J.B.o.O.] E.E.S.' $.o.o.E.F.$.#.D.D.D. .#.6.1.1.1.2.2.6. .#.D.D.F.' R.&.5...I I I , ' @.5.+.&.D ~ < 2 2 ( D @.+.$.$.] R.",
"0 I.K.r K.O.O.F.J.o.Y.W.' 1 9 L.E.F.D.D.D.D.D.E  .#.6.1.2.6.6.#.#.E E [ 2 R.R.R.B.$.T I P ^ &.5.F +.+..., ) ^ ] ( D +.+.' $.@.0 ",
"t a L.r n.] S.J.E.r r O.1 * 9 Y.J.F.D.D. .' D.' E $.6.6.6.6.6.E #.E #.E R.E.W.W.R.$.+.Q Q m &.@.N.J _ J ` ^ ] | | | | ..' +.o.o.",
"s s I.q n.O.O.J.L.Y.E.9 & * 7 R.' F.$.D.#.' ' 1 E [ [ #. . .H.#.E #.D.D.R.W.Y.W.E.B._ C ^ _ ,.N.$.@.@.@.@...U / U / / | +.O.] O.",
"!.!.L.O.o.o.] o.J.W.E.o.Q ^ O.W.' #.#.#.#.1 &   % | H.D.#.[ E H.H.H.#.D.R.L.U.U.M.n.` F X.@.&./ 7.W +.+.@.+., Y M V V / +.@.' U ",
"Q.y K.q q 2 ] O.O.J.2 $.o.F.E.R.F.$.#.'  . .P   + | H.D.' H. .H.H.H.$.D.o.U.Q.w b.b.X.6 @.@.$.] W | +.+.+.+...T V V %.+.@.n.o.o.",
"s Q.y i r O.O.O.O.S.' o.$.$.R.R.$.#.| R } | | | | #.H.H.H.H.#.1 #.#.D.F.o.U.U.9 X.X., ' $.$.#.+.| +.+.| +.+.+.| | ] ..O.m.L.I.I.",
"d s a I.t O.n.O.o.O.2 o.o.O.O.O.#.| | , | | | +.6.R [ H.D.D.#.#.1 #.#.F.E.9 o., , & ' E #.[ } | 1.+.+.U +.+.+.......o.m.I.I.i Q.",
"d a p I.r o.O.w ] o.9 o.o.] o.O...| | | | j.<.1.| | R #.#.#.#. .{ #.#.$.J.m.7 % & * < [ { E - | | +.@., @.....+.] ' q M.I.y t s ",
"d a i I.t 0 q O.o.o.o.o.] E ] $.U } [.$X&XXX.Xv.} | #.#.#.#.#.1  .#.#.F.K.n.X.4 ^ ^ ] o.#.] ' +.+.@.] ] @.] ] +.] ' ] O.n.w I.Q.",
"d s p p t q o.w 0 q q ] E ] +.+.:.@X*XOXOX|.|.$X#X8.#.#.' R 1 #.#.#.$.F.E.E.R.$.o.o.#.$.O.@.' ..@.@.+.' B.o.O.o.] ] ..] 0 w y s ",
"d i i a p n.O.o.9 2 ' ~ ~ ~ ] +.].OX^.'.d.d.s.s.XX'.x.#.' { #.#.#.#.$.#.$.R.R.$.$.$.@.O.[ ] B.X.@.@.U +.B.b.o...] ' ' 9 9 * 0 a ",
"s 0 r a i n.n.O.o.< ~ ~ P ! _ ^ ! l r.i.s.w.r.p.j @ > ] #.#.o.o.#.[ $.[ ] V.B.] +.@.N.' ~ ' ....@.| +.@.@.$.| | | | ^ , < ; w u ",
"s r t a 0 n.O.o...! P : Q ! +.] ! # O f g g . X o $ ~ o.o. . .R #.| @.] ^ N.N.~ ] @.@.@.' E U , I ] @.@.@.@.] / ^ / ! 5 5 3 3 i ",
"9 2 t r r I.O.o.o...^ ~ ~ ..@...@.+.! k x P A +.^ | #.#.' E R } , +.+.@.J N.@.@...N.N.@.+.D ( | +.| +.@.@.+.| / ^ ] ] 6 e e 0 2 ",
"9 ; t 0 K.K.O.o.O.....$.] @.B.B.B.+.+.| ( +.+.+.#.#.o.o.+.o.$.| ,.=.G @.N.N.] ..>.>.N.@.@.( | W } | +.] ] +.| | ~ ..] < w I.Q.0 ",
"9 * 0 0 O.J.o.[ o.' [ o.O.V.V.V...' ..+.+.} } | | ..] | &.$.@.@.+.=.&.+.@.N.+.' ..@.@.@.@.+.+.R U +.@.' ' ..] +.@.] ] O.o.r I.Q.",
"i 2 3 w o.S.S.o.O.O.O.O.B.V.V.V.$.E #.+.| | } | | +.] ~ @.@.@.@.&.&.4.4.5.5.7.| | $.&.&.4.5.5.~ ~ @.$...] ] ..$.$.$...$.b...I.I.",
"m.O.^ ^ ..F.F.$.o.O.R.B.o.V.V.O.O.' o...U ..| ~ ~ _ +.U +.@.+.5.J &.+.5.} 4.5.| | +.&.&.1.4.+.@.@.V.$.+.@...+.o.] ' ..o.O.n.m.m.",
"..$.] [ #.$.F.F.o.$.O.O.b.o.O.] ..] $.] E ..] U _ _ C &.+.@.| ,.H %.T 5.U | 4.E W | | | | +.+.@.V.V.B.@.@.] ....] ' $.$.$.B.b.9 ",
"] +.| | #.$.o.o.o.J.o.o.M.V.O...o.' ] E ] ] ~ ] +._ ( ( ( ( U ( / T T +.R +.4.| 1.U | / } | +.+.B.O.O.O.$.{ { $.O.O.O.O.B.B.O.E ",
"| | | | ' ] { [ o.O.] o.L.M.V.m.o.] , E ' U ' | | | ( ( ( ( U ( I U | +.+.| | ' | T / T | +.+.+.N.O.B.$.#.$.' O.o.0 O.O.m.m.O.U ",
"| | } | } [ o.2 ] O.o.o.W.n.n.W.V.2 ' ' ] | ] | +.+.| / ( ( I / | +.+.=.| <.| W | } T } } } | | @.o.$.$.#.+X#Xl.O.o.O.n.I.n.O.] ",
"..| } | ..o.o.} 7.n.o.] b.O.O.W.O.O.o.@.$.] ] +.+.4.+.} / ( | | | +.&.C Z %.#.#.' } W W } R | | $...$.Z.OX%X&X X..o.O.i p I.n.O.",
"..| | ..$.@X-X-XXXC.V.O.m.o.o.W.V.B.$.+.~.=X=X`.( | } } | +.+.| | %.&.| =.&.$.$.$.#.1.1.} ' #.7.#.[ $.'.(._.d.B P ] o.t i Q.n.O.",
"| T | o.$.oX'.(.w.d.O.W.O.o.] O.V.....~.$X'./.i.M | E $.| ..+.+.1./ I <.1.#.#.$.F.$.#. .W ' $.7.| | +.N M n + j z ~ 9 0 K.Q.I.O.",
"| I I o...Q k A ;., 2 o.o.] ' ..] ] ] ,.b r.0.n z ~ ..$.' [ +.| 1.1.<.<.1.+.#.$.#.F.D.7.E #.R.$.$.' | / x c c Y / } ..B.L.U.L.o.",
"#.} W #.O.+.+.] 9 o.R.{ 9 2 9 V.V.B.@.+.Q Q : 6 6 o.R.R.O.] $.+.4.1.<.} E [ | #.#.R.R.$.' O.E.R.$.o.+.| / I *.*.*./ T +.@.E.E.O.",
"$.6.6.#.O.R.O.' { B.B.V.] ] W.W.R.B.$.{ o.[ ' F.K.K.O.K.O.o.O.$.7.4.1.W } 7.#.$.R.R.F.F.{ F.E.R.$.#.#.#.| I *.*.*.*.T | +.$.$.$.",
"6.6.#.#.F.' ' $.B.$.@.N.B.W.W.W.R.F.[ ' o.o.' O.B.B.B.O.E.E.R.R.7.6.#.#.#.#.$.$.R.R.F.#.#.R.W.W.$.o.+.+.#.I | <.<.*.I / | | | 6.",
"6.6.#.#.F.{ R $.$.$.+.+.$.B.W.W.E.] E 2 @.+.' $.@.] @.o.O.O.O.R.F.$.#.#.$.$.$.F.R.F.] ' #.R.W.Y.R.o.#.#.#.#.+.1.1.1.<.<.} E I 2.",
"6.#.#.$.F.' $.$.$.#.| | } $.B.] O.[ ] +.' ..] @.] ] @.+.$.O.] R.E.O.#.] O.O.{ O.o.F.O.' ' F.E.L.J.$.#.#.D.D.#.6.6.1.1.<.W I 1.1.",
" .#.#.D.F.' R.R.$...I U U I ' $.@.+.+.@.' ' 2 2 ..] @.+.$.$.] R.2 J.o.] K.n.o.O.] E.E.S.' $.o.o.E.F.$.#.D.D.D. .#.6.1.1.1.2.2.6.",
"#.E E [ 2 R.R.R.B.$.} W | +.@.@.@.+.+.@.< B.] ] +.| +.+.' $.@.0 0 I.J.o.K.O.O.S.J.o.Y.n.< ; 9 L.E.F.D.D.D.D.D.E  .#.6.1.2.6.6.7.",
"#.E #.E R.E.W.W.R.$.+.| +.@.@.@.@.@.@.B.M...] | | | | ..' +.o.o.t Q.I.r n.0 S.J.J.r w o.2 * < m.J.F.D.D. .' D.' E #.6.6.6.6.6.E ",
"E #.D.D.R.W.U.W.E.V.@.+._ +.@.N.$.$.@.@.B...U / U / / | +.@.] O.!.!.I.q O.O.O.J.L.Y.E.{ & 2 o.W.' F.$.D.#.' [ E '  .[ #. . .H.#."
};
