/* XPM */
static const char *tundra_snowy[] = {
/* columns rows colors chars-per-pixel */
"64 64 204 2 ",
"   c #7B7757",
".  c #867C37",
"X  c #877E44",
"o  c #8D8335",
"O  c #91883F",
"+  c #8A8345",
"@  c #898947",
"#  c #908849",
"$  c #9C9347",
"%  c #9A9149",
"&  c #8D885A",
"*  c #978E52",
"=  c #988F58",
"-  c #8F9953",
";  c #9C9253",
":  c #9B935E",
">  c #A1914C",
",  c #A39958",
"<  c #A39A5D",
"1  c #9DA858",
"2  c #A6A35A",
"3  c #AAA55B",
"4  c #ADB35D",
"5  c #B2B65F",
"6  c #898567",
"7  c #8C896A",
"8  c #9D9869",
"9  c #928E71",
"0  c #9E9B7A",
"q  c #A19661",
"w  c #A49B62",
"e  c #AC9D62",
"r  c #A79F6E",
"t  c #B09F6B",
"y  c #A59F73",
"u  c #A6A364",
"i  c #ACA362",
"p  c #AEAE63",
"a  c #ABA46A",
"s  c #A7AA6D",
"d  c #B3AA6B",
"f  c #B9A96D",
"g  c #A4B363",
"h  c #ADB564",
"j  c #ACB46D",
"k  c #ABB86F",
"l  c #B0B76B",
"z  c #BCB46E",
"x  c #BBBB6C",
"c  c #A8A271",
"v  c #AEAC72",
"b  c #A5A37C",
"n  c #AAAB7C",
"m  c #B6AD77",
"M  c #B3AC7B",
"N  c #ADBA75",
"B  c #B5B475",
"V  c #BCB375",
"C  c #B3BB76",
"Z  c #BBBA75",
"A  c #B2B27C",
"S  c #BBB37B",
"D  c #B4BD7B",
"F  c #BABE7A",
"G  c #C1B56A",
"H  c #CAB66E",
"J  c #CCBA6E",
"K  c #C1B575",
"L  c #C4BB74",
"P  c #CCBD75",
"I  c #C3B57A",
"U  c #C4BB7B",
"Y  c #CBBE7D",
"T  c #BFC074",
"R  c #BCC07C",
"E  c #C6C574",
"W  c #C3C27C",
"Q  c #CDC27C",
"!  c #D0C275",
"~  c #D1C47C",
"^  c #A39F84",
"/  c #ADA885",
"(  c #B0AE80",
")  c #B2AC8B",
"_  c #B6B586",
"`  c #BCB384",
"'  c #BEBC85",
"]  c #B5B08B",
"[  c #BCB68B",
"{  c #BEBC8B",
"}  c #A7A696",
"|  c #ADAA94",
" . c #B5B192",
".. c #BDB992",
"X. c #BEBB9B",
"o. c #B4B3AB",
"O. c #BEBBAB",
"+. c #C2B780",
"@. c #C5BB83",
"#. c #CCBE84",
"$. c #C2B788",
"%. c #C4BC8C",
"&. c #CABF8E",
"*. c #D0BE83",
"=. c #D0BF8C",
"-. c #C4BC92",
";. c #C8BC94",
":. c #C5BF9D",
">. c #C2BEA4",
",. c #B7C083",
"<. c #BAC185",
"1. c #BECA87",
"2. c #BCC38B",
"3. c #BFC094",
"4. c #C4C384",
"5. c #CCC383",
"6. c #CDCB84",
"7. c #C4C58B",
"8. c #CBC38C",
"9. c #C7C88F",
"0. c #CCC98C",
"q. c #D2C584",
"w. c #D3C885",
"e. c #D2C48C",
"r. c #D4CA8C",
"t. c #C8D188",
"y. c #D3D38F",
"u. c #C4C492",
"i. c #CCC494",
"p. c #C5C994",
"a. c #CCCB94",
"s. c #C7C09B",
"d. c #CBC49C",
"f. c #C5CA9B",
"g. c #CCCC9B",
"h. c #D3C594",
"j. c #D5CB94",
"k. c #D8CD96",
"l. c #D4C69B",
"z. c #D5CC9B",
"x. c #D8CE9C",
"c. c #CED29D",
"v. c #D6D191",
"b. c #D9D196",
"n. c #D4D09D",
"m. c #D9D19E",
"M. c #CAC5A3",
"N. c #C3CAA3",
"B. c #CDCDA2",
"V. c #C7C3A8",
"C. c #CAC6A9",
"Z. c #CCCCAC",
"A. c #D2C6A3",
"S. c #D5CDA3",
"D. c #D8CEA2",
"F. c #D9CFA5",
"G. c #D3CEAB",
"H. c #D9CFA8",
"J. c #CDD2A6",
"K. c #CED0AB",
"L. c #D5D1A4",
"P. c #DAD1A2",
"I. c #DAD2A3",
"U. c #DAD3A5",
"Y. c #DBD4A7",
"T. c #DCD9A5",
"R. c #D6D2AA",
"E. c #DBD4A8",
"W. c #DBD4AA",
"Q. c #DBD4AB",
"!. c #DCD5AA",
"~. c #DBD2AD",
"^. c #DBD4AC",
"/. c #DCD6AD",
"(. c #D4DAAB",
"). c #DDD9AD",
"_. c #C8C5B5",
"`. c #CBC7B5",
"'. c #D1CFB3",
"]. c #CED2B2",
"[. c #CED8B5",
"{. c #D4D3B3",
"}. c #DCD6B2",
"|. c #DED8B3",
" X c #DDDAB2",
".X c #D3D4BA",
"XX c #DAD6BD",
"oX c #D7DAB8",
"OX c #DDDBBB",
"+X c #E0DDB1",
"@X c #E4E3BC",
"#X c #CCCBC1",
"$X c #D9D7C4",
"%X c #DBDCC4",
"&X c #D3D3CB",
"*X c #D8D7CC",
"=X c #DBDCCC",
"-X c #DCDDD3",
";X c #E4E3C3",
":X c #E9E8C2",
">X c #E4E4CB",
",X c #E0E1D5",
"<X c #E3E5DB",
"1X c #E7E8DF",
/* pixels */
"m.Q.Q./.Q.j.m.U.P.x.S.S.s.i.@.z.x.x.Q.P.w.j.q.k.P.~ x.Q.U.m.k.m.P.m.P.r.U.P.x.P.x.P./.|.Q.F.x.j.x.U./.}.P.D.{.{.R.G.-.r.m.j.*.j.",
"j.P.Q.Q.D.j.x.Q.U.x.x.U.m.k.q.k.x.x.U.x.Q e.z.Q.Q.P.U.U.U.x.x.0.U.Q.P.P.P.U.x.P.F.z.P.Q.F.z.h.e.z.D.^.^.U.G.G.M.G.G.%.q.k.j.q.w.",
"P./.Q.U.D.F.x.U.D.x.P.P.x.k.j.r.j.k.P.U.r.m.U.+XQ.P.Y.P.D.x.z.z.Y.Q.P.m.P.P.x.D.P.z.x.U.z.z.j.D.U.Q.~.Q.F.l.A.S.s...%.j.D.U.j.r.",
"x.Q.D.P.U.D.z.z.z.e.z.P.S.x.P.j.w.j.U.Q.x.j.U.Q.U.k.x.x.D.P.n.B.m.m.h.j.P.U.D.U.Q.U.m.j.h.U.U.Q.Q.Q.Q.x.z.z.S.l.+.i.j.k.a.g.7.r.",
"P.Y.D.Q./.Q.D.j.j.Y j.U.U.Y.).P.j.k.P.x.x.r.P.Q.U.x.x.P.x.x.a.g.x.m.a.x.x.D.U.Q./.Q.P.z.z.F.U.Q.Q.Q.D.z.P.m.k.e.U 6.Q x.x.U.x.x.",
"Q.U.Q.Q.|./.m.r.H w.x.Y.Q.P.m.x.k.x.D.h.P.m.m.P.L.D.P.D.P.x.z.p.a.S.z.U.z.z.P.P.U.S.U.P.z.F.Q.^.~.~.D.F.F.D.P.j.P J r.P.Q.Q.U.Y.",
"Q.Q.m.Q.|.Q.x.x.j.r.D.Q.Q.T.j.Q j.x.D.S.L.z.x.S.z.z.D.D.U.k.P.a.z.U.Q.U.Y.S.h.h.l.z.U.z.l.Q.Q.D.U.z.A.-.F.H.Q.e.e.q.P./.Q.Q.U.Y.",
"Y.Q.U.}.}.U.x.k.P.P.x.m.z.m.k.r.D.U.U.U.z.z.z.S.z.j.U.Q.Q.x.x.P.Y.U.Q.Q.Q.x.j.e.h.S.z.l.F.Q.i.I &.&.@.S s.S.Q.x.z.).|.Q.~.Q.U.Q.",
"Q.P.P.^.U.S.S.S.Q./.x.v.b.m.x.U.U.Q.Q.U.U.D.z.L.z.x.D.Q.U.x.m.P.Q.Q.Q.Q.S.h.x.e.F.S.S.D.F.z.8.@.d.l.i.@.u.R.Q.Q.z.|.U.Q./.Q.R.R.",
"Q.m.x./.U.z.S.G.^./.U.r.r.P.r.q.P.Q.U.U.U.U.U.S.L.U.U.Y.P.U.U.m.P.U.Q.U.L.F.U.l.Q.S.D.P.%.i.8.{ u.i.&.$.3.S.R.R.F.Q.Q.U.Q.Q.Q.U.",
"P.z.z.P.Q.U.R.R.^./.Q.w.j.{.>X$XS.P.j.U.P.m.U.Q.Q.D.Q.P.Q.Q.P.Y.Y.U.F.Q.z.z.l.U.Q.S.S.F.l.@.{ S A +.S s @.U.S.Q.F.Q./.Q.Q.Y.U.U.",
"Y.z.g.Y.Q.^.Q./.}.}.Q.b.{.*X*X`.$XZ.%.i.x.m.Q.U.P.j.P.P.x.P.P.U.U.U.S.z.z.h.D.Q.S.U.S.z.z.z.' Z ' W L 3 P S.Q.Q.Q.Q.}./.Q.Q.S.Q.",
"P.e.h.U.L.R.^././.}.j.C. ./ } 0 | Z.S g.i.z.Q.P.x.j.j.L.j.Q.m.P.m.m.U.D.z.P.Q.F.A.F.S.z.z.Q.j.7.u 4 4 2 5.l.U.Q.Q.Q.|./.Y.Y.S.S.",
"x.r.k.Y.L.n.Q.Q.Q.m.5.U 7 6   7 6 & 2 U L h.U.P.k.m.z.a.m.).|.Y.Y.k.U.Q.S.U.Q.S.z.H.A.z.z.x.S.i.B - 1 s %.k.P.Q.Q.Q.~.}.Y.Y.Q.x.",
"U.P.m.U.U.a.x.U.Q.~ w.w.Y U %.%.d i S 8.U 8.z.x.j.x.Y.7.P.L.L.Q.Y.r.U.Q.D.S.U.z.=.F.z.S.h.j.S.i.@.+ @ v z.S.z.S.Q.Q.U.U.U.Q.Q.Y.",
"Q.Q.k.x.z.a.j.U.U.w.~ j.w.k.U.Q.U.Q.U.z.S.h.z.z.r.m.P.0.g.x.k Q.Q.k.P.P.h.S.L.F.S.S.z.e.#.q.e.#.I @.i.h.z.z.x.x.Q.Q.P.Q.U.U.Q.U.",
"Q.k.k.x.j.P.m.k.m.r.j.U.k.x.P.U.x.P.x.j.z.x.P.x.r.x.k.w.h z.g U.B.S.R.{.-.L.oXQ.U.z.a.j.#.#.e.e.e.x.D.j.x.P.m.x.U.Q.D.P.j.k.P.Q.",
"Y.P.k.P.m.U.U.k.m.j.P.Q.Q.P.Q.x.x.D.z.F.Q./.x.j.r.U.U.k.h 0.w.A.[ d.d.{.i.@.}.i.s.l.h.h.q.*.k.z.h.D.U.P.k.P.|.^.U.Q.L.x.b.r.j.P.",
"Q.U.x.U.P.m.j.x.P.m.x.Q.Q.Q.U.P.x.D.S.U.U.Q.^.P.x.U.Y.P.W j + , # ; : < W M a % M S.z.x.x.D.P.z.D.Q.Y.U.Y.}.}.{.R.^.z.z.m.n.L./.",
"/.Q.m.U.P.e.z.U.m.k.x.z.z.x.x.k.x.D.x.m.P.U.Y.x.m.U.).Y.P.7.&.O + 8 * X $ w o ; ] S.L.U.U.U.U.U.D.Q.L.Y..XoXOXJ.oX{.m.L.(.L.^.).",
"Q.P.U.U.U.P.P.L.L.P.j.x.Q.P.x.P.P.Y.L.P.Y.m.Q.Q.U././.Y.Y.Q.k.8.U U @.8.@.w.@.S.U.Q.S.P.D.U.U.U.x.Y.Q.(.}.].OXg.[.].f.|.+XB.R.^.",
"U.Q./.Q.Q./.Q.U.|.U.P.P.>X;XOX).L.U.L.P.P.x.Q./.Q././.P.Y.).Q.r.5.Y h.Q.Q.Q.U.^.{.Z.G.x.x.U.Q.x.Y.Q.).n.(.L.|.g.(.K.f.(.).B.R.^.",
"/././.Q.Q./.U.P.|.).Q.>X:X|.OX%Xg.L.L.x.P.S.P.~.Q.~.Q.Q.Q./.Q./.k.P.Q.Q.^.Q.}.}.{.C.G.G.Q.Q.Q.z.|.Q.).g.L.a.v.a.C ].B.Z ).Z.{.|.",
"|./.Q.U.U.Q.U.Y.).Q.'.Z.d.}.G.d.z P.S.m.Q.L.k.z.D.Q.F.F.Q.U.P.}.}.OX|./.Q.~.}.}.~.{.G.U.^./.Q.x.|.W !.z.L.g.0.7.N L.g.F ).Z.].Q.",
"|./.}.x.x.U.L.Q.^.).g.b _ 4.d.[ 8.Q.z.P.Q.z.e.j.z.z.h.e.D.Q.Q.Q.Q.|.|././.Q.~.~.R.{.Q.S.L.^.Q.S.Y.7.m.g.7.R.^.a.g g.9.<.n.B.Q.Q.",
"Q.Q.Q.P.j.D.L.U.^.L.L.j.e.b.w.5.L.Q.z.j.P.z.z.x.P.h.P.S.F.Q.Q.Q.Q.Y.Q./.|.Q.Q.Q.~.^.Q.Q.U.Q.U.S.Q.a.r.L.4.g.(.4.D l L r.4.M./.|.",
"|.Q.}.P.q.x.z.L.R.S.R.Q././.R.L.U.Q.j.j.S.L.U.z.j.h.x.U.Q.Q.Q.Q.U.x.Q.^.Q.P.Q.Q.Q.^.^.R.Q.U.P.U.Q.Q.5.W U 9.6.W g.W 4.z.L.R.Q.|.",
"|.Q.Q.D.q.e.S.S.Q.U.L.Q.Q.Q.Q.U.Q.L.F 7.p.g.D.P.j.x.m.z.S.R.Q.U.r.Q.Y.Q.P.P.P.Q.L.Q.^.L.Q.z.P.L.R.^.j.9.r.r.6.5.S.S.g.l.Q.^.Q./.",
"/.Q.U.Q.U.j.k.r.z.D.S.Q.U.R.L.z.L.B.f.u.x.g.a.x.x.P.U.L.U.L.z.j.P.Q.x.Q.U.P.x.Q.L.z.Q.Q.L.7.m.L.R.Q.Q.L.F.x.U.L.S.l.l.U.^.~.^./.",
"}.Y.U.P.L.r.w.k.m.P.U.Q.D.U.Q.L.L.L.g.7.x.U.L.r.x.P.U.P.Q.Q.P.P.Y.P.U.Y.Q.L.z.R.R.p.z.Q.1.t.z.n.U.Q.U.P.S.z.U.U.F.l.z.Q.Q.R.Q.Q.",
"Q.k.x.Q W 4.W x.P.U.Q.Q.z.D.U.x.P.U.Q.D.x.P.U.x.,XP.P.P.m.U.U.x.m.r.x.Q.Q.n.L.L.z.F a.Q.{ 8.j i.Y./.Q.P.z.m.P.Q.U.9.5.Y.Y.Q.m.P.",
"Q.j.P.w.r.r.q.k.z.Q./.Q.U.U.x.j.P.U.|.OX^.U.Y.<X1X-X&Xx.m.U.D.x.P.Y.Y.Y.U.U.P.P.x.0.Z g.[ u v S.U.Q.U.x.k.m.b.P.m.! q.Y.P.m.! k.",
"P.m.P.r.U.P.x.P.x.P./.|.Q.U.x.k.x.F./.|.P.Q.-X<X&X#X| r.P.j.*.j.m.Q.Q./.Q.j.m.U.P.x.U #.$.U K z.x.x.Q.P.w.h.#.k.P.~ x.Q.U.m.k.m.",
"U.Q.P.P.P.U.x.P.F.z.P.Q.U.z.h.e.z.D.^.^.U.-X#X`.#X#X) q.x.j.q.w.j.P.Q.Q.D.j.x.Q.U.x.r.w.q.~ q.k.x.x.U.x.Q e.z.).Q.P.U.U.U.x.x.r.",
"Y.Q.P.m.P.P.x.D.P.z.x.U.z.z.j.D.F.Q.~.Q.U.-.o.o.} } [ j.P.U.j.r.P./.Q.U.D.F.x.U.D.x.P.P.x.k.j.r.j.k.P.U.r.m.U.+XQ.P.Y.P.D.x.z.z.",
"m.m.h.j.P.U.D.U.Q.U.m.j.j.U.U.Q.Q.Q.Q.x.D.8.@.[ , U j.k.p.f.7.r.x.Q.D.P.U.D.z.z.z.e.z.P.S.x.P.j.w.j.U.Q.x.j.U.Q.U.k.m.x.D.P.L.U.",
"x.m.a.x.x.D.U.Q./.Q.P.z.z.F.U.Q.Q.Q.D.z.D.x.k.8.U 5.Q x.m.U.x.x.P.Y.D.Q./.Q.D.j.j.Y j.U.U.Y.).P.j.k.P.x.x.r.P.Q.U.x.x.P.x.x.z.L.",
"a.S.z.U.z.z.P.P.U.S.U.P.z.F.Q.^.~.~.D.F.F.D.P.j.P J r.P.Q.Q.U.Y.Q.U.Q.Q.|./.m.r.H w.x.Y.Q.P.m.x.k.x.D.h.P.m.m.P.L.D.P.D.P.x.z.z.",
"z.U.Q.U.Y.S.h.h.l.z.U.z.l.Q.Q.D.U.d.M.-.F.H.Q.e.e.q.P./.Q.Q.U.Y.Q.Q.m.Q.|.Q.x.x.j.r.D.Q.Q.T.j.Q j.x.D.S.L.z.x.S.z.z.D.D.U.k.P.z.",
"Y.U.Q.Q.Q.x.j.e.h.S.z.l.F.Q.%.f $.%.` m -.d.H.x.z.).|.Q.~.Q.U.Q.Y.Q.U.}.}.U.x.k.P.P.x.m.z.m.k.r.D.U.U.U.z.z.z.S.z.j.U.Q.Q.x.x.P.",
"Q.Q.Q.Q.S.j.x.e.F.S.S.D.F.s.%.` :.;.e > = _ Q.Q.x.|.U.Q./.Q.R.R.Q.P.P.^.U.S.S.S.Q./.x.v.b.m.x.U.U.Q.Q.U.U.D.z.L.z.x.D.Q.U.x.m.P.",
"P.F.Q.U.L.U.U.l.H.S.D.P.%.t S M r w < q & ] G.Q.F.Q.Q.U.Q.Q.Q.U.Q.m.x./.U.z.S.G.^./.U.r.r.).+XQ.P.Q.U.U.U.P.U.S.L.U.U.Y.P.U.U.m.",
"Y.U.F.Q.z.z.z.U.Q.S.S.F.l.e w * . > q w %.F.Q.Q.F.Q./.Q.Q.Y.U.Y.P.z.z.P.Q.U.R.R.^./.Q.w.r..X$X%X}.Q.Y.U.P.m.U.Q.Q.D.Q.P.Q.Q.P.Y.",
"U.U.S.l.z.h.D.Q.H.U.S.z.z.*.z @.V L L U 5.S.Q.Q.Q.Q.}./.Q.Q.S.Q.Y.z.g.Y.Q.^.Q./.}.}.Q.j.%X=XC.'.%X.Xd.S.x.m.Q.U.P.j.P.P.x.P.P.U.",
"x.m.U.D.z.P.Q.F.A.H.S.z.z.U.h.&.%.4.U 8.5.l.F.Q.Q.Q.}./.Q.U.S.S.P.e.h.U.L.R.^././.}.U. . ./ >. ./  .M @.z.z.Q.P.x.j.j.L.j.z.m.P.",
"U.k.U.Q.S.U.Q.S.z.H.z.z.z.x.z.i.%.' 7.s.7.k.P.Q.Q.Q.Q.}.Q.Q.Q.x.x.r.k.Y.L.n.Q.Q.Q.m.z.K 7 6 | ^ 9 b d U L 8.U.P.k.m.z.a.m.a.z.Y.",
"Y.j.U.Q.D.S.U.z.=.F.z.z.h.j.S.i.@._ u.s.z.S.S.S.Q.Y.U.U.U.Q.Q.Y.U.P.m.U.U.a.x.U.Q.~ w.x.5.U V d 3 S d K U G z.x.j.x.Y.7.P.g.g.Q.",
"Q.j.x.P.h.z.S.F.S.S.z.e.#.q.e.#.U i.l.h.z.z.z.z.Y.Q.P.Q.U.U.Q.U.Q.Q.k.x.z.a.j.U.U.w.~ j.r.x.U.m.j.Q.U.l.x.h.z.z.r.m.P.a.g.m.p.Q.",
"S.z.g.{.R.%.G.|.U.z.a.j.#.#.e.e.e.x.D.j.j.D.m.x.U.Q.D.P.j.j.L.Q.Q.k.k.x.j.P.m.k.m.r.j.U.k.x.P.U.x.P.x.j.z.x.P.x.r.x.k.j.C z.<.U.",
"S.-.G.G.i.@.-.S d.l.h.h.q.*.j.z.h.D.U.P.k.+X;X^.U.Q.L.x.b.r.j.P.Y.P.k.P.m.U.U.k.m.j.P.Q.Q.P.Q.x.x.D.z.F.Q./.x.j.r.U.U.k.R 0.r.z.",
"c < ( i 4.a < % w z.z.x.x.D.D.z.D.Q.Y.U.Y.>X;XOX|.^.m.z.m.n.L./.Q.U.x.U.P.m.j.x.P.m.x.Q.Q.Q.U.P.x.D.S.U.U.Q.^.P.x.U.Y.P.g.<.a S ",
"S 8 . y ` a ; . : S.S.U.U.U.U.U.D.Q.U.L.].B.c.J.{.R.m.L.R.L.^.)./.Q.m.U.P.e.z.U.m.k.x.z.z.x.x.k.x.D.x.m.P.U.Y.x.m.U.).Y.Y.g.i.i.",
"l.i.@.G.l.m.l.i.U.Q.S.P.D.U.U.U.x.Y.Q.n.g.Z.g.B.N.Z.2.J.Q.B.R.^.Q.P.U.U.U.P.P.L.L.P.j.x.Q.P.x.P.P.Y.L.P.Y.m.Q.Q.U././.Y.Y.Q.Y.U.",
"z.z.G.Q.Q.Q.U.}.$X$X{.x.x.U.Q.x.h.Q.).g.,.c.y.g.p.K.2.J.).B.R.^.U.Q./.Q.Q./.Q.U.|.U.m.P.;X;X}.^.L.U.L.P.P.x.Q./.Q././.U.Y.).Q.x.",
"Q.Q.Q.Q.^.Q.XX,X,X-X`.M.Q.Q.Q.z.p.U.).f.u.R.6.W D ].F 7.).N.K.|./././.Q.Q./.U.P.|.).k.XX@X@X|.{.g.L.z.x.P.S.P.~.Q.~.Q.Q.Q./.Q./.",
"}.OX|./.Q.~.d.O.`.`.O.S.^./.Q.x.4.9.).g.6.K.7.x 1 L.7.7.v.7.f.Q.|./.Q.U.U.Q.U.Y.).Q.X...d.w.M.V.S.Q.z.x.Q.L.k.z.D.Q.F.F.Q.U.P.}.",
"Q.|.|././.Q.G.` S ) %.S.U./.Q.D.Y.C T.g.Z 7.y.x g L.x C 0.B Q.Q.|./.}.x.x.U.L.Q.).).g.n ( 7.:.] G.Q.a.P.^.g.e.j.z.z.h.e.D.Q.Y.Q.",
"Q.Y.Q./.|.Q.Q.Q.h.^.Q.Q.U.Q.U.F.U.,.E g.5 f.6.W D g.L E Z A /.|.Q.Q.Q.P.j.D.L.U.).P.L.L.Q.|.m.i.L.Q.z.j.U.a.z.x.P.h.P.S.F.Q.Y.Q.",
"U.x.Q.^.Q.P.Q.Q.Q.^.^.R.Q.U.P.U.Q.W 4 2.8.2.a.B.p.7.U U Y R.Q.|.|.Q.}.P.q.x.z.L.G.S.R.Q./.|.S.S.L.U.j.j.z.g.k.z.j.h.x.U.Q.Q.Q.Q.",
"r.Q.Y.Q.P.P.P.Q.R.Q.^.L.Q.z.P.L.R.S.x D q.q.m.4.L L W 5.Q.^.Q./.|.Q.Q.D.q.e.S.S.Q.U.L.Q.Q.Q.Q.L.Q.g.D 9.a.p e.P.j.x.m.z.S.R.Q.U.",
"P.Q.x.Q.U.P.x.Q.L.z.Q.Q.9.R m.L.R.Q.L.j.8.z.U.z.S.l.5.e.Q.~.^././.Q.U.Q.U.j.k.r.z.S.S.Q.U.R.L.z.L.F C R ~ 4.4.x.x.P.U.L.U.L.z.j.",
"Y.P.P.Y.Q.L.z.R.R.p.z.Q.1.E z.n.U.Q.U.P.S.z.U.j.j.8.L L.Q.R.Q.Q.}.Q.U.P.L.r.w.k.m.P.U.Q.D.U.Q.L.L.W F F r.U.L.r.x.P.U.P.Q.Q.P.P.",
"m.r.x.Q.Q.n.L.L.P.g.a.Q.f.W 2.g.Y./.Q.P.z.m.P.k.r.T 5.Y.Y.Q.m.P.Q.x.x.Q W 4.W x.P.U.Q.Q.z.D.U.x.P.P.Q.x.k.P.U.x.}.m.P.P.m.U.U.x.",
"P.Y.Y.Y.U.U.P.P.x.L.B.S.n v { B.U.Q.U.x.k.m.b.P.m.! q.Y.P.m.! k.Q.j.P.q.w.r.q.k.x.Q./.Q.U.U.x.j.m.P.}.}.U.U.Y.{.}.R.Z.x.m.U.D.x."
};
