/* XPM */
static const char *tundra[] = {
/* columns rows colors chars-per-pixel */
"64 64 212 2 ",
"   c #6B6217",
".  c #716615",
"X  c #786D12",
"o  c #7F721D",
"O  c #6E692B",
"+  c #7A6D23",
"@  c #756C29",
"#  c #7D7224",
"$  c #70702F",
"%  c #7A7129",
"&  c #766E30",
"*  c #767251",
"=  c #7C7857",
"-  c #7B7859",
";  c #887925",
":  c #867F2E",
">  c #917A29",
",  c #847935",
"<  c #8C7934",
"1  c #917B31",
"2  c #817D5B",
"3  c #778633",
"4  c #8A802A",
"5  c #998725",
"6  c #9D832C",
"7  c #968A2B",
"8  c #8D8837",
"9  c #848B39",
"0  c #958836",
"q  c #9C8D33",
"w  c #9B8C3A",
"e  c #8A943A",
"r  c #94923F",
"t  c #9B903A",
"y  c #939B3C",
"u  c #9C9E3E",
"i  c #A38D3D",
"p  c #A49834",
"a  c #A19138",
"s  c #BD913F",
"d  c #8CA139",
"f  c #94A43D",
"g  c #9AA43F",
"h  c #9BA93F",
"j  c #98B33B",
"k  c #8C8245",
"l  c #938542",
"z  c #968D46",
"x  c #9B8B42",
"c  c #82984E",
"v  c #929142",
"b  c #9D9345",
"n  c #9C9B42",
"m  c #9B934A",
"M  c #898558",
"N  c #948E5D",
"B  c #97945A",
"V  c #A48E45",
"C  c #A39547",
"Z  c #A39A44",
"A  c #AB9B45",
"S  c #A39A4C",
"D  c #AA9D4C",
"F  c #B79A46",
"G  c #AA9A53",
"H  c #A79A58",
"J  c #A59C5C",
"K  c #8DA242",
"L  c #93A440",
"P  c #9CA642",
"I  c #9DA842",
"U  c #9EAB5A",
"Y  c #A4A544",
"T  c #AAA345",
"R  c #A4AA44",
"E  c #AAAE46",
"W  c #ADA34A",
"Q  c #A4AC4A",
"!  c #ABAD4A",
"~  c #B4A646",
"^  c #B2AD46",
"/  c #BEAD47",
"(  c #B4A54B",
")  c #BDA24C",
"_  c #B4AC4B",
"`  c #BAAB4D",
"'  c #AEB047",
"]  c #AFB34F",
"[  c #B4B346",
"{  c #B4B24B",
"}  c #B9B34D",
"|  c #A5A751",
" . c #AAA059",
".. c #B3A553",
"X. c #BCA551",
"o. c #B6AA53",
"O. c #BCAC54",
"+. c #B1A458",
"@. c #B6AA5C",
"#. c #BCAE5B",
"$. c #AEB153",
"%. c #A4B759",
"&. c #B4B353",
"*. c #BBB353",
"=. c #BDB25A",
"-. c #BABA58",
";. c #BABA5A",
":. c #8F8D6D",
">. c #979866",
",. c #9B956B",
"<. c #9A9674",
"1. c #A29E6A",
"2. c #A39D72",
"3. c #A6A66B",
"4. c #BCAD62",
"5. c #B0A46B",
"6. c #B4AE6A",
"7. c #A2B26C",
"8. c #AFBA6E",
"9. c #BBB166",
"0. c #BBBB67",
"q. c #B2B46A",
"w. c #B5BA6A",
"e. c #B9BF69",
"r. c #ABA776",
"t. c #A8A67B",
"y. c #B5AA76",
"u. c #A4B375",
"i. c #A8B377",
"p. c #BCB773",
"a. c #BABD7D",
"s. c #C49D47",
"d. c #C09D4B",
"f. c #C2A34E",
"g. c #C2A551",
"h. c #C4AC54",
"j. c #C4AE5A",
"k. c #C5B256",
"l. c #C8B357",
"z. c #C4B855",
"x. c #C5B45A",
"c. c #C9B559",
"v. c #C5B95A",
"b. c #CBBA5B",
"n. c #C8B95D",
"m. c #CBBA5D",
"M. c #CCBB5E",
"N. c #CABD5D",
"B. c #C1AF60",
"V. c #C4B463",
"C. c #C9B362",
"Z. c #C7BB63",
"A. c #CCBC61",
"S. c #CDBF61",
"D. c #CCBC62",
"F. c #C3B56A",
"G. c #C6B96B",
"H. c #CCBD69",
"J. c #CCBD6B",
"K. c #C4B876",
"L. c #C9BD74",
"P. c #B2C247",
"I. c #BBC062",
"U. c #B8C274",
"Y. c #C7C35C",
"T. c #C5C361",
"R. c #CEC162",
"E. c #CEC263",
"W. c #CDCC64",
"Q. c #CDC16B",
"!. c #CECD6A",
"~. c #D0C466",
"^. c #D1CE67",
"/. c #D1C669",
"(. c #D3C96D",
"). c #CDD067",
"_. c #CED168",
"`. c #D2D367",
"'. c #CEC171",
"]. c #CDC37C",
"[. c #D0C474",
"{. c #D6CD73",
"}. c #D1C37C",
"|. c #D7D177",
" X c #D9D177",
".X c #9F9D86",
"XX c #9C9B94",
"oX c #A19D88",
"OX c #B2AD87",
"+X c #BEB583",
"@X c #B4B08C",
"#X c #AAA495",
"$X c #AEAB94",
"%X c #B2AD98",
"&X c #A6A6A3",
"*X c #ACABA5",
"=X c #AFAFAB",
"-X c #B7B4A4",
";X c #B3B3AC",
":X c #BBBBB6",
">X c #C7BD9A",
",X c #C1BEA6",
"<X c #C0BFB7",
"1X c #C4C482",
"2X c #CFC582",
"3X c #C9C689",
"4X c #CCC693",
"5X c #D4CA92",
"6X c #C3C0B5",
"7X c #C6C5C5",
"8X c #CBCBCB",
"9X c #D5D5D5",
/* pixels */
"M.m.b.b.b.b.b.b.b.b.o.o.S o.o.c.b.c.k.c.c.k.c.c.b.b.b.b.b.b.b.b.b.b.b.b.b.b.b.b.c.m.R./.l.k.l.c.l.l.m.'.b.c.H.G.S.v.v.m.c.k.g.b.",
"S.b.b.b.c.b.b.b.b.m.b.b.b.b.b.b.b.m.m.c.c.k.l./.b.b.b.b.b.b.c.*.b.b.b.b.b.c.c.c.l.l.b.m.k.h.h.l.k.k.c.b.b.G.x.m.x.x.c.b.c.l.l.b.",
"S.S.m.b.k.k.c.c.c.c.b.R.m.S.R.b.b.S.S.H.b.b.m. Xb.b.b.b.c.b.&.{ b.b.x.m.S.m.l.k.c.c.M.k.k.c.k.k.k.k.l.b.h.h.#.m.m.x.O.h.k.m.m.m.",
"m.b.j.b.c.h.k.k.h.k.k.c.k.l.m.b.b.b.b.H.H.b.b.b.b.b.b.b.c.b.{ I b.b.&.=.M.S.c.S.m.c.S.h.h.l.k.k.k.k.k.k.h.h.c.c.x.x.m.c.o.{ E b.",
"S.b.j.b.b.b.l.l.k.g.h.k.k.R.(.b.H.m.b.b.v.z.b.b.k.c.b.c.c.b.E h b.b.[ b.k.h.m.(.S.k.S.k.k.k.k.k.k.k.h.k.c.b.b.k.O.c.c.b.b.b.z.m.",
"N.N.S.b.Q.S.b.b.h.b.N.b.k.Q.R.b.b.c.c.h.x.b.b.b.} k.b.h.b.b.z.L } z.[ m.k.h.S.m.l.g.m.N.k.k.h.C.C.C.k.h.h.k.c.l.l.k.m.b.m.b.b.S.",
"N.S.S.b.[.M.b.b.b.m.S.b.b.|.b.b.b.c.k.X.*.l.c.*.` h.c.h.b.b.b.E z.b.b.m.m.h.l.g.d.g.c.h.f.h.c.h.c.O.4.w C.g.l.k.h.l.m.S.N.b.b.N.",
"b.m.R.Q.'.b.b.N.b.H.H.b.c.N.b.b.m.c.c.z.*.h.h.O._ l.c.k.b.b.b.b.b.b.c.c.H.m.b.c.s O._ s.h.c.h.( ) O.X.A B...h.l.k.(.{.b.c.b.x.x.",
"b.b.b.H.m.x.#.#.m.Q.b./.R.v.b.b.m.m.c.b.b.k.k.O.{ b.k.c.m.m.m.Q.S.c.c.k.h.h.b.g.f.o.*.M.h.X.k.E ( h.O.( W O.h.l.m.{.k.b.c.m.=.#.",
"b.b.b.'.b.x.@.@.c.b.b.S.v.S.S.b.b.b.b.c.b.b.k.` { m.m.b.m.m.Q.H.m.h.h.c.} l.M.h.g._ c.N.6 ` O.n Z o.` W e ..k.O.k.l.c.c.b.m.c.c.",
"b.x.x.b.b.b.=.@.x.b.b.b.m.@X,X%X( m.b.k.c.b.c.b.M.c.N.b.S.H.Q.b.b.c.f.k.` h.g.b.*.~ g.k.) o.u W y ` ( e &.k.! h.h.c.S.c.b.b.b.b.",
"b.=.@.b.N.c.c.m.Q.H.m.b.@X<X:X-X$Xt.D @.c.b.S.b.N.b.N.b.S.m.b.b.b.b.h.) ` k.h.k.) / X.f.h.l.u T P { ! y k.` h.k.k.c.H.b.b.b.x.x.",
"b.x.x.b.&.&.b.m.S.H.m.N M <.oX<.oX<.m 9.#.O.H.S.S.b.x.v.m.z.b.b.b.b.b.h.h.m.m.h.F d.) ) j.H.x.T r R f y ( ` k.k.c.c.H.m.c.m.#.#.",
"b.b.b.b.} } k.c.b.N.O...= - * 2 = M S o.( O.H.H.M.b.} } S.' &.b.b.b.b.c.h.m.m.h.) g.( ) g.k.k.~ n 3 e 9 Z k.c.c.k.c.c.H.c.m.c.c.",
"S.S.b.b.z.' h.h.l.m.b.m.=.o.D G C w Z ( ( ` c.m.m.b.b.R b.R R b.b.b.b.c.k.k.z.h.F h._ g.g.l.h.( ( $ 9 r ( X.x.k.k.c.b.c.c.b.b.b.",
"S.Q.b.b.z.[ k.c.m.N.b.H.S.S.S.S.S.S.m.k.k.x.c.c.S.N.b.[ ] z.d b.b.b.b.c.l.c.z.k.f.d._ h.g.h.k.X.F F ( O.h.X.c.k.l.l.b.b.b.b.b.'.",
"H.S.b.b.N.b.b.N.S.N.m.H.H.H.H.m.b.b.k.c.m.b.b.b.R.b.b.v.g &.f b.m t t J q 7 n c.k.) _ k.g.g.h.k.k.k.c.c.k.c.b.c.c.k.l.b.z.z.z.'.",
"S.Q.b.b.N.M.c.b.N.b.b.b.R.b.C.c.b.k.h.l.H.H.S.m.S.N.b.v.R { c.; J 4 z  .p 5 b 7 a X.) g.C.h.b.k.k.m.c.z.S./.2X'.x.k.k.x.z.b.z.N.",
"b.b.b.c.b.R.h.c.R.N.b.N./.b.c.b.c.h.h.c.b.'.}.H.b.N.~.m.&.d % # . o , 0 =.0 8 4 z h.h.k.c.m.c.c.k.m.v.x.R.3X1Xp.;.v.} } z.[ [ b.",
"N.b.b.c.b.l.c.m.m.b.H.&.*.m.c.b.c.c.c.b.b.m.S.b.b.N./.S.(.R ( X   @ . @ t : o o + o.&.k.l.S.S.S.c.N.z.z.i.a.U.%.U 9.} } ;.[ v.N.",
"b.b.m.c.c.M.b.Z.x.m.H.b.S.H.m.b.N.R.c.m.S.R.N.b.k.M.S.N.R.S.N.O.O.o...#.#.b.o.*.c.c.&.c.c.b.m.H.b.N.z.[ Y 3.1X%.c u.I R Y.h 0.v.",
"m.m.Q.c.c.R.b.b.{.b.b.b.4X].].R.*.z.*.m.c.c.b.b.k.S.R.m.N.R.S.b.O.O.#.N.N.b.b.G.L. .6.c.c.b.b.z.k.R.W.[ L I.!.' f 7.K I `.E 0.Q.",
"M.m.H.b.b.S.b.N./.(.m.4X{./.L.t.! [ *.b.c.*.b.k.k.c.b.b.N.N.S.R.b.b.b.b.b.b.G.G.G.B 5.p.b.c.k.k.E m.^.E Q 0.T.&.g 7.Q R W.U q.(.",
"R.b.b.b.b.b.z.R.~.R.@Xr.6.Q.K.5.o.b.&.m.b.z.m.h.h.h.k.h.b.m.b.H.L.2X].b.N.H.Z.V.G.F.4.h.c.c.k.c.$.;.R.{ =.0.;.{ d } E R ).| u.b.",
"/.m.H.c.k.c.{ N.R.Q.=.>.3.q.p.J o.j.*.m.m.O.h.x.k.k.g.g.l.S.N.m.m.].}.b.R.S.V.V.4.4.O.O.k.c.k.k.N.$.!.&.! w.R._ d ^ ' f { n c./.",
"R.m.S.b.l.k._ v.R.v.&.*.V.R.S.*.*.S.x.k.m.*.h.v.b.h.b.h.k.m.b.b.b.b.b.b.R.S.c.k.x.c.c.b.b.b.c.h.z.$.Z.&.{ w.T.! f P *.z.Y v S./.",
"(.M.H.b.k.c.*.z.O.=.&.v.R.m.h.k.c.b.x.c.k.z.x.v.b.g.b.b.b.m.m.b.b.S.m.N.S.b.b.c.b.c.c.&.b.b.c.k.c.*.*.&.o.w.v.&.R ! _ ` O.O.N./.",
"~.N.b.m.k.k.*.O.h.c.*.m.N.k.h.c.z.{ h Y Y P c.c.c.b.b.&.&.} N.m.m./.N.M.m.b.b.b.{ z.v.R z.k.b.*.&.c.*.{ c.m.N.*.O._ ^ ` V.m.m.N.",
"b.b.b.H.m.b.b.c.c.k.*.k.c.*.&.E { P g R b.E E b.b.b.b.v.v.E &.m.R.R.m.m.m.b.b.b.{ } b.z.! ! b.E O.k.v.*.O.x.v.v.` _ O.m.Q.#.S.b.",
"H.S.b.b.c.c.x.b.m.m.b.N.c.x.c.E } { P R b.b.z.m.b.b.b.b.R.m.b.b.~.m.b.b.b.z.} } &.I z.z.j P.&.&.l.k.c.c.h.x.S.c.k.o.*.Z.H.O.c.b.",
"b.b.b.x.} [ ' b.b.b.b.b.c.c.c.b.b.b.m.H.N.b.b.b.7Xm.b.b.S.l.m.l.R.m.b.b.v.{ } } v.R E z.y ^ y Y b.b.b.b.h.m.Q.N.b.[ z.R.N.c.b.b.",
"b.b.b.b.b.b.b.b.c.R.S.c.c.c.c.b.b.b.].5X}.b.b.8X9X8X:Xm.b.l.m.c.R.N.b.b.m.b.b.b.b.} T T 9 v r T b.c.k.b.b.N.R.N.b.b.b.N.N.b.b.b.",
"b.b.b.b.b.b.b.b.c.m.R./.k.k.l.c.c.c.m.'.b.c.7X8X:X&X.XS.N.k.g.b.M.m.b.b.b.b.b.b.b.b.o.o.S o.o.c.b.c.k.c.c.g.h.c.b.b.b.b.b.b.b.b.",
"b.b.b.b.b.c.l.l.l.l.b.m.k.h.h.k.k.k.c.b.b.;X*X;X=X=X,.m.b.l.l.b.S.b.b.b.c.b.b.b.b.m.b.b.b.b.b.b.b.m.m.c.c.k.k.(.b.b.b.b.b.b.v.z.",
"b.b.x.m.S.m.l.k.c.c.M.k.k.c.k.k.k.l.l.b.c.H XX&XXX:.B k.b.b.b.b.S.S.m.b.k.k.c.c.c.c.b.R.m.S.R.b.b.S.S.H.b.b.m. Xb.b.b.b.c.b.*.x.",
"b.b.&.=.M.S.l.S.m.c.S.h.h.l.k.k.k.k.k.c.c.#.+.J x #.m.b.I I E b.m.b.j.b.c.h.k.k.h.k.k.c.k.l.m.b.b.b.b.H.H.b.b.b.b.b.b.b.c.b.*.x.",
"b.b.[ b.k.h.m.(.S.k.S.k.k.k.k.l.k.k.h.k.c.b.b.k.O.c.c.b.b.b.z.m.S.b.j.b.b.b.l.l.k.g.h.k.k.R.(.b.H.m.b.b.v.z.b.b.k.c.b.c.c.b.*.x.",
"} z.[ m.k.h.S.m.l.g.m.N.k.k.k.H.C.C.j.h.h.k.c.l.l.k.m.b.m.b.b.S.N.N.S.b.Q.S.b.b.h.b.N.b.k.Q.R.b.b.c.c.h.x.b.b.b.} k.b.h.b.b.c.x.",
"z.b.b.m.N.h.l.g.d.g.c.h.f.g.c.h.m.G 5.w C.h.l.k.h.l.m.S.N.b.b.N.N.S.S.b.[.M.b.b.b.m.S.b.b.|.b.b.b.c.k.X.*.l.c.*.` h.c.h.b.b.b.z.",
"b.b.c.c.H.m.b.c.s O._ s.f.c.a 6 i G V w 5.H h.l.k.(.{.b.c.b.x.x.b.m.R.Q.'.b.b.N.b.H.H.b.c.N.b.b.m.c.c.z.*.h.h.O._ l.c.k.b.b.b.b.",
"S.c.c.k.h.h.b.g.f.o.*.m.h.i D x x i 0 > k l X.l.m.{.k.b.c.m.=.#.b.b.b.H.m.x.#.#.b.Q.b./.R.v.b.b.m.m.c.b.b.k.k.O.{ b.k.c.m.m.m.Q.",
"m.h.h.c.} l.M.h.g._ c.N.6 > 6 , , < ; + O & X.h.k.l.c.c.b.m.c.c.b.b.b.'.b.x.@.@.c.b.b.S.v.S.S.b.b.b.b.c.b.b.k.` { m.m.m.m.m.Q.H.",
"b.c.f.k.` h.g.b.*.~ g.k.F 1 # , % ; % l +.h.O.h.h.c.S.c.b.b.b.b.b.x.x.b.b.b.=.@.x.b.b.b.m.@X@Xt.W m.b.k.c.b.c.b.M.c.N.b.S.H.Q.b.",
"b.b.h.) ` k.h.k.) / X.f.h.f.A A D ` ` ( k.` h.h.k.c.H.b.b.b.x.x.b.=.@.b.N.c.c.m.Q.H.m.b.OX@X1.1.t.1.D @.c.b.S.b.N.b.N.b.S.m.b.b.",
"b.b.b.h.h.m.m.h.F d.) ) j.H./ A A _ ~ ( ` ` k.k.c.c.H.m.c.m.#.#.b.x.x.b.&.&.b.m.S.S.m.N M M N N ,.,.m 9.#.O.H.S.S.b.x.v.b.z.b.b.",
"b.b.b.c.h.m.m.h.) g.( ) g.k.} T ( b W W W k.c.c.k.c.c.H.c.m.c.c.b.b.b.b.} } k.c.b.N.O...= - * 2 = M S o.( O.H.S.M.b.} } N.E &.b.",
"b.b.b.c.k.k.z.h.F h._ g.g.c.h.) ` x A D ( X.x.k.k.c.b.c.c.b.b.b.S.S.b.b.z.' h.h.l.m.b.m.=.o.D G C w Z ..( ` c.x.m.b.b.R b.R R b.",
"c.c.b.b.l.c.z.k.f.d._ h.g.h.k.X.( ( ` O.h.X.c.k.l.l.b.b.b.b.b.'.S.Q.b.b.z.[ k.c.m.N.b.H.S.S.S.S.S.S.S.x.k.x.c.c.S.N.b.[ ] z.d b.",
"O.( t J q 7 n c.k.) _ k.g.h.h.k.k.k.c.c.k.c.b.c.c.k.l.b.z.z.z.'.H.S.b.b.N.b.b.N.S.N.m.H.H.H.H.m.b.b.k.c.m.b.b.b.R.b.b.v.g &.f b.",
"@.q z  .p 5 b 7 a X.) g.C.h.b.k.k.m.c.x.S./.2XL.x.k.k.x.z.b.z.N.S.Q.b.b.N.M.c.b.N.b.b.b.R.b.C.c.b.k.h.l.H.H.S.m.S.N.b.v.R { b.O.",
". o , 0 =.0 8 4 z h.h.k.c.m.c.c.k.m.v.x.R.3X1Xp.;.v.} } z.[ [ b.b.b.b.c.b.R.h.c.R.N.b.N./.b.c.b.c.h.h.c.b.'.}.H.b.N.~.m.&.d T k.",
"t @ . @ t : o o + o.&.k.l.S.S.S.c.N.z.z.i.a.U.%.U 9.} { ;.[ v.N.N.b.b.c.b.l.c.m.m.b.H.&.*.m.c.b.c.c.c.b.b.m.S.b.b.N./.S.(.R O.k.",
"*.o...#.#.b.o.*.c.c.&.c.c.b.m.S.b.N.z.[ Y 3.1X%.c u.P R Y.h 0.v.b.b.m.c.c.M.b.Z.x.m.H.b.H.H.m.b.N.R.c.m.S.R.N.b.k.M.S.N.R.S.N.x.",
"O.O.#.N.N.b.b.K.>X$Xy.c.c.b.b.z.k.R.W.[ P I.!.E f 7.K I `.E 0.Q.m.m.Q.c.c.R.b.b.(.b.b.b.4X].].R.*.z.} v.c.c.b.b.k.S.R.m.N.R.S.b.",
"b.b.b.b.b.b.>X6X:X;X%Xy.b.c.l.k.E c.`.I Q e.Y.$.g 7.Q R W.U q.(.M.m.H.b.b.S.b.N./.(.m.4X{./.L.t.! { ^ b.c.` b.k.k.c.b.b.N.N.S.R.",
"'.2X].b.N.H.+X%X-X-X#XX.c.c.l.c.$.! W.! =.8.&.! d } E R ).| u.b.R.b.b.b.b.b.z.R./.R.@Xr.6.Q.+X2.o.b.! m.N.&.m.h.h.h.k.h.b.m.b.H.",
"m.].}.b.R.S.y.y.5.2.S O.k.c.k.k.N.P _.Q E 8.T.! d E ' f { n c././.m.H.c.k.c.{ N.R.(.=.>.1.a.OXN o.j.! m.S.T h.x.k.k.g.g.l.S.N.m.",
"b.b.b.b.R.S.x.h.x.c.c.b.b.b.c.h.z.L &.I E 8.T.! f P *.*.Y v S./.R.m.S.b.l.k._ v.Q.N.&.*.V.{./.O.*.Q._ _ Q.T h.v.b.h.b.h.k.m.b.b.",
"b.S.m.N.S.b.b.c.b.c.c.&.b.b.c.k.c.[ R f o.8.;.! R ! _ ` O.O.N./.(.M.H.b.k.c.*.z.O.@.&.v.~./.o.&.c.c.` k.A Y x.v.b.g.b.b.b.m.m.b.",
"m./.N.M.m.b.b.b.{ z.v.R z.k.b.*.*.O.! d c.m.v.&.O._ ^ ` V.m.m.N.~.N.b.m.k.k.*.O.O.k.*.m.N.l.O.=.x._ y R Y n c.c.c.b.b.&.&.} N.m.",
"R.R.m.m.m.b.b.b.{ } b.z.! ! b.E O.O.c.*.h.c.v.v.` _ O.m.Q.#.S.b.b.b.b.H.m.b.b.c.c.h.*.k.c.*.&.E { P g R b.E E b.b.b.b.v.v.E &.m.",
"~.m.b.b.b.z.} } &.I z.z.j P.&.&.l.k.c.c.h.c.S.c.k.o.*.Z.H.O.c.b.H.S.b.b.c.c.x.b.m.m.b.N.c.x.c.E } { P R b.b.z.m.b.b.b.b.R.m.b.b.",
"R.m.b.b.v.{ } } v.R E z.y ^ y Y b.b.b.b.h.m./.N.b.[ z.R.N.c.b.b.b.b.b.x.} [ ' b.b.b.b.b.c.c.c.b.b.b.m.S.N.b.b.b.L.b.b.b.S.l.m.l.",
"R.N.b.b.m.b.b.b.b.} T T 9 v r T b.c.k.b.b.N.R.N.b.b.b.N.N.b.b.b.b.b.b.b.b.b.b.b.c.R.S.c.c.c.c.b.b.b.'.H.S.b.b.H.m.m.G.b.b.l.m.c."
};
