/* XPM */
static const char *wood_wall[] = {
/* columns rows colors chars-per-pixel */
"64 64 3 1 ",
"  c black",
". c #493012",
"X c #694F32",
/* pixels */
"                                                                ",
"                                                                ",
"                                                                ",
"                                                                ",
"                                                                ",
"                                                                ",
"                                                                ",
"                                                                ",
"                                                                ",
"                                                                ",
"                                                                ",
"                                                                ",
"                                                                ",
"                                                                ",
"                                                                ",
"                                                                ",
"                                                                ",
"                                                                ",
"                                                                ",
"                                                                ",
"                                                                ",
"................................................................",
"................................................................",
"XX..XXXXXXX..XXXXX..XXXXXX..XXXX..XXXX..XXXX..XXXXX..XXXXX..XXXX",
"XX..XXXXXXX..XXXXX..XXXXXX..XXXX..XXXX..XXXX..XXXXX..XXXXX..XXXX",
"XX..XXXXXXX..XXXXX..XXXXXX..XXXX..XXXX..XXXX..XXXXX..XXXXX..XXXX",
"XX..XXXXXXX..XXXXX..XXXXXX..XXXX..XXXX..XXXX..XXXXX..XXXXX..XXXX",
"XX..XXXXXXX..XXXXX..XXXXXX..XXXX..XXXX..XXXX.........XXXXX..XXXX",
"XX..XXXXXXX.........XXXXXX..XXXX..XXXX..XXXX.........XXXXX..XXXX",
"XX...XXXXXX.........XXXXXX..XXXX..XXXX..XXXX..XXXXX..XXXXX..XXXX",
"XXX..XXXXXX..XXXXX..XXXXXX..XXXX..XXXX..XXXX..XXXXX..XXXXX..XXXX",
"XXX..XXXXXX..XXXXX..XXXXX...XXXX..XXXX..XXXX..XXXXX..XXXXX..XXXX",
"XXX..XXXXXX..XXXXX..XXXXX..XXXXX..XXXX..XXXX...XXXX..XXXXX..XXXX",
"XXX..XXXXXX..XXXXX..XXXXX..XXXXX..XXXX..XXXXX..XXXX..XXXXX..XXXX",
"XXX..XXXXXX..XXXXX..XXXXX..XXXXX..XXXX..XXXXX..XXXX..XXXXX..XXXX",
"XXX..XXXXXX..XXXXX..XXXXX..XXXXX..XXXX..XXXXX..XXXX.........XXXX",
"XXX..XXXXXX..XXXXX..XXXXX.........XXXX..XXXXX..XXXX.........XXXX",
"XXX..XXXXXX..XXXXX..XXXXX.........XXXX..XXXXX..XXXX..XXXXX..XXXX",
"XXX..XXXXXX..XXXXX..XXXXX..XXXXX..XXXX..XXXXX..XXXX..XXXXX..XXXX",
"XXX..XXXXXX..XXXXX..XXXXX..XXXXX..XXXX..XXXXX..XXXX..XXXXX..XXXX",
"XXX..XXXXXX..XXXXX..XXXXX..XXXXX..XXXX..XXXXX..XXXX..XXXXX..XXXX",
"XXX..XXXXXX..XXXXX..XXXXX..XXXXX........XXXXX..XXXX..XXXXX..XXXX",
"XXX..XXXXXX..XXXXX..XXXX...XXXXX........XXXXX..XXXX..XXXXX..XXXX",
".....XXXXX...XXXXX..XXXX..XXXXXX..XXXX..XXXXX..XXXX..XXXXX......",
".....XXXXX..XXXXXX..XXXX..XXXXXX..XXXX..XXXXX..XXXX..XXXXX......",
"XXX..XXXXX..XXXXXX..XXXX..XXXXXX..XXXX..XXXXX..XXXX..XXXXX..XXXX",
"XXX..XXXXX..XXXXXX..XXXX..XXXXXX..XXXX..XXXXX...XXX..XXXXX..XXXX",
"XXX..XXXXX..XXXXXX..XXXX..XXXXXX..XXXX...XXXXX..XXX..XXXXX..XXXX",
"XXX..XXXXX..XXXXXX........XXXXXX..XXXXX..XXXXX..XXX..XXXXX..XXXX",
"XXX.........XXXXXX........XXXXXX..XXXXX..XXXXX..XXX..XXXXX..XXXX",
"XXX.........XXXXXX..XXXX..XXXXXX..XXXXX..XXXX...XXX..XXXXX..XXXX",
"XXX..XXXXX..XXXXXX..XXXX...XXXXX..XXXXX........XXXX..XXXXX..XXXX",
"XXX..XXXXX..XXXXXX..XXXXX..XXXXX..XXXXX........XXXX..XXXXX..XXXX",
"XXX..XXXXX..XXXXXX..XXXXX..XXXXX..XXXXX..XXXX..XXXX..XXXXX...XXX",
"XXX..XXXXX..XXXXXX..XXXXX..XXXXX..XXXXX..XXXX..XXXX..XXXXXX..XXX",
"XXX..XXXXX..XXXXXX..XXXXX..XXXXX..XXXXX..XXXX..XXXX...XXXXX..XXX",
"XXX..XXXXX..XXXXXX..XXXXX..XXXXX..XXXX...XXXX..XXXXX..XXXXX..XXX",
"XXX..XXXXX..XXXXXX..XXXXX..XXXXX..XXXX..XXXXX..XXXXX..XXXXX..XXX",
"................................................................",
"................................................................",
"................................................................",
"................................................................",
"................................................................",
"................................................................"
};
