/* XPM */
static const char *wood_tile[] = {
/* columns rows colors chars-per-pixel */
"64 64 3 1 ",
"  c #493012",
". c #694F32",
"X c #9E774B",
/* pixels */
"XXXXXXXXXXXXXXXXXXXXXXXXXXXXXXXXXXXXXXXXXXXXXXXXXXXXXXXXXXXXXXXX",
"XXXXXXXXXXXXXXXXXXXXXXXXXXXXXXXXXXXXXXXXXXXXXXXXXXXXXXXXXXXXXXXX",
"XX............................XXXX............................XX",
"XX............................XXXX..........  ................XX",
"XX......  ....................XXXX.. ........  ...............XX",
"XX...... .....................XXXX..  ........  ..............XX",
"XX..... ......................XXXX...  ......... .....   .....XX",
"XX....  ...........  .........XXXX..... ......... ......  ....XX",
"XX.... ............ ..........XXXX...... ......... ....... ...XX",
"XX................ ...........XXXX.......  ........ ....... ..XX",
"XX................ ...........XXXX......... ........ .........XX",
"XX............... ............XXXX.......... ........ ........XX",
"XX..............  ............XXXX...........  .......  ......XX",
"XX........ ..... .............XXXX.............  ....... .....XX",
"XX....... ..... ..............XXXX....................... ....XX",
"XX......  ..... ..............XXXX........................ ...XX",
"XX...... ..... ...............XXXX............................XX",
"XX..... .................. ...XXXX.. ........ ................XX",
"XX....  ................. ....XXXX..  .......  ...............XX",
"XX.... ................. .....XXXX...  ........  .............XX",
"XX... .................. .....XXXX....  ........  ............XX",
"XX.. ............. ...........XXXX..... ..........  ..........XX",
"XX.. ............ ............XXXX......  ..........  ........XX",
"XX............... ............XXXX.......  ..........  .......XX",
"XX.............. .............XXXX......... ........... ......XX",
"XX.............  .............XXXX.........  ...........  ....XX",
"XX............. ..............XXXX........................ ...XX",
"XX............................XXXX............................XX",
"XX............................XXXX............................XX",
"XX............................XXXX............................XX",
"XXXXXXXXXXXXXXXXXXXXXXXXXXXXXXXXXXXXXXXXXXXXXXXXXXXXXXXXXXXXXXXX",
"XXXXXXXXXXXXXXXXXXXXXXXXXXXXXXXXXXXXXXXXXXXXXXXXXXXXXXXXXXXXXXXX",
"XXXXXXXXXXXXXXXXXXXXXXXXXXXXXXXXXXXXXXXXXXXXXXXXXXXXXXXXXXXXXXXX",
"XXXXXXXXXXXXXXXXXXXXXXXXXXXXXXXXXXXXXXXXXXXXXXXXXXXXXXXXXXXXXXXX",
"XX............................XXXX............................XX",
"XX............................XXXX............................XX",
"XX............................XXXX............................XX",
"XX............................XXXX...... .......... ..........XX",
"XX............................XXXX...... .......... ..........XX",
"XX..............  ............XXXX..... .......... ...........XX",
"XX...............   ..........XXXX..... .......... ...........XX",
"XX....   ...........  ........XXXX.... .......... ............XX",
"XX......   ...........  ......XXXX... .......... .............XX",
"XX........  ...........   ....XXXX..  .......... .............XX",
"XX..........  ........... ....XXXX.. ..... .... ....... ......XX",
"XX............  ..............XXXX........ .... ...... .......XX",
"XX..............  ............XXXX.......  ... ......  .......XX",
"XX................  ..........XXXX....... ...  ...... ........XX",
"XX............................XXXX....... ... ......  ........XX",
"XX.. .........................XXXX...... ... .................XX",
"XX...  .......................XXXX...... .. .............. ...XX",
"XX.....  .....................XXXX..... ... ............. ....XX",
"XX....... .......  ...........XXXX..... .. ...... ....... ....XX",
"XX........ ........  .........XXXX.... ......... ....... .....XX",
"XX................... ........XXXX...  ......... ....... .....XX",
"XX....................  ......XXXX... ......... ....... ......XX",
"XX......  ..............  ....XXXX.. ......... .......  ......XX",
"XX........ ............... ...XXXX. .........  ....... .......XX",
"XX......... ............... ..XXXX. ......... ....... ........XX",
"XX.......... .................XXXX.......... ....... .........XX",
"XX........... ................XXXX............................XX",
"XX............................XXXX............................XX",
"XXXXXXXXXXXXXXXXXXXXXXXXXXXXXXXXXXXXXXXXXXXXXXXXXXXXXXXXXXXXXXXX",
"XXXXXXXXXXXXXXXXXXXXXXXXXXXXXXXXXXXXXXXXXXXXXXXXXXXXXXXXXXXXXXXX"
};
