/* XPM */
static const char *woodpath_snowy[] = {
/* columns rows colors chars-per-pixel */
"64 64 66 1 ",
"  c #96846F",
". c #988772",
"X c #9E8E7B",
"o c #A1917E",
"O c #A49584",
"+ c #A79889",
"@ c #AB9D8D",
"# c #AF9F91",
"$ c #AEA191",
"% c #B1A495",
"& c #B3A799",
"* c #B6A99B",
"= c #B8AC9F",
"- c #BAAEA1",
"; c #BDB2A5",
": c #BFB4A9",
"> c #C0B6AA",
", c #C3B9AE",
"< c #C6BCB2",
"1 c #C8BFB4",
"2 c #CAC1B7",
"3 c #CDC5BB",
"4 c #CFC8BE",
"5 c #D0C7BF",
"6 c #D0C8BF",
"7 c #CFC6C0",
"8 c #D3CCC4",
"9 c #D6CEC8",
"0 c #D6D0C7",
"q c #D7D0C9",
"w c #DAD3CD",
"e c #DDD7D1",
"r c #DED9D3",
"t c #E1DCD6",
"y c #E3DED9",
"u c #E4E0DC",
"i c #E7E3DE",
"p c #E8E4DF",
"a c #E2E2E2",
"s c #E7E4E0",
"d c #E7E7E7",
"f c #E8E4E0",
"g c #E9E7E2",
"h c #EBE7E3",
"j c #EBE7E4",
"k c #EBE8E4",
"l c #EDEAE7",
"z c gray92",
"x c #EEEBE8",
"c c #EFEDEA",
"v c #EFEFEF",
"b c #F1EEEB",
"n c #F1EFED",
"m c #F3F1EE",
"M c gray94",
"N c #F5F3F1",
"B c #F5F4F2",
"V c #F4F4F4",
"C c gray96",
"Z c gray97",
"A c #F8F7F6",
"S c #F9F8F7",
"D c #F8F8F8",
"F c #FCFBFB",
"G c #FCFCFB",
"H c gray99",
/* pixels */
"MMMMCMCCzMMzzvdvvzvMCMCCMDCCCMCzMMzzzzzzvMvMDCCCDDHDMMMMzvvvMvvM",
"vvMMMCCMMMvzMzdzzMCDDCCCCDCMMvvMdvzvMzvMMMCCDCCCDDHDCCMzzvdddddM",
"vvzvvMMvvvMvMzvMCCDDDDDDDCMnMvvddzMvMvMMMCCCCMzMCDDCDDMvzvzdzzvz",
"MzvMMCMCCl<zCvCCDDCDDD*CCCMMMvMvzvMCMvvvMMMMCCvMCCDHDDCCMvvzzdMC",
"MvMMMvM*gByCCCCDDDDDC;*@CMMMMvvMdMMCCMMCDCCMvMMCCMCCDDCCMvzMazMv",
"zMvvCMX1iyMvCMMDCDD8gw=CMMvvvvMMgMMMMMCCCMCMvC4gCDCDDDCNCMMMzMMv",
"vCMMD<gmMvMMCCCDDDyiA4CCCMMMvv,wt8MMMvMMCvvMM>>:MCCCCCCCMMCvMvMv",
"MMCDDHDDHCDCCMCM8yj8CCDCCCMCv8<egCMMCMMMCCMM33iCCCCCCDCvCCMvMMvM",
"CCDDDDvCMDMCCCMt;iGMDCCCCMCMwlcMvzzMCDMCCCM;3AvMMMCMCCMCMMMvCMvC",
"CMCDDDMCCMDDCDmwiBCDMMDCCCCvllCvvMCCCMMCCDe&+MCCMMMMCCvDDMDCCDCD",
"DDHDDHDCCDMCCnb;gjNCMMMCCDCCCCzMDCMCDCDCCCD<CCCMCCCCxGMMMMDDCHDD",
"DDCDHHDDDCCC8ktDDgiyMCCCCCCCCCMCCMCDDDDDCCDCCCCADDCwyNgvCMMDHHDC",
"DDDDDCDDCCM.8gDACD18yC8MCDDDCMMCCMDDCDDDDDCCCDDCDDy2bMMvvMDDDCDD",
"CCDHCCDCCCCCCDCDDDM-4iqeCCCCCMCMCCDDDDDDDDCCDDDDHm8*MCMvMDCDDDCD",
"DDDCDCCDDCCCMMCCMCC,8iyCCDCMCCwMCCDDDDD4DDCCMDDDmmeCMMvvMMCCDMCD",
"CHDCDCDDMMMMCMMMMCCDCCDDDCMMM5<<CDDCDDBi:DCMMCC,4;>CMvvMCMDvMCDD",
"DCDDDDDDCMvvMMMvMCCCCDDDCCCM884$:DDDDlACvCvMvMM-y-&4CMMMCvMCvDCC",
"DCDDDDCCCMvCMvvvCMCCCDDDCCwkNyM<rsC8OynCMMMvvvvMMM@2w,MMCCvMCDCD",
"MDCDCDCCMvMMvMvvCCCCCDDDC*&e8zzzmNy7@4MCMMCvzvMMCMCcSCpCCMMMCvCC",
"DDCMMCvMvvMvvvtMCCCDDDDr5x&vzdvvvlygMMMCMMCMMMMCCMMgkMCCMMCDCCDC",
"DDvMMvvMMvvvv+riMCCDCDw3;4zvvvvvvv:MMCvCCDDDDDCMMCb38CCCCCCCCDDM",
"DDCMCMMMMMMyt2wvvMvCM0e8MMMMMMMMMCMzvMMNDDCDCCCCv,90MCCDDCCCDCCD",
"DDDDCCCCCMileivvvvvv*8<vzvvMzMMvvMvMMMrNHDCMvCCC3wjCCCCDDDDDDHDD",
"DDDDMCCCMi4wMMvzMMMCMMMMvzvMCMCMvvMCC-4MDCMCCD24;wCMDCCCDDCDHDDH",
"DDDCCMCnFinvvvvvMMMMMMCCMvvMCMMDCCCg2,2CDCMMCr:irCCM:1MDDDDCDDCD",
"DCCCCCABA4MvvvvvMvvvvvvCMvMMvCDDDCSmyeDCDCMvqtyCCCCg4&4MC8CDDDDD",
"DCCCMBADMMMvvvMvvzvvvvvvMMMMCDDDDylwDDDDCCv:egCCCCCCMig1;;4DDDDD",
"MMMMwmBMMMMvvMMvvvvvMvvdvMMCMDD1,88DDDDCCCy,-CCCCCMMMzqO*2CMCCCC",
"MMMvvr6gMCMMMCMvvvMvvMMMMCCDCDq-;sDDDDDN94i<vvvMMCvvvviwwMMMCMMM",
"vMMMMM&<iCCCMCMvMCMMvvCMCCDCCDCCHDHCDDD4eigMMddvzMvvmj88vMMMCMvv",
"vCCCCCC4bSCDvMDCDDCMMMCMMCCMCCCCDDDDDDviyMMMddzdvav8bnqvzMCMCMMz",
"MCCvzMMvMMCCCCDCDHDCCCMe8CvzzzMMMMCCCDCCCMMMvMMdzv>wyvvvvvCCCCCM",
"MMzzzzzzvMvMDCCCDDDCMMgw8vvvMvvMvMMMCMCCzMMzzvdv2*@#CMCCMDDDCMCz",
"dvzvMzvMMMCCDCCCDDDDCtq-zvddzzdMvvMMMCCMMMvzMzd>*;2DDCCCCDCMMvvM",
"dzMvMvMMMCCCCMzMCDDCgyyMzvzdzz8zvvdvvCMvvvMvMzvMCCDDDDDDDCMvMvvd",
"zvMCMvvBMMMMCCvMCCwNegCDMvvzvq2;MzvMMCMCCCCzCvCCDDCDDDDCMCMMMvMv",
"dMMCCMnnSCCMvMMCC,gAxgcMMvzMiy$vMvMMMvMCCCCCCCCDDDDDCCCCCM=$MvvM",
"MMMvMlbBCMCMvCC2&%nDDcNmCM1&ggMvzMvvCMDDMCBvCMMDDDDDCCBCM<4>vvMM",
"CvMMcg4MCvvMMCyi,9CCCCCCv3:=ivMvvCMMDCHDMvMMCCCDDDCDDDCC;3NMvvMv",
"vCMytlMMCCMMv*gACCCCCDC*wyivMMvMMMCDDHDDDCDCCM,*DCDDCCD-$,MCvMCM",
"vzzMCDMCCCMMMMvMMMCMCCi<iDMvMMvCCCDDHAvMMDMCC>ewy4DMDCy2ciCMMMvM",
"vMCCCMMCCDCCCMCCMMMMCxgwDMDCCCCHCMCDDDMCCCDD88mlBwwDMMq:<CCvMCCv",
"DCMCDCDCCCCCCCCMCCCCyg8MMMDDC4r,3DHDDDDCCDMCrpCCCiqmMMMCCDCCCCzM",
"CMCDDDDDCCDCCCCDCDCDwyCvCMMDkr8;DDCDHHDDDCC8iwMCDCCMMCCCCCCCCCMC",
"CMCDCDDDDDCCCDDCDDCCwMMvvMDDcBDDDDDDDCDDCC8w3CDCCDCCCDCMMCDDCMMC",
"CCDCDDDDDDDCDDCDDCDCMCMvMD3r8iCDCCDHCCDCC8q8CDCDDDMMCCDCCCCCCMCM",
"CCDDDDDDDDCCMDDDDDCCMMvvmw8rDMCDDDDCDCC424tCMMCCMCCCDCCCCDCMCCCM",
"CDDCDDDDDDCMMCCCCCCCMvviiwivMCDDCHDCDD@yw,MMCMMMMCCDCCDCDCMMMCMC",
"DDDDDDCMvCvMvMgyCCCCCMglxvMCvDCCDCDDDD8yCMvvMMMvMCCCCDDDCCCMCvCD",
"CCCCCDCCMMMvvBCNMMCMng2gCCvMCDCDDCDDDDDCCMvCMvvvCMCCCDDDCCvMzzMM",
"vMvMvMMCMMCvmCBMCMCqr42CCMMCCvCCMDCDDDCCMvMMvMvMCMCCCDDDCMMMzzzz",
"vMvMMMMCMMCbFnMCCM<;gMCCMMNDCCDCDCCMMCvMvvMvvvbNNCCDDDDCC,vvzdvv",
"vvMMMCvCCDltrDCMMg<wCCCCCiglMADMDCvMMvvMMvvvvilMMCCDCDCC+8Bvvvvv",
"MCMzvMMMppyrCCCCvMMCMCCDDC8xFCCDCCCMCMMMMMMMgBnlvMvCMCM; <MMMMMM",
"vMvMMMC4yl8MvCCCCCCCCCCDCDD2wrDDDDDCCCCCCMMiNmvvvvvvvvp23vvMzMMv",
"vvMCCCC@-CMCCDDCCCCMDCCCDDCDwk3HDDDDCCCCM6tyyMvzMMMC8yy4vzvMCMCM",
"CCCCDCDDDCMMCCCCDCCMCCMDDCyrwbCDDDDCCMMM%wi;vvvvMMMFBigCMvvMCCMC",
"DCDDDDDCDCCMCMMCCCCMCMMMA8688DDHDCCMMCMMo4MvvvvvMvBSnvvCMvMMvCDD",
"DHDDDDDDCCvCCMCCCCCCMMMDBriDDDDDDCCCMMMMoMMvvvMvvzvvvvvvMMMMCDDD",
"HDDDDDDCCCMCCCCCCCMMMzDgeMCMCCCCCMMMMMMMMMMvvMMvvvvvMvvdvMMCMDDH",
"HDDDDDDMCCMvvvvMMCvvDHbgMMMMCMMMMMMvvMCCMCMMMCCvvvMvvMMMMCCDCDDD",
"DDDCDDDCCCvMMddvzMvMrDBzvMMMCMMvvMMMMMvCMMCCMCCvMCMMvvCMCCDCCDCC",
"DDDDDDvCCMMMddzdvagl4vzvzMCMCMMvvCCCCCCCCCCDvMDCDDCMMMCMCCDMCCCC",
"MCDCCDCDCMMMvMMdzvzvMvvvvvCCCCCCMDCvzMMvMMCCCCDCDHDCCCMzvCvzzzvM"
};
