/* XPM */
static const char *yellow_grass[] = {
/* columns rows colors chars-per-pixel */
"64 64 2 1 ",
"  c #ADC21B",
". c #DDE21B",
/* pixels */
"................................................................",
"................................................................",
"................................................................",
"................................................................",
"................................................................",
"................................................................",
".....................................................     ......",
"....................................................      ......",
"....................................................      ......",
"...............     ................................    ........",
"...............     ............................................",
"...............     ............................................",
"................................................................",
"................................................................",
"................................................................",
"...     ........................................................",
"...     .................................     ..................",
"...     ...............................       ..................",
".....   ...............................       ..................",
".......................................     ....................",
"................................................................",
"................................................................",
"................................................................",
"................................................................",
"................................................................",
"................................................................",
"................................................................",
"...............     ................................    ........",
"..............      ................................     .......",
"..............      ................................     .......",
"..............    ...................................    .......",
"................................................................",
"................................................................",
"................................................................",
"................................................................",
"................................................................",
"................................................................",
"................................................................",
"................................................................",
"......................    ......................................",
".....................     ......................................",
".....................     ......................................",
".....................    ....................       ............",
".............................................       ............",
".............................................       ............",
"................................................................",
"................................................................",
"................................................................",
"................................................................",
"................................................................",
"................................................................",
".....     ......................................................",
".....     ......................................................",
".....     ......................................................",
"................................................................",
"................................................................",
"................................................................",
"..............................        ..........................",
"..............................        ..........................",
"..............................        ..........................",
"................................................................",
"................................................................",
"................................................................",
"................................................................"
};
