/* XPM */
static const char *algae_green[] = {
/* columns rows colors chars-per-pixel */
"64 64 245 2 ",
"   c #0C2E3E",
".  c #0A383A",
"X  c #0A3A3C",
"o  c #05571C",
"O  c #046616",
"+  c #08482D",
"@  c #08572C",
"#  c #0A4836",
"$  c #0B563A",
"%  c #0B5B3B",
"&  c #08662A",
"*  c #0A6334",
"=  c #0A6C34",
"-  c #0C643C",
";  c #0C6A3B",
":  c #0A7131",
">  c #0B7330",
",  c #0F753A",
"<  c #11763D",
"1  c #0F1E55",
"2  c #10165A",
"3  c #101C5C",
"4  c #0D2846",
"5  c #0D2C4C",
"6  c #0C3443",
"7  c #0C3B43",
"8  c #0D334B",
"9  c #0E3C4B",
"0  c #0F2453",
"q  c #0E2B52",
"w  c #0F265A",
"e  c #102656",
"r  c #102C55",
"t  c #11245D",
"y  c #112C5C",
"u  c #0F3353",
"i  c #0F3B55",
"p  c #0E385B",
"a  c #123556",
"s  c #103C55",
"d  c #11345C",
"f  c #123C5C",
"g  c #131965",
"h  c #121B64",
"j  c #141C6B",
"k  c #161E74",
"l  c #171F79",
"z  c #181F7B",
"x  c #122363",
"c  c #132C64",
"v  c #1B2B62",
"b  c #14246B",
"n  c #142B6B",
"m  c #133464",
"M  c #143D65",
"N  c #15356D",
"B  c #153A6B",
"V  c #1A3A6A",
"C  c #162474",
"Z  c #162B74",
"A  c #182977",
"S  c #182E76",
"D  c #17227A",
"F  c #19237D",
"G  c #192A7C",
"H  c #0E3471",
"J  c #173372",
"K  c #1A3375",
"L  c #1C3B74",
"P  c #163779",
"I  c #1E347B",
"U  c #273B75",
"Y  c #21347D",
"T  c #29337C",
"R  c #243C7D",
"E  c #0C4445",
"W  c #0D4C45",
"Q  c #0E434C",
"!  c #0E4B4C",
"~  c #0D5445",
"^  c #0D5C45",
"/  c #0F544C",
"(  c #0F594A",
")  c #115C46",
"_  c #10544E",
"`  c #125C4C",
"'  c #0F4452",
"]  c #0F4B51",
"[  c #104555",
"{  c #114C54",
"}  c #12455D",
"|  c #124B5B",
" . c #194A5B",
".. c #0F5250",
"X. c #115253",
"o. c #165B54",
"O. c #165459",
"+. c #19545D",
"@. c #1A5A5C",
"#. c #0D6242",
"$. c #14644C",
"%. c #166D4B",
"&. c #177648",
"*. c #166353",
"=. c #1B6B54",
"-. c #1C635B",
";. c #1B7252",
":. c #216A5D",
">. c #23795B",
",. c #0D4865",
"<. c #144263",
"1. c #174765",
"2. c #1A4B64",
"3. c #1B436B",
"4. c #1E4B6B",
"5. c #1C5364",
"6. c #1D5A62",
"7. c #1E5169",
"8. c #0F4F73",
"9. c #1D4577",
"0. c #23496A",
"q. c #21556B",
"w. c #245C68",
"e. c #224375",
"r. c #244B73",
"t. c #25437B",
"y. c #28477B",
"u. c #2B4C7C",
"i. c #35497E",
"p. c #275574",
"a. c #2A5574",
"s. c #2D5C74",
"d. c #2D537B",
"f. c #33577A",
"g. c #186368",
"h. c #236364",
"j. c #286A68",
"k. c #297664",
"l. c #2C6374",
"z. c #37667C",
"x. c #387578",
"c. c #138B38",
"v. c #17A736",
"b. c #1B8648",
"n. c #1B8D4D",
"m. c #258857",
"M. c #388571",
"N. c #38A166",
"B. c #448A7C",
"V. c #1B2384",
"C. c #162D83",
"Z. c #1E2A82",
"A. c #13388A",
"S. c #212B85",
"D. c #242C8A",
"F. c #282F8B",
"G. c #253384",
"H. c #283585",
"J. c #2A3C85",
"K. c #2B338C",
"L. c #2D3B89",
"P. c #32398C",
"I. c #313C8C",
"U. c #2F3690",
"Y. c #343C92",
"T. c #383F94",
"R. c #0F4589",
"E. c #144889",
"W. c #155094",
"Q. c #2D4685",
"!. c #354888",
"~. c #255D82",
"^. c #385887",
"/. c #3B4794",
"(. c #285892",
"). c #395498",
"_. c #1D678C",
"`. c #3A6783",
"'. c #316F8F",
"]. c #296698",
"[. c #3256A4",
"{. c #326EAA",
"}. c #4D558F",
"|. c #465A89",
" X c #434B97",
".X c #455696",
"XX c #456B88",
"oX c #467687",
"OX c #496497",
"+X c #5A669C",
"@X c #4B7699",
"#X c #5A7394",
"$X c #506CAD",
"%X c #636BA5",
"&X c #6576A8",
"*X c #388699",
"=X c #3688AA",
"-X c #508A8B",
";X c #549587",
":X c #5B8693",
">X c #688E93",
",X c #658A9A",
"<X c #72A59B",
"1X c #79B69B",
"2X c #4E8FA5",
"3X c #5889BB",
"4X c #6887A3",
"5X c #7388AA",
"6X c #7194AB",
"7X c #7D85B6",
"8X c #6DA4AC",
"9X c #6994C6",
"0X c #77ABC8",
"qX c #818FB1",
"wX c #8894BA",
"eX c #939ABB",
"rX c #96A9BB",
"tX c #8AB3B0",
"yX c #A3C4B9",
"uX c #859AC4",
"iX c #949AC3",
"pX c #9BA8C5",
"aX c #92B1CC",
"sX c #A7B7C8",
"dX c #ADB5D1",
"fX c #ACC7C6",
"gX c #B6CACA",
"hX c #BAC7D3",
"jX c #B8D3D1",
"kX c #ADE6CE",
"lX c #BDD2E8",
"zX c #C1CAD9",
"xX c #C6D6D7",
"cX c #C8E5D6",
"vX c #C9CCE1",
"bX c #CCD5E5",
"nX c #D4D9E5",
"mX c #DCE3EA",
"MX c #D8E6E8",
"NX c #DAECF3",
"BX c #E3E9EC",
"VX c #EBEDF2",
"CX c #EDF4F7",
"ZX c #F3F5F8",
"AX c #FDFDFD",
/* pixels */
"V.V.V.V.V.V.V.V.G } M V.V.V.V.V.V.V.V.V.V.V.V.V.V.V.V.V.V.V.V.V.V.V.V.V.V.V.V.G J G V.V.V.V.V.V.V.V.V.V.V.V.V.V.V.V.V.V.V.V.V.V.",
"V.V.V.V.V.V.V.G G B | J V.V.G J G V.V.V.V.V.V.V.V.V.V.V.V.V.V.V.V.V.V.V.V.V.V.K | B V.V.V.V.V.V.V.V.S.Y.U.Y.S.V.V.V.V.V.V.V.V.V.",
"V.V.V.V.G V.G } J J | B V.G M 2.L J K.K.I.S.V.V.V.V.V.V.V.V.V.V.V.V.V.V.V.V.V.G <.} V.V.V.V.V./. X X/.Y.Y.Y.T.S.V.V.V.V.V.V.V.V.",
"V.V.V.G | a.I.} +.G B N G B <.2.6.r.o.[ Z H.A A F F G G V.V.V.e.G.S.F.K.F.V.K.G.9.O.u.V.V.V.!.!.J.G.Y.Y.Z.F K.V.V.V.V.V.V.V.V.V.",
"V.V.V.V.<.{ D.`.m.J V.G S M m [ N [ $ W 9 C A M Z M B M G V.J.h.p.F.F.K.Y.Y.I.Y.^.w.5.V.V.Z w.N i f b l k k l V.V.G G V.V.V.V.V.",
"V.V.V.V.J _ J J X.| J `.AXM m n n ' E d [ ~ $.%.K <.B X.<.V.F <.o.A V.l A G Z.VXAXAX5.G A m m C s ! m b F l V.V.G G.Y F.K.F.S.V.",
"V.V.V.V.G | _ M } ( X.xXAXrXA D n M { / ^ ` >.m.B J { X._ J } J ~ d A C m N Z qXdXL.nXG N } A F M - ( N V.V.K B @.H.S.F.K.F.Y.Y.",
"V.V.V.V.V.B - } J | <XpXsX6XJ } X.- ^ #.X.k.v.&., 9.q.M.m.3.I.Q.X.^ Z A } | u./.K.$XVXVXJ J V.V.J / ( N V.J X.{ Y F V.V.z z K.V.",
"V.V.V.V.V.J | 3.u.z.ZXAXsXqX:.: - = ^ ^ M.M.&.^ < k.l.L  .l.Q.Q.{ ( G V.M MXCX6X.X].R ,Xt.G V.V.V.J ( | J <.{ } n k C C C F F V.",
"V.V.V.V.V.J <.I !.AXvX[.&XAXnX@.} <.B <.X.#.X.: X.{ ] n n J Z m f N A ^.AXCX~.E.r.'.].6X:XAXI G G J <.<.M *.~ X.M m [ <.A V.V.V.",
"V.V.S B F <.M ^.bXQ.NX3X7XAX/.d.r.I q.q.V.X.;.-.6.* [ ! m N M m J A nXK wXbX`.R._.].{.3X+X&XnXx.;X<.@.5.2.s.1.&.*.X.| J V.V.V.V.",
"V.V.<.<.J } r.4XZXQ._.'.OXdXpXz.xXu.a.-.U 4.) f =.o.L X.B X.| A F J ZXI.}.n V R (.g.2X3X$XZXAXhXAXAXx.q.5.q.N o.{ C V.V.V.V.G S ",
"V.J / J 9.^.5XfXn n 8._.{.wXfXgXAX@XQ.{ f B - { e.2.3.<.<.; { wX7Xc 0.3 h h 0 v a l.9.Q.OX:XoXVXR S } { } m f s a C A A F V.B | ",
"V.<.( fXnXeX+XU b x a 8._.].R.OXZXxX XJ M M B } <.M G V.M #.| hXsXd 0 4 4 6 8 q 7 E E c b n +. .O.<.X.^ | o.~ ~ W ^ ( N F V.J X.",
"V.G ^.i.eX XC h 0 8 d a } 8.H P (.|.G S 3.O.<.R 3.4.J G.4.w.y.Y m q 4 6 4   5 q 5 u 9 8 t y u d f B <.} V x.%.b.~ | B G V.V.G <.",
"V.V. Xi.b x 5 3 5 # # E u x b c s m C K 4.L L.R 4.q.r.Z.J.J.G.F C y 5 0 3 3 1 0 3 x c u X E Q f / B M &.l.j.M.d.J B G M V.V.V.F ",
"V.V.F d u x 8 . . X X . 5 r d 9 a m Z Z I } S.A K K J.G K J S V.A ] i h h h 3 5 3 x d u Q ~ % / { t.5.n.k.B Q.Z.S.u.J B G V.V.V.",
"V.V.V.Z s x h X + 6 5 X + # ' % B B M A n C C C Z .X.XV.B { { J G | ! a x h 3 0 0 8 E [ } J | #.^ 7.h.< W m n G././.oX-.B V.V.V.",
"V.V.V.V.Z j r # # + @ + & * / ( 3.J ~ <.! ] f <.( 1XpXV.G <.( X.J Z { ~ s t q 7 i $ ) 4.3.M #.< : N 5.; @ & ~ d 1.S J X.} G V.V.",
"V.G V.V.Z a # * % ! { ` < *.;.c.$.L @.7.} #.( { _ fXnXiXnXN | } p.a.-.! s d Q $ 3.6.3.r.-.6.4.r.` Z f ! ! W { M { J G B M G V.V.",
"J B V.G _ % [ <.N G G r.;.r.h.^ * ~ | q.h.#.^ B `.AXMXNXfX:._ X.| $.b.- s c [ - 5.r.G 3.6.R 2.S.G J | / } Z J B @.u.D.V.F V.V.V.",
"} B V.I.w.` OXV.G G J 3.5.R 4.W * & [ f <.( ( <.nXmX@X*XNX;XBXX.X.{ o.X.[ N B ~ ! ! m n { n m J L d.-XB G V.V.J | R D.S.V.F.V.V.",
"| G V.Y.Q.X.L OX<.| X.X.{ J B { ( : ;  .| <Xk.cXx.@XW.(.0XoXjXzXS G N <.{ [ <.X.W Q a m W n B <.3.7XnX XG V.V.G K S.F.S.Z.K.V.V.",
"B V.V.Z.L X.B G B <.B B J .X^.5.+.&.b.1XtXVXZXjXf <.'.3X3X{.W.MXhX:XyX| 1X/ X./ { N Z M ( B G J oXBX5X/.4X5XV.V.V.V.V.V.V.K.F.F.",
"V.V.V.V.J | | V.V.V.V.G N nXmXB.6.5.d.y.#X#XC r 8 u H (.*X=X].,XsXAXMXMXtX<.M <.r.I.Z.4.*.<.N J sXMXp.@XxXzXV.V.V.V.V.V.V.S.F.F.",
"V.V.V.G <.{ - B V.V.G B B mXAXOX4.M B y 8 6 6 + 6 0 w p { *.b.u.I.e.r.sX).!.L r.I D.L.K M M a.tX0X(.`.4X#XpXnX/.V.V.V.V.V.V.V.V.",
"V.V.V.G M _ = #.F V.B pXBXdX$XbXwXA d u E # o O o . 6 X E - * } N m f m w.h.#.#.B A F F I ^.OX0X].9.`.@X9.(.[.9XY.7XvXK.F.V.V.V.",
"V.V.V.V.V.M = : M G dXuX$X'.[.iXpXiXD f } ' @ o o + . + @ @ O & W s a M [ [ ~ ~ { M p.4XrXbX!.C.P 0.0.P H Q.[.bXeXbXY.K.F.K.V.V.",
"V.V.V.G S B X.#.x.bX[.aX[.~.(.6X).BXV.BX.XJ f 9 8 8 6 # W E @ * ~ [ m N m m N <.X.q.oXzX5X4Xh h 3 0 1 t b A A j %XU.V.V.V.F.V.V.",
"V.V.G <.| | B J ZXbXuXP c n 9.~.(.!.I.AXdXbX^.C C s 9 i m f ] ` w.J G G G K R u.d.!.!.:Xd y h 2 2 0 4 1 j j j j V.V.V.V.V.V.V.V.",
"V.V.M X.J zXV.iXnXU r 8 8 8 y d e.U U |.bX.X3.l.f.o.< 3.n +.k.>.z.!.a.@.` &.=.3.S.S.C s W y h h 2 1 6 3 j k k A G V.V.V.V.V.V.V.",
"V.V.J B F nXC #X0.t r 8 6 5 r 6 8 7 r y c n s.z.^.s.M.d.R l.k.w.^..Xl. .X.=.<.S V.V.C s ] W c j h h 5 r h F A s.d.V.V.F.F.F.F.V.",
"V.V.Z Z C !.D n r t t 7 # # # . 8 8 Q # $ [ <.` j.2.j.B.k.@.5.<.| J G G G B <.B A F S K I O.{ C k b 9 # b V.J } J.S.F.L.L.F.F.V.",
"V.F A C n A V.D m u t 8 7 6 . # + # W W = = / ; ( | ( - ^ - ^ ~ ( B G G V.S M } r.^.l.r. XXX>.A L.p.] M G J | B V.G B 1.3.V.V.V.",
"V.V.F A N G V.F N { n x u 7 + @ & % { M X.: = : = _ _ = * - * * ^ M N ] [ [ [ M r.a.h.4.G..XOXL.u.h.J V.I =.^ w.F.R 2.4.J V.V.V.",
"V.V.V.B B G J B R r.I Z p Q Q E ~ X.| B X.: : #.( ^ X./ % ~ ! Q * ~ W % * X.M K H.y. .d C G S.R } B V.J r.w.<.t.Y.K.G.H.Z.V.V.G ",
"V.V.V.R .X Xt.j.j.d./.V.B s f N S K q.1.j.m.;.( | +.j.` ~ f m [ % % ^ / #.M A A C b i i b C m { M V.V.M | V.V.Z.S.G J L G.V.V.B ",
"V.V.V.K./..X/.^.k.k.B G <.M J X.| - m.q.l.&.- o.k.z.^.+.{ B { ^ ~ M B <.-.y.Z.N M n [ s l D { * N V.V.N / N K M } { - ; B V.V.B ",
"V.V.V.F F.H.D N X.( { { ( - | +.;.= ~ @. .X.~ % ( j.4.o.#.( X.| <.<.<.{ B.,X5Xp./ } [ Z V.V.5.b.L G w.>.n.n.=.:.[ } ! * } F V.G ",
"V.V.z D D Z M ! ~ / { | #.; } 1.s.w.s ~ W & * ~ } } } } { <.B { / X.X.| z.8XjX`.X./ M V.V.V.K r.!.^.6.j.j.s.r.Q.A G Z ' s l V.V.",
"V.V.F F S } / } N B <.| ^ : X.S F V.A } ~ % ..^ M <.| B } ( X.^ ^ X...f.bXAXtXmX`.B Z.V.V.V.F D G V s f C l F /.V.V.V.D C k z V.",
"V.V.V.V.J J J B | | M J } ; ^ G V.V.| B | { } B J <.M B | x.s.z.XXR f.hX#X-Xl.uXvX%XV.V.V.Z M A D m Q Q s n D V.V.V.V.F F F V.V.",
"V.V.V.G | <.<.{ } B G S.J.=.b.J.Y.t.*.q.J R J B K Z Z s m !. X XG..XVXxXaX9.A.).lXpXH.G V.A <.} J Z [ } s [ N A A B G V.F V.V.V.",
"V.V.V.G } X.J J G V.V.K.L.V o.Q.Y 2.5.R K r.M } M M n c s s n Z J Q.MXR.E.p b Z '.lXhXAXf.Z.J.r.! f s ] ( | 1.1.5.*.G V.V.V.V.V.",
"V.V.F M { ~ N F F V.S K Z.D Z A N f Z F L [ } M N M m c m [ <.rXsX:X5XR.,.8 r y ,.].NXf gXOX;X;Xs { ~ = v.h.^.k.@.;.G.V.V.V.V.V.",
"V.V.V.} { ~ ! A F A [ M D D Z Z A A F F M [ N A F J { ( X.} x.ZXBXa.h b 1 6 . 7 d 3.s m >Xu.<.{ <.} #.* c.z.s.5.} :.u.V N A V.V.",
"V.A A } { { / A F <.( <.F S <.<.bX XS.Z.L <.B G G } - ; N.tXMXe.m 0 3 2 1 4 . 6 e i f m ] ] [ <.B | | } ~ r.M m n m z.} M G V.V.",
"V.G G V.B | B V.R $.%.2.Y 2.} -.AXpXoXr.p.k.6.q.h.%.;.q.oXqXM.N t 5 q 3 4     e y f A C M ~ } <.o.5.G N ' s N C F D Z Z G V.V.V.",
"V.V.V.G G r.d./.`.m.m.!.!.XXN 8X9XdXxXBX@.` b.( @.q.d.L M A M m s 9 8 0   + 6 n N M M N J 3.y.q., b.r.2.^ ~ <.V.F G V.F V.V.V.G ",
"V.V.J N Z.J.a.z.0.@.m C m s.N CXW.5XAXAXe.B X.| A Z M f B F Z m [ d u q 5 + W <.{ % ; - ( 3.t.4.[ 2.+._ ~ W m s ..X.} <.J V.V.K ",
"V.G } f z C f W d c b c s | B mXA.C.AXcXmX.XK J G B M K G N [ ( [ d Q d n m 2.X.| ^ - *.:.$./ [ c m ~ $ ' m c ' ~ ^ ` +.B S.S.G ",
"V.B / N F n d { Z C f [ } 1.xX>XZ A.8.kXxX&XV.V.G B J V.G B X.{ N s / M D V.^.<.J X.^ | X.= : W m N } ~ [ Z A J B X.=.a.R R G.S.",
"V.| X.J V.Z J J V.Z.B B C qX#X:Xw H 8.g.-XlXAX4X5XV.V.V.V.J | N H.r.h.$.} XX`.B h.#.-.p.w.` = ( h.;.( < , ` 9.G Y r.$.2.V | J Z.",
"G <.<.G V.V.K t..X5X:XtXXX0.v 0 4 5 p O.8.C.mXAXAXV.wXwXA M <.G K.L.x.m.$.( ~ [ [ :.3.r.5.r.<.| <XAX$.=.&.$.o.-.@.4.O.s N ! } F ",
"K M J V.V.G J @X5X6X<XyXf.q 5 6 4 4 7 E E n C ;XgXG bXx.| ( / M G Z.Q.{ { ] % ~ s N m M } Z /.sXmXNX6Xe.o.$./ 6.1.m n C C } <.G ",
"V.G Z.F.F.G B 5.0.T }.T r 6 6 6 4 0 6 6 7 h j n n A N 1.| | 1.K Z.Y L <.@.} { ~ ~ f { M B z..X&X0XW.aXwXJ } | <.N m M F V.G G V.",
"V.V.K.K.L.1.N M { f b b W 9 q 1 2 3 t y u j j D D F F G.Q.L.G.S.S.t.w.@.=.%.| <.X.X.} J B jXxX8._.R.W.mXVX>XoXz.B } M V.V.V.V.V.",
"V.V.F.S.I ` ] ! ] [ M f ~ n j j j j H.L.G C N Z F V.V.V.V.V.V.V.S.I O.&.#.-.<.| | | X.q.<X&XR.,.,.B R.8XhXrXpXAXJ fXtX%XK.V.V.V.",
"V.V.V.F Z f W % & f [ ( ^ N F.D.F I. X/. X XB <.B G V.V.F F D F Z.S.U } ` #.` X.| ^.oX,XxXrXP c t e d 8.b i.XXeXVXgXgX&XH.V.V.V.",
"V.V.V.F M ] [ } ] } { ( : M 5.d.!./.K.F.Y.P..Xt.5.<.R H.J J F Z.G L p.5.=.-.5.4.f.qXxXrXM d 8 q h t q i c b y b }.|.dXzXZ.S.F.S.",
"V.V.V.V.B | *.h.L I L O.X.S B R w.c l z l k !.Q.s.1.7.e.<.B V.G B | @.7.e.G G sX5X%X Xs.8 r t t 5 q u 9 c n ' c j D V.Y.T.T.Y.S.",
"V.V.V.J | -.q.Q.K.F.R 7.B V.V.V.V.F F l k x a [ h.V J N } M V.G B M J G V.V.V.J J F D b b C c 9 6 q c c C N [ Z F V.V.V.V.V.V.V.",
"V.V.V.G G G.K.V.S.S.S.I G V.V.V.V.V.V.V.Z } { } J V.F Z <.B V.V.G V.V.V.V.V.V.F G V.V.z z F Z c b C D V.V.A J G V.V.V.V.V.V.V.V.",
"V.V.V.V.V.V.V.V.V.V.V.V.V.V.V.V.V.V.V.V.G J J G V.V.V.G J G V.V.V.V.V.V.V.V.V.V.V.V.V.V.V.V.V.F V.V.V.V.V.V.V.V.V.V.V.V.V.V.V.V."
};
