/* XPM */
static const char *cave_water_stalagmite[] = {
/* columns rows colors chars-per-pixel */
"64 64 161 2 ",
"   c #314E75",
".  c #325076",
"X  c #35557D",
"o  c #38577E",
"O  c #35587F",
"+  c #3A597E",
"@  c #5B5F6E",
"#  c #405977",
"$  c #405778",
"%  c #435B7C",
"&  c #515E78",
"*  c #4C627E",
"=  c #5D6377",
"-  c #5A657A",
";  c #6C6062",
":  c #6B666D",
">  c #6C686D",
",  c #756664",
"<  c #7E6B65",
"1  c #736B6F",
"2  c #7D6D6B",
"3  c #646676",
"4  c #656975",
"5  c #6B6871",
"6  c #646B7C",
"7  c #6B6E7A",
"8  c #706B72",
"9  c #796F74",
"0  c #767075",
"q  c #7E7476",
"w  c #75727A",
"e  c #7C767B",
"r  c #826E66",
"t  c #826F68",
"y  c #82716B",
"u  c #8A756C",
"i  c #8E786F",
"p  c #857674",
"a  c #887772",
"s  c #877975",
"d  c #8D7A74",
"f  c #817679",
"g  c #85797A",
"h  c #8B7C79",
"j  c #937D74",
"k  c #997F76",
"l  c #968076",
"z  c #998176",
"x  c #95817A",
"c  c #9B847B",
"v  c #9D887F",
"b  c #A0877E",
"n  c #A1887E",
"m  c #365780",
"M  c #375B83",
"N  c #3C5B84",
"B  c #3F5E88",
"V  c #3F6086",
"C  c #415E84",
"Z  c #415F89",
"A  c #426286",
"S  c #496486",
"D  c #4F6887",
"F  c #446489",
"G  c #49668B",
"H  c #47688D",
"J  c #4A698E",
"K  c #526787",
"L  c #5A6C87",
"P  c #506789",
"I  c #586C8B",
"U  c #486791",
"Y  c #4A6C93",
"T  c #4C6D99",
"R  c #506E92",
"E  c #516F99",
"W  c #4D7097",
"Q  c #4E729B",
"!  c #547095",
"~  c #5A7191",
"^  c #51749D",
"/  c #647185",
"(  c #687286",
")  c #6E778A",
"_  c #7B7B83",
"`  c #7D7E88",
"'  c #697C96",
"]  c #677D9C",
"[  c #5176A1",
"{  c #537AA4",
"}  c #5A7EA7",
"|  c #567DA9",
" . c #5B7EA9",
".. c #8C7F80",
"X. c #768398",
"o. c #5B81AC",
"O. c #6184AC",
"+. c #6A87AA",
"@. c #6B89AD",
"#. c #708BAF",
"$. c #6487B1",
"%. c #668AB2",
"&. c #6B8CB3",
"*. c #708FB5",
"=. c #6F91B6",
"-. c #7392B6",
";. c #7A96B7",
":. c #7695B9",
">. c #7997BA",
",. c #7C9ABC",
"<. c #8D8282",
"1. c #978683",
"2. c #9A8781",
"3. c #9D8A82",
"4. c #898D98",
"5. c #A38D84",
"6. c #A98F84",
"7. c #A69187",
"8. c #A99186",
"9. c #A5938B",
"0. c #AB958C",
"q. c #AE998F",
"w. c #B1978B",
"e. c #B1998E",
"r. c #AB9790",
"t. c #AD9A92",
"y. c #B39D94",
"u. c #B7A096",
"i. c #B8A197",
"p. c #B6A299",
"a. c #B5A29A",
"s. c #BAA49B",
"d. c #B9A59C",
"f. c #BEA89F",
"g. c #819BBB",
"h. c #829DBE",
"j. c #BCAAA2",
"k. c #BDABA2",
"l. c #BFACA4",
"z. c #C1ADA3",
"x. c #C2AEA5",
"c. c #C2B0A7",
"v. c #C4B0A7",
"b. c #C4B3AC",
"n. c #C9B6AE",
"m. c #C5B7B1",
"M. c #C6B8B1",
"N. c #CCBAB3",
"B. c #CBBEB8",
"V. c #D0BFB8",
"C. c #CFC0B8",
"Z. c #D4C4BD",
"A. c #849FC0",
"S. c #87A1C1",
"D. c #8CA5C3",
"F. c #8DA6C4",
"G. c #92AAC6",
"H. c #97ADC7",
"J. c #98AFC8",
"K. c #9EB2CA",
"L. c #D8CCC5",
/* pixels */
"N N N N N N N N N N N N N N N N N N N N N N N N N N N N N N N N N N N N N N N N N N N N N N N N N N N N N N N N N N N N N N N N ",
"N N N N N N N N N N N N N N N N N N N N N N N N N N N N N N N N N N N N N N N N N N N N N N N N N N N N N N N N N N N N N N N N ",
"N N N N N N N N N N N N A F F A V N N N N N N N N N N N N N N N N N N N N N N N N N N N N N N N N N N N N N N N N N N N N N N N ",
"N N N N N N N B V V A F Y T Q Y H A A B N N N N N N N N N N N N N N N N N N N N N N N N N N N N N N N N N N N N N N N N N N N N ",
"N N N N B V H Y Y Q Q ^ Q Q Q Q Y Y H H F V N N N N N N N N V V A A A A A A A V N N N N N N N N N N N N B V V A A A V N N N N N ",
"N N N V A F Y Q Q [ [ ^ Q Y Y Y H H H H F F V N N N N N _ F H Y T T T Y Y J H H A N N N N N N N N N N V A F A A A A V N N N N N ",
"N N N V A A F J J J J F C N C A B N N N B A B N N B A S y.T [  .o.o.o. .| [ [ Q Y F V N N N N N N N N V A A V B N N N N N N N N ",
"N N N N N N N N N N m O O m N N N O O m M N N N N A F G z.4.^ {  .o. . . .} | { Q Y H A V B N N N N N N N N N N N N N N N N N N ",
"N N m O O O m m m m m m m m m m m m M M N N N N N N N C c.p.S S G J G J R E Q W Y H F A F A V N N N N N N N N N N N N N N N N N ",
"N N M m m M N N N N N N N N N N N N N N N N N M m O O # s.k.X X X X X O o N N N N N N V A A V N N N N N N N N N N N N N N N N N ",
"N N N N N N N N N N N N N N N N N N N N N N N M m O O 7 s.z.+ O O O O O O O O O M N N N N N N N N N N N N N N N N N N N N N N N ",
"N N N N N N N N N N N N N N N N N N N N N N N N N M M p s.v.6 M M M M M M M M M N N N N N N N N N N N N N N N N N N N N N N N N ",
"N N N N N N N N N N N N N N N N N N N N N N N N N N N a d.b.b N N N N N N N N N N N N N N V V A A F A F A A B N N N N N N N N N ",
"N N N N N N N N N N N N N N N N N N N N N N N N N N N 1.b.C.7.C N N N N N N N N N N N V A F H Y Y Y Q Q Y Y Y F V B B N N N N N ",
"N N N N N N N N N N N N N N N N N N N N N N N N N N N 2.c.N.p.C N N N N N N N N N N N V F H J Y Y Y Q Q W T T G A A A A A B N N ",
"N N N N N N N N N N N N N N N N N A F F A N N N N N N 9.d.n.y.C N N N N N N N N N N N B A F A C A A F A C A A N B V A A A A B N ",
"N N N N N N N N N N N N V F U Q { o.$.=.&.$. .o.| { / 3.s.v.0.* N N N N N N N N N N N N B B N O O X X X O O O O O O N N N B N N ",
"N N N N N N N N N N F ^ o.$.%.=.:.,.S.G.J.G.D.D.h.>.<.9.9.k.9.0 J H F A V A V A B A V B N N M m O O X X O O O O O O O O O M N N ",
"N N N N N N V A H Q | &.:.:.:.:.:.,.A.F.H.J.H.G.S.g.h k.N.b.5.g @.%.O.o.o.o.o.o.| [ Y F N N N N N M m m m M M M M M M M M N N N ",
"N N N N N V H Y Q | o.%.&.O. .[ Q [  .O.%.*.-.-.%.@.2.l.Z.n.y.g ;.,.>.,.>.:.:.-.%.| T F N M M N N N N N N N N N N N N N N N N N ",
"N N N N N B G Y Y W T Y A N N O O N A F G J T ^ ^ ^ l b.L.x.5.y +.&.&.&.*.*.-.%.{ Y C N O O M N N N N N N N N N N N N N N N N N ",
"N N N N N N B B O O O O O O O X . . X X O + N + C - 5.N.N.q.3.y R Y F H Y Q ^ G o O O O O m M N N N N N N N N N N N N N N N N N ",
"N N N N N M m O O O O O O O O . . O X X X X . . . 6 u.k.s.n.5.s + O m N N N C N O O O O m N N N N N N N N N N N N N N N N N N N ",
"N N N N N N M M m O O O O O O O O O O O X X . X O 7 q.f.V.N.y.d $ O O O O O O m m m M M M N N N N N N N N N N N N N N N N N N N ",
"N N N N N N N N N N m O m m O m m M M M m O O O N g v.z.s.d.y.j + O O M O O M N N N N N N N N N N N N N N N N N N N N N N N N N ",
"N N N N N N N N N N M M M N N N N N N N N M M N N 1.9.0.0.e.m.u @ N N N N N N N N N N N N N N N N N N N N N N N N N N N N N N N ",
"N N N N N N N N N N N N N N N N N N N N N N N N N 3.d.m.k.f.p.v 1 N N B V A A A A A A A A A A A A A V V B N N N N N N N N N N N ",
"N N N N N N N N N N N N N N N N N N N N N N N N C 5.b.M.k.q.0.5.t C V A A A A A A C C A V A A A A C C A C V N N N N N N N N N N ",
"N N N N N B V V A B A A A A V B N N N N N N N N - y.d.r.u v q.5.t % B B B N N N o o O o N o o o + N N N N N N N N N N N N N N N ",
"N N N V A F F F F J Y Y Y Y Y Y H F V N N N N N = k.9.5.v 0.9.l : o N N O O O O O X O O O O X X O O O O O m m M N N N N N N N N ",
"N N F H H F F F G Y Y Y T T T Y Y Y F N N N N M / n.s.f.b.x.y.3.5 o m m M M M m O O O O O O O O O O O O O O O M N N N N N N N N ",
"V A F H F A C C A A A C C A F A A F A N M m m O w s.s.n.f.5.r.k w N N N N N N N N N N N N N N N N M M M M m m M N N N N N N N N ",
"F A A A B N N N O O O O O m N O m M M M O O O o <.5.q.y.v n 0.v g N N N N N N N N N N N N N N N N N N N N N N N N N N N N N N N ",
"A B N N m O O O O O O O m M M m M M M M m m m o 9.0.p.b.s.y.5.c f A A V B A F F A N N N N N N N N N N N N N N N N N N N N N N N ",
"N M M M m O O O O m M M M M M M M M M M M M M N x r.b.B.b.b.y.9.0 Y Q { { | [ { Q Q Y Y F V N N N N N N N N N N N N N N N N N N ",
"M M M M M M M M M M M M M M M M M M M M M M M N d k.b.l.y.r.0.0.e O.%.&.&.-.%.&.-.-.:.&.%.o.{ [ Q Q Y H A A A A A V N N N N N N ",
"M M M M M M M M M M M M M M M M M M M M M M M N 5.t.t.p.5.z 0.y...#.@.+.@.-.-.>.S.F.G.G.F.F.h.:.:.:.-.o.{ [ Q Q Q Y V N N N N N ",
"M M M M M M M M M N N N N M M M M M M M M N A D c k.y.9.2.n 0.5.h +.O.} }  .o.@.-.h.D.G.J.K.G.A.S.F.S.,.:.:.:.&.%.o.Y B N N N N ",
"M M M M M M M M N N V B N M M M N N B V B A Y 6 7.k.0.9.8.s.u.5.d ! Y H H H Y Q [  .&.,.h.A.,.&.-.,.,.,.,.,.h.:.:.&.| Y H A N N ",
"M M M M M N N V F F F F A V N N N B A F A V F 7 y.s.z c.b.y.s.5.2 N N N M M N F Y Y [ { [ ^ Q Y Q Q Q o.o.$.%.%.&.%.| Q Q H N N ",
"M M M M N V H H Y T Y Y H F A B N N C C N N N 8 5.q.x.N.k.w.p.t.r # O O O O O N N N N o O O O m O m M M N A F G Y T H F Y A N N ",
"M M M M B F H Y Y Y Y Y H A A N M N N N O O O p c d.m.c.y.8.5.9.d : B O X X O O X .   . . . . . . . X O O O O O O O O O M N N N ",
"M M M M N V A A V A F F V N N N M M M M M M N x q.s.N.N.p.q.e.y.t > H A N X . X X . . . .           . . . O O O O O O O M N N N ",
"M M M M N N M M M M M M M M M M M M N N V V * l 0.e.v.y.n 8.x.d.2.t A F F O X O O O O O X . . . . . X O O O O O O O O m M N N N ",
"M M M M M M M N N N N N N M M M M M V A F F - l 5.b v j l y.b.r.5.j % N N N F B N N N N N N B N N N N N N N N N N N N N N N N N ",
"M M M M M M N F H J J J J N M M N M V F A A 1 5.6.p.r.z 5.0.0.v 3.j 4 M M M B F G J J J J V G Y J G G G N N N N N N N N N N N N ",
"M M M M M M N F H J F B N M N V F N A J V M 9 0.s.N.q.b 5.5.p.j u 3.1 M N M M N N N C C C N N C F G G G N N N N N N N N N N N N ",
"M M M M M M M N N N N M M B H Y F A J H N + s 0.v.y.k v s.y.5.5.j i 1 M N N B N N N N N B A F F F F F A A V B N N N N N N N N N ",
"M M M M M M M M M N N B A R R F F F F F Z C l e.i.e.n f.s.5.v 5.k r < % N Z G B N N N A H Y ^ ^ Q Y Q Q Y Y H F B N N N N N N N ",
"M M M M M M M M B A A B N N N B B N N B B = c k k l 5.y.5.u z z v r < & N F J C N N A H J Y ^ ^ Q T Q [ [ Q Y Y F A V V N N N N ",
"M M M M M M M N N N N N N N N N A B N N N 4 j i l l k z j k z c 3.d 2 % C J J B N N B F C N C A A C F J Y Y Y J H A F F V N N N ",
"M M M M M N B A B A H H Z B N N Z Z Z N N 3 z 8.0.n 5.j k c c k z u ; % N G Z N N M N N O . . . O O N N N B C C B N B B N N N N ",
"M M M M M A H T [ ^ ^ ^ E E H A Y Y T Q T w d i u u j z c z z d g q ( G N Z F F C M m O O X . . O O O m O O O O O O O O O M N N ",
"M m m M m B F G G A + C H Y Q Y F B B Z [ ] ` 0 , < r 2 9 q ) X._ ' ^ T Y N N A J C M M m O O O O M M m O O O O O O O m m M N N ",
"M O O O O O + o . . . X O O O + N N N C A H L ! ! ~ / T K P U E I A A Z Z N N C B N B B B N N N N N N m O O O O O m M N N N N N ",
"M O O O O . . . . . . X X X O X . . X . O O N N N N C N N N N N N N N N N N C A F G G J J G N N N N N m O m m M N N N N N N N N ",
"M M M N N N o O N N O O O O O O X . . . .       . X N C A S A A A B B B C F G A N A G F F G N N N N N M M M N N N N N N N N N N ",
"M N N V F J Y Y Y Y H F A A A B N X . . . .       . X X + N + + N C C N N N C N N N N N N N N N N N N N N N N N N N N N N N N N ",
"M N V H Y Q ^ [ [ | { [ Q Y H F B O O O O O X . . O O O O m m M M M M N N B B B B V V V N N N N N N N N N N N N N N N N N N N N ",
"M N A H Y Y W W ^ ^ { ^ T G F C N O O M M m O O O M M M M M M M N V F H J H J H H H Y H F A N N N N N N N N N N N N N N N N N N ",
"M N B A F V N N C C A A C N + O O O M M M M M M M M M M M M N V A F Y W T Y Y W T Y Y J F F A V V N N N N N N N N N N N N N N N ",
"M M M M M m O O O O O O O O O O O M M M M M M M M M M M M M V F F F G G F F A G G G A C C F F F F V N N N N N N N N N N N N N N ",
"M M M M M M m m m O O O m M M M M M M M M M M M M M M M M M N A V N N O O + + N N N N O O N V A A B N N N N N N N N N N N N N N ",
"M M M M M M M M M M M M M M M M M M M M M M M M M M M M M M M M M M M O O O O O O O O m M N N N N N N N N N N N N N N N N N N N "
};
