/* XPM */
static const char *cave_gravel_pit_2[] = {
/* columns rows colors chars-per-pixel */
"64 64 146 2 ",
"   c #020202",
".  c #000A01",
"X  c #0C0E00",
"o  c #120C00",
"O  c #001600",
"+  c #0A1300",
"@  c #011B00",
"#  c #0A1C00",
"$  c #121500",
"%  c #131B00",
"&  c #000F17",
"*  c #000D1A",
"=  c #00131D",
"-  c #022303",
";  c #0B2402",
":  c #042907",
">  c #0C2C04",
",  c #04260C",
"<  c #08250C",
"1  c #032B0C",
"2  c #092D0A",
"3  c #132401",
"4  c #132B04",
"5  c #122E0E",
"6  c #003207",
"7  c #00360A",
"8  c #003A0D",
"9  c #12320C",
"0  c #002716",
"q  c #032C13",
"w  c #0B2B14",
"e  c #012E19",
"r  c #0C2D1A",
"t  c #1D2A10",
"y  c #102D1B",
"u  c #013114",
"i  c #0D3117",
"p  c #003C13",
"a  c #01341A",
"s  c #0D341C",
"d  c #003A1C",
"f  c #0E381E",
"g  c #123612",
"h  c #15331C",
"j  c #12391D",
"k  c #233116",
"l  c #011322",
"z  c #001926",
"x  c #021C2B",
"c  c #0A1D2E",
"v  c #002E22",
"b  c #05212F",
"n  c #023424",
"m  c #0D3224",
"M  c #003C24",
"N  c #0E3A21",
"B  c #05362B",
"V  c #0C332D",
"C  c #023B2D",
"Z  c #09382F",
"A  c #052231",
"S  c #0A2535",
"D  c #0E2837",
"F  c #0F2938",
"G  c #122B3A",
"H  c #0A3532",
"J  c #013D32",
"K  c #0E3C35",
"L  c #004114",
"P  c #004A16",
"I  c #00431B",
"U  c #004A1B",
"Y  c #004224",
"T  c #004A24",
"R  c #00442C",
"E  c #004B2D",
"W  c #00512E",
"Q  c #014235",
"!  c #004B34",
"~  c #00453A",
"^  c #08463F",
"/  c #004B3C",
"(  c #134F35",
")  c #005135",
"_  c #01523C",
"`  c #0E533D",
"'  c #185237",
"]  c #14543D",
"[  c #1C543C",
"{  c #1A583F",
"}  c #22553E",
"|  c #2C573F",
" . c #29583D",
".. c #35593D",
"X. c #395A3F",
"o. c #4D5E3E",
"O. c #014F41",
"+. c #045243",
"@. c #035144",
"#. c #005344",
"$. c #075344",
"%. c #075246",
"&. c #045444",
"*. c #0E5241",
"=. c #0C5344",
"-. c #0E5445",
";. c #055348",
":. c #125540",
">. c #175441",
",. c #105444",
"<. c #165446",
"1. c #185647",
"2. c #1D5546",
"3. c #11554A",
"4. c #185448",
"5. c #1D554A",
"6. c #1B584A",
"7. c #235545",
"8. c #235645",
"9. c #2C5745",
"0. c #2A5844",
"q. c #2C5844",
"w. c #2D5844",
"e. c #22564A",
"r. c #25564C",
"t. c #23584B",
"y. c #24584B",
"u. c #2B5849",
"i. c #2F5849",
"p. c #28584C",
"a. c #2E594F",
"s. c #2C5C4F",
"d. c #315942",
"f. c #345B46",
"g. c #3F5D42",
"h. c #3B5B44",
"j. c #335B4B",
"k. c #355949",
"l. c #385A49",
"z. c #2E5C50",
"x. c #335D55",
"c. c #335E55",
"v. c #355F5F",
"b. c #3F586A",
"n. c #366060",
"m. c #40596B",
/* pixels */
"Z ~ t.t.%.J / / 5.e.+./ Q O./ Q O.Q ^ ~ %./ Z <.;.V Q Q 4.4.+.e./ V / 4.p.a.p.1.4.e.;.Q J m V / Z C H 4.<.#.O.;.*.#./ Q G / 2.G ",
"/ G ^ %.+.~ Z m ~ K / J ^ +.V B Q m ^ O.4.+./ J K =.O.#.~ 4.^ 4.O.~ ~ J Q / +.#.Q -.e./ O.O.O./ / ~ Q 1.+./ %.O.1.r.J n ) &.r.~ ",
"*.Q Z %.J V H Q Z 4./ O.~ G J q ; 1 / e./ / Q %./ / Z / O.-./ ~ ^ %./ Z D = l A %.<.;.Q / ~ ~ / / O./ ^ / Q -.+.4.e.! : : R 4.;.",
"+.Z J B G %.~ Q / %.+.+.O.K / q @ - a &.O.Q H O.C ~ ~ O.O.^ / ^ 4.^ ~ Z m D   z O.+.B J ;.Q Q %.<.*.+./ e.O.Q R R E Q a ; C / 4.",
"2.r./ Q ~ / ^ Q Q Q O.O./ Q O.! M E Q / *.O./ / J O.1.2.#.+./ ~ / / +.C Z z = z O./ / 4.-./ Q / #./ <.O.%.K n , : a M 2 ; , =.t.",
"e.~ B #.e.Z G Q C m B ~ V ~ e./ / B n e , a a ~ J / ~ ~ ~ Q Z = G z e.Q O.;.K J / _ _ 7.4.<./ ^ Q H K K +./ n q O @ e J ~ =./ -.",
"5.K K t.2./ F M 7 8 O.+.+.*.%.~ / ;.R - O - 1 J +.O.J O.K J &     F e.+./ O.~ / ` z.v.7.O./ O.%.<./ Q =.#./ Q u 7 a R *./ ^ ~ Q ",
"B / %.Z G x r 7 7 P ) Q %.;./ 4.4.<.! u : : 1 Q / Q / ;./ z . . = . O./ K #.#.Q / i.q.1.&.C ~ +.O.Q Z Q / / B Q C / %.%.+.*.;./ ",
"V O./ A l * z x ! X.g.} O.+.*.p.1./ Z Q ! d a +./ / O.*.O.;.l x S F J C / K D A V / n m i M n Z B Q B ^ ~ Q J J Z J =.+.Q C K ~ ",
"~ e.e.G x l z = m d.X.#./ <.4.e.e.<./ ~ #.,.+.4.#.%.4.;./ / G Q / _ 7.,.! x & * D O.n ; $ % s Q ! ! C V V Q ~ 0.k._ / / / V G C ",
"e.p.e./ ^ G D A D ! ( R %./ -.p.4.=.+.+./ ^ / 4.^ / / ~ H Q J C _ z.s.u.! t , 1 I T s 3 % $ g N 3 g 3 y / / <.z.v.p./ / V V J %.",
"%.O./ K / Q / +.T d m B Q / Q %.<.<.+.4.#./ ~ / / / / ^ J ~ ~ / 9.s.<.u.:.E 8 8 8 p C C C s / R 3 3 $ $ J G ^ ` s.c.>./ / V O.e.",
"/ ~ Z Q B #./ O.T p d J J %.O.+./ / Q / / Q +.~ O./ ~ %.O.J / 5.#.7._ &.<.Q I 8 8 L C Z V x A Q / 4 3 > ,.C J #.i.h.#.~ ~ ^ / +.",
"/ / Q Z Z O./ ~ _ ! R #.*.e.r.+.O.O./ y x b R D Q K / J Q Z #.e.O./ #._ / _ m R a T v l . * & J / O.~ Q *.l.j.! / C m G Z Q / / ",
"+.;./ Q ^ 4.O.^ J / #.O.*.-.1./ / / k # X X l l G B O.#._ 7.u.! ;./ ~ j.9.7.Q C / %.~ l = . l G Q Q Q ~ u.h.m./ D z G Q V J ^ K ",
"D J O.O.Z O.5.~ %.#.Q Q / Q / O.^ J x & X X O = z H B ,.7.z.l.0.C / +.T ) >.Q ~ O.%.m x l z K / O.O.J C J ,.%.Q z * Q / K / Q B ",
"Q Z J O./ O./ / Q ~ Q / ;.#.C Q ^ G b z $ $ 3 z l D Z ^ ] s.c.z.j.*.d O ; _ +./ / <.t.z.p.&./ / / Q c z D / O.J z z / / Q / / 5.",
"<.<.! 0 n O.Q Z Q / / ~ O.#./ Z / / / ^ / _ Z F G G ^ O./ ! [ ! J ~ < @ - a _ / ~ 4./ >.t.-.+./ J G = = l G O.Q B Q O./ G Q %.#.",
"=.d - @ 0 Q #.H V / / ^ O.^ ~ O.~ B +./ _ ! _ +.#.V J J / C ! C B J Q q M u _ e.+.Q ! f.c.9./ ~ O.D l z x D <./ Q / <.O.V / / #.",
"V ; @ - e / %./ C / <.+.^ ^ Q Q +.Q Q Q ! X.| <.#.J G F G B Q / Z Z G C O./ +.5.+.G Z ~ J J ~ C / ~ Q Q H Q O./ / / G ! Q Z J / ",
"J Q 1 a C Q Q ^ Q J ~ #./ / / Y Y a M n ! ' 0.{ / O.J V K J Q B x =   * G / Q V H Q V G , , u q ^ / / ~ C J / ~ / Q Q _ _ Q ~ #.",
"/ Q Q _ O.&.2./ %.~ K K ~ O.4.1 1 : u C C Q 3.Q +.;.*.O.~ / Q / =       S O./ J O.=./ Q 1 O : M / ;.<.#.Q / O.O.+.O.7.j.l.~ O.<.",
"4.O.Q B ^ 0.h.` / e.<.%.Q Q <.R a : ; s +.O.Q %.#.Z / R 4 2 M r z =   = z C / #.=.<.#./ ~ #.u q +.e.#.^ 4.;.~ Q O./ #.z.#.H e.p.",
"-.e./ / ! [  ..._ <.*./ ~ ~ %.^ Q a a R -.B / / Q / ! > $ > 7 8 Y C G / *.-.^ B Q =.-.=./ O./ O.O.e.4.%.#.2./ =.J Q 3.7.+.J 5.<.",
"5.O.~ ;./ R Q / +.<.^ B k G Q C J %.%.#.~ Z / +.C ~ _ g 2 6 7 7 7 d ! %.c.+./ +.Q ^ =.+.K #.J ~ Q C / +.O.O.Q Q K J O.4.2.5.#.Q ",
"O.t.5.#./ Q Q J V C x l l x C S z Q e.r.O.n n ! C %.4.O.*./ Y 8 P T _ u.&.4.<.z.#./ ;.Q Q O.J %.#.J Q %.Q B Z / J ~ Q +./ / ~ O.",
"Q O.O.5.O.*.^ x = l + X o & x * . x / e.O.a , , w 5.O./ / / -.Q <.u.s.b.J :.v.m.&.O./ ^ / J Z #.~ Q O./ Q R ! +./ / <.O.O.*.B C ",
"Q +.5.+.;.~ -.J z = X X + o l l l J K / C q @ @ @ w / V m Q r./ Q -.z.2./ <.! p.e.5.%.%.O.^ ^ J D G G V ; @ : / ~ / ~ +.+.=./ ~ ",
"C K / / #.O./ V J / Z S x / G z l D _ 8./ %.n - @ u C O.O.r.t./ Q J +.~ O.r.r.^ / O.5.5./ ^ z z * l = = e @ 2 Y / O./ Q +.=./ J ",
"e.+.~ J J O.q q R *.4.2.1.<.+.O./ #.z.c.&.*.#._ Q / K ~ J +./ Q &.Q J +.4.5.~ J Q O.%.%.J Q z * l l & z F C #.%.#./ ~ ~ C Z / e.",
"+.e.+.B O.a @ @ v ^ r.r.r.#.7.7.j.j.c.p.<.4.O.~ O.Q <.O.O.O.a a #.Q K 2./ %.~ ~ J / / / h Q k F D S = A Z J / O.~ ^ Q Q / / / +.",
"V ~ / J e.Y - : C +.V Z ;.~ 9.i.s.v.u.Q / Q Q Q G / / K J 1.Y ; a e.e.2.%.e.1.5.1.=.~ ^ 3 4 Q K G G A x Q D Q +.+.! q e ) 1.;.J ",
"/ V / <.p.p.I E &.e.;.Q J m ! 7.i.7.! 4.<.#.O.;.*.%./ Q G / &.r n ^ t.t.%.J / / 5.e.+./ M R / Q O.Q ^ ~ %./ Z #.a @ @ O ,.4.+.e.",
"O.~ ~ J Q O._ ,.*.-.e./ O.O.O.#.,.&.^ 1.+./ %.O.8.j./ Q r.a.r.~ / G ^ %.+.~ Z m ~ K / J / ,.V B / Z ^ O.4.+./ J , O O @ R 4.^ 4.",
"^ %./ J H / Q Q %.-.#.Q / ~ ~ / / O./ ^ / Q 4.+.7.l.i.,./ r.4.;.*.Q Z %.J V H Q Z 4./ #.l.l.J J B +.+.e./ / J +.a @ O a ! -./ ~ ",
"4.^ ~ Z V B Q ! R d q n ;.Q Q %.4.*.;.G O.Z J / e.i.u.#.O.^ / 4.+.Z J B G %.~ Q / %.+.y.t.9./ V Q / / e.O.Q H O.e q q ! O.^ / ^ ",
"/ / *.J Q ~ J B M : 1 ) -./ Q / O./ +.z x x V G ! 7.-.E a M E 6.2.r./ Q ~ / ~ Q Q Q O.O.~ Q O.O.O.e./ / *.O./ / J l.h.2.#.+./ ~ ",
"/ 5.t.Q / O.n n C ; ; ! -.4./ ~ B z x = D x G O.~ G J d p 8 8 ) e.~ B O.<.D D J K m B ~ h ~ e./ -.2._ _ C Q Q ~ 0.b.l.~ ^ Q / <.",
"G %.e.+.Q M @ - C a d C R q M a / l & l * G Q / ! ! ,.W L 7 7 7 ! Z J e.J . = z Q ~ O.I ) %.%.~ =.j.f.i.) ! / Q ,.c._ O.J ^ O.<.",
"V Q -./ C u 2 , ~ <./ #.! O ; : / J G J Q 5 $ % $ % &.#.C u M z z x K B z . * x V / Q p L ) / 4.4.5.7.{ W R +.~ / / / ;./ / J +.",
"B Z J Z / O.5./ Q / V J ^ R 0 @ , J , # , a 3 $ $ $ % %.F = l .   z * S G z Z A d U W ! ! #.*.p.1./ Z R Q / %.*./ / O.*.O.+.Q / ",
"/ V J / / Q / ~ / O.Z B J / #.q a / Q , < w % % T j.2._ ^ D l z l l x D K J Q M 8 7 I / / <.4.e.e.<./ ~ +.5.+.%./ #.7.,.O.O.V ^ ",
"~ O.Q K O.B J 4.e.O., ; M ~ *.O.+./ a @ # 3 l * = R ! C n V K *.4.e.2./ ^ Q Z I 8 7 I Q %./ -.p.4.=.+.+./ ^ ~ O.J / &.q.! Q J B ",
"1.O.Q Z D A G -.*.e - @ C Q O.+.4.%.Q K Z z = & D ] q.d e V O.e.%.O./ J / h 3 p I p n K Q / Q %.<.<.+.4.#./ G D C / 7.v._ Q ~ ~ ",
"/ 5./ Q z * z Q B R C C / J Z / O.%.-.e.#.D x l * + ; : a ~ / +./ Q Z Q h 9 % % g ! C Q K %./ ! Q / Q / / Q Q D Q / -.0._ J / 5.",
"O./ #.B c z x n n / O.#.~ O.Z K / #./ _ i.e.<./ ~ V V G B J ~ / / / Q Z Z ! R Q O./ #.i.,.#._ ! / O./ J Z +.4.~ J G Z m G m O.r.",
";./ ~ K #.Q J 5 9 ! +.J C ~ J G Q Q Q 2.b.s.z.1./ Z J Q z z B J +.;./ Q ^ 4.O.^ Q #.p.z.j.R : M / / K z z *./ Q V l = l = J e.Q ",
"Z / +.B Z V Q f 4 j Q C V Q / / #.-.4./ :.u.z.7.Q Q O.A = * z S D J O.O.Z O.5.~ %.#.! ! #.C R ! Q V = = * ~ Z V A l & * l l ~ Q ",
"%.%.<.O.+./ *./ / 4.%.O.O.*./ / O.<.%.O.O.%.<.-.3.J #.Q l l l z D Z J O./ O./ / Q ~ Q / %.O.s 9 4 3 x C Z Q ~ J Z Q m V H ^ O./ ",
"Z ~ m Q =.%.<./ ~ 4./ ~ 2.v.s./ J / <.#./ +.O./ #./ O./ b G J Q O.2.4.Z Z O.Q B C ! 9.~ O.O.N % $ $ 9 O.#.*.J Z / / / O.J Z J J ",
"B K Q / +.i.v.l.+.Q Q #.u.j.7.~ ;.K J J B / <./ Q / <.O.G / / O.=.&./ ~ K Q O.n ; : | u.m z S 4 ; ; s M / 7._ i.#.V J J / J V G ",
"J J B O.;.<.m.l.1.G Z H D V J K / / / / Z ~ O./ / / G Q Q B Q #.C C V / J / #.q @ - ! K x = l & ; ; n J Z v.s.j.&.! G F G B Q / ",
"1.O.V G Q O.! Z H Q G x = c O.C q R R ~ C J / ~ / ^ J m K ! u.z._ O.Q #.Q Q Q ~ , w Q / K G = = 0 @ : G ! ] u.m.7.&.J V K J Q e.",
"Q / / %.+.4./ J O.=.Q x . G +.M : O -.#.Q / O.<.y.7.7.~ / ~ ,.v.7.Q Q u # 2 R / ! Q J J Q O.=.Q ! _ #.! j.s.7.>.u.1.%.O./ / Q +.",
"%./ Q / / / Z ~ +.-./ D S O.#.n O O O.^ 4.;.~ _ v.q./ <.Q B j.o.i.O.J n 1 a 5./ / %.d : 2 N _ I 8 T B / z.i.~ ;.%.Q / =./ / O.Q ",
"5./ ^ %.C = = = x V J -.! E I d - _ <.%.#.2./ =.C #.<.+.O.K 5.<.-.e./ M - @ q O./ 3.! 1 q Q T 8 7 I O.#.t.Q O./ J ~ 4.;.Q J / Q ",
"Q Q ~ ~ x & . *   l Q +.C T 8 p C C / +.O.O.Q Q J B m V J / O.Q 5.O.~ ;./ J / <.e.7.R : - w ~ d p ) %.#./ Z / +.J Q Q Q J Q O.C ",
"/ V C R M S l l = z V Q Q ! p L E J Q %.Q J Z / K Z x = z S K O.O.t.5.#./ / <.z.v.j.m.u.C M / Q Q 1.e.r.O.J B O.K ~ S z +./ ~ ~ ",
"=.Q q q a Q Q %.~ ~ Q ^ / M d T R Q O./ / O.+.+./ J z = z z A C Q O.O.5.O.,.2.0.s.n.c.9.Q #.O.^ B Q / / J Z G Z K ~ = . / / 4./ ",
"Q q O O u <.Z #.5.5.7.&.2./ ~ / ~ C / =.K +./ / ~ J S J / #.Q Q Q +.5.+.;.~ ,.%._ Q / J ~ / 4.+./ O.K D l l z J Z G l A G Q r./ ",
"Q w , q R e.e.Q / O.b.h.l.&.Q O.Z / O.=.Z x A Z ~ O./ Q +.! u w s C / / #.O./ V ~ +.4.4.<.1.K / %.J Q Q x = = G Q #.B / O.r.t./ ",
"=.Q C #.<.4.~ J Q O.7.j.z.j.+.Z / O./ ~ z * l z O./ ~ ~ C w ; O r.#.~ J J O.K J ^ *.4.2.1.<.4.e.1./ / / / D A Q ~ / K ~ J +./ Q ",
"%.Q K 2./ %.~ ~ J / / O.2.1.Q / ^ / / V D z * x ^ ^ / ~ ! a @ @ @ e.+.B #.^ Q V Z ^ r.r.r.#.#.#.2.O.-./ 4.%./ ~ O.Q <.O.O.O./ ^ ",
"~ r.e.2.%.e.1.5.1.=.~ ^ ^ =./ Q V ~ C D Q x A / +.;./ J *.E u C V ^ / J e.e.=./ Q +.V Z ;.~ J O.J Q B V / Q Q Q G / / K J 2.=.~ "
};
