/* XPM */
static const char *cave_gravel_pit_1[] = {
/* columns rows colors chars-per-pixel */
"64 64 140 2 ",
"   c #0D0D0D",
".  c #16140C",
"X  c #1B1409",
"o  c #17190B",
"O  c #1A1B0A",
"+  c #0D1516",
"@  c #0B191B",
"#  c #231B07",
"$  c #231D08",
"%  c #1E2209",
"&  c #1F2613",
"*  c #262007",
"=  c #2A2506",
"-  c #2E2F05",
";  c #23250A",
":  c #2A250B",
">  c #252A0C",
",  c #2A2B0D",
"<  c #263605",
"1  c #293503",
"2  c #273C02",
"3  c #2A3A01",
"4  c #2C310E",
"5  c #273A09",
"6  c #2A3C0C",
"7  c #32300E",
"8  c #222712",
"9  c #2B2715",
"0  c #242B12",
"q  c #2A2E14",
"w  c #252D19",
"e  c #292E1D",
"r  c #302E10",
"t  c #302C1C",
"y  c #263416",
"u  c #293314",
"i  c #2B3B15",
"p  c #26331B",
"a  c #2A341A",
"s  c #2C3B1A",
"d  c #323313",
"f  c #333915",
"g  c #32391D",
"h  c #0D1E21",
"j  c #101D21",
"k  c #0F2023",
"l  c #122225",
"z  c #152529",
"x  c #16282B",
"c  c #192B2E",
"v  c #1C2E31",
"b  c #1F3033",
"n  c #243322",
"m  c #2B3524",
"M  c #273C24",
"N  c #2A3B25",
"B  c #28352B",
"V  c #2A3C2C",
"C  c #373322",
"Z  c #383321",
"A  c #313E21",
"S  c #203235",
"D  c #2D3E32",
"F  c #2B4104",
"G  c #2D460D",
"H  c #324A05",
"J  c #30450D",
"K  c #334D0D",
"L  c #2E4213",
"P  c #2F4913",
"I  c #2E421D",
"U  c #2F4819",
"Y  c #324512",
"T  c #304913",
"R  c #31421B",
"E  c #334B1A",
"W  c #34501C",
"Q  c #2D4223",
"!  c #2F4D24",
"~  c #2C422D",
"^  c #2E4A2C",
"/  c #324623",
"(  c #324B24",
")  c #3B4B22",
"_  c #31462A",
"`  c #324B2B",
"'  c #3A4F2D",
"]  c #335124",
"[  c #395223",
"{  c #34522C",
"}  c #3A522C",
"|  c #2E4531",
" . c #2F4D30",
".. c #324D34",
"X. c #324A39",
"o. c #2E5230",
"O. c #335234",
"+. c #3A5434",
"@. c #365239",
"#. c #3A553C",
"$. c #3D573E",
"%. c #3D583B",
"&. c #3E583C",
"*. c #435535",
"=. c #42573A",
"-. c #41573C",
";. c #47573C",
":. c #42593E",
">. c #4C593D",
",. c #3F5742",
"<. c #3D5842",
"1. c #435841",
"2. c #465842",
"3. c #415845",
"4. c #465B47",
"5. c #4B5A43",
"6. c #4C5A43",
"7. c #4B5B47",
"8. c #4D5A46",
"9. c #455948",
"0. c #485B49",
"q. c #4D5B49",
"w. c #4B5D49",
"e. c #495B4C",
"r. c #4B5C4D",
"t. c #4D5F4D",
"y. c #505B43",
"u. c #555B43",
"i. c #595E44",
"p. c #525D4A",
"a. c #5B5F48",
"s. c #4C5D51",
"d. c #4E604F",
"f. c #53604C",
"g. c #4F635A",
"h. c #506153",
"j. c #50645B",
"k. c #65604A",
"l. c #4B5F63",
"z. c #4C6064",
/* pixels */
"V ..4.4.#.V ....3.4.#...| @...| O.| X...#...V ,.#.B | | 3.3.#.4...V ..,.0.r.0.1.3.4.#.| ~ m V ..V V V 3.,.#.@.#.%.#...| S ..1.S ",
"..S X.#.#...B m ..| ..~ X.#.B V ` m X.@.,.#...~ | $.@.#...,.X.3.@.....~ | ..#.@.| $.4...@.@.@.......| 1.#...#.@.1.9.~ p { &.9...",
"%.| B #.V B V | B ,...O...S V 0 ; u o.4.....| #.....V ..@.$.....X.#...V v + @ x #.,.#.| ..| | ....@...X...| $.#.3.3.` ; ; / 3.#.",
"#.V V V S #...| ..#.#.#.O.D ..0 O ; a #.@.| V @.V ....@.@.X...X.,.X...V m v   k @.#.V ~ #.| | #.,.%.#...4.O.| Q ( ( ^ i ; Q ..3.",
"1.9...| ....X.~ | | @.O...| @.` N ( ^ ..%.O.....V O.1.1.@.#...| ....#.V V k @ h @.....,.$...| ..@...,.O.#.D N & ; y Q , ; 8 $.4.",
"4...V @.4.V b | ~ m V ..B ..4.....V N y 8 s a | V ..| ....| V @ b h 4.| O.#.| V +.+.+.2.,.,...X.| V | | #...m 0 o O p V ..$...$.",
"3.| D 4.1...v Q 1 3 @.#.#.%.#.....#.( % o ; 0 ~ #.@.~ @.| V +     v 4.#...O.....%.t.g.2.@...@.#.,...| $.#..._ u 4 u / %...X...| ",
"V ..#.V S z e < 3 H } ^ #.#...3.3.,.^ u ; ; > | ..| ..#...h     +   @...| @.@.| O.q.6.1.%.V ..#.O.| V | ....N ^ N ..#.#.#.%.#...",
"B @...x @ + h l ` i.a.;.@.#.%.e.1...V ~ ^ s i #.....O.%.@.#.@ z z v ~ ~ ..| c z V ..N m a A N V V | V X...| ~ ~ B ~ $.#.| V | ..",
"..4.4.S z @ h @ m y.u.#...,.3.4.4.,...| #.$.#.,.@.#.3.#.....b | ..+.2.:.` l + + v @.N : X $ g ~ _ ` N B B | ..5.p.+.......V S V ",
"4.0.4...X.S v x c ` +._ #...$.0.,.$.#.#...X...3.X.......V | V V +.t.t.7.+.t 0 > L E g , # O f A : d , e ....:.d.g.w.O...B B ~ #.",
"#.@...| ..| ..#.E L m V | ..| #.,.,.#.3.#...| ........X.V ......8.t.:.7.=.( 3 3 3 6 Q ~ N m ^ _ , , X X ~ S X.%.t.h.-.....B @.4.",
"..| V | V #...@.E 2 i ~ ~ #.@.#.....| ....| #...@.....#.@.~ ..3.@.7.+.%.1.^ G 3 3 F M V B l x | O.7 = , $.V V #.q.a.+.....X...#.",
"....| V V @...| +.! _ @.%.4.9.#.@.@...m z z / c | | ..~ | V #.4.@...#.+...+.m / u P n @   + + V ..@...| %.p.p.` ..~ m b V | ....",
"#.#...| X.,.@.X.~ ..@.@.%.$.1.......Z O X X @ @ S V @.@.+.2.7.` #...| p.8.2.~ ~ ..#...@ @   @ b | | | ..7.a.z...v l S | B ~ X.| ",
"v ~ @.O.B @.3...#.#.| | ..| ..@.X.V l + . X o @ h V V $.2.t.p.5.~ ..#.E ] =.| ..@.#.m l @ h | ..@.@.~ V V ,.&.| h + | ..D ..| V ",
"| B ~ @...@.....| | | ..#.@.V | X.S z k # O 9 h @ c V X.=.t.h.d.p.%.s o ; +.#.....,.4.d.0.#.......| z j c ..@.~ k h ....| ....3.",
",.:.! 0 p @.| V | ......@.@...B ......X...O.V v S b X.@.` ` ;.' V | 8 o % y +.....,...-.4.$.#...V S @ + @ S @.| V | @...b | #.#.",
"$.s % o w | @.V V ....X.@.X...@...V #...O.} +.#.@.B ~ ~ ..~ ` ~ V ~ | 0 s u +.4.#.| +.p.h.8...| @.v @ h z v ,...| ..,.@.B ....@.",
"B 0 o % p ..#...V ..,.#.X.X.| | #.| ` | ' u.>.:.#.~ S v S V | ..V V b Q @...#.3.#.S V ..~ ~ ..V ....| | V | O.......S ..` V ~ ..",
"~ ^ 8 y Q | | X.| ~ ..@.......I I y R n { *.>.=...@.V B | V | V l +   + S ..| B V | B b 8 8 u q X.......V ~ ......^ ^ +.+.| | #.",
"..| ~ O.@.#.:...#...| | ..@.,.> > > u M ~ | <.| #.#.%.O.....| ..@       c @...~ O.$...| 0 o > N ..#.,.#.| ..@.@.#.@.2.p.p.| @.,.",
",.O.| V X.>.i.+.O.4.,.#.| | $.Q y > ; a #.@.| #.#.V ..( r 4 I a h +   @ h V ..@.$.,.@.....#.u q #.4.#.X.3.#...| O...#.d.#.V 4.0.",
"$.4.....+.*.>.u.+.,.%...| | #.X.^ s i / $.V ....| ..` 7 X - 1 3 U Q S ..%.$.X.V | $.$.$...@...@.@.4.3.#.#.1...$.V | <.5.#.~ 3.,.",
"3.O...#..._ ^ ..#.,.X.m C S | V V #.#.#...V ..#.V ..+.f , 1 3 1 3 L O.#.s.#...#.| X.$.#.| @.~ ..| V ..#.@.O.| | | V @.,.1.3.@.| ",
"@.4.3.#...| | ~ B V l @ @ z V z h | 4.9.@.N m ` V #.,.@.%...I 3 H E +.7.#.,.:.d.#...#.| | O.~ #.@.~ | #.| V V ..~ ..| #.......O.",
"| @.@.3.@.%.X.l @ @ O X X + l +   z ..4.@.y ; ; 0 3.@.......$.` :.7.t.l.~ =.g.z.%.@...X...~ V @...| @...^ Q ` #.....,.@.@.%.V V ",
"| #.3.#.#...$.~ k @ . X X X @ @ @ V | ..V 0 O o O a ..B m | 9...^ &.t.;...,.{ 0.4.3.#.#.@.X.X.V c b S B ; O >  .......#.#.$.....",
"V | ....@.@...B ~ ..V c l ..b h @ v +.2...#.M ; o u N O.@.9.4...| ~ %...@.9.9.X...@.3.3...X.h h + @ @ @ p % , I ..O...| #.$...~ ",
"4.#.| ~ ~ O.q 0 ~ %.3.1.1.,.#.@...#.t.h.%.%.#.+.^  .D ..V #...~ #.| V #.3.3...V | @.#.#.~ ^ h + @ @ + j v N #.#.@.....| V V ..4.",
"#.4.#.V @.a O o n X.9.9.9.#.2.2.p.p.h.0.1.3.@...@.| ,.@.@.@.s a #.| D 1...#.....~ ......m _ C v v c @ z V V ..@...X.^ | +.....#.",
"B ....V 4.I ; > Q #.V V #...8.q.t.g.7._ ..| | | S ....D V 1.I > a 4.4.1.#.4.1.3.1.$...X., 7 _ | S b z l | v | #.#.` y y { 1.#.~ ",
"..V ..,.0.e.R ( #.4.#.| ~ m ^ 2.q.2.` 3.,.#.@.#.%.#...| S ..#.e m X.4.4.#.V ....3.4.#...N _ ..| O.| X...#...V #.y % O o $.3.#.4.",
"@.....~ | @.+.$.%.$.4...@.@.@.@.:.%.X.1.#...#.@.5.q.+.~ 9.r.9.....S X.#.#...B m ..| ..~ O.$.B V ..B X.@.,.#...~ 0 . . O ~ ,.X.3.",
"X.#...V V ..| | #.$.@.| ..| | ....@...X...| ,.#.5.p.q.,...9.3.#.%.| B #.V B V | B ,...@.f.p.~ ~ V #.#.4.....~ #.s O o y ` $.....",
",.X...V B V | ` Q i w N #.| | #.,.%.#.S @.B ~ ..4.q.7.#.O.X...3.#.V V V S #...| ..#.#.0.4.8...B | ....4.@.| V O.p u u ` @.X...X.",
"....%.V | ..V N I > q { $...| ..@...#.h z l B b ` 2.&.] s s W 3.1.9...| ......| | | @.O...~ @.@.@.3.O.O.%.O.....V p.a.1.@.#.....",
"..3.4.| ..@.M n N > ; ` $.,.....V h l @ v l S @...S ~ i 2 3 3 } 4...V @.,.c c V D m V ..m ..4...&.;.+.+.V _ ^ ..5.l.f...X.| ..,.",
"S #.4.#.^ Q o % Q s s Q Q 0 / y O.@ + @ + S ~ O.{ +.$.] F 3 3 1 ] B V 4.~   @ k | | @.G { #.#...%.p.p.q.} ^ ..| $.h.+.@.~ X.O.,.",
"B | $...N u , 8 ..,...#.] o ; , ..~ b D ^ d # $ # * #.@.V u L h k l D V h   + z B ..| 6 F ] ..3.3.3.2.;.[ Q #.| ..+...#.....~ #.",
"V B | V ..@.3.O.~ ..B V X.Q w o 8 ~ 8 $ 0 a * X X O # #.v @ @     h + z S k V x s K ] { ( #.%.e.1...V ~ ^ O.#.%...O.O.%.@.#.| ..",
"..B ~ ....| ......O.V V ~ ..@.u i O.| 8 8 w $ $ ) p.2.O.X.c @ h @ @ l c D ~ ~ I 3 3 G ....,.3.4.4.,.....#.3.#.#...@.2.&.@.O.B X.",
"..@.| D X.V ~ ,.4.O.8 ; M ..%.@.#...a % % ; @ + @ _ } Q n B | %.3.4.1...X.~ V J 3 3 R | #...$.0.,.$.#.#...X...@.~ ..%.6.{ | V V ",
"1.O.| V c x b $.%.y ; o N | @.#.3.#.| D V h @ + c *.6.i y B @.4.#.@...~ ..g , f G 6 n D | ..| #.,.,.#.3.#...S c V O.2.g.+.` ....",
"..3...| @ + j | V _ N Q O.V V ..@.#.$.4.#.c l @ + X > > a ....#...| V | m d $ # f ` V ~ | #...` ` ..| ....| | v | O.&.7.@.~ ..3.",
"@...#.V z j z M n O.@.@...O.V D ..@...+.q.4.1.O...B V b N ~ ........| V V _ _ ~ @.O.#.q.$.+.{ +...@...~ V #.,...~ S V m b m @.9.",
"#...| D @.| ~ q d +.#.~ V | ~ S | | | :.l.t.t.1...V V | j j V V #.#...| X.,.@.X.~ @.w.t.p.Q , s ....D h h %...| B @ @ @ @ ~ 4.| ",
"V ..#.V V B | g r g | V B | ....@.$.,.+.=.7.d.2.~ | @.x + + k c v ~ @.O.V @.3...#.#.O.O.#.Q Q _ ~ V @ @ + ..V V z @ + + @ @ ..| ",
"#.#.,.@.#...%.....,.#.@.@.%.O...@.,.#.@.@.#.1.&.<.V #.| @ @ @ h v B ~ @...@.....| | | ..#.@.m d r : z V V | ..V B | m B V X.@...",
"V ..m | $.#.1.....,.....1.g.t...~ ..,.@...#.@...@...@...z S ~ | @.1.,.V V @.| V N ` 8.| @.@.A $ O X d @.#.%.V V ......@.~ V V ~ ",
"V | | ..#.q.g.p.#.| | @.7.p.7.| #.D ~ V V ..,...| ..,.@.S ....@.$.#.....| | @.n ; ; 6.7.m h c q ; ; g A ..2.@.q.@.B ~ ~ ..V B S ",
"V V V @.#.:.z.p.2.S V V v B ~ D ........V | O.......b | | N ^ @.~ ~ B ..~ ..#.0 o % ] | l @ @ + 0 ; s V V g.t.p.&.^ S v S V | ..",
"1.O.V S | @.` V V | b l @ z O.~ u Q Q ..V ~ ......X.V m | ^ w.t.+.@.| #.| | | ..8 u ^ O.| S @ @ 0 o , S +.=.7.z.2.#.V B | V | 4.",
"| ....#.#.,...~ O.$.| l   S #.M > o $.#.| ..@.:.0.2.2.......:.g.2.| _ u ; , / ..` ~ ~ ~ ~ @.$.^ ] +.#.+.p.t.4.:.7.1.#.@.....| #.",
"#...| ......V | #.$...c c @.@.a o o O.X.3.#...+.g.6.+.,.| V p.k.q.O.~ N q y 3.....&.s , q N +.J 3 T V O.t.q...#.&._ ..$.....@.| ",
"3...X.#.V @ + + z B ~ $.` ! L i ; { ,.#.#.1...$.~ #.1.#.@.D 3.,.$.4...s % O y @.O.<.] 0 0 ~ E 3 3 Y @.@.4.^ O...~ ..,.#.| V ..| ",
"| | ....l +   +   @ | #.~ E 3 6 Q V ..#.@.O.| | ~ V m B ~ ..@.| 3.O...#...V O.1.4.4.Q ; % w | i 6 ] #.#...V ..#.V | | | V | @.V ",
"..B V ( M z @ @ @ h B ~ ~ ! 5 F ( ~ | #.| ~ V ..| V l @ h c | O.@.4.3.#.....:.t.g.p.z.7.M N ..~ ~ 1.4.9.@.V V @.D ..c h #.......",
"$._ 0 8 p | | #.....| X...N i P Q | @.....@.#.#...V h @ h l x V | @.@.3.@.$.;.5.t.j.h.8.| #.O.X.V | ....V V S V D | @   ....,...",
"| 0 o o u ,.B #.3.3.2.#.1.........V ..$.| #.....| ~ z V ..@.~ ~ ~ #.3.#.#...$.#.@.| ..~ ....,.#...@.| v @ @ h ~ V S @ x S | 9...",
"| w 8 8 Q 4.4.| ..@.l.a.p.%.~ @.V ..O.$.V l x V | O...| #.] u a m ~ ....@.@...B | #.,.,.,.1.| ..#.~ | | l @ @ S | @.V ..O.9.4...",
"$.| V #.,.,...V | @.2.p.d.p.%.V ..O.....h + @ j @.....| V 0 ; o 9.#.| ~ ~ @.| ~ X.%.3.1.1.,.3.4.1.........v x | ....D ..V #...| ",
"#.| | 1...#.....~ ....O.2.2.` ..X.....V c j + z X.X.....+.a o % O 4.#.V @.X.| B B X.9.9.9.#.#.#.1.@.$...,.#...| @.| ,.@.@.@...X.",
"..9.4.1.#.4.1.3.1.$...X.X.$.O.| V ..V v | z z ..#.#...~ %.( u N B X...V 4.4.$...| #.V V #...~ O.~ | V V ..| | | S ....D V 1.$..."
};
