/* XPM */
static const char *cave_magma_cold[] = {
/* columns rows colors chars-per-pixel */
"64 64 7 1 ",
"  c #221E1B",
". c #391A1A",
"X c #3B3835",
"o c #940000",
"O c #C80013",
"+ c #FF200F",
"@ c #FF6F00",
/* pixels */
"...................XXXXXXXXXXXXXXXXXXXXXXXXX....................",
"...XX.XXXXXX.......XXXXXXXXXXXXXXXXXXXXXXXXXX...................",
"...XXXXXXXXXXXXXXXXXXXXXXX.......XXXXXXXXX........@.............",
"...XXXXXXXXXXXXXXXXXXXXXX..o.o...................@@@............",
"....XXXXXXXXXXXXXXXXXXX.....oO.OOO............OO++++............",
".........    XXXXXXX.......oOooOOOO.......ooooOOoO.OOOOoo.o.....",
"....O...OO..................oooooo.......oooooOoOOooooooooo.....",
"....OOOOOOo...................oooo.......oooooooooooooooooo.....",
"..oooooOOOO.....OOooOOOO.................ooo.........oooooo.....",
"..oooooooooooo..OOOOOOOoo.oo....................................",
".........oooooo.oooooooooooo..................... ..X...........",
"..........ooooooooo..ooooooo........+.+..........   X....XX.X...",
"...........oooooo.................OOOO+@++.......    XX..XXXX...",
".............oooo...............ooOOOO++++++.....     XXXXXXXXX.",
"..............oooOo.............ooooooooO++O.......   XX..XXXX..",
"....XXXXX.....oooOO.............ooooooooooOOOo.....   XXX..XXXX.",
"..XXXXXXX......oooOO++@@@...............oooOOoo.....XXX....XXXX.",
"XXXXXXXXX.......ooO+o+@@@..................oooooo...............",
"XXXXXXXXX........oOO+OO@++.......XXX........ooooo.......o.o.....",
"XXXXXX...........oooOO++++O.....XXXXXXXXXX...ooooo......oooo..XX",
"XXXXXX............ooooOOOOO.....XXXXXXXXXX....oooo......oooo..XX",
"XXXXX..oooo...XXXX...oooooo.....XXXXXXXXXX..........XXXX......XX",
"XXXXX..ooooo..XXXX.X............XXXXXXXXXX..........XXXXX....XXX",
"XXXXXX.ooooo..XXXXXX................................XXXX.....XXX",
"XXXXXX........XXXXXX................................XXXXX....XXX",
"XXXXXXXX......XXXXXX......@++@+++OOO.................XXXX....XXX",
"XXXXXXXX................+@@@@+++OOOOOoo...++@@@++.....XXXX..XXXX",
"XXXXXXXX..............OO+@@+OOOOOooOOoo.OO++@@@@+@ooo.XXXXXXXXXX",
"XXXXXXXX.....OO.OOooooOOOOOOOOOOooooooooOOOO++@@@OOoo.XXXXXXXXXX",
"XXX.........oOOOOOooooooooooo.........oooooOOOOOOOOoo.XXXXXXXXXX",
"XXXX.......OOooooooooooooooo..........oooooooooooooo.....XXXXXXX",
"XXXX..ooo..OOooo.........oOOOOOO.........................XXXXXXX",
"XXX...ooooooOoooo........oOOOOOOo............ .. ......XXXX.XXXX",
"XX....oooooooooooo.......oooOoooooo........X.XX  ......XXXX....X",
"..............oooo.......oooooooooooo.....XXXXXXX......XXXX..XXX",
"X.............ooooOOO..O....ooo.ooooooo...XXXXXXX......XXXX..XXX",
"X..............oooOOOOOOOoooooooooooooo...XXXXXX..@@..O......XXX",
"XXX..............ooooooooooooooooooo.............@@@OOoO...XXXXX",
"XXX..............ooooooooooooo........XXXX.....+@@@+OOoo...XXXXX",
"XXX...oooo............................XXXX.....+@@oooooo..XXXXXX",
"XXX..ooooo..XXXX......................XXXX.....ooooooooo.XXXXXXX",
"XXX..ooooo..X..X......................XXXXXX...ooooooooo.XX.XXXX",
"XX.....ooo..XXXX..........XX.............XXX.........ooo.XXXXXXX",
"XX.....ooo..XXXX..........XXX..oO+O@+....XXXX.............XXXXXX",
"XX.....ooo.......+++@@....XXXoooO++@@+....XXX............XXXXXXX",
"XXXX............O++@@@.......oooooO@@+..............  . .XXX.XXX",
"XXXX........o.OoOO.OOo.........oooo+@...............       XXX..",
"XXXX........ooOOoooooo.........oooo++ooo.o..........        XXXX",
"XXXXXXXXX...oooooooooo..........oooOOOoooo.......oo..       XXXX",
"..XXXXXXX.........................oooooooo......ooO...XX    XXXX",
".XXXXXXXX..............XXXXXX.....oooooo........oOOO....X   XXXX",
"XXXXXXXXX...............XXXXX...................ooO++....XXXXXXX",
"XXXXX...................XXXXX...................ooo++......XXXXX",
"XXXXX......O............XXXXX....................ooO++@@+..XXXXX",
"X......OOOOO.........................O..........oooo++++O+O.XXXX",
".......OOOOOOo......................OO.OO.XXXX....oooO++OO...XXX",
".....OOOooooooooo.O+O+@@@..........ooOOOO.XXXX.....ooooo........",
"....oooooooooooooOO++@@@@+.........oooooo.XXXX.X................",
"...ooooo.....ooooooooOOOOOOOO.......ooooo.XXXXXXXXX....XXXXXX...",
"...oooo..........oooooooOOOOOo..............XXXXXXXXX..XXXXXX...",
"...oooo..............ooooooooo..............XXXXXXXXX..XXXXXX...",
".........................oooo.....XXXXXXX.XXXXXXXXXXXX.XXXXXX...",
".................................XXXXXXXXXXXXXXXXXXXXX..........",
"......................XXXX.....XXXXXXXXXXXXXXXXXXXXX............"
};
