/* XPM */
static const char *cave_ice[] = {
/* columns rows colors chars-per-pixel */
"64 64 17 1 ",
"  c #6E98A6",
". c #7198A6",
"X c #7799A6",
"o c #7A9AA6",
"O c #7D9BA6",
"+ c #7F9CA6",
"@ c #819BA6",
"# c #829CA6",
"$ c #849DA6",
"% c #889EA6",
"& c #8C9EA6",
"* c #919FA6",
"= c #8FA0A6",
"- c #92A0A6",
"; c #95A1A6",
": c #9AA2A6",
"> c #9DA2A6",
/* pixels */
"%$$$O&;-%$$#O%-%#$&;;;%$#oOO.  &+$$###oo#+.o$#ooXoX.O&-::>:%o%&%",
"oo$&&-*%##$#o%*$oo#$&-%O#OooXoo$$+#%$%%O##oO$$O.oO#$&;;;-;;@O&&$",
"oo%*;&@#OO#oo#%%#oO###OoOOoXXXX##+#$#$&$###OO#O#%%%--*&$$%&#O%$o",
"oo%-&OX##+$#oo$&#o##oooo#OX. .o%#O%$X#%$#$%$$$$&-*&&&$o#&&%#oOoo",
"oO&*$XX#$###Oo$%%##%#oOO#o..XX#&%$&%#%%O#&--&%$**&$##$#%*%+oooXo",
"o$-%O.X+&%OoO+%&&#+$#OOooX..XO$*-*-*%&%##&-&&$$%%#OOO#$#$$+ooo.o",
"o%-$. o$%$oXO#$%%$#+oO#o..Xo#%&;:;-*%%%$$$$+$%&%OOo+@OoX#$OooX.o",
"o%*$oo#%+o+ooO#$&%#oO#+oo%&&%&%-;&%$$##$$Oo.o#%&$oXoOo.X#%OO#XXo",
"o%%o$%&%#+##XX#&;&%#$%$#$--%$@o$$OXXO$$$#OX  X#%&&%oX..X$$+##.oO",
"#$#X#&;;&#O++oO&;*%%%&&&&&%OoXXOo.. X#--$OoXXXo$-;;&#XX#####oX#$",
"$$#O+%-;;&$O+$$#%&%%%&&%%#oX.X+#XooXoO*;$OX.oOO$&--;;*-&#O%#.o%%",
"%&#+OO$%&*;%O$#oO$$$#%-%oX. XO##ooOOO#%&#oXXo##%%#%&;::;%$%%#$&$",
";-#ooX.oo#&-&%+Xo$#oo%;-OX.oOO#$oX#$OO$%$OOoooO$$O##%*--$#%%**--",
":*#XXoXX.o$%--%####oo#-;%XoOOo##Xo%&$o+#$$$OXXX+$$OO%$#O$$#%*;;:",
":&OooXX..+##&--&#O###O$-&##+O##XO&-%#oo$%&%#X.o+$$$$%$++%%$%-;;:",
"-@OoX...XOOoO$-=%#$%%#@&*-&$$%%$;;&$##O%%$%#X.Xo$%$#$$%&&%&;;;-;",
"&$oX....OOX.o%;-&%%&%%$%-::-$%*::;%$$$#$#O$+..O#$$#@#%*;-&-::-*&",
"-%OXXX.XooXXO&;-&&&%$-;-;::;&&::;&$$$#+##@%$Xo+##$$$%&*&%&*-;---",
"-OooooXXXXoO@&;&%&&%%-*--*&&&::;%$#+#OXo##&%oO#$%-&%%%$#$$&&*-;;",
"&+XXXX.XoO$&%$$&&$%&%#o#&&%o&:;$#@#oX. XoO%&@+#%-;*%+##%&$%-*;-;",
"&%#XX.Xo#%&&%#@%*&&&%oO$&*&#$*&#oO+X.  oOO$%$O#%&&$OXo%&&$%&%$%%",
"$&&%#Oo#$%%%$#%&&&&%###&---+OO#%#oX.   XooO%%$$%%#o.o$%%$#$%#oO$",
"#%-;;;;*%###$%&%$%$OO#%*;;%+oXX$$X     .ooO%&&%%#ooX#$###$#$&&%#",
"#$%->>:;&$Oo$&&$O#OO#%%;-*%##ooOOo.    .+$%&&&%#OoO###oO#+O#&&%$",
"O##&;;;-%$##$&%$OOOoOOO&&%&#$oXoXoo    .O$$&%#+##$$#Ooo+#O###+oX",
"o#$%%&-&%$%%$$%##+OX..X$%%%O#o.oX.Oo   .oO#&$o#%%%OXXo#OO###oX.X",
"#O###$%$$%%*$#$$$#OoX. #&&&#+Xoo..$&$o  OO$%$$&-%o  o##Xo##OOoo$",
"OXooo#####--#OOoO$%$Oo.O-*%$#oo+oo$--&##$%&&&;*%O..XO#o o+$###O+",
" .XXX+##$$--ooo X#%%$+XO**$$OX##oo#$*---;;;;;:-$ooO#Oo .o$$$#OX.",
" ...XXoo#&;&#oX.Xo###$$%*&%&%%%#o#$&&&*-:>:;;;;&%*--&%%&%&%%$OX ",
" oX..XX.O&&$#o.XoOooO$&-;*;:;&&@+%%&%#%-;;&&-;-%&-;---&--&&*&$+ ",
".OoX.oX.$-%##oXooOo.X$-::::;&%%%%%%%Oo&;-%$$$&-%&-;;*&$$#O#%%## ",
"+$$###oo--$O$#ooXoX.O&-::>:%O%&%%$$$O&;-%$$#O%-%#$&;;;&%%+OO.  &",
"$+#%$%%O&-$+$$O.oO#$&;;;-;;@$--$oo$&&-*%##$#o%*$oo#$-;&%-%OoXoo$",
"#+#$#$&$#$$OO#O#%%%--*&$$%&##&%Ooo%*-&@#OO#oo#%%#O#$%%$%&%oXXXX#",
"#O%$o$%$#$%$$$$&-*&&&$o#&&%#oO@##o%-&OX##+$#oo$&%#%%##%&%OX. .o%",
"%$&&&*%O$*;;-%%**&$##$#%*%#oooo##$-*$XX#$###OO%-&%$&$$&%#o..XX#&",
"&&--=-%#%-;--&%%%#OOO#$#$$#ooo.oO%;*@.X+&%@+$%&-*$+%%$$OoX..XOO%",
"---*%%%$$$$#%&&%OOo+@OoX#$OooX.oo%-&OXo$%$+O$%$&%$##O+#o...XooO%",
"-&$$$##$$Oo.o#%&$oXoOo.X#%OO#XXoO%*%#$%&#o+OoO+$&%#oO#+oXO+#Ooo%",
"$OXXO$$$#OX  X#%&&%oX..X$$+##.oOo%&$%&**%$$#XXO%&%#o#$$#O$#OX..#",
"o.. X#--$OoXXXo$-;;*#XX#$###oX#$#$#+%&;;-%$$$OO%&%###%%#O#o.  XO",
"XooXoO*;$OXXoOO$&-;;:*-&#O%#.o%%$$#+#%-;;*%%$%%#%%%%$%$+oX.  X+#",
"ooOOO#%&#oXXo##%%#%-:::;%$%%#$&$%&#+OO$%&*:*$%%#O$$$#$%$XX. XO##",
"oX#$@O$%$OOoooO$$O#$&---$#%%&*--;-#ooX.oo#*;-%#Oo$#oo$&%oX.oOO#$",
"Xo%&$O+#$$$OXXX+$$O@&&$@$$#%*;;::*#XXoXX.o$&-*%#O##oo#&&#XoOOo##",
"O&-%+oo$%&%#X.o+$$$$%&%$%&$%-;;::&OooXX..+##%&;-#O###O$*&##+O##X",
";;&$##O$%$%#X.Xo$%$#$%**&%&;;--;-@OoX...XOOoo#&--$$%%#@&*-&$$%%$",
":;%$$$#$#O$+..O#$$#@#%*;-&-::-*&&$oX....OOX.Xo$&--&&%%$%-::-$%*:",
";&$$$#+##@%$Xo+##$$$%&*&%&-;;----%OXXX.Xoo.XoO$#$&&%$-;-;::;&&::",
"%$#+#OXo##&%oO#$%-&%%%$#$$*;;;;;-OooooXXXXoO@#$$##$%&-*--*&&&::;",
"#@#oX. XoO%&O+#%-;*%+##%&$%-;:;;&+XXXX.XoO$&%#O$%##%&$o#&&%o&:;$",
"oO+X.  oOO$%$O#%&&$OXo%&&$%&&%&--&#XX.Xo#%&&%#@%&%%$#XO$&*&#$*&#",
"#oX.   XOOO%%$$%%#o.o$%%$#$%#o#%&-*%#Oo#$%%%$#%&%&&$OO#&---+OO#%",
"$X     .oOO%&&%$#oXX#$###$#$&&%##&;::;;*%###$%&%$%$OO#%*;;%+oXX$",
"Oo.    .#$%&&&%#OoO###oO#+O#&&%$#$&;>>:;&$Oo$&&$@#OO#%%;-*%##ooO",
"Xoo    .O$$&%#+##$$#Ooo+#O###+oXO##&;;;-%$##$&%$OOOOOOO&&%&##oXo",
"X.Oo   .oO#&$o#%%%OXXo#OO###oX.Xo#$%%&-&%$%%$$%##+OX..X$%%%O#o.o",
"..$&$o  OO$%$$&-%o  o##Xo##OOoo$#O##+$%$$%%%##$$$#OOX. #&&&##XoO",
"oo$--&##$%&&&;*%O..XO#o o+$###O+OXooo#####&%oOOoO$%$Oo.O-*%$#oo+",
"oo#$*---;;;;;:-$ooO#Oo .o$$$#OX. .XXX+##$$&%.oo X#%%$+XO**$$OX##",
"o#$&&&*-:>:;;;;&%*--&%%&%&%%$OX  ...XXoo#%&#ooX.Xo###$$%*&%&%%%#",
"+%%&%#%-;;*&-;-%&-;---&--&&*&$+  oX..XX.X$$O+o.XoOooO$&-;*;:;&&@",
"%%%%Oo&;-%$$$&-%&-;;*&$$#O#%%## .OoX.oX.+#oo#oXooOo.X$-::::;&%%%"
};
