/* XPM */
static const char *cave_gravel_pit_3[] = {
/* columns rows colors chars-per-pixel */
"64 64 83 1 ",
"  c #000100",
". c #000D00",
"X c #001300",
"o c #001D00",
"O c #000017",
"+ c #00031C",
"@ c #002301",
"# c #092100",
"$ c #002C01",
"% c #0C2800",
"& c #00250B",
"* c #002B0C",
"= c #102800",
"- c #003202",
"; c #00340D",
": c #003B0D",
"> c #002611",
", c #002C12",
"< c #002619",
"1 c #002A1B",
"2 c #003214",
"3 c #003B13",
"4 c #00341C",
"5 c #003B1D",
"6 c #000221",
"7 c #000C26",
"8 c #000E28",
"9 c #00142C",
"0 c #00182F",
"q c #001630",
"w c #001B34",
"e c #001F38",
"r c #002D25",
"t c #002C29",
"y c #003225",
"u c #003C24",
"i c #00342C",
"p c #003A2E",
"a c #00213A",
"s c #003032",
"d c #003C33",
"f c #003C39",
"g c #004007",
"h c #004211",
"j c #00411B",
"k c #004325",
"l c #00422D",
"z c #00442C",
"x c #00482C",
"c c #0F4F2F",
"v c #004033",
"b c #004630",
"n c #004235",
"m c #004535",
"M c #004B33",
"N c #004A35",
"B c #014F35",
"V c #00463B",
"C c #00473D",
"Z c #004839",
"A c #004E39",
"S c #00483C",
"D c #004C3F",
"F c #154F30",
"G c #04513C",
"H c #0A503D",
"J c #1A5230",
"K c #1C5132",
"L c #125139",
"P c #12513B",
"I c #35542A",
"U c #205332",
"Y c #004B42",
"T c #004E43",
"R c #004C44",
"E c #004F4C",
"W c #005241",
"Q c #005247",
"! c #0B5242",
"~ c #005349",
"^ c #00544D",
"/ c #005459",
"( c #254D6B",
/* pixels */
"tdTTSynnYTSddVvpVpfdSnrSYriiRRSTntvYTRTDRTYdi1tdrytRSCVYZCnpadSa",
"vafSSdr1dinifSrrp1fVYSdiiSVCdYfRVddidnSVdSTnVVVdnddDSnSVDRi1zDRd",
"ZprSyrtirYnVdai@o@mTdniSvnrvVSndfSnre+6wSSYpnddndVnfndSSRYzoo5RY",
"SryraSdinSSSVid@Xo*SVitVyddVVfdfYfdr1e 8VSriYppSSZSnTVpuuup*o4nR",
"SRnpdnfiidVVddVl4kpdZVvnyVDSVSddndSyr8+7VdnYSdidVnSVSi1oo*4@ooST",
"TdrVTtapy1rdrdTddy1&o,,dydddddr+a7TiVYiymNMSYSdfptiiSd1@.X&ydSnS",
"YiiTSne4$-VSSZSdnYuo.o@iSViViyO  eTSdVddNQ/DVnVSSvdSCnu$@*5Znfdp",
"rnSra0@$$gzpSYnRRSp@@o@pnpdYd8  + VniVVdnDADZydSVdrdndrpynSSSZYn",
"rVnw6+89lJUMVSZRDnypp,*SnnVZVY60qeiyniwqtdr,$41rrirfdpiiriSSdyid",
"dTTa068+1BFZnSRTTSndSSSYVSRYnnapnMSSl9O+eV1o X*iul4rridAHMvvntay",
"TTTdfaewezzuSdSTYSSSnfvRfnddtiyyMQQDz#@@;5*@X.$2o$@&ddS~/WmnrriS",
"SVniddnSj2<ypnpSSSSRCddddndfydddAQADNk-$--4yy,duoo  iafNQ^ZvdrVT",
"ndtirCdVj-;iiSVSnnpvvpSdVndSVinYVDmZDp:-$-1rr9wim@o@SyyVDUZddfnS",
"nnprrVndbzuVZTRSVVn>004wiinidyVTVnCMvM1u$3<6 +OynVdiZLWpvy1aridd",
"SYndfYVfinVVZSDnnn=.  66arVVmSDpYndWASiynYd6+ 6aididDU(de9adrifi",
"eiVVrVYdSCiinivVfy9O  .+7trSDQLAynS5kBidVY1967idVViyyYSp7+inindr",
"iriVnVnnpdpdYVydfa08..o86wtfMQ^~WZ,.oMSnnST~TSdnni97edVi88dvidnY",
"SSu@1VdrdvddVVnrdnnfnmreaafVvpMzydoXo*MndYnZTSSnya++6aVdriVnapSC",
"S2oX&iVttnnfVfdVdrSdmzMSVriinyzyrii@2*MTSibG^DndVe680eSvpnSVrnnV",
"roXo>nSnynSSffpiSipizFMACiaearpnrrayVnSYSardiidyvdpitpVnnvavptin",
"ip@*ydpfdidVdnn44*41zxBNvVyriyir9+ +anirtiraoo$@fnndyinddppMNpdC",
"ddpmVYZnSdiidVY@@@@ryiYdSYZVpvdn+   wVviVSnp@.@4nYSCddVVSVSWLdVS",
"YVirfBKbmTSSpiSu*@o>SVdSStnu@@4>7+ +7ynVSSVndS$@STCfRYdiVdZ~ZtTT",
"STnnzxMcbSZnddSfp,*uSrnnidl@ @$$5yanZSfriSSSdVdVVTRSCSdSydYDSiYS",
"YVdYnypnSSf1%adyySSCdrvSydb$@$$$$2vSESnSifSSiVidiynSVViiiyVYSYVp",
"VTYCndpiry9660yq7iTRV11zrSYVZn4$:jMDYYS~ZnYidViSVidSpyrnidpSdndV",
"iVVYVZf9+6.  O9+ 0nTV*oo@YVnnnSpADQ(iN/(ZVnfdirVdiVnp4zSnnSVVZry",
"pSYSYdSi8+    666yidy@XXX@dr1pRnpZQNnSzTTYSSVffyeaaroX@vdddSSSdd",
"yidnVVnrinyw9na76ebDnS1oX$1VVRTniiZdVRRfnVYYnf88+6++&o@5nVdpSSdi",
"TSdiiV@@yZRSDSSVnZQ^ZZVMpvidySdpYiySRYdydVSSip8+66O7eySSVnddytnT",
"STSrV*XX<fRRRCDSDW^TDRVdViSVVV,,ZiiSvSddindv*p%eew+qrynVdfppmdnS",
"rdnyT5ooyStrYdADQ/DpnppdandiyD4o*TTSSTDYDSdf@@piaaq9deiSSl&&zDYi",
"ntvSTR3kSTYdi1pDDSpRSCVYZSndadS&1fTTSynnYTSd1udpVpfdSnrZ*oX.SRST",
"VddipVMSZSTnVVVZSZfDSnSVDTmiRQRdvafSSdr1dinimSrrnrfVYSdi@..XyYfR",
"fSnytdpiSSVpnddndVnfndYSDLDYdRRYZprSyrtirYnVW!iirSSTdniS,X.*zSnd",
"Yfdrrrpp4*@1YppSYZYaVrinTDDZVfnRSryraSdinSSRTAdrivdTVitV>@@lVfdf",
"nnZyddyr4o@zSdidVvS709ralSZk,2jTSRnpdnddipVVdiVVVTmmZVvnyLUSVSdd",
"dYTinV11yoozSYddr79+e9aVdai*--$xTdrVSewyi1rd,dTdZNMNrupdB(WdfpdS",
"aSTSp4Xo4,,4u@4*m6O6+apmzzSk-$$$zryTi +8idV3xSSdZWGWzpniS^MVifVS",
"riSnr@@@dSnCz.o@niasp@.X.XYVr$2789ir7 +0rni--znRRYDBk5SdnmnYnviS",
"rrirnVYmpdryfu&X@ioX@,o  .XSe+6  7+qa8rw2hkzkSZRDnrypmSZnmVZVSdn",
"drivdiddnVryinZ@*mpoo@XXjGAmfw67669eiip2-$:nnSRTTSndSYSSnVSSVVrf",
"dVdifriYTV@o1dZVSd*ooo6++uz4<riZRTSdfi1:-$3pSdSTYSSSnfdVinZAziyr",
"DVptwwaSZ&oXyiVSRSiit7+OwMB;&rVTSVnid$@$:;1ipnpSSSSRCdawymD/Mpdd",
"nYdi6+7pru14nyrnVSSTVw96+ oo*dnSndti,@XX$lypiSnzpnpvvddedmZDminY",
"VnCr97011mVVdVrinVdbDDDmdrtariddnnprrpuiVnZDSZMbnVnirSYdiar1a<VR",
"YndiVpi@$zSiydiadpiZ(QQDnryp77rySYndfYVfiZWQW5@2ddi78Zndr6+6+iTi",
"rvSrtri,@,dyriddVSYmND~DpiVw++8weiVVrVYdSZvvVyypit+++drtq6O+66dd",
"SSSVSdZnnYSVVZmnVSSVVSDZYyCi6667eriVnVnnpdpdSV,$@o0yrddyri1rtfVn",
"rd1dSSDndYddS/QnivSVnSVdVvVn0aiiVSYrtVirykAdVV,X. $VCZyrnnnVityi",
"ripnSD/LSiiVDDDdYiiyrnSvpnSVaddVSYndiiV1o@MD<7w@oo*4nSmDVriinyra",
"yyrVYS(LDarteriindndrdVnnvapi1pZyyrvinC@Xozi9+6Ooo,yr/QDSpaeardn",
"DVtaiVpttia9+9Vy@4udyinddfy1ipTQNVdVippd@@pnia++@X@abMT(DSyriypT",
"innSSYniVSi9 aS4@.SCddVARSSdndS/Dpp$o@5nlpiipVSpzbZbGQDZDDSVdnpS",
"SdpnnvtdSSdewVC<..VfRYdN/AmSdyDIDVi1@*YdnS2@@,M:$3ymQDdYSpnSnnVp",
"YnfSy+++0riSpk:;oMSSCSdSyZDSViYSSTv,oX@VmYz@@ij-$:VVTpVnidYYiynp",
"pddd9+ + 6dSyj$-4ynSVViiir1rivVpYVdYnymDTDu@o@d;$zSCnrvSypidypVy",
"nrru1q6668ripk$-kidSpirnit9+7wiVVTYCndAQ/W(Dy1npyDTRVyrVidw7Sndd",
"Su@@&ipSddpfd4*35iVnnVSSny7+79wyiVVYVSNBQ/^AdCVfrdnnytarid+ vnYd",
"i@..$SrCYYDYSddndyvSiSvndiqydSupiSYSYdSSmpdidnYSnVie668ira6wapRn",
"i@@@4TTdnV(ULZpVrnVSt9wrdVdpSz@@,ydnVVnrdSYYSDinSiii9++adVrnVRTn",
"SiyZSYdydVDD~WZrnVdd7+67Vnddr@o.RSdiiViifZRSDSRTDnnvdewidnidySdp",
"SdiSvSddyndVADpvfndtw7+0ffvdb*XoXTSrVfirrfRRRCCCSVSnYSndViSVVVdf",
"dRTSSTDYDSdffSmdtdyei0qnSYdiZu$rrfnyTTSnpStrYdiVidrtnppdandiySSd"
};
