/* XPM */
static const char *cave_gravel_2[] = {
/* columns rows colors chars-per-pixel */
"64 64 118 2 ",
"   c #262626",
".  c #2F2727",
"X  c #282B27",
"o  c #2B2C2A",
"O  c #332727",
"+  c #342827",
"@  c #3B2B26",
"#  c #352B2C",
"$  c #3B2D2B",
"%  c #2F302F",
"&  c #3D312E",
"*  c #3A2E30",
"=  c #343434",
"-  c #3D3333",
";  c #3B3B3B",
":  c #413634",
">  c #423836",
",  c #443C3B",
"<  c #493E3C",
"1  c #553835",
"2  c #46403F",
"3  c #4B413F",
"4  c #5D433D",
"5  c #694137",
"6  c #65443B",
"7  c #6A443A",
"8  c #67493F",
"9  c #6B493E",
"0  c #704A3E",
"q  c #444443",
"w  c #4C4442",
"e  c #4E4846",
"r  c #4C4C4C",
"t  c #534642",
"y  c #544A46",
"u  c #584B46",
"i  c #544C49",
"p  c #5A4E49",
"a  c #54514E",
"s  c #5C524D",
"d  c #545353",
"f  c #595655",
"g  c #5B5957",
"h  c #5D5B59",
"j  c #664D44",
"k  c #6B4D42",
"l  c #624F49",
"z  c #714E43",
"x  c #6C5246",
"c  c #62534C",
"v  c #6B554B",
"b  c #6A584F",
"n  c #725044",
"m  c #74574A",
"M  c #7E5749",
"N  c #765B4E",
"B  c #78594A",
"V  c #635651",
"C  c #645B55",
"Z  c #6B5D55",
"A  c #615E5B",
"S  c #685E58",
"D  c #745E52",
"F  c #785D50",
"G  c #6E6056",
"H  c #65625E",
"J  c #69645F",
"K  c #7B6256",
"L  c #71655C",
"P  c #7A665B",
"I  c #74695E",
"U  c #7C6A5E",
"Y  c #6B6761",
"T  c #6E6963",
"R  c #716760",
"E  c #736C64",
"W  c #7B6E63",
"Q  c #777066",
"!  c #797067",
"~  c #7B736A",
"^  c #7D766E",
"/  c #7E786F",
"(  c #7F7971",
")  c #815E4E",
"_  c #816759",
"`  c #826C5D",
"'  c #836D60",
"]  c #827164",
"[  c #82736A",
"{  c #80736C",
"}  c #81766D",
"|  c #81776E",
" . c #81786F",
".. c #807A73",
"X. c #847A73",
"o. c #837C72",
"O. c #837B75",
"+. c #827D77",
"@. c #847D75",
"#. c #827E79",
"$. c #867E78",
"%. c #897F78",
"&. c #84807B",
"*. c #85817D",
"=. c #89817C",
"-. c #858280",
";. c #878581",
":. c #888481",
">. c #888583",
",. c #888684",
"<. c #8C8785",
"1. c #8A8886",
"2. c #8A8989",
"3. c #8D8A89",
"4. c #8E8C8B",
"5. c #8E8D8C",
"6. c #8F908F",
"7. c #90908F",
/* pixels */
"h E ;.;./ A ! ! #.-...E J ~ E Y ! Y E E ..E h #.( d H H $.$...*.! g E +.>.,.>.&.$.-.( J H d g E h A h $.#.^ ^ ( ..^ ! J d E &.d ",
"E d E ..( T g d E H E H E ..d h E d E ! +.( E H H +.! ^ E +.E $.^ E T H Y ! ..^ Y +.-.Q ^ ! ! E ! E Y &...! ..! &.*.H a ] @.*.E ",
"..Y g / A d h H g +.! ! T d H w > t ! *.E Q H ..E ! h E ! +.E T E ( ! h r o = q / #.( Y ! T T ! E ^ ! E ! J +...$.*.I , , L $.( ",
"..h A h d / T H ! ....( ! H E w & > s o.! H g ! A T E ~ ~ E E E +.E E h d r   ; ^ ..h H ( Y Y ..#.....E ;.! J J L I L c > A ! $.",
"&.*.Q Y T ! E J H Y ^ ! E J ~ W C U E E ..! E E A ! &.&.^ ( E T Q E ..A h ; o = ~ E Q +.+.E J E ^ ! #.! ..H g 2 , p Z 3 > w +.;.",
"*.T h ^ *.h d Y H d h T d T *.E E A g y w s s T A E T T T J h = r = ;.H ! ( H A ~ ..| *.+.#.E E Y h H H ( E d t @ & y A E +.! +.",
"#.H H ;.&.! r C 5 9 ~ ........T ! ( I : @ > w H ..~ H ~ H A X     r *.( E ! T E ..3.5.*.^ ! ! / #.E J +.^ E L u t p L ..! E T Y ",
"h ! ..h d q r 6 6 M [ E ..( ! $.$.#.E i , , 3 Y ! J E ( E ; X X o X ! ! H ^ ^ Y ! ,.>.&.@.A T ..! J h Y ! E g E A ! ../ ....( E ",
"d ~ ! q = X ; ; W <.3.$.~ ....,.&.! h Y I c c ..! ! ! ..! ( = q q r H H ! H r q g E h f i S g h h J h E E J H H g H +.( Y A H E ",
"T *.*.d q = ; o d >.>...E #.$.*.*.#.Q T ..+.( +.^ ..$.( Q ! r J ! | *.@.W ; X X r ! g , # - V J E W A d d H E -.2.| E E ! g d A ",
"*.>.*.E E d r q r W { L / E +.>.+.+...( ! E E $.E ! E T h H A A | 3.3.,.~ r 2 t v D f < * # y C , i < r E E $.4.5.1.! E f d H ..",
"/ ~ E H E J ! ..K b d A Y ! Y ..#.#.( $.^ E T E E Q E E A T T E >.3.&.,.O.P 7 7 9 k S H A f E E , , # # H d E X.2.5.@.E E d ! *.",
"Q T h H h ^ E ~ K k c H H ..! ( ! ! Y E E Y ( T ! ! E / ~ H E #.^ -.^ ..&.L m z 6 z V h f ; q H ! w > < +.A A  .,.2...E E E ! ( ",
"! E Y h h ~ ! T ~ I L ^ ..-.*...! ^ ! d q q J r J H Q H Y A ^ *.! ! ^ ~ E ^ d L l D a = X X X A ! ^ E H ..2.3.E E H d d h J E E ",
"..( ! J E +.~ E H Q ^ ~ ..+.&.Q E ! d = O O = = d h ~ ^ ^ *.,.E ( ! T 3.>.*.J H ! ( T = o X = r J Y J T >.2.6.E r ; d Y f H E H ",
"r H ~ ! g ~ #.T ..^ H J ! J E ! E A ; X O + # % = h h +.*.3.2.*.H E ( P ` @.H E ~ ( d ; = = H E ^ ~ H A A O.@.Y ; X H ! H Q Y h ",
"H g H ^ ! ! ! ! J T J E ( ^ A Y E d q ; # # q ; = r h E X.2.5.4.3...c @ - | ..Q ! #.;.4.>.+.E ! Q J q ; r E ~ H ; ; E E H E ! #.",
"#.$.I w a ! J h Y E E T ~ ^ ! g E ! ! E E ~ h r d d E ~ E E @.! A T q $ - p ~ ! E +.E @.;.+...! h d o o = d ~ Y h H ~ ! d J ..^ ",
"+.V > $ e H ^ h g E E E ~ E E ~ E h ..E ~ ! | ( ^ d H H E H W H h H J y C s ~ *...J ~ 1.5.>.! T ~ r = ; q r #.E J E #.^ d E E ^ ",
"d , $ : i ! / ! A ! #.( E E Y J ..H E H W >.=.&.^ H d r d h J ! h h r A ~ ! ( #...d h T H H T A E T Y J h J ! ! ! E d ! E h H ! ",
"H L w p A Y Y E Y H E ^ E ! ! Z Z p Z d W | =.@.E ! A d H A J h ; o   X d ! J d h H f r q 2 u y E ! ! E A H ! T E E E ^ ..J T ^ ",
"E J J ~ ! ..$.! / E H H T ^ +.3 3 < u g H H +.J ( ( ..! E E J E =       q ~ E H ! +.E J w @ 3 C ! ( #.^ Y E ~ ~ ( ^ *.2.2.T ~ #.",
"+.! H h E *.<.| ! *.#...J H @.L p 3 , a ..~ Y / ^ h ! L w t Z a = o   o = A ! ^ +.#.^ Q T ..p w ( *.^ E $.( E H ! E ..4...h *.>.",
"+.-.Q ! ~ X.=.>.~ #...! T T / E L s s L +.h ! E H E W w # 1 4 8 D A d E ..+.E h H +.+.+.E ~ E ~ ~ -.$./ ^ &.E +.A J +.-...H #.#.",
"#.! T ( E H E ! ..#.E g d d J A A / ..^ E h E ..A T { p < 4 6 6 7 b ! ..1...! ..J E +...H ^ H T H A Q ..~ ! J H H A ^ +.&.#.^ Y ",
"~ ;.#.^ E Y J H f A ; = = q A q ; H -.*.~ g f E h ..+.~ ..Q Z 7 M K | ,...+.$.4...Q ( J Y ! H / ^ H J ..J A h Q H T Y ..E E T ! ",
"H ~ ^ #.~ ..E ; o = = O + X ; X X q ! *.~ p < < e #.! ! ! ! +.E &.,.3.5.H O.5.6.@.! ! E E H h ~ T H ! Q L Z W ..! E #.! ! ..h A ",
"Y ..#...( E +.H ; % . O + + = = = A H E A w $ @ & i E d d J *.Q E @.3.@.! #.! >.*.#.../ ^ E E A r d d f , & , E E E T ( ..+.E T ",
"h H E ! ^ ^ ! d H ! A q ; Q r ; = r ~ *.! / f > $ u g ! ! *.;.Q J H ..T ! *.*.E ! ~ #.#.! E ; ; X = o o i - w Z ! ! E Y ..+.E H ",
";...T H H ! y e H ..$.&.&.#...^ ! ..3.5.....^ | L E H T A ( E J ..J A ..$.#.E A J ! / ..H E ; X = = X ; r A ....^ ! T T A h ! *.",
"..-...h ^ s & $ a E *.*.*.^ *.*.1.2.5.>.&.$.! T ^ J #.^ ! ~ s s ..J H &.E / T T H ! E E d R d r r q o q h A E ^ E E L J ~ E Q ..",
"d E Q A *.D > < A ..g h ( T >.,.3.5.,.Y ! Y Y Y d ! E H A &.Z , p *.-.&...-.&.#.&.+.T E < w R H d r q ; Y r J ..( W y y ! &.( H ",
"! g E #.>.,.Z U +.-.( J H d E *.,.*.E $.#.^ ^ ( ../ ! Y d E ..r d E ;.;./ A ! ! #.-...E g R E Y ! Y E E ..E h ..p - $ @ +.$...*.",
"^ E T H Y ! { +...+.-.Q ^ ! ! | @...E &...! ..~ -.1.~ J *.,.*.E E d E ..( T g d E H E H ! +.d h ! g E ! +.( E H 2 @ @ $ H +.E $.",
"E / ! A h E Y J / +.^ Y ! T T ! E ^ ! E ! J +...-.3.,.O.E *.$.( ..Y g / A d h H g +.! ^ 4.5.H H h ( ..*.E Q H ..s $ $ p E +.E T ",
"+.E T h d h Y E G c e g ( Y Y ..+...( d ~ g H ! *.,.,...! E ! $...h A h d / T H ! ....>.;.>.E f J E E *.! H h ! i i u E ~ E E E ",
"! Q ..A J E A g Z , w ! +.E J E ^ E ..= q ; d d W *.@.U c C _ *.&.*.Q Y T ! E J H Y ^ ! E J ^ ~ ~ *.~ ! ..! E E A 2.2.&.^ ( E T ",
"E #.;.H ! ^ f d C , , I +.+.E T h = ; o r ; d ~ T d H c 9 0 7 ] *.T h ^ #.r r A H d h T d T *.E @.@... .h L E T *.5.4.T E J E #.",
"d / -.( E C $ > C c c C J w C p ! = X = X d J ! ! ~ +.` z 5 5 6 U g A *.H X o ; H T ~ B ] ....T +.2.1.1.! E E H +.5.| ~ H E ! #.",
"d H +.! g u w 3 T #.! ^ W @ > 3 ! H d A T w # - # - ..^ g u b ; ; ; H h = X X q d ! H j z W ! $.$.#.*.%.' L ( T ! ~ Q ( E E H ..",
"h g H h ! ^ #.! Y E d A E J e @ w H 2 & 3 i - # # # * / r = = X   = X q d ; h q c ) ` W U  ...,.&.! h G L ! ....! ! ! ..~ ( Y ! ",
"E f H E E H E E ! ! h A H E ^ i s ! J < 2 w - - U 1.*.~ E r = = = = ; r H H J Z 9 5 N ! E #.$.*.*.#.! T ..#.....Q ^ *.@.^ ! f E ",
"T ^ J H E h H +.*.! 3 > g T ..! ..E s - & ; = X = J ! C a d H ..$.*.&.E E J h m 7 7 Z J / E +.>.+.+...( ! E T ~ H ! ..>.! J A h ",
"&.! J h r q r +...y > $ C J ~ ..$...J H h ; o X r X.>.v u d ! *./ ~ E H E f < l B x d H Y ! Y ..#.#.( $.^ E d r A ! *.5.| E T E ",
"! #.E H = X ; J h L g A ! A h Q ~ ..+.-.^ r ; = X o , , p T ! ..Q T h H d w - * p E A Y H ..! W E ! Y E E Y J r J ! @.;.^ H E #.",
"! ! ^ h q ; q g d ! ~ ^ T ! h H ! ^ E ~ ,.*.&.! E f g d h H E E ! E Y h h E L H ^ ! ..,.+. .~ ~ ! ~ ! H h ..+.T H d h d r d ~ *.",
"( ! T H ^ J H e y ~ ..H A T H d J Y J $.5.2.3.&.Q h A Y ; ; h A ..( ! J E +.~ E H | 1.3.3.L 3 V E E H = ; ..! Y d = = = o H *.H ",
"h E ..h h f H V w C Y A f H E E ^ +.+.~ O.,.4.*.J H ~ q o X ; q r H ~ ! g ~ #.T ..( ! !  .A G E Y g o o X T h g q = X X = = E J ",
"....#.^ ( E ..Q ! +./ ^ ~ ..! ! ! #...~ ^ ..&.@.+.A ^ H = = = = r g H ^ ! ! ! ! J T Y E / ^ d y w , q A h J E A g H d d h E ! ! ",
"h T d Y +...&.Q E +.E E &.5.3.! H E #.^ ! ..~ E ^ E ^ ! q d H H ~ &.+.h h ! J h C I >.T ~ ~ C - # # y ! ^ ..A h ! ! ! ! H h A H ",
"h H J Q ..,.5.3...J J ^ ,.1.-.T ( H H A h ! #.E J E #.^ d E E ~ +...! E H H ^ a - < *.,.d = q w - - V C ! *.^ ,.^ d H H E A f d ",
"A A h ~ ( $.6.3.*.d h h r d H H Q E ! E h T ! ! ! E r Y J g E | H H d E H Q ^ w $ - W H ; o = X , > f A h 5.2.1.+.E d r d h Y ! ",
"&.! g d J ! E h h H d ; = q ! H i Z J E A H ! T E E A d H E ,.3...~ J ^ H J J T 3 y J ! H d o o w @ 3 d ~ X.,.6.*.+.A d H A Y -.",
"J Q ! / ( +.Q H ! +.J ; X d ( V 3 @ +.^ Y E ~ &.>.*.*.T ! T @.5.*.J Y u - w L E W T H H T ^ +.L U ~ ( ~ 1.3.*.$.,.&...! E ! Y ..",
"/ E Y ! ! E h T ( +.E r q ~ ~ s @ @ ! E $.( E ..5.>.~ #.J A 1.5.,.! H g w p #.E ! @.V < w f ..B 7 F A ! 3.,.E ( @.Y ! +.! ! ! J ",
"#.! E / A o o o q f H +.E P m v > { #./ ^ &.E +.H ..&.( ~ H #.#.+.-.E V > & u ~ ! +.W t y J K 7 7 N ~ ^ ;.E ! E H E +.( J A ! J ",
"J Y T T ; X X X   = J ..H K 8 x C A Q ..~ ! J H H h d d H E ^ Y #.! T ( E A ! &.*.*.L < - e T c j ! ..^ E h E ..A Y J J A Y ~ A ",
"! d g I V q = = o ; d J J U j n U H J ..J H h Q H h ; o = q H ! ~ ;.#.^ E E &.3.5.3.6.,.C g ! J H &.-.*.~ A h ! H T q = ( ! T T ",
"+.L y 3 i H Y / T T Y E E C c N G H ! Q ! ^ ( ..! A = o ; ; q A H ~ ^ #.~ +.@.*.2.7.5.>.Y ^ ! E h Y ! E A h d h H T o X E ! +.E ",
"H w @ @ u #.g ^ #.#.*...&.E E ! E A E +.H ( E E T H q A E ^ J J J ..#...( E +...^ J E H E ! +...! ! H r = = ; H h d = q d J *.Q ",
"J e 3 w Z *.*.Y ! ~ 5.2.2...Y ! h ! ! +.h ; q h T ! E Y ( W i i f H E ! ^ ^ ! d T ..+.+.#.&.H Q ..H H J ; o o d J ^ h ! ! *.;.Q ",
"+.J A ( #.+.E A J ! *.1.4.2...h E ! E E ; X = ; ~ ! T T h e > @ *...T H H ! H H E ..$.&.&.#.$.-.&.! ! E E r q Y T ! H T A ..E Y ",
"..J H &.E / T T H ! E ~ *.*.E E E E E g r ; X q E E E T ! s $ - $ -...h ^ E H f g E *.*.*.^ ^ ^ &.~ +.E +...E T ^ Y #.^ ! ~ E E ",
"T *.-.&...-.&.#.&.+.T E E +.~ J g T A r J q q ! ..( E H ..I p g d E Q A *.*.+.Q Y ..g h ( T H ! H J h g ! Y T Y d ! E H A &.+.E "
};
