/* XPM */
static const char *coldCaveGravel[] = {
/* columns rows colors chars-per-pixel */
"64 64 110 2 ",
"   c #52463F",
".  c #444444",
"X  c #4C4341",
"o  c #474847",
"O  c #4C4C4C",
"+  c #524742",
"@  c #544A44",
"#  c #554D4B",
"$  c #584F4B",
"%  c #57514E",
"&  c #58524E",
"*  c #545453",
"=  c #5B5553",
"-  c #5E5856",
";  c #5C5B5B",
":  c #6F574D",
">  c #605956",
",  c #635D5B",
"<  c #65605E",
"1  c #6A625E",
"2  c #746055",
"3  c #7E6453",
"4  c #796459",
"5  c #7F6C5D",
"6  c #646363",
"7  c #6A6663",
"8  c #6D6966",
"9  c #6C6C6C",
"0  c #706762",
"q  c #736B66",
"w  c #7C6E65",
"e  c #736E6A",
"r  c #7E7266",
"t  c #75716D",
"y  c #7B736C",
"u  c #747474",
"i  c #7B7773",
"p  c #7C7975",
"a  c #7C7C7B",
"s  c #83634F",
"d  c #836552",
"f  c #856956",
"g  c #896B56",
"h  c #826B5B",
"j  c #896D5A",
"k  c #8A705D",
"l  c #857364",
"z  c #887667",
"x  c #8D7865",
"c  c #83766B",
"v  c #8B7768",
"b  c #82786E",
"n  c #8C7B6C",
"m  c #927964",
"M  c #987861",
"N  c #917E6C",
"B  c #837C75",
"V  c #897F74",
"C  c #817E7B",
"Z  c #90806F",
"A  c #9A8069",
"S  c #8B8176",
"D  c #82817E",
"F  c #8C857C",
"G  c #8D897F",
"H  c #948473",
"J  c #9B8876",
"K  c #90867A",
"L  c #938A7D",
"P  c #9B8D7D",
"I  c #858380",
"U  c #888682",
"Y  c #8C8B84",
"T  c #918E86",
"R  c #939087",
"E  c #999186",
"W  c #979289",
"Q  c #95928A",
"!  c #97938B",
"~  c #97948E",
"^  c #98958B",
"/  c #9D948A",
"(  c #98948C",
")  c #9C978E",
"_  c #9D988F",
"`  c #999690",
"'  c #9A9891",
"]  c #9B9993",
"[  c #9F9B92",
"{  c #9D9A95",
"}  c #9F9D94",
"|  c #9F9E9B",
" . c #A09B94",
".. c #A09D96",
"X. c #A19F9B",
"o. c #A29F9A",
"O. c #A2A09A",
"+. c #A2A19B",
"@. c #A2A19F",
"#. c #A3A29F",
"$. c #A3A2A2",
"%. c #A4A4A2",
"&. c #A5A5A3",
"*. c #A5A5A4",
"=. c #A7A7A7",
"-. c #A8A6A5",
";. c #A9A8A7",
":. c gray67",
">. c gray68",
",. c gray69",
/* pixels */
"p Y *.*.' a Q Q | $.{ T I ( T U Q U Y Y { T p | ' u I I o.o.{ @.Q u T | *.*.*.@.o.%.' I D u u T p a p o.| ` ( ' { ` Q I 9 T @.u ",
"T u Y { ' U u u Y D T D Y { u p Y u Y Q | ' Y D D } Q ` Y | Y o.( Y U a I Q { ` I | $.R ( Q Q T Q Y I @.{ Q { Q @.$.D t E o.$.Y ",
"{ U u ' a u p I u | Q Q U 9 a 6 = 7 E @.Y R I { T Q p T Q | T U Y ' Q p 9 . * 6 ' | ' U Q U U Q T ( Q Y Q I | { o.@.L - - S o.' ",
"{ p a p u ' U I Q { { ' Q a T 6 # = t } Q I p Q a U Y ( ~ Y Y Y | Y U p u 9 . * ( { p D ' U U { | { { T %.Q I S F L G y = C Q o.",
"@.$.R U U Q Y I I I ( Q Y I ( T B L Y T { Q T T a Q @.@.` ' Y U R T { a p * O * ~ Y R | | T I T ` Q | Q { a i ; - q B , = < } *.",
"@.U p ` @.p 9 U D u p U u U @.Y T a u 8 < y y U a Y U U U I p O 9 * %.I Q ' D a ^ [ _ @.| | Y Y U p D D ' Y u 1 + # 8 a Y } Q | ",
"| D a *.@.Q 9 B s f ( { { { { U Q ' G & + = < D { ( D ~ D a . . . 9 @.' Y Q U T { :.>.%.( Q Q ' | T I } ` T G q 7 w S { Q Y U U ",
"p Q { p u ; 7 4 3 M / Y { ' Q o.o.| Y q > - , U Q I T ' T * . . . . Q Q D ` ` I Q *.%.@...a U { Q I p I Q Y u Y a Q { ' { { ' T ",
"u ~ Q 6 O . * ; T ;.:.o.( { { *.@.Q p U G y y { Q Q Q { Q ' * ; 6 9 D D Q D 7 6 u T p u e B u p p I p Y Y I a D u a } ' I a D Y ",
"U @.@.u ; * * O u *.-.[ T | o.@.@.| R U [ o.' | ` { o.' R Q 9 I Q _ @.o.T ; . . 9 Q u - + # y I T T a u u I Y %.:.) T T Q u u a ",
"@.*.@.T Y u 9 6 7 T ( G ' Y | *.| } { ' Q Y T o.Y Q T U p I a a _ :.:.*.Q 7 , 1 z H i , # + q B - 8 ; 9 Y Y +.>.>.:.E T u u I { ",
"' ( T D Y I Q { H c u a U Q U { | | ' o.` Y U Y T R Y Y a U U T *.:.@.*.} L d d f h C D a u Y Y - - + + a u Y  .:.>.o.T Y u Q @.",
"R U p I p ` Y ( H j r D a { Q ' Q Q U T T I ' U Q Q Y ' ~ D T | ( *.' } +.Y x j 3 k i p u ; 6 I Q 1 = ; o.a a [ *.:.[ Y Y Y Q { ",
"Q T U p p ~ Q U ^ L G ` { $.$.{ Q ( Q 9 ; 6 D 7 I D R D I a ` $.Q Q ` ( T ( u F w n 9 O . . . a Q ( Y I { :.>.Y T C u 9 p I Y Y ",
"{ ' Q I Y | ~ Y D R ` ~ { | @.R T Q u O X X * * u p ( ( ( @.*.Y ' Q U >.*.@.I a Q ' U O O . O 9 I I I U *.:.,.T 9 ; u I u D Y D ",
"9 D ~ Q u ( | U { ` I I Q I T Q Y a ; . X X O O * p p o.$.:.:.%.C T ' H P ..I Y ~ ' u ; * * D Y ( ( D a a { ..U * . I Q a R I p ",
"I u D ( Q Q Q Q I U I Y ' ` a I Y u 6 * O O ; * O 7 p Y  .:.>.>.>.{ y @ $ [ { R Q | *.>.*.} Y Q R I ; * 7 T ( a * * Y T I Y Q | ",
"| +.F 6 9 Q I p I T T U ( ` Q u T Q Q Y T ( p 9 9 9 Y ( T T ..Q a U ; @ & q ( R Y | T o.*.| { Q a 9 O . O 9 ~ I p I ~ Q 9 I { ` ",
"} b = @ 7 I ` p u T T Y ~ Y Y ( Y p { Y ( E _ ' ` u a D T D T D p a D 7 b e ( @.{ I Q :.>.*.Q U ~ 9 * * ; 9 | T I T | ( u T T ` ",
"u ; @ & 9 Q ' Q a Q | ' Y Y U I { I Y I E -.@.@.` D u 9 9 p I Q p p 9 C ( Q ' | { u p U a D U a T U U I p I Q Q Q T u E Y p a Q ",
"D G < q a I U Y I D Y ` Y Q Q V V q V u T ) @.o.T Q a u D a I p ; . . . u Q I u p I u 9 , , q 8 Y Q Q Y a D Q U T Y Y ( [ I U ` ",
"T I U ^ Q { o.Q ' Y D D U ( | , < , 0 p a I } I ' ' { Q Y T I T O . . . 6 ( T D Q } T I 6 @ , p Q ' | ` I T ~ ( ' ( @.:.:.U ( | ",
"| Q I p Y @.:.) Q @.| { I I o.S q , - e { ( I ' ` p Q G < 1 V 9 * . . O * a Q ` } | ` R U [ q 7 ' @.` Y o.' Y I Q T [ >.{ p @.*.",
"| %.R Q Q  .@.%.( | { Q U U ' Y G y y F | p Q T I Y T < + : 4 h Z C u T { | Y p I } | } Y ~ Y ( ( %.o.' ` @.T } a I } %.{ D | | ",
"| Q U ' T D Y Q { | Y u u u I a a ' { ` Y p T { a U ( e , 2 d 3 d c E [ :.{ Q { I Y ..{ D ` a U I a R { ( Q I I D a ( | @.| ` U ",
"( *.| ` T I I D u a ; * O ; a 6 * I $.$.( u u T p { | ~ { R V d M H ) *.{ | +.>.[ R ' I I Q a ' ` D I { I a p R D U U { T T U Q ",
"I ~ ( | ( { Y ; O O O X X . ; . . ; Q @.( q ; , 7 | Q Q Q Q | Y +.*.:.>.D } >.,...Q Q Y Y D p ( U I Q R G V T { Q T | Q Q { p a ",
"U { | { ' Y | a * O X X X X * * O a D T a 6 @ @ # 8 Y u u I $.R Y o.:.o.Q | Q *.@.| { ' ( Y Y a 7 9 9 u - # , T Y Y U ' { } T U ",
"a D T Q ` ( Q u D Q C 7 ; R 9 * * 9 ( $.Q ' i = @ 0 p Q Q $.*.R I D { U Q $.$.Y Q ( | | Q Y * * . * O O 8 % 1 V Q Q T U { } Y D ",
"%.{ U D a Q 8 7 D { o.@.@.| { ( Q [ :.>.} { ' ) G Y a U a ' Y I { I a { o.| Y a I Q ' { D Y * . O * . * 9 a [ { ` Q U U a p Q @.",
"{ %.{ p ( e # @ 9 Y $.$.$.` $.@.:.:.>.*.+.+.Q U ( I | ( Q ~ t t [ I D @.T ' U U a Q Y T u U 9 9 9 7 O 6 p a T ( Y Y Y I ^ Y R { ",
"u Y R a @.V = , a { u p ' U *.*.:.>.*.U Q U U I t Q Y a a @.V - e @.$.@.{ %.@.| @.} U Y ; 1 U D 9 9 6 ; I 9 I { ' T 8 8 E @.' a ",
"Q u T | *.*.n L } %.' I D u Y $.*.@.T o.| ` ( ' { ' Q I 9 T [ 9 u Y *.*.' a Q Q | $.{ Y p U T U Q U Y Y { T p [ q % @ + o.o.{ @.",
"( Y U D U Q ( o.{ | $.R ( Q Q _ o.} Y @.{ Q { ~ %.:.^ D $.*.$.Y T u Y { ' U u u Y D T D Q o.u p Q u Y Q | ' Y C , @   @ D | Y o.",
"Y ' Q a p Y U I ' | ( U Q U U Q T ( Q Y Q I | { %.:.*.{ Y $.o.' { U u ' a u p I u | Q ( >.>.a a p ' { @.Y R D { y @ @ q T | T U ",
"| Y U p u p U Y D y 7 i ' U U { | { ' u ~ u D Q @.*.*.[ Q Y Q o.{ p a p u ' U I Q { { *.*.*.T u I T Y @.Q I p Q 9 8 8 T ~ Y Y Y ",
"Q R { a I Y a u B , 1 E | T I Y ( T { * ; ; u 9 T @.o.P y b J @.@.$.R U U Q Y I I U ( Q Y I ( ( ~ @.~ Q { Q T T a :.:.@.` ' T U ",
"Y | *.I Q ( i u p - - L | | Y U p * ; o 9 ; u ~ U u a r h g d E @.U p ( | 7 7 a a u p U u U @.Y o.o.[ [ p G Y U @.>.>.U Y I Y | ",
"u ' $.' Y B @ = B y y B G 7 B q Q O . O . 9 I Q E Q o.P k d d 3 P u a @.D . O * I U ~ m E { } U } :.:.:.E Y T I o.>._ ~ D Y Q | ",
"u I | Q p 0 1 , U | Q ` T @ = , Q D 9 a Y 7 # # # % { ` p 0 b * * ; a p * . . ; u Q I h k E Q o.o.| @.+.P S ' U Q Q R ' T T D { ",
"p u I p Q ( | Q U T u a Y D 7 @ < D , # , e = + X + # ' 9 O O . . * . 6 u = p 6 y A P E L [ { *.@.Q p D G Q { { Q Q Q { ~ ' I Q ",
"T u D T Y I T Y Q Q p a D T ( 8 y Q I ; ; 6 # # L :.@.( Y 7 O * O * ; 7 a a I B h s x Q T | o.@.@.| Q U { | { { R ` @.+.( Q u Y ",
"U ( I a Y p a | @.Q , = i U { Q { T t % # * O . O G E B 9 u I { o.@.@.Y Y I p x d d n I ' Y | *.| } { ' Q Y U ( D Q } %.Q I a p ",
"@.Q I p 7 6 9 | { 8 = @ p I ~ { o.{ I a p * O . 7  .-.c 8 u Q @.' ( T D T t ; w x l u a U Q U { | | ' o.` Y u 7 a Q @.>._ Y U Y ",
"Q | Y I * . * I p G p C E a p R ( { | %.` 7 ; O . . ; > e U Q { R U p I 9 7 # # e T a U D { Q T Y Q U T T I I 9 I Q o.*.( D T | ",
"Q Q ` p ; * ; u u Q ( ` U Q p a Q ` Y ( *.%.+.Q Y u u 9 p D Y Y Q T I p p T G D ( Q [ *.o.[ ^ Q Q ( Q D p { | U D u p u 9 u ( $.",
"' Q U a ` I D 7 8 Q { a a Y a 9 I U I +.>.:.:.@.R p a U * * p a { ' Q I Y | ~ Y D _ ;.:.>.S , i T Y a * * { Q I u O O O O a $.I ",
"p T { p p u I i < i I a u I T T ` | | Q } *.>.%.I I ~ 6 . . * 6 9 D ~ Q u ( | U { ' E E [ C D Y U u o O . U p u 6 O . . * * Y I ",
"{ { | ( ' Y { R Q | ' ( ~ { Q Q Q | { ( ( [ +.o.} a ` I * * O * 9 u D ( Q Q Q Q I U U T ' ( u 7 6 ; ; a p I Y a u I u u p Y Q Q ",
"a U u I } { +.R Y | Y Y @.>.:.Q D T | ` Q { ~ T ` T ( Q 6 u D I ( @.| p p Q I p p L *.U ~ ( p # + + 8 Q ` { a p Q Q Q Q D p a D ",
"p I I R { *.>.:.{ I I ` *.:.%.U ' a D a p Q | T I T | ( u Y Y ( } { Q Y D I ( 9 # , @.*.u * 7 < * * y B Q @.( *.` u a D T a u 9 ",
"a a p ( ' +.,.:.@.u a p 9 u D a R Y Q T p U Q Q Q T 9 U I u Y _ D a u T D R ` 7 @ & T D ; O O . ; = y a a >.:.:...Y u 9 9 p I Q ",
"@.Q u u I Q Y p p I 9 ; O ; Q D 8 V D Y a D Q U T Y a u D Y ;.:.[ ~ I ' I I I U < 7 G Q D u O O 6 @ , 9 Q  .*.,.$.} a u D a U $.",
"I R Q ' ' | R D Q } I ; . 9 ' i , @ | ` I T ~ @.*.@.@.U Q U o.>.%.I U q $ 1 S T T Y a a Y ( } G L ^ ' Q :.:.$.o.*.@.{ Q T Q U { ",
"' Y U Q Q T p U ' | Y 7 7 ( Q t + + Q Y o.' Y [ >.%.^ | I a :.>.*.Q D u 7 q | T Q ..y , < i [ m d N a E :.*.Y ' ..U Q } Q Q Q I ",
"| Q Y ' a o . . ; u a | Y H v l = / | ' ` @.T } a [ +.' ~ a | | | $.T y = # 8 ( Q } E 7 7 D H d d x ~ ` *.Y Q T D Y | ' I a Q I ",
"I I U U ; . . . . O I { C H h l B a R { ( Q I I D p u u D T ( U | Q U ' T a Q +.@.$.S , & 7 U r w E { ` T p T { a U I I a U ~ a ",
"Q u p G i 6 * O O * u D I L 5 k L D I { I D p R D p ; o * 6 D Q ( *.| ` T T @.:.>.>.,.*.p p Q G D @.$.%.( a p Q a U 7 * ' Q U U ",
"} G 7 < 9 I U ' U U U Y Y B r N S I Q R Q ( ' { Q a * O * ; 6 a I ~ ( | ( o.o.%.:.,.>.*.I ` Q Y p I Q T a p u p a U O . T Q | T ",
"I 6   + q | u ` | | %.{ @.Y Y Q Y a T } D ' T T U D 6 a Y ( F U I { | { ' Y o.[ ( I T a Y Q | { Q Q D 9 O O * D p u O 6 u I $.R ",
"I 7 < < V @.@.I Q ( >.:.:.} U Q p Q Q } p ; 6 a U Q T U ' T q 8 u a T Q ` ( Q u U { | | | @.D R { D I I ; O O u I ` p Q Q $.*.R ",
"} I a ' | | Y a I Q %.:.>.:.{ p T Q Y Y * . O * ( Q U U p 7 = + $.[ U D D Q D D Y { o.@.@.| o.%.@.Q Q T Y 9 6 I U Q D U a { Y U ",
"{ I D @.T ' U U a Q Y ( @.@.Y T Y T Y u 7 * . ; Y U T U Q t @ $ @ $.{ p ` Y I u u Y $.$.$.` ` ` @.( | T | { T U ( I | ( Q ( T Y ",
"U $.$.@.{ %.@.| @.} U Y Y } ~ I u U a 9 I ; 6 Q { ' Y D { K q p u Y R a @.@.} R U { u p ' U a Q D I p u Q U U I 9 Q Y a a @.} Y "
};
