/* XPM */
static const char *construction_path_snowy[] = {
/* columns rows colors chars-per-pixel */
"64 64 55 1 ",
"  c #CBAE83",
". c #CBAF85",
"X c #CCB086",
"o c #CDB189",
"O c #CEB38C",
"+ c #CEB48C",
"@ c #D0B58F",
"# c #CFB690",
"$ c #D0B792",
"% c #D2B895",
"& c #D3BB98",
"* c #D4BB98",
"= c #D3BC99",
"- c #D4BD9A",
"; c #D5BF9D",
": c #D6C09F",
"> c #D7C1A0",
", c #D8C2A3",
"< c #D8C3A4",
"1 c #DAC4A7",
"2 c #D9C6A8",
"3 c #DBC8AB",
"4 c #DBC8AC",
"5 c #DCCBAF",
"6 c #DECBB1",
"7 c #DECDB3",
"8 c #DFCEB4",
"9 c #E0CFB5",
"0 c #E1D0B7",
"q c #E1D0B8",
"w c #E2D3BD",
"e c #E3D4BD",
"r c #E4D5BF",
"t c #E3D6C1",
"y c #E5D7C2",
"u c #E7DAC7",
"i c #E7DBC8",
"p c #E8DBC8",
"a c #E8DCCA",
"s c #EADFCE",
"d c #EAE0CF",
"f c #EBE0D1",
"g c #ECE1D3",
"h c #EDE3D5",
"j c #EFE7DA",
"k c #E2E2E2",
"l c #E7E7E7",
"z c gray92",
"x c #EFEFEF",
"c c gray94",
"v c #F3F3F3",
"b c #F4F4F4",
"n c gray96",
"m c gray98",
"M c gray99",
/* pixels */
"ccccncnnzcczzxlxxzxcncnncmnnncnzcczzzzzzxcxcmnnnmmmncccczxxxcxxc",
"xxcccnncccxzczlzzcnmmnnnnmnccxxclxzxczxcccnnmnnnmmmmncczzxlllllc",
"xxzxxccxxxcxczxcnnmmmmmmmncxcxxllzcxcxcccnnnnczcnmmnmmcxzxzlzzxz",
"czxccncnnnnznxnnmmnmmmmncncccxcxzxcncxxxccccnnxcnnmMMmnncxxzzlcn",
"cxcccxcnnnnnnnnmmmmmnnnnnccccxxclccnnccnmnncxccnncnmmmnccxzckzcx",
"zcxxncmmcncxnccmnmmmnncnccxxxxccccccccnnncncxnnnnmnmmmccnccczccx",
"xnccmnMmcxccnnnmmmnnmmnnncccxxcxnxcccxccnxxccnncccnnnnnnccnxcxcx",
"ccnmmMmmmnmnncncmnnmnnmnnncnxcncxnccccccnnccxcnnnnnnnmnxnncxccxc",
"nnmmmnxccmcnnncnnmmcmnnnncncccx#o-2>*1qnnnccccxcccncnncncccxccxn",
"ncnmmmcnncmmnmnnmmnmccmnnnnxcnt,,4q1%2wnnmnnncnnccccnnxmmcmnnnnm",
"mmMmmmmnnmcnnnnnnnnncccnnmnnnna76esi88qnnnnnnnncnnnncnccccmmnMmn",
"mmnmmmmmri07w97nmnnccmnnnnnnnn1--5nm7,:mnnmnnnnnnmnmcmnxnccmMmmn",
"mmnmmnmm11-272;5nmnnnnncnnmmnccnncnmnmmmmmnnnmmnmmnnnccxxcmmmnmm",
"nnmmnnmn11:36217mmccnnmnnnnnncncnnmnmmmmmmnnmmnmmmmncncxcmnmmmnm",
"mmmnmnnm<qqn7542cnnnmnncnmncnnncnnmmmmmmmmnncmmmmmnnccxxcxnnmcnm",
"nmmnmnmmccccnccccnnmnnmmmncccncnnmmnmmmmmmnccnnnnnnncxxcncnxcnmm",
"mnmmmmmmncxxcccxcnnnnmmmnnncnxnmmmmmmmncxnxcxccnnnmnncccnxcnxmnn",
"mnnmmmnnncxncxxxncnnnmmmnnxczzccnnnnnmnncccxxxxcccncnnccnnxcnmnm",
"cmnmnmnncxccxcxxncnnnmmmnccczzzzxcxczccnccnxzxccncncnnnnncccnxnn",
"mnnccnxcxxcxxxxcnnnmmmmnncxxzlxxxcxccccnccnccccnncccncnnccnmnnmn",
"mnxccxxccxxxxxcccnnmnmnnnczxxxxxxxcccnxnnmmmmmnccnnnnnnnnnnncnnc",
"nnncncncccccnxxxxcxncncncccccccccnczxccccmnmnnnnxccncnnmmnnnnnnm",
"mmmnnnnnnccxccxxxxxxzxxxzxxczccxxcxcccnxnmncxnnnnnnnnnnmnmmmmmmm",
"mmmmcnnnccxcccxzcccnccccxzxcncncxxcnnnnnmncnnmmnnnncmnnnmmnmmmmM",
"mmnnncccccxxxxxxccccccnncxxcnccmnnnnmnmnmncc<08yfs6cnncmmmmnmmnm",
"mnnccnccxzcxxxxxcxxxxxxncxccxnmmmnmmmmmnmncx-154wq;cncccncnmmmmm",
"mnnncccccccxxxcxxzxxxxxxccccnmmmmMmmmmmmnnxn +<>%-:ncccccnnmmmmm",
"cccccccccccxxccxxxxxcxxlxccncmmMMmmmmmmnnncnnnnnnnccczcxncncnnnn",
"cccxccnncncccncxxxcxxccccnnmnmmmMmmmmmmcnncxxxxccnxxxxnzccccnccc",
"xccccnxnccnncncxcnccxxncnnmnnmnnmmmnmmmnnnxccllxzcxxxzzzxcccncxx",
"xnnnnnnnnnnmxcmnmmncccnccnncnnnnnnmmmmxcncccllzlxkxzzxzxzcncnccz",
"cnnxzcnxccnnnnmnmMmnnnczxnxzzzxcccnnnmnnncccxcclzxzxcxxxxxnnnnnc",
"cczzzzzzxcxcmnnnmmmiw<16zxxxcxxcccccncnnzcczzxlxxzxcncnncmnnncnz",
"lxzxczxcccnnmnnn555yhfy4<8llzzlcxxcccnncccxzczlzzcnmmnnnnmnccxxc",
"lzcxcxcccnnnnczc42>,8u817edlzzxzxxzxxccxxxcxczxcnnmmmmmmmncxcxxl",
"zxcncxxxccccnnxc6$.%&>%$<57zxlcnczxccncnnnnznxnnmmnmmmmncncccxcx",
"lccnnccnmnncxccn5X+nnnno%=&ckzcxcxcccxcnnnnnnnnmmmmmnnnnnccccxxc",
"cccxccnnncncxnnnnmnmmmccnccczccxzcxxncmmcncxnccmmmmmnnnnccxxxxcc",
"nxcccxccnxxccnncccnnnnnnxcnxcxcxxnccmnMmcxccnnnmmmnnmmnnncccxxcx",
"xnccccccnnccxcnnnnnnnmnxnncxccxcccnmmMmmmnmnncncmnnmnnmnnncnxcnc",
"xzzcnmcnnnccccxcccncnncncccxccxnnnmmmnxccmcnnncnnmmcmnnnncncccxc",
"xcnnnccnnmnnncnnccccnnxmmcmnnnnmncnmmmcnnnmmnmnnmmnmccmnnnnxcnnx",
"mncnmnmnnnnnnnncnnnncnccccmmnMmnmmMmmm&:1;-<-$nnnnnncccnnmnnnnzc",
"ncnmmmmmnnmnnnnmnmnmnmnxnccmmmmnmmnmmm>6>1258qcnmnnccnnnnnnnnncn",
"ncnmnmmmmmnnnmmnmmnnnccxxcmmmnmmmmnmmn@7-;9tdjmnnmnnnnnccnmmnccn",
"nnmnmmmmmmnnmmnmmnmncncxcmnmmmnmnnmmnnX=$nnnnmnmmmccnnmnnnnnncnc",
"nnmmmmmmmmnncmmmmmnnccxxcxnnmcnmmmmnmnnmmnnnccnncnnnmnncnmncnnnc",
"nmmnmmmmmmnccnnnnnnncxxcncnxcnmmnmmnmnmmccccnccccnnmnnmnmncccncn",
"mmmmmmncxnxcxccnnnmnncccnxcnxmnnmnmmmmmmncxxcccxcnnnnmmmnnncnxnm",
"nnnnnmnncccxxxxcccncnmccnnxcnmnmmnnmmmnnncxncxxxncnnnmmmnnxczzcc",
"xcxczccnccnxzxccncncnnnnncccnxnncmnmnmnncxccxcxxncnnnmmmnccczzzz",
"xcxccccnccnccccnncccncnnccnmnnmnmnnccnxcxxcxxxccnnnmmmmnncxxzlxx",
"xxcccnxnnmmmmmnccnnnnnnnnnnncnncmnxccxxccxxxxxcccnnmnmnnnczxxxxx",
"cncz17>>5-nmnnnnxccncnnmmnnnnnnmnnncncccccccnxx<2q<5ufgncccccccc",
"xcxc5r%o2811xnnnnnnnnnnmnmmmmmmmmmmnnnnnnccxccx6;-18e951:xxczccx",
"xxcn2s3$9ghjnmmnnnncmnnnmmnmmmmMmmmmcnnnccxcccxy;.$1;Xo&1zxcncnc",
"nnnn9sq;8yijnnnnmnncnncmm59yqyw97mnnncccccxxxxxi7+ccc+-9yxxcnccn",
"mnmmmmmnmncxnccnnnncnccc88piq2>q72nccncccxcxxxxxcxxxxxxncxccxnmm",
"mMmmmmmmnnxnncnnnnnnccc2%17>%+O117nncccccccxxxcxxzxxxxxxccccnmmm",
"Mmmmmmmnnncnnnnnnnccczc3O;1:nn%#:qcccccccccxxccxxxxxcxxlxccncmmM",
"Mmmmmmmcnncxxxxccnxxxxnq>3qcnccccccxxcnncncccncxxxcxxccccnnmnmmm",
"mmmnmmmnnnxccllxzcxxxzzzxcccncxxxcccccxnccnncncxcnccxxncnnmnnmnn",
"nnmmmmxcncccllzlxkxzzxzxzcncncczxnnnnnnnnnnmxcmnmmncccncnnmcnnnn",
"ccnnnmnnncccxcclzxzxcxxxxxnnnnnccnnxzccxccnnnnmnmMmnnnczxnxzzzxc"
};
