/* XPM */
static const char *construction_path[] = {
/* columns rows colors chars-per-pixel */
"64 64 2 1 ",
"  c #A68046",
". c #CBAE83",
/* pixels */
"                                                                ",
"                                                                ",
"                                                                ",
"                                                                ",
"                                                                ",
"                                                                ",
"                                                                ",
"                                                                ",
"                               ........                         ",
"                              .........                         ",
"                              .........                         ",
"        .......               ....  ...                         ",
"        ........                                                ",
"        ........                                                ",
"        ... ....                                                ",
"                                                                ",
"                                                                ",
"                                                                ",
"                                                                ",
"                                                                ",
"                                                                ",
"                                                                ",
"                                                                ",
"                                                                ",
"                                            .......             ",
"                                            .......             ",
"                                            .......             ",
"                                                                ",
"                                                                ",
"                                                                ",
"                                                                ",
"                                                                ",
"                   .....                                        ",
"                ..........                                      ",
"                ...........                                     ",
"                ...........                                     ",
"                ...    ....                                     ",
"                                                                ",
"                                                                ",
"                                                                ",
"                                                                ",
"                                                                ",
"                                      ........                  ",
"                                      ........                  ",
"                                      ........                  ",
"                                      ...                       ",
"                                                                ",
"                                                                ",
"                                                                ",
"                                                                ",
"                                                                ",
"                                                                ",
"                                                                ",
"    ......                                     ........         ",
"    ........                                   ..........       ",
"    ........                                   ..........       ",
"    ........             ........              ...   ....       ",
"                        ..........                              ",
"                       ...........                              ",
"                       .....  ....                              ",
"                       ....                                     ",
"                                                                ",
"                                                                ",
"                                                                "
};
