/* XPM */
static const char *coral_black[] = {
/* columns rows colors chars-per-pixel */
"64 64 63 1 ",
"  c #010000",
". c #0B0004",
"X c #120006",
"o c #160008",
"O c #1C000A",
"+ c #24000E",
"@ c #29000F",
"# c #270010",
"$ c #2C0011",
"% c #340014",
"& c #3A0016",
"* c #3E0018",
"= c #3E052D",
"- c #3C0732",
"; c #3B0836",
": c #370B3F",
"> c #390A3B",
", c #420017",
"< c #43001A",
"1 c #4B001D",
"2 c #50001F",
"3 c #420223",
"4 c #400429",
"5 c #540020",
"6 c #2F0F4D",
"7 c #360C40",
"8 c #360C41",
"9 c #330E48",
"0 c #320F4B",
"q c #300F4D",
"w c #2F104F",
"e c #30104F",
"r c #2F1253",
"t c #2E1254",
"y c #2D1458",
"u c #2C1459",
"i c #2C145A",
"p c #2C155B",
"a c #2B155D",
"s c #301150",
"d c #1F1D77",
"f c #1F1F7B",
"g c #1D1F7C",
"h c #271764",
"j c #281763",
"k c #271866",
"l c #281864",
"z c #241768",
"x c #261968",
"c c #221B6F",
"v c #241B6E",
"b c #231C71",
"n c #201C73",
"m c #211D74",
"M c #201E78",
"N c #1E207C",
"B c #1C207F",
"V c #1C2180",
"C c #1B2385",
"Z c #EBE48F",
"A c #EFEA92",
"S c #F2EE93",
"D c #F4F095",
/* pixels */
"CCCCCCCCCCCCCCCCCCCCCCCCCVfVVCCCCCCCCCCCCCCCCCCCCCCCCCCVCCCCCCCC",
"CCVfCCCVCCCCCCCCVfVVVCVCV:4svOCCCCfdfNCCCCVCCCVVfVVCCCNvVCCCCCCC",
"CV0&&CVpMVVCNCCV84@kkVpmNt;3X@&C*%313-NCVNnVCNx:4xcVCV>4fCCCVCCC",
"CV$&&&Vt3>tN-fCV0X$&3m:3e&NcX@<1*%@=;nNVn88fg8@->f-tVm3=N$VNpVCC",
"CCN%&<1<&&:d38fg-@*<wVf-&&$No%<<&%hfm=-fVv>-0$%$Nf4>Ns1t%$$;tVCC",
"CCCV%<221<<*%+.ac&<<fCVt&&%8%&<&%0VCVk3:VN-8%&&+Vm30g:=%$$@mVCCC",
"CCCCV*111<<1<&@O$*<*VCf0<<&&*<&@8=&CVx-tVCM-&&%VVt@rNr%%$#sVNCCC",
"CCCCM;111<&*<&&&*<<=vN-3<<**<*@-r%*&N-O+VCVp&&@OO@$$t;&$$eNN;NCC",
"CCCm=*11*=:$&&C&**&=fCN&&**&&@--;**%NO#$OCCV%&$%%$$&8&&$ffVv>NCC",
"CCf3&**&+x8@&*CC&*&x&&&@O@&%8rfn;<&$O#$@NVVVV&*&%$$-&&&$:;O+-NCC",
"CVp&&&@oVVV$*<<&&*&%@@O. .++X8f::<*$@$@qztt:@&&&NVpe&*&3=@@$$CCC",
"CCVm%+VCVCC$<<<&*&%O. DDDDD  X0<11&$$+=; 4>-O%&>NCVV*<&$&%&&CVCC",
"CCf30NCVtNC$<1<&&%@.DDD  DDD.O%<11%0O>3     X@%&&&%&11<&&&&CNnVC",
"CCN=fC&l3>NV<1<%$%@DDDD  DDDA+&111&;3=3  DDD.+%*<1<111<&&cfN-8VC",
"CCCNC&1*=xVN<11*%&%DDDD  DDDD+&111&%=:  D DDD$&<151111eNf-=k-tVC",
"CCCCC*11$nV.%111<<*$DDD  DDDo@&<1<&&&@.DD DDD&&*111<8afVr===-tVC",
"CCVVCC11&-m O&11111*%$DDDDDo%<1**&%&&%ODD DD&&%@%&*<*-:&&&$O3MCC",
"CVt8VC11<1. .@*<11<&$$$$@OO%1551&@@&**&@DDD$%%O..O&<*&&&%@o  VCC",
"CN->NC<11&@X.;@*<1<@O@$$$$&<1551<$O$&<<&%@@$$ODDD.@*<1<%$o  3tVC",
"Cf4rVC*11<&%+0+&<1*+DDDO$&<<<<111&+@%*<<*&$@oDD DDO*151%8fnfptVC",
"Vv-tVC$<1<<<&$&<1<&DD DDO&<<%$*11*>e+&<1<&$ODDD DDO*551+ CVN>:VC",
"Vv>:oCC%&*<<*&<<<&%DD DDO&<&Oo$<1<-fC@&<<*%ODDD DD@<12*oCC+$=0VC",
"Vc:%@.VCV8t8<*<<*%@DD D.$*<%n4@&<<&NCC@*1<%oDDD D$&121$CCO$&$tVC",
"Vc>*&+tfVcpN1<11&$OXDD O%**@>kc%<<<;fVO&1<$o.DDS@$&13vVCo$&%fVCC",
"Vn:<*%+=fVVVt111<%+.   +&&$XkVVV&<<--tO&<*+OoXO+@%*13dCC@%&cVCCC",
"CN8>&%$$%*<<<1111<&X  .@&&O;kVp0%&&%O.+&<&OOOO$%%&&<>NVV%&&VCCCC",
"CCf-$%&&*<<<<<1111<@oXC$%$o8vVm3;%&$+O$*<%OOO+ed&&&&@Opt&&%@ONVC",
"CCVx8$*<<<<1<*&&<<<&$+N%%@XrtfCn30&&%%&<<&$OXOn-&&%O X@&<*$@@+cV",
"CCCVVm&&&%&<*%$C&*<&$$;%%$o4>4N.X-%&&*<1<*&$OO3=&&@> .@*<&$@+eVC",
"CCCCn;@$@VCC&$$C<<*r$%&&&@+@+@++O@%&*1111<<&$+$&<<&vVN$*<&$38NCC",
"CCCn33OOXrVC%$$C<<&>%&<*&$$$%%$$$%&&<1121<*&&@@&<<eNx:&<*$31-NCC",
"CCN=4XOo.-N*%$CC**&@$&**&$#$%%$$%&&*<111<**&%+@%&>3p-=&&&O>>xVCC",
"CCf3pfOX=>V*&%CC&&$O++@&&%$$$$$$$$%&*<**&&$#+..OO$%&&&%$@O3mCCCC",
"CCN-Nm3a0-&*<CC&&&+OCVo+$$+CC+@@$$$%&&&*&$OX.   .O@%&&%+Oo NCCCC",
"CCCNV>3m>>&,<C&&&&mCCN-OOO.CfsO$$$+@$%&&&+. DDDDD.O@$$%cOO.8VCCC",
"CCCCN>;f=-%<<<**&-:nVVm->OOX=X$&&$OOt>%&%+ DDD DDDo+$$8:$+o;NCCC",
"CCCCV8-m4pV%*<<&$:-3e8gd>+@+O+&*&+XNt-t%$+ DD  DDDDO$$e$$+XcVVVC",
"CCCCCVgk3xVC%<<*@r33  tp-%&$$&**&oCCV&&%$ODDD  DDDD#%$$$$O48rtpV",
"CCCCCCN-3MCCC*<*$0-    X%<<&%&<&$CCC%&%$@ODDD  DDDD$$$%&$Vtx--vV",
"CCCCCCV8kVCCCC*<%O1    +*<<&$$$%&%$$%&$$OXDDD  DDDD$$$&&%CVN:3vV",
"CCCCCCCVVCCCCCC&%o  DDD$<<&@Ooo$&&&&&%#Oo.DDD  DDDO$@@&*&CCCm3MC",
"CCCCCCCVVCCCCC&&#. DD DD*&+. DXO$%&**&$OX  DD DDD.@$@O&<*$CVd3xV",
"CCCVVCV8rgNNN$&&+  DD DD&&O D DOO=3M<*%OOOo.DDDD.O%%$@<<*&$@O3dC",
"CCVptVN-3=--%&&%O  DD D$&%ODD DD..3rV*&$@$+o.  XO$&&&*11<&$$+OVC",
"CCVt4MCNm033&<<CC   DDO%&$ODD DD  X=kg&%+@OOOXXO+%&*&*11<&%$O;NC",
"CCNx4:VCCNs3&<<&CC.XXo@%&$ODD D   .==03=3OooOoO@$&<*%&**<%;=efCC",
"CN-M--fCCCVj3&*&@OOOOO+$%$O.DD    3-1=>0-=..oO$&<11*$@@%&%$-fCCC",
"Cf3ke30NVCCN:>&&&$OOoXo@&&$.     3nr3;kde33.O$&<111&@@$$$%%tVCCC",
"Cf4;03$0vVCVt4;&*$oXDD.+&*&o   33cNe===>t>=>@&<111*$@$$$+@&xVCCC",
"CVs30O@$$VCCVm;1p@.D DD+&**$Oo43att63r;-nfgk%<11<&$@@n0:XO%tVCCC",
"CCf-4.O@$$$CVNd-$ODD DDO%&*&$$@@@++83rr33>Nv&<11&@$$$VVNO+&&vVCC",
"CCV:33 o+$$$8>t<%oDD DDO@%&&%@@$$$$$$+Vx83xO$<1*$@$$>NCC$@&&0VCC",
"CCVm-313.O@$*<11&. DSZ.OO@$$$OoOO+@$%&&&$=Oo+*11&@@@-N%%$+$%$VCC",
"CVv;33>ee-o$<11<&O     .3O+@O. CCC@%*111*$+X>&11<&$@+@$%$OO@@+CC",
"CV8-nNNVf-=%<<*&&$O 8:tmfVf=13r+%&&&<111*%$>e&111*&%$$%$@C.oOOoC",
"CCVNCCCCN;$*<<a>&&&NVNVVVCCd>3&*<<<&&&*&$$@$3&111<<%$%%@CCC.oOOC",
"CCCCCCCVx&&**133&&&VVVNppVCVm<<<*&%$OOtr-++$&****1<&$$@O.CCCCoCC",
"CCCVVVVN<<&$1r0M$&&&%888NCf8;<*&$@O>tNN>==-$&*&@$*<*&%@OCCCCCCCC",
"CCNvv&*<<&@04fVCC$&&&&vvNn:00>@O33eavVN-0=3%&&$X:$*<<*$CCCCCCCCC",
"CV8-&&&&%Om30VCCVn$&&=rr;13-->wt=>:88VVfn=%*&&Oxcv@&*<&$CCCCCCCC",
"CVvt&&&+.NN=fCCCCN>%13;==33mNNs13:vNVVv04%**&$fVVVCC%&&&$CCCCCCC",
"CCVN8$4eNCCNCCCCCCVv==rrr>kVCVprfNVCCN>3=m&&pNCCCCCCC$%&%$CCCCCC",
"CCCCVNNVCCCCCCCCCCCCfNVVVNVCCCVVCCCCCCNfNCCCVCCCCCCCCC+$$CCCCCCC",
"CCCCCCCCCCCCCCCCCCCCCCCCCCCCCCCCCCCCCCCCCCCCCCCCCCCCCCCCCCCCCCCC"
};
