/* XPM */
static const char *coral_black_weakened[] = {
/* columns rows colors chars-per-pixel */
"64 64 91 1 ",
"  c #020000",
". c #0C0004",
"X c #130005",
"o c #1B0004",
"O c #160008",
"+ c #1C000A",
"@ c #170909",
"# c #1B0E0C",
"$ c #240003",
"% c #2D0004",
"& c #24000D",
"* c #29000F",
"= c #310004",
"- c #270010",
"; c #2C0011",
": c #340014",
"> c #3A0016",
", c #3E0018",
"< c #3E052D",
"1 c #3C0732",
"2 c #3B0836",
"3 c #370B3E",
"4 c #390A3B",
"5 c #420017",
"6 c #43001A",
"7 c #4B001D",
"8 c #50001F",
"9 c #430122",
"0 c #440120",
"q c #420325",
"w c #400428",
"e c #530020",
"r c #2F0F4D",
"t c #360C40",
"y c #360C41",
"u c #300D47",
"i c #330E48",
"p c #320F4B",
"a c #300F4D",
"s c #2F104F",
"d c #30104F",
"f c #2E1152",
"g c #2E1254",
"h c #2C1357",
"j c #2C145A",
"k c #2C155B",
"l c #2B155D",
"z c #301150",
"x c #1F1D77",
"c c #1F1F7B",
"v c #1D1F7C",
"b c #271764",
"n c #281763",
"m c #271866",
"M c #281864",
"N c #241768",
"B c #261968",
"V c #231B6F",
"C c #241B6E",
"Z c #231C71",
"A c #201C73",
"S c #211D74",
"D c #201E78",
"F c #1E207C",
"G c #DA0B22",
"H c #DC1226",
"J c #DC1628",
"K c #DC1A2A",
"L c #DD222D",
"P c #DD2630",
"I c #DF2C33",
"U c #DF3336",
"Y c #E03B3A",
"T c #E1423E",
"R c #E24D43",
"E c #E25246",
"W c #E35A4A",
"Q c #E4634E",
"! c #E56C52",
"~ c #E57155",
"^ c #E77C5B",
"/ c #E8835F",
"( c #E88A62",
") c #EA9467",
"_ c #EB9E6C",
"` c #ECAD73",
"' c #EEBD7B",
"] c #1C2180",
"[ c #1B2385",
"{ c #F1DC8B",
"} c #F4F095",
/* pixels */
"[[[[[[[[[[[[[[[[[[[[[[[[[]c]][[[[[[[[[[[[[[[[[[[[[[[[[[][[[[[[[[",
"[[]c[[[][[[[[[[[]c]]][][]3wzC+[[[[cxcF[[[[][[[]]c]][[[FC][[[[[[[",
"[]p>>[]kD]][F[[]yw*mm]kSFg29X*>[,:q791F[]FA][FB3wBV][]4wc[[[][[[",
"[];>>>]g94gF1c[]pX;>9S39d>FVX*67,:*<2AF]Ayycvy*14c1g]S0<F;]Fk][[",
"[[F:>676>>3xqycv1*,6s]c1>>;FO:66>:bcS<1c]C41p;:;Fcw4Fz7g:;;2g][[",
"[[[]:688766,:&.lV>66c[]g>>:y:>,>:p][]mq3]F1y:>>&]S9pv3<:;;*S][[[",
"[[[[],7776676>*+;,6,][cp66>>,6>*y<>[]B1g][D1>>:]]g*fFf::;-z]F[[[",
"[[[[D27776>,6>>>,66<CF1q66,,6,*1f:,>F1+&][]k>>*++*;;g2>;;dFF2F[[",
"[[[S<,77,<3;>>[>,,><c[F>>,,>>*112,,:F+-;+[[]:>;::;;>y>>;cc]C4F[[",
"[[cq>,,>&By*>,[[>,>B>>>*+*:;3fcA26>;+-;*F]]]]>>>:;;1>>>;32+&1F[[",
"[]k>>>*O]]];,66>>,>;*+O...OO.3c336,;*;*aNgg3*>>>F]kd>,>9<**;;[[[",
"[[]S:&][][[;666>,>;+Xo$$o$o...u677>;;&<2 w41+:>4F[]],6>;>:>>[][[",
"[[cqpF[]gF[;676>>;XX%$%%%=%o..*677:p+49     X*:>>>:>776>>>>[FA][",
"[[F<c[>M94F]676:;*Xo%%%%%%%$X.;777>2q<q  }!P.&:,6767776>>VvF1y][",
"[[[F[>7,<B]F677,:>&o%%%%%==$..:777>:<3  Y K(};>67e7777dFc1<m1g][",
"[[[[[,77;A].:77766,+oo$%%$$X.+>676>>>*.}U H_}>>,7776ylc]f<<11g][",
"[[]][[77>1S +>77777,&..XOX@.&676,>:>>:+'G KU>>;*;>,6,13>>>;+qD[[",
"[]gy][7767. .*,6776>;*+++OX*7ee7>**>,,>*U}^;:;XXXO:6,>>>:*O  ][[",
"[F14F[677>*X.2*,676*+*;;;;:67ee76;+;>66>:**;*.o$%X+,676:;O  qg][",
"[cwf][,776>:&u&>67,&~{K+;>6666777>&*:,66,>;&Xo%%%oO>7e7:ycAckg][",
"]C1g][;67666>;>676>QY ~{+>66:;,77,4d&>676>;Xo%%%%oO>ee7& []F43][",
"]C43O[[:>,66,>666>:}L U}+>6>+O;6761c[*>66,:X$%%%o@+678,O[[&;<p][",
"]V3:*.][]ygy6,66,:*}T J.;,6:Aw*>66>F[[*,76:O%%%$.X;787;[[+;>;g][",
"]V4,>&gc]VkF7677>;+XW} +:,,*4mV:6662c]+>76;o$%o.O*>7qC][O;>:c][[",
"]Ay6,:&<c]]]g7776:&.   &>>;Xm]]]>6611g+>6,&ooOX+&:,79x[[*:>V][[[",
"[Fy4>:;;:,66677776>X  .*>>+2m]kp:>>:+.&>6>++++;::>>64F]]:>>][[[[",
"[[c1;:>>,6666677776*OX[::;OyC]S92:>;&+;,6:+++&dx>>>>*+kg>>:*+F][",
"[[]By;,666676,>>666>;&F::*Xfgc[Aqu>>::>66>;+X+A1>>:+ X*>6,;**&V]",
"[[[]]S>>>:>6,:;[>,6>;;2;:;O<4wF.X1:>>,676,>;++q<>>*4 .*,6>;*&d][",
"[[[[A2*;*][[>;;[66,f;:>>>*&&&*&&+*:>,777766>;&;>66>C]F;,6>;9yF[[",
"[[[A99++Xf][:;;[66>4:>66>;;;::;;;:>>677876,>>**>66dFB3>6,;971F[[",
"[[F<wX+O.1F,:;[[,,>*;>,,>;-;::;;:>>,67776,,>:&*:>4qg1<>>>+44B][[",
"[[c9kc+X<4],>:[[>>;+&&*>>:;;;;;;;;:>,6,,>>;-&..++;:>>>:;*+qS[[[[",
"[[F1FSqlp1:,6[[>>>&+[]O&;;&[[&**;;;:>>>,>;+X.   .+*:>>:&+O F[[[[",
"[[[F]4qS44:56[>>>>S[[F1+++.[cz+;;;&*;:>>>&. U!}}T.+*;;:V++.y][[[",
"[[[[F42c<1:666,,>13A]]S14++X<X;>>;++g4:>:& `IR /U{O&;;y3;+O2F[[[",
"[[[[]y1Swk]:,66>;319dycx4&*&+&>,>&XFg1g:;& '!  Y_}}+;;d;;&XV]]][",
"[[[[[]vmqB][:66,*f99  dg1:>;;>,,>O[[]>>:;+U({  /W^~-:;;;;+wyfgk]",
"[[[[[[F19D[[[,6,;u1 .XXO;66>:>6>;[[[:>:;*+LHP  ~RL!;;;:>;]gB11C]",
"[[[[[[]ym][[[[,6:+6X$$$O>66>;;;:>:;;:>;;+X}~K  KE(';;;>>:[]F3qC]",
"[[[[[[[]][[[[[[>:oo$%%%O>6>*+XO;>>>>>:-+O.}_!  ~W_+;**>,>[[[S9D[",
"[[[[[[[]][[[[[>>*O$%%%$X;>&.Xooo*:>,,>;+X  }( )!^.*;*+>6,;[]x9B]",
"[[[]][]yfvFFF;>>&o%%%$X#:>+o%%%$O<qD6,:+++O._'''.+::;*66,>;*+9x[",
"[[]kg]F19<11:>>:+o$%$oX+:;o%%%%%$.qf],>;*;&O.  X+;>>>,776>;;&+][",
"[[]gwD[FSp99>66[[.XoOOX;:&O%%=%%o.X<mv>:&*+++XX+&:>,>,776>:;+2F[",
"[[FBw3][[Fzq>66>[[...X*::&X%%%%%X..<<pq<9+OO+O+*;>6,:>,,6:2<dc[[",
"[F1D11c[[[]n9>,>*+OOoo&;:;+$%%%$X q17<4p1<..O+;>677,;**:>:;1c[[[",
"[cqmd9pF][[F34>>>;+o$%o*>>*.XooX qVf92mxd99.+;>6777>**;;;::g][[[",
"[cw2p9;pC][]gw2>,*O$%%$&>,>O  .69VFd<<<4g4<4*>6777,;*;;;&*>B][[[",
"[]zqp+*;;][[]S27g+o%%%$o>,,;+Owqlggr9f21Acvm:6776>;**Au3X+:g][[[",
"[[c1w.+*;;;[]Fx1;o%%%%$o:>,>;;***&&yqff9q4FC>677>*;;;]]F+&>>C][[",
"[[]3qq O&;;;y4g6:o%==%oO*:>>:**;*;;;;&]By9B+;67,;*;;4F[[;*>>p][[",
"[[]S1979.+*;,677>o$%%o.O+*;;;+O++&*;:>>>;<+O&,77>***1F::;&;:;][[",
"[]C29q4dd1O;,776>+XX.  .q+&*+. [[[*:,777,;&X4>776>;*&*;:;++**&[[",
"[]y1AFF]c1<:66,>>;+ y3gSc]c<79f&:>>>6777,:;4d>777,>:;;:;*[.O++O[",
"[[]F[[[[F2;,66l4>>>F]F]]][[x49>,666>>>,>;;*;q>77766:;::*[[[.O++[",
"[[[[[[[]B>>,,70q>>>]]]Fkk][]S666,>:;++gf1&&;>,,,,76>;;*+.[[[[O[[",
"[[[]]]]F66>;7fpD;>>>:yyyF[cy26,>;*+4gFF4<<1;>,>*;,6,>:*+[[[[[[[[",
"[[FCC>,66>*pwc][[;>>>>CCFA3pp4*+q9dlC]F1p<9:>>;X3;,66,;[[[[[[[[[",
"[]y1>>>>:+Sqp][[]A;>><ff27q114sg<43yy]]cA<:,>>+BVC*>,6>;[[[[[[[[",
"[]Cg>>>&.FF<c[[[[F4:7q2<<0qSFFz7q3CF]]Cpw:,,>;c]]][[:>>>;[[[[[[[",
"[[]Fy;wdF[[F[[[[[[]C<<fff4m][]kfcF][[F4q<S>>kF[[[[[[[;:>:;[[[[[[",
"[[[[]FF][[[[[[[[[[[[cF]]]F][[[]][[[[[[FcF[[[][[[[[[[[[&;;[[[[[[[",
"[[[[[[[[[[[[[[[[[[[[[[[[[[[[[[[[[[[[[[[[[[[[[[[[[[[[[[[[[[[[[[[["
};
