/* XPM */
static const char *coral_blue[] = {
/* columns rows colors chars-per-pixel */
"64 64 239 2 ",
"   c #0E165C",
".  c #11195E",
"X  c #111964",
"o  c #141C6B",
"O  c #161E74",
"+  c #171F7A",
"@  c #181F7A",
"#  c #0F2160",
"$  c #132669",
"%  c #13226C",
"&  c #152374",
"*  c #142B74",
"=  c #16247C",
"-  c #19217D",
";  c #162A7B",
":  c #133274",
">  c #14337A",
",  c #133A7B",
"<  c #21297B",
"1  c #27307D",
"2  c #10477F",
"3  c #162582",
"4  c #1B2384",
"5  c #162C83",
"6  c #1A2C84",
"7  c #1A278A",
"8  c #162B8E",
"9  c #1B2B8C",
"0  c #163384",
"q  c #183687",
"w  c #153C85",
"e  c #17338C",
"r  c #1A338B",
"t  c #1A3B8C",
"y  c #1C2C93",
"u  c #1B2E99",
"i  c #163695",
"p  c #1B3394",
"a  c #1B3C93",
"s  c #1C339A",
"d  c #1C3B9D",
"f  c #202785",
"g  c #222A86",
"h  c #292F86",
"j  c #242C89",
"k  c #282F8B",
"l  c #2C3385",
"z  c #2B328D",
"x  c #25398A",
"c  c #30378F",
"v  c #333A8D",
"b  c #383F8F",
"n  c #253393",
"m  c #2F3690",
"M  c #20349C",
"N  c #343B92",
"B  c #383F94",
"V  c #1C2EAC",
"C  c #1C33A4",
"Z  c #1B3BA5",
"A  c #1A34A9",
"S  c #1D3BAA",
"D  c #1E3AB7",
"F  c #2134A2",
"G  c #223BA4",
"H  c #223DAB",
"J  c #243AB3",
"K  c #2535BB",
"L  c #253CBD",
"P  c #154687",
"I  c #14458C",
"U  c #154B8C",
"Y  c #13528B",
"T  c #194394",
"R  c #194897",
"E  c #145394",
"W  c #125D95",
"Q  c #18569B",
"!  c #145D9A",
"~  c #2C4793",
"^  c #3C4295",
"/  c #3A4698",
"(  c #146496",
")  c #14649C",
"_  c #10709A",
"`  c #1C47A8",
"'  c #1956A6",
"]  c #1A5BA3",
"[  c #1D46B5",
"{  c #1D5BB6",
"}  c #2247A7",
"|  c #245BAC",
" . c #2443B3",
".. c #2448B6",
"X. c #2542BC",
"o. c #2355B7",
"O. c #255BBD",
"+. c #1664A2",
"@. c #1963A3",
"#. c #166CA5",
"$. c #1967AB",
"%. c #166DAA",
"&. c #1473A4",
"*. c #1574AA",
"=. c #157CAC",
"-. c #1B67B7",
";. c #1A6DBA",
":. c #1876B6",
">. c #187BB5",
",. c #1A7CBC",
"<. c #2363B9",
"1. c #2269BC",
"2. c #2974B0",
"3. c #444A98",
"4. c #484F9D",
"5. c #4E54A0",
"6. c #243CC6",
"7. c #1E47C5",
"8. c #1D5AC2",
"9. c #244CC4",
"0. c #294BC3",
"q. c #2A45CC",
"w. c #2848C8",
"e. c #2657C7",
"r. c #2A53CC",
"t. c #235CCD",
"y. c #2A47D4",
"u. c #2C4DD4",
"i. c #2E4CDA",
"p. c #2C53D3",
"a. c #2B5BD3",
"s. c #2455D8",
"d. c #2E55DC",
"f. c #2E5BDC",
"g. c #3258DF",
"h. c #1C68C4",
"j. c #1D79CA",
"k. c #1C74D3",
"l. c #2668C9",
"z. c #2274CA",
"x. c #2477C8",
"c. c #2B64D4",
"v. c #2968D4",
"b. c #2D64DB",
"n. c #2D6BDC",
"m. c #2B74D4",
"M. c #2679D7",
"N. c #2C75DC",
"B. c #2C7BDC",
"V. c #2E4EE2",
"C. c #2F55E2",
"Z. c #2F5DE1",
"A. c #3155E2",
"S. c #305CE2",
"D. c #2E64E2",
"F. c #2E6CE2",
"G. c #3163E3",
"H. c #306BE3",
"J. c #2E74E3",
"K. c #277FE5",
"L. c #2E7BE4",
"P. c #3072E6",
"I. c #1483AD",
"U. c #138AAF",
"Y. c #1583B3",
"T. c #148DB5",
"R. c #1886BA",
"E. c #168BBA",
"W. c #1497BA",
"Q. c #1594BC",
"!. c #14A0BE",
"~. c #1987C6",
"^. c #1A8BC2",
"/. c #1E8DCB",
"(. c #1993C4",
"). c #1896C4",
"_. c #169BC4",
"`. c #1C93CC",
"'. c #169DCB",
"]. c #199CCB",
"[. c #1C8AD5",
"{. c #1D94D3",
"}. c #1C9CD1",
"|. c #1D99D9",
" X c #228BC8",
".X c #2399CB",
"XX c #2484D4",
"oX c #2C81DD",
"OX c #2688D9",
"+X c #238CDB",
"@X c #2498D7",
"#X c #239DD5",
"$X c #2494DD",
"%X c #14A4C5",
"&X c #16A3CA",
"*X c #18A6CB",
"=X c #15ABCC",
"-X c #15B1CE",
";X c #1AA6D4",
":X c #17ACD2",
">X c #1AABD4",
",X c #1DA4DA",
"<X c #17A9D8",
"1X c #1CAADC",
"2X c #16B3D3",
"3X c #1AB1D6",
"4X c #15BAD5",
"5X c #17B5D9",
"6X c #1AB3DC",
"7X c #16BCDA",
"8X c #18BBDC",
"9X c #21A2DD",
"0X c #25A8D9",
"qX c #2E84E3",
"wX c #2688E2",
"eX c #2D8BE4",
"rX c #2694E5",
"tX c #2B92E5",
"yX c #269CE5",
"uX c #2A9BE5",
"iX c #289CE8",
"pX c #1EA6E3",
"aX c #1DACE4",
"sX c #1DB4E4",
"dX c #1CB7E6",
"fX c #1BBBE4",
"gX c #1EBAE9",
"hX c #22A4E3",
"jX c #25A7E7",
"kX c #26B4E7",
"lX c #16C2DC",
"zX c #16C9DF",
"xX c #17C4E2",
"cX c #16CBE3",
"vX c #1BCDE6",
"bX c #1AC3E9",
"nX c #1ACAEA",
"mX c #16D3E6",
"MX c #23C6E8",
/* pixels */
"4 4 4 4 4 4 4 4 4 4 4 4 4 4 4 4 4 4 4 4 4 4 4 4 4 4 4 4 4 4 4 4 4 4 4 4 4 4 4 4 4 4 4 4 4 4 4 4 4 4 4 4 4 4 4 4 4 4 4 4 4 4 4 4 ",
"4 4 4 4 4 4 4 4 4 4 4 4 4 4 4 4 4 4 4 4 4 4 4 4 4 4 4 4 4 4 4 4 4 4 4 4 4 4 4 4 4 4 4 4 4 4 4 4 4 4 g N m B g 4 4 4 4 4 4 4 4 4 ",
"4 4 4 4 4 4 4 4 4 4 4 4 4 4 4 g g 4 z z N f 4 4 4 4 4 4 4 4 4 4 4 4 4 4 4 4 4 4 4 4 4 4 4 4 4 B 3.3.^ N B B B 4 4 4 4 4 4 4 4 4 ",
"4 4 4 4 4 N N 4 k 4 4 4 4 4 4 g z z h @ + l - - 4 4 4 4 4 4 4 k g g k z k 4 z k g 4 N 4 4 4 B B z k B B 4 - l 4 4 4 4 4 4 4 4 4 ",
"4 4 4 4 4 4 k 4.4.4 4 4 4 4 - - - - O + O @ - 4 4 4 4 4 4 4 z N z k k z B c z z k 4 4 4 4 4 N - O - O - O O + 4 4 4 4 4 4 4 4 4 ",
"4 4 4 4 4 4 4 4 4 4 4 4 z 4 - @ O + O O 4 4 h z 4 4 4 4 4 4 4 4 h - - + 4 4 4 ^ 4 4 4 4 4 - 4 - O + + O - + 4 4 4 k g k z k g 4 ",
"4 4 4 4 4 4 4 4 4 4 4 4 g N 4 4 - 4 - 4 9 :.2./ 4 4 7 a p 4 - 4 - @ - - - 4 4 4 4 4 4 4 4 4 - - 4 4 4 4 4 4 4 4 k z g k z k B N ",
"4 4 4 4 4 4 4 4 4 4 4 4 4 g 4 4 4 4 4 4 @.*X.XT.: g : ).*XU x N 4 4 4 4 4 4 4 4 4 4 4 k 4 4 4 4 4 4 4 4 4 4 4 4 h - 4 4 @ @ l 4 ",
"4 4 4 4 4 4 4 4 4 4 4 4 4 4 4 4 4 4 4 6 ( x.wXz.> $ t 0X X X~ z 4 4 4 4 4 r r 9 4 4 4 4 4 4 4 4 4 4 4 4 4 4 4 4 - + @ - - - - 4 ",
"4 4 4 4 4 4 4 4 4 4 4 4 4 4 B g 4 >.E.%X$ o.J.o.j.^.^.qXoXL.N.= @ 4 4 4 4 a Y.=.P 7 4 4 4 4 a >.a 4 4 4 4 k 4 4 4 @ - 4 4 4 4 4 ",
"4 4 4 4 4 4 4 4 4 4 4 4 4 z z z R >.cX}.<.o @.-.XXhX,.T L.J.w.- 4 I =.E o *.mX3XR.6 4 4 4 #.=X=X(.& 4 k x / 4 k k 4 4 4 4 4 4 4 ",
"4 4 4 4 4 4 4 4 z 7 4 4 4 z k 4 g >.;XtXL.H Y v.qXL.G.;.).Y.&.: o Y.sX{.0 ( 6XtXrXs 9 4 O ) 3XgX$Xo.T @.:XY.& g - - 4 4 4 4 4 4 ",
"4 4 4 4 4 4 4 g 4 4 4 4 4 4 4 4 @ a rXtXG.C * e.F.G.u.W.zX*X/.l.% {.eXL.e 6 B.H.d.e.*.@.# 6 l.L.b.c.* =.6XOXT O + - 4 - 4 4 4 4 ",
"4 4 4 g 4 4 4 4 4 4 4 4 4 4 4 Q E O f.G.XX%X%X*.i u T 2XfXiXJ.F.0 o.J.Z.{ e s.S.OX,XsX>X..& 8 { $.=.* } tXL.9.o 4 4 4 4 4 4 4 4 ",
"4 4 4 4 4 4 4 4 4 4 4 4 4 4 4 T.5X! & z.&XzX^.,.W o e j.qXL.D.d.& y 7.J.~.=XE s %./.gXiXf.0.$ %XlX:X:.o  .{ q O 4 4 4 4 4 4 4 4 ",
"4 4 4 4 4 4 4 4 4 4 4 4 4 4 +.:XsX#X& : #.OXeXb.7 o s c.H.G.d.3 I G O =XvXvXXXs - o.tXD.u.w.4 %.fXgXoXS I.&X_.0 & 4 4 4 4 4 4 4 ",
"4 4 4 4 - + - 4 4 4 4 4 4 4 w {.eXqXp & B.qXJ.f.M q $.R.' S O I.bXgXQ =.#XeXJ.r.& r D.A.q.J 4 ] nXqXb.r.Y.fXnXz.> = 4 4 4 4 4 4 ",
"4 4 4 @ O O @ 4 4 4 4 4 4 4 & l.P.G.& 2 hXjXD.p.' _.mXbX5X$.=.zXbXsX] a L.F.S.n.R & 8 K L F - r rXH.u.D :XbXiXJ.> 7 4 g 4 4 4 4 ",
"4 4 4 4 @ o o @ - 4 - - - 4 o D S.y.( Q.5XlX&X@.P 8XsX9X;X-.I &X:X:X-XP  .J XXfX4X&X5 8 :.).&., 8.+Xt.` t qXL.F.a o 4 4 4 4 4 4 ",
"4 4 4 4 @ o o @ - - - < k k < ) _.E +.`.aXyXyX! ( yXiXoXqXm.>.$XgXrXyX}.d 4 ^.&XbXgXjXP zXlX,X, Q.:X5X$.o S G.d.3 - 4 4 4 4 4 4 ",
"4 4 4 4 4 @ - 4 4 4 4 z N z 2.4XzXI.; m.qXJ.J.i r B.B.eXL.t.` N.l.O.l.N...o +.`.iXeXqX;.7XsXB.].4X3XfXM.O 7 r.C O z k 4 4 4 4 4 ",
"4 4 4 N c g z 4 4 4 4 g k R =X;XgX1.' +XrXK.a.4 y F.rXaXaX;Xe.L.B.qXJ.D.p.0 ! x.L.L.b.r yXtXL.^.5XpXJ.g.; &._.; o k k g 4 k 4 4 ",
"4 4 4 B B 4 4 j 4 4 4 4 ; P Q.eXJ.b.] =X8X8X'.o X H aXxXmX*X:.9.v.F.C.b.k.;.Q.{ q.q.9 6 eXB.t.~.sXyXD.p.E =X&XU - g k g 4 z 4 4 ",
"4 4 4 g g 4 4 4 4 4 O E.(.% ` J.Z.^.lXcXfX9X|.p % q =.xX>X#X2.P j.aX[...xXvXxX4X,.d @.t o.J...-.L.f.d.p Q #XM.1.& 4 4 4 4 z k k ",
"4 4 4 4 4 4 4 4 4 9 %X`.x..   y 2X7XsXeXeXN.b.E.cX=X`.jXeXqXeX#.vXvX4XE.].1X3X_.=X@.:X' 7 d t Z r.~.2X&.6 m.eXl.& 4 4 4 4 g k k ",
"4 4 4 4 4 4 4 4 4 9 ].tXc.P ( > |.$XeXeXN.f.[.3XvX>X$.L.H.H.9.Q.7XlXcX=.oXqXOX X.X:.1Xx.7 %XQ.>.3 &X=X/.R a B.$ - 4 4 4 4 4 4 4 ",
"4 4 4 4 4 4 4 I =.0 o.t $._.W.Y.o.m.qXyXrXH.>.kXjXkXuXq [ p 9 z.hXMXMXQ.E qXqXqXqXl.v.0.E.7X1X|.% ).tXqXl.& ; - 4 4 4 g k 4 4 4 ",
"4 4 4 4 4 4 U _.E.* #.-X].].6X_.= 0.k.sXvX&X| tXoXL.eX| &XT.' v.J.qXtX#X$.L.L.N.J.a.b.D =.hXtXqXR ' L.J.a X 4 4 4 4 4 k k z 4 4 ",
"4 4 4 4 4 - &.@XqX& >.nX1XhXtXm.s ) %X7XlX:XXXn.N.rX+X2XcXcX4Xx.n.J.J.qXI 0 7.7.k.M.r.3 > [.L.J.[ S s.s.; O 4 4 4 4 4 4 4 k 4 4 ",
"4 4 4 4 7 ] I.&X] 7 ,XhXeXB.B.qXA '.cXfXgXkXM.v.x.8XmX7XcX>X=X@.R ` t.a.e.C (.Y._.T.w + 3 R b.f.s ( 2 T - 4 4 4 4 4 4 4 4 4 4 4 ",
"4 4 4 7 E zX1XfX}.& -.L.N.qXqXF.V h.+XB.oX$XOXa.S _.=X3XkXkX0X0Xx.q ' e.M w 4X4X7X2XI ) &X:X%.+., T.=X>.4 4 4 4 4 4 4 4 4 4 4 4 ",
"4 4 4 q E.#XqXL.8 X C D.F.D.f.K A A u.F.L.qXF.q.w.;.OXtXtXtXtX$XN.Z Q Y.=.Y.,X:XiXqX} ! >XnX1X~.% /.kX+Xy 4 4 k N 4 4 k k k k 4 ",
"4 4 4 & } qXqXG.[ R 8 6.q.K L v.aX-.L C.d.D.B.9.C 5 n.J.qXN.B.v.0.` cXzX2X>.OXqXqXJ.0.W h.iXjXyX] <.L.f.y 4 4 4 z g k N m k k 4 ",
"4 4 4 O % v.b.N.lX=X%.q.K h.aXsXyXoXp A [.sX1Xj.o.t 9.p.+XpXpXr.L #.2X].,.* z.N.F.f.J @ r.L.qXqXO.q oXh.s 4 4 4 4 4 4 4 4 4 4 4 ",
"4 4 4 4 + r ^.~.zX6X:XT l.pX1Xl.| 1.$ T.%XcX2X&X{ * ( <XcXfX{.h.` @.M.qXN.& d k.j.+.W = X.D.J.L.O.=.2X>.9 g 4 z k k g k 4 4 4 4 ",
"4 4 4 4 4 O &.=XsXjXrX_.%X4X;Xz.| 1.I.!.4X7X7X>X;.;.%XcXmX2X5X'.0 9 qXJ.c.! %X7X2X=X:X_.e y.C.b.p P (.m.} m 4 z N z g k 4 4 4 4 ",
"4 4 4 4 4 4 * x.qXL.G.;.%X;XeXB.B.qX| 4XmX:XyXyXB.z.).5X0XkX0X9Xs '.xX<X;.R *X{.yX9X|.kX~.3 C d , % O.n.G 4 4 4 g 4 4 4 k 4 4 4 ",
"4 4 4 g 4 4 4 ..J.G.y.; [.qXqXL.c.9.x Q.,XtXeXL.D.t./.0X@XM.x.OX].zXvX1X).' z.L.L.qXqXqXB.` I T.%XQ 3 9 4 4 4 4 4 4 4 4 4 4 4 4 ",
"4 4 4 - 4 4 4 7 C X.o X A D.b.0.X.[ # Y s.P.qXZ.w.Z O.m.O.N.F.V.$.sXjXeXjX;.` b.D.F.J.J.a.J &.4XhX$Xp - 4 4 4 4 4 - @ - - - 4 4 ",
"4 4 @ - - 4 4 4 + o o - u D K J e.2XW.Y A d.wX|.<X*.b.u.Z.C.i.6.C B.L.L.J.r.i Z X.q.c.$Xk.t >.yXqXB.a.y 4 4 4 g 4 4 - - + + 4 4 ",
"4 4 - 4 4 4 4 4 4 4 4 4 3 & = o w ^.fX) * ).vX5X8X'.o D l.M.,X*.%.a.D.Z.N.j.Q.=X= o R.5X=XU 6 m.qXJ.w.9 4 4 4 B 4 4 4 - - O @ 4 ",
"4 4 4 4 4 4 4 4 4 4 4 4 4 4 - O % B.J.G * %XxX+XOXF.` I.:XxXfXxX=X` a.h.&X2X=X1Xd   _.4X5X{.; q c.d.F + + - - 4 4 4 4 - - - 4 4 ",
"4 4 4 4 4 4 4 4 4 4 4 g z z B z 1 r } x & <.qXqXqXJ.;.4XbXnXgXiXsX0 O #.5X1XtXn.y O $./.eXeXL.Z 9 u - - - 4 4 4 4 4 4 4 - 4 4 4 ",
"4 4 4 4 4 4 4 4 4 4 4 z z 4 g c h U 7X>.& a n.F.H.S.^.sXiXeXqXqXN.b.5 * B.qXJ.p.H o ; N.L.J.Z.q.D 7 - 4 4 4 4 g k k 4 4 4 4 4 4 ",
"4 4 4 4 - - 4 4 4 4 4 g 4 - - - O Y.aXeX6   e r.A.i.R L.L.L.B.F.i.i.6.& e F.J.l.:X%.7 f.S.A.A.g.s - - 4 N N ^ / z c z 4 4 4 4 4 ",
"4 4 4 - - - - - - - - 4 - - - 4 X } qXD.5 U.&XE.,.8 & r.f.r.y.y.K K L     8.5X:XsX$X3 O J q.0.M 4 4 4 4 c 3.b k 4 B B g 4 4 4 4 ",
"4 4 4 4 4 4 4 4 4 4 4 4 4 4 4 4 < 6 0.s Q.&X}.].`.R   X ,.{.h.K V i &XY.Y U `.9XeXL.p.- 3 8 4 4 4 4 4 4 - l < @ - @ 3.4 4 4 4 4 ",
"4 4 4 4 4 4 4 4 z k k g g g 4 4 - = W E ).jXeXqXF.[.! W.7X8X:Xi % =.6XgX' % M.qXqXJ.f.M 4 - 4 4 k k 4 4 - - - - 4 - 4 - 4 4 4 4 ",
"4 4 4 4 4 z B ^ 4.3.4.B B ^ 4 4 4 Y.5X(.+.iXL.F.i.I sXgXkXwXXX0.3 %.yXH.d.X % 0.G.S.A. .4 g z z k B z g 4 4 4 4 4 4 4 4 4 4 4 4 ",
"4 4 4 4 4 z B 3.l h @ - @ v 4 4 - E.kX@X% p.i.8 O I gXqXL.F.N.n.8 ` L.G.r.w   4 w.d.e.s 4 g z k - h h - @ - + @ 4 4 4 4 4 4 4 4 ",
"4 4 4 - @ O @ @ O O O @ @ 4 4 4 w ] qXJ.O & = P P d b.D.C.d.N./.U o  .1.R.E.E X 4 u y k v h 4 4 @ @ - O + + O @ 4 4 4 k 4 g g 4 ",
"4 4 4 4 - O O - 4 @ @ 4 4 4 k 4 - p b.u.& _ lX:X*.( ` D h.<X_.:X&XW X Y._.7X^.d 4 4 4 4 4 4 4 - - 4 4 4 - 4 - 4 4 4 z N k z k g ",
"4 4 4 4 4 4 4 4 4 4 4 4 4 k f 4 4 4 s 7 , =X;X;X@X,.#.w * _.&X}.XXI : o :.sXeXJ.F 4 4 k z 4 4 4 k k 4 g g 4 k 4 g z g k g f 4 f ",
"4 4 4 4 4 4 4 4 4 4 4 4 4 4 4 4 4 4 4 O ` +XqXB.qXqXm.| o Q eXL.J.r.= t o.J.G.q.y f f z h k 4 4 k z 4 4 k g k z k h g - - - 4 4 ",
"4 4 4 4 4 4 4 g g g 4 4 4 4 4 4 4 4 4 4 s v.l.m.qXqXJ.F > 0 ' J.K.c.E.-XY.y y y - - - 4 4 4 4 4 4 4 4 4 4 4 4 k 4 - + @ - 4 4 4 ",
"4 4 4 k k 4 4 g f f 4 4 4 4 4 4 4 4 4 4 - 8 s f.Z.f.q.] &X].>.:.o.>.lX6X-.D 3 4 - 4 4 4 4 4 4 4 4 4 4 4 4 4 4 4 4 4 4 4 4 4 4 4 ",
"4 4 z z z f 4 4 - - 4 4 4 4 4 - O O O O O o O y F y 9 ) .X$X$X+.X % hXqXL.a.9 4 4 4 4 4 4 4 4 4 4 4 4 4 4 4 4 4 4 4 4 4 4 4 4 4 ",
"4 4 k g g 4 - - - 4 4 4 4 4 + o o o l z 4 - - 4 4 4 4 } qXJ.S.0.9 o e.H.b.H 4 4 4 4 4 4 4 4 4 4 4 4 4 4 4 4 4 4 4 4 4 4 g 4 4 4 ",
"4 4 4 - - - + - - @ - 4 4 - h h - v 3.^ 4.3.4 4 4 4 4 7  .w.F 7 4 g n G M 4 4 4 4 j 4 4 4 g 4 4 4 - 4 4 4 4 4 4 4 4 4 4 4 4 4 4 ",
"4 4 4 4 4 - - 4 4 4 4 4 4 4 z B ^ 3.l k B c 5.z z 4 z k 4 4 4 4 f g c k z k 4 4 f z g 4 4 4 4 4 - O O 4 4 @ + - l 4 j B 4 g k g ",
"4 4 4 4 4 4 k m g g g g 4 4 4 k v @ + @ + O ^ v ^ 4 z k 4 4 4 4 4 4 k k z 4 4 ^ c B k g 4 4 4 - O o o O O + O O O - 4 z B B B g ",
"4 4 4 4 4 z m m z k z z 4 4 4 4 4 - - O O O O - N 4 4 4 4 4 4 4 4 4 4 4 4 4 4 4 4 4 4 + - 4 - O o o o O @ 4 4 - - 4 4 4 4 4 4 4 ",
"4 4 4 4 4 k z 4 g g g g 4 4 4 4 4 4 4 4 4 4 - 4 4 4 4 4 4 4 4 4 4 4 4 4 4 4 4 4 4 4 4 - - 4 4 + O O = 4 4 4 4 4 4 4 4 4 4 4 4 4 ",
"4 4 4 4 4 4 4 4 4 4 4 4 4 4 4 4 4 4 4 4 4 4 4 4 4 4 4 4 4 4 4 4 4 4 4 4 4 4 4 4 4 4 4 4 4 4 4 4 4 4 4 4 4 4 4 4 4 4 4 4 4 4 4 4 "
};
