/* XPM */
static const char *coralyellow[] = {
/* columns rows colors chars-per-pixel */
"64 64 41 1 ",
"  c #ADA001",
". c #CBBC01",
"X c #DCCC01",
"o c #F1DF01",
"O c #FEF041",
"+ c #FEF376",
"@ c #1B2385",
"# c #1B2585",
"$ c #1B2885",
"% c #1B2F85",
"& c #1B3085",
"* c #1B3585",
"= c #1B3885",
"- c #1B3F85",
"; c #1B4085",
": c #1B4785",
"> c #1B4885",
", c #1B4F85",
"< c #1B5385",
"1 c #1B5585",
"2 c #1B5A85",
"3 c #1B5F85",
"4 c #1B6185",
"5 c #1B6585",
"6 c #1B6A85",
"7 c #1B6D85",
"8 c #1B7185",
"9 c #1B7485",
"0 c #1B7A85",
"q c #1B7E85",
"w c #C032B3",
"e c #1B8085",
"r c #1B8785",
"t c #1B8A85",
"y c #1B8C85",
"u c #1B9385",
"i c #1B9585",
"p c #1B9885",
"a c #1B9C85",
"s c #1BA385",
"d c #1BA585",
/* pixels */
"@@@@@@@@@@@@@@@@@@@@@@@@@@@@@@@@@@@@@@@@@@@@@@@@@@@@@@@@@@@@@@@@",
"@@@@@@@@@@@@@@@@@@@@@@@@@@@@@@@@@@@@@@@@@@@@@@@@@@@@@@@@@@@@@@@@",
"@@@@@@@@@@@@@@@@@@@@@@@@@@@@@@@@@@@,>$@@@@@@@@@@@@@@@@@@@@@@@@@@",
"@@@@@@@@@@@@@@@@@$&&=;:-%@@@@@@@@@@=<3,#@@@@@@@@@@@@@@@@@@@@@@@@",
"@@@@@@@@@@@@@@@&>221<>><21-#%%#@@@@;26<-&@@@@@@@@@@@@@@@@@@@@@@@",
"@@@@@@@@@@###$%;>=,3<>:::,2<-&&$@@@-352<&@@@@@@@@@@@@@@@@@@@@@@@",
"@@@@@@@@#%=-=*&-wwww41>:;:1<<<=$@:>www5<1:*;:::,11<<<;%@@@@@@@@@",
"@@@@@@@@$*&*&$#$wwwwO92,:;<<2<:%;3wwwwyr9q63>,,>;;>><<:*$@@@@@@@",
"@@@@@@@@$&%--*;<wwwwOOOO421131>24Owwwwpr68t91<>::>>251>;%@@@@@@@",
"@@@@@@@@#$*22,><5wwwOOOOOrq522455Owwwwpe8tu021>:>3qe712>#@@@@@@@",
"@@@@@@@@@#=114420eOOOOOOOOOy0127qOwww0urrre88724ryr9907*@@@@@@@@",
"@@@@@@@@#%>21644qytuuOOOOOOOq800eOOOytuyreueytyqe8wwwe5>::;%@@@@",
"@@@@@@@@$*,<<8450wwwwt0OOOOO0658rOOOutwwwwppiuOOwwwww92:%%;&@@@@",
"@@@@@@@=;,633770rwwwwwerOOOO0679OOOOi.wwwwypOOOOwwwww74>*:,$@@@@",
"@@@@@@@;>:45775qywwwwweuiOOOO9www+OOy.wwwwqOOOOOwwwww03174*@@@@@",
"$$&&$@@&:,wwwwwtyywwwwotyOOOOowwwwOO..wwwyOOOOOOOtyytqeq3-@@@@@@",
"%&&$@@@#:2wwwwwOOOuoooooqOOOOowwwwOO....aOOOOOOuyiiiqte4:$@@@@@@",
"%&%#@&&;13wwwwwOOOOOooooOqOOOowwwwOO...aiOOOOOiapptyr941-%@@@@@@",
"#&=&*;::1258wwwOOOOOoooooOOOOoooOOOO...iOOOOOsapitrtq421:#@@@@@@",
"@%;=%%>;>238q0eeOOOOOooooOOOOoooOOO....iOOOO..wwwwt97794%@@@@@@@",
"@#=-#$>,<35......OOOOooooOOOOoooOOO....OOO....wwww7qyt0;@@@@@@@@",
"@@*-*;<2,3wwwww....OOOoooOOOOoooOOO...OOO.....wwwwyuye4;$@@@@@@@",
"@@-;<<11<3wwwww......OoooowwwoooOO....OOO........tye73,1>%@@@@@@",
"@@;:<<,221wwwww.......oooowwwoooOO....OO.....teyqOwwww>><:%@@@@@",
"@@=>,2134360reri......oooowwwooooO...OOO....OOOOOOwwww1,22=$@@@@",
"@@$-,244470wwwwooooo..XXXowwwoooo....OO.....OOOOOOwwww2121,;@@@@",
"@@@&<<4270rwwwwoooooooXXXXO..oooo....OO....OOOOOOOOOq9522<1<-@@@",
"@@#%<,36qrrwwwwoooooooXXXXX...ooo....www...OOOOOOOq9eq95321-;-@@",
"@$&*,<49q0qqwwwOOoooooXXXXX...ooo..owwww..OOOOOO859tq900831;$%%@",
"#=**,<490qOOOOOOOwwwoooXXXX...ooo.oowwww..OOOOO5........053;#&,@",
"$-*&>,49OOOOOOOOOwwww ooXXX...wwwwoowwww.OOowwwww........84=#$,$",
"$*&-<58OOOOOOOOiawwww   XXX...wwwwoooo...ooowwwww.........7<##:%",
"##%:-1OOOOOOOusdawwww     X...wwwwooo..ooooowwwww..y0......7&%:%",
"@#*,,OOOOOOyisda...       Xo.XXXXooo..oooooooo..r0ey99q.wwww12:$",
"@@&-;OOOOO0yass......     o     XoXXwwwwoooo..tOOOOry79.wwww1>#@",
"@@#*-wwwO56eyi......OOOoooo      XXXwwwwoo...0iOOOOOe075wwww:$@@",
"@@$:,www448yry.....OOOOoooo       XXwwwwoOO9t0yOOOOOee07444;=$@@",
"@@&:2www2499e.....OOOOoooo...XwwwwXXXooo..OO90rpOOOOrt06752;-$@@",
"@@$=1www5709e....OOOOooooo..OOwwwwXXoooo..OO988urOOOO0q97>31-#@@",
"@@@%*>265980wwww.OOOOoooo...OOwwwwoooooo...OO70qrwwwO776754,#@@@",
"@@@%=<66489qwwwwqOOOOwwww..OOOOwwwoOoooo...OO8erewwwww1466,#@@@@",
"@@@##*>;58q0wwwwOOOO7wwww..OOOeooooOOooo...OO7ttewwwww11:;@@@@@@",
"@@@@#*%-5989www.OOOO9wwww.OOOOeooo8OOooo...OO70ytwwwww:-@@@@@@@@",
"@@@@@&$:1368q09OOOOe00....OOOttooorOOooo...OOO0ytq0541-@@@@@@@@@",
"@@@@@#:,211<43,OOOOeq9...OOOOuooooyOOooo...OOO9qt87981@@@@@@@@@@",
"@@@@@%::122>67rwwwOer....OOOOuoooouOOOr9...OOO9599896,-@@@@@@@@@",
"@@@@@*=:>2:<9tywww90q....OOOOpwwwpaOOOr9...OOO997q821,>$@@@@@@@@",
"@@@@#==-11-58erwww635....OOOuewwwapOOOiywwwOOOO07896<,,-@@@@@@@@",
"@@@@$&&&2-#*<09www448www0OOOytwwwayOOOitwwwOOOO00786,>*:$@@@@@@@",
"@@@@####=&*;698885489wwwqOOOtrwwwyOOOOrqwwwOOOO0q0862:$=;%@@@@@@",
"@@@@@@$&&=::221<30eeewwwrOOOqqyutOOOOO97www8OOO90q9663*$;:%@@@@@",
"@@@@@@$&&&-*=,1<<3,5qwww0OOOeryipOwwwee77086OOO80q03596-$;%@@@@@",
"@@@@@@###$*--:,>>,,16780qOOOyyyyuwwwwe890053OOO89q01-2<&##@@@@@@",
"@@@@@#@#$=>,,,>=*-,:,<<69OOOytttrwwwwete9533Owww9907,<<%##@@@@@@",
"@@@@@@$*;,<,<>;=-*=;><136OOO0eee0wwwwqq84223wwww088732:$@@@@@@@@",
"@@@@@@$*;><,,,-;>-;,<1,<2www8889900097433333wwww094653;=$@@@@@@@",
"@@@@@@@@@->>,1>>,,::<222wwww5489987642222233wwww694473;=$@@@@@@@",
"@@@@@@@@@%**=,,<<<=#%;>1wwww2356322221222222222<264111:$@@@@@@@@",
"@@@@@@@@@@@@@%***=#@@%*;wwww33223322:*:12222221><<<:*=%@@@@@@@@@",
"@@@@@@@@@@@@@@@@@@@@@@@@@%<1,<2221,-%@@%:<22221:,<,;%@@@@@@@@@@@",
"@@@@@@@@@@@@@@@@@@@@@@@@@@%%@$,,&@@@@@@@#&-,121<,1<=#@@@@@@@@@@@",
"@@@@@@@@@@@@@@@@@@@@@@@@@@@@@@%%@@@@@@@@@@@%=;;>,1;#@@@@@@@@@@@@",
"@@@@@@@@@@@@@@@@@@@@@@@@@@@@@@@@@@@@@@@@@@@@@@@%*=#@@@@@@@@@@@@@",
"@@@@@@@@@@@@@@@@@@@@@@@@@@@@@@@@@@@@@@@@@@@@@@@@@@@@@@@@@@@@@@@@"
};
