/* XPM */
static const char *coralgreen[] = {
/* columns rows colors chars-per-pixel */
"64 64 65 1 ",
"  c #114032",
". c #1A4734",
"X c #1C4935",
"o c #214D37",
"O c #2B553A",
"+ c #2E367F",
"@ c #353D7F",
"# c #37407F",
"$ c #3B447E",
"% c #3F487D",
"& c #434C7C",
"* c #47507B",
"= c #4B547A",
"- c #4F5879",
"; c #555E77",
": c #535C78",
"> c #576077",
", c #5B6476",
"< c #5F6875",
"1 c #576078",
"2 c #626C75",
"3 c #677173",
"4 c #6A7473",
"5 c #6F7971",
"6 c #737C71",
"7 c #238165",
"8 c #2B8464",
"9 c #318764",
"0 c #358864",
"q c #3B8A64",
"w c #448E63",
"e c #418D64",
"r c #468F64",
"t c #499063",
"y c #4E9263",
"u c #499064",
"i c #4D9264",
"p c #529463",
"a c #569563",
"s c #519464",
"d c #549564",
"f c #599663",
"g c #589664",
"h c #5B9863",
"j c #5E9863",
"k c #5D9864",
"l c #7E886E",
"z c #639B63",
"x c #768070",
"c c #7A8470",
"v c #808A6E",
"b c #88926C",
"n c #8E996A",
"m c #1B2385",
"M c #1E2684",
"N c #232B83",
"B c #242D83",
"V c #212984",
"C c #273082",
"Z c #293182",
"A c #2B3481",
"S c #2E3681",
"D c #2F3880",
"F c #323A80",
"G c #333C80",
/* pixels */
"mmmmmmmmmmmmmmmmmmmmmmmmmmmmmmmmmmmmmmmmmmmmmmmmmmmmmmmmmmmmmmmm",
"mmmmmmmmmmmmmmmmmmmmmmmmmmmmmmZ@$@Vmmmmmmmmmmmmmmmmmmmmmmmmmmmmm",
"mmmmmmmmmmmmmmmmVZFZmmmmmmmmmV**F#&Fmmmmmmmmmmmmmmmmmmmmmmmmmmmm",
"mmmmmmmmmmmmVB@=><,-**&@VmmmmS=NVM#&&**#mmmmmmmmmmmmmmmmmmmmmmmm",
"mmmmmmmmmmmV--&%$&%%&&=;*MmmmZ-S%-=:&VSSMmmmmmmmmmmmmmmmmmmmmmmm",
"mmmmmmmmmmmS%B-:<<<22<<;@Nmmm777:%&,;*&@MmZ%#mmmmmmmmmmmmmmmmmmm",
"mmmmmmmmmmmZ%C:==:,;-::%FVmmm77777777777%Z@%BMmmmmF##mmmmmmmmmmm",
"mmmmmmZ&Vmmm#;<77777777#&@mmM77       77&%Z&ZMmmmZ$NMMZZmmmmmmmm",
"mmmmmmS;:&mMS77      77-&BmmM77       77-&Z&%ZmmZ@ZBBV@@Mmmmmmmm",
"mmmmmV=-*;S77        77-ZVMmZ77       77<,:=%VZ@*ZM-,%@@Mmmmmmmm",
"mmmmm%-S&:*77        7*-&@V@$S77     777$&**:@*<4*BSBZ#$Bmmmmmmm",
"mmZ%%&,#&&-77       7;;;%D*:&:77777777##@%*&,&<4,:FNS:-@Zmmmmmmm",
"mm&7777;:@&-777777777>::&-&Z%:  77777:;,,,::<,6,-,;1,<DSZMmmmmmm",
"F*<7777,,:,;@77777777,-,:FBZ*7   777%**&#@%F&,2:26c6*#BSSMmmmmmm",
"V&,   7=35<%@B77 7777*-<,BB77 777777&%@SD##F7777nb2%SF%%SMmmmmmm",
"F;;   77<56&%S*   777,*&7 77   7777---=-;:*777772,=%**#BZMmmmmmm",
"@;    77;,442@@:777777#%O  77  777@#%%&&*%7   77;<;:-FZZZMmmmmmm",
"Z:    7778;<24:;> 7777#7u. 777777F@@DSZB77    776x4#BN@@Vmmmmmmm",
"Z-    7777qq8u4,   777-7r9777777@DZZZZZ777    77:*&*&FAMmmmmmmmm",
"S:    77777888ii,27777:7qu77777DSSSSF  777    77:<22:SBmmmmmmmmm",
"Z7    777997888iu:  77&77ir97SNZSDFF    77    77255:BMmmmmmmmmmm",
"N7    77  0q77qqqX   7&77qssqZ%&*-&   7777    7&%&DZSNmmmmmmmmmm",
"V7   77,  7XX87qq77777&77008@M#&@Z*;  7777    7&-%%#SNmmmmmmmmmm",
"V777777>2<7 .887q07777777009Z@VMVMmV77777777777&#SZ@SMMmmV@BBBVm",
"V77777:-><:  8Oq79777777708q&:NMNS@777777777,:&FZZSSZNMm##-&&-FM",
"MNFZF=-:-><>7  Oq7777777789777FZFNM 777777*-,<-F#%%#SNmm&BMBS-BM",
"MMF#S&:&:,*;7  7007       9987*&@F   7777;&&-;:,;&&*%VVS&FM@#&ZM",
"mmVZB&##&&&*#  778  77777  qq8#D%79q97777F$&-:#@%*-;;*&%@#%-$F%B",
"mmmMB%F%#F%-;:777 77     77777777qgd9777->>;>,>*&&%&&7777&#BBB#M",
"mmmmmS#S@**&;=77777       7 7777que98777&=*%%&#&*;:$77777%#FSSFV",
"mmmmmmmmA:;&,:77777       7 7779ri8898:,-@ZD&-&*&#@#77777-:-%F@B",
"mmmmmmV&$@:,<<  7777     77 77qsezrdk8-@#*;;;7777  7    7%&@BV@M",
"mmmmmm#:=:;;2    7777   77  778u8aje087&>,-777  7  7    7:#ZBZSm",
"mmmmZ$&@%&%&<< 777   7777777778u9qfq9877:7  77  7  7    @&#%@Vmm",
"mmmm@#**;&F&,   777*      77778gr0ahpe7777   7  7  7   7CVS@Vmmm",
"mmmmS&<,777777   7,:ZMm&7777778st8tyw077777  7777777   7B$@ZVMmm",
"mmmm$,7777777  7774*SNmF7  77%8ufeqqqw77777777777777   7D#S@Zmmm",
"mmmM@>7777777   754&GN@7    -<39aew0ej777777#;;;:777   ZSMVZMmmm",
"mmmM%77   7777777,#:GF&77777<2,7u8009a@BZ@FNZ@Z&:777   NMBZVmmmm",
"mmmMB77     7777,-%;F@&  77<<;+%eq898i*ZNMmmmNZS%:77777NZVMmmmmm",
"mmmMN77     772<,>-::,    7;=&;;38888u%MmmmMMB%%&&%*&**@ZMmmmmmm",
"mmmMB77     7,2<-*#*-777  &*&-,,38770s%MVBF%%*::>,;:::-&Mmmmmmmm",
"mmmMN#,     7:#%-%177  777:-*&@:5087ru-#-,<,;:-=-;;:;<,;B$@Zmmmm",
"mmmMVS;2;7777%F--777    77&*$BF<3889r8<877  77 7-:,<<::,-=*SMmmm",
"mmmmMS:2,7777S@-777777  7*##@#@&577eq8u777  7   7 ;:<,:,%V=VMmmm",
"mmmmmV%,44l4-@@:777777777=@ZF#ZZ477q90r777777  7   @S&;;&M-SNmmm",
"mmmmmMB@-4v6;@#,7     777&VZZVF-;77790087777      77&7777&;#Nmmm",
"mmmmmMV@-*:::#&17     777&SBmV&:*77709q77777777  77777777*-#MMmm",
"mmmmmMM&&@&:&%G-7     777%NmZ$-&<7  X9077:<7777  777   77%;&NMmm",
"mmmmmMM:&S-<-@Z$7     &-&@MZ&=:;;7  .o7*&-;-*777777    77-:*Nmmm",
"mmmmmMM*,&%@%SSF7    A-*ZSM@*#B#777798%--@%$-:77777    7,;#*Mmmm",
"mmmmmmmS2<4<%NSV7   7*-A#Bm$&&@#7  78*;::-=&&&-&777    7:-S*Mmmm",
"mmmmmmMV,2662>;%%%&%%@@&#Mm@:-#&    7-&&;*&$#FZB%77   7,,*F&Mmmm",
"mmmmmmMM;;##*%@@$SBVAB$%VmMN24&777777%&&:&%FS@#@S&7   <<<;&#Mmmm",
"mmmmmmVM&&%:&#&F@@@FSF$VmmMV-3;7777777*%%#&&%@ZZF#7777,<<,&#Mmmm",
"mmmmmmMN@*&:%*=&F@%#AMmmmmMNF<77777777@ZZ%@FFZVVNZ&777:*:-F@Mmmm",
"mmmmmmMBF=#BZFZVMVVmmmmmmmMNZ,77     7D#&&NMMZAZZZ&777*:-*#Nmmmm",
"mmmmmmmBC&#&#FSZBMmmmmmmmmMNS%77     7&&@F@ZmmVZF@%DZ@&*&*&Zmmmm",
"mmmmmmmVV#&&$#&&SmmmmmmmmmmBS@77     7FBN@BmmmmmMB$#&==%$@VMmmmm",
"mmmmmmmMm#FMVSZMMMmmmmmmmmmMB&777   77SSSSmmmmmmmMZZF#&*&%SVMmmm",
"mmmmmmmmmBMMZAZCNMmmmmmmmmmmMS$SFS#%##@ZmmmmmmmmmmmmMZ@##%#Bmmmm",
"mmmmmmmmmmmmBVBBVmmmmmmmmmmmMMSSBNVBZZBMmmmmmmmmmmmmmmVVmmmmmmmm",
"mmmmmmmmmmmmmmmmmmmmmmmmmmmmmmVFFF#@ZBVmmmmmmmmmmmmmmmmmmmmmmmmm",
"mmmmmmmmmmmmmmmmmmmmmmmmmmmmmmmmmmmmmmmmmmmmmmmmmmmmmmmmmmmmmmmm"
};
