/* XPM */
static const char *coral_blue_chars[] = {
/* columns rows colors chars-per-pixel */
"64 64 231 2 ",
"   c #0F165C",
".  c #12195B",
"X  c #30335C",
"o  c #111964",
"O  c #141C6C",
"+  c #181E68",
"@  c #161E74",
"#  c #171F7A",
"$  c #181F7B",
"%  c #0F2160",
"&  c #132769",
"*  c #13226C",
"=  c #152373",
"-  c #142B74",
";  c #16247B",
":  c #19217D",
">  c #172A7A",
",  c #143478",
"<  c #272B69",
"1  c #37386B",
"2  c #272B7A",
"3  c #2C307A",
"4  c #353675",
"5  c #423F69",
"6  c #14497E",
"7  c #524955",
"8  c #685955",
"9  c #786E4C",
"0  c #45426A",
"q  c #564D62",
"w  c #4D5077",
"e  c #645C71",
"r  c #4C7174",
"t  c #63606F",
"y  c #987B3A",
"u  c #846F4D",
"i  c #649D7B",
"p  c #B49229",
"a  c #C99E1E",
"s  c #D7A817",
"d  c #DAB218",
"f  c #E5B20D",
"g  c #EBB70C",
"h  c #F5BD05",
"j  c #F5BE07",
"k  c #E1AF12",
"l  c #EAB911",
"z  c #C29922",
"x  c #C9A423",
"c  c #D4AF2B",
"v  c #FCC201",
"b  c #F3C10A",
"n  c #E2C21A",
"m  c #98AD53",
"M  c #B0AD4E",
"N  c #98926E",
"B  c #A1A266",
"V  c #C2B141",
"C  c #A7C553",
"Z  c #162582",
"A  c #1B2384",
"S  c #1A2B84",
"D  c #182A88",
"F  c #1B2B8C",
"G  c #163384",
"H  c #1A338B",
"J  c #183888",
"K  c #1C2C93",
"L  c #1B2E99",
"P  c #1B3494",
"I  c #1B3B93",
"U  c #1C339A",
"Y  c #193999",
"T  c #202784",
"R  c #222A86",
"E  c #292F86",
"W  c #242C89",
"Q  c #282F8B",
"!  c #283687",
"~  c #2B328D",
"^  c #33398D",
"/  c #333A8D",
"(  c #212C94",
")  c #2F3690",
"_  c #21339A",
"`  c #343B92",
"'  c #383F94",
"]  c #1C2EAC",
"[  c #1B37A7",
"{  c #1E3AB8",
"}  c #2238A4",
"|  c #2535BB",
" . c #243BB8",
".. c #154689",
"X. c #154B8C",
"o. c #13538C",
"O. c #194797",
"+. c #155898",
"@. c #304B8D",
"#. c #3B4295",
"$. c #3A4698",
"%. c #146499",
"&. c #12739F",
"*. c #2B6686",
"=. c #1C47A8",
"-. c #1958A5",
";. c #1D46B5",
":. c #1D5BB6",
">. c #2247A7",
",. c #245BAC",
"<. c #2545B7",
"1. c #2357B9",
"2. c #1665A2",
"3. c #1868A8",
"4. c #1674A7",
"5. c #157CAC",
"6. c #1B69B8",
"7. c #1977B7",
"8. c #187BB5",
"9. c #2368BC",
"0. c #2974B0",
"q. c #464C87",
"w. c #454B99",
"e. c #5A7397",
"r. c #4C6CB0",
"t. c #243CC6",
"y. c #244CC4",
"u. c #294BC3",
"i. c #2947C9",
"p. c #2A53CC",
"a. c #2559C9",
"s. c #2C4AD6",
"d. c #2C53D3",
"f. c #2B5CD3",
"g. c #2455D8",
"h. c #2E55DC",
"j. c #2E5BDD",
"k. c #1C68C4",
"l. c #1D79CA",
"z. c #1C74D3",
"x. c #2668C9",
"c. c #2376C9",
"v. c #2B64D4",
"b. c #2868D4",
"n. c #2D64DC",
"m. c #2D6BDC",
"M. c #2B75D5",
"N. c #2679D7",
"B. c #2C75DC",
"V. c #2C7BDC",
"C. c #3372D0",
"Z. c #2E4EE2",
"A. c #2F59E1",
"S. c #3155E2",
"D. c #305CE2",
"F. c #2E64E2",
"G. c #2E6CE2",
"H. c #3164E2",
"J. c #306BE3",
"K. c #2E74E3",
"L. c #277FE5",
"P. c #2E7BE4",
"I. c #3071E5",
"U. c #1384AD",
"Y. c #1583B3",
"T. c #1689B8",
"R. c #1594BC",
"E. c #1498BB",
"W. c #2A84AB",
"Q. c #14A0BE",
"!. c #33A2B9",
"~. c #749392",
"^. c #73AE85",
"/. c #549CAB",
"(. c #3BC7BF",
"). c #1B8AC6",
"_. c #1993C4",
"`. c #169BC4",
"'. c #1998C7",
"]. c #1C94CC",
"[. c #169DCB",
"{. c #1C8BD3",
"}. c #1C99D5",
"|. c #258BC9",
" X c #2F93CF",
".X c #2687D8",
"XX c #2C81DD",
"oX c #238BDB",
"OX c #2599D7",
"+X c #2494DE",
"@X c #14A5C5",
"#X c #16A3CA",
"$X c #18A6CB",
"%X c #15ABCC",
"&X c #15B1CE",
"*X c #19A7D6",
"=X c #17ACD3",
"-X c #1AABD4",
";X c #1DA4DA",
":X c #1CAADC",
">X c #16B3D3",
",X c #1AB1D6",
"<X c #15BAD5",
"1X c #17B5D9",
"2X c #19B5DC",
"3X c #16BCDA",
"4X c #23A5DB",
"5X c #2D84E4",
"6X c #2688E2",
"7X c #2D8BE4",
"8X c #2694E5",
"9X c #2B92E4",
"0X c #269CE5",
"qX c #289CE7",
"wX c #1DAAE4",
"eX c #1DB4E4",
"rX c #1CB7E6",
"tX c #1BBBE4",
"yX c #1EBAE9",
"uX c #22A4E3",
"iX c #25A7E7",
"pX c #26B4E7",
"aX c #4782C5",
"sX c #16C2DD",
"dX c #16CADE",
"fX c #17C4E2",
"gX c #16CCE3",
"hX c #1AC7E9",
"jX c #16D3E6",
"kX c #23C6E8",
"lX c #868E83",
/* pixels */
"A A A A A A A A A A A A A A A A A A A A A A A A A A A A A A A A A A A A A A A A A A A A A A A A A A A A A A A A A A A A A A A A ",
"A A A A A A A A A A A A A A A A A A A A A A A A A A A A A A A A A A A A A A A A A A A A A A A A A A R ` ) ` R A A A A A A A A A ",
"A A A A A A A A A A A A A A A R R A ~ ~ ` R A A A A A A A A A A A A A A A A A A A A A A A A A ' w.w.#.` ' ' ' A A A A A A A A A ",
"A A A A A ` ` A Q A A A A A A R ~ ~ E $ $ E : : A A A A A A A Q R R Q ~ Q A ~ Q R A ` A A A ' ' ~ Q ' ' A : ~ A A A A A A A A A ",
"A A A A A A Q w.w.A A A A A $ : : : @ # @ $ : A A A A A A A ~ ` ~ Q Q ~ ' ) ~ ~ Q A A A A A ` : @ : @ : @ @ # A A A A A A A A A ",
"A A A A A A A A A A A A ~ A $ $ @ # @ @ A A E ~ A A A A A A A A E : : # A A A #.A A A A A : A : @ # # @ : # A A A Q R Q ~ Q R A ",
"A A A A A A A A A A A A R ` A A : 2 3 A F 7.0.$.A A D I I A : A : $ : : : A A A A A A A A A : : A A A A A A A A Q ~ R Q ~ Q ' ` ",
"A A A A A A A A A A A A A R A A 5 s f 5 2.$X].T.- R , `.$XX.! ` A A A A A A A A A A A Q A A A A A A A A A A A A E : A A $ $ ~ A ",
"A A A A A A A A A A A A A A A 0 h f h g r c.6Xl., & J 4X|.|.@.~ A A A A A H H F A A A A A A A A A A A A A A A A : # $ ; : : : A ",
"A A A A A A A A A A A A A A w k v m d v f e.K.;.l.).).5XXXP.B.; $ A A A A I Y.5.X.F A A A A I 8.I A A A A Q A A A $ : A A A A A ",
"A A A A A A A A A A A A A w g v d W.(.b v h r 6..XuX7.O.P.K.u.: A ..5.X.O 4.jX,XY.S A A A 3.%X@X_.= A Q Q $.A Q Q A A A A A A A ",
"A A A A A A A A ~ F A A A e h h y W.$X/.l v h r.5XP.H.6._.Y.4., O Y.rX{.G %.2X8X8XU H A @ %.,XyX+X,.O.2.=XY.= R : : A A A A A A ",
"A A A A A A A R A A A 3 0 2 y z h x  X+XlXv h r.G.H.s.E.dX$X{.x.* {.7XP.H S V.J.h.a.4.2.% S x.P.n.v.- 5.2X.XO.@ # : A : A A A A ",
"A A A R A A A A A A 3 f v 8 4 x v h N N l v m 4.P L O.>XtXqXK.G.G 1.K.D.:.H g.D..X;XrX*X>.= F :.3.5.- >.9XP.y.O A A A A A A A A ",
"A A A A A A A A A A A 8 v v s v n g h v v C W.7.+.O H l.5XP.F.h.= K i.K.).%X+.L 4.).yXqXj.u.& @XsX=X7.O <.:.J @ A A A A A A A A ",
"A A A A A A A A A A A 2 p h v b /.!.p h i  X7Xn.F O U v.J.H.h.Z ..} = #XgXgX.XU : 1.9XF.s.u.A 4.tXyX6X[ U.#X`.G = A A A A A A A ",
"A A A A : # : A A A A A 3 y v v c  X! 1 V.5XK.j._ J 3.T.-.[ @ U.hXyX+.5.OX7XK.p.= H F.S.i. .A -.hX5Xn.p.Y.tXhXc., ; A A A A A A ",
"A A A $ @ @ $ A A A A A A 2 7 v v B - 6 uXiXF.d.-.[.jXhX1X3.5.sXhXrX-.I P.G.D.m.O.- F |  .} : H 8XJ.s.{ =XhXqXK.> D A R A A A A ",
"A A A A $ O O $ : : A : : A O q.c l *.R.3XsX#X2...3XrX4X*X6...#X>X=X&XX.<. ..XtX<X#XG F 7.'.4., a.6Xa.=.H 6XP.G.I O A A A A A A ",
"A A A A $ O O $ : : : T Q Q 2 %.!.*.2.].iX0X0X+.%.0XqXXX5XM.8.oXrX8X0X}.U A ).#XhXyXiX..dX3X;X, R.=X1X3.O [ H.h.Z : A A A A A A ",
"A A A A A $ : A A A A ~ ` ~ 0.<XdXU.> M.5XK.K.I H V.V.7XP.a.=.B.x.1.x.B.<.O 2.].qX7X5X6.3XrXV.[.<X,XtXN.@ F p.[ @ ~ Q A A A A A ",
"A A A ` ) R ~ A A A A R Q O.%X;XyX9.-.oX8XL.f.A K G.8XwXrX*Xa.P.V.5XK.F.d.G +.c.P.P.n.H 0X8XP.).1XwXK.A.> 4.'.> O Q Q R A Q A A ",
"A A A ' ' A A W A A A A ; ..R.7XK.n.-.%X3X3X[.O o } wXfXjX$X7.y.b.G.S.n.z.6.R.:.i.i.F D 7XV.a.).rX0XF.d.o.%X#XX.: R Q R A ~ A A ",
"A A A R R A A A A A @ T._.* =.K.A.).sXgXtX;X}.P * J 5.fX-XOX0...l.wX{.<.fXgXfX<X7.U 2.I 1.P.<.6.P.j.h.P +.OXN.9.= A A A A ~ Q Q ",
"A A A A A A A A A F @X].c..   K >X3XrX7X7XB.n.R.gX%X].iX7X5X7X3.gXgX<XT.[.:X,X'.@X3.-X-.F Y J [ p.).>X4.S M.7Xx.= A A A A R Q Q ",
"A A A A A A A A A F [.9Xv...%., }.+X7X5XB.j.{.,XgX-X3.P.J.J.y.R.3XsXgX5.XX5XoX|.].7.:Xc.D @XR.8.Z #X%X].O.I V.* : A A A A A A A ",
"A A A A A A A ..5.G 1.J 3.`.E.Y.1.M.5X0X8XJ.8.pXiXpXqXJ ;.P F c.iXkXkXE.+.5X5X5X7Xx.b.u.T.3X:X}.* _.8X5Xx.= > : A A A R Q A A A ",
"A A A A A A X.`.R.& 4.&X'.[.2X`.; u.z.rXgX#X,.9XXXP.7X,.#XT.-.b.K.5X9XOX3.P.P.B.K.f.n.{ 5.uX9X5XO.-.P.K.I o A A A A A Q Q ~ A A ",
"A A A A A : 4.OX5X= 5.hX:XuX9XM.U %.@X3XsX=X.Xm.B.8XoX>XgXgX<Xc.m.K.K.5X..G y.y.z.N.p.Z , {.P.K.;.[ g.g.> @ A A A A A A A Q A A ",
"A A A A D -.U.#X-.D ;XuX6XV.V.5X[ [.gXtXyXpXN.b.c.3XjX3XgX-X%X2.O.=.a.f.a.[ _.Y.`.R.J # Z O.n.j.U %.6 O.: A A A A A A A A A A A ",
"A A A D +.dX*XtX}.= 6.P.B.5X5XG.] k.oXV.XX+XoXf.[ [.%X,XpXpX4X4Xc.J -.a._ G <X<X<X>X..%.#X=X3.2., T.%X8.A A A A A A A A A A A A ",
"A A A J T.OX5XP.F o [ F.G.F.A.| ] [ d.G.P.5XG.i.t.6. X9X9X9X9X+XB.[ +.Y.5.Y.;X-XqX5X>.+.-XhX:X).* ].pXoXL A A Q ` A A Q Q Q Q A ",
"A A A = >.5X5XH.;.O.K t.i.|  .b.wX6. .S.h.F.V.y.] S m.K.5XB.V.b.u.=.gXdX>X8.oX5X5XK.y.+.k.qXiX0X-.9.5Xh.L A A A ~ R Q ` ) Q Q A ",
"A A A @ * b.n.B.sX%X3.i.| k.wXrX0XXXP ] {.rX*Xl.1.J y.d.oXwXwXp. .4.>X[.8.- x.K.G.j. .$ p.V.XX5X1.J XXk.P A A A A A A A A A A A ",
"A A A A # H ).).dX1X=XO.x.wX:Xx.,.9.& T.@XgX>X#X:.- %.=XgXtX}.k.=.2.B.5XV.= Y l.l.2.+.; <.N M aX1.5.>X8.W R A ~ Q Q R Q A A A A ",
"A A A A A @ 4.@XrXiX8X`.@X<X*Xc.,.9.U.Q.<X3X3X*X6.7.@XgXjX>X1X#XG F 5XK.v.+.@X3X>X%X=X`.! c h l @.X._.M.>.) A ~ ` ~ R Q A A A A ",
"A A A A A A - c.7XP.H.7.@X;X7XV.V.5X,.<XjX=X0X0XV.c.'.3X4XpX4X4XU '.fX*X7.O.$X}.0X4X;XpX).0 h v k X 1.m.} A A A E 2 A A Q A A A ",
"A A A R A A A <.K.H.s.> {.5X5XP.v.y.! R.;X9X7XP.F.a.).4XOXN.c..X[.dXjX:X).-.c.P.P.5X5X5XV.=.t v v d 0 F A A A 1 z p 2 A A A A A ",
"A A A : A A A F [ <.O o ] F.n.u.<.;.% o.g.I.5XD.i.[ 1.B.1.V.G.Z.6.rXiX7XuX6.=.n.F.G.K.K.f. .&.^.v v v 5 A A q g v p 2 : : : A A ",
"A A $ : : A A A # O O : L { | | a.>XE.o.[ h.6X}.=X7.n.s.j.S.s.t.[ V.P.P.K.p.U [ <.i.n.+Xz.J 8.0XN v v x 4 q v v a 4 : : # # A A ",
"A A : A A A A A A A A A Z = ; O J ).tX%.- '.gX1X3X[.O { x.N.*X4.4.f.F.D.B.l.R.%X; O Y.1X%XX.D M.5XlXv v s h v g 1 A A : : @ $ A ",
"A A A A A A A A A A A A A A : @ * V.K.} - @XfXoXoXG.=.U.*XfXfXgX%X=.f.k.#X>X%X*XY   `.<X1X}.> J v.h.t v h v h 0 A A A : : : A A ",
"A A A A A A A A A A A R ~ ~ ' ~ 2 H >.! = 9.5X5X5XK.6.<XhXhXyXqXrXG @ 4.1X:X9Xm.K @ 3.).7X7XP.[ F L : 8 z f 0 A A A A A : A A A ",
"A A A A A A A A A A A ~ ~ A R ^ E X.3X8.= I m.G.J.D.).rXqX7X7X5XB.n.Z - V.5XK.d.} O > B.P.K.A.s.{ D : A 2 3 A R Q Q A A A A A A ",
"A A A A : : A A A A A R A : : : @ Y.rX6XS   H p.S.s.O.P.P.P.V.G.s.s.t.= H G.K.x.=X4.F j.D.S.S.S.U : : A ` ` #.$.~ ) ~ A A A A A ",
"A A A : : : : : : : : A : : : A o >.5XH.G U.#XT.7.H = p.h.p.s.s.| |  .    a.1X=XrX+XZ @  .s.u._ A A A A ) w.' Q A ' ' R A A A A ",
"A A A A A A A A A A A A A A A A 2 S u.U R.#X}.'./.9 . o 7.{.k.| ] P #XY.o.X.].4X7XP.d.: Z F A A A A A A : ! 2 $ : $ w.A A A A A ",
"A A A A A A A A ~ Q Q R R R A A : ; +.+._.uX7XV v m %.E.3X3X=XP * 5.2XyX-.* N.5X5XK.j._ A : A A Q Q A A : : : : A : A : A A A A ",
"A A A A A ~ ' #.w.w.w.' ' #.A A A Y.3X_.2.qX~.v v w rXrXpX7X.Xu.Z 3.0XJ.h.o * y.H.D.S.<.A R ~ ~ Q ' ~ R A A A A A A A A A A A A ",
"A A A A A ~ ' w.E E $ : $ ^ A A : T.pXOX* r.v v 9 X.yX5XP.G.B.m.F =.P.F.p.J   A i.h.a.P A R ~ Q : E E : $ : # $ A A A A A A A A ",
"A A A : $ @ $ $ @ @ @ $ $ A A A J -.5XK.< k v p 6 Y n.F.S.h.B.].X.O <.9.T.T.+.o A L K Q ^ E A A $ $ : @ # # @ $ A A A Q A R R A ",
"A A A A : @ @ : A $ $ A A A Q A : P n.d.p v v i 4.%.=.{ k.*X[.=X#X+.o Y.`.3X).U A A A A A A A : : A A A : A : A A A ~ ` Q ~ Q R ",
"A A A A A A A A A A A A A ~ 3 2 A A _ u v v v v M 0.3.J - `.#X}..X.., O 7.rX6XK.} A A Q ~ A A A Q Q A R R A Q A R ~ R Q R T A T ",
"A A A A A A A A A A A A A q s s 1 2 5 h v ^.~.v v B C.,.O +.7XP.K.p.; I 1.K.H.i.K T T ~ E Q A A Q ~ A A Q R Q ~ Q E R : : : A A ",
"A A A A A A A R R R A A A q k h g s a v p C.x.~.v v ~.} , G -.K.L.v.T.&XY.K K K : : : A A A A A A A A A A A A Q A : # $ : A A A ",
"A A A Q Q A A R T T A A A T 8 f v v v s 5 F U j.r.e.i.-.#X'.8.7.1.8.sX2X6.{ Z A : A A A A A A A A A A A A A A A A A A A A A A A ",
"A A ~ ~ ~ T A A : : A A A A : 1 y h v v f 7 < K ] ( F %.|.+X+X2.o * uX5XP.f.F A A A A A A A A A A A A A A A A A A A A A A A A A ",
"A A Q R R A : : : A A A A A # O + X u v v v s 3 A A A >.5XK.D.u.F O p.J.n.} A A A A A A A A A A A A A A A A A A A A A A R A A A ",
"A A A : : : # : : $ : A A : E E : ^ w.e d v v y T A A F <.u.} F A R ( } _ A A A A W A A A R A A A : A A A A A A A A A A A A A A ",
"A A A A A : : A A A A A A A ~ ' #.w.~ Q q.e c s ^ A Q Q A A A A T R ^ Q ~ Q A A T ~ R A A A A A : @ @ A A $ # : E A W ' A R Q R ",
"A A A A A A Q ) R R R R A A A Q ^ $ # $ # @ w q.#.A ~ Q A A A A A A Q Q ~ A A #.^ ' Q R A A A A @ O O @ @ # @ @ @ : A ~ ' ' ' R ",
"A A A A A ~ ) ) ~ Q ~ ~ A A A A A : : @ @ @ @ : ) A A A A A A A A A A A A A A A A A A # : A $ @ O O O @ $ A A : : A A A A A A A ",
"A A A A A Q ~ A R R R R A A A A A A A A A A : A A A A A A A A A A A A A A A A A A A A : : A A # @ @ ; A A A A A A A A A A A A A ",
"A A A A A A A A A A A A A A A A A A A A A A A A A A A A A A A A A A A A A A A A A A A A A A A A A A A A A A A A A A A A A A A A "
};
