/* XPM */
static const char *grass_snowy[] = {
/* columns rows colors chars-per-pixel */
"64 64 34 1 ",
"  c #A6B776",
". c #A7B875",
"X c #ABBB73",
"o c #ABBC73",
"O c #AFBF73",
"+ c #ABBB74",
"@ c #ABBC74",
"# c #ACBC74",
"$ c #B6C66F",
"% c #B8C76F",
"& c #B9C96F",
"* c #BBCB6F",
"= c #BDCB6F",
"- c #BDCC6F",
"; c #AFC072",
": c #B3C371",
"> c #B6C671",
", c #B8C771",
"< c #BACA71",
"1 c #BCCB70",
"2 c #BECC70",
"3 c #C1CF6F",
"4 c #C3D16F",
"5 c #C4D26F",
"6 c #C7D56F",
"7 c #C9D66F",
"8 c #CBD86F",
"9 c #CCD86F",
"0 c #C0CE70",
"q c #C2D070",
"w c #C4D270",
"e c #C6D470",
"r c #C9D770",
"t c #CCD970",
/* pixels */
"8<O:25442>O>76<2q444688 >60>:qq<232-q599766<<44:O<<13>><:>-><677",
"0>::<76<:>>>663><3<4672.674<:<2::<2-56778624<<<>:>>=-:OO:>::<775",
"<-:<-65>>:>&675<><<447<>54q03-,##:<256w54>>1>. .+:O><>1<3>OOO33<",
"1->2242<>O><2<<>>>2qw03><4054-3>#:<2-402<0555-:OO->OX:66=>>++:O:",
"<6-4575w2>>-55775<26675>24354-52>:>12332-45651%$:O#::,7<<473:O&3",
":44>57423<<O>6785<<478O455056554:+O:><2<-3453<<3>++,5->25784-;:<",
">-<:152235-<26760>>476252265443e22><<<,><<<=-&>>:O:>73::>754-,&>",
"><::<-455&<146651<2451>5<>q5125w685:>4<<>-<&->:OO:&-4>&>:5435<;;",
":::O-<5-=-&<<-1<>14433<23-2q246wr51<,><22==<<>>,::&4>:&<>>>16<O#",
":::o<<43354-23<>>12003114554<<12q242<<1<><=::<::>>&4<:O:<-457<+:",
"#@O:><25756432,>>1-0q4<552q0<>2we70<11222=>:O>:::><--->+>&>1:O+:",
":O>1&>>4w44332<<14-q6226521<22>49731-3q03>>::<:&<--<<-5<>-776:O>",
"<><2<:453<-3-322&<>26324422><w62697<<42<<::><<O>355&>3663>-54><<",
"2553>2<3-<>::-20<,<26124-1:><q772561-65<>O>154O>34-1>26762>-2>32",
",552--<==&2:>2>>O::>:><>:<:>><59e<32-40<:>>06-O<>><2<3653-<:::--",
"1766742<<-->>242<>:::>>13<<01<q8752<<2->>3<>2-<4-202<<44462::14<",
"65<2122<><1<1540-5<>>>O:1>266668e562<<1>065<>,>345562-<<&2>::::2",
"5:5672<,>>><456776<32>#+>>578966q441<12-3552>>:-6644,&>:><>><::4",
"6899965<::<20469842451>:+:169987e2<<1053<<342><5443<::<<>::<342>",
">489952>><<-2-677222-235>O><599rt74,<-65<<4432202->><1564<><5684",
"5<487->>245-20655122<<573:::<79w78->:<474453-324>XO>258775<>2768",
"94<54>:>330-<<456422<4773:1<>14256>OO:-777635423:O+:<57974221468",
"87->>::<402<:<-033<<0576><<<<:<<<2>:<>>476655-<:OO>>>37743442<28",
"731>><<24-<<<<<<,><47772><><42:>2>>>43q562-452:::><<>250-5666<<6",
"q>><<2>153><1>>>><&48975562<-42>#O:3557751-44<::><<<2>2<<05-4520",
":<-4-,<<44-=<:OO:<348756893<52<<::>-3<7-423-<<<22<>465244w67875>",
":<03-<><><&&:XXO::<24q4w77<<24>:+#O+:>:2416<:<35<><565-2qw54665>",
"1<<>>41<4=&$:O:O<1>44<25631<0<-<>03<>574>2542q453:>45222223244<1",
"4>>:<34--54<::,-23<32233:52>15562441>:64<<<<<>5744555640<>><1:2w",
"6,:-3w67-&32<<--54<-2>2>&4::,<>2q5<><1>>:<>:3774646777541:><O>36",
"7<3446663<>-4><154>>=2>>0<<<222577>>><<:::+X>644-<577675<>>:O>57",
"<25576696->>52<<--<>,::>::<:2qw6863<>>><q2#><>O-4<49779q 2<::<q6",
"232-q599766<<44:O<<<3>,<:>-><6778<O:25442>O>76<2q444688 >60>:qq<",
":<2-56778624<<<>O>>=-::O:>::<7750>::<76<:>>>663><3<4672.674<:<2:",
"#:<256w54>>1>. ..:o><>1<3>OOO33<<-:<-65>>:>&675<><<447<>54q03-,#",
"#:<2-402<0555-:OO->OX:66=>>++:O:1->2242<>O><2<<>>>2qw03><4054-3>",
">:>12332-45651%$:O#::,7<<473:O&3<6-4575w2>>-55775<26675>24354-52",
":+O:><2<-3453<<3>++,5->25784-;:<:44>57423<<O>6785<<478O455056554",
"22><<<,><<<=-&>>:O:>73::>754-,->>-<:152235-<26760>>476252265443e",
"685:>4<<>-<&->:OO:&-4>&>:5435<::><::<-455&<146651<2451>5<>q5125w",
"r51<,><22==<<>>>::=4>:&<>>>16<O#:::O-<5-=-&<<-1<>14433<23-2q246w",
"q242<<1<<<=::<::>>=4<:O:<-457<+::::o<<43354-23<>>12003114554<<12",
"e70<11222->:O>:O:><--->+>&>1:O+:#@O:><25756432,>>1-0q4<552q0<>2w",
"9731-3q04<>::<:&<--<<-5<>-776:O>:O>1&>>4w44332<<14-q6226521<22>4",
"697<<42<<::><<O>355&>3663>-54><<<><2<:453<-3-322&<>26324422><w62",
"2561-65<>O>154O>34-1>26762>-2>322553>2<3-<>::-20<,<26124-1:><q77",
"e<32-4q<:>>06-O<>><2<3653-<:::--,552--<==&2:>2>>O::>:><>:<:>><59",
"752<<2->>3<>2=<4-202<<44462::14<1766742<<-->>242<>:::>>13<<01<q8",
"e562<<1>065<>,>345562-<<&2>::::265<2122<><1<1540-5<>>>O:1>256668",
"q441<12-3552>>:-6644,&>:><>><::45:5672<,>>><456776<32>#+>>577966",
"e2<<1053<<342><5443<::<<>::<342>6899965<::<20469842451>:+:169987",
"t74,<-65<<4432202->><1564<><5684>489952,><<-2-677222-235>O><599r",
"78->:<474453-324>XO>258775<>27685<487->>245-20655122<<573:::<79w",
"56>OO:-777635423:O+:<5797422146894<54>:>330-<<456422<4773:1<>142",
"<2>:<>>476655-<:OO>>>37743442<2887->>::<402<:<-033<<0576><<<<:<<",
"2>>>43q562-452:::><<>250-5666<<6731>><<24-<<<<<<,><47772><><42:>",
"#O:3557751-44<::><<<2>2<<05-4520q>><<2>153><1>>>><&48975562<-42>",
"::>-3<7-423-<<<22<>465244w67875>:<-4-,<<44-=<:OO:<348756893<52<<",
"+#O+:>:2416<:<35<><565-2qw54665>:<03-<><><&&:XXO::<24q4w77<<24>:",
">03<>574>2542q453:>45222223244<11<<>>41<4=&$:O:O<1>44<25631<0<-<",
"2441>:64<<<<<>5744555640<>><1:2w4>>:<34--54<::,-23<32233:52>1556",
"q5<><1>>:<>:3774646777541:><O>366,:-3w67-&32<<--54<-2>2>&4::,<>2",
"77>>><<:::+X>644-<577675<>>:O>577<3446663<>-4><154>>=2>>0<<<2225",
"863<>>><q2#><>O-4<49779q 2<::<q6<25576696->>52<<--<>,::>::<:2qw6"
};
