/* XPM */
static const char *grass_dry[] = {
/* columns rows colors chars-per-pixel */
"64 64 32 1 ",
"  c #A7BE36",
". c #A9BF34",
"X c #A4BD39",
"o c #AFC52F",
"O c #BECE26",
"+ c #B3C72E",
"@ c #B6C92C",
"# c #BACC29",
"$ c #BFD025",
"% c #ACC332",
"& c #AFC531",
"* c #A9C134",
"= c #AAC134",
"- c #ADC334",
"; c #B0C530",
": c #B2C830",
"> c #C7D51E",
", c #CBD71F",
"< c #CCD71E",
"1 c #CBD81B",
"2 c #CCD91B",
"3 c #CBD81E",
"4 c #CFDA1C",
"5 c #D0DB1B",
"6 c #C0CF25",
"7 c #C3D321",
"8 c #C4D322",
"9 c #C7D521",
"0 c #C2D125",
"q c #C3D224",
"w c #C9D620",
"e c #C0D028",
/* pixels */
"4#&;O9990+%@2,#08799,44X@,0+;89#07608w454,,##98+&##O7@##+@0@#,44",
"0@&;#4,#++@@,,7@#7#7w4OX,39#+#O:;#O0>,424,69O##@&@@O7+&%+@++#44>",
"#$+O0,9#+;@O,49#@##993#+,98070#*&+#09w9w9@@O#XXX +*@#@O#7@***87O",
"OO@6080#@%+#0##@+#00907@#909807@&;OO090O#0ww,7+%%O@%*+,,O@@* &%;",
"#,07>499O@@79922w#O,,<9#097w90,0++@O077008,,,O##&%*&+#4##937+%#7",
"+99@92907##%@,44>##944&9,,0w,999& *+@#O#O7897#O8@  #,0@6w4490&+#",
"@O#+Ow007,0#O,4,0@@94,090Oww997w0O##O##@#O#O0O#@;&o@20+&@4,97#O#",
"@#+;O09,wOOO9,,9O#09wO@w#@0wOO99w49;@7###O#O7@&&%+#O9@O@&w87,#&&",
";++%OO90OOO#O7O###9877#O70O8O7ww39O##@#O0OO##@@#++O9#&O#@@@O,O*-",
";;+*#O987w8767O@@O0007OO9997#O#e0O9O##OO##O++#++@@O9#+%+#0>>4#*;",
"**%;@#0w1,,>70#@#O0089O,9070O@Oww40#OO000$+&%@+&++#7$O@ @O@O;* +",
";*@O##@899880O##O908,O0,w0##0O@9547OO7008#+&;#+##0OO#O>#@04<,+&@",
"##O6#+7,8#077700OO@0,70890#@#9,0w54OO90##;+@#O&#7w,O#7,,7@0,9@##",
"0,,8#OO7O#@++OO0O##0,O697O++#0440w,O0,9#@*@O98&@797O@6,<,0@O0@7O",
"#,,O$0#OO#O+#O@@%;;@;+#@+#+#@#w4w#7O088#+@@0,0&#@+#0O7,w70#&;;0$",
"O<,,<8O##O0@@O9O#@;;+@@O7O#0##944w0#O60@@7##OOO90600#O798,0;;O8O",
",9OOO00O@#O#O99009#@@@%+O@0w,w,4w9,0##O@0,w#@#@78w,,0O##OO@;+;;0",
"9&w,26##@@##99w44,#70@**@@9445,w997O##0O79,0#@+6,,99#O@+@O#@#;&9",
",4555,9#+;#O09,449O89##&*+O,5544w0O#O0>7#O796##,997#++##@&+#7>0@",
"@8455wO#@#O$O0,440000O79@*@#w554549##$,wO#8870O000@@#O9,9#@O,,27",
"9#9240@@O79O60,99OOO##w<7+;;#45w44$@&#8488>70767@*&+O94449#@O4,4",
"59Ow8@;@770O#O89,90OO8447+O#+#90w,@%%+0<<4w898O7+**+#945480OO9,2",
"4<7@++;#800#+OO077##0,4,#O#O#+###0++#@@84,,9w0O+%%@+@73497780#02",
"37O@+##O90#O#####@#94440@#@O90++0@@@9789,609wO+++@##@0w00,,,,##,",
"8#@##O#O97@OO@@+@#O94549w,OO090@&&+7w944>O098O&+@##OO#0##0909,O0",
";#O80##O99$O#+%%+#7943w,457#w0##;+@07#<0960$###OO##7,w0799,4449@",
";O070#@O@O#O+..%o+#O789w42O#67@;**%*;+;09O,#&O7wO@#9,w0O8999,,w#",
"###@#8O#8OO@+o+%#O#98#09,7O#0#0#@07#@w49@O,9077,7+@9w0OO$07O88##",
"9#@;#89$0>8#++#O07#70077+,0@O99,O99O@;,9#O###@94989www90#+@#O+Ow",
",#+079,47O76#O7099#70@0@O8o&###00wO##O@@+#@+7449,9,444w7O+@#&+7,",
"4#788,,,7O#$8##O,>#@O6@@0##O000w34@@@O#+++ *#,99O#w44,39#@@;%@w4",
"#0994,w5,0#@wO##07#@#&+@;+#;O89,4,7#@+@#8O*+#@&09O744448X0#+;#9,",
"07608w454,,##98+&##O7@##+@0@#,444#&;O9990+%@2,#08799,44X@,0+;89#",
";#O0>,424,69O##@&@@O7+&%+@++#44>0@&;#4,#++@@,,7@#7#7w4OX,39#+#O:",
"&+#$9w9w9@@O#XXX +*@#@O#7@*%*87O#$+O0,9#+;@O,49#@##993#+,98070#*",
"&;OO090O#0ww,7+%%O@%*+,,O@@* &%;OO@6080#@%+#0##@+#00907@#909807@",
"++@O077008,,,O##&%*&+#4##947+%#7#,07>499O@@79922w#O,,<9#097w90,0",
"& *+@#O#O7897#O8@  #,0@6w4490&+#+99@92907##%@,44>##944&9,,0w,999",
"0O##O##@#O#O$O#@;&o@20+&@4,97@O@@O#+Ow007,0#O,4,0@@94,090Oww997w",
"w49;@7###O#O7@&&%+#O9@O@&w87,#&&@#+;O09,wOOO9,,9O#09wO@w#@0wOO99",
"39O##@#O0OO##@@#++O9#&O#@@@O,O*-;++%OO90OOO#O7O###9877#O70O8O7ww",
"0O9O##OO##O++#++@@O9#+%+#0>>4#*;;;+*#O987w8767O@@O0007OO9997#O#e",
"w40#OO000$+&%@+&++#7$O@ @O@O;* +**%;@#0w1,,>70#@#O0089O,9080O@Ow",
"547OO7008#+&;#+##0OO#O>#@04<,+&@;*@O##@899880O##O908,O0,w0##0O@9",
"w54OO90##;+@#O&#7w,O#7,,7@0,9@####O6#+7,8#077700OO@0,70890#@#9,0",
"0w,O0,9#@*@O98&@797O@6,<,0@O0@7O0,,8#6O7O#@++OO0O##0,O697O++#044",
"w#7O088#+@@0,0&#@+#0O7,w70#&;;0$#,,O$0#OO#O+#O@@%;;@;+#@+#+#@#w4",
"4w0#O60@@7##OOO90600#O798,0;;O8OO<,,<8O##O0@@O9O#@;;+@@O7O#0##94",
"w9w0###@0,w#@#@78w,,0O##OO@;+;;0,9OOO00O@#O#O99009#@@@%+O@0w,w,4",
"997OO#0O79,0#@+6,,99#O@+@O#@#;&99&w,26##@@##99w44,#70@**@@9445,w",
"w0O#O0>7#O796##,997#++##@&+#7>0@,4555,9#+;#O09,449O8w##&*+O,5544",
"549##$,wO#8870O000@@#O9,9#@O,,27@8455wO#@#O$O0,44$000O89@*@#w554",
"44$@;#8488>70767@*&@O94449#@O4,49#9240@@O79O60,99OOO##w<7+;;#45w",
"w,@%%+0<<4w898O7+**+#945480OO9,259Ow8@;@770O#O89,9$OO8447+O#+#90",
"#0++#@@84,,9w0O+%%@+@73497780#024<7@++;#800#+OO077##0,4,#O#O#+##",
"0@@@9789,609wO+++@##@0w00,,,,##,37O@+##O90#O#####@#94440@#@O90++",
"&&+7w944>O098#&+@##OO#0##0909,O08#@##O#O97@OO@@+@#O94549w,OO090@",
";+@07#<0960$###OO##7,w0799,444w@;#O80##O99$O#+%%+#7943w,457#w0##",
"**%*;+;09O,#;O7wO@#9,w0O8999,,w#;O070#@O@O#O+..%o+#O789w42O#67@;",
"@07#@,49@O,9088,7+@9w0OO$07O88#####@#8O#8OO@+o+%#O#98#09,7O#0#0#",
"O99O@;,9#O###@94989www90#+@#O+Ow9#@;#89$0>8#++#O07#7$077+,0@O99,",
"0wO##O@@+#@+7449,9,444w7O+@#&+7,,#+079,47O76#O7099#7$@0@O8o&###0",
"34@@@O#+++ *#,99O#w44,39#@@;%@w44#788,,,7O#$8##O,>#@O6@@0##O000w",
"4,7#@+@#8O*+#@&09O744448X0#+;#9,#0994,w5,0#@wO##07#@#&+@;+#;O89,"
};
