/* XPM */
static const char *gravel[] = {
/* columns rows colors chars-per-pixel */
"64 64 157 2 ",
"   c #565656",
".  c #5C5B5B",
"X  c #7A574C",
"o  c #7C5A4F",
"O  c #6D5555",
"+  c #665C59",
"@  c #6A5C5C",
"#  c #745555",
"$  c #785757",
"%  c #7E5D53",
"&  c #755F5F",
"*  c #7B5B5B",
"=  c #7F6056",
"-  c #646464",
";  c #6B6363",
":  c #6B6B6B",
">  c #7F6262",
",  c #726D6D",
"<  c #737373",
"1  c #7A7474",
"2  c #787877",
"3  c #7C7C7C",
"4  c #806157",
"5  c #82655B",
"6  c #86685F",
"7  c #826464",
"8  c #846A62",
"9  c #896E65",
"0  c #856B6A",
"q  c #8B7067",
"w  c #80706C",
"e  c #8B736B",
"r  c #877373",
"t  c #8C7573",
"y  c #8C7A75",
"u  c #857C7C",
"i  c #8E7A78",
"p  c #907770",
"a  c #937C75",
"s  c #947F79",
"d  c #A37569",
"f  c #94827D",
"g  c #99837D",
"h  c #A68076",
"j  c #AB887E",
"k  c #B48575",
"l  c #B58779",
"z  c #B58A7C",
"x  c #B88B7C",
"c  c #848484",
"v  c #8D8685",
"b  c #8C8C8C",
"n  c #958481",
"m  c #9A8582",
"M  c #968985",
"N  c #9C8B85",
"B  c #948B8A",
"V  c #9C8E8A",
"C  c #9C918E",
"Z  c #959494",
"A  c #9B9594",
"S  c #9C9C9C",
"D  c #A18D87",
"F  c #A18F8A",
"G  c #B38E82",
"H  c #B98F81",
"J  c #A3928D",
"K  c #AD958D",
"L  c #B39184",
"P  c #BB9386",
"I  c #B2958A",
"U  c #BA9589",
"Y  c #BC9A8E",
"T  c #A39592",
"R  c #AB9792",
"E  c #A69995",
"W  c #AB9B95",
"Q  c #A29D9C",
"!  c #AB9D9A",
"~  c #B59B92",
"^  c #B39F99",
"/  c #A6A19F",
"(  c #ACA29E",
")  c #B3A39D",
"_  c #BBA29A",
"`  c #A4A4A4",
"'  c #ABA4A3",
"]  c #ABA8A7",
"[  c #ACACAC",
"{  c #B1A6A4",
"}  c #B2A9A6",
"|  c #BBA9A3",
" . c #B2ADAC",
".. c #BAAEAA",
"X. c #B6B0AE",
"o. c #BBB1AE",
"O. c #B4B4B4",
"+. c #BBB6B4",
"@. c #BDB8B7",
"#. c #BCBBBB",
"$. c #C3A59C",
"%. c #C8A69C",
"&. c #C1AAA3",
"*. c #C0AEA8",
"=. c #C9B0A7",
"-. c #C5B3AE",
";. c #C2B6B2",
":. c #C1B9B6",
">. c #CBBBB6",
",. c #C2BDBC",
"<. c #CABFBC",
"1. c #C6C1BF",
"2. c #CBC1BE",
"3. c #D1C2BF",
"4. c #C4C3C3",
"5. c #C9C5C5",
"6. c #CBC8C7",
"7. c #CBCBCB",
"8. c #D0C6C3",
"9. c #D1CDCD",
"0. c #D2D0CF",
"q. c #D8CFD0",
"w. c #D0D0D0",
"e. c LightGray",
"r. c #D5D1D1",
"t. c #D4D3D3",
"y. c #D7D3D3",
"u. c gray83",
"i. c #D7D7D7",
"p. c #D9D7D7",
"a. c #D8D8D8",
"s. c gray85",
"d. c #DCD9D9",
"f. c #DEDBDB",
"g. c #DDDDDD",
"h. c #E0D9D9",
"j. c #E2DDDD",
"k. c #E2DEDE",
"l. c #E9DDDD",
"z. c gray89",
"x. c #E5E1E1",
"c. c gray90",
"v. c #E7E7E7",
"b. c #E8E2E2",
"n. c #EEE3E3",
"m. c #EAE5E5",
"M. c #EDE7E7",
"N. c #EEE9E9",
"B. c #F0E3E4",
"V. c #F2E5E6",
"C. c #F5E7E8",
"Z. c #F2EBEB",
"A. c #F3EDED",
"S. c #F4EDED",
"D. c #F8E9EA",
"F. c #F7F0F0",
"G. c #F9F2F2",
/* pixels */
"` #.z.z.7.[ 4.4.s.z.e.#.O.6.4.O.4.O.#.#.u.4.] s.7.S O.O.s.s.e.g.4.` 4.u.c.c.c.s.s.z.7.O.[ S ` 4.] [ ` s.s.7.6.7.e.7.4.O.Z #.g.Z ",
"4.Z #.u.e.#.` Z #.[ 4.[ #.e.S ] #.S #.6.u.e.#.[ [ u.6.7.#.u.#.s.6.#.+.[ O.4.e.7.O.u.z.4.6.6.6.,.4.#.O.s.e.4.u.6.s.g. .A 6.f.g.#.",
"e.O.` 7.[ S `  .` u.4.4.#.Z [ n 9 m 4.g.#.4.O.u.4.4.] 4.6.u.,.#.#.7.4.] b . : c 7.s.7.O.4.O.O.4.,.7.4.#.4.O.u.e.s.g.:.e e o.s.7.",
"e.] [ ] Z 7.#.O.4.u.e.e.4.[ #.f 5 9 T u.6.O.` 6.[ #.#.6.6.#.#.#.u.#.#.] S Z   < 6.e.] [ 7.O.O.u.s.e.e.4.z.4.O.X.+.@.+.W q } 4.s.",
"g.g.4.O.#.4.#.O.O.O.6.4.#.O.6.4.{ ,.@.#.e.4.4.4.[ 4.s.g.7.e.#.O.4.,.e.[ ] < - : 6.#.4.u.u.#.O.#.7.4.s.4.u.[ ` y e J } s e s u.z.",
"g.#.] 7.g.` Z O.[ Q ] #.S #.g.#.#.[ ` V s W E O.[ #.O.#.#.O.] - Z : z.O.4.7.[ [ 6.r.9.k.u.s.#.#.O.` [ [ e.#.S m % 5 V [ #.u.4.u.",
"s.[ [ z.g.4.Z ' k G 6.e.e.e.u.#.4.7.@.8 % 9 f [ e.6.[ 6.[ [ .     Z g.e.#.4.#.#.r.S.G.x.6.4.6.7.s.4.O.u.7.4.@.F N J +.e.4.#.#.O.",
"] 4.u.] Z 3 B j z %.9.#.u.7.4.s.s.s.#.V e e s O.4.O.#.7.#.<     . . 6.4.[ 7.7.O.4.M.b.f.p.[ #.e.4.O.] O.4.#.` @.] 4.u.7.e.e.e.4.",
"S 6.4.c - . < 2 4.V.D.h.6.e.e.c.s.4.] O.@.! W e.4.4.4.e.6.7.: 3 c Z  .[ 4.[ b c ` #.` ! T } ` ] ] O.] #.#.O.[ [ ` [ u.e.O.[ [ #.",
"#.g.g.Z 3 : < . S n.B.r.4.s.s.g.g.s.4.O.e.p.e.u.7.u.s.7.4.4.Z O.4.9.k.f.4.3 . . b 6.` r $ 7 ! O.,.4.[ S S O.#.x.N.9.4.4.4.` Z [ ",
"g.c.g.#.#.Z b c b ,.9.@.7.#.u.c.u.u.e.e.4.#.4.s.#.4.#.#.` O.[ [ 9.S.Z.m.5.b i g _ *.! i > * F { t V t Z #.#.f.S.G.M.4.4.S S [ u.",
"7.6.4.[ #.O.4.e.-.) Q [ O.4.O.u.s.s.e.s.7.#.O.#.#.4.#.#.[ #.#.#.c.Z.h.m.p.:.z x H I }  .' Q #.#.t t $ $ [ Z #.p.A.S.f.4.#.S 6.g.",
"4.O.` O.] 7.#.6.-.U W  .[ u.6.e.4.4.O.4.4.O.e.#.6.4.#.7.6.[ 4.s.7.x.9.u.f.@._ U z Y / ] S < c O.4.m 0 t s.[ [ 9.M.Z.e.#.#.#.4.e.",
"4.4.O.] ] 6.4.O.6.:.@.7.e.z.g.e.6.6.4.A u c  .b O.[ 4.[ O.[ 7.k.6.4.7.6.4.7.Q +.K | Z -   . . [ 4.6.#.O.r.N.A.#.4.[ S Z ] O.#.#.",
"e.7.4.O.#.u.6.#.[ 4.7.6.e.u.s.4.4.4.Z ; # O , : Z ] 6.7.6.k.m.#.7.4.O.S.m.k.O.[ 4.7.#.- .   - Z O.O.O.#.b.Z.G.#.b < Z O.S [ #.[ ",
"b [ 6.4.` 6.s.#.u.7.O.O.4.O.4.6.#.[ 3 . O # @ - : ` ] s.k.S.N.x.[ 4.e.;.2.f.O.#.6.7.Z 3 : : [ #.6.6.[ [ [ u.p.O.: . O.4.[ 4.O.] ",
"O.` [ 6.4.6.4.4.O.O.O.#.7.7.[ O.#.Z c 1 & & u < - b ` #.p.A.S.S.A.e.! % 5 r.e.4.4.s.x.S.m.u.#.4.4.O.c < b #.6.[ < < #.4.O.#.4.s.",
"s.s.;.f A 6.O.] O.4.#.#.6.7.4.` #.4.4.#.4.6.[ Z Z Z #.6.,.,.f.5.[ O.y % 6 J 6.4.#.u.4.f.x.u.e.4.[ Z . . - Z 6.O.] O.6.4.Z O.u.7.",
"u.( 9 = n O.7.` ` 4.4.#.6.#.#.6.#.] e.#.6.5.9.e.7.S [ [ 4.[ 5. .] [ O.m ( T 6.g.e.O.6.N.S.m.4.O.6.b : < 3 b s.4.O.4.s.6.S 4.4.7.",
"S t = 8 C 4.7.4.[ 4.s.e.#.#.O.O.e.O.#.O.5.B.l.f.7.[ Z Z Z ] O.4.] ] Z [ 6.4.e.s.e.Z ] #.[ [ #.[ 4.#.O.O.` O.4.4.4.4.Z 4.#.` [ 4.",
"[ @.f J [ O.O.#.O.[ #.7.#.4.4.} ..J } A 5.q.k.p.4.6.[ S [ [ O.] 3 .   . Z 4.O.S ` O.S Z i y F V #.4.4.#.[ [ 4.#.#.#.#.9.r.O.O.7.",
"#.O.O.6.6.e.f.4.7.#.[ [ #.6.u.s f a N ` [ X.u.O.e.7.e.4.#.4.O.4.-       c 6.4.[ 4.u.4.O.f % s ' 4.7.s.7.O.#.6.6.e.6.g.Z.N.O.6.s.",
"u.4.O.] #.k.C.9.4.g.s.u.O.O.s.o.J s e A e.6.O.7.7.` 4.@.f g } A , .   . : [ 4.7.u.s.7.4.#.0.J n e.g.7.#.s.7.#.O.4.#.e.S.r.` g.c.",
"u.z.4.4.5.f.l.n.6.s.e.4.O.O.7.#.@.W T o.u.] 4.4.O.#.4.s $ d j G ..[ Z 4.e.u.#.] O.u.u.u.#.6.#.6.6.z.s.7.7.g.#.u.[ O.u.z.e.[ s.s.",
"s.4.#.7.4.O.#.4.e.s.#.` A Z O.[ [ 7.u.7.#.] 4.e.[ #.9.T i h l k z ) 4.e.c.e.4.e.O.#.u.e.[ 7.[ #.O.[ 4.e.6.4.O.O.[ [ 6.u.g.s.7.O.",
"6.z.s.7.4.O.O.[ S [ 2 : ; 3 [ c , O.z.g.6.` Q ,.] u.u.6.r.4.} z %.-.9.m.e.u.f.S.r.4.7.O.O.4.[ 7.7.[ O.u.O.[ ] 4.[ #.O.e.#.4.#.4.",
"O.6.6.s.6.e.#.3 . : ; O # . < .   3 4.g.6.J t y M s.6.4.4.4.u.#.h.m.Z.G.[ p.F.G.p.6.4.#.#.[ ] 6.#.O.6.4.@...,.e.4.4.s.6.6.e.] [ ",
"O.e.s.e.7.#.u.[ < - O O # # : : - [ [ #.[ f = % 4 V #.S Z O.g.4.#.p.A.f.4.s.5.m.g.s.u.7.6.#.#.[ b Z Z S e 5 e ,.#.#.#.e.e.u.,.#.",
"[ [ #.4.7.6.4.S [ 4.[ v 3 4.Z < : b 6.k.4.7.! 9 4 D ' 4.6.g.z.4.O. .r.#.6.g.g.#.4.6.s.s.4.#.< < . : . - V 5 f  .4.4.#.O.e.u.#.[ ",
"z.e.O.[ [ 4.V M O.e.s.g.s.s.e.6.4.r.A.S.u.e.7.9.@.#.[ #.[ e.#.O.e.O.[ e.s.s.#.[ O.6.7.u.[ #.1 . - : . < Z ' e.u.7.4.#.O.[ ` 4.g.",
"e.z.e.] 7.T 5 % A #.g.g.g.7.k.k.N.Z.S.m.f.s.6.#.6.O.s.6.6.6.E T e.O.[ g.4.7.#.#.[ 4.#.4.Q #.A Z b c . c ] ] 4.6.#.#.@.O.6.#.4.e.",
"S #.4.[ g...9 p [ e.` ] 7.#.b.m.Z.F.m.O.4.O.O.O.Z 4.#.[ [ s.} e T g.z.g.u.z.s.s.s.u.#.#.i m #.[ Z Z c 3 O.b O.e.e.4.M V 5.s.7.[ ",
"4.` 4.s.c.c.| :.u.z.7.O.[ Z #.k.M.k.,.s.s.7.6.7.e.7.4.O.Z #.r.B Q #.c.c.7.[ 4.4.s.z.e.#.' #.#.O.4.O.#.#.u.4.] r.J 8 4 % p.s.e.g.",
"6.#.#.[ O.6.7.p.e.u.z.4.6.6.6.7.s.u.#.g.e.4.u.6.z.N.6.O.g.c.g.#.4.Z #.u.e.#.Q Z #.[ 4.[ 4.s.S ] 4.` #.6.u.e.#.[ i % X 4  .u.#.s.",
"#.7.4.[ ` #.O.O.7.u.7.O.4.+.O.4.#.6.4.#.4.O.u.e.z.A.M.u.#.g.s.7.e.O.` 7.[ S ` O.` u.4.7.S.S.[ [ ] e.e.g.#.4.[ e.E 4 % J ,.u.4.#.",
"u.#.#.] S ] O.#. .W M ` e.O.O.u.u.e.7.Z 6.` [ 4.g.m.m.r.4.#.4.s.e.] [ ] Z 7.#.O.4.u.e.b.x.b.#.S O.4.#.g.6.O.` 4.A V N ,.6.#.#.#.",
"4.4.e.[ O.#.[ ` } e g 5.u.4.O.#.6.4.e.: 3 < S Z 4.k.p.<.! ) >.k.g.g.4.O.#.4.#.O.O.O.6.4.#.O.6.6.6.g.6.4.e.4.4.4.[ N.Z.g.7.e.#.#.",
"#.s.z.O.4.6.Q Q ' e e :.u.s.#.#.] : 3 . b 3 Z 6.#.Z [ K L P z 8.g.#.] 6.s.b b [ [ Q ] #.S #.g.#.p.f.r.9.' @.#.#.k.G.S.#.#.O.#.s.",
"Z 7.z.e.#.{ % 9 ] ! W } +.g } J 4.: . - . Z O.4.5.5.s.<.Y l k k 2.Q ] g.[   . < O.O.6.$.5.e.u.#.p.Z.M.M.5.#.4.O.p.S.9.6.[ #.4.s.",
"S O.u.4.' N g a #.s.4.7.,.% e s 4. .Z ] #.M * 7 * 7 e.7.` N ) , < 3 [ ` :   . 3 S 4.O.I Y 2.4.s.s.s.f.h.3...e.O.4.6.4.7.4.4.[ e.",
"] ` O.] 4.6.s.4.O.#.S [ #. .n % f [ i 5 a A 0 $ $ $ * 7.Z - -     : . c Z < ] c ! =.2.5.,.9.e.c.s.4.]  .@.4.u.e.4.4.4.e.6.e.O.4.",
"#.S [ 4.#.O.#.#.4.4.] [  .4.7.V R 4.O.y y v > 7 :.Z.k.6.#.b - : - : 3 b [ [ O.{ G l &.4.4.s.s.g.g.s.4.#.e.s.e.u.4.7.k.s.6.4.S #.",
"#.6.O.[ #.] [ u.g.4.a q / #.e.6.e.#.E 8 5 w - . - @.5.} A S [ e.s.g.g.#.#.O.' _ z z | O.7.#.u.c.u.u.e.e.4.#.#.6.[ 4.u.b.5.O.[ ] ",
"s.4.O.` b c Z u.e.V 9 % ' O.6.e.s.u.O.[ ` < . . b p.n.^ N S 6.g.7.6.4.[ #.Q t R _ ~ S [ O.4.O.u.s.s.e.s.7.#.Z b [ 5.k.F.9.#.#.#.",
"4.s.#.O.: . < O.] @.' } 4.[ ] 4.6.u.u.z.7.b 3 - . + t e T #.4.e.4.O.` O.A m 7 > E ,.[ O.[ u.4.,.#.4.O.4.4.O.O.b O.5.p.x.7.[ 4.s.",
"6.4.7.] c < 3 / S 4.6.7.#.4.] [ 4.7.#.6.m.x.f.5.#.S ` Z `  .#.#.4.4.O.] ] ,.@.O.6.4.r.M.s.0.6.5.4.6.4.[ ] e.u.#.[ Z ] S Z S 6.g.",
"7.4.O.[ 7.O.[ M V 5.e.[ [ O.[ Z O.O.O.f.F.A.S.f.4.] [ O.< < ] [ e.7.4.O.#.u.6.#.[ 7.M.S.A.o.s ( #.#.[ : < e.4.O.S : - - - [ g.O.",
"] 4.e.] ] S O.' n ' O.[ S O.#.#.7.u.u.6.p.m.S.x.O.O.6.c . . < c b [ 6.4.` 6.s.#.u.9.4.4.9.[ X.,.O.` . . . #.] ` c - . . : : #.O.",
"u.u.s.6.e.#.e.4.4.u.7.6.6.r.5.4.6.s.u.6.6.e.f.p.u.[ 7.O.: : - : b ` [ 6.4.6.4.4.O.@.O.#.7.6.Q V n r u [ ] O.#.[ ` O.Z S ` #.6.4.",
"] #.Z O.u.u.f.4.#.u.#.#.g.G.A.4.[ 4.s.7.4.e.6.,.7.4.6.4.c Z [ O.6.g.u.] ` 6.O.] ' ,.b.O.6.6.' > * $ V 6.7.e.[ ] 4.4.4.6.[ ] [ [ ",
"] [ O.4.e.N.F.A.e.O.O.7.m.N.x.+.e.[ [ [ ] 4.s.4.O.4.s.6.Z #.#.6.u.e.4.#.[ O.6.A 5 a k.m.Z : v n 7 0 ! ' 4.k.7.m.7.S [ [ 4.[ S Z ",
"[ [ ` 6.7.f.G.A.k.Z ] ` b S  .[ 4.#.4.#.] O.4.4.4.4.Z O.O.` #.7. .[ S 4.[ 4.7.g % 6 1.[ < - - . y e ! [ ] F.A.N.p.#.Z Z Z ] O.4.",
"s.4.` Z O.6.#.` ` O.Z < - c 4.[ V } X.#.[ [ 4.#.#.#.[ Z [ ,.M.S.r.6.O.7.O.O.O.#.a M O.4.[ Z . + v % s Z 5.p.m.G.x.u.[ S [ [ O.z.",
"O.4.4.7.e.u.4.[ 4.u.O.3   Z e.( s % u.7.O.#.6.f.x.k.k.#.4.#.s.G.x.O.O.F 5 f +.,.1.#.[ [ @.6.u.@.,.6.0.5.N.Z.z.f.m.f.u.6.#.4.O.e.",
"7.#.O.4.4.4.` O.e.u.#.b b 6.6.E % % 6.#.s.7.#.r.G.b.6.s.O.[ N.F.m.4. .` n J s.#.4.s.( s f ! r.$.x &.[ 4.S.M.#.7.p.O.4.u.4.4.6.O.",
"s.4.#.7.[ . . . 3 S [ u.#.;._ ^ 9 9.s.7.7.g.,.u.[ r.f.e.6.[ s.s.u.z.4.! q 4 V 6.4.u.5.m N O.-.z l | 6.7.x.#.4.4.[ #.u.7.O.[ 4.O.",
"O.O.#.#.3 . . .   - O.e.[ ;.G ~ } [ 4.e.6.4.O.O.[ ] S S [ 4.6.O.s.4.#.7.4.[ 4.f.g.z.o.a 8 M O.W K 5.u.7.4.] 4.e.[ O.O.O.[ O.6.[ ",
"4.S ` @.( c : - - : S O.O.:.L Y :.[ O.u.O.[ ] 4.[ ` 2 . : c [ 4.6.z.s.7.4.#.h.S.F.A.G.m.' ` 4.O.X.f.z.k.6.[ ] 6.[ #.c : e.4.#.#.",
"u.@.m f C O.O.7.#.#.O.#.#.} R &...O.6.4.4.6.e.e.4.[ : . : < c [ O.6.6.s.6.s.f.k.A.G.S.b.O.7.4.#.] O.4.4.[ ` Z ] [ O..   4.4.u.#.",
"O.g o o F s.` 7.s.s.x.e.g.#.#.4.#.[ 4.u.[ e.4.,.#.[ c [ #.6.O.O.O.e.s.e.7.#.s.e.7.O.#.[ #.4.u.e.4.6.[ B - - < [ ] Z - c Z O.g.4.",
"O.M a f } g.g.O.4.6.G.Z.N.u.O.6.] 4.4.u.` 3 c ] #.4.#.O.e.4.V V Q [ #.4.7.6.4.S O.e.u.u.s.s.[ 4.u.[ O.O.3 - - Z O.7.] 4.4.g.z.4.",
"u.O.[ 0.s.u.#.[ O.6.z.N.S.Z.r.] ,.4.#.#., . - < 6.4.#.O.] M e % g.e.O.[ [ 6.[ [ #.e.s.g.s.s.s.z.s.4.4.4.#.b c O.#.4.[ #.[ e.#.O.",
"r.O.[ g.4.7.#.#.[ 4.#.6.h.k.#.4.#.,.#.` b < . 3 #.#.4.#.5.T % 5 4 z.e.] 7.#.O.Q ` #.g.g.g.7.7.7.g.6.u.4.u.u.,.O.6.O.s.7.6.6.#.#.",
"#.g.z.g.u.z.s.s.s.u.#.#.#.u.6.O.` #.[ b O.3 c 4.e.7.#.[ r.;.J ` S #.4.[ g.g.u.4.O.e.` ] 7.#.[ 4.[ O.] ` 4.O.O.O.Z 4.#.[ [ g.u.#."
};
