/* XPM */
static const char *infested_gravel[] = {
/* columns rows colors chars-per-pixel */
"64 64 137 2 ",
"   c #020000",
".  c #0B0100",
"X  c #110500",
"o  c #140C00",
"O  c #180F00",
"+  c #1D000E",
"@  c #171200",
"#  c #1A1400",
"$  c #1F1900",
"%  c #250001",
"&  c #2E0000",
"*  c #25000B",
"=  c #2E000B",
"-  c #330004",
";  c #3B0003",
":  c #3E0A00",
">  c #34000B",
",  c #3B000C",
"<  c #221D00",
"1  c #3F1300",
"2  c #250014",
"3  c #290013",
"4  c #2C001B",
"5  c #330012",
"6  c #3C0012",
"7  c #34001A",
"8  c #3B001B",
"9  c #242100",
"0  c #340123",
"q  c #3B0A2D",
"w  c #3B0A30",
"e  c #400107",
"r  c #410B02",
"t  c #45010D",
"y  c #430D0C",
"u  c #4A0E0D",
"i  c #421601",
"p  c #451902",
"a  c #4A1B06",
"s  c #46110B",
"d  c #491609",
"f  c #4C1C09",
"g  c #511E0D",
"h  c #430112",
"j  c #4C0114",
"k  c #440D10",
"l  c #4B0D11",
"z  c #44021B",
"x  c #4C011B",
"c  c #4F081A",
"v  c #520014",
"b  c #5A0017",
"n  c #530D14",
"m  c #5B0C16",
"M  c #540219",
"N  c #5B0019",
"B  c #540A19",
"V  c #5C0C1A",
"C  c #4D1511",
"Z  c #531313",
"A  c #5A1516",
"S  c #551C12",
"D  c #5B1D14",
"F  c #5C1419",
"G  c #5D1A19",
"H  c #64011B",
"J  c #69011F",
"K  c #670A1E",
"L  c #621A16",
"P  c #62141A",
"I  c #6B151E",
"U  c #631C1A",
"Y  c #6A1B1C",
"T  c #54220E",
"R  c #58250E",
"E  c #572210",
"W  c #5D2512",
"Q  c #612616",
"!  c #632916",
"~  c #65221A",
"^  c #6A241D",
"/  c #662C19",
"(  c #692D1B",
")  c #69311A",
"_  c #6D0B21",
"`  c #681125",
"'  c #6A1F25",
"]  c #701722",
"[  c #701D24",
"{  c #6B2421",
"}  c #6B2E21",
"|  c #6E2329",
" . c #702B26",
".. c #70272D",
"X. c #722C2A",
"o. c #6D3322",
"O. c #6D3722",
"+. c #6F3324",
"@. c #6F3826",
"#. c #713523",
"$. c #713225",
"%. c #713627",
"&. c #703926",
"*. c #703028",
"=. c #713629",
"-. c #73352A",
";. c #74302F",
":. c #74362E",
">. c #703A29",
",. c #733F2B",
"<. c #74392D",
"1. c #733C2C",
"2. c #742A30",
"3. c #763434",
"4. c #773B33",
"5. c #773E32",
"6. c #773B34",
"7. c #773C37",
"8. c #783C36",
"9. c #793339",
"0. c #7A373C",
"q. c #7A3E39",
"w. c #5A5724",
"e. c #73412B",
"r. c #73402C",
"t. c #714C2A",
"y. c #774232",
"u. c #784333",
"i. c #794631",
"p. c #7C403B",
"a. c #7B3545",
"s. c #7B3645",
"d. c #7B3C40",
"f. c #7C3848",
"g. c #7C3B4A",
"h. c #7E3B4D",
"j. c #774063",
/* pixels */
"p E 1.1.) f ! ! O.>.o.W T / Q T ! T R E o.W p O.) i g g O.O.o.&.! p Q O.1.r.1.%.O.>.) T f y p W p f p O.O.( / ) o.( ! g < W =.9 ",
"Q 9 R o.} R i y E f W f R o.1 d D k R / O.} W g f o./ ( E O.R O./ E R a T ! o./ T O.>.Q / / / W ! E T %.o.! o./ %.&.g r { #.&.E ",
"o.T i ) f i p g i O.! ! R < a , = 6 ! &.E Q g o.Q ! p Q / O.W R R ) ! p $   . # ) O.) T ! E E ! W / ! R ! T O.o.O.@.L - - V O.) ",
"o.p f p 9 ) R g ! o.o.} ! a W - & - j o./ g p / f R E / / R W R O.R R p y <   X / o.p f ) T T o.O.o.o.W >.! g A P L D j - Z ! O.",
"=.&.Q T R ! R S g T / ! W T / ~ n Y D W o.! Q W a ! %.=./ } W E Q W o.f p X . . / W Q O.O.W g W / ! O.! o.a d - - t n 5 = - o.1.",
"&.R d / &.p < T g y d R 1 R &.W W C u , - j j E a W E R R T p   < . >.g ! ) f f ^ } } =.O.O.W R T p f f } W y , & & , a E o.! O.",
"O.f a 1.=.! < n j v / o.o.o.o.R ! ) P & & - , g o./ g / f a       < &.} W ! R W  .u.t.<./ ! / ) O.Q T o.( W G h h j P o.! R R T ",
"d ! o.p 9 O 6 j j J | E o.) ! O.O.O.W h - - , T ! g W ) W X         / ! f / / T / 7.3.%.$.f R o.! T p T ! W s E C ! o.) o.o.) W ",
"i / ! #     X o ~ f.h.;./ o.o.,.%.! p S D j j o.! ! ! o./ ) . @ # < g g ! f $ @ p W p l z B s p p g p R E g a f i a o.} T f f E ",
"R &.&.9 O . X   y 0.s.} W O.O.&.&.O.Q E ) +.} O./ o.O.) Q ! < g ! } :.$.~ O     < / l 4 % 3 x S U ~ Z 1 1 g E 4.q.} Q Q ! p 9 f ",
"&.1.&.W R 9 < # $ U | G ) W O.1.O.o.o.} ! R Q O.R ! W R p g f f } u.u.4.^ 0 > 6 N H x 7 2 * z B 4 z 7 6 W W %.i.t.5.! W i i g o.",
") / W f W T ! o.J b y C T ! T o.O.O.} O.( W E W W Q W R f R R W 6.u.=.4.*.P v v b v A S C h W G 4 4 * * a 9 R X.y.i.*.Q W i / &.",
"Q E p g d ( W / J b v g a o./ } ! ! T Q Q T } R / ! E ) / g W O.( 4.( $.%.D N N j N u p i X # g / 0 4 4 +.f a } 7.f.} E E R ! o.",
"! W T p p / ! E ^ L G / o.>.&.o./ / ! h @ @ F < g f Q f T C ( &./ ! ( ^ Q } y F j N :         a ! / E g o.d.p.W ~ Z k < p g W W ",
"o.) ! T R O./ R g Q / / o.O.%.Q W ! w 2 % % . . 9 d / ( ^ :.4.W ) ! E p.6.:.S f ! ) R         < g T g R 4.f.w.W < X 9 T i g R f ",
"< f / ! i / O.R o.( g g ! g Q / R f O   % % % . . p p +.:.u.d.3.Z W } K Y *.g E / ) y o . . f W / / f f a ) $.T .   g ! a Q T d ",
"g i g / ! / ! ! g E g W ) / f T R 9 @ X 2 * 4 X   < p R X.y.i.i.p.o.j & &  .o.Q ! O.1.i.5.o.W ! Q g @ . $ W / a X X W Q g W ! O.",
"O.%.L ; : / T p T Q W R / / ! i W ! ! R W ^ d < < < R / ~ ~ X.{ f E - & & t ^ Q E O.W *.1.O.o.! a <       < / T p g / ! < g o.( ",
"o.v - & ; g / p p W W R / R E / E p o.W ^ { } } / i a f W S Y Z p a g , v h ^ &.o.g ^ d.i.6.! E / $ . X O $ O.Q g W O./ 1 W W / ",
"i 5 & & e ! ) ! f ! O.} R R T g o.g W g ' s.9.=.( g 9 < < d g ! p p < Z / ! } O.o.9 p R a g R f Q R T g p g ! ! ! Q 9 ! W p a ! ",
"g D - t Z T T R T f E / W ! ! B m t B r ^ ..3.*.Q / f i f f g p O       9 ! g 1 p g i < - - h 6 R ! ! E f f ! R W W E } } g E ( ",
"W T S / / ) =.! ) E f f R / O.> , > h d f g ) T } ) o.! W Q T W         # / Q f ! o.W g 6 & > n ! ) O.( T W / / } / =.q.d.E / O.",
"O.! g d R 3.f.| / &.O.o.g f %.A t > > t o./ T ) ( p ! F 7 6 B h .       . f ! / o.O./ Q R ) h 6 } &.( R O.) E g ! W o.i.o.p &.1.",
"O.>.Q ! ^ 2.9.s.{ O.o.! E E ) R D j j F O.d ! W g W ~ 7 % 6 h v H Z 9 W o.O.R d g o.O.o.W / W / / >.O.) ( =.W o.f T ) <.o.f O.O.",
"O.! R ) W S W ! o.O.R s q 9 T f a ) o.( E p Q o.f R { z 5 h j j v M ! ) e.o.! o.g R o.o.f / a R g f Q o./ ! g g f f / O.=.O./ T ",
"/ 1.O.( W T g g i f X .   O f # . g >.&./ u y U d o.O./ o.Q m v J J  .4.) O.%.u.} Q ) g T ! a ) / f T o.g C p Q g R T o.W W R ! ",
"g / / O./ o.R O     * % %   X     O ! &./ t - - , O./ ! ! ! O.D =.4.u.w.g *.t.w.$./ ! R W g p / R g / Q D n U o.! W O./ / o.d f ",
"T o.O.o.) E O.a X . % % % % . .   a f W f - & & & 6 W i y g &.Q W $.u.;.! O.^ 4.&.O.o.) / R R a $ < < i = & > ~ E W R } o.o.W R ",
"f f W ! / / ! 1 f ! Z # O Q < . . $ { :.! ) u - & h u ! / &.1.Q g g } R / &.&.R ! / O.O.! R X X   .   . , & 6 m ! ! W T o.o.W f ",
">.o.E g a ! 6 , S o.O.=.%.O.o./ ! } u.i.o.o.( } D W a R f } W S ) g f o.O.O.E a T / ) o.g W X     .   . < C ) o./ ! R E f p ! &.",
"o.>.o.d / h & & : R &.&.&.( :.=.q.q.i.5.%.O./ R / g O./ / / j h o.g f =.Q ) R R a ! W Q z G q < < #   @ p a W / E R D g ^ W Q o.",
"1 E Q f &.m - > Z o.p p ) R 6.6.u.t.4.D ! T T T < ! W a f %.B > h &.>.=.o.>.%.O.%.o.R R 7 7 G f 9 < @ o T < g ) } ~ ; , ^ %.) a ",
"! p Q O.1.,.N P o.>.) T f y W :.8.:.~ O.O.( / ) o.) ! T < W ) , y R 1.1.) f ! ! O.>.o.W l G W T ! T R E o.W p o.t & & & +.O.o.&.",
"/ E R f T / } +.o.O.>.Q / / / ( $.$.R %.o.! o./ <.8.^ g &.r.&.E Q 9 R o.} R i y E f W f / +.1 d ! i R / O.} W f > & & & S O.R O.",
"R ) ! a p W T g ) O.( T ! E E ! W / ! R ! T O.o.<.p.8.) W &.O.) o.T i ) f i p g i O.! ( p.p.a a d } o.&.W Q g o.j & & t U O.W R ",
"O.R R p 1 d T W A j , u ) T T o.O.o.) 9 / i f ! &.6.4.o.! R ! O.o.p f p 9 ) R g ! o.o.,.1.6.W i g Q W &./ g p ! e h h U / R W R ",
"! Q o.f T E a s B - 6 ^ O.W g W / Q o.. @ X i < ~ =.$.I j v _ &.=.&.Q T R ! E T g T / ! E S / / / @./ / o.! Q W a d.f.=./ } W R ",
"W O.1.g ! / y r d > > L O.O.W R p . O   < O 9 / R 9 a j v b v [ &.R d / O.$ $ a a y d R z R &.W $.;.X.} d G W R 3.w.p.R R g W O.",
"9 ) >.} W n & - Z j j Z A , B t /         < S / ^ ^ +.I b j j j Y i a &.f     X g E / H ^ o.o.R $.q.d.8.{ W Q g +.i.} / g R ! O.",
"i g O.! d h 6 > R O.! ( Y & = > ! g < p W 8 2 2 2 2 ) / p h b . X o a p .     O 1 ! g v N ~ ! O.O.O.:.3.] F } E ! / Q ) W Q f o.",
"p i g p ! / O./ S W 1 f R A ; & > f > & - h 4 * * * 2 ) <         .   # 9 X p # j J ] ^ U ( o.,.%.! p Z D / o.o.! / ! o./ } T ! ",
"W i f Q W g W E ! ! p C g Q ( h j / g - - 5 2 2 ` q.:.^ R $   .   . o $ a a g M v v H ! W O.O.@.&.O.! R o.O.o.o.Q / =.%./ ! i R ",
"R / T a R p a O.&.! > - u R o./ o.W j & & 3       G { Z : 1 f o.O.&.=.W R g C N v v N g ) W O.1.O.o.o.} ! R R / g ! $.3.^ g f d ",
"%.! g p $ # < O.o., & & d g / o.O.o.g a p .     $ X.0.M e i / &.) / W g W z 4 x N b r a T ! T o.O.O.} O.( W 9 $ f / :.t.} W R E ",
"! O.W g .   . g d G d Z ! a p Q / o.O.>.( < O     + > > h R ! o.Q E p g h 8 2 3 x ~ f S f o.! Y D ! T Q Q T T < T / $.4.^ g W O.",
"/ ! ( d @ . @ s r / / / R ! p a ! / W { 6.<.%./ E i p < d g E W ! W T p p U G S / ! o.7.+.} ^ ^ ! / ! g p o.O.R f 9 p k < y / &.",
") ! E a / g f 8 8 ^ o.a f E a < T T g =.w.y.u.%.Q p a T . . d a o.) ! T R O./ R g ( 5.u.p.V , c W W a . X o.! T 1       . a &.g ",
"p Q o.d p i g c 7 M T f i g W W / O.O./ *.4.i.<.S g / #     X # $ f / ! i / O.R o.( ! ! } Z Z U S i       R p p @       . . E T ",
"o.o.O./ } W o.Q ! O.) / / o./ ! / O.o./ / ) %.$.) a ( g . .   . < i g / ! / ! ! g E T W ) / h 8 7 4 O f p T E f i g y i p R / ! ",
"p R y T o.o.%.Q E O.W E =.t.u.! f Q O./ ! o./ W / Q / ! @ 9 g g / =.O.p p / g d d L 6.E / / c 3 * * 8 / ( o.f p ! ! ! / f p f f ",
"d f g Q o.7.t.p.o.g g ( 4.q.4.E ) a g f d ! O.Q g W O./ 9 W W / o.) ! E f g / r & - 3.4.y . # 7 = 3 x B ! :.^ 7./ i a f W a i < ",
"f f p / ) %.w.p.:.9 p p < 1 g a Q W ! W p E ! ! ! Q < T g s W ( S f i Q f Q ( , & & ~ f X . .   5 = j a p t.y.q.o.W 9 < < d T ! ",
"%.! p 9 g / W p p g < X   @ ! g h Z A E f f ! R W R a y f W 5.u.} / T ( g g g R - 6 D ! f 9     ; & , < ^ X.4.w.:.o.f i f f T >.",
"g Q ! ) } O.Q f ! o.g o   < } l > & O.( T W / =.,.:.:.R ! R $.t.<.g D h & 6 V W ~ D a a D / o.D Y ^ ( ^ q.u.:.*.4.%.o./ W ! T o.",
") W T ! ! Q p E } O.W $ # / ! t & & ! R O.) E } t.3.^ O.T C q.j.8.! g s 6 t O.W ! $.v > 6 l X.H v H C ! u.7.W ) $.D ! o.! ! / g ",
"O.! R ) f       @ i a O.W P N M - ^ O.) ( =.W o.f } %.} / a O.O.O.>.Q j - & t / / ) ^ 6 6 g J v v N / / 1.E ! W g E O.) g f ! g ",
"g T R R o           g o.Z K v b Z f Q o./ ! g g f d y 1 f Q / T O.! R ) W f / %.&.:.F - & 6 E v j ^ o.( W p Q o.a T g T a T / f ",
"! i p P u # .   . . 1 g S U v N I f T o.g f p Q f p X   . # f ! / 1.O.( W W =.u.t.p.w.4.d l ! S S %.>.&./ a d / a R # . } ! R R ",
"o.G ; ; t g T ) R R T R W n j H m g / Q ! / } o.! f .   . X # f g / / O./ +.;.3.y.t.i.6.T ( ! R d T ! W f p 9 p a E     Q ! O.W ",
"g , & & h O.i ( O.O.<.) =.W E ! E f Q o.f } Q W R g # f W ( S S S o.O.o.) E +.) ^ g W a W ! O.o.! / f <     X f p 9   # 9 g &.Q ",
"g , - ; Z &.&.T ! / w.f.d.$.S / p ! ! o.p O # p R ! W T } ~ h 6 h f W ! / / ! i E o.O.O.O.%.f Q o.g g g O . . 9 T / p ! ! &.1.Q ",
"o.g f ( O.O.E a T / <.q.i.q.} p W ! W E .     . / ! R E d , > & &.) E g f / f f R o.O.=.%.O.O.>.%.! ! Q W < # g R ! a R f o.W T ",
"o.T f =.Q ) R R a ! W / :.:.D Q R W W p $ .   O R R Q R ~ h & & & >.o.d / R g i i R &.&.&.( ( ( =./ O.W O.o.W E / g O./ / / W R ",
"R &.>.=.o.>.%.O.%.o.R R R o./ T p R f $ g O @ ! o.) W g o.P h d 1 R Q f &.&.o.Q T o.p p ) R a ! g T d p ! T T T < ! W a f =.o.E "
};
