/* XPM */
static const char *landcoralblack[] = {
/* columns rows colors chars-per-pixel */
"64 64 3 1 ",
"  c black",
". c #585654",
"X c #EFE4B0",
/* pixels */
"................................................................",
".......... .....................................................",
".........     .......... ..... .....    .........         ......",
"..........       ......   ...            ......            .....",
"..............    ......   .         .........    ..............",
"................     ....         ........  .        ...........",
"......   ........     ....      .........                  .....",
".....       .....     ......    ......                       ...",
"........     .....    ......     .                           ...",
"........               .....                     ...         ...",
".........                ..                       ....   .......",
".........                                .         ....  .......",
"..........                                          ...   ......",
"...........    .......                     ....     ....      ..",
".........    ..........              XX             .....      .",
"....        ...........        .    XXXX             ...........",
"....      .....  ..                XXXXX             ...........",
"..............                     XXXXX              ..........",
"........    .                     X  XXXX   .....     ..........",
".......                          XX  XXXX  ......      .........",
".......  .            ...       XXX  XXXX .......       ........",
"..........  .          ..      XXXX  XXX        .    .  ........",
".............                  XXXX  XX              .   . .....",
".............                  XXXXXXX               ..     ....",
"............                   XXXX           XXXX   ...     ...",
"....    ...                              .    XXXXX  ..  ..   ..",
"...             ..          .           .   XXXXXXX  ..  .......",
".......         ..          ..     .    .   XXX  XX  ..  .......",
"......         ....         ..          .   XX   XX  ..  .......",
".....        ......         ...         .   XX   XX  ..  .......",
"....       .......    .      ...        .   XXX  XX  ..  .......",
"....     ........   ...       .         .   XXXXXXX  ..     ....",
"....    ........   ....                 .    XXXXX   ...     ...",
"...       .....    ....                               ..........",
"......      ..            XXX                              .....",
"......          ..       XXXX   ..                           ...",
".....    ..      ...   XXXXXXX ...           .  ...          ...",
"....   ......          XXXXXXX  ..            ......         ...",
"....  ..........      XXX  XXX                     .....     ...",
"........              XX    XX                      ....  ......",
"......                XX   XXX                 ...  ....  ......",
".....                 XXXXXXX             .    ...   ...   .....",
"....                   XXXXXX   .     .....     ...  ....   ....",
".....     ....   ...   XXXXX    .     .....     ...  .....   ...",
"......   .....  .....   XXX   ...     ......    ...   ..........",
"....    ....    ......        ....     .....     ...   .........",
"...    ....    ......        .....     .....     ....          .",
"..   .....   ......           .....     ....      .....        .",
".................              ....      ...       .............",
"..............           .     ....  ..  ...        ............",
".........             .....     ..   ..   ..  .      ...........",
"........             ......     .   ....  ..  ..       .........",
".......   ..       ........        .....  ..  ...        .......",
".......  ..        ........       ......  ..  .....        .....",
"......   .      .  .......       .......   .   .....         ...",
"...     ..     ..  ......       .........  ..  .......       ...",
"..     ...    ...  .....   .      .......   .  .........     ...",
".   .....     ...  ...    ..        .........   ........  ......",
"..........    ...  ..    ....        .........  ........  ......",
".................  ...........       .........   .......   .....",
"................   ..............     ...................  .....",
"................  ..................   ..................  .....",
".....................................  ..................   ....",
"................................................................"
};
