/* XPM */
static const char *map_tile_grass[] = {
/* columns rows colors chars-per-pixel */
"64 64 121 2 ",
"   c #26451B",
".  c #29471D",
"X  c #264A19",
"o  c #2A4D1E",
"O  c #2C531E",
"+  c #30561E",
"@  c #345C1E",
"#  c #37611F",
"$  c #3B641E",
"%  c #3E6A1F",
"&  c #2E5520",
"*  c #2F5A20",
"=  c #305720",
"-  c #325B22",
";  c #356225",
":  c #396624",
">  c #3D6C24",
",  c #386628",
"<  c #3B6D29",
"1  c #3D7027",
"2  c #3E722C",
"3  c #416D1D",
"4  c #44721E",
"5  c #4C7C1C",
"6  c #406F22",
"7  c #437524",
"8  c #467A25",
"9  c #497C23",
"0  c #40762D",
"q  c #427A2E",
"w  c #487E2A",
"e  c #437630",
"r  c #447B30",
"t  c #4A7E35",
"y  c #716C60",
"u  c #52841E",
"i  c #558A1F",
"p  c #5D941E",
"a  c #649D1E",
"s  c #66A11E",
"d  c #6AA51E",
"f  c #6DAA1E",
"g  c #75B41E",
"h  c #7ABC1F",
"j  c #4D8325",
"k  c #47802C",
"l  c #4B842B",
"z  c #4E892B",
"x  c #518722",
"c  c #538B24",
"v  c #598F21",
"b  c #528C2A",
"n  c #579227",
"m  c #5A9525",
"M  c #5D9A26",
"N  c #569229",
"B  c #59952A",
"V  c #57982E",
"C  c #5C9B2B",
"Z  c #478232",
"A  c #498532",
"S  c #4C8C35",
"D  c #518F32",
"F  c #4D9035",
"G  c #4F9238",
"H  c #539533",
"J  c #569933",
"K  c #599D35",
"L  c #52963A",
"P  c #52983A",
"I  c #53993B",
"U  c #559B39",
"Y  c #549B3B",
"T  c #559F3B",
"R  c #569D3D",
"E  c #629E22",
"W  c #649F22",
"Q  c #619F25",
"!  c #609E29",
"~  c #5FA02B",
"^  c #5DA233",
"/  c #5CA234",
"(  c #57A13D",
")  c #5AA139",
"_  c #59A33C",
"`  c #62A025",
"'  c #63A125",
"]  c #65A224",
"[  c #64A225",
"{  c #65A424",
"}  c #66A524",
"|  c #65A427",
" . c #69A723",
".. c #68A724",
"X. c #6BAA23",
"o. c #6CAB23",
"O. c #6FAF22",
"+. c #69A824",
"@. c #6BAB24",
"#. c #62A42C",
"$. c #67A82A",
"%. c #67AB2D",
"&. c #68AC2B",
"*. c #6BAE2B",
"=. c #70AF20",
"-. c #6EB229",
";. c #71B121",
":. c #73B421",
">. c #76B720",
",. c #75B823",
"<. c #70B428",
"1. c #71B62A",
"2. c #63AA33",
"3. c #60A93F",
"4. c #67B034",
"5. c #6AB131",
"6. c #7EC01E",
"7. c #5AA440",
"8. c #5BA641",
"9. c #5DA743",
"0. c #5DAA42",
/* pixels */
"y y y y y y y y y y y y y y y y y y y y y y y y y y y y y y y y y y y y y y y y y y y y y y y y y y y y y y y y y y y y y y y y ",
"y y y y y y y y y y y y y y y y y y y y y y y y y y y y y y y y y y y y y y y y y y y y y y y y y y y y y y y y y y y y y y y y ",
"y y q q q q 2 < q q w b z q q k N w q q q q q q q q q q q q y y y y q q k M N q q q 2 ; 0 2 2 q q q q q w l q q q Z A q l } y y ",
"y y q q q 2 - @ < q z } N q q z X.z q q q q l N q q q q q q y y y y l q w m :.q q q > j : - 7 M m q q q z O.r Z A P A Z S ..y y ",
"y y q q 2 - 4 m 0 q l } z q q b O.z q q q w b ` q q q k m N y y y y [ q q b :.l q - m E ; < 8 M } q q q z X.C U L P R 9.H m y y ",
"y y q 0 , @ p M 0 q w z w 0 2 l W 7 q q q w B X.q q 2 8 [ M y y y y O.2 q z O.:.q 8 m x < 2 q m O.q q q l +.$.S F G L 0.S k y y ",
"y y q q 0 8 a m 0 q q < ; < = ; > - 2 q q w M O.q q ; @ m Q y y y y  .2 q w m [ q q l w q 2 8 N ..q q q w V J Z P q T P Z q y y ",
"y y q q q < 3 j b z q ; = ; : = & ; 2 q q q z N q < & = v h y y y y m 2 q q w w q q q q q q w b Q q q q q k w Z r R S A b z y y ",
"y y q q 2 ; = w ` M ; < ; ; , = < < 0 q q q q q k 9 : ; 7 O.y y y y 8 0 q q q q q q q q q q q k z q q q k M N q q Z r S M N y y ",
"y y q 2 ; < 2 k Q M ; 0 < 0 , , 8 m m q q q q q z +.V , , k y y y y 0 0 q q q q q q l N q q < ; 2 , < q w M h l q q q k Q m y y ",
"y y q 2 ; 2 q k Q m q q c } q q w } Q q q q S ( J 1.%.2 q q y y y y w b z q 0 , : < 4 E % ; ; & X - , 0 q z o.k q q q l } M y y ",
"y y q q 2 q q l } M q k Q [ q q z X.N A T P P P ) *.+.Z q q y y y y l ` n o O = = @ > m m O O O = ; 2 0 q q k q q q q l ..Q y y ",
"y y q q q q q w b z q l } M q k ` +.J ^ K 7.P R U C } r q q y y y y k M c & O = o = O 3 W . X O 7 l 2 q q q q 2 , < q w b z y y ",
"y y q q q q q q q q q w N b q w N V ) 5.4.L P R P S N z } 2 y y y y q > O ; = ; ; > ; : % ; - > m n 2 q q q q , 7 O.0 q q q y y ",
"y y q q w b z q q q q q w w q q A G H *.*.P S U P A r b :.q y y y y q ; - , 6 < > x v = < ; - w M m k N w q < : j ;.0 q q q y y ",
"y y q q l ` M q q < : w , < < ; r < U x } S P G Z Z q l Q q y y y y q 2 0 l X.q w [ M < 0 < 2 2 w k z ;.M q < < l  .w q q q y y ",
"y y q q k Q M 2 - & > p : O O * O o > > b 2 P F P Z A q 0 q y y y y q 0 > n ;.q k Q O.q q q q q q q z O.` q q q z o.z q q q y y ",
"y y q q k Q m < & ; % d % . o . X $ p l 0 r Z P P G ( 2 < q y y y y q q w m X.q q z N q q q q q q q w m O.l q q z } l q q q y y ",
"y y q q l } m ; ; ; $ a 5 o o . * 7 O.9 < r G P 3.%.V 2 2 q y y y y m q k Q } q q Z q q q q q q q l N k B k q q w z w q q q y y ",
"y y q q w b z Z A , ) m u . & O o 3 f z r G 0.U ) $.C r q 0 y y y y X.q w N N q S ( A ~ V q q q w B +.q q q q q 0 < < q q q y y ",
"y y q q q q r G F G w j 8 & O o & 7 O.8 r P ( G H #.C q q q y y y y ;.A q w w Z P R J *.#.r q q w #.1.r q q k n = . . q b z y y ",
"y y q q q r S S T A q 2 - O & : & w M q T A Z Z U K S q q q y y y y N A r q q U S S J } B r q q A ^ *.Z q q z } o o ; 7 O.h y y ",
"y y q q q r D Q C r A < , < r Z Z S 0 q q r S S S Z r q q q y y y y q q r q q G A H } O.z q q q U H J r q q j d . < < q Q >.y y ",
"y y q q q q l [ ! 2 ; ; 0 H 1.J ( P A G ) Q m F r Z r w b z y y y y q r q q q 0 2 k c c r q q S ( G G r q q j g < ; ; q b ;.y y ",
"y y w b z q k M X.; = < q ^ ,./ G P ( ( J } M q q Z r l ` M y y y y q r z X.l < = ; - ; 2 2 r U U P F q q q b >.2 2 0 q z X.y y ",
"y y k M Q q q z x , 2 ; = z O.b A ( 7.G S ! m q q q q k Q M y y y y q q z O.l ; ; ; = o = = R P P S A r q q k M q q q q l [ y y ",
"y y w m } q q q : 2 : ; , $ a 8 A 0 G A F m N q 2 ; ; 8 M m y y y y q < j ;.< o o o & o o q A A G A l q q q q q q k w q w z y y ",
"y y q b ;.q q q q 2 o o o x 6.8 : : Z r w l k q < = # v m z y y y y q < 7  .o O O X = @ 0 2 < 2 r z } l q q q q k M M q q q y y ",
"y y q k N q q q q < < = & 9 O.< < 2 q q q q q 0 0 2 1 9 l q y y y y q q b Q ; ; - = : m c ; 2 2 0 b ;.z q q q q w B ;.q q q y y ",
"y y q q q q q q q 0 q 0 q 0 0 0 q 0 q q q q q q q q q q q q y y y y q q k z r e e e l } M 0 0 0 q z O.z q q q q q k N q q q y y ",
"y y y y y y y y y y y y y y y y y y y y y y y y y y y y y y y y y y y y y y y y y y y y y y y y y y y y y y y y y y y y y y y y ",
"y y y y y y y y y y y y y y y y y y y y y y y y y y y y y y y y y y y y y y y y y y y y y y y y y y y y y y y y y y y y y y y y ",
"y y y y y y y y y y y y y y y y y y y y y y y y y y y y y y y y y y y y y y y y y y y y y y y y y y y y y y y y y y y y y y y y ",
"y y y y y y y y y y y y y y y y y y y y y y y y y y y y y y y y y y y y y y y y y y y y y y y y y y y y y y y y y y y y y y y y ",
"y y y y y y y y y y y y y y y y y y y y y y y y y y y y y y y y y y y y y y y y y y y y y y y y y y y y y y y y y y y y y y y y ",
"y y q q l ` M r q q z O.z q q q q k Q O.q q q q q q k M N Z y y y y q q q 0 q q q k m N q q q q q q q q q q 0 q q q b ;.q q y y ",
"y y q Z H +.*.G S q z X.z q 2 : < , 7 c : < : , q q l } M q y y y y k m x < ; 2 q k M m q q q q q q q q q ; < < ; 2 z O.q q y y ",
"y y r S l %.#.P P r z X.b q < ; - , , : , - = , ; , 7 M M q y y y y z f c ; = < q l [ M q q q q q z } q q ; 0 2 0 < 8  .q q y y ",
"y y q r P K ) P Z r k } O.: - O & q , 1 : & & O = O @ m } q y y y y z o.7 - 0 z z k M m q q q 0 < z  .< ; O 0 2 q q w z q q y y ",
"y y q q Z S R S A q q b [ 2 : ; : * o ; & O o   = & : j m q y y y y l [ 7 2 j o.N q l k q q q ; o c g & o < 2 q q q q q q q y y ",
"y y q q S S A b b q q q k ; ; ; X & = - % $ o o . = 0 8 k q y y y y l [ l 0 m h 4 & ; , O q 2 ; , j g o : < q w b M q q k Q y y ",
"y y w q r r S C N q q q q q 0 & o = ; @ m 5 , & < : w [ l q y y y y w z A F z s = = O o = & O ; : > j < < < q w N } q q k Q y y ",
"y y b q q q l [ M q q k Q m o q , 2 & 8 X.m & ; 2 q b ;.z q y y y y q q G P Z q ; ; o o o = = = ; 0 , 2 < q q < 5  .q q w m y y ",
"y y M q q q l [ M q q w M :.q 0 0 S A ^ ,.) A q < q b ;.z q y y y y q F F S S L ; o @ 4 = $ = < 2 q q 0 2 2 , O j E 0 q w N y y ",
"y y } q q q w z z q q q z X.N S P P P ^ 1.S r r q q k B k q y y y y q F A P S Z < = 3 a % s < < 0 q q 2 - = o ; 2 l q q w m y y ",
"y y N q q q q q q q q q w N V P q Z w 9 +.; : 0 q q q q q q y y y y q q l #.Z 2 ; @ u a 8 =.w 2 0 r e < ; = > b < 0 q q k M y y ",
"y y q q q q q q q q q q q S F Z : q < l 4 = 2 2 q q q q q q y y y y q q b ;.r r < > C v w } n q q r 2 = 0 < b  .w q q q k M y y ",
"y y 2 2 2 2 k m N q q q q S S Z r = 2 & = < 2 w b z q q q q y y y y q A 2.,.r q < S K H l } M q w b M q 2 0 M X.A G q q q l y y ",
"y y = = & - 7 i c & 2 q q A Z q S A O o 2 2 2 k M N q q q q y y y y r T 2.-.G r S S ( 9.A N b q w m O.q q k #.%.U U r q q q y y ",
"y y : ; O & > W g > O < Z P q G S < < 2 < 2 q l [ M q q q q y y y y Z P k b A Z G P R S A w w q k m [ q q q J ) R 7.Z q q q y y ",
"y y ; = ; o + u g - o ; 0 S ( R A 2 q 2 q q q l [ M q q q q y y y y q 2 = 2 q r r ( A A r q q q l ` M q q P L 7.R F A q q q y y ",
"y y ; o O X O 4 g $ : r P P G S z C 0 2 q q 0 ; 6 z q q w b y y y y q ; & ; 0 : < r Z S q q q q l } Q q q A P _ G T K z q q y y ",
"y y < = o o o 7 u 2 < S ( S r q V O.q q q q 2 ; : < q q l ` y y y y w 8 > = , - , w w q q q q q k M m q w ^ N A S T 5.B q q y y ",
"y y ; o ; < < < < 0 S A l r A w N X.q q q ; . = ; o ; = k M y y y y l m x : ; < 8 m N q q q q q q 7 > < k C B P ( U ! +.q q y y ",
"y y 2 2 < < 2 q q S _ b +.z q w B X.q ; X o & = & ; & : 2 l y y y y l ` M , , 2 w } M q q q q < O O & o > ` M U 7.A B ;.q q y y ",
"y y q 0 0 q q q q U ) #.1.H q q l b q & . & < & = . & ; 2 q y y y y k Q M 2 q 2 l X.N q q w b 8 = - = = : E *.P S Z V :.q q y y ",
"y y q k m N q q ( P H $.} Z r q q q o : < , ; , = = ; , 8 w y y y y w m } q q q j f 8 q q l m x : & ; ; 2 b J A S k } h q q y y ",
"y y q l } M q q P Z P J z q q q q q 2 2 , w 0 O : ; 2 8 M N y y y y q l b q q q > M 0 q A H } M < < ; , 2 Z A r Z w N } q q y y ",
"y y q l Q m q q A l V r Z b } q q q q q z O.q q 0 < 2 w } M y y y y q q q w b 6 0 H P G G H ` M q q q 0 2 w Q B r q q q q q y y ",
"y y q k m N q q q b [ q q b :.q q q q q b :.q q q q q w b z y y y y q q q l ` M A r S G S l ` m q q q q q l ..Q q q q q q q y y ",
"y y r q l k q q q b ;.q q l ` q q q q q b >.q q q q q q q q y y y y q q q k M C G S A S r A z z q q q q q z O.z q q q q q q y y ",
"y y e r r q q q q l O.:.q q k q r r e r w M q q q q q q q q y y y y q q q q l k q r t Z r r q q q q q q q l Q q q q q q q q y y ",
"y y y y y y y y y y y y y y y y y y y y y y y y y y y y y y y y y y y y y y y y y y y y y y y y y y y y y y y y y y y y y y y y ",
"y y y y y y y y y y y y y y y y y y y y y y y y y y y y y y y y y y y y y y y y y y y y y y y y y y y y y y y y y y y y y y y y "
};
