/* XPM */
static const char *monsoongrass[] = {
/* columns rows colors chars-per-pixel */
"64 64 2 1 ",
"  c #599920",
". c #95B81D",
/* pixels */
"................................................................",
"................................................................",
"................................................................",
"................................................................",
"..............      ............................................",
"..............      ............................................",
"..............      ............................................",
"................................................................",
"................................................................",
"................................................        ........",
".......      ...................................         .......",
".......      ...................................         .......",
".......      ...................................   ...   .......",
"................................................................",
"................................................................",
"................................................................",
"................................................................",
"................................................................",
"................................................................",
".....................................     ......................",
".....................................     ......................",
".....................................     ......................",
"................................................................",
"................................................................",
"................................................................",
"................................................................",
"................................................................",
"................................................................",
"................................................................",
"................................................................",
"................................................................",
"................................................................",
".................        .......................................",
".................         ......................................",
".................         ......................................",
".................   ..    ......................................",
"................................................................",
"................................................................",
"................................................................",
"................................................................",
"................................................................",
"................................................       .........",
".............................................          .........",
".............................................          .........",
".............................................     ..............",
"................................................................",
"................................................................",
"................................................................",
"................................................................",
"................................................................",
"...........        .............................................",
"...........        .............................................",
"...........        .............................................",
"...........   ..................................................",
".....................................         ..................",
"....................................          ..................",
"....................................          ..................",
"....................................    ........................",
"................................................................",
"................................................................",
"................................................................",
"................................................................",
"................................................................",
"................................................................"
};
