/* XPM */
static const char *mud[] = {
/* columns rows colors chars-per-pixel */
"64 64 73 1 ",
"  c #4C360C",
". c #4E380D",
"X c #543B0E",
"o c #593E0F",
"O c #553D11",
"+ c #583D10",
"@ c #59400F",
"# c #574013",
"$ c #5C4313",
"% c #5D4519",
"& c #5F481A",
"* c #614615",
"= c #644916",
"- c #694C17",
"; c #604719",
": c #644A1A",
"> c #674D1D",
", c #664E1E",
"< c #694B18",
"1 c #684B19",
"2 c #694C1B",
"3 c #694F1B",
"4 c #6C4E18",
"5 c #6D4F19",
"6 c #694F1F",
"7 c #6C4F1C",
"8 c #6E5118",
"9 c #6F5019",
"0 c #69501D",
"q c #6D511C",
"w c #6C521F",
"e c #705017",
"r c #70531B",
"t c #72531C",
"y c #70521F",
"u c #72561D",
"i c #75571D",
"p c #75581F",
"a c #665022",
"s c #6B5222",
"d c #6C5222",
"f c #6E5422",
"g c #6E5324",
"h c #6F5525",
"j c #715523",
"k c #725623",
"l c #745623",
"z c #725624",
"x c #745820",
"c c #725926",
"v c #755924",
"b c #7B5B24",
"n c #7B5B25",
"m c #725929",
"M c #755929",
"N c #765D2C",
"B c #785B2A",
"V c #795D2B",
"C c #7B5F2A",
"Z c #7E6127",
"A c #7C602B",
"S c #7F632E",
"D c #7F6231",
"F c #80612B",
"G c #81642E",
"H c #84672E",
"J c #826531",
"K c #846632",
"L c #866935",
"P c #876A36",
"I c #896C35",
"U c #8F6F38",
"Y c #8F713B",
/* pixels */
"pqyq5lqx13r-3dcVFHF6d>O.  ****--$9=#OOO&zzzv%6;#*vVVJzLLmNvbiubl",
"55111515i9y-$1khh:6#%X....#=*=-*#*$*OO*0vMAkkM0O>cV6>%%%6szZbq95",
"3*5=599591q555=*O.X OXXo$$$$*$$$*#*$O##$;g*#1M>>>#;O      ;h:10#",
"1$*-55%%=93-53=%=O$#OoO#***#+$$#55*%OOOXXXXO###oX    -*  O#;&O.;",
"O$$**##XO-#O=;13;;&%**#$**--=-1193*;**%#$OoOoXXX...@X##X ....  X",
"##**$#X###O#O*31;&&*31=**%==*53O%****;=1*$#OOXXoXOo#*OO. .     *",
"**=-*#*#*#O%;111:%#$*=3-r5**=*-*x6*$;%#$#*#+OOO%*##***#+**#oX###",
"#$*=$OOOO#**>76q6%$*%*=*=-39q;fGSS6d>16>*****1*1*&%*=-%%%-==*$#+",
"$*##$#*%**%*3yq0=****#$OOo#6k1dMms>ddVVkqkv0911;&;316*;=111;;*=*",
"*$#$%=%701q%1q59955-*###XOO*..+#h#>&s;;$qvJGcfkf697q69;;%&%&&&3;",
"%*=qq1;mVvvNN>006=-**-**###$**q*6*%X;OO+>1VAGVVSGvcy311;&###%&16",
".#>vSGGKLVmdVm>qzq=**==*-1-=%##*%-=*OOoXo%;*0dSJVSl6*;;;*#OOO&c:",
"s#6v6VMN>%%;O>&%1**11****115===1;;*=***#O#oO*1kqq;#O#103%*#X.#>>",
"& . ..OOXXoOXXXOXO+#$$**%===5*3111=11***$**oX##X@OO#$-351=--*O##",
"  . XXX#OX+##@OXoXOo#+*****-9*%#%%*$*;;115=*#X$o#+$**==**=**$O#X",
"@XXX+$#O#OOO$$=*#OO+ooOoo$#**+OOOOOO%*11*--59#$***%*=-***##O*+#O",
"3O@#$*$$#*#**93==$*$$*o#*#*$#O#*#O#***==**$*=*=*==*==--=**O*1**#",
"9==--=#**110*1*%**$$*$33=***-O##*1131=-=$###$$$****-5u9513*11;13",
";&***=****=6#31#1%O*%***--9e95-*#%=353--=**-*1q366q6qH--593111;;",
";11*$%%%;=3**$%%;O##XOO$@*-5r9*O#$*355==y9=-9uHBFAVVVvk*$#*1%>&&",
"&#&#%&11%=*****;#%#+XX.ooX$*=$*=--#o==**vV$q6>gVzNsmh;% XO+#&61:",
":66>3%;311=*%$%##%;#oXXOOX+*#+#*r9**5ckfJLDVhhd%>>>:#&OOO##%3>>&",
"VBcf*1635-*=**$$***$$$$#$-59*##$-**9AKUGIzMa#;%OO... XO#$=*35yv1",
"LYS0&;15r--**********#*#9931=*+-#o;VAGv$d$XoX     ..Xo$$**=--xGK",
"IKk;#**5ry9*$*#$#**$*$-%*-rr-r*==#**qd#o###X$o####$*-*##$#**0vVY",
"&.oO##$=-9-r=****$$$**9955955e95=#Oooo#%**$#=5955=*--*$#$+*%>>ds",
" #O**#o#*$***-***-=***--*%**95=#*$##*=-95==r9959ii9559*$$$#X#$##",
"#%%#**=*$#$Oo@oX##$#OOO#O##+%%####9r95rrr95iiiilyy9q99y5==$==1@ ",
"*OOXo$=--=-=*$##o*OO#O#O%#O#OOO*$-95#$O$5-$-95iiiybyxiir9=*$**#o",
"*5-=*o#--*=***o$$*$*;1*#;%%*=**-1;1-*O%$*o#***ubbbpuirr5y***==**",
"95=**#$***-**$@**$**;s:h>31;;;1331653-*O@*-*-$9rr99u9xbx0oo$55r5",
"r5=%OO#**3r-*==9#+6%qLLKGAk1033kkqq61=9*-95555xbbbb>>fz%# Xo=-rr",
"$9=#OOO&zzzv%6;#*vVVJzLLmNvbiublpqyq5lqx13r-3dcVFHF6d>O.  ****--",
"#*$*OO*0vMAkkB0O>cV6>%%%6szZbq9555111515i9y-$1khh:6#%X....#=*=-*",
"*#*$O##$;g*#1M>>>#;O      ;h:10#3*5=59r591q555=*O.X OXXo$$$$*$##",
"55*%OOOXXXXO$##oX    -*  O#;&O.;1$*-55*%=9--53=%=O$#OoO#***#+$$#",
"93*;**%#$OoOoXXX...#X##X ....  XO$$**@#XO-#O=;13;;;%=*#$**--=-11",
"%****;=1*$#OOXXoXOo#*OO. .     *##**$#X###O#O*31;&;*31=**%==*53O",
"x6*$;%#$#*#OOOO%*##***#+**#oX###***-*#*#*#O%;111:%#$*=3-r5=*=*-*",
"SS6d>16>***%*1*1*&%*=-%%%-==*$#+#$*=$OOOO#**>76q6%$*%*=*=-39q;fS",
"ms>ddVVkqkv0911;&;316*;=111;;*=*$*##$#*%**&*3yq0=*%**##OOo#6k1dM",
"h#>&s;;$qvJGcfkf697q69;;%&%&&&3;*$#$%=%701f&1q59955-*###XOO*..O#",
"6*%X;OO+>1VAGVVSGvcy311;&###%&16%*=qq1;mVvvNN>006=-**-**###$**q*",
"%-=*OOoXo%;*0dSJVSl6*;;;*#OOO&c:.#>vSGGKLVmdVm>qzq***==*-1-=%##*",
";;*=***#O#oO*1kqq;#O#103%*#X.#>>s#6v6VMN>%%;O>&%1**11****115===1",
"11=11***$**oX##X@OO#$-351=--*O##& . ..OOXXoOXXXOXO+#$$**%===5*31",
"%%*$*;;115=*#X$o#+$**==**=**$O#X  . XXX#OX+##@OXoXOo#+*****-9*%#",
"OOOO%*11*--59#$***%*=-***##O*O#o@XXX+$#O#OOO$$=*#OO+ooOoo$#**+OO",
"#O#***==**$*=*=*==*==--=**O*1**#3O@#$*$$#*#**93==$*$$*o#*#*$#o#*",
"*1131=-=$###$$*****-5u9513*=1;139==--=#**110*1*%**$$*$33=***-O##",
"#%=353--***-*1y366q6qH--593111;;;&***=****=6#61#1%O*%***--9r95-*",
"#$*355==y9*-9uHbFAVVVvk*$#*1%>&&;11*$%%%;=3**$%&;O##XOO*$*-5e9*O",
"--#o==**vV$q6>gVzNsmh;% XO+#&61:&#&#%&11%=*****;#%#OXX.ooX$$*$*=",
"r9**5ckfJLDVhhd%>>>:#&OOO##%3>>&:66>3%;311=*%$###%;#oXXOOXO*#+#*",
"-**9AKUGIzMa#;%OO... XO#$=*35yv1VBcf*1635-*=**$$***$$$$#$-59*##$",
"#o;VAGv$d#XoX     ..Xo$$**=--xGKLYS0&;15r--**=*******#*#9931==o-",
"=#**dd#o@##X$o####$*-*##$#**0vVYIKk;#**5ry9*$*$$#****$-%*-rr-r=-",
"=#Oooo#%**$@=5955=*--*$#$+*%>>ds&.oO#$$=-9-r=*****$$**9955955ee5",
"*$##*=-95-=r9959ii9559*$*$#X#$## #O**#o#*$***-***-=***--*%**95=#",
"$#9r95rr995iiiilyy9q99y5==*==1@ #%%#$*=*$#$Oo@oX@#$#OOO#O##+%%##",
"$-95#$O$5-$-95iiiybypiir9=*$**#o*OOXo$=--=-=*$##o*OO#O#O%#O#OOO$",
"1;1-*O%$*o#***ubbbpuirr5y***=**$*5-=$o#--*=***o$$*$**1*#;%%*=*%-",
"31353-*O#*-$-$9rr99u9xbx0oo$55r595=**#$***-**$@*****;s:h>31;;;>6",
"kqq61=9*-95555xbbbb>>fz%# Xo=-rrr5=%OO#*;3r-*==9#+6%qLLKGAk1033k"
};
