/* XPM */
static const char *path2[] = {
/* columns rows colors chars-per-pixel */
"64 64 4 1 ",
"  c #D7C6A2",
". c #D6D6BE",
"X c #DEDDC9",
"o c #E7E7DA",
/* pixels */
"                                                                ",
"                                                                ",
"                                                                ",
"      XXXXXX                          XXXXXXX                   ",
"     XXXXXXXXXXXXXXXXXXXXXXXX        XXXXXXXXXXXXXXXXXX         ",
"    XXXXXXXXXXXXXXXXXXXXXXXXXXX     XXXXXXXXXXXXXXXXXXXXX       ",
"    XXXXXXXXXXXXXXXXXXXXXXXXXXX     XXXXXXXXXXXXXXXXXXXXX       ",
"    XXXXXXXXXXXXXXXXXXXXXXXXXXX     XXXXXXXXXXXXXXXXXXXXX       ",
"    XXXXXXXXXXXXXXXXXXXXXXXXXXX     XXXXXXXXXXXXXXXXXXXX        ",
"    XXXXXXXXXXXXXXXXXXXXXXXXXX       XXXXXXXXXXXXXXXXXX         ",
"     XXXXXXXXXXXXXXXXXXXXXXXXX        XXXXXXXXXXXXXXXX          ",
"     XXXXXXXXXXXXXXXXXXXXXXXX                                   ",
"      XXXXXXXXXXXXXXXXXXXXXX                                    ",
"                                   ..................           ",
"                                  .....................         ",
"                                 ......................         ",
"             ooooooooooooo       ......................         ",
"           ooooooooooooooooo    .......................         ",
"          ooooooooooooooooooo   .......................         ",
"         oooooooooooooooooooo    ......................         ",
"         oooooooooooooooooooo     .....................         ",
"          ooooooooooooooooooo                                   ",
"           ooooooooooooooooo                                    ",
"                                           XXXXXXXXXXXX         ",
"    ............             XXXXXX      XXXXXXXXXXXXXXXX       ",
"   ...............      XXXXXXXXXXXXX   XXXXXXXXXXXXXXXXX       ",
"  ................     XXXXXXXXXXXXXX  XXXXXXXXXXXXXXXXXX       ",
" .................    XXXXXXXXXXXXXXX  XXXXXXXXXXXXXXXXXX       ",
" .................    XXXXXXXXXXXXXXXX  XXXXXXXXXXXXXXXXX       ",
" .................    XXXXXXXXXXXXXXXX  XXXXXXXXXXXXXXXXX       ",
" .................   XXXXXXXXXXXXXXXXX   XXXXXXXXX              ",
" ................    XXXXXXXXXXXXXXXXX                          ",
"  ...........         XXXXXXXXXXXXXXX                           ",
"                       XXXXXXXXXXXXX       ooooooo              ",
"        XXXXXXXXXXX                       oooooooooooooooooo    ",
"     XXXXXXXXXXXXXXXX                    ooooooooooooooooooooo  ",
"    XXXXXXXXXXXXXXXXX   oooooooooo      oooooooooooooooooooooo  ",
"   XXXXXXXXXXXXXXXXXX  ooooooooooooo    oooooooooooooooooooooo  ",
"  XXXXXXXXXXXXXXXXXXX  ooooooooooooo    oooooooooooooooooooooo  ",
"  XXXXXXXXXXXXXXXXXXX  oooooooooooooo   oooooooooooooooooooooo  ",
"   XXXXXXXXXXXXXXXXXX  oooooooooooooo    ooooooooooooooooooooo  ",
"     XXXXXXXXXXXXXXX   oooooooooooooo        ooooooooooooooooo  ",
"                       oooooooooooooo               ooooooooo   ",
"                       oooooooooooooo                           ",
"     XXXXXXXXXXX        ooooooooooooo    XXX                    ",
"    XXXXXXXXXXXXXX        oooooooooo    XXXXXXXXXXXXXXXXXXXX    ",
"   XXXXXXXXXXXXXXXXX                   XXXXXXXXXXXXXXXXXXXXXXX  ",
"   XXXXXXXXXXXXXXXXX                   XXXXXXXXXXXXXXXXXXXXXXX  ",
"   XXXXXXXXXXXXXXXXXXX       XXXXX     XXXXXXXXXXXXXXXXXXXXXXX  ",
"   XXXXXXXXXXXXXXXXXXX    XXXXXXXXXX   XXXXXXXXXXXXXXXXXXXXXXX  ",
"   XXXXXXXXXXXXXXXXXXX   XXXXXXXXXXX   XXXXXXXXXXXXXXXXXXXXXXX  ",
"    XXXXXXXXXXXXXXXXX   XXXXXXXXXXXXX   XXXXXXXXXXXXXXXXXXXXX   ",
"                       XXXXXXXXXXXXXX                   XXXX    ",
"                       XXXXXXXXXXXXXX                           ",
"       oooooooooo     XXXXXXXXXXXXXXX     ...............       ",
"      ooooooooooooo   XXXXXXXXXXXXXXX   ...................     ",
"     oooooooooooooo   XXXXXXXXXXXXXX   ......................   ",
"    ooooooooooooooo    XXXXXXXXXX     ........................  ",
"    ooooooooooooooo                   ........................  ",
"     oooooooooooooo                   ........................  ",
"        ooooooooo                      .......................  ",
"                                         .....................  ",
"                                                     ........   ",
"                                                                "
};
