/* XPM */
static const char *path_snowy[] = {
/* columns rows colors chars-per-pixel */
"64 64 31 1 ",
"  c gray50",
". c #818181",
"X c gray52",
"o c gray54",
"O c #8E8E8E",
"+ c #939393",
"@ c gray58",
"# c gray60",
"$ c #9F9F9F",
"% c gray64",
"& c gray65",
"* c #AAAAAA",
"= c gray68",
"- c #B1B1B1",
"; c #B4B4B4",
": c gray72",
"> c gray",
", c #C0C0C0",
"< c gray77",
"1 c #CBCBCB",
"2 c #CDCDCD",
"3 c #D8D8D8",
"4 c #DFDFDF",
"5 c #E1E1E1",
"6 c #E7E7E7",
"7 c gray92",
"8 c #EFEFEF",
"9 c gray94",
"0 c gray96",
"q c gray98",
"w c gray99",
/* pixels */
"9999090079977868878909009q000907997777778989q000qqq0999978889889",
"8899900999879767790qq0000q099889687897899900q000qqqq099778666669",
"887889988898978900qqqqqqq098988667989899900009790qq0qq9878767787",
"9789909000070800qq0qqqq090999898789088889999008900qwwq0098877690",
"989998900000000qqqqq00000999988969900990q0098990090qqq0998795798",
"798809qq,:<8099q0qqq009099888899909999=2090980000q0qqq9909997998",
"8099q0w:=<00000qqq00qq000999889808999;;2X88990099900000099089898",
"990qqwqqq0q00909q00q00q000908909909999990099890000000q0800989989",
"00qqq0899q9000900qq9q0000909998987790q9000999.%99909009099989980",
"090qqq9009qq0q00qq0q99q000089008890009900q00 o=&9999008qq9q0000q",
"qqwqqqq00q900000000099900q000079q090q0q0000000090000909999qq0wq0",
"qq0qqqqqq0000090qOX99q0000000090090qqqqq00q000000q0q9q08099qwqq0",
"qq0qq0qq009qq0q0@O +000900qq0990090q0qqqqq000qq0qq00099889qqq0qq",
"00qq00q000000q0qqq9900q00000090900q0qqqqqq00qq0qqqq090989q0qqq0q",
"qqq0q00qq00099009000q0090q09000900qqqqqqqq009qqqqq0099889800q90q",
"0qq0q0qq99990999900q00qqq09990900qq0qqqqqq09900000009889090890qq",
"q0qqqqqq0988999890000qqq0009080qqqqqqq098089899o;=q0099908908q00",
"q00qqq000980988809000qqq0089779900000q00999888-o=$X9009900890q0q",
"9q0q0q009899898809000qqq0999777789897990990878990909000009990800",
"q009908988988889000qqqq009887688898999909909999009990900990q00q0",
"q089988998888899900q0q0009788888889990800qqqqq099000000000009009",
"00090909999908888980909099999999909789999q0q00008990900qq000000q",
"qqq00000099899888888788878897998898999080q0980000000000q0qqqqqqq",
"qqqq900099899987999099998789090988900000q0900qq00009q000qq0qqqqw",
"qq00##9999888888999999009889099q0000q0q0q0990000q009009qqqq0qq0q",
"q00-oO;98798888898888880989980qqq0qqqqq0q098099000090999090qqqqq",
"q0009999999888988788888899990&qqqwqqqqqq0080090000009999900qqqqq",
"9999999999988998888898868990;#,wwqqqqqq0009000000099979809090000",
"999889009099909888988999900q0qqqwqqqqqq9009888899088880799990999",
"89999080990090989099880900q00q00qqq0qqq0008996687988877789990988",
"80000000000q89q0qq0999099009000000qqqq89q99966768587787879090997",
"90087908990000q0qwq0009780877789993&0q00099989967878988888000009",
"997777778989q000qwq0999978889889922= 90079977868878909009q000907",
"687897899900q000qqqq0997786677698899900999879767790qq0000q099889",
"67989899900009790qq0qq9878767787887889988898978900qqqqqqq0989886",
"789098889999008900qwqq00988786909789909000070800qq0qqqq090999898",
"69900990q00989900900000998795798989998900000000qqqqq000009999889",
"99989900090980000q0qqq9909997998798809qq9098099qqqqq000099888899",
"08999899098990$>99000000890898988099q0wq9899000qqq00qq0009998898",
"8099999900998:3530000q0800989989990qqwqqq0q00909q00q00q0&0908909",
"87790q9000999989990900909998998000qqq0899q9000900qq9q005@&099989",
"890009900q0009009999008qq9q0000q090qqq9000qq0q00qq0q99q000089008",
"q090q0q0000000090000909999qq0wq0qqwqqqq00q900000000099900q000079",
"090qqqqq00q0000q0q0q0q08099qqqq0qq0qqqqqq0000090q009900000000090",
"090q0qqqqq000qq0qq00099889qqq0qqqq0qq0qq009qq0q00q00000990qq0990",
"00q0qqqq@q00qq0qq0q090989q0qqq0q00qq00q000000q0qqq9900q000000909",
"00qqqqq$50009qqqqq0099889800q90qqqq0q00qq02099009000q0090q090009",
"0qq0qqqqqq09900000009889090890qq0qq0q0qq9;@%0999900q00q0q0999090",
"qqqqqq098089899000q0099908908q00q0qqqqqq0988999890000qqq0009080q",
"00000q009998888999090q9900890q0qq00qqq000980988809000qqq00897799",
"898979909908789909090000099908009q0q0q009899898809000qqq09997777",
"898999909909999009990900990q00q0q009908988988899000qqqq009887688",
"889990800qqqqq099000000000009009q089988998888899900q0q0009788888",
"909789999q0q00008990900qq000000q00090999999998888980909099999999",
"898999080q0980000000000q0qqqqqqqqqq00000099899888888788878897998",
"88900000q0900qq00009q000&45qqqqwqqqq9000998999879990999987890909",
"0000q0q0q0990000q009009;O   qq0qqq000999998888889999990014890990",
"q0qqqqq0q@98099000090999090qqqqqq0099099989888889888888-,13980qq",
"qwqqqqqq<6=0090000009999900qqqqqq0009999999888988788888899990qqq",
"wqqqqqq000900000009997980909000099999999999889988888988689909qqw",
"wqqqqqq9009988899088880799990999999889009099909888.:8999900q0qqq",
"qqq0qqq000899668798887778999099889999980990090989@+o*80900q00q00",
"00qqqq8909996676858778787909099880000000000q89q0qq09990900q90000",
"99000q000999899678789888880000009q087998990000q0qwq0009780877789"
};
