/* XPM */
static const char *quartzite_tile[] = {
/* columns rows colors chars-per-pixel */
"64 64 96 2 ",
"   c #4C3029",
".  c #4F322C",
"X  c #51332C",
"o  c #52342D",
"O  c #56362F",
"+  c #573730",
"@  c #5B3A32",
"#  c #5C3B33",
"$  c #5F3C34",
"%  c #633F36",
"&  c #644037",
"*  c #674138",
"=  c #684239",
"-  c #6A443B",
";  c #6C443B",
":  c #6E463D",
">  c #70473D",
",  c #71483E",
"<  c #734940",
"1  c #764B41",
"2  c #774C42",
"3  c #794D42",
"4  c #7B4E44",
"5  c #7C4F45",
"6  c #7F5146",
"7  c #73514D",
"8  c #805247",
"9  c #835348",
"0  c #835449",
"q  c #845449",
"w  c #87564C",
"e  c #88574B",
"r  c #89574C",
"t  c #8B584C",
"y  c #8C594D",
"u  c #905B4F",
"i  c #8E5B50",
"p  c #925D51",
"a  c #945E51",
"s  c #976154",
"d  c #986053",
"f  c #9A6255",
"g  c #9C6356",
"h  c #9D6456",
"j  c #9B6458",
"k  c #9F6558",
"l  c #A16658",
"z  c #A3685A",
"x  c #A4695B",
"c  c #A2695C",
"v  c #A66B5D",
"b  c #A66C5F",
"n  c #A76D60",
"m  c #A86F61",
"M  c #A87063",
"N  c #AA7366",
"B  c #AB7568",
"V  c #AC7669",
"C  c #AD786B",
"Z  c #AD786C",
"A  c #B07C6F",
"S  c #AF7C70",
"D  c #B07D72",
"F  c #B27F74",
"G  c #B28175",
"H  c #B48377",
"J  c #B5867B",
"K  c #B7877C",
"L  c #B7887D",
"P  c #B88A7F",
"I  c #B98B81",
"U  c #B98C82",
"Y  c #BA8E84",
"T  c #BC9187",
"R  c #BD9389",
"E  c #BE948B",
"W  c #BF968C",
"Q  c #C0978E",
"!  c #C0988F",
"~  c #C29B93",
"^  c #C39D94",
"/  c #C49D95",
"(  c #C6A097",
")  c #C5A098",
"_  c #C7A39C",
"`  c #C8A49B",
"'  c #C9A79F",
"]  c #CBAAA3",
"[  c #CBABA4",
"{  c #CCACA5",
"}  c #CFAFA8",
"|  c #CFB1AA",
" . c #D0B2AB",
".. c #D1B3AC",
"X. c #D2B4AD",
"o. c #D4B8B1",
/* pixels */
"7 7 7 7 7 7 7 7 7 7 7 7 7 7 7 7 7 7 7 7 7 7 7 7 7 7 7 7 7 7 7 7 7 7 7 7 7 7 7 7 7 7 7 7 7 7 7 7 7 7 7 7 7 7 7 7 7 7 7 7 7 7 7 7 ",
"7 7 7 7 7 7 7 7 7 7 7 7 7 7 7 7 7 7 7 7 7 7 7 7 7 7 7 7 7 7 7 7 7 7 7 7 7 7 7 7 7 7 7 7 7 7 7 7 7 7 7 7 7 7 7 7 7 7 7 7 7 7 7 7 ",
"7 7 n n n n n n n n n n n n n n n n n n n n n n n n n n n n 7 7 7 7 n n n n n n n n t % l r a n n n n n n n n n n A G V Z N 7 7 ",
"7 7 n n n D E D n n n n n n n n n n n n n n n n n n n n n n 7 7 7 7 n n n n n n n n < t q 1 r z n n n n n n N V D ~ S V E B 7 7 ",
"7 7 n n D ~ P Y U n n n n n n n n n n n n n n n n n n n n n 7 7 7 7 n n n n n n n = k y 9 a k z n n n n n n D / R Q )  .P B 7 7 ",
"7 7 n n U ' / Q U N n n n v h k p q n n n n n n n n l r s v 7 7 7 7 b z n n n n n d z 8 a l l b n n n n n N K K I R R | F N 7 7 ",
"7 7 n n ~ ) ^ _ ) R D d 4 a : 2 = , l n n n n n n n 9 % 0 k 7 7 7 7 c g b n n n n n b z b l z n n n n n n P P D ~ N ( ! Z m 7 7 ",
"7 7 D Y Q U ] { ] ) D 3 , 9 q ; = 8 f n n n n n n a = - = k 7 7 7 7 c l b n n n n n n n n n n n n n n n n n M Z Z ' J V B M 7 7 ",
"7 7 D G J E ' [ I N 8 y 8 8 r : u p z n n n n n n < 5 3 % k 7 7 7 7 z x n n n n n n n n n n n n n n n n n n n n n D N H n n 7 7 ",
"7 7 n n D L D I n n 8 v d v r r f a b n n n n n V m D r r b 7 7 7 7 c v n n n n n n n n n n d 4 l r a n n n n n n n m N n n 7 7 ",
"7 7 n n J ! I n n n n v f n n b l z n n n n K ] P ] ~ l b b 7 7 7 7 n n n n v p q p = r = 4 3 &   1 r z n n n n n n n n n n 7 7 ",
"7 7 n n N N n n n n n n n n n n n n n D ) R ~ R / ~ K V n n 7 7 7 7 n n a % * < ; : 8 2 3 % % % < 9 k z n n n n n n n n n n 7 7 ",
"7 7 n n n n n n n n n n n n n n n V K W E ] R / ~ D D M n n 7 7 7 7 v n q & % < # , % # 4 o X $ , f l b n n n l r a n n n n 7 7 ",
"7 7 n n n n n n n n n n n n n n n G ' ] { T ~ / ~ G D n n v 7 7 7 7 b q X 4 < 4 6 9 < 8 @ 4 2 2 8 d z n n n n p 1 r z n n n 7 7 ",
"7 7 n n n n n n n n n n n n n n D P K ~ E ~ D ~ ~ Z N n n b 7 7 7 7 b w 1 9 5 y r , l > y 4 2 z z b n n n n a q a k z n n n 7 7 ",
"7 7 n n n n n n n d 4 l r a d 4 N y ~ : p H E I Z Z n n v b 7 7 7 7 v k z l h b l l l d v a h f h n n n n n a a l l b n n n 7 7 ",
"7 7 n n n n n f 1 = ; - : * & ; # X 5 2 b d W K W N D n j b 7 7 7 7 v x p z n n n n n n n n n n n n n n n n n b l z n n n n 7 7 ",
"7 7 n n n n n y = 4 #   & o + X o & @ l h v V Q ~ Y ' z s b 7 7 7 7 n n n n n n n n n n n n n n n n n n n n n n n n n n n n 7 7 ",
"7 7 n n n n e 9 3 3 @ % o + + X ; 3 e t y N Y E  .~ D l k b 7 7 7 7 n n n n n n N D n n n n n n n n n n n n n n n n n n n n 7 7 ",
"7 7 n n n n v Z H r ] 9 % o % % % * ; l b I ../ ' P Z M b b 7 7 7 7 n n n n n n R { D K D n n n n N D n n n n n v d p n n n 7 7 ",
"7 7 n n n n V W R W m t 4 = % $ ; 2 f f n E ] I K R J N n n 7 7 7 7 n C n n n D ) ' W Q K N n n n T { N n n n l < o o z n n 7 7 ",
"7 7 n n n N Y H ' H N d < * % q = l l b ' D N N ~ ~ D n n n 7 7 7 7 n S B n n ' Y R R G Z N n n D / R D n n n y # + 3 r n n 7 7 ",
"7 7 n n n N P N D N H u r u N Z Z Y d n n N H I K D Z n n n 7 7 7 7 n N V n n ~ D R H Z V m n n ' W Q V n n a & o y y z n n 7 7 ",
"7 7 n n n n m N Z f 8 9 z K ` W } ( D ~ { n n P Z D N n n n 7 7 7 7 n V n n n v l V f p N n n I  .~ E V n n a y a 9 8 n n n 7 7 ",
"7 7 n n n n n n n 9 < p n ^ / ' Q / } { ~ D n n M Z N n n n 7 7 7 7 n N n n n a : 4 2 4 d f V ' ' / T N n n n b l l v n n n 7 7 ",
"7 7 n n n n n n e r f 9 > b N D G { X.W D Z n n n n n n n n 7 7 7 7 n n n n l 8 8 3 < @ ; ; ' ) / K D N n n n n n n n n n n 7 7 ",
"7 7 n n n n n n e k e 3 p $ < a D x W J P m n n f 4 9 a y k 7 7 7 7 c y d b 3 # @ $ & $ @ b D H W D V m n n n n n n n n n n 7 7 ",
"7 7 n n n n n n n l # % # > y a q q S Z V n n n 9 = = < 9 b 7 7 7 7 v y % 9 % % % X = # a f d f Z V N n n n n n n n n n n n 7 7 ",
"7 7 n n n n n n b p 8 & * t f y f z m m n n n y q 8 8 * p b 7 7 7 7 b p p 3 t s y 0 q p t 3 a k z n n n n n n n n n n n n n 7 7 ",
"7 7 n n n n n n v s k z v v b b b b b n n n n v v c v b b b 7 7 7 7 b v c c b n b b b b c k f p a b n n n n n n n n n n n n 7 7 ",
"7 7 7 7 7 7 7 7 7 7 7 7 7 7 7 7 7 7 7 7 7 7 7 7 7 7 7 7 7 7 7 7 7 7 7 7 7 7 7 7 7 7 7 7 7 7 7 7 7 7 7 7 7 7 7 7 7 7 7 7 7 7 7 7 ",
"7 7 7 7 7 7 7 7 7 7 7 7 7 7 7 7 7 7 7 7 7 7 7 7 7 7 7 7 7 7 7 7 7 7 7 7 7 7 7 7 7 7 7 7 7 7 7 7 7 7 7 7 7 7 7 7 7 7 7 7 7 7 7 7 ",
"7 7 7 7 7 7 7 7 7 7 7 7 7 7 7 7 7 7 7 7 7 7 7 7 7 7 7 7 7 7 7 7 7 7 7 7 7 7 7 7 7 7 7 7 7 7 7 7 7 7 7 7 7 7 7 7 7 7 7 7 7 7 7 7 ",
"7 7 7 7 7 7 7 7 7 7 7 7 7 7 7 7 7 7 7 7 7 7 7 7 7 7 7 7 7 7 7 7 7 7 7 7 7 7 7 7 7 7 7 7 7 7 7 7 7 7 7 7 7 7 7 7 7 7 7 7 7 7 7 7 ",
"7 7 n n n n n n n n n n n n n n n n n n n n n n c v b n n n 7 7 7 7 n n n n n n n n n n n n n n n n n n n n d 4 6 % # b n n 7 7 ",
"7 7 n D ~ I D Y V n n n n n n n n d 4 l r p h l n b z v m V 7 7 7 7 b b p 1 m m n n n n n n n n n n n n n n 3 * 4 , y d n n 7 7 ",
"7 7 n J R T { ' ~ M n n n n f 1 q 3 < r 1 4 ; 8 b n n n n n 7 7 7 7 n s , y < l n n n n n n n n n n n n n 8 y 2 % d l v n n 7 7 ",
"7 7 P Y V ) ^ ( / Z n n n n y 8 < q y 8 u 3 ; t 8 r p 4 n n 7 7 7 7 b t d 6 < d b n n n n n n n n n n n n 8 v d z a u n n n 7 7 ",
"7 7 N Z / / ] ( D Z n n n e 2 * & z q p 8 - = * ; % & < l n 7 7 7 7 b v 9 1 f k b n n n n n n z d l r y 3 % v f n n n n n n 7 7 ",
"7 7 n m D P ' Y J m n n n z q 3 e < @ 4 * % @   : = 6 d k n 7 7 7 7 b f e l f x n n n n n n n 8 # y < - @ d d n n n n n n n 7 7 ",
"7 7 n n P Y D Z D n n n n 8 8 8   - > : o & @ # o < l d b n 7 7 7 7 n n n v h a < = 4 t % n d 3 r 4 8 + e d b n n n n n n n 7 7 ",
"7 7 n n N Z D Z n n n n n n v & # , 9 % e X q ; y q f f n n 7 7 7 7 n n Z Y V 3 = < % @ ; = % 8 q e > a d y n n n n n n n n 7 7 ",
"7 7 n n n m N N n n n n n n + b y a * 9 k x = 8 k b n n n n 7 7 7 7 n n I ~ V b 3 9 + % $ < > < 9 z p d a n n t @ d n n n n 7 7 ",
"7 7 n n n n n n n n n n n n n z k U D W E ` D x p n n n n n 7 7 7 7 n G J G P R 3 # @ X = % < d k b n v f f p @ q a v n n n 7 7 ",
"7 7 n n n n n n n n n n n n V K ~ ~ R W / G N N n n n n n n 7 7 7 7 n D Z W J V p = o o = : a a x n n z 2 ; @ 3 p z n n n n 7 7 ",
"7 7 n n n n n n n n n n n n G W b V z = D 4 q b n n n n n n 7 7 7 7 n n V R V f 9 # $ = 3 d h f v n b p 8 : e f t z n n n n 7 7 ",
"7 7 n n n n n n n n n n n D P N 8 z e l % < l l n n n n n n 7 7 7 7 n n B D N N y 8 Z y d l z n n n f < v a z a z n n n n n 7 7 ",
"7 7 h k h l n n n n n n n H D N b > h - < d f b n n n n n n 7 7 7 7 n V ' ' Z n a H / R b n n n n n n b l d b z D R n n n n 7 7 ",
"7 7 : < = 2 p = q = f n n Z D x R G * % z f f n n n n n n n 7 7 7 7 m E | ' W M P I ' ..Z n n n n n n n n n G ) / / V n n n 7 7 ",
"7 7 q 4 * = < 2 - < * p D ' M ~ U a d f u f n n n n n n n n 7 7 7 7 m I N Z D V U ~ ` J H n n n n n n n n n R ( ` { D n n n 7 7 ",
"7 7 9 < 2 $ % o O = # 9 z K  .' D d M f b n n n n n n n n n 7 7 7 7 n v : f n m N { D J N n n n n n n n n ~ T } / Y H n n n 7 7 ",
"7 7 9 @ % X % % & & e N ( ~ W R Z D x h n n z 9 , n n n n n 7 7 7 7 b 0 = 8 x r a m V P n n n n n n n n n Z R } T ' T M n n 7 7 ",
"7 7 y < $ $ @ p ; t y I { K V N D Z n n n n l 3 e y n n n n 7 7 7 7 b 9 : < t 1 r z n n n n n n n n n n n ~ H D Y ' o.V n n 7 7 ",
"7 7 9 % 8 d a p y x Y D V Z H N n n n n n 3 . < 4 @ 8 , n n 7 7 7 7 b t 3 q 8 a k z n n n n n n v p 8 d n Z N ( } / D D n n 7 7 ",
"7 7 l f d y h n n I o.V K Z n n n n n 4 X % - < = 9 - q f n 7 7 7 7 b i a r p l l b n n n n n d * % = @ 8 l V ' X.J D M n n 7 7 ",
"7 7 b v v n n n n ' { U / Y M n n n n & o = a % < X = 4 z n 7 7 7 7 b x z h b l z n n n n n n e ; 2 , < ; d ] ~ I D K n n n 7 7 ",
"7 7 n n n n n n  .~ Y R K D V n n n + q a p 9 r < ; 3 e l n 7 7 7 7 n n n n n n p = f n n n 8 4 q & 5 8 d V R H P N n n n n 7 7 ",
"7 7 n n n n n n ' D ~ U N N m n n n f l 8 k v * e 8 l k b n 7 7 7 7 n n n n n n 9 a v b G I n v d d 5 r f D D Z D m n n n n 7 7 ",
"7 7 n n n n n n D N H N Z Z n n n n n b z b n n x u f h n n 7 7 7 7 n n n n n < l R / Q W R V n n n n v h v M V N n n n n n 7 7 ",
"7 7 n n n n n n n m N n n n n n n n n n n n n n n n n n n n 7 7 7 7 n n n n n m H N U ~ P Z V n n n n n n n n n n n n n n n 7 7 ",
"7 7 n n n n n n n n n n n n n n n n n n n n n n n n n n n n 7 7 7 7 n n n n n D ~ U D I N D m n n n n n n n n n n n n n n n 7 7 ",
"7 7 n n n n n n n n n n n n n n n n n n n n n n n n n n n n 7 7 7 7 n n n n n n M Z H D N Z n n n n n n n n n n n n n n n n 7 7 ",
"7 7 7 7 7 7 7 7 7 7 7 7 7 7 7 7 7 7 7 7 7 7 7 7 7 7 7 7 7 7 7 7 7 7 7 7 7 7 7 7 7 7 7 7 7 7 7 7 7 7 7 7 7 7 7 7 7 7 7 7 7 7 7 7 ",
"7 7 7 7 7 7 7 7 7 7 7 7 7 7 7 7 7 7 7 7 7 7 7 7 7 7 7 7 7 7 7 7 7 7 7 7 7 7 7 7 7 7 7 7 7 7 7 7 7 7 7 7 7 7 7 7 7 7 7 7 7 7 7 7 "
};
