/* XPM */
static const char *sand[] = {
/* columns rows colors chars-per-pixel */
"64 64 30 1 ",
"  c #E5C986",
". c #E6CD8C",
"X c #E8CF8E",
"o c #E6D08F",
"O c #E6CF90",
"+ c #E8CF90",
"@ c #E7D294",
"# c #E8D395",
"$ c #E8D598",
"% c #E9D598",
"& c #E8D499",
"* c #E9D499",
"= c #E9D79B",
"- c #E8D79C",
"; c #EAD79D",
": c #EAD99E",
"> c #EADBA2",
", c #ECDBA1",
"< c #EBDCA3",
"1 c #ECDCA3",
"2 c #E9DBA4",
"3 c #ECDBA4",
"4 c #EBDDA6",
"5 c #EDDEA7",
"6 c #EBDFAB",
"7 c #EDDFA9",
"8 c #EEE1AB",
"9 c #EEE3AE",
"0 c #EEE3AF",
"q c #EFE4B0",
/* pixels */
"qqqqqqqqqqqqqqqqqqqqqqqqqqqqqqqqqqqqqqqqqqqqqqqqqqqqqqqqqqqqqqqq",
"qqqqqqqqqqqqqqqqqqqqqqqqqqqqqqqqqqqqqqqqqqqqqqqqqqqqqqqqqqqqqqqq",
"qqqqqqqqq99qqqqqqqqqqqqqqqqqqqqqqqqqqqqqqqqqqqqqqqqqqqqqqqqqqqqq",
"qqqqqq989889qqqqqqqqq99q99999qqqqqqqqqqqqqqq9q9qqqqqqqqqqqqqqqqq",
"qqq9898588589qqqqq9999798788798898999999qqq999q7qqqqqqqqqqqqqqqq",
"qqq9578755899qqqq89558775555555581585988988885955qqqqqqqqqqqqqqq",
"qqq9888555778qqq58875955557555:>5<,555755558777599qqqqqqqqqqqqqq",
"qqq9999888999qqq77787887577587>>5,,>55555578855575qqqqqqqqqqqqqq",
"qqq9999999999qqq9q87889988887578557588587788887855qqqqq9q8qqqqqq",
"qq99979999qqqq999774789459744>>445788999988885;>::8989959*19qqqq",
"q878999qqq994<4>>:>:*;:**;**@*>*;>>:799999855*.*;@*,:>:O,**89qqq",
"q878888915**@**#*@##@.@...... #@#>:**>*,8q*:5*#**@****:#*#::59qq",
"q9997,1>@@ ..@*#***#..... o#@...@@O @+:*>9*:1:******##*X@@#*89qq",
"q9997*;*..Oo#***;*;;**#**#@@#@O.. ...###*8:<75,>,51>:;**#*:499qq",
"q9857::;@@.#*****::;:;*:>::***#**@.o@.@**::4>9899898575>>>4<89qq",
"5755555>:****;>>>><;:>><4>55>:*44>*o@**5>:51,qqqqqq9999887999qqq",
"57955,<>:>:>:>669871555555558575>;:;*2355789899qqqqqq99999999qqq",
"9978844<><555588998785777889988>>52>578999988989qqqqqqqqqqqqqqqq",
"99989875115>558899999999999999974>>><59q99857878999qqqqqqqqqqqqq",
"999999875555557899999999q999qq999855799q85555547989qqqqqqqqqqqqq",
"qqqqq9999999988899qqqqqqqqqqqqqq9999999q98875,>5889qqqqqqqqqqqqq",
"qqqqqq999599997998qqqqqqqqqqqqqqqqqqqqqq999995577889qqqqqqqqqqqq",
"qqqqqq5788888858979qqq9999qqqqqqqqqqqqqq999999999999qqqqqqqqqqqq",
"qqqqqq55955158557778qq99858889qqqqqqqqqqq9999998998qq99999qqqqqq",
"qqqqqq99557578555785q999558989qqqqqqqqqqqq9998957858857759qqqqqq",
"qqqqqq99978788898898q987555789qqqqqqqqqqq98887855555555558qqqqqq",
"qqqqqqq9999889899999q99888788899qqqqqqqqq87887755555<551,59qqqqq",
"qqqqqqqqq99999999999q99999999999qqqqqqqqq98887577589551,558qqqqq",
"qqqqqqqqqqqqqqqqqqqqqqqq99999qqqqqqqqqqqq999988899998877779qqqqq",
"qqqqqqq99999qqqqqqqqqqqqqqqqqqqqqqqqqqqqqq99999999999999999qqqqq",
"qqqq989878859qqqqqqqqqq99997995985qqqqqqqqqqqqqqqqqqq999999qqqqq",
"qqqq9578755899qqqqqqq9984>9444<4647q8q999989999qqqqqqqqqqqqqqqqq",
"qqqq9888555778qqqq99>>*;>>>>>4:;>>>4>77>75>49759997999qqqqqqqqqq",
"qqqq9998887889999>2O#*@#>**:;;***;#**;2#*:*:>>>559>575959qqqqqqq",
"qqqq999999999955*#@..#*#**###@###@@@#+:#.*@.#*:*>7>>4*>2*5qqqqqq",
"qqqqq9959999>:;*@@#*#***;*#####@..@.###**#**#*@@*;>*#*##;18qqqqq",
"qqqq97955918;#**@#*::>4445>**####***>**##**@@@@#@@*@.@.X#@*5qqqq",
"qqqq99859585*:::@@@#;4577>4:;**#*;;:>>>*;**@#@@##*:;#;###:>5qqqq",
"qqqq9777751:*:*>***:;>4444>>>46>2>;4447>>:::**:*:::>::>1>789qqqq",
"qqqq99999785551575>:**;444>55899898898955557555,,55557788899qqqq",
"qqqqq9999999999997>1:::5575779988qq9q998898897895995888999979qqq",
"qqqqqqqqqq99999qq75554577799877889qq99977887975957858888959759qq",
"qqqqqqqqqqqqqqqqq999777899977578558q858755757558557555558887899q",
"qqqqqq9997qqqqqqqq99999989558978989q98885555555555>5,,555557759q",
"qqqqqq97955qqqqqqqqqqqq858555779999q999888887755>1:,55787778889q",
"988q89558799qqqqqqqqqqq988875788999q99999999999755>175579999999q",
"885,88955757qqqqqqqqqqq999988899qqqqq99999999998555558789999q9qq",
"978557878999qqqqqqqqqqq99999999qqqqqqqqqqq99999988888999qq9qqqqq",
"577589888999qqqqqqqqqqqq999999qqqqqqqqqqqqq9999799999999qqqqqqqq",
"999999999qqqqqqq99719qq797799qqqqqqqqqqqqq99857559999959qqqqqqqq",
"99999qqqqqqqq9885>5*:81475>5195qqqqqqqqqqq878885899778889qqqqqqq",
"qqqqq9qqq9997>:5>*:@*:O*;>:;*,,8qqqqqqqqq99875557597598559qqqqqq",
"qqqqqq994>9::;*:;#*##*####;#@#*>,57559799q9998778899989989qqqqqq",
"qqqqq75>>*:;#*####@##**##@#@..@@*>>>*;>8858589999999999999qqqqqq",
"qqqq9>#>*#*;********:;:***##@@@##;;;**@@X.:>49q9q9qq999999qqqqqq",
"qqq9:5;**#**#*#*#;;;:>>;>***@O@##**;:*O...#;;5qqqqqq999qqqqqqqqq",
"qqq794:>;;**######*#;::::;;#@@##**;>>**##.@*:>qqq9958959qqqqqqqq",
"qqq9:>::;>>:*:>:>>;;::::>>>*******::>>>:;***:>9qq79758589qqqqqqq",
"qqq895744>44458454<>446446746>>>246784444>>>>48q998575788qqqqqqq",
"qqqq99999887778887657989999q9989999999766454479q977755788qqqqqqq",
"qqqqqqqqq9998899999999999qqqqqqqqqqqqq99999989qq998888999qqqqqqq",
"qqqqqqqqqq9999q99999qqqqqqqqqqqqqqqqqqq999999qqqq99999999qqqqqqq",
"qqqqqqqqqqqqqqqqqqqqqqqqqqqqqqqqqqqqqqqqqqqqqqqqqqqqqqqqqqqqqqqq",
"qqqqqqqqqqqqqqqqqqqqqqqqqqqqqqqqqqqqqqqqqqqqqqqqqqqqqqqqqqqqqqqq"
};
