/* XPM */
static const char *sand_ash[] = {
/* columns rows colors chars-per-pixel */
"64 64 23 1 ",
"  c #A79A8F",
". c #AB9B8F",
"X c #AB9D8F",
"o c #A79B91",
"O c #A89B90",
"+ c #AB9E93",
"@ c #AD9F93",
"# c #AB9F95",
"$ c #AC9F94",
"% c #ADA093",
"& c #ABA095",
"* c #AEA196",
"= c #AEA398",
"- c #AEA498",
"; c #AFA499",
": c #B2A598",
"> c #B3A79B",
", c #B1A79D",
"< c #B3A89B",
"1 c #B3A99D",
"2 c #B4AA9E",
"3 c #B7AC9F",
"4 c #B4ABA0",
/* pixels */
"3333333333333333333333333333333333333333333333333333333333333333",
"3333333333333333333333333333333333333333333333333333333333333333",
"3333333334433333333333333333333333333333333333333333333333333333",
"3333332121143333333334234442233333333333333333333333333333333333",
"3334111111,14333334221121111121111142422333412313333333333333333",
"3332,111,<112333311;>1111;11<1>>1>,1,11111111,4,1333333333333333",
"33321111>>111333>111<1,<;,1><>>>>>>,>11<,<>1111<1233333333333333",
"333422111122233311111111,11,11>>>>>>><>>><111>;,1,33333333333333",
"33342242224443332311111111111,11,11>111111111111>,33333431333333",
"3321112444333341111>111;111;>;;;;1111212211111;>;;12111>1=>23333",
"311111133321>>>;;;;>;;>==;==#*;*;;;>1224221>>*.*;+;>;>>+>*=14333",
"31111112>1=*+*=**#@#+.+.OOO..O#+@;>*;>=>13;>>*@==+=**;;%**;>>233",
"32211>>>++OO.+*&=*&&.o..O X&++.O+++O++;;;1=>>;;;=*=*&@;++$@*1233",
"34441*;*.O++#*=*;=;;**&**&++&++O.O..O&&&*1;>1;>>>;>;>;**&*>>1433",
"341>1;;;+#.#*****;;;>;*;>;;****=*+..&O+*=;>;>211111111>>>>;>1433",
",1,>>>>;;*=*=;>>>;;;>;;;;;>,;;*;>;*X+;*;>>;>>3333334211111112333",
",11>;>>>>;;;;;11111>;;,;>>>11>11>;>=&;;>111113333333344422444333",
"22111;;>>>;>>>1111111,111111111>>;;>,111441112123333333333333333",
"1221211>>>;>>>111422211122421111>;>;>;13211,11112123333333333333",
"4442211111>>>>11244444443333334211>111431,1<<>;11113333333333333",
"33333442111121111433333333333333421124432111,>>>1113333333333333",
"333333441>444211213333333333333333333333221111>11112333333333333",
"333333<1111111,1112333441133333333333333424221111112333333333333",
"333333,,2>>>>1>>111133111<11123333333333344442212113322212333333",
"33333324,<1>11,,<11<3221<<111233333333333322212<11,11>11,1333333",
"333333121111111111213411>>>11233333333333211111;>1><<;>,;1333333",
"33333334422111122242342111111143333333333111111>,<><>>>>>,133333",
"3333333334442442444434422221223333333333321111,11,11>>;>>>133333",
"3333333333333333333333334444433333333333344211111212111111133333",
"3333333214113333333333333333333333333333334442444444242222433333",
"33334111111,133333333334224122>41>333333333333333333344444433333",
"33332,1111,1123333333211>;2;;>;;1>131341411242233333333333333333",
"333321111>>111333341>>&=;;;;;;>;;;;;;11;1>;;11;14214223333333333",
"33334221111112211;;+&*+&;*=;;=***;&**;;**;*;;>>;11>,1>2>13333333",
"33334121222221,>*&+O.&*#**#&#X&&#+++&+>#.*+.**>=>1>;;=>;;>333333",
"3333324<1412>;;;++&=&***;*&#&&&+o.XO#&&==&**#&+&&;;*&*@*;>133333",
"3333414,,2>1;%=*+&*>;>;;>1;=*#&##***;**##**+#$+&+#*+.+O.@+;<3333",
"3333121,1,1<*;>>&&+&;;>11;;;;***=;;>>;>=;**+##+&&*;;@;%%@>>13333",
"333321111;>>;;*>;=*;=;;;>;;>;>1;;>;;>;1;>;;;*=>*;>;>>>>>>1113333",
"33332212211>>>><1>;>*=;;;;;>,1211211211<<<>11>1>>>>;<11111223333",
"333334444222111121>>;>;<;1,1142113343411111121111111111222212333",
"333333333344444331>;>;;11112111112332111111121,2>11111111,111233",
"33333333333333333421111121111>11,>131,11><1,1<<1;>1><<>,11111243",
"33333344213333333344224111<,111111132111,<11>>,>;>>>>>>>1,,11123",
"333333212,13333333333331,1<>>11122232221111111,;>;;>>;1111111143",
"4113111111223333333333321111<11122434242121211111>>;1>>111222243",
"11<>111>,1,13333333333322211112233333444444444211>>>>11144443433",
"111>111111123333333333342422224333333333333333421111122233333333",
"111>111112443333333333334444443333333333333442211222222433333333",
"1111142243333333421>233121122333333333333341111,1244421133333333",
"4444433333333111>>>*>1>;11>;>1<3333333333311111<1241111143333333",
"3333333334411;;>;=;+*>.=;;>;=>>13333333333111,<<1121,21,>2333333",
"33333341>;1;;;*;=&**&*&&#&;#+**>>>1;;412334411111142211112333333",
"3333311>;*;;&=&&&&+&&**&&+&+o+&+*;>;=;>11,1112122241241424333333",
"33332>*>*&*;*****==*;;;***&&+X+&#;;;==&++.;>;1343433444224333333",
"3334>>;**&**&*&*&=;=;;;;;*=*++#&#**;;*+OOO#;;>333333441333333333",
"33312;;>==**&&#*&#**;;;;;;;&++&&**;;;=*#*.+*;;333441121133333333",
"3332;>;;=;;;*;;;;>==;;;;;;;=****=*;>;;;>;**;;;233121>11123333333",
"33312>1>>;;;>11>,;;;;>1;>,1>1;;;;>111>;;;>;;;;13221<111113333333",
"3333222421111111111,111122434111111221111>1>;1234111,>1113333333",
"3333333334421112222111114333333333333341211114332211112223333333",
"3333333333442234444433333333333333333334442223333442424443333333",
"3333333333333333333333333333333333333333333333333333333333333333",
"3333333333333333333333333333333333333333333333333333333333333333"
};
