/* XPM */
static const char *snow[] = {
/* columns rows colors chars-per-pixel */
"64 64 8 1 ",
"  c #E2E2E2",
". c #E7E7E7",
"X c gray92",
"o c #EFEFEF",
"O c gray94",
"+ c gray96",
"@ c gray98",
"# c gray99",
/* pixels */
"OOOO+O++XOOXXo.ooXoO+O++O@+++O+XOOXXXXXXoOoO@+++@@@+OOOOXoooOooO",
"ooOOO++OOOoXOX.XXO+@@++++@+OOooO.oXoOXoOOO++@+++@@@@+OOXXo.....O",
"ooXooOOoooOoOXoO++@@@@@@@+OoOoo..XOoOoOOO++++OXO+@@+@@OoXoX.XXoX",
"OXoOO+O++++X+o++@@+@@@@+O+OOOoOoXoO+OoooOOOO++oO++@##@++OooXX.O+",
"OoOOOoO++++++++@@@@@+++++OOOOooO.OO++OO+@++OoOO++O+@@@+OOoXO XOo",
"XOoo+O@@O+Oo+OO@+@@@++O+OOooooOOOOOOOO+++O+Oo++++@+@@@OO+OOOXOOo",
"o+OO@+#@OoOO+++@@@++@@+++OOOooOo+oOOOoOO+ooOO++OOO++++++OO+oOoOo",
"OO+@@#@@@+@++O+O@++@++@+++O+oO+OO+OOOOOO++OOoO+++++++@+o++OoOOoO",
"++@@@+oOO@O+++O++@@O@++++O+OOOoOoXXO+@O+++OOOOoOOO+O++O+OOOoOOo+",
"+O+@@@O++O@@+@++@@+@OO@++++oO++ooO+++OO++@+++O++OOOO++o@@O@++++@",
"@@#@@@@++@O+++++++++OOO++@++++XO@+O+@+@++++++++O++++O+OOOO@@+#@+",
"@@+@@@@@@+++++O+@++OO@++++++++O++O+@@@@@++@++++++@+@O@+o+OO@#@@+",
"@@+@@+@@++O@@+@++@+++++O++@@+OO++O+@+@@@@@+++@@+@@+++OOooO@@@+@@",
"++@@++@++++++@+@@@OO++@++++++O+O++@+@@@@@@++@@+@@@@+O+OoO@+@@@+@",
"@@@+@++@@+++OO++O+++@++O+@+O+++O++@@@@@@@@++O@@@@@++OOooOo++@O+@",
"+@@+@+@@OOOO+OOOO++@++@@@+OOO+O++@@+@@@@@@+OO+++++++OooO+O+oO+@@",
"@+@@@@@@+OooOOOoO++++@@@+++O+o+@@@@@@@+Oo+oOoOO+++@++OOO+oO+o@++",
"@++@@@+++Oo+Oooo+O+++@@@++oOXXOO+++++@++OOOooooOOO+O++OO++oO+@+@",
"O@+@+@++OoOOoOoo+O+++@@@+OOOXXXXoOoOXOO+OO+oXoOO+O+O+++++OOO+o++",
"@++OO+oOooOooooO+++@@@@++OooX.oooOoOOOO+OO+OOOO++OOO+O++OO+@++@+",
"@+oOOooOOoooooOOO++@+@+++OXoooooooOOO+o++@@@@@+OO+++++++++++O++O",
"+++O+O+OOOOO+ooooOo+O+O+OOOOOOOOO+OXoOOOO@+@++++oOO+O++@@++++++@",
"@@@++++++OOoOOooooooXoooXooOXOOooOoOOO+o+@+Oo++++++++++@+@@@@@@@",
"@@@@O+++OOoOOOoXOOO+OOOOoXoO+O+OooO+++++@+O++@@++++O@+++@@+@@@@#",
"@@+++OOOOOooooooOOOOOO++OooO+OO@++++@+@+@+OO++++@++O++O@@@@+@@+@",
"@++OO+OOoXOoooooOoooooo+OoOOo+@@@+@@@@@+@+Oo+OO++++O+OOO+O+@@@@@",
"@+++OOOOOOOoooOooXooooooOOOO+@@@@#@@@@@@++o++O++++++OOOOO++@@@@@",
"OOOOOOOOOOOooOOoooooOoo.oOO+O@@##@@@@@@+++O+++++++OOOXOo+O+O++++",
"OOOoOO++O+OOO+OoooOooOOOO++@+@@@#@@@@@@O++OooooOO+oooo+XOOOO+OOO",
"oOOOO+o+OO++O+OoO+OOoo+O++@++@++@@@+@@@+++oOO..oXOoooXXXoOOO+Ooo",
"o++++++++++@oO@+@@+OOO+OO++O++++++@@@@oO@OOO..X.o oXXoXoXO+O+OOX",
"O++oXO+oOO++++@+@#@+++OXo+oXXXoOOO+++@+++OOOoOO.XoXoOooooo+++++O",
"OOXXXXXXoOoO@+++@#@+OOOOXoooOooOOOOO+O++XOOXXo.ooXoO+O++O@+++O+X",
".oXoOXoOOO++@+++@@@@+OOXXo..XX.OooOOO++OOOoXOX.XXO+@@++++@+OOooO",
".XOoOoOOO++++OXO+@@+@@OoXoX.XXoXooXooOOoooOoOXoO++@@@@@@@+OoOoo.",
"XoO+OoooOOOO++oO++@#@@++OooXo.O+OXoOO+O++++X+o++@@+@@@@+O+OOOoOo",
".OO++OO+@++OoOO++O+++++OOoXO XOoOoOOOoO++++++++@@@@@+++++OOOOooO",
"OOOoOO+++O+Oo++++@+@@@OO+OOOXOOoXOoo+O@@O+Oo+OO@@@@@++++OOooooOO",
"+oOOOoOO+ooOO++OOO++++++oO+oOoOoo+OO@+#@OoOO+++@@@++@@+++OOOooOo",
"o+OOOOOO++OOoO+++++++@+o++OoOOoOOO+@@#@@@+@++O+O@++@++@+++O+oO+O",
"oXXO+@O+++OOOOoOOO+O++O+OOOoOOo+++@@@+oOO@O+++O++@@O@++++O+OOOoO",
"oO+++OO++@+++O++OOOO++o@@O@++++@+O+@@@O+++@@+@++@@+@OO@++++oO++o",
"@+O+@+@++++++++O++++O+OOOO@@+#@+@@#@@@@++@O+++++++++OOO++@++++XO",
"+O+@@@@@++@++++@+@+@+@+o+OO@@@@+@@+@@@@@@+++++O+@++OO+++++++++O+",
"+O+@+@@@@@+++@@+@@+++OOooO@@@+@@@@+@@+@@++O@@+@++@+++++OO+@@+OO+",
"++@+@@@@@@++@@+@@+@+O+OoO@+@@@+@++@@++@++++++@+@@@OO++@++++++O+O",
"++@@@@@@@@++O@@@@@++OOooOo++@O+@@@@+@++@@+++OO++O+++@++O+@+O+++O",
"+@@+@@@@@@+OO+++++++OooO+O+oO+@@+@@+@+@@OOOO+OOOO++@++@+@+OOO+O+",
"@@@@@@+Oo+oOoOO+++@++OOO+oO+o@++@+@@@@@@+OooOOOoO++++@@@+++O+o+@",
"+++++@++OOOooooOOO+O+@OO++oO+@+@@++@@@+++Oo+Oooo+O+++@@@++oOXXOO",
"oOoOXOO+OO+oXoOO+O+O+++++OOO+o++O@+@+@++OoOOoOoo+O+++@@@+OOOXXXX",
"oOoOOOO+OO+OOOO++OOO+O++OO+@++@+@++OO+oOooOoooOO+++@@@@++OooX.oo",
"ooOOO+o++@@@@@+OO+++++++++++O++O@+oOOooOOoooooOOO++@+@+++OXooooo",
"O+OXoOOOO@+@++++oOO+O++@@++++++@+++O+OOOOOOOOooooOo+O+O+OOOOOOOO",
"oOoOOO+o+@+Oo++++++++++@+@@@@@@@@@@++++++OOoOOooooooXoooXooOXOOo",
"ooO+++++@+O++@@++++O@+++@@+@@@@#@@@@O+++OOoOOOoXOOO+OOOOoXoO+O+O",
"++++@+@+@+OO++++@++O++O@@+@+@@+@@@+++OOOOOooooooOOOOOO++OooO+OO+",
"@+@@@@@+@+Oo+OO++++O+OOO+O+@@@@@@++OO+OOOoOoooooOoooooo+OoOOo+@@",
"@#@@@@@@++o++O++++++OOOOO++@@@@@@+++OOOOOOOoooOooXooooooOOOO+@@@",
"#@@@@@@+++O+++++++OOOXOo+O+O++++OOOOOOOOOOOooOOoooooOoo.oOO+O@@#",
"#@@@@@@O++OooooOO+oooo+XOOOO+OOOOOOooO++O+OOO+OoooOooOOOO++@+@@@",
"@@@+@@@+++oOO..oXOoooXXXoOOO+OOooOOOOOo+OO++O+OoO+OOoo+O++@++@++",
"++@@@@oO+OOO..X.o oXXoXoXO+O+OOoo++++++++++@oO@+@@+OOO+O++@O++++",
"OO+++@+++OOOoOO.XoXoOooooo++++++O@+oXOOoOO++++@+@#@+++OXo+oXXXoO"
};
