/* XPM */
static const char *stone_tile[] = {
/* columns rows colors chars-per-pixel */
"64 64 109 2 ",
"   c #0A0807",
".  c #0E0C0A",
"X  c #110E0C",
"o  c #16120F",
"O  c #171310",
"+  c #1A1511",
"@  c #1E1914",
"#  c #1D1B1A",
"$  c #211B16",
"%  c #251E19",
"&  c #26201B",
"*  c #2B231D",
"=  c #242221",
"-  c #2F2620",
";  c #292827",
":  c #2E2B2A",
">  c #312720",
",  c #342A23",
"<  c #392E26",
"1  c #312F2D",
"2  c #392F28",
"3  c #37312D",
"4  c #3C3129",
"5  c #353332",
"6  c #3B3734",
"7  c #3E3833",
"8  c #3C3A39",
"9  c #41352C",
"0  c #46392F",
"q  c #473A30",
"w  c #4B3D32",
"e  c #403C3A",
"r  c #4F4034",
"t  c #46413D",
"y  c #514236",
"u  c #564639",
"i  c #55493F",
"p  c #5B493D",
"a  c #454442",
"s  c #4A4541",
"d  c #4B4946",
"f  c #4C4B4A",
"g  c #514740",
"h  c #534A43",
"j  c #5E4D41",
"k  c #544F4B",
"l  c #594F49",
"z  c #5F5045",
"x  c #55514E",
"c  c #5D524A",
"v  c #545352",
"b  c #5A5652",
"n  c #5C5856",
"m  c #5D5B59",
"M  c #624F41",
"N  c #645244",
"B  c #695546",
"V  c #64564B",
"C  c #6E594A",
"Z  c #725C4C",
"A  c #655B54",
"S  c #695F57",
"D  c #635F5C",
"F  c #76604F",
"G  c #6D6157",
"H  c #64615E",
"J  c #6B625B",
"K  c #746253",
"L  c #7B6452",
"P  c #646262",
"I  c #6A6765",
"U  c #6A6967",
"Y  c #6B6A69",
"T  c #6C6B6B",
"R  c #6F6C6A",
"E  c #6F6E6D",
"W  c #716C60",
"Q  c #716D69",
"!  c #746D68",
"~  c #746E6A",
"^  c #706F6F",
"/  c #73706F",
"(  c #75716D",
")  c #79716A",
"_  c #7B736D",
"`  c gray45",
"'  c #767371",
"]  c #757372",
"[  c #7B7570",
"{  c #787777",
"}  c #797877",
"|  c #7D7875",
" . c #7C7B7A",
".. c #7D7C7C",
"X. c #816956",
"o. c #866D5A",
"O. c #876D5A",
"+. c #886E5B",
"@. c #8A705D",
"#. c #8C725E",
"$. c #827164",
"%. c #8F7460",
"&. c #83786F",
"*. c #927661",
"=. c #967A65",
"-. c #817C7A",
";. c #83817F",
":. c #84807D",
">. c #828181",
/* pixels */
"W W W W W W W W W W W W W W W W W W W W W W W W W W W W W W W W W W W W W W W W W W W W W W W W W W W W W W W W W W W W W W W W ",
"W W W W W W W W W W W W W W W W W W W W W W W W W W W W W W W W W W W W W W W W W W W W W W W W W W W W W W W W W W W W W W W W ",
"W W u u u u w 0 u u u u u u u u u u u u u u u u u u u u u u W W W W u u u u u u u u w > y w y u u u u u u u u u u j c u u u W W ",
"W W u u u w % + 0 u u u u u u u u u u u u u u u u u u u u u W W W W u u u u u u u u * 4 < - 9 y u u u u u u p c V ^ b x V u W W ",
"W W u u w * + > y u u u u u u u u u u u u u u u u u u u u u W W W W u u u u u u u $ w 9 , 0 w y u u u u u u m / U R ) ;.S u W W ",
"W W u y 4 + % < y u u u u y w w 9 < u u u u u u u u r 4 y u W W W W y y u u u u u w y , 0 r r u u u u u u k D A S K U >.n u W W ",
"W W u u y 4 $ < y u u q > 0 % * $ & r u u u u u u u , @ 0 u W W W W r w u u u u u u u y u r y u u u u u u C C N L h ' E N u W W ",
"W W u u u 4 o 9 u u u > & , < % $ , w u u u u u u 0 $ % , u W W W W y r u u u u u u u u u u u u u u u u u u u M M $.D x p u W W ",
"W W u u w > & w u u , 4 , , 4 % 9 9 y u u u u u u * > > * u W W W W y y u u u u u u u u u u u u u u u u u u u u u M k B u u W W ",
"W W u r > q r u u u , y q y 4 4 w 0 u u u u u u p h b 4 < u W W W W y y u u u u u u u u u u q > r 4 0 u u u u u u u u p u u W W ",
"W W u r > r u u u u u y w u u u r y u u h i A | P  .Q r u u W W W W u u u u y 9 < 9 % 4 % > > @   * 4 y u u u u u u u u u u W W ",
"W W u u r u u u u u u u u u u u u u i n ' Y E Y ` E C M u u W W W W u u 0 + $ * % % , * > + + + * , w y u u u u u u u u u u W W ",
"W W u u u u u u u u u u u u u u h x P T Y ..Y ` ^ n M p u u W W W W u u < @ @ * + * + + > X . + & w r u u u u r 4 0 u u u u W W ",
"W W u u u u u u u u u u u u u u h m } ....U E ` E n c u u y W W W W u > . > * > > , * , O > - - , q y u u u u 9 * 4 y u u u W W ",
"W W u u u u u u u u u u u u u u n P P E Y E m ` ~ v i u u u W W W W u , * , > 9 4 & r & 9 > - y y u u u u u 0 < 0 w y u u u W W ",
"W W u u u u u u u q > r 4 0 q > k 8 R = 8 m Y P x l u u y u W W W W u w y r w u r r r 0 y 0 w w w u u u u u 0 0 r r u u u u W W ",
"W W u u u u u w * $ % % % $ @ = @ . : - d a T P T x b u w u W W W W u y 9 y u u u u u u u u u u u u u u u u u u r y u u u u W W ",
"W W u u u u u 9 $ > +   @ X o . X # O s a f v T E P [ r 0 u W W W W u u u u u u u u u u u u u u u u u u u u u u u u u u u u W W ",
"W W u u u u < , > > o @ X o O . & : 5 6 8 k P Y >.E n r w u W W W W u u u u u u p N u u u u u u u u u u u u u u u u u u u u W W ",
"W W u u u u y M B 4 @., @ X # @ + @ & a h P >.` { P b p u y W W W W u u u u u u F #.M C N u u u u p N u u u u u y q 9 u u u W W ",
"W W u u u u p L Z L u 4 > % @ + % - t t f Y  .P P U A p u u W W W W u N u u u M X.+.L L C p u u u Z #.p u u u r * X X y u u W W ",
"W W u u u p Z B O.N p q * $ @ < $ r s h _ b v v E ~ N u u u W W W W u N p u u O.Z F F N j p u u N X.F N u u u 4 + o > 4 u u W W ",
"W W u u u p C p M p B 9 4 9 p M M Z 0 u h h m P A M j u u u W W W W u p p u u L N F B j p u u u O.L L p u u 0 @ X 9 9 y u u W W ",
"W W u u u u u p j w , , y C O.L %.X.N L #.u u S j M p u u u W W W W u p u u u y r p w 9 p u u Z *.L K p u u 0 9 0 , , u u u W W ",
"W W u u u u u u u , * 9 u L X.O.L X.%.#.L N u u u M p u u u W W W W u p u u u 0 % > * > w w p O.O.X.Z p u u u u r r y u u u W W ",
"W W u u u u u u < 4 w , & u p N N #.=.L N j u u u u u u u u W W W W u u u u r , , > * o % % +.X.X.C N p u u u u u u u u u u W W ",
"W W u u u u u u < w < > 9 + * 0 N y L B Z u u u w > , 0 0 u W W W W u 0 w u > + o + @ + O u N B L M p u u u u u u u u u u u W W ",
"W W u u u u u u u r + + + & 9 0 < < N p p u u u 4 * % * , u W W W W u 9 * < + + @ . $ + 0 w q w j p p u u u u u u u u u u u W W ",
"W W u u u u u u u 0 9 % % 4 0 < 0 y u u u u u y y w 9 > w u W W W W u y y w , > * * * 9 9 , w r y u u u u u u u u u u u u u W W ",
"W W u u u u u u u y u y u y y y u y u u u u u u u u u u u u W W W W u u u u u u u u u u y y y y u u u u u u u u u u u u u u W W ",
"W W W W W W W W W W W W W W W W W W W W W W W W W W W W W W W W W W W W W W W W W W W W W W W W W W W W W W W W W W W W W W W W ",
"W W W W W W W W W W W W W W W W W W W W W W W W W W W W W W W W W W W W W W W W W W W W W W W W W W W W W W W W W W W W W W W W ",
"W W W W W W W W W W W W W W W W W W W W W W W W W W W W W W W W W W W W W W W W W W W W W W W W W W W W W W W W W W W W W W W W ",
"W W W W W W W W W W W W W W W W W W W W W W W W W W W W W W W W W W W W W W W W W W W W W W W W W W W W W W W W W W W W W W W W ",
"W W W W W W W W W W W W W W W W W W W W W W W W W W W W W W W W W W W W W W W W W W W W W W W W W W W W W W W W W W W W W W W W ",
"W W u u u u u p u u u u u u u u u u u u u u u u u u u u u M W W W W u u u y u u u u u u u u u u u u u u u u y u u u u u u u W W ",
"W W u M Z C X.L Z u u u u u w < 0 4 < 0 < 9 < 9 u u u u u u W W W W u 0 , 0 , r u u u u u u u u u u u u u , q 0 , w y u u u W W ",
"W W p C p X.L X.X.j u u u u 7 1 ; 5 6 1 7 > % 4 , 4 9 < u u W W W W u > q > * 0 u u u u u u u u u u u u u , y w y 0 9 u u u W W ",
"W W u p X.X.@.X.M j u u u < - # # d 5 8 1 % % $ % @ @ > u u W W W W u y , * w w u u u u u u u y q r 4 9 > + y w u u u u u u W W ",
"W W u u M C +.Z B u u u u y < > < * o > @ + O   % % > w y u W W W W y 0 < r w y u u u u u u u , + 9 * % O q w u u u u u u u W W ",
"W W u u C Z M j N u u u u , , ,   % & % X @ o + X * r 0 u u W W W W u u u y w 0 * % > 4 + u w > 4 > , o < q u u u u u u u u W W ",
"W W u u p j M M u u u u u u y @ + & , + 2 . 3 % 9 < w w u u W W W W u u M G l > $ * @ o % % @ , < < & 0 0 9 u u u u u u u u W W ",
"W W u u u u p p u u u u u u o u 6 8 # 5 a d % , w u u u u u W W W W u u P ~ l h : , o + + * & * , y 9 w 0 u u 4 o q u u u u W W ",
"W W u u u u u u u u u u u u u s a J b T T _ m s 9 u u u u u W W W W u H P n P U : + o . $ @ * 0 w u u y w w 9 o < 0 y u u u W W ",
"W W u u u u u u u u u u u u l H R E Y W ( m k h u u u u u u W W W W u H n T D v 7 % X X % % 0 0 y u u y * % o > 9 y u u u u W W ",
"W W u u u u u u u u u u u h m T f v d % m : 2 u u u u u u u W W W W u i j I v w , + + % > q w w y u u 9 , % < w 4 y u u u u W W ",
"W W u u u u u u u u u u u n G v 1 d 3 s @ * r r u u u u u u W W W W u u p M p p 4 1 b 4 w r y u u u w * y 0 y 0 y u u u u u W W ",
"W W w w w r u u u u u u u m n x f & w % * q w u u u u u u u W W W W u M O.O.j u e m ~ K g u u u u u u u r 0 u y b J u u u u W W ",
"W W % * % - 9 % < % w u u v c d K N $ + y w w u u u u u u u W W W W p O.*.O.L h S H { :.c u u u u u u u u u n ' ` ( j u u u W W ",
"W W < > $ $ * * % * $ 9 M O.u L Z 0 q w 9 w u u u u u u u u W W W W M L p j N x P Q ' D B u u u u u u u u h U ' ' -.z u u u W W ",
"W W , * - + @ X o $ + , y C *.+.N w u w u u u u u u u u u u W W W W p y % w u h k &.n V p u u u u u u u u Q U ..` G B u u u W W ",
"W W , O @ . + + @ @ < p X.L L F M N y w u u y , & u u u u u W W W W u > % , y 4 0 h l C u u u u u u u u i v U -.J O.Z u u u W W ",
"W W 9 * + + O 9 % 4 9 Z #.C p p M j u u u u r > < 9 u u u u W W W W u , % * 4 * 4 y u u u u u u u u u u i Q V n C O.=.p u u W W ",
"W W , + , 0 0 9 9 y Z N p j B p u u u u u > . * > o , & u u W W W W y < > < , 0 w y u u u u u u y 9 , q u M p X.*.X.N N u u W W ",
"W W r w q 9 w u u Z =.p C M u u u u u > . + % * $ , % < w u W W W W u q 0 4 9 r r u u u u u u q $ @ $ o , r p O.=.B N u u u W W ",
"W W u y y u u u u O.#.Z X.Z u u u u u @ X $ 0 @ * X $ > y u W W W W u u y w u r y u u u u u u < % - & * % 0 +.L Z M B u u u W W ",
"W W u u u u u u *.L Z F B M p u u u o < 0 9 , 4 * % > < r u W W W W u u u u u u 9 % w u u u , > < @ > , w p F N Z p u u u u W W ",
"W W u u u u u u O.M L Z p p u u u u w r , w y $ < , r w u u W W W W u u u u u u , 0 y u N Z u y 0 0 > 4 w M N j M u u u u u W W ",
"W W u u u u u u M p B p M j u u u u u u y u u u y 9 w w u u W W W W u u u u u * r Z X.L L F p u u u u y w y u p p u u u u u W W ",
"W W u u u u u u u u p u u u u u u u u u u u u u u u u u u u W W W W u u u u u u B p Z L C j p u u u u u u u u u u u u u u u W W ",
"W W u u u u u u u u u u u u u u u u u u u u u u u u u u u u W W W W u u u u u N L Z N Z p M u u u u u u u u u u u u u u u u W W ",
"W W u u u u u u u u u u u u u u u u u u u u u u u u u u u u W W W W u u u u u u u j V M p j u u u u u u u u u u u u u u u u W W ",
"W W W W W W W W W W W W W W W W W W W W W W W W W W W W W W W W W W W W W W W W W W W W W W W W W W W W W W W W W W W W W W W W ",
"W W W W W W W W W W W W W W W W W W W W W W W W W W W W W W W W W W W W W W W W W W W W W W W W W W W W W W W W W W W W W W W W "
};
