/* XPM */
static const char *swamp_grass_nov[] = {
/* columns rows colors chars-per-pixel */
"64 64 152 2 ",
"   c #6D6837",
".  c #6F6938",
"X  c #746D3B",
"o  c #796E3E",
"O  c #77703D",
"+  c #7A713E",
"@  c #7C6F42",
"#  c #7E6D4E",
"$  c #7D7342",
"%  c #7F7846",
"&  c #81743F",
"*  c #837543",
"=  c #887644",
"-  c #847944",
";  c #8B7C46",
":  c #85744B",
">  c #8A764C",
",  c #857A4B",
"<  c #8C7B4B",
"1  c #927C46",
"2  c #937C4C",
"3  c #997F4E",
"4  c #856D53",
"5  c #857452",
"6  c #8C7551",
"7  c #857B51",
"8  c #8C7C53",
"9  c #8E745A",
"0  c #8C7C5A",
"q  c #917753",
"w  c #937B53",
"e  c #9B7D54",
"r  c #95765C",
"t  c #957C5B",
"y  c #9B7B5B",
"u  c #A07F54",
"i  c #A37E5D",
"p  c #A87F5E",
"a  c #9A7660",
"s  c #947F62",
"d  c #9C7C61",
"f  c #A27B61",
"g  c #8D814C",
"h  c #968147",
"j  c #94824C",
"k  c #9B844E",
"l  c #9D894E",
"z  c #858052",
"x  c #8C8252",
"c  c #8F805A",
"v  c #948353",
"b  c #9C8454",
"n  c #968A54",
"m  c #9C8A54",
"M  c #94845B",
"N  c #9C845B",
"B  c #948A5C",
"V  c #9C8B5A",
"C  c #9E9155",
"Z  c #9D925B",
"A  c #A2864E",
"S  c #A38A4D",
"D  c #AC8E4F",
"F  c #A38554",
"G  c #A98556",
"H  c #A48B54",
"J  c #AB8B55",
"K  c #A3835B",
"L  c #AB855C",
"P  c #A48B5B",
"I  c #AB8B5B",
"U  c #B38D56",
"Y  c #B88E56",
"T  c #B1865D",
"R  c #B38B5C",
"E  c #B88D5D",
"W  c #B98E5C",
"Q  c #A59255",
"!  c #AD9255",
"~  c #AE9056",
"^  c #A1915F",
"/  c #A2935F",
"(  c #A5935C",
")  c #AA905A",
"_  c #AC935B",
"`  c #AD955D",
"'  c #A4995C",
"]  c #AC995C",
"[  c #B29355",
"{  c #B39457",
"}  c #B29A56",
"|  c #B3945B",
" . c #B79559",
".. c #B1905D",
"X. c #B4905C",
"o. c #B6965E",
"O. c #B8915B",
"+. c #BB915B",
"@. c #BB935B",
"#. c #B8925E",
"$. c #BD905E",
"%. c #B49A5C",
"&. c #BA995C",
"*. c #B9A15F",
"=. c #958563",
"-. c #9D8263",
";. c #9B8562",
":. c #978860",
">. c #968A61",
",. c #938E63",
"<. c #978C61",
"1. c #9C8B63",
"2. c #9D8F61",
"3. c #959060",
"4. c #979067",
"5. c #9D9463",
"6. c #9C9065",
"7. c #999667",
"8. c #9B9667",
"9. c #9C9666",
"0. c #9C906B",
"q. c #9E966B",
"w. c #A38161",
"e. c #A58160",
"r. c #A28462",
"t. c #A58762",
"y. c #A68762",
"u. c #A98260",
"i. c #AA8560",
"p. c #A38A60",
"a. c #A48D62",
"s. c #A38F64",
"d. c #AA8D61",
"f. c #AE8E61",
"g. c #A88F64",
"h. c #B08960",
"j. c #B08C61",
"k. c #A59060",
"l. c #A49362",
"z. c #A69363",
"x. c #A39561",
"c. c #A39564",
"v. c #AB9061",
"b. c #AC9461",
"n. c #A59961",
"m. c #AC9B61",
"M. c #B19460",
"N. c #B19462",
"B. c #B59B60",
"V. c #ADA162",
"C. c #C1955D",
"Z. c #C1985C",
/* pixels */
"v.R K G R R h.L E R R U G E $.R f p R J k G U R K K K N q 6 6 9 * J a.q.8.8.,.7 8 e y f i e.p L H >.^ I I F G k 6 p p y k 2 I s.",
"f.E R K L T T L U R G A G R +.R u.L L I J R R R R L e 2 6 y K y : v B 3.9.8.4.>.N N 6 w K T L L J V x.P I H S k L T L K G y X.M.",
"y.L 3 e L R U G R R U  .{ I I I I P L R T R R J 2 > > 2 v b b w 5 M x x B 2.V N F J F y F e F L N H ^ k.! H v b L T p i f K +.o.",
"-.e = F J G J L L R U | k.M K k | ..R I I L G 3 : > b N P b j w > v x 8 N N v b H J L L R I K y w P 6.^ H H b I L L f f L L j.v.",
"d q > P J J I w.L U U X.a.P p.H m +.U H J I G F w b K P F F b > : v n v b b v b H | I R +.X.P N N ` c.H S S k +.L L i f w.y.g.0.",
"i.r y J D [ I y.L U U d.v...( | v H J k 2 J J b < v N K P H b ; ; j v v b b N b P  .| .. .| ( B ^ ` ] Q S - ; +.R K L R p.` %.m.",
"y.i p L U U I r.L b H d.b.%.%.l $ ; k k F [ I P N M b K L F k k b b P N N t M N I ! | %._ %.] 5.5.5.x.m l l X G E R i.+.%.Z %.k.",
"K L T p Y E I N K ; h [ ! Q } ; + + 2 ; I I I 1.M M w K K b F k 2 b F N N v v b I I _ H ) ] Q x.( ( Q C ( Q - k R R L o.B.] m.;.",
"e L L L E L K b H > ; | | Q %.] m + * 2 ..P N b 8 v q w b H F 2 = v ! F j k b j v N b J b m ] ] } } ! ' n k X - I L L b.%.B.m.P ",
"e > L I G K e N N v ) ( ] Q m.] Q - $ I F m v x x > : q P I K e 2 > h l H J H b 2 ; > b b P _ { { | ] ' %.Q + * %.I L v.&.&.%.J ",
"i e e y q e G J ! P ! m ] ] ] m ; - ; P I P V 8 , : w b I I r.K P P l j k F P H b j 2 e 2 v H ! ! [  .{ Q l - l | _ _ %.%.%.] v ",
"f i y y e 3 k S | P ! ! %.%.] k - ; ( H P ) n < v P P I ..! I ! ] n.Q j j < 8 G P b b b k F H ! D J J ! ; $ $ h h ( ` %.! { ^ w ",
"f L f y w G K b b N P _ %.%.] ! * + j N m m v v ( ` X.I ` B.%.] ] ] ( v P K 6 w 8 M P K F P I I ! [ [ | ^ $ X k v k.m.%. .) m N ",
"L R i e K G H H P N P ( %.] ( H h ; < N j M ( P V b I ) V k l V.} } ` P P K t t 0 t P I K L I K I | X...P = X ; v %._ %.o._ I R ",
"L L e G R G k S ) ) | ` n.x < + & ; b b v b v m 2.N 2 m ( * n C ] %.b.P ;.d d ;.M b P I G P y.K N J [ I P e X + v &.!  .%.) | [ ",
"y F K T E J J ! ( I ) Q ( P k o + k g v K P m V B ( ; - + X , g j n.k.N s d ;.=.V P J U G P N K y J S H F 2 * 2 v ! H Q m P b H ",
"2 2 q w t K J _ P J H m H P b 2 H A < > P I P P m m + - + m Z Z n n m r.w.L <.k.k.P R J K v w w w J R R G o X + + P P H m V x.! ",
"w K K y t N k b I J H H Q H j h H b > > L I _ ] V * V ; + X $ $ $ n ) I L -.1.( k.a.I L b v N N b b K L I k . * H H I J m Z c.V ",
"-.G G i w.L K y t K J H b j S D A 3 > > y I ) _ m - O $ , ( v , ; , v ;.i.r.=.B P I b F I P N P I I L G U 2 > e L G J [ ] Z v F ",
"T U G L K L p i y b H k j H %. .J 2 : q y p.V | ] n.n X X - ; Q ( Z M 0 8 N 1.;.P b F | %.p.r.r.d.d.L R b $ X * q b h ! ( Q k k ",
"w b K y r y i G b H J h l ! ] %.I 2 < K K K b H ] ' % X O * h %.m.q.1.;.=.N b t N I R X.o._ I P P y.R R G 3 X = 2 2 F H B V V b ",
"y G w y y y P J j k k F H _ ] %.) v b I L I I ! ] g % - * l H Q ` M.y.L K V N 6 r i L I ....X.R P I L K L G X > q K H P B M 1.w.",
"q K e K I b j k j h 2 j H _ _ ( H m ! +.R b v v B n g g k k j F I E i.R G H L y p i R H b F H A b J u.i > ; * : * w j v V v ;.d ",
"4 d K K V H j h ; j v v b ` B j v v m J H b P 2.V B n v 2 3 G U U T R U I J | E R R X.I G b 3 b G G K e F X : $ : v m ] ( N K y ",
"# N I N B m m j h v N N B n x < H j j 2 2 2 b b v h j v 2 2 U U G p T R I !  .- J k J v F I F G R G G b F b > @ F H k b b e y r ",
"9 K d.V B V ( V v j M N v x v P | ! k F 2 k 2 2 < ; h 2 > 2 A 2 6 L T X.P ( { - ) * H % b > : G G G I I ! k > K L G H H v > q r ",
"t 1.1.2.V B x.g m N N v < v b !  .[ k w 2 h 2 > 8 < j P F 2 ; = 5 w i G v H ! + g X n $ w $ > L K L K y.! k X : 6 L G P N 8 8 w ",
"0 ;.N M : M x - H H H F b g h j J S k 2 2 1 F : 5 N ;.p.b.! F M 5 6 K U J [  .! Q B n P N b P I L T L L P k X : r.K I P M > 8 8 ",
"0 M 8 8 X V g - k H 2 G J J b > 2 h j k J J L 5 # y N ;.| { ^ x M X 2 j ; J %.&.b.P v H P P +.L R R L L K I V 7 v N P a.t > 0 8 ",
"=.M x , X 7 O g { * 2 L K b w 5 > v b 2 G R L r 4 r i L | I V + v X P X j | %.Z.%.H J H k R $.E R E L R K I P M c V V N 0 8 c M ",
"5.v n 7 7 % % B 2 o L L ;.N y r M m P q e R L p r a p K F _ ( X ; , $ $ w %.b.Z.Z.U F F 2 +.+.C.E U I +.R J k n <.>.;.M s ;.;.<.",
"Z m V >.x z 7 8 @ * * y d -.d K V <.V N L R F 2 6 K 6 q H ! _ 5.P N w e I #.#.$.$.U G G 2 E E E L L U [ J h S K ;.=.M ;.K r.;.;.",
"s.J 2.q.8.8.,.7 8 @ : f i e.p L H <.^ I L F G k > p K y k w ) s.v.R i G R R h.L E R R U G E $.R f p R J k G U R K L K K q 6 6 9 ",
": v B 3.9.8.4.>.N N 6 w K T L L J V x.P I H A k L T L K G y X.M.f.E R K L T T L U R G A G R +.R u.L L I J R R R R L e 2 6 y K y ",
"5 M x x B 2.V N F J F y F e u G N H ^ x.! H v b L R p i f K +.o.y.L 3 e L R U G R R U  .{ I I I I P G R T R R G 2 > > 2 v b b w ",
"> v x 8 N N v b H J L L R L K y w ( 6.Z Q H v I L L f f L L j.v.-.e = F J J J L L R U | k.M K k | ..R I I L G 3 : > b N P b j w ",
": v n v b b w b H | I R +.X.P N N ` c.Q S S k +.L L i f f y.g.0.d q > P J J I w.L U U X.a.P p.H m +.U H I I G F w b P P F F b > ",
"; j v v b b N b P  .| .. .| ( B ^ ` ' Q l - * +.R K p R p.` %.m.i.r y J D [ I y.L U U d.v...( | v H J k 2 J J b < v N K P H b ; ",
"b b V N N t M K I ! | %._ %.] 5.5.Z x.m l ; X J E R u.$.%.Z %.k.y.i p L U U I r.L b H d.M.%.%.%.m g k k F [ I P N M b K I F k k ",
"2 b F N N v v b I I _ H ) ] Q x.( ( Q g - h - k o R L o.%.] m.;.K L T p Y E I N K ; h [ ! Q Q ; j j | I I I I 1.M M w K K b F k ",
"= v J F j k b j v N b J b m ] ] ! ! ! ' v h + X 2 L L b.%.B.m.P e L L L E L K b H > ; | | Q ] + $ - X.....P V b 8 v q w b H F 2 ",
"2 > h l H J H b 2 ; > b b P _ { { | ) ] %.;   ; ..L L v.&.&.%.J e > L I G F e N N v ) ( ] Q m.] $ - _ I F m n x 8 > : q P I K e ",
"P P l j k H P H b j 2 e 2 v H ! ! [  .! l * X l | _ _ %.%.%.] v i e e y q e G I ! P ! m ] ] B.%.m n - j I P V x , : w b I I N K ",
"] x.Q j j < 8 G P b b b k F H ! D J J l $ % $ + $ ( %.%.! { ^ w f i y y e 3 k S | P ! ! %.%.] h * O * H P ) n < v P P I ! ) I ! ",
"] ] ( v P K 6 w 8 M P K F H J I ! [ [ | x , $ ; v k.m.%. .) m N f L f y w G K b b N P _ %.%.] * X ; ! N m m v v ( ` X.I ` B.%.] ",
"} } ` ^ P K t t 0 t P I K K I K I +.+...P $ . H v %._ %.o._ I R L R i e K G H H P N P ( %.] ( O h H P N j M ( P V N I ) V %.*.V.",
"] %.b.P ;.d d ;.M b P I G P y.K N J U I P > X o ; &.!  .%.) | [ L L e G R G k S ) ) | ` n.x.< * h S b b v b v m 2.N 2 m ( ! Q C ",
"j n.x.N s d ;.=.V P J U G P N K y J S H F k X * j ! H Q m P b H y F K T E J J ! ( I ) Q ( ( 2 & k ; , v K P m V B ( F v k ; , g ",
"n n m r.w.L 1.k.k.P R J K v w q w J R 3 * ; X k b P P H m V x.! 2 2 q w t K J _ P J H m H P b 2 H ; o > P I P P m m m v H m Z Z ",
"Z m.) I L -.1.( k.a.I L b v N N b b K F $ X ; k H J I J m V c.V q K K r t N k b I J H H Q H j h H b > > L I _ ] V m V g n m n n ",
"j x v ;.i.r.=.m P I b F P P N P I I L G U = X > F G J [ ] Z v F w.G G i w.L K y t K J H b j S D A 3 > > y I ) _ m ] ' , g ( V , ",
"' Z M 0 8 N 1.;.P b F | %.a.r.r.d.d.L F 2 2 X * e b h ! ( Q k k T U G L K L p i y b H k j H %. .J 2 : q y p.V | ] m.' x g Q ! Q ",
"m.q.1.;.=.N b t N I R X.o._ I P P y.R G 3 3 ; F b 2 F H n V V b w b K y r y p G b H J h l ! ] %.I 2 < K K K b H ] n.n.Z g S } %.",
"` M.y.L K V N 6 y i L I ....X.R L I w 2 o ; @ : > K H ( B M 1.w.y G w y y y P J j k k F H | ] %.) v b I L I I ! m.m.m.] j l H Q ",
"I E i.I G H L y p i R H b G H A b J K : @ $ o o q N j v V x ;.d q K e K I b j k j h 2 j H _ _ ( H m ! +.R b v v B n ( Q k k j F ",
"U T R U I J | I L R +.I G b 3 b G J K w o $ e e w v m ` ( N K y 4 d K K V H j g ; j v v b ` B j v v m J H b P 2.V B n v 2 3 G U ",
"G p T R I !  .; ; | J a.I 2 L G R G G b 2 + > e F H k b b y y a # N I N B m m j h v N N B n x < H j j 2 2 2 b b v h j w 2 2 U U ",
"6 L T X.P ( { h j &.; P , $ K G G G I I ! k > K L G H H v > q r 9 K d.V B V ( V v j M N v x v P | ! k F 2 k 2 2 < ; h 2 > 2 A 2 ",
"5 w i G v H ! k v v X B $ > N L K L K y.! k < t w.L G P N 8 6 q t 1.1.a.V B x.] H N N v < v b !  .[ k w 2 h 2 > 8 < j P F 2 ; = ",
"5 6 K U J !  .! Q B n P $ v P I L T L L P k , < r.K I P M > 8 8 0 ;.N M M M ^ ] ( H H F b ; h j J S k 2 2 1 F : 5 N ;.p.b.! F M ",
"M > b J H J %.&.b.P v H P P +.L R R L L K I V 7 v N P a.t > 0 8 0 M 8 8 0 V ^ ] _ J H G J J b > 2 h j k J J L 5 # y N ;.| { ^ x.",
"( V P b v | %.&.%.H J H k R $.E R E L R K I P M M V V N 0 8 c M =.M x , , x Z ( { ! I I K b w 5 > v b 2 G R L y 4 r i L | I V ] ",
"; , 8 > w %.b.Z.Z.U G F 2 +.+.C.E U I +.R J k n <.>.=.M s ;.;.<.5.v n 7 7 , x B J I L L ;.N y r M m P q e R L p r a p K F _ ( m ",
"P N w e I #.#.$.$.U G G 2 E E E L L U [ J h S K ;.=.M ;.K r.;.;.Z m V >.x z 7 8 b L L f -.-.d K V <.V N L R F 2 6 K 6 q H ! _ 5."
};
