/* XPM */
static const char *swamp_grass_sep[] = {
/* columns rows colors chars-per-pixel */
"64 64 190 2 ",
"   c #4F7026",
".  c #537327",
"X  c #597527",
"o  c #557529",
"O  c #5A7629",
"+  c #57792B",
"@  c #5C7A2C",
"#  c #5D7E31",
"$  c #62772D",
"%  c #637B2C",
"&  c #6B7D2E",
"*  c #737F2F",
"=  c #6F7335",
"-  c #617C31",
";  c #6C7D32",
":  c #6D7E3A",
">  c #737C33",
",  c #7C7C35",
"<  c #7A7338",
"1  c #757C3A",
"2  c #7D7D39",
"3  c #827F37",
"4  c #84773B",
"5  c #837E3A",
"6  c #8D7D3D",
"7  c #927F3E",
"8  c #837C41",
"9  c #8C7940",
"0  c #937C40",
"q  c #9A7E40",
"w  c #65812E",
"e  c #6A832E",
"r  c #74852E",
"t  c #76882F",
"y  c #7B892F",
"u  c #648233",
"i  c #6C8433",
"p  c #6D8934",
"a  c #668039",
"s  c #6D843B",
"d  c #678839",
"f  c #6D8B3B",
"g  c #748433",
"h  c #7B8433",
"j  c #748B34",
"k  c #7C8B34",
"l  c #72843A",
"z  c #7B843C",
"x  c #748B3B",
"c  c #7C8C3C",
"v  c #6F903E",
"b  c #769037",
"n  c #7C9236",
"m  c #76913D",
"M  c #7C923C",
"N  c #7C983D",
"B  c #6A8B43",
"V  c #728442",
"C  c #7C8542",
"Z  c #758D42",
"A  c #7C8D43",
"S  c #7D8E4B",
"D  c #749443",
"F  c #7C9443",
"G  c #7D9B44",
"H  c #74974A",
"J  c #7C934B",
"K  c #7C9B4A",
"L  c #779652",
"P  c #7C9C53",
"I  c #7C9F59",
"U  c #7EA34C",
"Y  c #7FA153",
"T  c #838335",
"R  c #8A8636",
"E  c #838C34",
"W  c #8C8B36",
"Q  c #84843A",
"!  c #8B833B",
"~  c #848C3B",
"^  c #8B8C3B",
"/  c #938C36",
"(  c #988F37",
")  c #93843C",
"_  c #9A853D",
"`  c #938B3B",
"'  c #9C8C3C",
"]  c #849234",
"[  c #8B9335",
"{  c #839836",
"}  c #8E9A35",
"|  c #84933C",
" . c #8C933C",
".. c #859A3C",
"X. c #8C9A3D",
"o. c #949336",
"O. c #9A9436",
"+. c #939B36",
"@. c #9B9A36",
"#. c #93933C",
"$. c #9B933B",
"%. c #939B3C",
"&. c #9B9B3C",
"*. c #A18E3C",
"=. c #A29737",
"-. c #A09836",
";. c #A2933B",
":. c #A39B3B",
">. c #8DA23E",
",. c #93A137",
"<. c #93A23D",
"1. c #9BA23E",
"2. c #A6A33C",
"3. c #838643",
"4. c #8A8442",
"5. c #838C42",
"6. c #8B8C43",
"7. c #8E8348",
"8. c #848D4B",
"9. c #8A8D4A",
"0. c #948542",
"q. c #908447",
"w. c #998242",
"e. c #988740",
"r. c #938A40",
"t. c #938C43",
"y. c #908946",
"u. c #958D44",
"i. c #978D45",
"p. c #9C8941",
"a. c #998D41",
"s. c #918548",
"d. c #928C49",
"f. c #819043",
"g. c #849342",
"h. c #849741",
"j. c #8B9040",
"k. c #8C9041",
"l. c #8C9442",
"z. c #8F9542",
"x. c #8F9245",
"c. c #829942",
"v. c #849C43",
"b. c #8A9841",
"n. c #8B9B43",
"m. c #8D9843",
"M. c #81904A",
"N. c #82954A",
"B. c #84944B",
"V. c #8B934B",
"C. c #89974B",
"Z. c #8E9548",
"A. c #879949",
"S. c #859C4B",
"D. c #84984D",
"F. c #869E4D",
"G. c #8B9B4B",
"H. c #8D9A48",
"J. c #889E4F",
"K. c #8D9C4C",
"L. c #909140",
"P. c #939442",
"I. c #9A9643",
"U. c #9D9441",
"Y. c #949B43",
"T. c #959847",
"R. c #909E44",
"E. c #9A9940",
"W. c #9A9C42",
"Q. c #999E45",
"!. c #919B48",
"~. c #949A48",
"^. c #839951",
"/. c #859B53",
"(. c #869856",
"). c #829E58",
"_. c #86A145",
"`. c #8CA245",
"'. c #84A34D",
"]. c #8CA44A",
"[. c #8AA94F",
"{. c #93A343",
"}. c #9AA343",
"|. c #9CA042",
" X c #93A944",
".X c #98AC46",
"XX c #90A44A",
"oX c #90AA4B",
"OX c #84A254",
"+X c #8BAB50",
/* pixels */
"T.$.) ( ;.$.$.' -.$.$.O./ ;.:.;._ _ $.+.E [ @.$.` r.6.6.z , , 4 % X.C.).I I L l z ! q q ) e._ (  .J A.P.` W [ E , _ _ T E h X.K.",
"I.;.O.` ' *.*.' o.O.o.] [ @.:.$.p.' #.#.#.$.;.;.;.' ! h 1 ! ^ ! ; x J L Y I P M.6.^ , T / *.*.' X.c.F.m.$.[ ] E ' *.' ) ( ! &.Q.",
"i.' T R ' ;.O.o.$.$.O.1.%.#.#.$.$.#.o.$.' ;.;.o.h > > h Q ~ ^ T 1 S Z f J D.N.f.^ o.R ) / T R `  .g.S.K.+.| ~ E ' ;._ _ q ' :.|.",
"y.! & ^ o.o.o.' ' ;.O.&.H.5.6.E &.E.$.$.$.$./ E ; h ^ ^  .~ k h 1 c Z z ~ ~ k E ] o.' ' ;.$.` ! z n.^.A...] k #.' ' q q _ _ U.~.",
"q.4 r #.} +.#.e.' @.O.&.Z.j.x. .| &.@.#.#.#.W W Q Q 6.P.^ E E g ; c A c ^ ~ k ~  .&.$.$.&.&.l.6.5.R.J.c.{ ] E :.' ' _ q e.i.~.(.",
"a.0 ) #.+.@.#.i.' @.@.T.T.E.H.%.n ] +.E g } } E g c ^ ^ #. .E g g k c c ~ ~ 5.^  .&.%.W.1.<.v.J A._.]._...w r &.$._ _ ;.V.n.}.XX",
"e.) _ ' @.O.#.i.` E  .T.Q. X Xn % i k E W +.#.x.f.S Q ` #. .E E E ~  .~ 6.3.5.6.Y.%.{.Y.{. X].Y S.K '.D N n . o.;.;.' :.{.G  XK.",
"` ' *._ @.=.#.~ ` i j %.X...>.p @ @ g g %.%.P.V.S 5.z ` ^ E [ k h ~  .6.^ c c | #.#.E. .X. Xv.Y v._.v.G _...e E $.O.$.|. X].].9.",
"R ' ' ' =.' ^ ~  .i j {.<...]._.N @ & g E.m.| A V c z Q ^  .[ h & Q X.| k E E c c ^ ^ #.| | _.`.>.>.>.U D b . i #.' ` R.}.}.].k.",
"R , ' O.o.) ! 6.g.Z X.n.`...[.].v.u % P.| | c x x g > 3 t.P.` ! h i j ] X.}  .E h g g ~ ~ g.n.<.<.<.`._. X..@ % Y.a.i.!.}.}.{. .",
") R R ) T R / #.%.A.X.h. X_.].N p d p l.Y.l.g.c i ; z ^ P.P.r. .n.l.n k b  . . .] k k E k c ..X.+.%.&.<.v.N p n <.T.E.{.{. X`.c ",
"w._ ) ) R E E [ &.l.%.X. X X_.b u p n. . .H.F s c A.P.#.%.Y.P...`.'...x x g z  . .| ~ ~ E E [ +.} +.+.%.p # @ j j n.{.{.>.<.S.z ",
"w.' q ! T W ^ E ~ 6.P.n. X X`.X.w @ j  .| F c c A.R.W.%.R. X}.'.]._.v.m l.^ 2 z z Q P.^ ^ #.#.%.+.@.&.%.A.@ . b x G.].}.{.X.M 6.",
"' ;.) R / / [  . .5. .m.XX`.n.] j p l 5.x A n.h.g.| #.m.c.b M +X>.<._.A.P.) ! 3.C C  .#./ ` $.6.m.&.&.W.P.i . p b {.%.1.}.E.X.@.",
"' _ T O.$.[ E ] X.Y.%.`.'.Z l @ % e ~ ^ E ~ c f.B.| g | n.w N G ]. X].n.y.0 0.9.5.f. .O.o.P.P.6.~ +.+.%. .E . % n 1.%.1.{.Y.%.@.",
"! R ` ' $.#.} %.v.X.X..._.n.k O @ k j c ^  .| f.F A.i u @ + d d m '.K.9.7.0.6.8.B.l.%.o.o.k.6.^ ! #.[ [ [ t & j n X.| ..| A.M [ ",
"z h , T Q ^ +.E.P.[ ] | .. .E t [ ] l g P.P.l.A.F | @ u @ N G K D F f.d.0.e.B.J.K.H.O.#./ Q z z h #.$.$.o.O . @ @ l.l. .n K G.+.",
"z ^ ) 6 4.^ E ^ #.#.[  ...| k k [ E > > ' E.Y.n.F u c.p @ + @ # # D Y.P.' y.D.n.G.C.#.( E c 6.6.^ ^ / $.$.E . e [  .+.} M K /.g.",
"0.o./ e.e.` / ) ! ^ [ [ | k ] } ] T , , ! P.Y.%.N u + # d A.Z u d u A 6.a.d.8.f.A.m.~ ^  .k.6.t.#.P.` / O.h * R #.o.+.+.n.N.M | ",
"*.O.o.' _ ` ) ) ! ~ [ k x ..{.1.o.h > 3 ) x.g.<._.'.D o o u p .._.K A z z Q V.8.l.~ ^ %.Y.x.6.i.P.P.$.O.E $ + & z E k %.v.c.k E ",
"T W / ! 6 ! ) / ~  .} h n >.].{.#.h g ^ ` ` | X.].'.u o + w j  X].OXB.6.3.5.~ 3.6.#.O.&.}.R.T.P.L.i.$.;./ T . & h h E g.F K g.~ ",
"! / T 7 4.) #.} b b ] E [ <.{.{.Y.~ ~ #.' #.#.n.].x u u u b { ..R.Q.d.a.r.g.^ 2 6 ) $.O.W.E.&.O.k.#.$./ ' [ + > T /  .h.H Z V.r.",
"5 _ ! ` #.^ h n j j j k  .R.{.m.| N X.&.O.~ c c F D f p b E k W $.;.' O.^  .` 7 _ ) $.#.~ ^ [ E ~ #.' ) g g % ; & z k m K Z 9.q.",
"< q / 6.B.| k j p x c c | n.F x M m | o.[ ~  .B.N.D M c h k o.O.O.*.;.O.#.+.%.:.;.$.&.P.[ E E E / #.` ! R + ; $ ; x N m.G.~ r.6 ",
"= ) #.g.J G M b j c 5.9.f.Z x s | x k t h h ^ A m j j c h T O.@./ _ *.$.%.%.<.e +.E +.A  .#.^ O.$.O. .E W E g $ E ] k | | R ) 9 ",
"8 6.T.A.F G v.F m x 5.9.Z x x g.R.+.] W y E T g l g k h g t E t 3 ' *.&.l.n.,.e ..% | - ~ g ; / ` o.#.#.} E i ` #.o. .[ E > 3 6 ",
"4.V.V.B.g.F '.j c.~ ~ c l x M X.1.+.E k h y h > 1 s c  . .t r ; 1 T ) #.~ X.} @ x o M $ z % g ( _ ( ` L.X.k + > 2 ( ^  .6.z 2 3 ",
"C 8.9.3.: Z f u h. . . .E j j k } ] E g h t R > 1 6.9.V.R.%. .A : 1 ( +.} +.1.%...h.A k.~ ~  .#.' ' ' i.#.k o ; d.r.#.P.3.: z 2 ",
"V C z l o N.f d b { j  .o.} E > h h k k o.o.' , = ! 4.9.%.%.A.f Z + k h g } }.1.{.g.~ [  .k.&.' ;.;.' ' ) P.g.s c 6.l.l.z > C l ",
"S Z x a o s @ f %.% k ( ^ Q Q , g k ^ h [ O.' 6 < 0 ) t.&.X.N.@ x o k.+ x %.{.2.1. .+.[ k &.:.:.;.:.$.$./ P.l.Z Z g.l.5.C z C S ",
"P x m s s # - F j O ' ` d.6.6 6 5.M j.z R ;._ _ 0 0 _ ^ ^ %.n.+ g s - % z W.R.2.2.o.[ [ k =.&.:.=.@.$.&.O.#.E Z N.N.8.3.3.9.9.B.",
"Y F h.J B B s l $ & & 6 s.s.q ` B.J B.j.e.;./ h , ) , z  .%.`.D. .~ Q ! $.|.&.:.:.O.o.[ T ;.:.:.' ' @.@.} k ] ^ 8.8.A 9.6.d.6.8.",
"V.X.C.).I I L l z $ 1 q ) e._ (  .J A.L.` W [ E , _ _ R E h m.K.T.$.) ( ;.$.$.' -.$.$.O./ ;.:.;._ _ $.+.E [ @.$.` r.6.6.2 , , 4 ",
"; x J L Y I P M.6.^ , T / *.*.' X.c.F.m.$.[ ] E ' *.' ) ( ! &.Q.I.;.O.` ' *.*.' o.O.o.] } &.:.$.p.' #.#.#.$.;.;.;.' ! h 1 ! ! ! ",
"1 S Z B J D.N.f.^ o.R ) / R R `  .g.S.K.+.| ~ E ' ;._ _ q ' :.|.i.' T R ' ;.O.o.$.$.O.1.%.#.#.$.$.#.o.$.' ;.;.o.h > > h Q ~ ^ T ",
"1 c Z z ~ ~ k E ] o.' ' ;.' ` 6 z n.^.A...] k #.' ' q q _ _ U.~.y.! & ^ o.o.o.' ' ;.O.&.H.A 6.E %.E.$.$.$.$./ E ; h ^ ^  .~ k z ",
"; c A c ^ ~ k ~  .@.O.$.&.&.l.6.5.R.J.c.{ ] E :.' ' _ q e.i.!.(.q.4 r #.} +.#.e.' @.O.&.Z.k.L. .| &.@.#.#.#.W W Q Q k.P. .] E g ",
"g k c c ~ ~ 5.~  .&.%.W.1.<.v.J A._.]._.n w w &.$._ _ ;.V.n.}.XXa.0 ) #.} @.#.i.' @.@.T.T.E.H.%.n ] +.E g } } E g c ^ ^ #. .E g ",
"E ~  .~ 6.3.5.6.Y.%.{.Y.{. X].Y S.K '.D N i + [ ;.;.' :.{.G  XK.e.) _ ' @.O.#.i.` E  .T.R. X X<.n j k E W +.#.x.f.S Q ` #. .E E ",
"h ~  .6.^ c c | #.#.E. .X.`.v.Y _._.v.d u j w E O O.$.|. X].].9.` ' *._ @.=.#.~ ` i j %.X.....p m k &.#.%.%.P.V.S 5.z ` ^ E [ k ",
"& Q X.| k E E c c ^ ^ #.| | _.`.>.>.>.U v j @ o h ' ` R.}.}.].k.R ' ' ' =.' ` ^  .i j {.<...].@ u p W.E.E.m.| A V c T Q ^  .[ h ",
"h i j ] X.}  .E k g g ~ ~ g.n.<.<.<.`._. Xp   p Y.a.i.!.}.}.{. .R , ' O.o.) ! 6.g.Z X.n.`...[.].u u Y.P.| | c x x > > 3 P.P.` ! ",
"n.l.n k b  . . .] k k E k c ..X.+.%.&.X.M w o n <.T.E.{.{.<.`.c ) R R ! T R / #.%.A.X.h. X_.oX XN m u x Y.l.g.c i ; z ^ P.P.r. .",
"`.'...x x g z  .l.f.~ ~ E E [ +.} o.+.] # u @ @ @ n.{.{.>.<.S.z w.) ) ) R E E [ &.l.%.X. X X].j w @ w |  .H.M s c n.P.#.%.Y.Y...",
"]._.v.m l.^ 2 z z Q P.^ ^ #.#.%.+.@.&.%.f p @ p x G.].}.{.X.M 6.w.' q ! T W ^ E ~ 6.P.n. X X`.w o p Y. .| F c c A.R.E.Y.R. X}.'.",
">.<._.A.P.) ! 3.C C  .#./ ` $.6.m.&.&.W.P.$ . ..b {.%.1.}.E.X.@.' ;.) R / / [  . .5. .m.XX`.n.+ j ..j.5.x A n.h.f.| #.n.c. X.X+X",
"]. X].n.y.0 0.9.5.f. .O.o.P.P.6.~ +.+.#. .g + @ i 1.%.1.{.Y.%.@.' _ R O.$.[ E ] X.Y.%.`.'.A.l % t ] ~ ^ E c c f.B.| g | n...v.G ",
"m '.K.9.7.0.6.8.B.l.+.o.o.k.6.^ ! #.[ [ [ E + % c X.| ....A.M [ ! R ` ' $.#.+.%.n.X.X..._.H.k % E e i c ^  .| g.g.A.| m b p d d ",
"D F f.d.e.e.B.J.K.H.O.#./ c z z h #.$.T & r + E k l.l. .n K J.+.h h , T Q ^ +.E.P.[ ] .... .E t [ r + g P.P.l.A.F | n m ..N G K ",
"K ].Y.P.' y.D.n.A.C.#.( E c 6.6.^ ^ / W $ X r k  . .+.} M K /.g.2 R ) 6 4.^ E ^ #.#.[  ...| k k [ E > > ' E.Y.n.c.h.c.x m N m D ",
"v f A 6.a.d.8.f.A.m.~ ^  .k.6.t.#.P.` / O.& . g ^ o.+.+.m.c.M | 0.o./ e.e.` / ) ! ^ [ [ | k ] } ] T , , ! P.Y.%.F `.'.d f A.F d ",
"_.K A z z Q V.8.l.~ ^ %.Y.x.6.d.T.P.$.W h h X & R E k %.v.c.k E *.O.o.' e.` ) ) ! ~ [ k x ..{.1.o.g > 3 ! x.g.<._.+X'.B d ..n...",
"].OXB.6.3.5.~ 3.6.#.O.&.}.R.T.P.L.i.$.W E T g W W h E g.F K A.~ T W / ! 9 ! ) / E  .} h n >.].{.#.h g ^ ` ` | X.].'.'.G f { <. X",
"R.Q.d.' r.g.^ 2 6 ) $.O.W.E.&.O.k.#.T h O r $ ; > /  .h.H Z V.r.! / T 7 4.0.#.} k b ] E [ <.{.{.Y.| ~ #.( #.#.n.].].+X_.b b { ..",
"O.;.' O.^  .` 7 _ ) $.#.~ ^ [ E ~ #.` > % $ O O Q 5.k m K Z 9.0.5 _ ! ` #.^ h n j j j k  .R.{.m.| N X.&.O.~ c c F D '...b E k W ",
"O.*.;.O.#.+.%.$.$.$.:.P.[ E E E ^ o./ T O % R R z x N n.G.~ r.6 < q / 6.B.| k j p x c c | n.F x M m | o.[ ~  .B.N.D M c h y o.O.",
"/ _ *.$.%.%.1.e r &. .Z.#.h ' O.O.o.#.W E $ g R E ] k | | R ) 9 = ) #.g.J G M b j M 5.9.f.Z x s | x k h t h ^ c m j j c h T O.@.",
"2 ' *.&.l.n.,.k c 1.i A.i $ ` / ` o.#.#.} ] i ` #.o. .[ E > 3 6 8 6.T.A.F G v.F m x 5.9.Z x Z g.R.+.] W h E h g l g k h g t E t ",
"1 T ) #.~ X.} n c n o f.- i 6.' _ ( ` L.X.k g 4.e.( ^  .6.z 2 5 4.V.V.B.g.F '.n.c.~ ~ c l x M X.<.+.E k h y h > l s c  .| t r ; ",
": 1 ( +.} +.1.%...h.F l.- c  .#.' ' ' i.#.k i l d.r.#.P.3.: z 2 C 8.9.3.A Z '.].n. . . .E j j k [ ] E g h t R > 1 6.9.V.!.%. .A ",
"J i E #.] } }.1.{.g.~ [  .k.&.' ;.;.' ' ) P.g.s c 6.l.l.C > C l V C z l C N.S.].%.} [  .#.} E > h h k k o.o.' , = ! 4.9.%.%.A.F.",
"A.B.k.| c %.{.2.1. .+.[ k &.:.:.;.;.$.$./ P.l.Z Z g.B.5.C z C S S Z x a a Z K n.%.+.#.( ^ Q Q < g k ^ h [ @.' 6 < 0 ) t.&.m.N.n.",
"g s l g z W.R.2.2.o.[ [ k =.&.:.=.@.$.&.O.#.E c N.N.8.3.3.9.9.B.P x m s s s f F } $.' ' d.6.6 6 5.M j.h R ;._ _ 0 0 _ ^ ^ %.n.| ",
" .~ Q ! $.W.:.:.:.O.o.[ T ;.:.:.' ' @.@.} k ] ^ 8.8.A 6.6.d.6.8.U M h.J B B s l ~ ' ' w.s.s.q ` B.J B.j.e.;./ h , ) , z  .%.{.D."
};
