/* XPM */
static const char *thornfloor_damp[] = {
/* columns rows colors chars-per-pixel */
"64 64 194 2 ",
"   c #5C7D2E",
".  c #607C39",
"X  c #737D4E",
"o  c #777B50",
"O  c #7B7C52",
"+  c #847F5A",
"@  c #5E8A3E",
"#  c #53933A",
"$  c #559B3E",
"%  c #5B993C",
"&  c #6A8E39",
"*  c #619038",
"=  c #6A923C",
"-  c #619E3E",
";  c #6B9B3C",
":  c #719C3D",
">  c #53A23D",
",  c #5CA53E",
"<  c #6BA337",
"1  c #6CA13E",
"2  c #63AE3F",
"3  c #6AAC3E",
"4  c #76A337",
"5  c #73A33D",
"6  c #7CA63C",
"7  c #73AB3E",
"8  c #7EAB3B",
"9  c #67B03F",
"0  c #6CB23F",
"q  c #75B53E",
"w  c #7BB63D",
"e  c #7EB93D",
"r  c #3CA243",
"t  c #5F8F48",
"y  c #4E9E41",
"u  c #579540",
"i  c #559D44",
"p  c #6B8748",
"a  c #7A8D4F",
"s  c #649543",
"d  c #6A9746",
"f  c #629B43",
"g  c #6C9B42",
"h  c #679D4B",
"j  c #789747",
"k  c #729E42",
"l  c #73934C",
"z  c #7C964F",
"x  c #749A4D",
"c  c #7D9B4E",
"v  c #6F8B50",
"b  c #7A8350",
"n  c #768951",
"m  c #7B8D51",
"M  c #6E9252",
"N  c #7C9450",
"B  c #769C50",
"V  c #7B9B53",
"C  c #46A443",
"Z  c #4AA542",
"A  c #4DA946",
"S  c #52A544",
"D  c #5BA644",
"F  c #53A945",
"G  c #5DAB44",
"H  c #56A549",
"J  c #5CA649",
"K  c #56AC48",
"L  c #5DAA49",
"P  c #64A544",
"I  c #6DA444",
"U  c #64AB45",
"Y  c #6CAD45",
"T  c #62A64A",
"R  c #6CA54B",
"E  c #64AB4A",
"W  c #6BAB4A",
"Q  c #75A442",
"!  c #7BA545",
"~  c #73AD45",
"^  c #7BAD46",
"/  c #74A54B",
"(  c #7BA44D",
")  c #74AC4B",
"_  c #7BAC4C",
"`  c #66B046",
"'  c #6DB145",
"]  c #64B04A",
"[  c #6CB24B",
"{  c #74B344",
"}  c #7CB445",
"|  c #76B844",
" . c #7DB845",
".. c #75B34B",
"X. c #7CB34C",
"o. c #76B84E",
"O. c #7DBA4C",
"+. c #6FA750",
"@. c #6EAB50",
"#. c #71A751",
"$. c #74AC51",
"%. c #79AC50",
"&. c #7AAA59",
"*. c #77B251",
"=. c #7AB451",
"-. c #7DBA51",
";. c #82AF37",
":. c #8FBC37",
">. c #85B33F",
",. c #83BB3D",
"<. c #8ABE3D",
"1. c #92BF3F",
"2. c #8EC13D",
"3. c #93C33C",
"4. c #98C739",
"5. c #81954D",
"6. c #839E4D",
"7. c #84855B",
"8. c #89845E",
"9. c #828C5A",
"0. c #879D56",
"q. c #82AD45",
"w. c #82A54C",
"e. c #82AC4B",
"r. c #88AF4A",
"t. c #84B545",
"y. c #8AB445",
"u. c #83BA46",
"i. c #84BA45",
"p. c #85BB46",
"a. c #8BBB44",
"s. c #81B14A",
"d. c #83B44A",
"f. c #82B74A",
"g. c #8AB549",
"h. c #81BB4A",
"j. c #83BB4B",
"k. c #83BD4A",
"l. c #86BE49",
"z. c #8BBC4A",
"x. c #91BD44",
"c. c #90BF49",
"v. c #81A252",
"b. c #83AB5E",
"n. c #8AAF5F",
"m. c #83B551",
"M. c #80BD50",
"N. c #88B25B",
"B. c #97B05A",
"V. c #8C8B62",
"C. c #928D67",
"Z. c #8D9163",
"A. c #96926B",
"S. c #9B966F",
"D. c #99986E",
"F. c #9C9971",
"G. c #A39E76",
"H. c #A49F78",
"J. c #83A662",
"K. c #88A664",
"L. c #8DAD62",
"P. c #95AA69",
"I. c #96B369",
"U. c #9DA972",
"Y. c #9CB672",
"T. c #A3A477",
"R. c #A1AA76",
"E. c #A6A27A",
"W. c #A9A57D",
"Q. c #A7AC7D",
"!. c #AAAC7E",
"~. c #A4B974",
"^. c #A5B27D",
"/. c #87C045",
"(. c #8CC145",
"). c #88C04A",
"_. c #8CC14A",
"`. c #92C242",
"'. c #91C344",
"]. c #90C448",
"[. c #ACA780",
"{. c #AEAA82",
"}. c #B3AE85",
"|. c #ADB383",
" X c #B2B486",
".X c #B5B38A",
"XX c #B9B58C",
"oX c #B5BC8B",
"OX c #BEBB91",
"+X c #C3BF96",
"@X c #AFC084",
"#X c #BAC18D",
"$X c #C2C395",
"%X c #C9C59B",
/* pixels */
"-.-.-.O.l.(.`.`.a.y.y.q.q.e.g...f.E f.f.e.e.S T J R R ) ^ s.Y T a.3.`.u.} } '  .l.(.(.k.O.h._._.] O.O.O.O.L A r L -.-.-.o.[ ] -.",
"-.-.O.O. .`.3.q >.y.t.Y y.s.f.{ E ^ _ _ _ _ _ U ) W ) _ p.y.} } 3.,.a.{ { G {  .u.l.U k.O.O._._.h.O.O.[ o.O.o.r [ -.-.-.[ -.[ -.",
"O.-.O.O. .`.1.Y >.t.D Y f.f.f.s._ _ _ ) _ f.f.^ ) ^ } t.a.a.1.3.4.3.,.<.} p.p.l.p.k.` o.O.h.l.l.O.O...L [ ..*.O.-.-.-.-.-.-.-.K ",
"K O.O.k.z.U } U U C Y U  ...W ) _ _ X.E e.f.X._ } } } a.3.3.<.3.4.3.3.3.w u.p.u. . .U | } } u.p.X.) ) K ) ) ) ..=.L [ -.-.-.O.O.",
"..O.O.h.(.'.} G A F ' ....E S ) _ X.f.D f...^ X.{ Y { a.3.,.,.3.4.3.3.2.q } u.{ '  .U } } { { u.X.) ) ) ) ) %.%.....L -.-.O.O...",
"..O.O.l.(.(.z.h.l.h.O.O.....E _ e.s.) ^ g.{ Y } ^ Y { t.<.q <.3.4.3.2.2.,.' ' u.} } } } ~ U Y f.U ) ) ) ) ) _ W W ..O.O.O.O.O.K ",
"O.O.O.j.z._.z.l.h.O.O.h. .p.Y ^ y.y._ Y p.} f.} ^ Y } Y Y { ,.3.4.3.2.2.,.{ } } ' { { Y U ~ } } U ) ) ) _ _ Q.K.) _ ..O.[ L K O.",
"O.O.h.O.O.z.z.h.f.f.g.h.~ ~ y.c w.e.U } y.q.z z ^ Y Y Y U Z 0 3.4.<.,.3.3.<.u.} Y G Y Y Y ~ ~ ^ ) ~ R.[.U.W.}.F.I ^ ..o.E ..O.O.",
"O.[ f.Y ~ z.g.~ s.g.g.Y U Y } z 5.c q.w.e.b O x ^ ^ ~ G G G ,.3.3.0 q 3.<.,.p.t.} U ) ) ^ ^ q.I.!..XE.W.W.C.8.X - ) ..X.X.O.O.O.",
"O.) f.~ ^ g.y.Y ~ y.y.s.Y U G H D x e.w.m m o a ( b x } a.e q 2.3.q ,.3.q ,.p.} } } ^ Y ^ s.q.L. XH.V.n l a j % Y ..X.......o.G ",
"H e.e.s.y.y.y.y.^ 6.g.g.X.X.) ) _ z m m N w.) x a b ! Y <.2.9 2 2 G e q q <.u.X.} } s.~ ~ s.y.Q : = = v.P..XR.^ f.O.X...U G G W ",
"e._ _ r.y.y.^ ^ g.6.g.g.e.z ) E W ) f.) ~ f.) ^ ~ ^ ^ D q 3.3.0 2 F ,.9 a.a. .} } { f.} Y p.y.y.q.! ^ U.XXXXG.G...O. .O.O. .f.) ",
"e.( _ c g.g.X.U ^ g.s.s.w.N e.E W X.g.Y Y ^ ^ _ s.^ ^ t.} } <.3.2 Z 3 3 } l.} { } Y Y } } y.a.z.} Y ^ l 9.p 9.9.) ......f.g.g.s.",
"e.e.e.c e.g.g.....f._ N e.e.s.) ..g.f...^ ^ ^ f.p.f.X.p.p.{ a.<.8 > , 7 { u.h.| O.h.u.p.y.z.z.z.h.U X./ d d f I ) _ ^ U y.y.g.s.",
"e.e._ e.W N e...) N X.%._ =.s.g.a.a.f.} g.^ X. .Y Y ..} } y.a.y.8 8 7 { o.l.l.h.o.h.l.y.} a.a.u.p.' f...U ^ Q R I e.q.P q.y.^ r.",
"_ / R e.L / =.E E ) B ) ) _ e.5.a.a.y.g.g.....{ { Y f.f.f.p.p.U } ^ ..o...O.l.k.o.h.h.p.a.} t.{ { ' f.) U X.~ P ^ _ ( ( e.e.) e.",
") R W _ L X.X._ %.T B ) ) _ X._ y.f.p.h.f..... .f.f.p.p.p.p.p.U ) ......O.O.o...o.k.| } a.a.t.} } Y { U ) ) Y ~ e._ _ ( _ ^ T _ ",
"J L _ _ X._ ) / ( E ) W ) _ _ X.g.u.h.h.f.f.Y u.} ' u.f.a.a.f.G ) _ ) ..W ..{ { } u.{ { x.x.x.y.~ P S T U U W ) ) _ _ / / ) T _ ",
") _ X.) ) $.) R / W E W ) W ) ..g. .h.f.f.f.h.h.u. . .p.<.a.t.^ ) ) ) ) W Y } G Y t.} t.x.a.p.a.8 $ # $ I ) ) ^ ^ _ _ R ( _ J R ",
"_ X._ _ %.) =.f.W W E W W L ) ..f...f...O.X.X... .} u.<.2.2.<.t.} ) ) ) X.m.n.U } y.t.{ t.u.u.c.} 5 ; 5 ^ ) ) X._ _ _ ) ) _ _ ) ",
"_ ) ) ) *.o.h.j.f.X.%.%.W W O.f.X.) f.) b.) W D ) } } e ,.3.<.t.} ) ) ..f.R.OXOX~.x.x.t.a.} } c.a.y.^ ^ f.g.h.f.X...W W ) _ ^ _ ",
"_ W J $.%...O.h.h.O.O.*.E [ h.m.....s. XXX!.&.J ) ) U Y <.3.<.} ) E ) I..XW.{.A.Z.p.z.'.p.} ' p.x.} }  .g.j.g.O... .U f.....X._ ",
"_ _ %.$.%.*.O.j.O.j.k.-.E ..z.z.j.E ^.{.E.F.T.+.) ) ..p.a.`.a. .) H L L.}.m o & 4 U U | | ' Y } ~ Y ~ h.j.j.l.h... . .h.Y ~ e._ ",
"=.%.%.) E ) ..o.o.).j.O.[ O._.z.j. .%.O 7.Z.V J.J.) E X.g.z.z.h...W E ) 5 : Q - U X.z.| U G U a.z.g.g.h.h.j...| | O.z.z.p.' f.X.",
"m.=.*.E W =.O.h.h.j.k.O.[ k._.z.f.O.X.I P i &.XX.X|.T _ s.h.h.h.M.=.=.=.} l.} Y { g.z.z.Y { c.c.z.g.h...O.[ [ l.z.z. .z. .} u.h.",
"h.*.=.O.O.f.j.h.h.l.k.o.o.l._._.h.O...) ..L ^..X[.F.H ) ) ..) =.-.-.-.-.l.U Y f.g.g.g.g.g.z.'._.z.k.[ ' O. .Y f.p.p.p. .z.z.l.z.",
"h.O.O.O.f.j.h.l.z.l.' ] O.l._.].l. .X.O.O.../ m 9.p h #.@.L L *.=.-.O.O.k...G h.j.f.s.s.f.h.z._.z...U G f.f.Y f.s.^ y.} O.h.h.z.",
"z.h.X...j.f...h.} l.h.` ` k.(.(.l.h.O.O.O.O.O.) ) / $.$.E L *.*.*.-.O.O.k.` h.6.e.s._ ) W f.l.' j.) ~ ( I ^ Y p.~ ^ y.X.f.u.{ z.",
"G l.} ' z.p.X.j.' z.z.p.` O.| | (.h.O.O.O.-.O...=.*.*.*.$.*.*.*.*.O.O.k.O.` z.v.e...L J H D Y f.e.e.c z I P G U ( z f.f.f.f.{ z.",
"' 2.a.| a.p.h.l.l.| '.(.` F ` (._.k.h.h.M.M.M.L o.-.=.*.*.=.=.=.O.E ] [ G )._.z.h.f.E D g ! 6.e.c _ q.q.D 6 ~ ~ ( N _ s.Y g.p.' ",
",.3.2.{ p.' p.l./.{ {  .D C U ].l.k.h.k.o.] O.] E O.-.=.=.=.-.E O.E o.L )._._._.z.j.^ k k b 6.s.y.z e.5.q.~ ~ ^ ) ) _ ..Y s.} } ",
"4.3.2.{ u. .u.l.(.].(.Y r Z ~ z.` k.j.O.O.] W D U [ [ -.[ [ -.O.] -.O.O.h._.].(.z.y.e.m ! e.e.g.f.g.g.p.p.} U ) T R ) ) } p.Y t.",
"4.3.`.u.} } '  .l.(.(.} I ~ u._.] O.O.O.O.D C r y ..-.-.o.[ E -.-.-.-.O.l.(.`.`.a.y.q.5.q.e.c ) f.E f.f.e.e.S T v x x / ^ s.Y T ",
"3.,.a.{ { G {  .u.l.U h...O._._.h.O.O.[ o...P r $ ) -.-.[ -.[ -.-.-.O.O. .`.3.q >.y.t.Y y.y.f...E ^ _ _ _ _ _ U x x x _ p.y.} } ",
"4.3.,.<.q p.p.u.p.p.` o.O.h.l.l.O.o...L [ ....) ) =.-.-.-.-.-.K O.-.O.O. .`.1.3 >.t.D Y f.f.f.s._ _ _ ) _ f.f.^ ) ^ } t.a.x.1.3.",
"4.3.3.3.w u.p.u. . .U | }  .u.p.X.) ) K ) ) ) ..=.L [ -.-.-.O.O.K O.O.k.z.U w , D C U U O...W ) _ _ X.E e.f.X._ } } } a.3.3.<.3.",
"4.3.3.2.} } u.{ ' } U } } { { u.X.) ) ) ) b.%.%.....E -.-.O.O.....O.O.O.z.a.7 > C Z P ....E S ) _ _ f.D f.^ ^ X.{ Y { a.3.,.,.3.",
"4.3.2.2.,.' '  .} } } } ~ U Y f.U ) Q..XOX}.|.Y.W ..O.O.O.O.O.K ..O.o.k.z.p.t.1 Q ~ ^ X.....E _ e.s.) ^ g.^ Y } ^ Y { t.a.{ <.3.",
"4.3.2.2.,.{ } } ' { { Y U ~ } } &.oX+X.X.X[.[.XXoXN...O.[ L K o.O.O.O.k.z._.z.f. . .O.h. .p.Y ^ y.y._ Y p.} f.} ^ Y } Y Y { ,.3.",
"4.<.,.3.3.<.u.} Y G Y Y I Y ~ ^ R.}.S.E.A.A.C.A.}.E.D.o.[ ..O.O.-.O.h.O.O.z.z.h.f.f.g.h.~ ~ y.s.y.s.U } y.p.} ^ ^ Y Y P U Z 3 3.",
"3.0 q 3.<.,.p.t.} U I I g Q ^ ^ k = 7.8.A.+ 8.V.p * ; ~ X.O.O.O.O.[ f.~ ~ z.g.~ } g.g.Y U Y } ^ s.^ q.s.p.f.^ ^ ^ ^ ~ D , , w :.",
"3.q ,.3.q p.p.} } Q ; - : Q q.^ ! & @ @ . .   # # ; ~ ......o.G X.) s.^ ^ g.y.Y ^ y.y.s.Y U G H D ~ r.s.s.s.) ) _ ~ I 5 4 < 3 :.",
"2 , e q q a.u.X.} ^ Q Y I ^ y.^ y.^ Q = g g : ^ Q ^ X...U G G W H e.r.s.5.y.y.y.^ y.g.g.X.z ) ) _ ^ X.s.f.e.) W ^ ~ ~ P 8 ;.2 2 ",
"2 F ,.' a.a. .} } { } } Y p.y.y.y.X.X.^ _ _ X.X.O.O. . .X. .f.) e._ m r.y.y.^ ^ 6.6.g.g.f.^ ) E W ) f.) ~ f.) ^ ~ ^ ^ D q 3.3.0 ",
"9 Z 9 '  .l.} { } ' { } } y.a.z.} Y ..X._ ) W _ ) ....^ c f.g.s.e._ ( e.g.g.X.U ^ g.s.s.r.e.e.E U X.g.Y Y ^ ^ _ s.^ ^ t.} } <.3.",
"<., 3 } X.u.h.| O.h.u.p.y.a.z.z.h.U  .X.) ) W ) ) _ ^ U y.y.g.s.c c e.e.e.g.g.....f.c ( _ s.s.Y I s.f...^ ^ ^ f.f.f._ f.p.{ <.1.",
"a.t.7 ~ ..l.l.h.o.h.l.y.} a.a.u.p.'  ...U _ ^ R I e.q.U q.y.^ r.N V _ e.W %.s.....X.V ( _ =.s.g.t.y.f.} g...X.X.Y W ^ } } y.a.a.",
"} f.) ....O.l.k.o.h.h.p.a.} t.{ { ' f.) U X.~ P ! _ a ( e.e.) e.N ( W s.E ) =.E E ) %.) ) _ _ g.y.a.y.g.g.....{ { Y f.f.f.p.p.U ",
") ......O.O.o... .p.| } a.a.t.} } Y { U ) ) Y ~ e._ _ _ _ ^ T _ ) R W _ L X.X._ %.T ) W ) _ X.X.y.f.p.h.f..... .f.u.p.p.p.p.p.U ",
") _ ) ..W ..{ ' } u.{ { x.x.x.y.} Y K U U U W ) ) _ _ / / ) T ( J L _ ^ X._ ) W _ E ) W ) _ _ X.g.h.g.h.f.f.Y u.} ' p.t.a.a.f.G ",
") ) ) ) W Y } G Y t.} t.x.a.p.c.z.U Y U ) ) ) ^ ^ _ _ W ( _ J R ) _ _ ( _ ) ) E ) W E W ) W ) ..g. .g.f.f.~.#XI.u. .} p.2.<.t.^ ",
"} ) ) ) X.f...@.m.y.t.{ t.u. .c.f.} } p.f...) X._ _ _ ) ) _ _ ) _ X.( m N B =.f.W W E W W L ) ..f...g.I.XXXXOX}.^ } u.<.2.2.<.t.",
"} ) ) ..f.@X%X%X}.B.x.p.y.} } c.a.y.f.X.~.$X$XT._ _ W W ) _ ^ ^ _ x B %.$.B h.h.h.O.*.%.W W O.f.X.) f.E.F.H.A.M g ^ } e ,.3.<.f.",
") E ) f.p. XW.F.+ A.t.c.p.} ' p.x.} } Y.OXE.S.V.v ^ U f.....X._ _ R J $.%...O.j.k.O.O.*.E [ h.m....._ l p X u t s ~ U Y <.3.a.} ",
") H L  .} k = : 0.D U | | ' Y } ~ Y Y w.p 8.O X s I ..h.Y ~ e._ _ _ %.@.%.*.O.j.O.j.M.-.E ..z.z.h.E _ / d d d R R ) ..p.a.`.a. .",
"..W E ..h.f.^ ~ U | z.| U G U a.z.g.g.^ : : - 1 Y } z.z.p.' f.X.X.%.%.$.E ) ..o...).j.O.[ O._.z.h. ..._ W J +.+.#.) E X.g.z.z.h.",
"M.O.=.=.h.z.h.` { g.g.z.Y { c.c.z.g.h...X.W Y p.z.z. .z. .} h.h.m.=.*.E W X.O.j.j.j.k.O.[ k._.z.f.O.O...) L #.+.#.#.T _ s.h.h.h.",
"-.-.-.O.l.U W f.g.g.g.g.z.c.'._.z.k.[ ' O.X.Y f.p.p.p. .z.z.l.z.j.*.=.=.O.f.j.j.j.l.k.o.o.l._._.h.O.......L ) #.#.#.H #.) ..) =.",
"=.-.O.O.k...G j.h.f.X.X.f.h.z._.z...U G f.e.Y f.s.^ y.} O.j.h.z.h.h.O.O.f.O.h.l.z.l.[ [ O.l._.].l. .X.O.O.O...*.*.%.#.#.@.L L *.",
"*.-.O.O.k.` h.j.h.s._ ) W f.l.{ j...~ f.Y ^ Y p.~ ^ y.X.f.h.{ z.z.h.X...h. .{ h.} l.j.] ` k.(.(.l.h.O.O.O.O.O.=.=.*.$.$.W L *.*.",
"*.O.O.O.O.` z.z.h...L E L D Y f.f.e.e.f.Y Y G U ..^ f.f.f.f.{ z.G l.} ' a.p.X.h.' z.z.u.U O.| | z.h.O.O.O.-.O...-.*.*.*.%.*.*.*.",
"O.E E [ K )._.).j.f.W E ) _ s.s.s._ q.y.G y.{ ~ _ ^ _ X.W g.p.' ' (.a.| a.p.h.l.l.| (.p.U F U (._.k.k.k.M.M.M.L o.-.=.*.*.=.=.=.",
"O.E o.L h._._._.z.j.X.^ _ q.r.s.g.s.y.y.a.} ~ ^ ) ) _ ..Y f.} } ,.3.2.{ p.' p.l./.{ {  .D Z U a.l.k.k.k.o.] -.] E O.-.=.=.=.-.E ",
"] -.O.O.h._.].(.z.y.p.q.e.e.s.g.h.g.g.p.y.} U ) T R ) ) } p.Y t.4.3.2.{ u. .u.p.(.].(.{ C G } _.[ h.j.O.O.] [ L [ [ [ -.[ [ -.O."
};
