/* XPM */
static const char *thornfloor[] = {
/* columns rows colors chars-per-pixel */
"64 64 196 2 ",
"   c #7A8536",
".  c #76993B",
"X  c #7A9C3C",
"o  c #6BAA3E",
"O  c #7BA53F",
"+  c #76AD3F",
"@  c #7AAB3E",
"#  c #7DB13E",
"$  c #7C8442",
"%  c #7A8D45",
"&  c #7D9946",
"*  c #6EAD40",
"=  c #77A640",
"-  c #7BA342",
";  c #73AD40",
":  c #7CAE43",
">  c #7EAD48",
",  c #7EB144",
"<  c #86973E",
"1  c #86A53F",
"2  c #88A73F",
"3  c #84AD3E",
"4  c #91AB3A",
"5  c #9BAA3D",
"6  c #8CB63F",
"7  c #92B53E",
"8  c #95B93F",
"9  c #9CBC3F",
"0  c #A4B63E",
"q  c #A9B63D",
"w  c #A2BE3F",
"e  c #A7C03F",
"r  c #AAC23F",
"t  c #B3C53F",
"y  c #B8C23E",
"u  c #BECA3F",
"i  c #C3CD3F",
"p  c #849646",
"a  c #8B9B43",
"s  c #879D49",
"d  c #8A9F4B",
"f  c #969E4F",
"g  c #868D52",
"h  c #898951",
"j  c #8D855D",
"k  c #878858",
"l  c #908C5C",
"z  c #8B9353",
"x  c #8E9D54",
"c  c #8C935A",
"v  c #8A9A59",
"b  c #949C55",
"n  c #9B9F56",
"m  c #94955A",
"M  c #969C59",
"N  c #9B9C59",
"B  c #85A543",
"V  c #8FA444",
"C  c #83AE44",
"Z  c #8CAC45",
"A  c #8BA34A",
"S  c #84AE4A",
"D  c #8AAE4C",
"F  c #93A343",
"G  c #93AB44",
"H  c #99AC46",
"J  c #92A649",
"K  c #92AD4B",
"L  c #9BAC4B",
"P  c #85B245",
"I  c #8BB445",
"U  c #8FB847",
"Y  c #85B249",
"T  c #8CB34B",
"R  c #8DB84A",
"E  c #94B545",
"W  c #9BB545",
"Q  c #95B945",
"!  c #9CBA45",
"~  c #94B44B",
"^  c #9BB54C",
"/  c #94BA4B",
"(  c #9CBB4C",
")  c #8CA850",
"_  c #94A255",
"`  c #9BA356",
"'  c #93AE52",
"]  c #9AAC53",
"[  c #95A35C",
"{  c #9BA358",
"}  c #9EA95B",
"|  c #8DB350",
" . c #95B352",
".. c #9BB452",
"X. c #9DBB53",
"o. c #9BB25C",
"O. c #A3AE47",
"+. c #A3B243",
"@. c #A9B746",
"#. c #A3BC45",
"$. c #A9BD46",
"%. c #A3B54D",
"&. c #A9B64C",
"*. c #A3BC4C",
"=. c #ABBC4C",
"-. c #B1BD47",
";. c #B1BD4D",
":. c #A3A656",
">. c #A2AC54",
",. c #A0A958",
"<. c #A3B552",
"1. c #AAB651",
"2. c #A3BC52",
"3. c #ABBC51",
"4. c #B1BD50",
"5. c #918661",
"6. c #978969",
"7. c #9B8E6B",
"8. c #959263",
"9. c #989863",
"0. c #9C946C",
"q. c #A39A6E",
"w. c #A29473",
"e. c #A49A75",
"r. c #A89977",
"t. c #A79B78",
"y. c #AB9D7B",
"u. c #9FAF69",
"i. c #9CB065",
"p. c #A3A560",
"a. c #A2AF6B",
"s. c #A3B364",
"d. c #A9B766",
"f. c #A9BA61",
"g. c #ABB66A",
"h. c #B6B864",
"j. c #B1BA6D",
"k. c #ABAE70",
"l. c #AEA27E",
"z. c #B0A27F",
"x. c #B4BC75",
"c. c #B5B27D",
"v. c #B9B97F",
"b. c #9EC051",
"n. c #A6C046",
"m. c #ACC143",
"M. c #A5C14D",
"N. c #AAC24A",
"B. c #AEC54B",
"V. c #A9C34D",
"C. c #ABC34C",
"Z. c #B4C444",
"A. c #BAC743",
"S. c #B9C645",
"D. c #BCC942",
"F. c #BAC946",
"G. c #B2C44C",
"H. c #B0C74E",
"J. c #B9C54A",
"K. c #B5C94C",
"L. c #B9CB4B",
"P. c #A2C152",
"I. c #A5C251",
"U. c #A4C252",
"Y. c #A5C354",
"T. c #A6C354",
"R. c #A6C455",
"E. c #ABC350",
"W. c #B1C550",
"Q. c #B2C950",
"!. c #BBC379",
"~. c #C0CB41",
"^. c #C1CC41",
"/. c #C0C67A",
"(. c #B2A481",
"). c #B7AB86",
"_. c #B8AA86",
"`. c #BBAD8A",
"'. c #B9B283",
"]. c #BEB38C",
"[. c #BDBB89",
"{. c #C1B38F",
"}. c #C1BA8D",
"|. c #C3B592",
" X c #C6BA93",
".X c #C9BB97",
"XX c #CBBC99",
"oX c #C5C789",
"OX c #CAC393",
"+X c #CDC29B",
"@X c #D1C19F",
"#X c #D3C99D",
"$X c #D2C4A1",
"%X c #D8CBA4",
"&X c #DECEAA",
"*X c #DED0A9",
/* pixels */
"R.T.U.U.B.K.F.J.Z.-.=.@.&.&.=.( 2.Y 2.2.*.*.: D S K K ~ ^ *.E D S.^.F.n.#.*.Q *.B.K.K.V.M.M.G.Q.R M.M.M.P.P , * P U.T.U.b./ R R.",
"R.T.U.U.n.F.F.! $.-.@.E =.=.=.( Y ^ <.<.<.%.%.T ~ ~ ^ %.=.=.#.#.D.m.Z.! ! I ! *.N.B.I V.M.M.G.W.E.U.2./ X.2.X.* / R.R.P./ R./ T.",
"P.P.U.M.#.S.S.E @.@.P E =.=.2.2...<.<...<.2.*.^ ^ ^ %.$.Z.S.S.A.^.~.m.Z.#.n.N.N.N.N.E #.M.V.B.B.M.X.X.Y / ..X.P.T.b.R.R.T.T.U.P ",
"P P.P.V.G.I #.I I ; E I *.( ~ ....<.<.Y <.*.%.%.%.*.#.Z.S.A.Z.~.i ^.D.A.#.$.N.N.M.M.I ( #.*.N.N.%.^  ., ......X.2.Y / R.U.U.P.P.",
"( 2.2.M.G.J.#.P , , / ( ( T : ....2.1.P *.( ^ %.( E ! Z.S.m.m.~.i u A.Z.#.#.$.! Q *.E #.#.! ! $.%.^  . ..... ...X...Y T.P.P.P.( ",
"( *.*.V.G.K.G.M.V.M.M.*.( ( T ^ <.=.^ ^ =.( E %.W E ! $.Z.! Z.D.i u y A.m.Q ! $.#.#.#.#.~ I E *.Y ~ ..........T T X.2.P.P.P.*., ",
"*.*.M.V.G.K.G.E.U.M.M.M.*.=.E %.&.&.%.E =.#.$.%.^ E ^ E E ! m.D.i i A.A.m.! #.#.Q ! ! E I ~ %.%.T ^ ........].a.~ ..<.2./ P , ( ",
"P.P.U.*.M.G.G.E.3.=.=.=.~ W =.` >.&.I %.=.&.M _ ^ E E E I + Q D.i t r A.A.Z.$.#.Q P E T E ~ ^ %.^ ~ '.{.c.]. X(.J ^ %.( / ( X.2.",
"U./ =./ ( G.;.^ *.&.=.E I ~ %.` ` ` &.,.<.l j M ^ ^ ^ P I I m.D.u 8 9 D.Z.m.m.$.#.I ^ ~ ^ %.&.j.}.XX`.`.`.w.7.k B ^ ^ ( *.( *.2.",
"2.~ =.^ ( 4.;.E ^ &.=.=.E I P C C _ <.,.m m j m ] l _ #.Z.#.! u u w r D.! m.m.%.%.%.^ E %.&.&.g. X_.0.c b m f B E %.( ( ( ( ( R ",
"C <.<.1.&.;.&.&.^ :.&.=.*.%.^ ^ %._ m m N >.^ x m l L E Z.Z.Q 6 6 6 e w #.S.$.%.%.*.*.E ^ %.=.H F a a } k..Xv.%.*.*.*.( I I I E ",
"<...<.1.&.;.^ %.&.:.;.1.<.M ^ T ~ ^ *.^ ^ &.^ ..~ %.W P ! A.D.8 6 # r Q Z.Z.*.( *.( *.*.~ =.=.;.%.L ^ c.+XXX_.).^ ( *.=.U.=.=.~ ",
"<.....` 1.4.*.T ^ 1.=.1.<.M <.Y E *.=.~ E %.^ %.&.^ ^ $.#.#.Z.D.6 + 7 E *.N.#.( #./ / #.*.G.G.G.( E ^ b 9.g 0.9.~ ^ ^ %.=.=.3.1.",
"<.<.<.{ <.1.3.^ ^ 3.<.{ <.<.2.~ ( =.*.%.^ ^ ^ *.=.*.%.$.=.! S.Z.0 @ 3 W ( N.N.( M.N.M.N.V.G.G.G.=.I %.L d d B K ^ %.^ I =.&.1.1.",
"<.<...<.~ M <.^ ..M <.....2.2.=.;.G.*.%.=.( *.%.~ ~ ^ *.*.G.Z.-.+.+.W ( *.V.B.V.#.N.B.V.%.Z.Z.$.$./ =.( P ^ K T K %.%.I %.&.%.1.",
"<.] T <.Y ' <.Y T ..[ .. ...<.M -.G.;.=.=.( ( ( ( ~ *.*.$.=.=.I %.%.^ ( ( M.V.V.#.V.N.N.-.#.=.! ! / =.~ I %.~ Z %.%.^ ..%.&.^ <.",
" .T T <.Y <.<.....S _  . ...<.%.;.$.V.=.=.( ( *.*.M.N.$.=.=.$.I ^ <.X.X.( M.#.( #.N.! #.Z.Z.$.! #.E ( I ^ ~ E ^ %.<.......^ D ..",
"Y Y ..^ <... .' ] T  .T ....<.%.=.$.V.3.2.=.E M.#.Q n.*.G.G.$.P ~ ....X./ ( ( / #.$.! ! J.J.Z.=.E Z : C T Y ~ ^ ^ ....] ] ..S ..",
"..<.<..... ...D ' T T T  .~ ..^ 3.*.V.=.2.=.=.V.N.#.#.m.Z.Z.$.^ ^ .. .^ T / *.P / $.#.$.J.G.N.Z.+.O X O G ^ ^ ^ ^ .... .] ..S K ",
"..%.<.......2.2.~ ~ T T ~ Y ..^ 2.%.=.%.2.<.<.( %.#.n.Z.A.A.Z.#.%.^  ...%.3.d.I #.-.$.! =.$.n.J.#.G V H ^ ^ ^ %...<.<. . .....^ ",
"..~ ....X.X.U.U.2.2.....~ ~ 2.3.<.^ 3.( s...~ P ^ ( #.m.m.D.Z.$.%.^ ^ %.=.'.$X#Xv.Z.J.$.G.#.#.J.Z.=.%.%.=.=.=.=.%.<.T E ^ <.^ ..",
"..~ S  ...X.X.U.U.U.X.X.R / 3.3.X.^ 2. X+X].i.S  .^ I E Z.D.S.*.^ T ~ x.XX`.|.y.q.N.G.J.N.#.! =.Z.( %.*.=.E.V.M.( *.Y *.( ^ %...",
"...... ...X.2.U.M.E.T.T.R ( E.E.U.T [. X_.z.).'  . .^ =.S.F.S.=...> Y g. X8.j p 5 I I ( ( Q E #.W E ^ 3.U.U.B.M.( =.*.=.~ ~ <...",
"<..... .T  .X.( ( E.E.U./ M.G.G.V.*.o.j 8.e.[ u.a. .T %.=.G.G.V.<.T T ^ G F H 2 I #.W.( I P E G.G.G.=.=.V.U.( ( ( M.B.G.N.Q =.<.",
"3.2.X.T ~ 2.2.U.E.B.V.M./ V.K.G.=.*.%.J D - o.+X.X}.D ..2.U.U.U.U.2.X.X.%.V.%.E ( G.4.4.~ ! J.G.G.V.U.^ 2./ / B.G.G.n.G.n.#.V.=.",
"3.2.2.2.2.2.U.U.E.B.V.( *.B.K.K.V.*.X.^ X.P [..X{.l.>  .......2.T.T.P.P.V.I / =.E.3.3.3.G.G.J.K.G.V./ / =.*.E *.N.N.N.*.G.G.B.E.",
"E.2.2.2.2.2.M.V.B.B.Q / M.B.K.L.B.*.<.X.2.<.K m 0.g A  . .Y Y X.2.T.P.P.V.( P U.=.2.2.2.2.V.G.G.G.( I P *.*.~ *.*.^ =.%.*.V.V.G.",
"G.U.*.( V.=.( V.#.B.N.U R V.K.K.B.V.M.U.U.U.X.~ ~ K  . .| Y X.X.X.P.P.U.V.U M.} <.2.....E =.V.( =.^ ~ } E ^ E =.~ ^ =.%.=.$.( G.",
"I N.#.Q G.N.#.C.Q G.G.N./ M.! ! K.V.M.U.U.T.U.( X.X.X.X...X.X.X.X.2.U.U.M.E W.,.<.^ Y S C P E *.<.&.` n Z Z P I ] _ *.*.=.=.! G.",
"Q S.Z.#.Z.m.N.N.B.! L.K.E , E K.K.V.U.T.T.T.T.R X.T.X.X.X.X.X.2.P.R R / P Q.K.W.E.2.T S V L :.1.` %.&.%.C O.E ^ ] M <.2.E =.=.! ",
"m.D.Z.#.m.Q N.B.K.! ! n.P ; E L.B.V.U.T.( R U.R R U.T.2.X.2.T.R P.R b.Y E.K.K.K.G.V.^ J J m { &.=.M <.N O.W ^ ^  . ...%.~ *.%.#.",
"^.^.S.! n.#.N.B.K.L.K.E o @ W G./ E.M.U.P.R T P R / / T./ / T.P.R P.P.U.B.K.L.L.G.G.%.m L %.<.=.3.3.=.=.=.%.P ~ D ' ~ ^ *.=.E $.",
"^.^.F.N.#.*.Q *.B.K.K.%.G E N.Q.R M.M.M.P.P ; o = ^ T.U.b./ R R.R.T.U.U.B.K.F.J.Z.-.&.n &.&.` ^ 2.Y 2.2.&.&.: D c x _ ' ^ *.E D ",
"D.m.Z.! ! I ! *.N.B.I V.( M.G.G.E.U.2./ X.X.Z o - ^ R.P./ R./ T.R.T.U.U.n.F.F.! $.-.@.E =.=.=.( Y ^ <.<.<.%.%.T _ _ _ ^ =.-.#.#.",
"^.~.m.Z.#.n.m.N.N.N.E n.M.V.B.B.M.X.X.Y / X...~ ^ b.R.R.R.R.U.P P.P.U.M.#.S.S.E @.@.P E =.=.2.2...<.<...<.2.*.^ ^ ^ %.$.Z.S.S.A.",
"i ^.D.A.#.$.m.n.*.M.I ( #.*.N.N.%.^  ., ......X.2.Y / T.T.P.P.P.P P.P.V.G.I #.C C ; I I *.( ~ ....<.<.Y <.*.*.%.%.*.#.Z.S.A.Z.~.",
"i u A.Z.#.#.$.! Q *.E #.#.! ! N.%.^  . ...s. ...X...R T.P.P.2.( ( 2.2.M.G.G.E @ + + Z ( ( R :  ...<.1.P *.( ^ %.( E ! Z.S.m.m.~.",
"i u Z.A.m.Q ! $.#.#.#.#.~ I E *.Y ~ ].+X$X X Xv. .X.2.2.P.X.( , ( *.*.V.G.N.#.G H W ^ *.( ( T ^ <.=.^ ^ =.^ E %.^ E ! $.Z.! Z.D.",
"i ^.t A.m.! #.#.Q ! ! E I ~ %.%.o.OX%XXXXX|.{.+X+Xf.<.2./ P , ( *.*.M.V.G.K.V.=.*.*.=.M.*.=.E %.&.&.%.E =.#.*.%.^ E ^ E E #.m.D.",
"i t m.A.A.Z.$.#.E P E T K E ^ %.'..Xy.`.y.y.r.t..X`.l.( / ( ( P.P.P.U.*.M.G.G.E.3.=.=.=.~ E =.*.=.&.I %.=.=.%.( ^ E E I I + 7 D.",
"u 8 9 D.Z.m.m.$.#.I J K V H %.^ F a 7.0.t.6.7.w.p < Z ^ *.( *.*.2./ =.~ ( G.;.^ *.=.=.E I ~ %.%.&.^ &.=.=.=.^ ^ ^ ^ ~ C P 3 0 y ",
"u w r D.! m.m.%.W G V B F H %.^ L < & % $ $   . X V ~ ( ( ( ( I 2.~ =.^ ^ ;.;.E ^ &.=.=.E I I C C ^ <.=.1.=.^ ^ ^ ^ G G 5 4 7 y ",
"6 6 e w #.S.$.%.%.^ H E G %.=.%.=.%.L a a V F %.K ^ ( ( U I I E C <.<.1.N ;.&.&.^ &.&.=.*.` ..^ %.^ <.1.=.&.^ ~ ^ ^ W I 0 q 7 6 ",
"6 # m.Q Z.Z.*.( *.( *.*.~ =.=.;.=.*.%.^ ..<.<.<.2.( *.*.<.=.=.~ <...m 1.&.;.^ %.:.:.;.1.*...^ T ~ ^ *.^ ^ &.^ ..~ %.W P ! A.D.8 ",
"7 + Q Q *.N.#.( #./ / #.*.G.G.G.( E %.<.<.~ ~ ..^ ^ ( ^ { =.1.1.<...} <.1.4.*.T ^ 1.1.1.1.<.<.Y T *.=.~ E %.^ %.&.^ W $.#.#.Z.D.",
"Z.I I W #.N.N.( M.V.M.N.N.G.G.G.=.I =.<.^ ^ ~ ^ ^ %.^ I =.&.1.1.{ { <.<.<.1.3.^ ^ 2.{ } <.<.<.E G @.*.%.^ ^ ^ *.=.*.%.=.=.! S.S.",
"Z.$.W E ( V.B.V.#.V.B.V.#.Z.Z.$.$./ *.%.I %.^ T K %.%.I %.&.%.1.N { <.<.~ <.2.^ X.<.{ { ..2.2.&.@.G.*.%.=.( *.%.~ ~ ^ *.*.G.Z.Z.",
"%.=.^ ^ ( M.V.V.#.V.N.N.-.#.=.! ! / =.~ I %.~ Z %.%.m ] %.&.^ <.M ] T 2.Y ~ <.Y T .... . ...<.=.-.G.G.=.=.( ( ( ( ~ =.*.$.=.=.I ",
"^ %.X.X.( M.#.( #.N.! #.Z.Z.$.! *.~ ( I ^ ~ T ^ %.<.......^ D .. .D T <.Y <.<.....S .. . ...<.*.;.$.V.=.=.( ( =.*.$.N.$.=.=.$.I ",
"~ ....X./ ( ( / #.$.! ! J.J.Z.G.! ~ P I T Y ~ ^ ^ ....] ] ..S ] S Y ..^ <... .~ ..T  .T ....<.%.=.N.V.U.2.=.E M.#.Q n.*.G.G.$.I ",
"^ .. .^ E ~ *.P E $.#.$.J.G.N.G.G.I E E ^ ^ ^ ^ ^ .... .] ..S K ..<...] .. ...T ^ T T T  .~ ..^ 3.#.V.=.2.oX#Xj.N.*.#.m.Z.Z.$.^ ",
"%.^  ...%.*.%. .3.-.$.! =.$.N.J.$.*.%.=.*.( ^ %...<.<. .......^ ..%.} m M _ 2.2.E ~ T T  .Y ..^ 2.%.=.x.XX@X@X|.^ #.n.Z.A.A.Z.$.",
"%.^ ^ %.=.oX*X&X Xh.J.$.G.#.#.J.Z.;.*.*./.%X%X).....T E ^ <.^ ...._ _ .. .] U.U.2.2...X.~ ~ 2.2.<.^ 3.`.(._.y.v V W #.m.m.D.Z.$.",
"^ T ~ =.=.OX`.(.6.y.$.J.N.#.! =.Z.( %.!.@X_.l.w.z ^ Y *.( ^ %.....' S  ...X.X.U.U.U.X.X.R / U.3.X.^ ^ x z k & & s ~ I E Z.D.S.*.",
"..> Y *.%.J a F p.C I ( ( Q E %.! E E >.h 7.5.k s G %.=.~ ~ <......... ...X.2.U.M.E.T.U.R ( E.E.U.T ..K A s A ) '  .^ =.S.F.G.=.",
"<.T T X.V.*.%.E E ( G.( I P E G.G.G.=.%.F F 1 Z E #.B.G.N.Q =.<.2..... .T  .X.( ( E.E.U./ M.G.G.V.*.<... .S '  .'  .T %.=.G.G.V.",
"U.2.X.X.V.V.N.Q ( G.4.;.~ ! J.J.G.V.V.^ %.~ E N.G.G.n.G.#.#.V.=.3.2.X.T ~ <.2.U.E.B.V.M./ V.K.G.=.*.2.X. .Y  . . .' D ..2.U.U.U.",
"T.T.P.P.V.I E =.V.=.3.3.W.G.J.K.G.V./ / =.*.E *.N.N.N.*.G.G.B.E.3.2.2.2.2.2.U.U.E.B.V.b.*.B.K.K.V.*.X.X.X.Y .. . . .S  .......2.",
"2.T.P.P.V.( P U.3.2.<.<.1.E.G.G.G.( R P *.&.~ *.*.^ =.#.*.V.V.G.U.2.2.2.2.=.M.V.G.C./ / M.B.K.L.B.*.2.X.2.2.X.X.X... . . .Y Y X.",
"X.P.P.U.V.U M.E.3.2.....~ =.V./ =.^ ~ *.E ^ E =.~ ^ =.%.=.*.( B.G.U.*.( V.*.( V.#.N.C.U R V.K.K.B.V.M.U.U.U.2.2.X.X. . .| Y X.X.",
"X.2.U.U.M.E W.E.3.^ Y Y Y P E *.1.<.&.*.E E P I ^ ^ *.*.=.=.! G.I N.#.Q G.N.#.V.Q G.G.N.I M.! ! G.V.M.U.T.T.U.( 2.X.X.X...X.X.X.",
"P.R R / P G.K.W.E.2.T T ..%.=.&.=.%.&.=.I =.W ^ %...<.*.E =.=.! Q S.Z.#.Z.n.N.N.B.! L.m.I , I K.K.V.U.U.T.T.T.R X.T.X.X.X.X.X.2.",
"P.R b.Y E.K.K.K.G.V.%.^ ..%.&.&.=.=.=.=.Z.#.^ ^ .. ...%.~ *.%.#.m.D.Z.#.m.Q N.B.K.! ! #.P ; I G.B.V.U.E.( R U.R R U.T.X.X.2.T.R ",
"R P.P.U.B.K.L.K.G.G.=.&.%.%.=.=.3.3.=.=.=.%.P ~ D ' ~ ^ *.=.E $.^.^.Z.! n.n.N.B.K.L.K.! ; P #.K./ E.M.U.P.R / R / / / T./ / T.P."
};
