/* XPM */
static const char *thornfloor_snowy[] = {
/* columns rows colors chars-per-pixel */
"64 64 180 2 ",
"   c #867E5D",
".  c #837E62",
"X  c #897E62",
"o  c #7F8161",
"O  c #94973E",
"+  c #949741",
"@  c #969A44",
"#  c #969A4C",
"$  c #9A9D4B",
"%  c #8C8E55",
"&  c #86865F",
"*  c #8D905F",
"=  c #959755",
"-  c #979B53",
";  c #999C56",
":  c #91935C",
">  c #969A5D",
",  c #9C9E5A",
"<  c #9EA14C",
"1  c #9DA156",
"2  c #9DA25D",
"3  c #A3A454",
"4  c #A2A55E",
"5  c #A6A85C",
"6  c #A9AB5E",
"7  c #828161",
"8  c #8C8466",
"9  c #8C8C64",
"0  c #89896D",
"q  c #908B66",
"w  c #93866A",
"e  c #938C6D",
"r  c #8F9068",
"t  c #959A65",
"y  c #999C65",
"u  c #949269",
"i  c #959A6B",
"p  c #9A9D6D",
"a  c #968F72",
"s  c #9A8E71",
"d  c #949273",
"f  c #9B9373",
"g  c #9B9B74",
"h  c #97977C",
"j  c #989478",
"k  c #979A7D",
"l  c #9C9B7B",
"z  c #A29478",
"x  c #A49B7C",
"c  c #A89B7E",
"v  c #9EA363",
"b  c #9EA36B",
"n  c #9CA275",
"m  c #9DA27B",
"M  c #A2A664",
"N  c #A5A965",
"B  c #AAAD63",
"V  c #A2A66B",
"C  c #A5AA6C",
"Z  c #AAAD6D",
"A  c #AEB16D",
"S  c #B2B46C",
"D  c #A2A673",
"F  c #A5AB73",
"G  c #AAAD74",
"H  c #A3A57C",
"J  c #A5AA7C",
"K  c #AAAD7B",
"L  c #ACB175",
"P  c #A7B079",
"I  c #ACB27C",
"U  c #B2B574",
"Y  c #B7B971",
"T  c #B9BB75",
"R  c #B2B57C",
"E  c #B5B87C",
"W  c #BABD7C",
"Q  c #979F81",
"!  c #9B9E82",
"~  c #AC9F82",
"^  c #9EA383",
"/  c #9FA885",
"(  c #A3A483",
")  c #ACA484",
"_  c #A5AB83",
"`  c #AAAE84",
"'  c #A4A78A",
"]  c #A8A68A",
"[  c #A6AC8A",
"{  c #AAAE8B",
"}  c #B1A386",
"|  c #B1AF86",
" . c #B3A689",
".. c #B5AB8B",
"X. c #B9AB8D",
"o. c #A7B084",
"O. c #ADB284",
"+. c #AFB886",
"@. c #A7B08D",
"#. c #ADB38C",
"$. c #AEB98B",
"%. c #B1B584",
"&. c #B4BA85",
"*. c #BABD84",
"=. c #B1B58C",
"-. c #BBB58C",
";. c #B5BC89",
":. c #B6BD8B",
">. c #B1BB8D",
",. c #B2BC8D",
"<. c #B3BD8E",
"1. c #B5BC8E",
"2. c #B4BE8F",
"3. c #B9BB88",
"4. c #B9BE89",
"5. c #B9BF8B",
"6. c #BABE8C",
"7. c #A6AD91",
"8. c #ABAE92",
"9. c #BBAE91",
"0. c #ADB392",
"q. c #AFB891",
"w. c #AEB59A",
"e. c #B2B693",
"r. c #BCB393",
"t. c #B4BB93",
"y. c #B9BD93",
"u. c #B2B698",
"i. c #B5BB9A",
"p. c #BABE9A",
"a. c #B7BFA2",
"s. c #BBBFA1",
"d. c #C2B496",
"f. c #C3B699",
"g. c #C5BA9B",
"h. c #C9BB9D",
"j. c #CBBEA0",
"k. c #BEC183",
"l. c #BEC187",
"z. c #B7C08F",
"x. c #B9C08B",
"c. c #BFC389",
"v. c #BAC28E",
"b. c #BCC18C",
"n. c #BFC58F",
"m. c #B7C094",
"M. c #BDC393",
"N. c #BCC294",
"B. c #BFC696",
"V. c #B7C19A",
"C. c #BCC39A",
"Z. c #BDC3A2",
"A. c #C0C386",
"S. c #C3C585",
"D. c #C2C586",
"F. c #C7C884",
"G. c #C8C984",
"H. c #C1C389",
"J. c #C2C58C",
"K. c #C7C988",
"L. c #C6C98B",
"P. c #C9CA8B",
"I. c #CBCC8C",
"U. c #C3C590",
"Y. c #C2C594",
"T. c #C7C991",
"R. c #C4C994",
"E. c #CACC94",
"W. c #C2C59B",
"Q. c #C8C09F",
"!. c #C5CA9B",
"~. c #C9CC9B",
"^. c #CFD095",
"/. c #C2C5A2",
"(. c #CCC2A1",
"). c #C3C9A2",
"_. c #C9CEA2",
"`. c #D1C3A4",
"'. c #D4C7A9",
"]. c #D7C9AA",
/* pixels */
"2.<.<.<.x.c.H.l.5.3.%.O.{ #.=.P =.V #.#.#.#.2 n n / / _ #.#.F J c.K.K.B.+.>.I <.v.n.n.v.<.<.x.n.Z &.>.>.+.V 1 @ N <.<.>.+.P Z <.",
"2.<.<.<.R H.D.A E &.%.V =.=.>.K V ` { { { #.#.D _ _ _ O.%.:.R 5.E.*.H.R I C R >.:.x.N :.>.<.x.x.:.>.+.I +.+.+.@ P <.2.>.G 2.P <.",
">.<.<.<.R H.A.Z R %.2 C >.>.=.#.` #.{ ` { #.#.` _ _ O.&.*.l.H.T.I.P.W H.R 5.M.M.N.x.Z &.>.:.5.x.:.#.#.b o.#.#.+.<.+.<.2.<.<.<.v ",
"v >.>.:.c.N R M N $ F V %.K J { { #.#.V #.O.+.O.O.%.R *.A.D.A.P.I.G.K.T.*.5.5.5.&.:.C 2.>.&.:.:.+.o.[ v #.[ #.#.$.V P <.<.<.>.+.",
"O.>.>.:.n.U.R M 1 1 P +.I F 2 [ { #.=.v #.I I O.O.Z L *.l.W T E.I.D.D.H.E %.:.R L &.G y.t.P I &.#.[ [ [ [ [ [ [ #.O.C <.<.>.+.O.",
"O.t.2.5.U.~.b.:.N.2.2.>.O.I F ` #.=.K K =.K F O.O.F I &.*.A k.P.E.K.k.J.c.I I x.&.5.5.&.O.C F %.V _ [ [ [ [ [ H J #.$.>.>.+.+.2 ",
">.N.C.N.R.!.Y.M.N.2.<.>.&.:.C K =.=.O.V %.R &.+.I K O.G Z U *.P.I.^.K.K.W R 5.&.Z L I I F J O.O.D _ _ [ { { 9.) _ #.#.$.P V 2 +.",
"t.N.N.:.:.W.Y.y.y.y.y.5.G K :.g J ` V O.&.` f g O.J J C N $ A K.I.D.k.D.D.c.M.5.L N F D H J J O.J J X.9... .r.c m #.#.+.J O.+.+.",
"y.I p.G L Y.N.K %.y.2.F V I %.g l g O.J ` 8 X g _ ` ` M 4 N W P.P.S Y K.k.l.v.5.:.F #.[ { #.` =.r.f.}  . .a w   i O.#.#.#.+.+.+.",
">.O.p.K I y.y.F K t.2.%.G C V v v g #.H e e X e ( 8 p R c.W U K.G.S T K.U b.M.t.y.p.e.K e.=.#.| f.) s q d e g y F #.>.>.+.O.O.V ",
"v e.i.i.2.t.y.y.O.) y.t.t.=.O.` ` g e e f _ ` f d 8 J C H.D.Z 5 6 5 Y Y E R.N.y.t.>.=.K O.=.%.K g d d ( ) f...O.=.>.>.>.G C V F ",
"0.8.{ p.y.t.K %.p.) t.t.{ g ` F F K #.K K #._ 0.J O.I M U D.K.A B 3 l.A R.c.:.>.2.%.2.2.G :.:.3.` J ` ..g.f.) ~ e.>.>.2.t.2.2.J ",
"e.8.8.] i.t.%.C %.p.y.y.{ f #.V F O.%.F F O.O.t.p.O.%.M.&.R L.D.B $ N C N.v.&.I &.I I &.:.5.5.5.I C O.d a 8 e j #.e.+.=.t.2.=.=.",
"e.e.e.( u.i.y.%.%.t.=.( e.e.e.K I 2.%.I K K O.y.t.t.=.C.y.R J.J.R , M O.<.N.N.O.:.N.5.v.5.5.5.5.&.N #.H g g g _ 0.t.O.F t.t.t.=.",
"0.e.#.e.H l e.=.` l i.u.e.u.i.t.2.5.%.%.>.O.t.=.I K #.t.2.b.*.6.O.` ` C.t.N.M.2.&.:.v.5.R 3.5.&.:.G =.O.V #.` H _ e.=.V =.t.O.e.",
"{ [ J e.V J t.F K e.( =.#.e.e.g 3.M.5.2.>.I +.2.%.F >.2.y.5.&.Z O.O.t.Z.t.:.v.N.&.:.&.&.&.R &.L I G >.I F t.O.V { e.#.{ 0.=.` 0.",
"_ H _ t.F i.p.#.e.D ( #.e.e.e.` 3.&.5.y.2.I I 2.M.v.:.2.N.N.:.G #.t.p.t.y.N.&.O.O.:.I I 5.5.E U %.F P V O.O.J ` #.0.u.8.0.#.D 0.",
"b b 0.e.q.e.e.H 8.` { #.e.e.t.%.2.&.:.2.t.2.G 2.%.R M.2.5.b.N.F _ #.q.q.O.O.I L O.&.G L c.c.5.3.F b ; b F F O.#.O.w.0.8.0.{ D 0.",
"[ #.#.u.u.i.i.D #.O.J #.e.O.#.O.2.%.5.2.e.y.y.:.2.B.5.&.l.c.N.t.q.q.[ #.F I =.M F &.R R H.*.*.5.K = : > H ` =.e.e.#.{ { 0.0.D [ ",
"{ #.#.#.q.Z.V.p.O.O._ _ #.F O.O.=.%.5.O.>.=.e.O.t.y.M.H.D.K.b.2.t.q.@.#.#.=.#.V I 3.R Z E R W H.R D g H #.+.=.p.e.q.0.` 0.e.e.#.",
"{ J { 0.w.y.C.y.y.C.u.q.` K >.e.=.O.t.` { 0._ V #.#.%.T A.T.U.M.y.p.q.u.y...j.(.-.*.5.E *.R R U.b.:.O.O.2.y.y.y.>.e.K K e.e.t.e.",
"0._ v [ w.i.t.N.C.C.t.q.F P t.e.=.2.t.f.g.X.J D 0.#.C Z H.E.J.N.u.H O.r.f. .9.z f *.*.J.*.R A 5.6.I %.%.t.y.N.&.I t.F y.=.2.i.e.",
"0.0.{ [ #.u.p.N.&.N.C.C.F :.B.C.C.F r.r.} c  .' 0.w.p.N.!.H.J.t.0.b D =.r.w X 9 D N N R E Z Z R G G G 2.t.M.B.5.R 5.2.y.L I e.0.",
"#.0.#.#.D O.#.2.:.B.M.N.I v.M.M.M.>.[ X w f l ' { 0.J #.C.b.Y.N.#.O.J #._ g H y C 5.Y.R Z M N U.6.5.2.2.2.y.&.&.R 5.M.b.5.L y.e.",
"=.q.q.J O.e.t.C.B.v.5.N.%.B.R.M.2.%.#./ m t [ g.f.f._ 0.p.N.N.t.<.C.t.t.#.:.I C &.N.C.N.L L U.R.Y.M.2.O.>.I I M.b.U.*.b.&.E 5.y.",
"t.q.e.e.t.y.N.C.W.b.v.:.:.B.R.R.5.>.#.#.#.v r.f.X.c p u.#.>.#.e.t.t.t.m.2.C Z 5.N.C.t.t.W.Y.Y.U.W.5.I P y.>.K 2.M.N.M.*.M.b.v.N.",
"5.>.e.t.t.t.2.N.b.b.I I M.Y.~.~.M.t.e.e.>.#./ d a 0 Q w.{ D D i.$.>.<.t.2.I M t.C.C.#.#.t.C.U.b.N.I C V p.t.K :.t.%.2.%.&.5.*.v.",
"v.2.%.I 5.:.R 5.R 5.M.L P B.R.T.x.N.N.2.2.m.#._ _ / 0.0.` D Z.q.#.<.>.t.N.Z :.H e.Z.i.#.K C.C.G C.O.O.[ F %.G :.K O.=.=.:.&.L x.",
"5 :.&.Z 5.5.&.B.R U.Y.x.L N.R E U.N.2.2.<.z.<.+.>.#.w.a.0.q.p.e.e.>.2.N.5.Z B.( e.=.K J n V G 2.e.#.H x V V M M ` l p.t.>.&.K 5.",
"B l.*.U *.:.5.M.c.U R.U.L 4 A R.J.N.N.2.2.z.m.G t.t.p.p.u.u.i.>.>.C F O.N B.!._.M.t.#.H ( { ( u.( e.t.=., J K I { l i.=.K =.>.Z ",
"Y D.k.U :.L :.M.c.U U *.M $ Z ~.c.N.t.2.I F <.P F m.m.V.y.y.C.G 2.Z <.F ).!.~._.!.W.p.{ ( e ( y.y.l =.l ` F #.p.[ [ q.#.K %.I E ",
"F.F.k.A :.&.:.b.U.~.J.G @ ; O.b.A N.2.2.<.F I V F I I V.&.+.t.t.Z <.t.).C.R.E.~.!.W.=.a u.i.e.C.C.C./.W./.y.K u._ 7.0.{ #.:.G &.",
"G.F.D.:.+.&.L 2.v.!.U.2.H ` N.U.Z >.t.<.>.b # + > O.2.t.2.I F C.N.t.C.)._.T.K.R.!.Y.| x e.p.( %.Z.F t.p.i.p.v H e k ^ #.e.>.F D ",
"D.T W A L N I M.N.Y.Z W.e.N.B.n.v.<.e.O.+.#.n O i #.m.2.O.C.O.C.C.C.C.C.5.K.H.U 6.N.2.I p.C.C.:.K e.i.u.p.e.#.` ( l l =.:.5.R 5.",
"F.D.T W U &.5.B.B.M.L N.N.N.B.M.2.$.#.V O.#.#.#.o.C.C.N.t.N.C.C m.m.N.N.5.~.H.Z 3.p.V P C.)./.p.e.e.i.i.i.t.=.#.q.O.#.y.c.l.J.~.",
"G.G.D.A.U &.v.5.:.:.C 2.t.2.v.M.>.#.#.V q.q.w.#.t.G O.<.<.t.C.C.V C.m.N.b.Z E 4 2 $ #.L t.>.=.p.0.e.i.F s.y.=.=.t.y.%.Y.T.T.K.P.",
"G.D.D.l.U R 5.R I &.Z :.t.O.I y.#.#.w.u.0.{ 0.w.u.e.G C.t.y.y.>.<.C.C.N.M.!.G ; # - J t.C.I v e.0.t.p.M t.t.=.=.O.G R U.H.W W P.",
"G.D.A.D.E Z L 5.&.&.&.&.%.F P y.F #.9.g.h.r.f.r.J q.#.t.C.m.C.N t.Z.C.!.~.!.2.H _ _ #.t.N.=.F u.t.p.%.K y.:.I #.O.G %.M.J.U k.D.",
"G.F.A.D.W L &.R L R I O.F O.t.t.J Q.`.f.f.X.X.g.(.e.#.$.O.F N V.C.m.C.B.!.U.x.N.t.t.N.C.N./.I 2.p.y.=.K y.3.N.t.O.O.=.L G U W K.",
"G.W W D.K.c.5.&.G C K J H ` O.e. .d.c } z z f f r. .c m.+.O.>.m.m.C.C.N.N.Y.5.2.y.C.N.C.%.I y.:.y.t.C 2.y.y.=.#.t.O.O.G Z $ Z P.",
"D.B S D.k.*.5.2.:.F [ [ ( { t.=.[ k w e z w w a 9 d n O.y.>.t.m.t.2.y.%.%.W.W.%.t.2.2.G V G %.%.e.O.#.t.y.y.=.#.e.u.` M M 1 L *.",
"D.S T D.A *.v.t.=._ ( n [ { p.%.{ k r & . 7 o % * ^ _ >.y.<.<.F Z.%.y.%.K W.2.C %.t.2.:.F C V M V K e.e.p.p.i.e.i.` D J F V N A.",
"6 3 Y S U c.:.y.t.#.#.O.K t.C.2.p.e._ k ^ l l #._ #.>.N.O.P K ` V i.u.p.f y.t.t.%.y.y.%.%.x ) =.=.O.=.p.t.t.#._ u.` I C R &.B 5 ",
"5 < T B l.c.:.y.W.2.C.W.%.C.W.C.y.%.>.#.0.#.#.=.#.+.#.N.t.t.y.O.i.0.j u.p.p.%.2.) ( y.t.=.K ` K O.%.y.=.O.p.e.e.O.=.%.4 A T.K.A ",
"B $ B Z >.x.%.%.y.%.%.N.N.Y.W.W.&.K e.u.e._ J #.` #.O.#.H W.p.t.u.u.{ #.y.t.%.F 2.2.=.t.e.#.#.F F 2.y.K K =.=./.p.%.%.&.E U A.K.",
"k.4 M I +.5.N.&.N.N.5.W.!.W.Y.Y.5.G y.p.O._ J { ` #.K C p.p.t.=.( ' 0.#.e.e.2.=.2.C.( ( { 0.t.F J =.%.%.%.%.O.C.2.2.=.C.5.L *.l.",
"U.5.O.J +.5.v.C.5.N.M.!.5.Y.Y.5.5.P C.y.F #.` D J { ` V =.y.=.=.l ] u.e.` e.i.t.=.t.( ( { #.e.y.t.M.:.:.y.+.=.2.I I y.C.y.5.*.*.",
":.2.#.#.y.v.5.N.y.N.5.W.W.&.6.R &.O.C.O.C #.K V { #.d [ 0.#.=.u.l ( J p.V ` #.F J { 0.#.` #.#.y.W.W.N.N.C.=.=.>.%.I C.y.:.5.&.N ",
"#.e.#.e.V.C.:.&.&.R.&.&.U.Y.6.&.%.G I C O.K F K #.{ 0.8.[ { J 0._ H H i.F i.i.#.#.b #._ #.q.e.t.N.N.W.C.y.%.:.N.2.&.N.2.:.3.%.V ",
"#.u.u.V.#.>.%.P >.W.I R J.R.~.Y.&.I 1 C F D J O.` #.{ { 8.{ D u.V D q.e.u.e.#.J 0.D 0._ e.i.i.y.W.W.W.N.e.t.L C.5.I :.&.*.5.>.b ",
"q.#.#.q.K I t.C O.y.3.*.U.5.c.Y.U.C G C ` O.` ` #.#.0._ 8.8.b ( #.i.e.[ u.u.t.J #.` J ` e.#.e.y./.y.).C.p.Q.(.t.N.2.:.*.l.c.&.O.",
"y.u.w.#.#.t.e.K :.5.&.U U.5.*.R.6.y.2.y.t.%.O.#.#.q.#._ { 0.#.[ { t.[ j l ( e.e.K O.J ` e.F #.t.C.2.y.r.f.g.h.9.y.C.v.H.K.K.*.&.",
"2.q.q.e.t.(.].'.9.-.U.*.!.*.E !.Y.5.=.>.W.'.`. ._ O.F F ` e.u.i.u.H m 0.{ H C.N.y.e.w.w.#.K >.i.p.%.t. .c ) z u { #.&.E k.D.*.5.",
"e.O.t.y.y.g. .c 8 z M.!.U.R U 5.U.%.%.g.h.} c e q ` V =.K +.t.#.#.` b 0.w.#.y.N.N.N.$.e.F I t.y.t.y.p.l h X i u ^ q.F Z k.D.*.%.",
"e.D D >.>.[ ! H ) M N E &.L Z R L I K ` 8 w X   : n O.:.F G i.e.0.u.0.0.@.#.p.N.:.N.m.t.F :.C.N.C.K u.[ ' ^ ' 7.[ u.e.5.J.H.l.#.",
"e.J _ e.N.t.=.K Z 5.!.E Z N Z 6.M.W.y.=.m n t b V R 5.5.&.G >.=.p.e.0.q.D O.+.&.&.M.B.2.L v.!.N.2.y.V.p.u.H w.[ [ w._ e.2.c.x.:.",
"N.e.V.y.C.W.M.G R W./.).K R !.U.U.W.N.O.+.F F :.x.l.E *.R R :.:.p.#.#.F O.q.>.2.N.v.v.M.I M.!.N.y.>.p.Z.i.J w.[ 7.7.H #.=.2.2.>.",
"m.t.C.N.B.L L :.2.y.C.W.5.Y.R.R.Y.C.O.P =.#.F &.:.:.&.R 5.x.5.v.t.e.t.y.e.>.2.2.5.x.x.:.:.M.R.U.N.t.y.V.i.F u.u.0.8.b _ O.O.O.$.",
"t.m.t.t.v.I C C.2.t.p.p.y.).!.!.W.%.C M #.#.F %.%.K %.I &.:.:.v.y.t.e.t.>.>.&.5.v.5.L L 2.M.J.J.M.N.i.C.V.Z.V.u.u.w.[ 7.[ b b #.",
"u.t.t.2.N.G :.C.C.t.#.q.O.C.N.G y.I K =.F I F :.G K =.O.%.&.L x.v.:.+.I :.&.L :.R *.:.Z G N.U.T.n.N.t.N.C.C.y.t.u.q.0.@.H b #.#.",
"q.t.m.N.v.Z M.!.C.O.b D F C K t.=.#.#.=.F V 4 M O.` #.#.=.%.L 5.5 :.&.Z 5.:.I :.Z *.l.:.F N.R E R.N.2.m.z.N.N.O.t.q.#.#.#.#.#.#.",
"t.C F I N B.R.R.W.y.J J q.e.t.y.e.#.#.2.M %.G K O.{ #.#.F =.>.Z B l.*.U *.:.&.:.*.L H.&.V 1 Z J.U.N.N.N.m.N.C.Z >.e.#.#.#.#.#.#.",
"+.Z +.C N.B.U.U.v.y.t.e.u.u.y.C.y.y.y.y.5.R K { [ [ [ #.F %.I R Y D.k.U :.L :.*.k.S A U 2 $ M b.n.N.N.N.O.L m.F F <.>.$.#.$.<.C ",
"C <.t.m.v.n.T.J.c.5.y.i.e.u.p.y.t.t.y.2.:.=.V ' n _ _ [ +.&.Z &.F.F.k.A :.R &.*.c.H.l.L $ M &.R.L N.t.m.<.F I C G P P $.I I t.+."
};
