/* XPM */
static const char *water[] = {
/* columns rows colors chars-per-pixel */
"64 64 111 2 ",
"   c #0089CF",
".  c #008ED3",
"X  c #0091D6",
"o  c #0095DB",
"O  c #0896D9",
"+  c #0199DE",
"@  c #0B9BDD",
"#  c #139DDD",
"$  c #14A0DF",
"%  c #1AA1DE",
"&  c #23A3DE",
"*  c #2DA5DD",
"=  c #31A6DD",
"-  c #019DE3",
";  c #0A9FE1",
":  c #00A1E6",
">  c #0CA2E5",
",  c #00A2E8",
"<  c #0CA6E8",
"1  c #13A4E4",
"2  c #1CA4E2",
"3  c #15A8E7",
"4  c #1DA9E6",
"5  c #10A7E9",
"6  c #13A8E9",
"7  c #1CABE9",
"8  c #23A6E3",
"9  c #29A7E0",
"0  c #25AAE5",
"q  c #2BACE5",
"w  c #23ADE9",
"e  c #2BAFE9",
"r  c #31AEE5",
"t  c #3BADE2",
"y  c #2CB1EA",
"u  c #34B1E7",
"i  c #38B0E5",
"p  c #33B3EA",
"a  c #34B4EC",
"s  c #37B4EC",
"d  c #39B3E8",
"f  c #3AB6EB",
"g  c #3CB6EB",
"h  c #38B5EC",
"j  c #3EB7EC",
"k  c #3EB8EC",
"l  c #43B3E6",
"z  c #4BB4E5",
"x  c #40B7EB",
"c  c #44B6E8",
"v  c #4AB7E9",
"b  c #43B9EB",
"n  c #45B9EB",
"m  c #41B8EC",
"M  c #44B9EC",
"N  c #4ABCEC",
"B  c #4CBCEC",
"V  c #4FBDED",
"C  c #50BAE7",
"Z  c #50BCEB",
"A  c #56BEE9",
"S  c #51BDEC",
"D  c #55BEEE",
"F  c #5ABDE9",
"G  c #5CBCE8",
"H  c #5BBFEC",
"J  c #60BCE7",
"K  c #61BEE8",
"L  c #66BFE9",
"P  c #57C1EE",
"I  c #58C0EE",
"U  c #5CC2EE",
"Y  c #5FC3F0",
"T  c #60C4EE",
"R  c #63C4EE",
"E  c #69C6EF",
"W  c #6BC6EE",
"Q  c #6EC8EE",
"!  c #71C6EE",
"~  c #74CAEF",
"^  c #7BCBEF",
"/  c #66C5F0",
"(  c #65C6F0",
")  c #69C6F0",
"_  c #6FC9F1",
"`  c #74CBF1",
"'  c #76CDF0",
"]  c #7ACDF1",
"[  c #7BCDF1",
"{  c #7CD0F0",
"}  c #82CFF1",
"|  c #83D0F2",
" . c #86D2F2",
".. c #8CD3F2",
"X. c #8FD4F2",
"o. c #93D6F3",
"O. c #9AD7F2",
"+. c #96D8F3",
"@. c #9CD9F4",
"#. c #A3DBF4",
"$. c #A4DCF5",
"%. c #A8DEF5",
"&. c #ABDEF5",
"*. c #B0DFF5",
"=. c #AEE1F6",
"-. c #B2E1F6",
";. c #B7E3F6",
":. c #B8E3F7",
">. c #BBE4F6",
",. c #C1E6F7",
"<. c #C8E8F7",
/* pixels */
", , , , , , , , , , , , , , , , , , , , , , , , , , , , , , , , , , , , , , , , , , , , , , , , , , , , , , , , , , , , , , , , ",
", , , , , , , , , , , , , , , , , , , , , , , , , , , , , , , , , , , , , , , , , , , , , , , , , , , , , , , , , , , , , , , , ",
", , , , , , , , , , , , 5 7 7 5 < , , , , , , , , , , , , , , , , , , , , , , , , , , , , , , , , , , , , , , , , , , , , , , , ",
", , , , , , , < < < 5 7 y p h y 7 5 < < , , , , , , , , , , , , , , , , , , , , , , , , , , , , , , , , , , , , , , , , , , , , ",
", , , , < < 7 e y p s j g f g h y w w 7 6 < < , , , , , , , < < 5 5 5 5 5 5 5 < < , , , , , , , , , , , < < < 5 5 5 < , , , , , ",
", , , < 5 7 y h f x b g p w w w w 7 w 7 7 6 < , , , , , < 6 w y p p p e w w 7 7 < , , , , , , , , , , < 5 6 5 5 5 5 < , , , , , ",
", , , < 5 3 4 0 0 q 0 4 1 > 1 3 > ; > > < 5 < , , < 5 7 w p M D U U U D Z n m g e 7 < , , , , , , , , < 5 5 < < < < , , , , , , ",
", , : : - - ; ; ; - - - - - - - - - - - : , , , , 5 6 7 0 r c C H K G G H A S N g y 7 5 < < , , , , , , , , , , , , , , , , , , ",
", , - - - - - - - - - - - - - - - - - : : , , : : > > @ # # & & * = * * t t d d e w 7 6 6 6 < , , , , , , , , , , , , , , , , , ",
", , - - - - : , , , , , , , , , , , , , , , , : - + o o X X X X o o o o O @ ; : : , < < < 5 < , , , , , , , , , , , , , , , , , ",
", , , , , , , , , , , , , , , , , , , , , , , : - - + + o o + + - - - - - - - - : , , , , , , , , , , , , , , , , , , , , , , , ",
", , , , , , , , , , , , , , , , , , , , , , , : : : : : : : : : - - - - - - - : : , , , , , , , , , , , , , , , , , , , , , , , ",
", , , , , , , , , , , , , , , , , , , , , , , , , , , , , , , , , , , , , , , , , , , , , < < 5 5 6 5 6 5 5 < , , , , , , , , , ",
", , , , , , , , , , , , , , , , , , , , , , , , , , , , , , , , , , , , , , , , , , , < 5 7 7 y y y p p y y e 7 < < < , , , , , ",
", , , , , , , , , , , , , , , , , , , , , , , , , , , , , , , , , , , , , , , , , , , < 7 7 w y y y f f p p p 8 3 5 5 5 5 < , , ",
", , , , , , , , , , , , , , , , < 5 6 6 < , , , , , , , , , , , , , , , , , , , , , , < 3 2 3 1 1 1 2 2 1 2 2 1 > 5 5 5 3 5 > , ",
", , , , , , , , , , , , < 7 w s M T ) ] ' E I I V M h y 7 6 < < , , , , , , , , , , , , < > - - + o o o + o + + - - - ; > > : , ",
", , , , , , , , , , 7 g P ) _ ]  .+.$.;.>.:.=.%.@.X. .X.| ] / V y w 6 5 < 5 < 5 < 5 < < : : - - - + o o + + - - - - - - - - : , ",
", , , , , , < 5 w p S ' ...... .| X.#.*.>.>.>.;.$.O.@.-.;.%.#..._ _ T T I P P U S m y 7 , , , , , : - - - - - - - - - : : : , , ",
", , , , , < w y j S U ` ` T D n d v H T ! ^ } } ~ ! ] +.#.@.O.+.X.+.o.o.......} ` D y 4 - - : , , , , , , , , , , , , , , , , , ",
", , , , , < w e e d u q 2 > - + + @ 2 8 8 q i l l x v S S I U T ~ ^ ` ] ] } } ! Z q 1 ; - - : , , , , , , , , , , , , , , , , , ",
", , , , , : > > - + + - - + o o X X X o + @ @ # # % 8 0 0 q q q i e 7 8 e d g 0 + o + + + - : , , , , , , , , , , , , , , , , , ",
", , , , , : - - + o o - - + o X X o o X o o X . X o o + O O O + - - - - ; ; 1 ; + + + - - : , , , , , , , , , , , , , , , , , , ",
", , , , , : : - - - - - - - + o + - + + o o X o o - - o o o o o - - - - - - - - - - - - : : , , , , , , , , , , , , , , , , , , ",
", , , , , , , , , , - - - - - - - : - - - + + - : , - - + + - - - - - - - - : : , , , , , , , , , , , , , , , : , , , , , , , , ",
", , , , , , , , , , : - : , , , , , , , : : : : , , : - - : : , , , , , , , , , , , , < , < , , , , , , , , , , , , , , , , , , ",
", , , , , , , , , , , , , , , , , , , , , , , , , , , , , , , , , , , < < 5 5 5 5 5 5 5 5 5 5 5 5 5 < < < , , , , , , , , , , , ",
", , , , , , , , , , , , , , , , , , , , , , , , , , , , , , , , , > < 5 3 3 5 5 5 5 5 5 5 5 5 5 5 5 5 5 5 < , , , , , , , , , , ",
", , , , , < < < < < 5 5 5 5 < < , , , , , , , , , , , , , : : - - > 1 > > > ; - + + + + - - + + + @ ; @ > > : : , , , , , , , , ",
", , < < 5 6 6 7 4 w e e y y y w 7 6 < , , , , , , , , : : - - + + - - - - - - - o o o o - + o o o o + + - - - - , , , , , , , , ",
", , 6 w 7 4 4 4 8 q q q r p p y w w 6 , , : : : : - - - - - + o o + - - - - - - - + - - - - - - - - - - - - - - , , , , , , , , ",
"< < 7 w 4 3 1 1 1 2 1 1 1 2 2 2 3 7 < : - - - - - - - - - - - - - - , , , , , , , , , , , , , : : : - - - - - : , , , , , , , , ",
"6 5 5 < > > ; - - - - - - - - - - : , - - - - - - - - - - - - : : : , , , , , , , , , , , , , , , , , , , , , , , , , , , , , , ",
"5 < , , - - - - - - - - - : - - - : , - - - - - - : , , , , , < < 5 < < < 5 6 7 5 < , , , , , , , , , , , , , , , , , , , , , , ",
", , , , - - - - - - - - : , , , , , , : : : , , , , , , : < 6 7 7 y h V V V m M h p e w 6 < , , , , , , , , , , , , , , , , , , ",
", , , , : - - - : , , , , , , , , , , , , , , , , , < < 6 w h M V E ] ..o. .` ~ } } ..] E U N m h h w 7 < < < < < < , , , , , , ",
", , , , , , , , , , , , , , , , , , , , , , , , < w h m N U ~ ] ] ..O.+.@.o. .o.$.-.:.-.-.-.@. . ...] I M m j h s e < , , , , , ",
", , , , , , , , , , , , , , , , , , , , , < 5 7 p S / _ Q  .o.X.} ] ` T T ) _ } X.#.%.:.,.<.:.#.$.=.$.o..... .` _ I y < , , , , ",
", , , , , , , , , , < < , , , , , , < < < 5 w y f I T T U E ` T V f y w w w y M V T ] X.O.@.o.` } X...o.o.@.@.....] V y 7 5 , , ",
", , , , , , < < 6 7 7 7 < < < , : < 5 6 5 5 4 w 4 q q 2 2 2 1 ; ; - - - - : : 4 e p M N m j h y h p f P I ) _ _ ` _ V s s 7 , , ",
", , , , , < 7 7 y y y y 7 6 5 < - > 5 1 > - - - - + o o o o o o o + - o + - - ; ; @ # + + - - - - - - : > 5 3 w e d 8 7 w 5 , , ",
", , , , < 6 7 w e y y y 7 5 < , - - ; - - - - - - - + + + + + + + - - o X o o o o X . . X X X X X X o o o + - - + + + - - , , , ",
", , , , < < 5 5 < 5 6 6 < , , , : - - - - - - - : : : : : : : : : : - - o X X o o X . . . .     . . . X X o o o o o + - - , , , ",
", , , , , , , , , , , , , , , , , , , , < < < < < < 5 5 5 5 < < < , : : - o X o + + o o o X X X X X o o o + - - - - - - : , , , ",
", , , , , , , , , , , , , , , , , , < 5 6 6 6 6 6 6 7 7 w w w w 7 < , , - - - - - - - - - - - - - - : : : : : : : : , , , , , , ",
", , , , , , , , , , , , , , , , , , < 5 5 < < < < < 5 7 7 w y p y 6 , , : - - - - - - - - : : , , , , , , , , , , , , , , , , , ",
", , , , , , , , , , , , , , , , , , , < : - - - - - - : > > 5 4 2 > : : , : - - - : : , , , , , , , , , , , , , , , , , , , , , ",
", , , , , , , , , , , , , , , , , , , , : - - - - - - - - - - + + + - - , , , , , , , , < < 7 7 6 5 5 5 < < < , , , , , , , , , ",
", , , , , , , , , , , , , , , , , , , , : - - - - - - - - - - + + - - : , , , , , , < 5 7 y j g h y p p y w 7 6 < , , , , , , , ",
", , , , , , , , , , < 7 y p w w 7 7 7 7 5 < : : : : : - - - - - - : , , , , , , , , < 7 w e x x f y f m m h y w 7 < < < < , , , ",
", , , , , , , < 5 p M T ' ] E U I P N m j s w 7 < < < , , , , , , , , , , , , , , : > 3 5 @ % 2 1 1 2 0 e y w w 7 6 6 6 < , , , ",
", , , , , < < y j Y ` } o.@.X.X.o.X.{ ] ] ` E D m h e < , , , , , , , , , , , , , : - - + X . X o + - ; > > 5 5 > > > > > : , , ",
", , , , , 6 w h S H U U E ] | } o.o.....o.O.O...' ` T N m k h e w 6 < , , , , , , : - - + o X X o - - - - + - + + - - - - : , , ",
": - - - - 1 0 8 9 & # 1 0 p b v F J L E ^ ..X. .] ] ' ]  ...| ` / D g 7 w 7 5 , , : : : - - - + - - - - - + + + + - - - - : , , ",
"- - - - + O @ O X . X o o - + @ @ # % 8 r n Z c x V D E } X.X.] ` _ S d h h w , , , , , , , , , , , , - - - - - - - : : , , , , ",
"- - - - - X X X X X X o o o o X X X X X o o O + + ; $ & r l z t t l r q q e 7 , , , , , , , , , , , , - - - - - : : , , , , , , ",
": : - : > ; + + - - - - + + + o o X . . . .   . . X . . X O O X O @ @ - - - : , , , , , , , , , , , , : - : , , , , , , , , , , ",
", , , < 7 w w w w y w 7 5 5 < < - o . . X .       . . . X o o X o + - - - - : , , , , , , , , , , , , , , , , , , , , , , , , , ",
", , < 7 y f k m v V N m p y w 4 1 - o + - o o X X o o + - - - - - : : , < < < < < < < < < , , , , , , , , , , , , , , , , , , , ",
", , 5 7 w e p i x c v x u q 2 # @ - - - : - - - - : , , , , , , , < 7 7 w w w w 7 7 w w 7 5 < , , , , , , , , , , , , , , , , , ",
", , < 5 6 > ; # # # % % 1 @ @ + o - : : , , , , , , , , , , < < 5 7 e p p e q p r e q 0 4 7 5 < < < , , , , , , , , , , , , , , ",
", , , , , - - + o o o o + - - - - : , , , , , , , , , , , , < 6 6 6 8 8 8 2 2 8 q 8 2 # 1 4 6 6 6 < , , , , , , , , , , , , , , ",
", , , , , : - - - - - - - - : : , , , , , , , , , , , , , , < 5 < < - + + @ @ @ # # @ + - > < < < < , , , , , , , , , , , , , , ",
", , , , , , , , , , , , , , , , , , , , , , , , , , , , , , , , , , - - - - - - - - - - - : , , , , , , , , , , , , , , , , , , "
};
