/* XPM */
static const char *woodpath[] = {
/* columns rows colors chars-per-pixel */
"64 64 2 1 ",
"  c #694F32",
". c #9E774B",
/* pixels */
"................................................................",
"................................................................",
"................................................................",
".........  ........... .........................................",
".......    ..........   ........................................",
"......    .........    ......... .............  ................",
".....   ..........    ........    ...........   ................",
"................    .........    ...........   .................",
"...............    .........   ............   ..................",
"..............    ..........  ............   ...................",
".............      .......................  ........  ..........",
"............   ..   ...............................    .........",
"...........   ....   . ...........................   ...........",
"...................     .........................   ............",
"...................    ....... ........ ........   .............",
".............................   ......   ......    .............",
"............................     ....   .......     ............",
"..........................    .   .    ...........    ..........",
".........................    ...      .............    .........",
".............. ........    ......   ...............   ..........",
".............   ......    ........ ...............   ...........",
"...........    ......   ...............  ........   ............",
"..........    ......   ...............   .......   .............",
".........   .........................   ......    ..............",
".......    ........................    ......    ...  ..........",
"......    ........................    ......   ....    .. ......",
".....   .........................   .......   .......      .....",
"....   ........................    .......   .........    ......",
".....   ......................    ......    ..........   .......",
"......   ..............................    .........    ........",
".......   .............................  ..........    .........",
".......................  .........................   ...........",
"......................   .......................    ............",
".....................   .......................    .............",
"....................   ....... .................................",
"....... ..........    .......   ................................",
"......   ........      .....   ...........................  ....",
".....   .......    ..   ..    ...........................   ....",
"....   .......    .......    ...........................   .....",
"...   .......   .......    ...................  .......   ......",
"......................    ...................     ....    ......",
".....................   ....................       ...   .......",
"....................   ......    ...........  ...   ............",
"....................  ......    ...........   ..................",
".................... ......   ............   ...................",
"..........................    ...........   ....................",
"........................    ...........    .....................",
".......................    ...........    ......................",
"..............  ......   .............  ........................",
".............   ....    ........................................",
"............   ....    ........................ ................",
"...........   ....   ..... ...................   ........ ......",
"..........   ....   .....   .................   ........   .....",
"........    ..............   ...............    .......   ......",
".......    ................   .............   ........   .......",
".......  ...................   ..........    .......    ........",
"..........................    ..........    .......    .........",
"........................     ...........  ........   ...........",
".......................    ............. .......................",
"......................   .......................................",
"....................    ........................................",
"...................    .........................................",
"..................   ...........................................",
"................................................................"
};
